<svg xmlns="http://www.w3.org/2000/svg" width="100" height="100" viewBox="0 0 100 100"><rect width="100%" height="100%" fill="#dc2626"/><path fill="#ffffff" d="M25.675 59.235h4.89q1.35 0 2.27-.32.92-.33 1.47-.87t.79-1.26.24-1.53q0-.84-.27-1.52-.27-.67-.84-1.15-.58-.48-1.49-.73t-2.18-.25h-4.88zm4.12-18.5h-4.12v7.52h3.85q2.48 0 3.75-.9t1.27-2.86q0-2.04-1.15-2.9t-3.6-.86m-8.96-3.75h8.96q2.56 0 4.37.49 1.82.48 2.98 1.38t1.7 2.18.54 2.88q0 .92-.27 1.76-.27.83-.83 1.56-.57.73-1.44 1.33-.88.59-2.08 1 5.36 1.21 5.36 5.8 0 1.66-.63 3.06t-1.83 2.42q-1.21 1.02-2.97 1.59-1.77.58-4.04.58h-9.82zm54.54 0h3.79l-8.08 26.03h-4.37l-5.69-17.78q-.23-.65-.43-1.59-.11.45-.22.85-.1.39-.23.74l-5.74 17.78h-4.4l-8.06-26.03h4.05q.63 0 1.05.3.43.3.57.8l4.43 15.57q.14.58.28 1.25.13.68.28 1.41.14-.75.31-1.42.17-.66.37-1.24l5.11-15.57q.15-.41.57-.76.42-.34 1.04-.34h1.42q.63 0 1.02.31.4.3.6.79l5.09 15.57q.38 1.12.69 2.57.23-1.42.52-2.57l4.43-15.57q.1-.45.54-.77.45-.33 1.06-.33"/></svg>