<svg xmlns="http://www.w3.org/2000/svg" width="100" height="100" viewBox="0 0 100 100"><rect width="100%" height="100%" fill="#dc2626"/><path fill="#ffffff" d="M35.465 55.16q.3 0 .53.23l1.43 1.55q-1.19 1.47-2.92 2.25-1.74.79-4.17.79-2.17 0-3.9-.75-1.74-.74-2.97-2.06-1.23-1.33-1.88-3.16-.66-1.84-.66-4.01 0-2.2.71-4.03.7-1.83 1.97-3.15 1.28-1.33 3.05-2.06 1.77-.74 3.91-.74t3.79.7q1.65.71 2.82 1.84l-1.22 1.69q-.11.16-.28.28t-.46.12q-.2 0-.42-.11-.22-.12-.47-.28-.26-.17-.6-.38-.33-.2-.78-.37t-1.03-.28q-.59-.12-1.36-.12-1.31 0-2.4.47-1.08.47-1.87 1.35-.78.88-1.21 2.16t-.43 2.91q0 1.65.46 2.93.47 1.28 1.27 2.16.79.88 1.87 1.34 1.08.47 2.32.47.75 0 1.35-.08t1.1-.26q.51-.18.96-.45.45-.28.9-.68.14-.13.28-.2.15-.07.31-.07M58.545 50q0 2.15-.71 3.98-.71 1.82-2.01 3.16-1.29 1.34-3.12 2.09-1.82.75-4.05.75-2.21 0-4.03-.75-1.83-.75-3.13-2.09t-2.02-3.16q-.71-1.83-.71-3.98t.71-3.98q.72-1.83 2.02-3.16 1.3-1.34 3.13-2.09 1.82-.75 4.03-.75 1.49 0 2.8.35 1.31.34 2.4.97t1.97 1.52q.87.9 1.47 2.01.61 1.11.93 2.4.32 1.3.32 2.73m-3.72 0q0-1.61-.43-2.88-.43-1.28-1.23-2.17-.79-.89-1.93-1.36-1.15-.48-2.58-.48t-2.57.48q-1.14.47-1.94 1.36-.81.89-1.24 2.17-.43 1.27-.43 2.88t.43 2.88q.43 1.28 1.24 2.16.8.89 1.94 1.36t2.57.47 2.58-.47q1.14-.47 1.93-1.36.8-.88 1.23-2.16.43-1.27.43-2.88m24.25 0q0 2.15-.72 3.94-.71 1.8-2.01 3.09-1.29 1.3-3.12 2.01-1.82.72-4.05.72h-7.43V40.24h7.43q2.23 0 4.05.72 1.83.72 3.12 2.01 1.3 1.29 2.01 3.09.72 1.79.72 3.94m-3.73 0q0-1.61-.42-2.88-.43-1.28-1.23-2.16-.8-.89-1.94-1.36-1.15-.47-2.58-.47h-3.79v13.74h3.79q1.43 0 2.58-.47 1.14-.47 1.94-1.36.8-.88 1.23-2.16.42-1.27.42-2.88"/></svg>