<svg xmlns="http://www.w3.org/2000/svg" width="100" height="100" viewBox="0 0 100 100"><rect width="100%" height="100%" fill="#dc2626"/><path fill="#ffffff" d="M32.06 54.2q.25 0 .43.19l1.17 1.26q-.97 1.2-2.38 1.84-1.42.64-3.4.64-1.77 0-3.18-.61-1.41-.6-2.42-1.68-1-1.08-1.53-2.58-.53-1.49-.53-3.26 0-1.8.57-3.29t1.61-2.56q1.04-1.08 2.48-1.68t3.19-.6q1.74 0 3.09.57 1.34.57 2.29 1.5l-.99 1.37q-.09.13-.23.23-.13.1-.38.1-.16 0-.34-.09-.17-.1-.38-.23-.21-.14-.49-.31-.27-.16-.63-.3-.37-.14-.84-.23-.48-.09-1.11-.09-1.07 0-1.95.38-.89.38-1.53 1.1-.63.72-.99 1.76-.35 1.04-.35 2.37 0 1.34.38 2.38.38 1.05 1.03 1.76.65.72 1.53 1.1t1.89.38q.61 0 1.1-.07.48-.06.9-.21.41-.14.78-.37.37-.22.73-.55.11-.1.23-.16t.25-.06m18.8-4.2q0 1.75-.57 3.24-.58 1.49-1.64 2.58-1.05 1.09-2.54 1.7-1.48.61-3.3.61-1.8 0-3.29-.61-1.48-.61-2.54-1.7-1.07-1.09-1.65-2.58T34.75 50t.58-3.24 1.65-2.58q1.06-1.09 2.54-1.7 1.49-.61 3.29-.61 1.21 0 2.28.28 1.06.28 1.96.79.89.51 1.6 1.24.71.74 1.2 1.64.5.9.75 1.96.26 1.05.26 2.22m-3.02 0q0-1.31-.35-2.35-.36-1.04-1.01-1.77-.64-.72-1.57-1.11-.93-.38-2.1-.38t-2.09.38q-.93.39-1.59 1.11-.65.73-1.01 1.77-.35 1.04-.35 2.35t.35 2.35q.36 1.04 1.01 1.76.66.72 1.59 1.1.92.39 2.09.39t2.1-.39q.93-.38 1.57-1.1.65-.72 1.01-1.76.35-1.04.35-2.35m16.74-7.96v2.44h-4.8v13.47h-2.96V44.48h-4.79v-2.44zm9.92 7.94h5.28v6.43q-1.21.89-2.58 1.3-1.37.42-2.93.42-1.95 0-3.52-.61-1.58-.6-2.7-1.68t-1.72-2.58q-.61-1.49-.61-3.26 0-1.8.59-3.29.58-1.5 1.65-2.58 1.07-1.07 2.6-1.67 1.53-.59 3.44-.59.96 0 1.81.15.84.16 1.56.43t1.31.65q.6.39 1.09.85l-.85 1.34q-.19.32-.51.39t-.7-.16l-.72-.42q-.37-.21-.81-.36-.45-.15-1-.25-.56-.1-1.28-.1-1.18 0-2.13.39-.95.4-1.62 1.14-.68.73-1.04 1.77-.36 1.03-.36 2.31 0 1.36.39 2.43.39 1.08 1.1 1.82t1.71 1.13 2.23.39q.88 0 1.58-.18.69-.19 1.35-.51V52.2h-2q-.29 0-.45-.16t-.16-.39z"/></svg>