<svg xmlns="http://www.w3.org/2000/svg" width="100" height="100" viewBox="0 0 100 100"><rect width="100%" height="100%" fill="#dc2626"/><path fill="#ffffff" d="M38.735 50.005q0 2.22-.74 4.09-.74 1.86-2.09 3.2-1.34 1.35-3.23 2.09t-4.2.74h-7.71v-20.24h7.71q2.31 0 4.2.74 1.89.75 3.23 2.09 1.35 1.34 2.09 3.2t.74 4.09m-3.86 0q0-1.67-.44-2.99t-1.28-2.24q-.83-.92-2.01-1.41-1.19-.49-2.67-.49h-3.93v14.25h3.93q1.48 0 2.67-.49 1.18-.49 2.01-1.4.84-.92 1.28-2.24.44-1.33.44-2.99m10.96-10.12v20.24h-3.78v-20.24zm18.66 0v3.09h-6.1v17.15h-3.77v-17.15h-6.1v-3.09zm14.38 1.9-.94 1.78q-.17.29-.35.42-.19.14-.47.14-.3 0-.64-.22t-.82-.48q-.48-.27-1.11-.48-.64-.22-1.51-.22-.78 0-1.37.19t-.99.52q-.4.34-.59.81-.2.47-.2 1.03 0 .71.4 1.19.4.47 1.06.81.66.33 1.5.6t1.72.57 1.72.7 1.5 1.01q.66.6 1.06 1.49.39.88.39 2.14 0 1.37-.46 2.57-.47 1.19-1.38 2.08-.9.89-2.2 1.4t-2.98.51q-.97 0-1.91-.18-.94-.19-1.8-.54t-1.61-.84q-.76-.49-1.35-1.1l1.11-1.8q.14-.2.36-.33.23-.13.48-.13.35 0 .75.28.41.29.97.64t1.31.64q.75.28 1.8.28 1.61 0 2.49-.76t.88-2.19q0-.8-.4-1.3-.39-.51-1.05-.85t-1.5-.58-1.71-.52-1.71-.67-1.49-1.02q-.66-.63-1.06-1.58-.4-.94-.4-2.33 0-1.1.44-2.15t1.28-1.87q.84-.81 2.07-1.3 1.24-.49 2.83-.49 1.79 0 3.3.56 1.52.56 2.58 1.57"/></svg>