<svg xmlns="http://www.w3.org/2000/svg" width="100" height="100" viewBox="0 0 100 100"><rect width="100%" height="100%" fill="#dc2626"/><path fill="#ffffff" d="M38.11 41.095H26.88v7.49h9.48v3.76h-9.48v10.31h-4.73v-25.31h15.96zm13.49-3.75v16.31q0 2.14-.52 3.85-.53 1.72-1.57 2.93-1.04 1.2-2.6 1.85-1.55.65-3.62.65-.94 0-1.85-.11-.91-.12-1.91-.36.05-.7.12-1.4t.12-1.4q.06-.39.31-.62.25-.24.73-.24.29 0 .77.12.49.12 1.22.12 1 0 1.77-.28.77-.29 1.29-.92.51-.63.77-1.64.27-1.01.27-2.44v-16.42zm17.85 12.62h8.4v10.24q-1.92 1.42-4.1 2.07-2.18.66-4.66.66-3.1 0-5.61-.96-2.51-.97-4.29-2.68-1.78-1.72-2.74-4.1t-.96-5.19q0-2.86.93-5.24.92-2.38 2.63-4.09 1.71-1.72 4.14-2.66 2.43-.95 5.46-.95 1.54 0 2.88.25 1.34.24 2.48.67 1.15.43 2.09 1.04.95.62 1.74 1.35l-1.35 2.14q-.32.5-.82.62-.51.11-1.11-.26-.57-.33-1.15-.66t-1.29-.58q-.71-.24-1.59-.4t-2.04-.16q-1.87 0-3.38.63-1.52.63-2.59 1.8-1.06 1.18-1.64 2.82-.58 1.65-.58 3.68 0 2.17.62 3.87.62 1.71 1.75 2.89t2.72 1.8q1.6.62 3.56.62 1.4 0 2.5-.29 1.1-.3 2.15-.81v-4.58h-3.18q-.46 0-.71-.26-.26-.25-.26-.62z"/></svg>