<svg xmlns="http://www.w3.org/2000/svg" width="100" height="100" viewBox="0 0 100 100"><rect width="100%" height="100%" fill="#dc2626"/><path fill="#ffffff" d="M27.735 49.98h4.32v5.27q-1 .73-2.12 1.07-1.12.33-2.39.33-1.6 0-2.89-.49-1.29-.5-2.2-1.38-.92-.88-1.41-2.1-.5-1.23-.5-2.68 0-1.46.48-2.69.48-1.22 1.35-2.1.88-.89 2.13-1.37 1.25-.49 2.81-.49.79 0 1.48.13.69.12 1.28.34t1.07.54q.49.31.9.69l-.7 1.1q-.16.26-.42.32t-.57-.13q-.29-.17-.59-.34t-.66-.3q-.37-.13-.82-.21-.46-.08-1.05-.08-.96 0-1.74.33-.78.32-1.33.92-.55.61-.85 1.45-.29.85-.29 1.89 0 1.12.32 2 .32.87.9 1.48t1.4.93 1.82.32q.72 0 1.29-.16.57-.15 1.11-.41V51.8h-1.64q-.23 0-.36-.13t-.13-.32zm15.75-6.48v1.98h-3.93v11.03h-2.42V45.48h-3.92V43.5zm10.64 9.94q.2 0 .35.15l.96 1.04q-.79.98-1.95 1.5t-2.78.52q-1.45 0-2.6-.49-1.16-.5-1.98-1.38t-1.25-2.1q-.44-1.23-.44-2.68 0-1.46.47-2.68t1.32-2.11q.85-.88 2.03-1.37 1.17-.49 2.61-.49 1.42 0 2.52.47t1.88 1.22l-.81 1.13q-.08.11-.19.19t-.31.08q-.13 0-.28-.08-.14-.07-.31-.19-.17-.11-.4-.24-.22-.14-.52-.25t-.69-.19-.9-.08q-.88 0-1.6.31-.73.31-1.25.9t-.81 1.44-.29 1.94q0 1.1.31 1.96.32.85.85 1.44.53.58 1.25.89t1.55.31q.49 0 .89-.05.4-.06.74-.17.34-.12.64-.3.3-.19.6-.46.09-.08.19-.13.09-.05.2-.05m12.06-9.94v1.98h-3.92v11.03h-2.42V45.48h-3.93V43.5zm13.27 6.5q0 1.43-.48 2.63t-1.34 2.06q-.86.87-2.08 1.34-1.21.48-2.7.48h-4.96V43.5h4.96q1.49 0 2.7.48 1.22.48 2.08 1.34t1.34 2.05q.48 1.2.48 2.63m-2.49 0q0-1.07-.28-1.92t-.82-1.44q-.53-.59-1.29-.9-.76-.32-1.72-.32h-2.53v9.16h2.53q.96 0 1.72-.31.76-.32 1.29-.91.54-.59.82-1.44t.28-1.92"/></svg>