<svg xmlns="http://www.w3.org/2000/svg" width="100" height="100" viewBox="0 0 100 100"><rect width="100%" height="100%" fill="#dc2626"/><path fill="#ffffff" d="M30.165 49.98h6v7.31q-1.37 1.01-2.93 1.48-1.55.47-3.33.47-2.21 0-4.01-.69-1.79-.69-3.06-1.91-1.27-1.23-1.96-2.93-.68-1.7-.68-3.71 0-2.04.66-3.74t1.88-2.92q1.22-1.23 2.96-1.9 1.74-.68 3.9-.68 1.1 0 2.05.18.96.17 1.78.48t1.49.74q.68.44 1.24.97l-.96 1.52q-.23.36-.59.45-.36.08-.79-.19-.41-.23-.82-.47t-.92-.41q-.51-.18-1.14-.29t-1.45-.11q-1.34 0-2.42.45t-1.85 1.28q-.76.84-1.17 2.02-.42 1.17-.42 2.62 0 1.55.45 2.77.44 1.22 1.25 2.06.8.85 1.94 1.29t2.54.44q1 0 1.79-.21.78-.21 1.53-.57V52.5h-2.27q-.33 0-.51-.18t-.18-.44zm30.67-9.01h2.63l-5.61 18.07h-3.04l-3.95-12.35q-.16-.45-.3-1.1-.07.31-.15.59-.07.27-.16.51l-3.99 12.35h-3.05l-5.6-18.07h2.82q.43 0 .73.2.29.21.39.56l3.08 10.81q.1.4.19.87t.19.98q.1-.53.22-.99t.26-.86l3.55-10.81q.1-.29.39-.53.3-.23.72-.23h.99q.44 0 .71.21.28.21.41.55l3.54 10.81q.26.77.48 1.79.16-.99.36-1.79l3.07-10.81q.08-.32.38-.54.31-.22.74-.22m8.22 8.6h2.1q.95 0 1.66-.24.7-.24 1.16-.66t.68-.99q.23-.58.23-1.27 0-1.37-.91-2.11t-2.77-.74h-2.15zm6.23 2.79 4.52 6.68h-3.04q-.86 0-1.25-.68l-3.8-5.78q-.21-.33-.47-.47-.25-.13-.75-.13h-1.44v7.06h-3.36V40.97h5.51q1.84 0 3.16.38t2.16 1.06q.84.69 1.24 1.65.4.95.4 2.1 0 .92-.27 1.73-.26.81-.77 1.47-.51.67-1.25 1.17t-1.69.78q.32.19.6.45.27.25.5.6"/></svg>