<svg xmlns="http://www.w3.org/2000/svg" width="100" height="100" viewBox="0 0 100 100"><rect width="100%" height="100%" fill="#dc2626"/><path fill="#ffffff" d="M28.785 43.5h2.43v13.01h-2.43v-5.69h-6.11v5.69h-2.43V43.5h2.43v5.59h6.11zm14.42 0v1.98h-3.93v11.03h-2.42V45.48h-3.92V43.5zm4.13 6.54h1.81q.66 0 1.16-.17.49-.16.82-.47.33-.32.49-.76.16-.45.16-1 0-.52-.16-.94t-.48-.72q-.33-.3-.82-.45-.5-.16-1.17-.16h-1.81zm-2.42-6.54h4.23q1.3 0 2.26.3.95.31 1.57.86t.92 1.31q.3.77.3 1.67 0 .95-.31 1.74-.32.78-.95 1.35t-1.58.88q-.94.32-2.21.32h-1.81v4.58h-2.42zm17.55 6.48h4.32v5.27q-.99.73-2.11 1.07-1.12.33-2.4.33-1.6 0-2.89-.49-1.29-.5-2.2-1.38-.92-.88-1.41-2.1-.5-1.23-.5-2.68 0-1.46.48-2.69.48-1.22 1.36-2.1.87-.89 2.12-1.37 1.26-.49 2.81-.49.79 0 1.48.13.69.12 1.28.34t1.08.54q.48.31.89.69l-.7 1.1q-.16.26-.42.32t-.57-.13q-.29-.17-.59-.34t-.66-.3q-.37-.13-.82-.21t-1.05-.08q-.96 0-1.74.33-.78.32-1.33.92-.55.61-.84 1.45-.3.85-.3 1.89 0 1.12.32 2 .32.87.9 1.48t1.4.93 1.83.32q.72 0 1.28-.16.57-.15 1.11-.41V51.8h-1.64q-.23 0-.36-.13t-.13-.32zm11.89 4.58q.71 0 1.26-.24.55-.23.93-.65.38-.43.58-1.03t.2-1.35V43.5h2.43v7.79q0 1.16-.38 2.15-.37.98-1.07 1.7-.7.71-1.7 1.11-.99.4-2.25.4t-2.25-.4q-1-.4-1.7-1.11-.7-.72-1.07-1.7-.38-.99-.38-2.15V43.5h2.43v7.78q0 .75.2 1.35t.58 1.03q.39.43.94.66.55.24 1.25.24"/></svg>