<svg xmlns="http://www.w3.org/2000/svg" width="100" height="100" viewBox="0 0 100 100"><rect width="100%" height="100%" fill="#dc2626"/><path fill="#ffffff" d="M23.98 56.11h6.94v2.66H20.75V41.42h3.23zM49.6 41.42h2.44v17.35h-2.85V47.56q0-.67.08-1.45l-5.25 9.85q-.37.71-1.14.71h-.45q-.77 0-1.14-.71l-5.31-9.89q.04.4.06.78.03.39.03.71v11.21h-2.85V41.42h2.44q.21 0 .37.01t.28.06q.13.05.23.16.1.1.2.28l5.19 9.64q.21.38.38.79.18.41.34.84.17-.44.35-.86.18-.41.39-.79l5.12-9.62q.1-.18.2-.28.11-.11.24-.16.12-.05.28-.06t.37-.01m9.53 14.69h6.94v2.66H55.9V41.42h3.23zm14.63-.1h4.45q.48 0 .76.27t.28.71v1.78h-11.9v-.98q0-.3.13-.63.12-.33.4-.6l5.27-5.28q.66-.67 1.18-1.28t.87-1.21.53-1.22q.19-.62.19-1.3 0-.63-.18-1.1-.18-.48-.51-.8t-.79-.49q-.47-.16-1.04-.16-.53 0-.98.15t-.8.42-.59.63-.36.79q-.2.56-.52.74-.33.18-.94.08l-1.56-.28q.18-1.24.7-2.19.51-.94 1.29-1.57.77-.63 1.77-.95 1-.31 2.16-.31 1.2 0 2.19.35 1 .35 1.71 1 .7.65 1.1 1.56t.4 2.03q0 .96-.29 1.78-.28.81-.75 1.56-.48.74-1.11 1.44-.64.69-1.33 1.41l-3.92 4q.57-.17 1.13-.26.55-.09 1.06-.09"/></svg>