<svg xmlns="http://www.w3.org/2000/svg" width="100" height="100" viewBox="0 0 100 100"><rect width="100%" height="100%" fill="#dc2626"/><path fill="#ffffff" d="M30.15 42.41h2.83v15.18h-2.83v-6.64h-7.13v6.64h-2.84V42.41h2.84v6.53h7.13zm9.04 0v6.36h.66q.4 0 .66-.11.27-.11.45-.35l4.19-5.3q.27-.34.55-.47.29-.13.73-.13h2.44l-5.11 6.31q-.45.58-.94.82.35.12.63.35.28.22.53.59l5.27 7.11h-2.49q-.5 0-.75-.14t-.42-.42l-4.29-5.6q-.2-.29-.46-.4-.26-.12-.76-.12h-.89v6.68h-2.82V42.41zm21.54 0h2.83v15.18h-2.83v-6.64H53.6v6.64h-2.84V42.41h2.84v6.53h7.13zm9.04 0v6.36h.66q.4 0 .66-.11t.45-.35l4.19-5.3q.26-.34.55-.47t.73-.13h2.44l-5.12 6.31q-.45.58-.93.82.35.12.62.35.28.22.53.59l5.27 7.11h-2.48q-.51 0-.75-.14-.25-.14-.42-.42l-4.29-5.6q-.2-.29-.47-.4-.26-.12-.75-.12h-.89v6.68h-2.83V42.41z"/></svg>