<svg xmlns="http://www.w3.org/2000/svg" width="100" height="100" viewBox="0 0 100 100"><rect width="100%" height="100%" fill="#dc2626"/><path fill="#ffffff" d="M33.29 31.925v36.15h-6.75v-36.15zm40.17 18.08q0 3.97-1.32 7.29-1.32 3.33-3.72 5.73t-5.78 3.72q-3.37 1.33-7.5 1.33H41.37v-36.15h13.77q4.13 0 7.5 1.34 3.38 1.33 5.78 3.72t3.72 5.71q1.32 3.33 1.32 7.31m-6.89 0q0-2.98-.79-5.34-.79-2.37-2.28-4-1.48-1.64-3.6-2.52-2.11-.87-4.76-.87h-7.02v25.45h7.02q2.65 0 4.76-.88 2.12-.87 3.6-2.51 1.49-1.64 2.28-4t.79-5.33"/></svg>