<svg xmlns="http://www.w3.org/2000/svg" width="100" height="100" viewBox="0 0 100 100"><rect width="100%" height="100%" fill="#dc2626"/><path fill="#ffffff" d="M24.655 57.265h8.38v3.22h-12.28v-20.97h3.9zm31.16-7.26q0 2.3-.76 4.27-.76 1.96-2.15 3.4-1.4 1.43-3.35 2.24-1.96.8-4.35.8-2.38 0-4.34-.8-1.96-.81-3.36-2.24-1.39-1.44-2.16-3.4-.77-1.97-.77-4.27 0-2.31.77-4.27.77-1.97 2.16-3.4 1.4-1.44 3.36-2.24 1.96-.81 4.34-.81 1.59 0 3 .37 1.4.37 2.58 1.04 1.17.68 2.11 1.64.93.97 1.59 2.16.65 1.19.99 2.58t.34 2.93m-3.99 0q0-1.73-.46-3.1t-1.32-2.33q-.86-.95-2.08-1.46-1.23-.51-2.76-.51-1.54 0-2.77.51-1.22.51-2.08 1.46-.87.96-1.33 2.33t-.46 3.1q0 1.72.46 3.09t1.33 2.32q.86.95 2.08 1.46 1.23.51 2.77.51 1.53 0 2.76-.51 1.22-.51 2.08-1.46t1.32-2.32.46-3.09m27.42 0q0 2.3-.76 4.27-.76 1.96-2.15 3.4-1.39 1.43-3.35 2.24-1.96.8-4.35.8-2.38 0-4.34-.8-1.95-.81-3.35-2.24-1.4-1.44-2.17-3.4-.77-1.97-.77-4.27 0-2.31.77-4.27.77-1.97 2.17-3.4 1.4-1.44 3.35-2.24 1.96-.81 4.34-.81 1.59 0 3 .37t2.58 1.04q1.18.68 2.11 1.64.94.97 1.59 2.16t.99 2.58.34 2.93m-3.98 0q0-1.73-.47-3.1-.46-1.37-1.32-2.33-.85-.95-2.08-1.46-1.22-.51-2.76-.51t-2.76.51q-1.23.51-2.09 1.46-.86.96-1.33 2.33-.46 1.37-.46 3.1 0 1.72.46 3.09.47 1.37 1.33 2.32t2.09 1.46q1.22.51 2.76.51t2.76-.51q1.23-.51 2.08-1.46.86-.95 1.32-2.32.47-1.37.47-3.09"/></svg>