<svg xmlns="http://www.w3.org/2000/svg" width="100" height="100" viewBox="0 0 100 100"><rect width="100%" height="100%" fill="#dc2626"/><path fill="#ffffff" d="M23.54 55.765h6.65v2.55h-9.74v-16.63h3.09zm24.72-5.76q0 1.82-.61 3.38-.6 1.56-1.7 2.7-1.11 1.14-2.66 1.78-1.55.63-3.45.63-1.89 0-3.44-.63-1.55-.64-2.66-1.78t-1.72-2.7-.61-3.38q0-1.83.61-3.39t1.72-2.7 2.66-1.77q1.55-.64 3.44-.64 1.26 0 2.38.29 1.11.29 2.05.83.93.53 1.67 1.3.74.76 1.26 1.71.52.94.79 2.04.27 1.11.27 2.33m-3.17 0q0-1.37-.36-2.46-.37-1.09-1.05-1.85-.68-.75-1.65-1.16-.97-.4-2.19-.4t-2.19.4q-.97.41-1.66 1.16-.68.76-1.05 1.85t-.37 2.46q0 1.36.37 2.45t1.05 1.84q.69.75 1.66 1.16.97.4 2.19.4t2.19-.4q.97-.41 1.65-1.16t1.05-1.84q.36-1.09.36-2.45m17.51-8.32v2.54h-5.02v14.09h-3.09v-14.09h-5.01v-2.54zm16.95 8.32q0 1.82-.61 3.35t-1.72 2.64q-1.1 1.1-2.65 1.71t-3.45.61h-6.34v-16.63h6.34q1.9 0 3.45.62 1.55.61 2.65 1.71 1.11 1.1 1.72 2.63t.61 3.36m-3.18 0q0-1.37-.36-2.46t-1.04-1.84q-.69-.75-1.66-1.16-.97-.4-2.19-.4h-3.23v11.71h3.23q1.22 0 2.19-.4.97-.41 1.66-1.16.68-.75 1.04-1.84t.36-2.45"/></svg>