<svg xmlns="http://www.w3.org/2000/svg" width="100" height="100" viewBox="0 0 100 100"><rect width="100%" height="100%" fill="#dc2626"/><path fill="#ffffff" d="M38.29 40.97h2.54v18.07h-2.96V47.36q0-.7.07-1.51l-5.46 10.26q-.39.74-1.19.74h-.47q-.8 0-1.19-.74l-5.53-10.3q.04.42.07.82.02.4.02.73v11.68h-2.96V40.97h2.54q.22 0 .38.01.17.01.3.06t.23.16q.11.11.21.3l5.41 10.04q.22.4.4.82.18.43.35.88.18-.46.37-.89.18-.44.4-.84l5.33-10.01q.1-.19.22-.3.11-.11.24-.16t.29-.06q.17-.01.39-.01M60.9 50q0 1.99-.66 3.65t-1.86 2.86-2.89 1.87q-1.69.66-3.75.66h-6.89V40.97h6.89q2.06 0 3.75.66 1.69.67 2.89 1.87 1.2 1.19 1.86 2.85T60.9 50m-3.45 0q0-1.49-.39-2.67t-1.14-2q-.74-.82-1.8-1.25-1.05-.44-2.38-.44h-3.51v12.72h3.51q1.33 0 2.38-.43 1.06-.44 1.8-1.26.75-.82 1.14-2t.39-2.67m15.32-.02h6v7.31q-1.38 1.01-2.94 1.48-1.55.47-3.33.47-2.21 0-4-.69-1.8-.69-3.07-1.91-1.26-1.23-1.95-2.93T62.79 50q0-2.04.66-3.74.67-1.7 1.88-2.92 1.22-1.23 2.96-1.9 1.74-.68 3.9-.68 1.1 0 2.06.18.95.17 1.77.48t1.5.74q.67.44 1.23.97l-.96 1.52q-.22.36-.59.45-.36.08-.78-.19-.42-.23-.83-.47t-.92-.41q-.5-.18-1.14-.29-.63-.11-1.45-.11-1.34 0-2.42.45t-1.84 1.28q-.77.84-1.18 2.02-.41 1.17-.41 2.62 0 1.55.44 2.77.45 1.22 1.25 2.06.81.85 1.95 1.29 1.13.44 2.53.44 1 0 1.79-.21t1.54-.57V52.5h-2.28q-.32 0-.5-.18t-.18-.44z"/></svg>