<svg xmlns="http://www.w3.org/2000/svg" width="100" height="100" viewBox="0 0 100 100"><rect width="100%" height="100%" fill="#dc2626"/><path fill="#ffffff" d="M46.68 37.345h3.56v25.31h-4.15v-16.35q0-.98.1-2.11l-7.64 14.36q-.55 1.04-1.67 1.04h-.66q-1.12 0-1.66-1.04l-7.74-14.42q.05.58.09 1.14.03.56.03 1.03v16.35H22.8v-25.31h3.55q.31 0 .54.02t.41.09q.19.07.33.23.15.15.29.42l7.58 14.05q.3.56.55 1.15.26.6.5 1.23.25-.65.51-1.25.26-.61.56-1.17l7.47-14.01q.14-.27.3-.42.16-.16.34-.23t.41-.09.54-.02m25.8 0h4.72v25.31h-4.72v-11.06H60.6v11.06h-4.73v-25.31h4.73v10.89h11.88z"/></svg>