<svg xmlns="http://www.w3.org/2000/svg" width="100" height="100" viewBox="0 0 100 100"><rect width="100%" height="100%" fill="#dc2626"/><path fill="#ffffff" d="M31.225 43.855h1.72v12.29h-2.01v-7.94q0-.48.05-1.03l-3.72 6.98q-.26.5-.8.5h-.33q-.54 0-.8-.5l-3.76-7 .04.55q.02.27.02.5v7.94h-2.02v-12.29h1.73q.15 0 .26.01t.2.04.16.11q.08.08.14.2l3.68 6.83q.15.27.27.56.13.29.24.6.12-.32.25-.61.13-.3.27-.57l3.63-6.81q.07-.12.15-.2.07-.08.16-.11t.2-.04.27-.01m11.57 1.15-.57 1.08q-.1.18-.21.26-.12.08-.29.08-.18 0-.38-.13-.21-.13-.5-.29t-.68-.29q-.38-.14-.91-.14-.48 0-.83.12-.36.11-.6.32-.25.2-.36.49-.12.28-.12.62 0 .43.24.72t.64.5q.4.2.91.36t1.05.35q.53.18 1.04.42t.91.61.64.91q.24.53.24 1.3 0 .83-.28 1.56t-.83 1.27-1.34.85-1.81.31q-.59 0-1.16-.12-.57-.11-1.09-.33-.52-.21-.98-.51-.46-.29-.82-.66l.67-1.1q.09-.11.22-.2.14-.08.29-.08.22 0 .46.18.25.17.59.38.34.22.79.39.46.18 1.1.18.97 0 1.51-.47.53-.46.53-1.33 0-.48-.24-.79-.24-.3-.64-.51t-.91-.36q-.51-.14-1.04-.31-.52-.17-1.03-.41t-.91-.62-.64-.95q-.25-.58-.25-1.42 0-.67.27-1.31t.78-1.13 1.26-.79q.74-.3 1.71-.3 1.09 0 2.01.34t1.56.95m13.82-1.15h1.72v12.29h-2.01v-7.94q0-.48.05-1.03l-3.72 6.98q-.26.5-.8.5h-.33q-.54 0-.8-.5l-3.76-7 .04.55q.02.27.02.5v7.94h-2.02v-12.29h1.73q.15 0 .26.01t.2.04.16.11q.08.08.14.2l3.68 6.83q.15.27.27.56.13.29.24.6.12-.32.25-.61.13-.3.27-.57l3.63-6.81q.07-.12.15-.2.07-.08.16-.11t.2-.04.27-.01m13.04 0v1.88h-3.7v10.41h-2.29v-10.41h-3.7v-1.88zm3.91 10.5h2.31q.63 0 1.07-.15.43-.15.69-.41.26-.25.37-.59.12-.34.12-.72 0-.4-.13-.72t-.4-.55q-.27-.22-.7-.34t-1.03-.12h-2.3zm1.94-8.73h-1.94v3.55h1.81q1.18 0 1.78-.43.6-.42.6-1.35 0-.96-.55-1.37-.54-.4-1.7-.4m-4.23-1.77h4.23q1.21 0 2.07.23t1.4.65q.55.43.81 1.03.25.6.25 1.36 0 .43-.13.83-.12.4-.39.74t-.68.62-.98.48q2.53.57 2.53 2.74 0 .78-.3 1.44-.29.67-.86 1.15t-1.41.75q-.83.27-1.9.27h-4.64z"/></svg>