<svg xmlns="http://www.w3.org/2000/svg" width="100" height="100" viewBox="0 0 100 100"><rect width="100%" height="100%" fill="#dc2626"/><path fill="#ffffff" d="M46.31 36.625h3.76v26.75h-4.39v-17.28q0-1.03.11-2.24l-8.08 15.19q-.58 1.09-1.76 1.09h-.7q-1.19 0-1.76-1.09l-8.18-15.24q.06.61.1 1.2.03.59.03 1.09v17.28h-4.38v-26.75h3.75q.34 0 .58.02t.43.09q.2.07.35.24.16.17.31.44l8.01 14.86q.31.59.58 1.22t.53 1.3q.26-.69.54-1.33.27-.63.59-1.23l7.9-14.82q.14-.27.31-.44t.36-.24q.2-.07.44-.09t.57-.02m28.62 0h4.01l-10.8 26.75h-4.5l-10.8-26.75h4q.64 0 1.05.31.41.32.61.82l6.31 16.31q.31.8.6 1.75.29.96.55 1.99.22-1.03.48-1.99.26-.95.57-1.75l6.27-16.31q.15-.43.59-.78.43-.35 1.06-.35"/></svg>