<svg xmlns="http://www.w3.org/2000/svg" width="100" height="100" viewBox="0 0 100 100"><rect width="100%" height="100%" fill="#dc2626"/><path fill="#ffffff" d="M39.81 39.995h2.84v20.24h-3.32v-13.08q0-.78.09-1.69l-6.12 11.49q-.43.83-1.33.83h-.53q-.9 0-1.33-.83l-6.19-11.53q.04.46.07.91t.03.82v13.08H20.7v-20.24h2.84q.25 0 .44.01.18.01.33.07.14.06.26.18.12.13.23.34l6.06 11.24q.24.45.45.92.2.48.39.98.2-.51.41-1 .21-.48.45-.93l5.98-11.21q.11-.21.23-.34.13-.12.28-.18.14-.06.33-.07.18-.01.43-.01m21.66 0h3.04l-8.18 20.24h-3.4l-8.18-20.24h3.03q.49 0 .79.23.31.24.47.62l4.77 12.35q.24.6.46 1.32.21.72.41 1.51.17-.79.36-1.51.2-.72.44-1.32l4.74-12.35q.11-.32.44-.59.33-.26.81-.26m11.42 17.02h5.2q.56 0 .89.31.32.32.32.84v2.07H65.42v-1.15q0-.35.14-.73.15-.39.47-.7l6.15-6.16q.77-.78 1.38-1.49.61-.72 1.01-1.42.41-.7.63-1.42.21-.72.21-1.52 0-.73-.21-1.28t-.59-.93q-.39-.38-.93-.57-.53-.19-1.21-.19-.61 0-1.14.18-.52.17-.93.49-.41.31-.68.73-.29.42-.43.93-.23.64-.61.85t-1.09.1l-1.82-.32q.21-1.46.81-2.56t1.5-1.83q.91-.74 2.08-1.11 1.16-.37 2.51-.37 1.4 0 2.56.42 1.16.41 1.99 1.16.82.76 1.29 1.82.46 1.07.46 2.37 0 1.12-.33 2.07t-.88 1.82q-.56.87-1.3 1.68t-1.55 1.65l-4.57 4.67q.66-.2 1.31-.31.65-.1 1.24-.1"/></svg>