<svg xmlns="http://www.w3.org/2000/svg" width="100" height="100" viewBox="0 0 100 100"><rect width="100%" height="100%" fill="#dc2626"/><path fill="#ffffff" d="M50.93 50q0 3.26-1.08 6.04-1.08 2.77-3.05 4.8-1.96 2.03-4.73 3.17t-6.15 1.14q-3.36 0-6.13-1.14t-4.75-3.17q-1.97-2.03-3.06-4.8-1.09-2.78-1.09-6.04t1.09-6.04 3.06-4.81q1.98-2.03 4.75-3.16 2.77-1.14 6.13-1.14 2.25 0 4.24.52t3.65 1.48q1.66.95 2.98 2.31 1.33 1.37 2.25 3.05t1.4 3.65q.49 1.97.49 4.14m-5.64 0q0-2.44-.66-4.38-.65-1.94-1.86-3.29t-2.95-2.07q-1.73-.72-3.9-.72t-3.91.72q-1.73.72-2.95 2.07t-1.87 3.29q-.66 1.94-.66 4.38t.66 4.38q.65 1.93 1.87 3.28 1.22 1.34 2.95 2.06 1.74.71 3.91.71t3.9-.71q1.74-.72 2.95-2.06 1.21-1.35 1.86-3.28.66-1.94.66-4.38m30.85 7.83q.45 0 .8.35l2.17 2.36q-1.8 2.23-4.44 3.42-2.63 1.19-6.32 1.19-3.3 0-5.93-1.13-2.64-1.13-4.5-3.14-1.87-2.01-2.86-4.79-1-2.79-1-6.09 0-3.34 1.07-6.12 1.06-2.78 3-4.79t4.62-3.12q2.69-1.12 5.95-1.12 3.24 0 5.75 1.06 2.51 1.07 4.27 2.79l-1.84 2.57q-.17.24-.42.43-.26.18-.71.18-.31 0-.63-.17-.33-.18-.72-.43-.39-.26-.9-.57-.52-.31-1.19-.56-.68-.26-1.57-.43-.89-.18-2.06-.18-1.99 0-3.64.71T62.2 42.3t-1.84 3.28q-.66 1.94-.66 4.42 0 2.5.71 4.45.7 1.94 1.91 3.28 1.21 1.33 2.85 2.04 1.64.7 3.53.7 1.13 0 2.04-.12t1.68-.39 1.46-.69q.68-.42 1.36-1.03.2-.19.43-.3.22-.11.47-.11"/></svg>