<svg xmlns="http://www.w3.org/2000/svg" width="100" height="100" viewBox="0 0 100 100"><rect width="100%" height="100%" fill="#dc2626"/><path fill="#ffffff" d="M47.025 50.005q0 2.78-.92 5.15t-2.6 4.1q-1.68 1.74-4.04 2.71t-5.25.97q-2.87 0-5.23-.97t-4.05-2.71q-1.69-1.73-2.62-4.1t-.93-5.15q0-2.79.93-5.16t2.62-4.1 4.05-2.7q2.36-.98 5.23-.98 1.93 0 3.63.45 1.69.45 3.11 1.26t2.55 1.98q1.12 1.16 1.91 2.6.79 1.43 1.2 3.11t.41 3.54m-4.81 0q0-2.09-.56-3.74t-1.59-2.81q-1.04-1.15-2.51-1.77-1.48-.61-3.34-.61-1.85 0-3.33.61-1.48.62-2.52 1.77-1.04 1.16-1.6 2.81t-.56 3.74q0 2.08.56 3.73.56 1.66 1.6 2.8 1.04 1.15 2.52 1.76t3.33.61q1.86 0 3.34-.61 1.47-.61 2.51-1.76 1.03-1.14 1.59-2.8.56-1.65.56-3.73m32.85-12.66h3.55v25.31h-4.15v-16.35q0-.98.11-2.11l-7.65 14.36q-.54 1.04-1.66 1.04h-.67q-1.12 0-1.66-1.04l-7.74-14.42q.06.58.09 1.14.04.56.04 1.03v16.35h-4.15v-25.31h3.55q.32 0 .54.02.23.02.42.09.18.07.33.23.15.15.29.42l7.58 14.05q.29.56.55 1.15.25.6.5 1.23.24-.65.5-1.25.27-.61.56-1.17l7.47-14.01q.15-.27.3-.42.16-.16.34-.23.19-.07.42-.09.22-.02.54-.02"/></svg>