<svg xmlns="http://www.w3.org/2000/svg" width="100" height="100" viewBox="0 0 100 100"><rect width="100%" height="100%" fill="#dc2626"/><path fill="#ffffff" d="M28.715 50.085h4.52q1.67 0 2.91-.41 1.23-.42 2.06-1.2.82-.77 1.22-1.89.41-1.11.41-2.48 0-1.31-.41-2.36-.4-1.06-1.21-1.8-.81-.75-2.05-1.14-1.24-.4-2.93-.4h-4.52zm-6.05-16.35h10.57q3.27 0 5.65.76 2.39.77 3.94 2.14t2.31 3.28q.75 1.92.75 4.19 0 2.36-.79 4.33t-2.36 3.38q-1.58 1.42-3.95 2.21t-5.55.79h-4.52v11.45h-6.05zm43.87 16.22h10.8v13.16q-2.47 1.82-5.27 2.67-2.8.84-6 .84-3.98 0-7.21-1.24-3.23-1.23-5.51-3.44-2.29-2.2-3.52-5.26-1.24-3.06-1.24-6.69 0-3.66 1.19-6.72t3.39-5.27q2.19-2.2 5.32-3.42 3.13-1.21 7.02-1.21 1.98 0 3.7.31t3.2.87q1.47.55 2.68 1.33 1.22.79 2.23 1.74l-1.73 2.74q-.41.66-1.06.8-.65.15-1.42-.33-.74-.42-1.48-.85t-1.65-.74q-.92-.32-2.05-.52-1.14-.2-2.62-.2-2.41 0-4.36.81-1.94.81-3.32 2.32-1.37 1.5-2.11 3.62-.74 2.11-.74 4.72 0 2.79.8 4.99.79 2.19 2.25 3.71 1.45 1.52 3.49 2.32 2.05.79 4.57.79 1.8 0 3.22-.38t2.77-1.03v-5.9h-4.1q-.58 0-.91-.32-.33-.33-.33-.8z"/></svg>