<svg xmlns="http://www.w3.org/2000/svg" width="100" height="100" viewBox="0 0 100 100"><rect width="100%" height="100%" fill="#dc2626"/><path fill="#ffffff" d="m29.635 44.42-.64 1.21q-.11.2-.24.29t-.32.09q-.2 0-.43-.15-.23-.14-.55-.32-.33-.18-.76-.33t-1.02-.15q-.53 0-.93.13t-.67.36q-.27.22-.41.54-.13.32-.13.7 0 .48.27.81.27.32.72.55t1.02.41 1.16.38q.6.21 1.17.48t1.02.68.72 1.01.27 1.46q0 .93-.32 1.74t-.93 1.42q-.61.6-1.5.95-.88.34-2.02.34-.66 0-1.29-.13-.64-.12-1.22-.36-.59-.24-1.1-.57t-.91-.74l.75-1.23q.09-.13.24-.22.16-.09.33-.09.23 0 .51.19.28.2.66.44.38.23.88.43.51.19 1.22.19 1.1 0 1.7-.52.59-.51.59-1.48 0-.54-.27-.89-.27-.34-.71-.57-.45-.23-1.02-.39-.57-.17-1.16-.36t-1.16-.45q-.57-.27-1.02-.7-.44-.42-.71-1.06-.27-.65-.27-1.59 0-.75.3-1.46t.87-1.26 1.4-.89q.84-.33 1.92-.33 1.22 0 2.24.38 1.03.38 1.75 1.06m15.44-1.29h1.93v13.74h-2.26V48q0-.53.06-1.15l-4.15 7.8q-.29.56-.9.56h-.36q-.61 0-.91-.56l-4.19-7.83.04.62q.02.3.02.56v8.87h-2.25V43.13h1.93q.17 0 .29.01.13.01.23.05t.18.12q.08.09.15.23l4.12 7.63q.16.3.3.63l.27.66q.13-.35.27-.68.15-.33.31-.63l4.05-7.61q.08-.14.16-.23.09-.08.19-.12t.22-.05q.13-.01.3-.01M62.255 50q0 1.51-.5 2.78-.5 1.26-1.42 2.17-.91.91-2.19 1.42-1.28.5-2.85.5h-5.23V43.13h5.23q1.57 0 2.85.51t2.19 1.42q.92.9 1.42 2.17.5 1.26.5 2.77m-2.62 0q0-1.13-.3-2.03-.3-.89-.86-1.52-.57-.62-1.37-.95t-1.81-.33h-2.67v9.67h2.67q1.01 0 1.81-.34.8-.33 1.37-.95.56-.62.86-1.52t.3-2.03m17.84-6.87h1.93v13.74h-2.25V48q0-.53.06-1.15l-4.16 7.8q-.29.56-.9.56h-.36q-.61 0-.9-.56l-4.2-7.83q.03.31.05.62.02.3.02.56v8.87h-2.26V43.13h1.93q.17 0 .3.01.12.01.22.05t.18.12q.08.09.16.23l4.11 7.63q.16.3.3.63.14.32.27.66.13-.35.28-.68.14-.33.3-.63l4.06-7.61q.07-.14.16-.23.08-.08.18-.12t.23-.05q.12-.01.29-.01"/></svg>