<svg xmlns="http://www.w3.org/2000/svg" width="100" height="100" viewBox="0 0 100 100"><rect width="100%" height="100%" fill="#dc2626"/><path fill="#ffffff" d="m30.72 43.54-.74 1.4q-.13.23-.28.33-.14.11-.37.11t-.5-.17-.64-.38-.87-.38-1.19-.17q-.61 0-1.07.15-.47.14-.78.41-.31.26-.47.63-.15.37-.15.81 0 .56.31.93.32.38.83.64.52.27 1.18.47.66.21 1.35.45.7.24 1.36.55t1.17.79q.52.48.83 1.17.32.7.32 1.69 0 1.08-.37 2.02t-1.08 1.63q-.71.7-1.73 1.1-1.02.41-2.34.41-.76 0-1.5-.15t-1.41-.43q-.68-.27-1.27-.66-.6-.38-1.06-.85l.87-1.42q.11-.16.28-.26.18-.11.38-.11.27 0 .59.23t.76.5q.44.28 1.03.5.59.23 1.41.23 1.27 0 1.96-.6t.69-1.72q0-.63-.31-1.03-.31-.39-.83-.66t-1.18-.46-1.34-.41-1.34-.52q-.66-.31-1.18-.81-.52-.49-.83-1.24-.31-.74-.31-1.83 0-.87.34-1.69.35-.83 1.01-1.46.66-.64 1.63-1.03.97-.38 2.22-.38 1.41 0 2.6.44 1.18.44 2.02 1.23M48.75 50q0 1.75-.58 3.24t-1.63 2.58q-1.06 1.09-2.54 1.7-1.49.61-3.3.61t-3.29-.61q-1.49-.61-2.55-1.7t-1.64-2.58q-.59-1.49-.59-3.24t.59-3.24q.58-1.49 1.64-2.58t2.55-1.7q1.48-.61 3.29-.61 1.21 0 2.27.28 1.07.28 1.96.79t1.6 1.24q.71.74 1.21 1.64.49.9.75 1.96.26 1.05.26 2.22m-3.03 0q0-1.31-.35-2.35t-1-1.77q-.65-.72-1.58-1.11-.93-.38-2.09-.38-1.17 0-2.1.38-.93.39-1.58 1.11-.66.73-1.01 1.77T35.66 50t.35 2.35 1.01 1.76q.65.72 1.58 1.1.93.39 2.1.39 1.16 0 2.09-.39.93-.38 1.58-1.1t1-1.76.35-2.35m8.98 1.94h5.06l-1.94-5.29q-.14-.35-.29-.83-.16-.49-.31-1.05-.14.56-.3 1.05-.15.49-.29.86zm4.04-9.9 6.25 15.91H62.7q-.39 0-.63-.19t-.36-.48l-1.19-3.25h-6.59l-1.19 3.25q-.09.25-.34.46t-.63.21h-2.31l6.26-15.91zm15.73 7.94h5.28v6.43q-1.21.89-2.58 1.3-1.37.42-2.93.42-1.95 0-3.53-.61-1.58-.6-2.69-1.68-1.12-1.08-1.73-2.58-.6-1.49-.6-3.26 0-1.8.58-3.29.59-1.5 1.66-2.58 1.07-1.07 2.6-1.67 1.53-.59 3.43-.59.97 0 1.81.15.84.16 1.56.43t1.32.65q.59.39 1.09.85l-.85 1.34q-.2.32-.52.39t-.69-.16q-.36-.21-.73-.42-.36-.21-.8-.36-.45-.15-1.01-.25-.55-.1-1.28-.1-1.17 0-2.13.39-.95.4-1.62 1.14-.67.73-1.03 1.77-.37 1.03-.37 2.31 0 1.36.4 2.43.39 1.08 1.1 1.82t1.71 1.13 2.23.39q.88 0 1.57-.18.7-.19 1.35-.51V52.2h-2q-.28 0-.44-.16t-.16-.39z"/></svg>