<svg xmlns="http://www.w3.org/2000/svg" width="100" height="100" viewBox="0 0 100 100"><rect width="100%" height="100%" fill="#dc2626"/><path fill="#ffffff" d="M28.885 56.72q1.05 0 1.88-.35t1.4-.99q.57-.63.87-1.53.3-.91.3-2.03V40.13h3.63v11.69q0 1.74-.56 3.22t-1.6 2.55q-1.05 1.07-2.55 1.68-1.5.6-3.37.6-1.89 0-3.39-.6-1.5-.61-2.55-1.68-1.04-1.07-1.6-2.55t-.56-3.22V40.13h3.63v11.68q0 1.12.3 2.02.31.91.88 1.55t1.4.99q.84.35 1.89.35m25-16.59h3.65v19.52h-3.65v-8.53h-9.17v8.53h-3.64V40.13h3.64v8.4h9.17zm25.33 9.76q0 2.15-.72 3.94-.71 1.8-2.01 3.09-1.3 1.3-3.12 2.01-1.82.72-4.05.72h-7.44V40.13h7.44q2.23 0 4.05.72t3.12 2.01 2.01 3.09q.72 1.79.72 3.94m-3.73 0q0-1.61-.43-2.88-.42-1.28-1.22-2.16-.81-.89-1.95-1.36t-2.57-.47h-3.79v13.74h3.79q1.43 0 2.57-.47t1.95-1.36q.8-.88 1.22-2.16.43-1.27.43-2.88"/></svg>