<svg xmlns="http://www.w3.org/2000/svg" width="100" height="100" viewBox="0 0 100 100"><rect width="100%" height="100%" fill="#dc2626"/><path fill="#ffffff" d="M38.415 42.77h2.11l-4.49 14.46h-2.43l-3.16-9.88q-.13-.36-.24-.88-.06.25-.12.47t-.13.41l-3.19 9.88h-2.44l-4.48-14.46h2.25q.35 0 .58.17.24.16.32.44l2.46 8.65q.08.32.15.7.08.37.16.78.08-.42.18-.79.09-.37.2-.69l2.84-8.65q.08-.23.31-.42.24-.19.58-.19h.79q.35 0 .57.17t.33.44l2.83 8.65q.21.62.38 1.43.13-.79.29-1.43l2.46-8.65q.06-.25.31-.43.24-.18.58-.18M56.095 50q0 1.59-.53 2.94-.52 1.36-1.48 2.35t-2.31 1.54q-1.35.56-3 .56-1.64 0-2.99-.56-1.35-.55-2.32-1.54-.96-.99-1.49-2.35-.53-1.35-.53-2.94t.53-2.95q.53-1.35 1.49-2.34.97-.99 2.32-1.54 1.35-.56 2.99-.56 1.1 0 2.07.25.97.26 1.78.73.81.46 1.45 1.12.65.67 1.1 1.49t.69 1.78q.23.96.23 2.02m-2.75 0q0-1.19-.32-2.14-.32-.94-.91-1.6t-1.44-1.01q-.84-.35-1.9-.35t-1.91.35q-.84.35-1.44 1.01-.59.66-.91 1.6-.32.95-.32 2.14t.32 2.14q.32.94.91 1.59.6.66 1.44 1.01.85.35 1.91.35t1.9-.35q.85-.35 1.44-1.01.59-.65.91-1.59.32-.95.32-2.14m13.49-5.87-.67 1.27q-.12.21-.26.3-.13.1-.33.1-.21 0-.45-.16-.25-.15-.59-.34t-.8-.35q-.45-.15-1.07-.15-.56 0-.98.14-.42.13-.71.37-.28.24-.42.57-.14.34-.14.74 0 .51.29.85.28.34.75.58t1.07.43 1.23.4q.63.22 1.23.51.6.28 1.07.71.47.44.76 1.07.28.63.28 1.53 0 .98-.34 1.84-.33.85-.97 1.48-.65.64-1.58 1-.93.37-2.13.37-.69 0-1.36-.13-.67-.14-1.29-.39-.61-.25-1.15-.6t-.96-.78l.79-1.29q.1-.14.26-.24.16-.09.34-.09.25 0 .54.2.29.21.69.46t.94.45q.53.21 1.28.21 1.15 0 1.78-.54.63-.55.63-1.57 0-.57-.28-.93-.29-.36-.76-.61-.47-.24-1.07-.41t-1.22-.37-1.22-.48-1.07-.73-.76-1.12q-.28-.68-.28-1.67 0-.79.31-1.54.32-.75.92-1.33t1.48-.93 2.02-.35q1.28 0 2.36.4t1.84 1.12m5.29 11h2.72q.75 0 1.26-.18t.82-.48q.3-.3.44-.7.13-.4.13-.85 0-.47-.15-.85-.15-.37-.47-.63-.32-.27-.82-.41-.51-.14-1.22-.14h-2.71zm2.29-10.28h-2.29v4.18h2.14q1.38 0 2.09-.5.7-.5.7-1.59 0-1.13-.64-1.61t-2-.48m-4.98-2.08h4.98q1.42 0 2.43.27t1.66.77q.64.5.94 1.21t.3 1.6q0 .51-.15.98-.15.46-.46.86-.32.41-.8.74-.49.33-1.16.56 2.98.67 2.98 3.22 0 .92-.35 1.7t-1.02 1.34q-.67.57-1.65.89t-2.24.32h-5.46z"/></svg>