<svg xmlns="http://www.w3.org/2000/svg" width="100" height="100" viewBox="0 0 100 100"><rect width="100%" height="100%" fill="#dc2626"/><path fill="#ffffff" d="M43.145 40.965h2.64l-5.61 18.07h-3.04l-3.95-12.35q-.16-.45-.3-1.1-.07.31-.15.59-.07.27-.16.51l-3.99 12.35h-3.05l-5.6-18.07h2.81q.44 0 .74.2.29.21.39.56l3.07 10.81q.1.4.2.87.09.47.19.98.1-.53.22-.99t.26-.86l3.55-10.81q.1-.29.39-.53.29-.23.72-.23h.99q.43 0 .71.21.27.21.41.55l3.54 10.81q.26.77.47 1.79.17-.99.37-1.79l3.07-10.81q.08-.32.38-.54.31-.22.73-.22m17.64 0h2.71l-7.29 18.07h-3.04l-7.3-18.07h2.7q.43 0 .71.21.27.21.41.55l4.26 11.02q.22.54.41 1.18.2.65.37 1.35.15-.7.33-1.35.17-.64.38-1.18l4.24-11.02q.1-.29.39-.53.3-.23.72-.23m13.3 8.63 5.98 9.44h-3.35q-.35 0-.56-.18-.21-.17-.33-.4l-4.19-6.93q-.1.31-.23.53l-4.02 6.4q-.15.22-.34.4t-.51.18h-3.14l6.01-9.3-5.77-8.77h3.35q.35 0 .51.09t.29.3l4.12 6.63q.12-.31.29-.63l3.78-5.93q.14-.24.3-.35t.41-.11h3.22z"/></svg>