<svg xmlns="http://www.w3.org/2000/svg" width="100" height="100" viewBox="0 0 100 100"><rect width="100%" height="100%" fill="#dc2626"/><path fill="#ffffff" d="M29.67 53.895h10.12l-3.87-10.58q-.29-.71-.59-1.68-.31-.96-.62-2.09-.29 1.13-.59 2.11-.31.97-.6 1.7zm8.08-19.8 12.49 31.81h-4.57q-.77 0-1.26-.38-.48-.39-.72-.96l-2.38-6.49H28.13l-2.37 6.49q-.18.5-.69.92-.5.42-1.25.42H19.2l12.52-31.81zm22.48 19.8h10.12l-3.87-10.58q-.29-.71-.6-1.68-.3-.96-.61-2.09-.29 1.13-.6 2.11-.3.97-.59 1.7zm8.07-19.8 12.5 31.81h-4.58q-.77 0-1.25-.38-.48-.39-.73-.96l-2.37-6.49H58.69l-2.38 6.49q-.17.5-.68.92-.5.42-1.25.42h-4.62l12.52-31.81z"/></svg>