<svg xmlns="http://www.w3.org/2000/svg" width="100" height="100" viewBox="0 0 100 100"><rect width="100%" height="100%" fill="#dc2626"/><path fill="#ffffff" d="M34.135 49.96h8.16v9.95q-1.87 1.38-3.98 2.01-2.12.64-4.54.64-3 0-5.44-.93-2.44-.94-4.17-2.6-1.72-1.67-2.66-3.98-.93-2.31-.93-5.05 0-2.77.9-5.08.9-2.32 2.56-3.98 1.65-1.67 4.02-2.59 2.36-.91 5.3-.91 1.5 0 2.8.23 1.3.24 2.41.66 1.11.41 2.03 1.01.92.59 1.68 1.31l-1.3 2.07q-.31.5-.8.61-.5.11-1.07-.25-.57-.32-1.13-.65-.56-.32-1.25-.56-.68-.24-1.54-.39t-1.98-.15q-1.82 0-3.29.61t-2.51 1.75-1.6 2.74-.56 3.57q0 2.11.6 3.76.61 1.66 1.7 2.81 1.1 1.15 2.65 1.75 1.54.6 3.45.6 1.36 0 2.43-.29 1.07-.28 2.09-.78V53.4h-3.09q-.45 0-.69-.25-.25-.24-.25-.6zm41.7-12.25h3.59l-7.63 24.58h-4.13l-5.38-16.8q-.22-.61-.4-1.49l-.21.8q-.1.37-.22.69l-5.42 16.8h-4.15l-7.62-24.58h3.83q.59 0 .99.28t.54.75l4.18 14.71q.14.54.26 1.18.13.64.27 1.34.13-.72.3-1.35.16-.63.34-1.17l4.83-14.71q.14-.39.54-.71t.97-.32h1.35q.59 0 .97.29.37.29.56.74l4.81 14.71q.36 1.05.64 2.43.23-1.34.5-2.43l4.18-14.71q.1-.42.52-.73.41-.3.99-.3"/></svg>