<svg xmlns="http://www.w3.org/2000/svg" width="100" height="100" viewBox="0 0 100 100"><rect width="100%" height="100%" fill="#dc2626"/><path fill="#ffffff" d="M28.315 49.2h3.86q1.75 0 3.05-.44t2.14-1.21 1.25-1.83q.41-1.05.41-2.32 0-2.53-1.66-3.89-1.67-1.35-5.1-1.35h-3.95zm11.45 5.15 8.33 12.28h-5.59q-1.59 0-2.3-1.24l-6.99-10.65q-.4-.6-.87-.85t-1.39-.25h-2.64v12.99h-6.19V33.37h10.14q3.38 0 5.81.7t3.98 1.97 2.29 3.02q.73 1.76.73 3.88 0 1.68-.49 3.17-.5 1.5-1.43 2.72t-2.3 2.14-3.11 1.45q.59.34 1.1.81t.92 1.12m34.78 4.44q.5 0 .89.39l2.44 2.64q-2.02 2.51-4.98 3.84-2.95 1.34-7.09 1.34-3.71 0-6.66-1.27-2.96-1.26-5.05-3.52-2.09-2.25-3.21-5.38-1.11-3.13-1.11-6.83 0-3.75 1.19-6.86 1.2-3.12 3.37-5.37 2.17-2.26 5.19-3.51 3.01-1.26 6.67-1.26 3.63 0 6.45 1.2t4.79 3.13l-2.07 2.87q-.18.28-.47.49-.28.2-.79.2-.35 0-.71-.19-.37-.2-.81-.49-.44-.28-1.01-.63-.58-.34-1.33-.63-.76-.29-1.76-.48-1-.2-2.32-.2-2.23 0-4.08.79-1.85.8-3.18 2.3-1.34 1.51-2.07 3.68-.74 2.18-.74 4.96 0 2.81.79 4.99.8 2.19 2.15 3.68 1.36 1.5 3.2 2.29t3.96.79q1.26 0 2.29-.13 1.02-.14 1.88-.44t1.63-.77q.78-.47 1.53-1.16.23-.21.49-.34.25-.12.53-.12"/></svg>