<svg xmlns="http://www.w3.org/2000/svg" width="100" height="100" viewBox="0 0 100 100"><rect width="100%" height="100%" fill="#dc2626"/><path fill="#ffffff" d="M46.26 58.79q.51 0 .9.39l2.44 2.64q-2.03 2.51-4.98 3.84Q41.66 67 37.52 67q-3.7 0-6.66-1.27-2.95-1.26-5.05-3.52-2.09-2.25-3.2-5.38-1.12-3.13-1.12-6.83 0-3.75 1.2-6.86 1.19-3.12 3.37-5.37 2.17-2.26 5.18-3.51Q34.26 33 37.91 33q3.64 0 6.45 1.2 2.82 1.2 4.8 3.13l-2.07 2.87q-.18.28-.47.49-.29.2-.79.2-.35 0-.72-.19-.37-.2-.8-.49-.44-.28-1.02-.63-.57-.34-1.33-.63t-1.76-.48q-1-.2-2.31-.2-2.23 0-4.08.79-1.85.8-3.19 2.3-1.33 1.51-2.07 3.68-.73 2.18-.73 4.96 0 2.81.79 4.99.79 2.19 2.15 3.68 1.36 1.5 3.2 2.29t3.95.79q1.27 0 2.29-.13 1.02-.14 1.89-.44.86-.3 1.63-.77t1.53-1.16q.23-.21.48-.34.26-.12.53-.12m13.78 3.01h6.25q1.73 0 2.9-.41 1.18-.42 1.88-1.11t1.01-1.61.31-1.95q0-1.08-.35-1.95-.34-.86-1.08-1.47-.73-.61-1.89-.93-1.17-.32-2.8-.32h-6.23zm5.27-23.64h-5.27v9.61h4.92q3.17 0 4.8-1.15 1.62-1.15 1.62-3.66 0-2.6-1.47-3.7-1.48-1.1-4.6-1.1m-11.46-4.79h11.46q3.26 0 5.58.62 2.33.62 3.81 1.77t2.17 2.79q.69 1.63.69 3.68 0 1.17-.34 2.24-.35 1.07-1.07 2t-1.84 1.69-2.66 1.29q6.86 1.54 6.86 7.4 0 2.12-.81 3.91-.8 1.8-2.34 3.1t-3.8 2.03q-2.25.74-5.15.74H53.85z"/></svg>