<svg xmlns="http://www.w3.org/2000/svg" width="100" height="100" viewBox="0 0 100 100"><rect width="100%" height="100%" fill="#dc2626"/><path fill="#ffffff" d="M41.24 39.82H28.4v8.56h10.84v4.3H28.4v11.78H23V35.54h18.24zm31.7-4.28H77v28.92h-4.74V45.78q0-1.12.12-2.42l-8.74 16.42q-.62 1.18-1.9 1.18h-.76q-1.28 0-1.9-1.18L50.24 43.3q.06.66.1 1.3t.04 1.18v18.68h-4.74V35.54h4.06q.36 0 .62.02t.47.1.38.26.33.48l8.66 16.06q.34.64.63 1.32t.57 1.4q.28-.74.58-1.43t.64-1.33l8.54-16.02q.16-.3.34-.48t.39-.26.47-.1.62-.02"/></svg>