<svg xmlns="http://www.w3.org/2000/svg" width="100" height="100" viewBox="0 0 100 100"><rect width="100%" height="100%" fill="#dc2626"/><path fill="#ffffff" d="M41.695 34.455h5.81v31.09h-5.81v-13.59h-14.59v13.59h-5.81v-31.09h5.81v13.37h14.59zm18.52 14.79h3.61q1.63 0 2.85-.41 1.21-.4 2-1.12.78-.72 1.17-1.71t.39-2.18q0-2.36-1.56-3.63t-4.77-1.27h-3.69zm10.7 4.82 7.79 11.48h-5.23q-1.48 0-2.15-1.16l-6.53-9.96q-.37-.55-.81-.79t-1.3-.24h-2.47v12.15h-5.79v-31.09h9.48q3.16 0 5.43.66 2.27.65 3.72 1.83 1.45 1.19 2.14 2.83.69 1.65.69 3.62 0 1.57-.46 2.97t-1.34 2.54q-.87 1.14-2.15 2-1.27.86-2.91 1.35.56.33 1.03.77.48.44.86 1.04"/></svg>