<svg xmlns="http://www.w3.org/2000/svg" width="100" height="100" viewBox="0 0 100 100"><rect width="100%" height="100%" fill="#dc2626"/><path fill="#ffffff" d="M24.84 55.765h6.65v2.55h-9.74v-16.63h3.09zm11.95 0h6.65v2.55H33.7v-16.63h3.09zm24.72-5.76q0 1.82-.61 3.38-.6 1.56-1.71 2.7-1.1 1.14-2.65 1.78-1.55.63-3.45.63-1.89 0-3.44-.63-1.55-.64-2.66-1.78t-1.72-2.7-.61-3.38q0-1.83.61-3.39t1.72-2.7 2.66-1.77q1.55-.64 3.44-.64 1.26 0 2.38.29 1.11.29 2.05.83.93.53 1.67 1.3.74.76 1.26 1.71.52.94.79 2.04.27 1.11.27 2.33m-3.17 0q0-1.37-.36-2.46-.37-1.09-1.05-1.85-.68-.75-1.65-1.16-.97-.4-2.19-.4t-2.19.4q-.97.41-1.66 1.16-.68.76-1.05 1.85t-.37 2.46q0 1.36.37 2.45t1.05 1.84q.69.75 1.66 1.16.97.4 2.19.4t2.19-.4q.97-.41 1.65-1.16t1.05-1.84q.36-1.09.36-2.45m17.18-8.32h2.73v16.63h-1.59q-.37 0-.61-.12-.25-.12-.48-.41l-8.68-11.09q.07.76.07 1.41v10.21h-2.73v-16.63h1.62q.2 0 .34.02.15.02.26.07.1.05.21.15.1.09.23.26l8.71 11.13q-.03-.41-.05-.8-.03-.39-.03-.72z"/></svg>