<svg xmlns="http://www.w3.org/2000/svg" width="100" height="100" viewBox="0 0 100 100"><rect width="100%" height="100%" fill="#dc2626"/><path fill="#ffffff" d="M22.76 54.005h4.63v1.78h-6.78v-11.57h2.15zm14.02-9.79h1.9v11.57h-1.11q-.25 0-.43-.08-.17-.09-.33-.29l-6.04-7.71q.05.53.05.98v7.1h-1.9v-11.57h1.13q.14 0 .24.01.1.02.17.05.08.04.15.11.07.06.16.18l6.07 7.74q-.03-.28-.04-.55-.02-.27-.02-.51zm18.18 0h1.68l-3.59 11.57h-1.94l-2.53-7.9q-.1-.29-.19-.71-.05.2-.1.38-.05.17-.1.33l-2.55 7.9h-1.96l-3.58-11.57h1.8q.28 0 .47.13.19.14.25.36l1.97 6.92q.06.26.12.56t.13.62q.06-.33.14-.63.07-.29.16-.55l2.27-6.92q.07-.18.25-.34.19-.15.46-.15h.64q.28 0 .45.14.18.13.27.35l2.26 6.92q.17.5.3 1.14.11-.63.24-1.14l1.96-6.92q.05-.2.25-.34.19-.15.47-.15m9.8 1.09-.53 1.02q-.1.16-.21.24-.1.08-.26.08-.17 0-.37-.13-.19-.12-.47-.27-.27-.16-.63-.28-.37-.12-.86-.12-.45 0-.79.1-.33.11-.56.3-.23.2-.34.46-.11.27-.11.59 0 .41.23.68.22.27.6.47.38.19.86.34t.98.32q.5.18.98.4.48.23.86.58t.6.85q.23.51.23 1.23 0 .78-.27 1.46-.26.69-.78 1.2-.52.5-1.26.8-.74.29-1.7.29-.56 0-1.09-.11-.54-.11-1.03-.31t-.92-.48q-.44-.28-.77-.62l.63-1.03q.08-.12.21-.19.13-.08.27-.08.2 0 .43.17.23.16.55.36t.75.36q.43.17 1.03.17.92 0 1.42-.44.51-.43.51-1.25 0-.46-.23-.74-.23-.29-.6-.49-.38-.19-.86-.33t-.98-.3q-.49-.16-.97-.38t-.86-.58q-.37-.36-.6-.9t-.23-1.34q0-.63.25-1.23t.73-1.06q.48-.47 1.19-.75.7-.28 1.61-.28 1.03 0 1.89.32.87.32 1.47.9m13-1.09h1.63v11.57h-1.9v-7.47q0-.45.05-.97l-3.5 6.57q-.24.47-.76.47h-.3q-.51 0-.76-.47l-3.54-6.59q.03.26.04.52.02.25.02.47v7.47h-1.9v-11.57h1.63q.14 0 .25.01.1.01.18.04.09.03.16.1.06.08.13.2l3.46 6.42q.14.26.25.53.12.27.23.56.11-.3.23-.57.12-.28.26-.54l3.42-6.4q.06-.12.13-.2.07-.07.16-.1.08-.03.19-.04.1-.01.24-.01"/></svg>