<svg xmlns="http://www.w3.org/2000/svg" width="100" height="100" viewBox="0 0 100 100"><rect width="100%" height="100%" fill="#dc2626"/><path fill="#ffffff" d="M49.89 50q0 3.18-1.05 5.89t-2.97 4.69-4.62 3.09-6 1.11q-3.28 0-5.98-1.11t-4.63-3.09-2.99-4.69T20.59 50t1.06-5.89 2.99-4.69 4.63-3.09 5.98-1.11q2.2 0 4.14.51t3.56 1.44 2.91 2.26 2.19 2.97 1.37 3.56.47 4.04m-5.5 0q0-2.38-.64-4.27t-1.82-3.21-2.87-2.02-3.81-.7-3.81.7-2.88 2.02-1.83 3.21-.64 4.27.64 4.27 1.83 3.2 2.88 2.01 3.81.7 3.81-.7 2.87-2.01 1.82-3.2.64-4.27m16.32 3.54h9.2l-3.52-9.62q-.26-.64-.54-1.52t-.56-1.9q-.26 1.02-.54 1.91t-.54 1.55zm7.34-18 11.36 28.92h-4.16q-.7 0-1.14-.35t-.66-.87l-2.16-5.9H59.31l-2.16 5.9q-.16.46-.62.84t-1.14.38h-4.2l11.38-28.92z"/></svg>