<svg xmlns="http://www.w3.org/2000/svg" width="100" height="100" viewBox="0 0 100 100"><rect width="100%" height="100%" fill="#dc2626"/><path fill="#ffffff" d="M21.88 49.705h1.43q.64 0 1.12-.16.48-.17.79-.45.31-.29.47-.68.15-.39.15-.86 0-.93-.62-1.43-.61-.5-1.88-.5h-1.46zm4.23 1.9 3.08 4.54h-2.07q-.58 0-.85-.46l-2.58-3.93q-.15-.23-.32-.32t-.51-.09h-.98v4.8h-2.29v-12.29h3.75q1.25 0 2.15.26.89.26 1.47.72.57.47.84 1.12t.27 1.43q0 .63-.18 1.18t-.53 1q-.34.45-.85.79-.5.34-1.15.54.22.12.41.3.19.17.34.41m7-.1h3.91l-1.5-4.09q-.11-.27-.23-.65-.12-.37-.24-.8-.11.43-.23.81t-.23.66zm3.12-7.65 4.82 12.29h-1.76q-.3 0-.49-.15t-.28-.37l-.92-2.51h-5.09l-.92 2.51q-.06.2-.26.36t-.48.16h-1.79l4.84-12.29zm8.39 0v5.15h.53q.32 0 .54-.09.21-.09.36-.28l3.39-4.3q.22-.27.45-.37.23-.11.59-.11h1.97l-4.14 5.11q-.36.46-.75.66.28.1.5.29.23.18.43.48l4.27 5.75h-2.02q-.4 0-.6-.11-.2-.12-.34-.34l-3.48-4.54q-.16-.23-.37-.32-.21-.1-.61-.1h-.72v5.41h-2.29v-12.29zm17.43 0h2.29v12.29h-2.29v-5.37h-5.77v5.37h-2.3v-12.29h2.3v5.29h5.77zm16.63 0h1.73v12.29h-2.02v-7.94q0-.48.06-1.03l-3.72 6.98q-.26.5-.81.5h-.32q-.54 0-.81-.5l-3.75-7 .04.55q.02.27.02.5v7.94h-2.02v-12.29h1.73q.15 0 .26.01t.2.04.16.11.14.2l3.68 6.83q.15.27.27.56t.24.6q.12-.32.25-.61.13-.3.27-.57l3.63-6.81q.07-.12.14-.2.08-.08.17-.11t.2-.04.26-.01"/></svg>