<svg xmlns="http://www.w3.org/2000/svg" width="100" height="100" viewBox="0 0 100 100"><rect width="100%" height="100%" fill="#dc2626"/><path fill="#ffffff" d="m35.085 40.605-1.07 2.03q-.19.34-.41.49-.21.15-.53.15-.34 0-.73-.25-.39-.24-.94-.55-.54-.3-1.27-.55t-1.72-.25q-.89 0-1.57.22-.67.21-1.12.6-.46.38-.68.92-.23.53-.23 1.17 0 .82.46 1.36.45.55 1.21.93.75.39 1.71.69t1.97.65q1 .34 1.96.8.96.45 1.72 1.15.75.7 1.2 1.7.46 1.01.46 2.45 0 1.57-.54 2.94-.53 1.37-1.56 2.38-1.04 1.02-2.52 1.6-1.49.59-3.41.59-1.11 0-2.18-.22t-2.05-.62q-.99-.4-1.85-.96-.87-.56-1.54-1.24l1.27-2.07q.16-.22.41-.37.26-.16.55-.16.4 0 .86.33t1.1.73 1.5.73 2.06.33q1.84 0 2.84-.88 1.01-.87 1.01-2.5 0-.91-.45-1.49-.46-.57-1.21-.97-.75-.39-1.71-.66t-1.96-.59q-.99-.32-1.95-.77t-1.71-1.17-1.21-1.8q-.45-1.08-.45-2.66 0-1.27.5-2.47t1.46-2.12q.96-.93 2.37-1.49t3.23-.56q2.05 0 3.78.64t2.94 1.79m8.47 17.6h4.35q1.2 0 2.02-.29.81-.29 1.3-.77t.7-1.12q.22-.64.22-1.36 0-.75-.24-1.35t-.75-1.02q-.51-.43-1.32-.65t-1.95-.22h-4.33zm3.66-16.45h-3.66v6.69h3.42q2.21 0 3.34-.8t1.13-2.54q0-1.81-1.03-2.58-1.02-.77-3.2-.77m-7.97-3.33h7.97q2.27 0 3.89.44 1.62.43 2.65 1.23t1.51 1.93q.48 1.14.48 2.56 0 .82-.24 1.56-.24.75-.74 1.4-.51.64-1.28 1.17-.78.53-1.85.9 4.77 1.07 4.77 5.15 0 1.47-.56 2.72t-1.64 2.15q-1.07.91-2.64 1.42-1.56.51-3.58.51h-8.74zm25.94 14.4h7.36l-2.82-7.69q-.2-.51-.43-1.22-.22-.7-.45-1.52-.2.82-.43 1.53-.22.71-.43 1.24zm5.87-14.4 9.09 23.14h-3.33q-.56 0-.91-.28t-.53-.7l-1.73-4.72h-9.58l-1.73 4.72q-.13.37-.49.68-.37.3-.92.3h-3.36l9.11-23.14z"/></svg>