<svg xmlns="http://www.w3.org/2000/svg" width="100" height="100" viewBox="0 0 100 100"><rect width="100%" height="100%" fill="#dc2626"/><path fill="#ffffff" d="M37.925 38.425v3.54h-6.98v19.6h-4.3v-19.6h-6.98v-3.54zm18.93 17.68q.35 0 .62.28l1.7 1.84q-1.41 1.74-3.47 2.67-2.05.93-4.93.93-2.58 0-4.64-.88-2.05-.88-3.51-2.45-1.45-1.57-2.23-3.75-.78-2.17-.78-4.75 0-2.61.84-4.77.83-2.17 2.34-3.74t3.61-2.44q2.09-.87 4.64-.87 2.53 0 4.49.83t3.33 2.18l-1.44 2q-.13.19-.33.33-.2.15-.55.15-.24 0-.49-.14-.26-.14-.56-.34-.31-.2-.71-.44t-.93-.44q-.52-.2-1.22-.33-.7-.14-1.61-.14-1.55 0-2.84.55-1.29.56-2.21 1.6-.93 1.05-1.44 2.56-.52 1.52-.52 3.45 0 1.95.56 3.47.55 1.52 1.49 2.56.95 1.04 2.23 1.6 1.28.55 2.75.55.88 0 1.59-.1.71-.09 1.31-.3t1.14-.54q.53-.33 1.06-.81.16-.14.34-.23.17-.09.37-.09m21.16 0q.36 0 .63.28l1.69 1.84q-1.4 1.74-3.46 2.67t-4.94.93q-2.57 0-4.63-.88-2.05-.88-3.51-2.45t-2.23-3.75q-.78-2.17-.78-4.75 0-2.61.83-4.77.84-2.17 2.35-3.74t3.61-2.44q2.09-.87 4.64-.87 2.52 0 4.48.83t3.34 2.18l-1.44 2q-.13.19-.33.33-.2.15-.55.15-.24 0-.5-.14-.25-.14-.56-.34-.3-.2-.7-.44t-.93-.44-1.22-.33q-.7-.14-1.61-.14-1.55 0-2.84.55-1.29.56-2.22 1.6-.92 1.05-1.44 2.56-.51 1.52-.51 3.45 0 1.95.55 3.47.56 1.52 1.5 2.56t2.22 1.6q1.28.55 2.76.55.88 0 1.59-.1.71-.09 1.31-.3t1.14-.54q.53-.33 1.06-.81.16-.14.34-.23.17-.09.36-.09"/></svg>