<svg xmlns="http://www.w3.org/2000/svg" width="100" height="100" viewBox="0 0 100 100"><rect width="100%" height="100%" fill="#dc2626"/><path fill="#ffffff" d="M32.86 42.04v2.44h-4.8v13.47H25.1V44.48h-4.79v-2.44zm13.2 0v2.44h-4.8v13.47H38.3V44.48h-4.79v-2.44zm11.29 1.5-.73 1.4q-.13.23-.28.33-.15.11-.37.11-.23 0-.5-.17t-.65-.38q-.37-.21-.87-.38t-1.18-.17q-.62 0-1.08.15-.46.14-.78.41-.31.26-.46.63-.16.37-.16.81 0 .56.32.93.31.38.83.64.51.27 1.17.47.66.21 1.36.45.69.24 1.35.55t1.18.79q.51.48.83 1.17.31.7.31 1.69 0 1.08-.37 2.02t-1.08 1.63q-.71.7-1.73 1.1-1.02.41-2.34.41-.76 0-1.5-.15-.73-.15-1.41-.43-.68-.27-1.27-.66-.6-.38-1.06-.85l.87-1.42q.11-.16.29-.26.17-.11.37-.11.28 0 .6.23.31.23.75.5.44.28 1.03.5.59.23 1.42.23 1.26 0 1.95-.6.7-.6.7-1.72 0-.63-.32-1.03-.31-.39-.83-.66-.51-.27-1.17-.46t-1.35-.41q-.68-.22-1.34-.52-.66-.31-1.17-.81-.52-.49-.84-1.24-.31-.74-.31-1.83 0-.87.35-1.69.34-.83 1-1.46.66-.64 1.63-1.03.97-.38 2.22-.38 1.41 0 2.6.44t2.02 1.23m8.93-1.5V52.3q0 1.34-.33 2.42-.33 1.07-.99 1.83-.65.76-1.63 1.17t-2.28.41q-.59 0-1.17-.08-.57-.07-1.19-.22.03-.44.07-.88.05-.44.08-.88.03-.24.19-.39t.46-.15q.19 0 .49.08.3.07.76.07.63 0 1.11-.18.49-.18.81-.57.33-.4.49-1.03.17-.64.17-1.54V42.04zm13.41 2.36h-7.06v4.71h5.96v2.36h-5.96v6.48h-2.97V42.04h10.03z"/></svg>