<svg xmlns="http://www.w3.org/2000/svg" width="100" height="100" viewBox="0 0 100 100"><rect width="100%" height="100%" fill="#dc2626"/><path fill="#ffffff" d="M30.84 57.845q1.21 0 2.16-.41.95-.4 1.61-1.13.65-.73 1-1.77.34-1.03.34-2.32v-13.42h4.17v13.42q0 2-.64 3.7-.64 1.69-1.84 2.93-1.21 1.23-2.93 1.92t-3.87.69q-2.17 0-3.89-.69t-2.92-1.92q-1.2-1.24-1.85-2.93-.64-1.7-.64-3.7v-13.42h4.17v13.4q0 1.29.35 2.33t1 1.77q.66.74 1.62 1.14.95.41 2.16.41m26.97-16.94-1.04 1.96q-.19.33-.39.48-.21.14-.52.14-.33 0-.71-.24t-.91-.53q-.52-.3-1.23-.54-.7-.24-1.66-.24-.87 0-1.52.21t-1.1.58q-.44.38-.65.9-.22.51-.22 1.13 0 .8.44 1.32.44.53 1.17.9t1.66.67q.93.29 1.91.63.97.33 1.9.77t1.66 1.12q.73.67 1.17 1.65.44.97.44 2.37 0 1.52-.52 2.84-.52 1.33-1.52 2.31-1 .99-2.44 1.55-1.44.57-3.3.57-1.07 0-2.11-.21t-1.99-.6-1.79-.93-1.49-1.21l1.23-2q.15-.21.4-.36t.53-.15q.39 0 .83.32.45.32 1.07.71.62.38 1.45.7t2 .32q1.78 0 2.75-.85.98-.84.98-2.42 0-.89-.44-1.44-.44-.56-1.17-.94t-1.66-.65q-.93-.26-1.89-.57t-1.89-.74q-.93-.44-1.66-1.13-.73-.7-1.17-1.75-.44-1.04-.44-2.58 0-1.22.49-2.39.48-1.16 1.41-2.06t2.3-1.44q1.36-.54 3.13-.54 1.98 0 3.66.62 1.67.62 2.85 1.74m8.2 17.05h4.21q1.17 0 1.96-.28t1.26-.75q.47-.46.68-1.08t.21-1.32q0-.73-.23-1.31t-.73-.99q-.49-.41-1.28-.63-.78-.22-1.88-.22h-4.2zm3.55-15.94h-3.55v6.48h3.32q2.13 0 3.23-.77 1.09-.78 1.09-2.47 0-1.75-.99-2.5-.99-.74-3.1-.74m-7.72-3.22h7.72q2.2 0 3.76.42 1.57.41 2.57 1.19 1 .77 1.46 1.87.47 1.11.47 2.48 0 .8-.23 1.52-.24.72-.72 1.34-.49.63-1.24 1.14-.76.51-1.79.87 4.62 1.04 4.62 4.99 0 1.43-.55 2.64-.54 1.21-1.58 2.08-1.04.88-2.56 1.37-1.51.5-3.47.5h-8.46z"/></svg>