<svg xmlns="http://www.w3.org/2000/svg" width="100" height="100" viewBox="0 0 100 100"><rect width="100%" height="100%" fill="#dc2626"/><path fill="#ffffff" d="M23.01 54.355h2.31q.64 0 1.07-.15.44-.15.7-.41.26-.25.37-.59.12-.34.12-.72 0-.4-.13-.72t-.4-.55q-.27-.22-.7-.34t-1.04-.12h-2.3zm1.95-8.73h-1.95v3.55h1.82q1.17 0 1.77-.43.6-.42.6-1.35 0-.96-.54-1.37-.55-.4-1.7-.4m-4.24-1.77h4.24q1.2 0 2.06.23t1.41.65q.55.43.8 1.03.26.6.26 1.36 0 .43-.13.83t-.4.74q-.26.34-.68.62-.41.28-.98.48 2.54.57 2.54 2.74 0 .78-.3 1.44-.3.67-.87 1.15t-1.4.75-1.9.27h-4.65zm18.95 1.82h-5.46v3.64h4.61v1.82h-4.61v5.01h-2.29v-12.29h7.75zm10.46-1.82v1.88h-3.71v10.41h-2.29v-10.41h-3.7v-1.88zm16.17 0h1.79l-3.81 12.29h-2.07l-2.68-8.4q-.11-.3-.21-.75-.05.22-.1.4-.05.19-.11.35l-2.71 8.4h-2.08l-3.8-12.29h1.91q.3 0 .5.14t.26.38l2.1 7.35.13.59q.06.32.13.67.07-.36.15-.67.08-.32.17-.59l2.42-7.35q.06-.2.26-.36t.49-.16h.67q.3 0 .49.14.19.15.28.38l2.4 7.35q.18.53.33 1.22.11-.68.24-1.22l2.09-7.35q.06-.22.26-.37.21-.15.5-.15m11.75 9.39q.19 0 .33.15l.9.97q-.75.93-1.84 1.42-1.09.5-2.62.5-1.37 0-2.46-.47t-1.87-1.3q-.77-.84-1.18-1.99-.42-1.16-.42-2.53 0-1.38.45-2.53.44-1.15 1.24-1.99.8-.83 1.92-1.29 1.11-.47 2.46-.47t2.39.44q1.04.45 1.77 1.16l-.77 1.06q-.06.11-.17.18-.11.08-.29.08-.13 0-.27-.07l-.29-.18q-.17-.11-.38-.24-.21-.12-.49-.23t-.65-.18-.86-.07q-.82 0-1.5.29-.69.3-1.18.85-.49.56-.77 1.36-.27.81-.27 1.83 0 1.04.29 1.85.3.81.8 1.36t1.18.84q.68.3 1.46.3.47 0 .85-.05t.7-.16q.31-.12.6-.29.28-.17.56-.43.09-.08.18-.12.1-.05.2-.05"/></svg>