<svg xmlns="http://www.w3.org/2000/svg" width="100" height="100" viewBox="0 0 100 100"><rect width="100%" height="100%" fill="#dc2626"/><path fill="#ffffff" d="M36.27 55.915q.34 0 .61.27l1.64 1.78q-1.36 1.69-3.36 2.59-1.99.9-4.78.9-2.49 0-4.48-.85-2-.86-3.41-2.38t-2.16-3.62q-.75-2.11-.75-4.61 0-2.52.81-4.62.8-2.1 2.27-3.62 1.46-1.52 3.49-2.37 2.03-.84 4.5-.84 2.45 0 4.34.8 1.9.81 3.24 2.11l-1.4 1.94q-.12.19-.32.33-.19.14-.53.14-.23 0-.48-.14-.25-.13-.54-.32-.3-.2-.69-.43-.38-.23-.9-.42-.51-.2-1.18-.33-.68-.13-1.56-.13-1.5 0-2.75.53-1.25.54-2.15 1.55-.9 1.02-1.39 2.48-.5 1.47-.5 3.34 0 1.89.54 3.37.53 1.47 1.45 2.48.91 1 2.15 1.54 1.24.53 2.67.53.85 0 1.54-.09t1.27-.29q.58-.21 1.1-.52.52-.32 1.03-.79.16-.14.33-.22.17-.09.35-.09m20.96-17.12h3.36l-9.05 22.41h-3.77l-9.05-22.41h3.35q.54 0 .88.26t.51.68l5.29 13.67q.26.67.5 1.47t.46 1.66q.19-.86.4-1.66.22-.8.48-1.47l5.26-13.67q.12-.35.49-.65.36-.29.89-.29m9.86 10.66h2.6q1.18 0 2.05-.29.88-.3 1.45-.82.56-.52.84-1.23t.28-1.56q0-1.71-1.12-2.62-1.13-.92-3.44-.92h-2.66zm7.72 3.47 5.61 8.28h-3.77q-1.07 0-1.55-.84l-4.71-7.17q-.27-.41-.58-.58-.32-.17-.94-.17h-1.78v8.76h-4.17v-22.41h6.83q2.28 0 3.92.47 1.63.47 2.68 1.33 1.04.85 1.54 2.03.5 1.19.5 2.62 0 1.13-.34 2.13-.33 1.01-.96 1.83t-1.55 1.44-2.1.98q.4.23.75.55.34.32.62.75"/></svg>