<svg xmlns="http://www.w3.org/2000/svg" width="100" height="100" viewBox="0 0 100 100"><rect width="100%" height="100%" fill="#dc2626"/><path fill="#ffffff" d="M49.735 50.005q0 3.41-1.14 6.27t-3.2 4.93q-2.07 2.06-4.97 3.2t-6.45 1.14h-11.85v-31.09h11.85q3.55 0 6.45 1.15t4.97 3.2q2.06 2.06 3.2 4.92t1.14 6.28m-5.94 0q0-2.56-.67-4.59-.68-2.04-1.96-3.44-1.28-1.41-3.09-2.17-1.82-.75-4.1-.75h-6.04v21.89h6.04q2.28 0 4.1-.75 1.81-.76 3.09-2.16 1.28-1.41 1.96-3.44.67-2.04.67-4.59m16.82 11.02h5.85q1.61 0 2.71-.38 1.09-.39 1.75-1.03.65-.65.94-1.51t.29-1.83q0-1.01-.32-1.81-.32-.81-1.01-1.38t-1.77-.87q-1.09-.3-2.62-.3h-5.82zm4.92-22.1h-4.92v8.99h4.6q2.97 0 4.48-1.08 1.52-1.07 1.52-3.41 0-2.43-1.38-3.47-1.37-1.03-4.3-1.03m-10.71-4.47h10.71q3.05 0 5.23.58 2.17.58 3.55 1.66 1.39 1.07 2.04 2.6.64 1.52.64 3.44 0 1.09-.32 2.09t-1 1.88q-.68.87-1.72 1.58t-2.48 1.2q6.4 1.44 6.4 6.92 0 1.98-.75 3.66-.75 1.67-2.19 2.89-1.44 1.21-3.55 1.9t-4.82.69h-11.74z"/></svg>