<svg xmlns="http://www.w3.org/2000/svg" width="100" height="100" viewBox="0 0 100 100"><rect width="100%" height="100%" fill="#dc2626"/><path fill="#ffffff" d="M49.015 50.005q0 3.41-1.13 6.27-1.14 2.86-3.21 4.93-2.06 2.06-4.96 3.2-2.91 1.14-6.45 1.14h-11.85v-31.09h11.85q3.54 0 6.45 1.15 2.9 1.15 4.96 3.2 2.07 2.06 3.21 4.92 1.13 2.86 1.13 6.28m-5.93 0q0-2.56-.68-4.59-.67-2.04-1.95-3.44-1.28-1.41-3.1-2.17-1.82-.75-4.09-.75h-6.05v21.89h6.05q2.27 0 4.09-.75 1.82-.76 3.1-2.16 1.28-1.41 1.95-3.44.68-2.04.68-4.59m32.38 8.21q.47 0 .84.36l2.28 2.48q-1.89 2.34-4.66 3.59-2.76 1.24-6.63 1.24-3.46 0-6.22-1.18-2.77-1.18-4.72-3.29-1.96-2.11-3-5.03-1.05-2.92-1.05-6.38 0-3.51 1.12-6.42 1.12-2.92 3.15-5.02 2.03-2.11 4.85-3.28t6.24-1.17q3.39 0 6.03 1.11 2.63 1.12 4.48 2.93l-1.94 2.69q-.17.25-.44.45-.27.19-.74.19-.32 0-.67-.18-.34-.18-.75-.45t-.94-.59q-.54-.33-1.25-.6-.71-.26-1.65-.45-.93-.18-2.16-.18-2.08 0-3.81.74t-2.98 2.15-1.94 3.44q-.68 2.03-.68 4.64 0 2.62.74 4.66t2.01 3.44 2.99 2.14 3.7.74q1.18 0 2.13-.13.96-.13 1.77-.41.8-.28 1.52-.72t1.43-1.08q.22-.2.46-.31.23-.12.49-.12"/></svg>