<svg xmlns="http://www.w3.org/2000/svg" width="100" height="100" viewBox="0 0 100 100"><rect width="100%" height="100%" fill="#dc2626"/><path fill="#ffffff" d="M36.295 50q0 1.99-.66 3.65-.67 1.66-1.87 2.86t-2.88 1.87q-1.69.66-3.75.66h-6.89V40.97h6.89q2.06 0 3.75.66 1.68.67 2.88 1.87 1.2 1.19 1.87 2.85.66 1.66.66 3.65m-3.45 0q0-1.49-.39-2.67-.4-1.18-1.14-2-.75-.82-1.8-1.25-1.06-.44-2.38-.44h-3.52v12.72h3.52q1.32 0 2.38-.43 1.05-.44 1.8-1.26.74-.82 1.14-2 .39-1.18.39-2.67m27.82-9.03h2.64l-5.61 18.07h-3.04l-3.95-12.35q-.16-.45-.3-1.1-.07.31-.15.59-.07.27-.16.51l-3.99 12.35h-3.05l-5.6-18.07h2.81q.44 0 .74.2.29.21.39.56l3.07 10.81q.1.4.2.87.09.47.19.98.1-.53.22-.99t.26-.86l3.55-10.81q.1-.29.39-.53.29-.23.72-.23h.99q.43 0 .71.21.27.21.41.55l3.54 10.81q.26.77.47 1.79.17-.99.37-1.79l3.07-10.81q.08-.32.38-.54.31-.22.73-.22m17.28 13.81q.28 0 .49.21l1.32 1.44q-1.1 1.36-2.7 2.08-1.61.73-3.86.73-2.01 0-3.62-.69t-2.74-1.91q-1.14-1.23-1.75-2.93-.6-1.7-.6-3.71 0-2.04.65-3.73t1.83-2.92q1.18-1.22 2.82-1.9 1.63-.69 3.62-.69 1.98 0 3.51.65t2.61 1.7l-1.13 1.57q-.1.15-.26.26-.15.11-.43.11-.18 0-.38-.1-.2-.11-.44-.27-.24-.15-.55-.34t-.73-.34q-.41-.16-.95-.27-.55-.1-1.26-.1-1.21 0-2.22.43t-1.73 1.25q-.73.82-1.12 2-.41 1.18-.41 2.69 0 1.53.44 2.71.43 1.19 1.17 2 .73.82 1.73 1.25t2.15.43q.69 0 1.25-.08.55-.07 1.02-.23.47-.17.89-.42.42-.26.83-.63.13-.12.26-.18.14-.07.29-.07"/></svg>