<svg xmlns="http://www.w3.org/2000/svg" width="100" height="100" viewBox="0 0 100 100"><rect width="100%" height="100%" fill="#dc2626"/><path fill="#ffffff" d="M38.105 40.835h-11.55v7.22h9.1v3.73h-9.1v7.36h11.55v3.87h-16.41v-26.03h16.41zm20.7 0h-11.55v7.71h9.75v3.87h-9.75v10.6h-4.86v-26.03h16.41zm19.03-1.4-1.21 2.29q-.21.37-.46.54-.24.18-.6.18-.38 0-.82-.28t-1.05-.62q-.61-.35-1.43-.63-.82-.27-1.94-.27-1 0-1.76.24t-1.27.67q-.51.44-.77 1.04-.25.6-.25 1.32 0 .92.52 1.53.51.61 1.36 1.05.84.43 1.92.77t2.22.73q1.13.39 2.21.9t1.93 1.29q.84.79 1.35 1.92.52 1.14.52 2.76 0 1.76-.61 3.3-.6 1.54-1.76 2.68t-2.83 1.8q-1.68.66-3.84.66-1.24 0-2.45-.24-1.2-.25-2.31-.7t-2.08-1.08-1.73-1.4l1.42-2.32q.18-.26.47-.43t.61-.17q.46 0 .98.37t1.24.82 1.68.82q.97.37 2.31.37 2.07 0 3.21-.98 1.13-.98 1.13-2.82 0-1.03-.51-1.67-.51-.65-1.36-1.09-.84-.44-1.92-.75-1.09-.31-2.2-.67-1.12-.36-2.2-.86t-1.92-1.31q-.85-.81-1.36-2.03-.52-1.21-.52-3 0-1.42.57-2.77t1.65-2.39q1.08-1.05 2.66-1.68 1.59-.63 3.64-.63 2.3 0 4.25.72 1.94.72 3.31 2.02"/></svg>