<svg xmlns="http://www.w3.org/2000/svg" width="100" height="100" viewBox="0 0 100 100"><rect width="100%" height="100%" fill="#dc2626"/><path fill="#ffffff" d="M36.725 41.6h-10.59v7.06h8.94v3.55h-8.94v9.72h-4.46V38.07h15.05zm8.64 11.32h7.59l-2.9-7.94q-.21-.52-.44-1.25-.24-.73-.47-1.57-.21.84-.44 1.58-.23.73-.45 1.28zm6.06-14.85 9.37 23.86h-3.43q-.58 0-.94-.29t-.54-.72l-1.79-4.86h-9.88l-1.78 4.86q-.13.38-.51.7-.38.31-.94.31h-3.47l9.39-23.86zm26.9 3.53h-10.6v6.62h8.35v3.41h-8.35v6.75h10.6v3.55h-15.05V38.07h15.05z"/></svg>