<svg xmlns="http://www.w3.org/2000/svg" width="100" height="100" viewBox="0 0 100 100"><rect width="100%" height="100%" fill="#dc2626"/><path fill="#ffffff" d="M33.995 42.625h-9.31v6.2h7.86v3.12h-7.86v8.54h-3.92v-20.97h13.23zm23.18 7.38q0 2.3-.76 4.27-.76 1.96-2.15 3.4-1.39 1.43-3.35 2.24-1.96.8-4.35.8-2.38 0-4.34-.8-1.95-.81-3.35-2.24-1.4-1.44-2.17-3.4-.77-1.97-.77-4.27 0-2.31.77-4.27.77-1.97 2.17-3.4 1.4-1.44 3.35-2.24 1.96-.81 4.34-.81 1.59 0 3 .37t2.58 1.04q1.18.68 2.11 1.64.94.97 1.59 2.16t.99 2.58.34 2.93m-3.98 0q0-1.73-.47-3.1-.46-1.37-1.32-2.33-.85-.95-2.08-1.46-1.22-.51-2.76-.51t-2.76.51q-1.23.51-2.09 1.46-.86.96-1.33 2.33-.46 1.37-.46 3.1 0 1.72.46 3.09.47 1.37 1.33 2.32t2.09 1.46q1.22.51 2.76.51t2.76-.51q1.23-.51 2.08-1.46.86-.95 1.32-2.32.47-1.37.47-3.09m26.04 0q0 2.3-.77 4.23t-2.16 3.32-3.35 2.16-4.35.77h-7.99v-20.97h7.99q2.39 0 4.35.78 1.96.77 3.35 2.16 1.39 1.38 2.16 3.31t.77 4.24m-4 0q0-1.73-.46-3.1t-1.32-2.32-2.09-1.46q-1.22-.5-2.76-.5h-4.07v14.76h4.07q1.54 0 2.76-.51 1.23-.51 2.09-1.46t1.32-2.32.46-3.09"/></svg>