<svg xmlns="http://www.w3.org/2000/svg" width="100" height="100" viewBox="0 0 100 100"><rect width="100%" height="100%" fill="#dc2626"/><path fill="#ffffff" d="M36.405 41.855h-10.28v6.85h8.68v3.44h-8.68v9.42h-4.32v-23.14h14.6zm19.68-3.43v3.54h-6.98v19.6h-4.3v-19.6h-6.98v-3.54zm14.43 11.54h7.68v9.36q-1.76 1.3-3.75 1.9-2 .6-4.27.6-2.83 0-5.13-.88-2.29-.88-3.92-2.45-1.62-1.57-2.5-3.75-.88-2.17-.88-4.75 0-2.61.85-4.78.85-2.18 2.41-3.75 1.56-1.56 3.78-2.43 2.22-.86 4.99-.86 1.41 0 2.63.22 1.23.23 2.28.62 1.04.39 1.91.95.86.56 1.58 1.23l-1.23 1.95q-.29.47-.75.57-.47.11-1.01-.23-.53-.3-1.06-.61-.52-.3-1.17-.53-.65-.22-1.46-.36-.81-.15-1.86-.15-1.71 0-3.1.58-1.38.57-2.36 1.65-.97 1.07-1.5 2.57-.53 1.51-.53 3.36 0 1.99.57 3.55t1.6 2.64 2.49 1.64q1.45.57 3.24.57 1.28 0 2.29-.27t1.97-.74v-4.19h-2.91q-.42 0-.65-.23t-.23-.57z"/></svg>