<svg xmlns="http://www.w3.org/2000/svg" width="100" height="100" viewBox="0 0 100 100"><rect width="100%" height="100%" fill="#dc2626"/><path fill="#ffffff" d="M37.43 49.96h9.84v11.99q-2.25 1.66-4.8 2.43-2.56.77-5.47.77-3.63 0-6.57-1.13t-5.02-3.14-3.21-4.79Q21.07 53.3 21.07 50q0-3.34 1.09-6.13t3.09-4.8q1.99-2.01 4.84-3.11 2.85-1.11 6.4-1.11 1.8 0 3.37.29 1.57.28 2.91.79 1.35.5 2.45 1.21 1.11.72 2.03 1.58l-1.58 2.5q-.36.6-.96.73-.59.14-1.29-.3-.68-.38-1.35-.77-.68-.39-1.51-.68t-1.87-.47q-1.03-.19-2.38-.19-2.2 0-3.97.74t-3.02 2.11q-1.26 1.38-1.93 3.3-.68 1.93-.68 4.31 0 2.54.73 4.54t2.05 3.38q1.32 1.39 3.19 2.11 1.86.73 4.16.73 1.64 0 2.93-.35t2.52-.94V54.1h-3.73q-.53 0-.83-.3t-.3-.73zm41.5.04q0 3.26-1.09 5.98-1.09 2.73-3.06 4.7-1.96 1.97-4.73 3.05-2.77 1.09-6.15 1.09H52.6V35.18h11.3q3.38 0 6.15 1.09 2.77 1.1 4.73 3.06 1.97 1.96 3.06 4.68 1.09 2.73 1.09 5.99m-5.66 0q0-2.44-.65-4.38-.64-1.94-1.86-3.28t-2.96-2.06q-1.73-.72-3.9-.72h-5.76v20.87h5.76q2.17 0 3.9-.71 1.74-.72 2.96-2.06 1.22-1.35 1.86-3.28.65-1.94.65-4.38"/></svg>