<svg xmlns="http://www.w3.org/2000/svg" width="100" height="100" viewBox="0 0 100 100"><rect width="100%" height="100%" fill="#dc2626"/><path fill="#ffffff" d="M31.125 49.975h6.72v8.19q-1.54 1.13-3.28 1.66-1.74.52-3.73.52-2.48 0-4.49-.77-2-.77-3.43-2.14-1.42-1.37-2.19-3.27-.77-1.91-.77-4.16 0-2.28.74-4.19.75-1.9 2.11-3.27 1.37-1.38 3.31-2.13 1.95-.76 4.37-.76 1.23 0 2.3.2 1.07.19 1.99.54.92.34 1.67.83.76.49 1.39 1.08l-1.08 1.71q-.25.4-.66.49-.4.09-.88-.2-.46-.27-.92-.53-.46-.27-1.03-.46-.57-.2-1.27-.33-.71-.12-1.64-.12-1.49 0-2.7.5-1.22.51-2.07 1.44-.85.94-1.32 2.26-.46 1.31-.46 2.94 0 1.73.5 3.1.5 1.36 1.4 2.31.9.94 2.18 1.44 1.27.5 2.84.5 1.12 0 2-.24t1.72-.64v-3.67h-2.55q-.36 0-.56-.21-.21-.2-.21-.49zm29.67.03q0 2.22-.73 4.12-.74 1.9-2.08 3.28-1.35 1.39-3.24 2.17-1.89.77-4.2.77-2.29 0-4.18-.77-1.89-.78-3.24-2.17-1.36-1.38-2.1-3.28t-.74-4.12q0-2.23.74-4.13.74-1.89 2.1-3.28 1.35-1.38 3.24-2.16t4.18-.78q1.54 0 2.9.36t2.49 1.01q1.14.65 2.04 1.58t1.53 2.08.96 2.49.33 2.83m-3.85 0q0-1.67-.45-2.99t-1.27-2.25q-.83-.92-2.01-1.41t-2.67-.49q-1.48 0-2.66.49-1.19.49-2.02 1.41-.83.93-1.28 2.25t-.45 2.99q0 1.66.45 2.99.45 1.32 1.28 2.24.83.91 2.02 1.4 1.18.49 2.66.49 1.49 0 2.67-.49t2.01-1.4q.82-.92 1.27-2.24.45-1.33.45-2.99m21.07 5.35q.31 0 .55.23l1.48 1.61q-1.23 1.53-3.03 2.34t-4.32.81q-2.25 0-4.05-.77t-3.08-2.14q-1.27-1.37-1.95-3.27-.68-1.91-.68-4.16 0-2.28.73-4.18t2.05-3.27 3.16-2.14q1.83-.76 4.06-.76 2.21 0 3.93.73 1.71.73 2.91 1.9l-1.26 1.75q-.11.17-.28.3-.18.12-.49.12-.21 0-.43-.12-.22-.11-.49-.29-.27-.17-.62-.38t-.81-.39q-.46-.17-1.07-.29t-1.41-.12q-1.35 0-2.48.48t-1.94 1.4-1.26 2.24-.45 3.02q0 1.71.49 3.04.48 1.33 1.3 2.24.83.91 1.95 1.39t2.41.48q.77 0 1.39-.08.62-.09 1.15-.27.52-.18.99-.47.47-.28.93-.7.14-.13.3-.21.15-.07.32-.07"/></svg>