<svg xmlns="http://www.w3.org/2000/svg" width="100" height="100" viewBox="0 0 100 100"><rect width="100%" height="100%" fill="#dc2626"/><path fill="#ffffff" d="M30.065 42.41h2.83v15.18h-2.83v-6.64h-7.13v6.64h-2.83V42.41h2.83v6.53h7.13zm16.18 0h2.84v15.18h-2.84v-6.64h-7.13v6.64h-2.83V42.41h2.83v6.53h7.13zm16.53 0h2.49v15.18h-1.45q-.34 0-.56-.11-.23-.11-.44-.37l-7.93-10.13q.07.7.07 1.29v9.32h-2.49V42.41h1.48q.18 0 .31.01.13.02.23.07.1.04.19.13.1.09.21.24l7.96 10.16q-.03-.37-.05-.72-.02-.36-.02-.66zm8.69 12.97h2.86q.79 0 1.32-.18.54-.19.86-.51.32-.31.46-.73t.14-.9q0-.49-.16-.88-.15-.4-.49-.67-.34-.28-.87-.43t-1.27-.15h-2.85zm2.41-10.79h-2.41v4.39h2.25q1.45 0 2.19-.52.74-.53.74-1.67 0-1.19-.67-1.7-.68-.5-2.1-.5m-5.23-2.18h5.23q1.49 0 2.55.28t1.74.81q.67.52.99 1.27.31.74.31 1.68 0 .53-.15 1.02-.16.49-.49.92-.33.42-.84.77-.51.34-1.22.59 3.13.7 3.13 3.38 0 .96-.36 1.78-.37.82-1.08 1.41-.7.6-1.73.93-1.03.34-2.35.34h-5.73z"/></svg>