<svg xmlns="http://www.w3.org/2000/svg" width="100" height="100" viewBox="0 0 100 100"><rect width="100%" height="100%" fill="#dc2626"/><path fill="#ffffff" d="M34.93 40.24h3.64v19.52h-3.64v-8.53h-9.17v8.53h-3.64V40.24h3.64v8.4h9.17zm11.62 0v8.18h.85q.51 0 .85-.14t.58-.45l5.39-6.82q.34-.43.71-.6t.94-.17H59l-6.58 8.11q-.58.75-1.2 1.06.45.16.81.45.35.29.68.76l6.77 9.14h-3.2q-.64 0-.96-.18t-.53-.54l-5.53-7.2q-.25-.37-.59-.52t-.97-.15h-1.15v8.59h-3.63V40.24zm28.13 0h3.2v19.52h-1.86q-.43 0-.72-.14t-.56-.48L64.55 46.13q.08.89.08 1.64v11.99h-3.2V40.24h1.9q.23 0 .4.02t.3.08q.12.06.25.18.12.11.27.3l10.23 13.07q-.04-.47-.07-.93t-.03-.85z"/></svg>