<svg xmlns="http://www.w3.org/2000/svg" width="100" height="100" viewBox="0 0 100 100"><rect width="100%" height="100%" fill="#dc2626"/><path fill="#ffffff" d="M34.615 39.515h3.92v20.97h-3.92v-9.16h-9.84v9.16h-3.92v-20.97h3.92v9.02h9.84zm28.58 10.49q0 2.3-.76 4.27-.76 1.96-2.15 3.4-1.39 1.43-3.35 2.24-1.96.8-4.35.8-2.38 0-4.34-.8-1.95-.81-3.35-2.24-1.4-1.44-2.17-3.4-.77-1.97-.77-4.27 0-2.31.77-4.27.77-1.97 2.17-3.4 1.4-1.44 3.35-2.24 1.96-.81 4.34-.81 1.59 0 3 .37t2.58 1.04q1.18.68 2.11 1.64.94.97 1.59 2.16t.99 2.58.34 2.93m-3.98 0q0-1.73-.47-3.1-.46-1.37-1.32-2.33-.85-.95-2.08-1.46-1.22-.51-2.76-.51t-2.76.51q-1.23.51-2.09 1.46-.86.96-1.33 2.33-.46 1.37-.46 3.1 0 1.72.46 3.09.47 1.37 1.33 2.32t2.09 1.46q1.22.51 2.76.51t2.76-.51q1.23-.51 2.08-1.46.86-.95 1.32-2.32.47-1.37.47-3.09m19.56-8.52-.98 1.85q-.17.3-.37.44-.19.14-.48.14-.31 0-.66-.23-.36-.22-.85-.5-.49-.27-1.15-.5-.66-.22-1.56-.22-.81 0-1.42.19-.61.2-1.02.55-.42.34-.62.83t-.2 1.07q0 .73.41 1.23.41.49 1.1.84.68.35 1.55.62.87.28 1.78.59t1.78.72q.87.42 1.56 1.05.68.63 1.09 1.54.41.92.41 2.22 0 1.42-.48 2.66-.49 1.24-1.42 2.16-.94.92-2.29 1.45t-3.09.53q-1 0-1.97-.19-.97-.2-1.86-.56t-1.68-.87q-.78-.51-1.39-1.13l1.15-1.87q.14-.21.37-.34.24-.14.5-.14.36 0 .78.3.42.29 1 .65.58.37 1.36.66.77.3 1.86.3 1.67 0 2.58-.79t.91-2.27q0-.82-.41-1.35-.41-.52-1.09-.87-.68-.36-1.55-.61-.87-.24-1.77-.53t-1.77-.7q-.87-.4-1.55-1.06-.69-.65-1.1-1.63t-.41-2.41q0-1.15.45-2.23.46-1.09 1.33-1.93t2.15-1.35q1.27-.51 2.93-.51 1.85 0 3.42.58 1.56.58 2.67 1.62"/></svg>