<svg xmlns="http://www.w3.org/2000/svg" width="100" height="100" viewBox="0 0 100 100"><rect width="100%" height="100%" fill="#dc2626"/><path fill="#ffffff" d="M27.825 33.735v13.63h1.42q.85 0 1.41-.24.57-.23.97-.75l8.98-11.36q.56-.72 1.18-1t1.56-.28h5.22l-10.95 13.52q-.97 1.24-2.01 1.75.75.27 1.34.76.6.48 1.14 1.27l11.29 15.23h-5.33q-1.08 0-1.61-.3-.53-.31-.89-.89l-9.2-12.02q-.43-.6-.99-.85t-1.62-.25h-1.91v14.31h-6.05v-32.53zm47.14 24.86q.49 0 .87.38l2.39 2.59q-1.98 2.45-4.87 3.76-2.89 1.3-6.94 1.3-3.63 0-6.52-1.24-2.89-1.23-4.94-3.44-2.04-2.2-3.14-5.26-1.09-3.06-1.09-6.69 0-3.66 1.17-6.71t3.3-5.26q2.13-2.2 5.07-3.43 2.95-1.22 6.53-1.22 3.55 0 6.31 1.17t4.69 3.06l-2.02 2.81q-.18.27-.47.47-.28.2-.77.2-.34 0-.7-.19t-.79-.47q-.42-.28-.99-.62-.56-.34-1.3-.62t-1.72-.47-2.26-.19q-2.19 0-4 .77-1.81.78-3.11 2.25-1.31 1.48-2.03 3.6-.72 2.13-.72 4.85 0 2.75.78 4.89.77 2.13 2.1 3.59 1.33 1.47 3.13 2.24 1.8.78 3.87.78 1.24 0 2.24-.14 1-.13 1.84-.42.85-.3 1.6-.76t1.5-1.13q.22-.2.47-.33.25-.12.52-.12"/></svg>