<svg xmlns="http://www.w3.org/2000/svg" width="100" height="100" viewBox="0 0 100 100"><rect width="100%" height="100%" fill="#dc2626"/><path fill="#ffffff" d="M46.31 36.625h3.76v26.75h-4.39v-17.28q0-1.03.11-2.24l-8.08 15.19q-.58 1.09-1.76 1.09h-.7q-1.19 0-1.76-1.09l-8.18-15.24q.06.61.1 1.2.03.59.03 1.09v17.28h-4.38v-26.75h3.75q.34 0 .58.02t.43.09q.2.07.35.24.16.17.31.44l8.01 14.86q.31.59.58 1.22t.53 1.3q.26-.69.54-1.33.27-.63.59-1.23l7.9-14.82q.14-.27.31-.44t.36-.24q.2-.07.44-.09t.57-.02m15.34 16.65h8.51l-3.26-8.9q-.24-.59-.5-1.41-.26-.81-.52-1.75-.24.94-.5 1.76-.26.83-.5 1.44zm6.79-16.65 10.5 26.75H75.1q-.65 0-1.06-.32-.41-.33-.61-.81l-2-5.46H60.35l-2 5.46q-.14.43-.57.78t-1.05.35h-3.89l10.53-26.75z"/></svg>