<svg xmlns="http://www.w3.org/2000/svg" width="100" height="100" viewBox="0 0 100 100"><rect width="100%" height="100%" fill="#dc2626"/><path fill="#ffffff" d="M38.61 40.6h2.63v18.8h-3.08V47.26q0-.73.08-1.58l-5.68 10.68q-.4.76-1.23.76h-.5q-.83 0-1.23-.76l-5.75-10.71q.04.42.07.84.02.42.02.77V59.4h-3.08V40.6h2.64q.23 0 .4.01.17.02.31.07.13.05.25.17.11.12.21.31L30.3 51.6q.22.42.41.86t.37.91q.18-.48.38-.93.19-.45.41-.87l5.55-10.41q.11-.19.22-.31.12-.12.26-.17.13-.05.3-.07.17-.01.41-.01M62.12 50q0 2.07-.69 3.8-.68 1.73-1.93 2.97-1.25 1.25-3.01 1.94-1.75.69-3.9.69h-7.16V40.6h7.16q2.15 0 3.9.7 1.76.69 3.01 1.93 1.25 1.25 1.93 2.97.69 1.73.69 3.8m-3.58 0q0-1.55-.41-2.77-.41-1.23-1.19-2.08-.77-.86-1.87-1.31-1.1-.46-2.48-.46h-3.65v13.24h3.65q1.38 0 2.48-.46 1.1-.45 1.87-1.3.78-.86 1.19-2.08.41-1.23.41-2.78m10.16 6.67h3.54q.97 0 1.64-.23.66-.24 1.05-.63.4-.39.58-.91.17-.52.17-1.1 0-.61-.19-1.1-.2-.49-.61-.83-.42-.35-1.08-.53-.65-.18-1.58-.18H68.7zm2.98-13.36H68.7v5.43h2.78q1.8 0 2.71-.65.92-.65.92-2.07 0-1.47-.83-2.09t-2.6-.62M65.2 40.6h6.48q1.84 0 3.16.35 1.31.35 2.15 1t1.23 1.58q.39.92.39 2.08 0 .66-.2 1.26-.19.61-.6 1.14-.41.52-1.04.95t-1.5.73q3.87.87 3.87 4.18 0 1.2-.45 2.21-.46 1.02-1.33 1.75-.87.74-2.15 1.15-1.27.42-2.91.42h-7.1z"/></svg>