<svg xmlns="http://www.w3.org/2000/svg" width="100" height="100" viewBox="0 0 100 100"><rect width="100%" height="100%" fill="#dc2626"/><path fill="#ffffff" d="M33.33 42.77h2.03v14.46h-2.37v-9.34q0-.56.06-1.21l-4.37 8.21q-.31.59-.95.59h-.38q-.64 0-.95-.59l-4.42-8.24q.03.33.05.65t.02.59v9.34h-2.37V42.77h2.03q.18 0 .31.01t.24.05q.1.04.19.13.08.09.16.24l4.33 8.03q.17.32.32.66.14.34.28.7.14-.37.29-.72.15-.34.32-.66l4.27-8.01q.08-.15.17-.24t.2-.13q.1-.04.23-.05t.31-.01m18.9 0h2.03v14.46h-2.37v-9.34q0-.56.06-1.21l-4.37 8.21q-.3.59-.95.59h-.38q-.64 0-.95-.59l-4.42-8.24.06.65q.01.32.01.59v9.34h-2.37V42.77h2.03q.18 0 .31.01t.24.05q.1.04.19.13t.16.24l4.34 8.03q.17.32.31.66l.29.7q.13-.37.28-.72.15-.34.32-.66l4.27-8.01q.08-.15.17-.24t.2-.13q.1-.04.24-.05.12-.01.3-.01m7.95 0v6.06h.63q.38 0 .63-.11.25-.1.43-.33l3.99-5.05q.25-.32.52-.45.27-.12.7-.12h2.32l-4.87 6.01q-.43.55-.89.78.33.12.59.34.27.21.51.56l5.02 6.77h-2.37q-.49 0-.72-.14-.23-.13-.39-.39l-4.09-5.34q-.19-.27-.44-.38t-.72-.11h-.85v6.36h-2.69V42.77zm20.14 2.14H73.9v4.28h5.42v2.15H73.9v5.89h-2.7V42.77h9.12z"/></svg>