<svg xmlns="http://www.w3.org/2000/svg" width="100" height="100" viewBox="0 0 100 100"><rect width="100%" height="100%" fill="#dc2626"/><path fill="#ffffff" d="M48.13 35.9h3.96v28.2h-4.62V45.89q0-1.09.11-2.36l-8.52 16.01q-.6 1.15-1.85 1.15h-.74q-1.25 0-1.85-1.15L26 43.47q.06.64.09 1.27.04.62.04 1.15V64.1h-4.62V35.9h3.96q.35 0 .6.02.26.02.46.1.21.08.37.25.17.18.33.47l8.44 15.66q.33.62.61 1.29.29.66.56 1.36.27-.72.56-1.39.3-.68.63-1.3l8.32-15.62q.16-.29.34-.47.17-.17.38-.25.2-.08.45-.1.26-.02.61-.02m15.48 14.18h3.92q1.44 0 2.52-.36 1.07-.36 1.78-1.03.71-.68 1.06-1.64.36-.97.36-2.16 0-1.13-.36-2.04-.35-.92-1.05-1.57-.7-.64-1.77-.98-1.08-.34-2.54-.34h-3.92zM58.37 35.9h9.16q2.83 0 4.9.67 2.06.66 3.41 1.85 1.34 1.19 2 2.85.65 1.65.65 3.62 0 2.05-.68 3.76-.68 1.7-2.05 2.93-1.36 1.23-3.42 1.91t-4.81.68h-3.92v9.93h-5.24z"/></svg>