<svg xmlns="http://www.w3.org/2000/svg" width="100" height="100" viewBox="0 0 100 100"><rect width="100%" height="100%" fill="#dc2626"/><path fill="#ffffff" d="M37.25 41.325h2.43v17.35h-2.84v-11.21q0-.67.07-1.45l-5.24 9.85q-.37.71-1.14.71h-.46q-.77 0-1.14-.71l-5.3-9.89.06.78q.02.39.02.71v11.21h-2.84v-17.35h2.43q.22 0 .38.01.15.01.28.06.12.05.23.16.1.1.19.28l5.2 9.64q.2.38.38.79.17.41.34.84.17-.44.35-.86.18-.41.38-.79l5.13-9.62q.09-.18.2-.28.11-.11.23-.16.13-.05.29-.06.15-.01.37-.01m26.85 0h2.54l-5.39 17.35h-2.92l-3.79-11.86q-.16-.43-.29-1.05-.07.3-.14.56-.07.27-.16.49l-3.83 11.86H47.2l-5.38-17.35h2.7q.42 0 .7.2.28.19.38.53l2.95 10.38q.1.38.19.83t.18.95q.1-.51.21-.95.12-.45.25-.83l3.41-10.38q.09-.28.38-.5.28-.23.69-.23h.94q.42 0 .69.2.26.21.39.53l3.4 10.38q.25.74.46 1.72.15-.95.34-1.72l2.96-10.38q.07-.3.36-.52.3-.21.7-.21m14.72 1.63-.81 1.52q-.14.26-.3.37-.17.11-.41.11-.25 0-.54-.18-.3-.19-.7-.42-.41-.22-.96-.41-.54-.19-1.29-.19-.67 0-1.17.17-.51.16-.85.45-.34.28-.51.69-.17.4-.17.88 0 .61.34 1.02.35.41.91.69.56.29 1.28.52t1.48.49q.76.25 1.48.6.72.34 1.28.86t.91 1.28q.34.75.34 1.83 0 1.18-.4 2.21-.41 1.02-1.18 1.78-.77.77-1.89 1.2-1.12.44-2.56.44-.82 0-1.63-.16-.8-.16-1.54-.46t-1.39-.72q-.64-.42-1.15-.94l.95-1.55q.12-.16.31-.28.19-.11.41-.11.3 0 .65.24.35.25.83.55t1.12.55q.64.24 1.54.24 1.38 0 2.14-.65.75-.66.75-1.88 0-.68-.34-1.12-.34-.43-.91-.72-.56-.3-1.28-.5t-1.46-.44q-.75-.24-1.47-.58t-1.28-.88q-.57-.54-.91-1.35t-.34-1.99q0-.95.38-1.85t1.1-1.6q.72-.69 1.77-1.11 1.06-.42 2.43-.42 1.53 0 2.83.48 1.29.48 2.21 1.34"/></svg>