<svg xmlns="http://www.w3.org/2000/svg" width="100" height="100" viewBox="0 0 100 100"><rect width="100%" height="100%" fill="#dc2626"/><path fill="#ffffff" d="M22.875 50.04h2.21q.82 0 1.42-.2.61-.21 1.01-.59.4-.37.6-.92.2-.54.2-1.21 0-.64-.2-1.16t-.6-.88q-.39-.36-1-.56-.6-.19-1.43-.19h-2.21zm-2.96-8h5.17q1.6 0 2.76.38 1.17.37 1.93 1.04t1.13 1.61q.37.93.37 2.05 0 1.15-.39 2.11-.38.97-1.15 1.66t-1.93 1.08q-1.17.38-2.72.38h-2.21v5.6h-2.96zM48.705 50q0 1.75-.58 3.24-.57 1.49-1.63 2.58t-2.54 1.7q-1.49.61-3.3.61t-3.29-.61q-1.49-.61-2.55-1.7t-1.64-2.58-.58-3.24.58-3.24 1.64-2.58 2.55-1.7q1.48-.61 3.29-.61 1.21 0 2.28.28 1.06.28 1.95.79t1.6 1.24q.71.74 1.21 1.64.49.9.75 1.96.26 1.05.26 2.22m-3.02 0q0-1.31-.36-2.35-.35-1.04-1-1.77-.65-.72-1.58-1.11-.93-.38-2.09-.38-1.17 0-2.1.38-.93.39-1.58 1.11-.66.73-1.01 1.77t-.35 2.35.35 2.35 1.01 1.76q.65.72 1.58 1.1.93.39 2.1.39 1.16 0 2.09-.39.93-.38 1.58-1.1t1-1.76q.36-1.04.36-2.35m8.97 1.94h5.06l-1.93-5.29q-.15-.35-.3-.83-.16-.49-.31-1.05-.14.56-.3 1.05-.15.49-.29.86zm4.04-9.9 6.25 15.91h-2.29q-.39 0-.63-.19t-.36-.48l-1.19-3.25h-6.59l-1.19 3.25q-.08.25-.34.46-.25.21-.62.21h-2.31l6.25-15.91zm10.86 0v6.67h.69q.42 0 .69-.12.28-.11.47-.36l4.39-5.56q.28-.35.58-.49t.77-.14h2.55l-5.36 6.62q-.47.6-.98.85.36.14.66.37.29.24.55.62l5.52 7.45h-2.6q-.53 0-.79-.15t-.43-.43l-4.5-5.88q-.21-.29-.49-.42-.27-.12-.79-.12h-.93v7h-2.96V42.04z"/></svg>