<svg xmlns="http://www.w3.org/2000/svg" width="100" height="100" viewBox="0 0 100 100"><rect width="100%" height="100%" fill="#dc2626"/><path fill="#ffffff" d="M24.225 50.055h2.92q1.07 0 1.87-.26.8-.27 1.33-.77.52-.5.79-1.22.26-.72.26-1.6 0-.84-.26-1.53-.27-.68-.79-1.15-.52-.48-1.32-.74-.79-.25-1.88-.25h-2.92zm-3.9-10.54h6.82q2.1 0 3.64.5 1.53.49 2.53 1.37 1.01.89 1.49 2.12.49 1.23.49 2.7 0 1.52-.51 2.79t-1.52 2.18q-1.02.91-2.55 1.42t-3.57.51h-2.92v7.38h-3.9zm37.95 10.49q0 2.3-.76 4.27-.76 1.96-2.16 3.4-1.39 1.43-3.34 2.24-1.96.8-4.35.8-2.38 0-4.34-.8-1.96-.81-3.36-2.24-1.4-1.44-2.16-3.4-.77-1.97-.77-4.27 0-2.31.77-4.27.76-1.97 2.16-3.4 1.4-1.44 3.36-2.24 1.96-.81 4.34-.81 1.59 0 3 .37 1.4.37 2.58 1.04 1.17.68 2.11 1.64.93.97 1.59 2.16.65 1.19.99 2.58t.34 2.93m-3.99 0q0-1.73-.46-3.1-.47-1.37-1.32-2.33-.86-.95-2.08-1.46-1.23-.51-2.76-.51-1.54 0-2.77.51-1.22.51-2.08 1.46-.87.96-1.33 2.33-.47 1.37-.47 3.1 0 1.72.47 3.09.46 1.37 1.33 2.32.86.95 2.08 1.46 1.23.51 2.77.51 1.53 0 2.76-.51 1.22-.51 2.08-1.46.85-.95 1.32-2.32.46-1.37.46-3.09m22.24-10.49h3.15l-8.47 20.97h-3.52l-8.47-20.97h3.13q.51 0 .83.25t.48.64l4.94 12.79q.25.62.47 1.37.23.74.43 1.56.18-.82.38-1.56.2-.75.45-1.37l4.91-12.79q.12-.34.46-.61.34-.28.83-.28"/></svg>