<svg xmlns="http://www.w3.org/2000/svg" width="100" height="100" viewBox="0 0 100 100"><rect width="100%" height="100%" fill="#dc2626"/><path fill="#ffffff" d="M24.69 49.475h2.52q1.14 0 1.99-.28.85-.29 1.4-.79.54-.51.82-1.19.26-.69.26-1.52 0-1.65-1.08-2.53-1.09-.89-3.32-.89h-2.59zm7.48 3.36 5.42 8.01h-3.64q-1.03 0-1.5-.81l-4.56-6.94q-.26-.39-.56-.56-.31-.16-.91-.16h-1.73v8.47h-4.03v-21.69h6.62q2.2 0 3.78.46t2.6 1.28q1.01.82 1.49 1.97t.48 2.53q0 1.1-.32 2.07-.33.98-.93 1.77-.61.8-1.5 1.4-.89.59-2.03.94.39.23.71.53.33.31.61.73m28.46-2.83q0 2.38-.78 4.41-.79 2.04-2.23 3.52t-3.47 2.32q-2.02.83-4.5.83-2.46 0-4.48-.83-2.03-.84-3.47-2.32-1.45-1.48-2.25-3.52-.79-2.03-.79-4.41 0-2.39.79-4.42.8-2.03 2.25-3.52 1.44-1.49 3.47-2.32 2.02-.83 4.48-.83 1.65 0 3.11.38 1.45.39 2.67 1.08 1.21.7 2.18 1.7t1.64 2.23q.68 1.23 1.03 2.66.35 1.45.35 3.04m-4.12 0q0-1.79-.48-3.21-.48-1.41-1.37-2.4-.88-1-2.15-1.52-1.27-.53-2.86-.53t-2.85.53q-1.27.52-2.16 1.52-.9.99-1.38 2.4-.48 1.42-.48 3.21 0 1.78.48 3.2t1.38 2.4q.89.98 2.16 1.51 1.26.52 2.85.52t2.86-.52q1.27-.53 2.15-1.51.89-.98 1.37-2.4t.48-3.2m22.83-10.85v3.31H72.8v18.38h-4.04v-18.38h-6.54v-3.31z"/></svg>