<svg xmlns="http://www.w3.org/2000/svg" width="100" height="100" viewBox="0 0 100 100"><rect width="100%" height="100%" fill="#dc2626"/><path fill="#ffffff" d="M24.16 49.565h2.1q.95 0 1.66-.24t1.16-.66q.46-.42.68-.99.23-.58.23-1.27 0-1.37-.91-2.11-.9-.74-2.77-.74h-2.15zm6.23 2.79 4.52 6.68h-3.03q-.87 0-1.25-.68l-3.8-5.78q-.22-.33-.47-.47-.26-.13-.76-.13h-1.44v7.06H20.8v-18.07h5.51q1.84 0 3.16.38t2.16 1.06q.85.69 1.25 1.65.4.95.4 2.1 0 .92-.27 1.73t-.78 1.47q-.5.67-1.25 1.17-.74.5-1.69.78.32.19.6.45.27.25.5.6m27.9-11.39h2.64l-5.62 18.07h-3.03l-3.95-12.35q-.17-.45-.3-1.1-.08.31-.15.59-.08.27-.17.51l-3.98 12.35h-3.05l-5.6-18.07h2.81q.44 0 .73.2.29.21.39.56l3.08 10.81q.1.4.19.87.1.47.2.98.1-.53.22-.99.11-.46.25-.86l3.55-10.81q.1-.29.4-.53.29-.23.71-.23h.99q.44 0 .71.21.28.21.42.55l3.53 10.81q.27.77.48 1.79.16-.99.36-1.79l3.08-10.81q.07-.32.38-.54.3-.22.73-.22m20.91 9.03q0 1.99-.66 3.65t-1.86 2.86-2.89 1.87q-1.69.66-3.75.66h-6.89v-18.07h6.89q2.06 0 3.75.66 1.69.67 2.89 1.87 1.2 1.19 1.86 2.85t.66 3.65m-3.45 0q0-1.49-.39-2.67-.4-1.18-1.14-2t-1.8-1.25q-1.06-.44-2.38-.44h-3.51v12.72h3.51q1.32 0 2.38-.43 1.06-.44 1.8-1.26t1.14-2q.39-1.18.39-2.67"/></svg>