<svg xmlns="http://www.w3.org/2000/svg" width="100" height="100" viewBox="0 0 100 100"><rect width="100%" height="100%" fill="#dc2626"/><path fill="#ffffff" d="m45.75 35.325-1.67 3.17q-.3.53-.64.77-.34.23-.84.23-.52 0-1.13-.38-.62-.39-1.47-.87-.85-.47-1.98-.86-1.14-.39-2.69-.39-1.4 0-2.45.34t-1.77.94q-.71.6-1.06 1.44-.35.83-.35 1.83 0 1.28.72 2.13.71.85 1.88 1.45 1.18.6 2.68 1.07 1.5.48 3.07 1.02 1.58.53 3.08 1.25 1.5.71 2.67 1.8 1.18 1.08 1.89 2.66.71 1.57.71 3.82 0 2.45-.83 4.59-.84 2.14-2.46 3.73-1.61 1.58-3.93 2.5-2.33.91-5.33.91-1.72 0-3.4-.34-1.67-.34-3.21-.96-1.54-.63-2.89-1.5-1.35-.88-2.4-1.95l1.98-3.23q.25-.35.65-.58.4-.24.85-.24.62 0 1.35.51.72.51 1.72 1.14 1 .62 2.34 1.14 1.34.51 3.21.51 2.88 0 4.45-1.36 1.58-1.37 1.58-3.92 0-1.42-.72-2.32-.71-.9-1.88-1.51-1.18-.62-2.68-1.04-1.5-.43-3.05-.93t-3.05-1.2q-1.5-.69-2.67-1.82-1.18-1.13-1.89-2.81-.71-1.69-.71-4.17 0-1.97.79-3.85.78-1.87 2.28-3.32t3.7-2.33q2.2-.87 5.05-.87 3.2 0 5.9 1t4.6 2.8m13.23 14.77H64q1.85 0 3.23-.46 1.37-.46 2.29-1.32.91-.87 1.36-2.1.45-1.24.45-2.77 0-1.45-.45-2.62-.45-1.18-1.35-2-.9-.83-2.28-1.26-1.37-.44-3.25-.44h-5.02zm-6.73-18.17H64q3.63 0 6.28.85t4.37 2.37q1.73 1.53 2.57 3.65.83 2.13.83 4.65 0 2.63-.87 4.82-.88 2.18-2.63 3.76-1.75 1.57-4.38 2.45-2.64.87-6.17.87h-5.02v12.73h-6.73z"/></svg>