<svg xmlns="http://www.w3.org/2000/svg" width="100" height="100" viewBox="0 0 100 100"><rect width="100%" height="100%" fill="#dc2626"/><path fill="#ffffff" d="M39.64 37.71v3.75h-7.42v20.83h-4.57V41.46h-7.41v-3.75zm10.35 21.57q1.04 0 1.82-.3.78-.29 1.32-.82.53-.53.8-1.26.28-.73.28-1.58 0-2.02-1.13-3.06-1.12-1.04-3.09-1.04t-3.09 1.04q-1.13 1.04-1.13 3.06 0 .85.28 1.58.27.73.8 1.26.54.53 1.32.82.78.3 1.82.3m0-18.68q-.94 0-1.62.29t-1.13.77-.66 1.11-.21 1.33q0 .73.18 1.42t.6 1.22q.43.54 1.12.86.7.32 1.72.32t1.72-.32q.69-.32 1.12-.86.42-.53.6-1.22t.18-1.42q0-.7-.22-1.33t-.66-1.11q-.45-.48-1.13-.77t-1.61-.29m4.15 8.87q2.24.73 3.31 2.24 1.07 1.5 1.07 3.68 0 1.63-.62 2.96-.62 1.32-1.74 2.26-1.12.93-2.69 1.44-1.58.51-3.48.51t-3.48-.51q-1.57-.51-2.69-1.44-1.12-.94-1.74-2.26-.62-1.33-.62-2.96 0-2.18 1.07-3.68 1.07-1.51 3.31-2.24-1.78-.75-2.68-2.12-.89-1.38-.89-3.32 0-1.39.57-2.6t1.59-2.1 2.44-1.39 3.12-.5 3.12.5 2.44 1.39 1.59 2.1.57 2.6q0 1.94-.89 3.32-.9 1.37-2.68 2.12m25.62-11.76v3.75h-7.41v20.83h-4.58V41.46h-7.41v-3.75z"/></svg>