<svg xmlns="http://www.w3.org/2000/svg" width="100" height="100" viewBox="0 0 100 100"><rect width="100%" height="100%" fill="#dc2626"/><path fill="#ffffff" d="M30.46 43.5v1.98h-3.93v11.03h-2.42V45.48h-3.92V43.5zm4.44 8.1h4.14l-1.58-4.33q-.12-.29-.24-.69-.13-.39-.26-.85-.11.46-.24.86-.12.4-.24.69zm3.31-8.1 5.11 13.01h-1.87q-.32 0-.52-.16-.19-.16-.29-.39l-.98-2.65h-5.39l-.97 2.65q-.07.21-.28.38-.2.17-.51.17h-1.89l5.12-13.01zM57.08 50q0 1.43-.47 2.65-.48 1.22-1.34 2.11t-2.08 1.39q-1.21.5-2.7.5-1.47 0-2.69-.5-1.21-.5-2.08-1.39t-1.35-2.11-.48-2.65.48-2.65 1.35-2.11 2.08-1.39q1.22-.5 2.69-.5.99 0 1.86.23.88.23 1.61.65t1.31 1.02q.58.59.98 1.33.41.74.62 1.6.21.87.21 1.82m-2.48 0q0-1.07-.28-1.92-.29-.85-.82-1.44-.53-.6-1.29-.91-.76-.32-1.72-.32-.95 0-1.71.32-.76.31-1.3.91-.53.59-.82 1.44T46.37 50t.29 1.92.82 1.44q.54.59 1.3.91.76.31 1.71.31.96 0 1.72-.31.76-.32 1.29-.91t.82-1.44q.28-.85.28-1.92m12.82-4.58h-5.78v3.61h4.56v1.86h-4.56v3.68h5.78v1.94h-8.21V43.5h8.21zm11.08 8.02q.2 0 .35.15l.96 1.04q-.8.98-1.95 1.5-1.16.52-2.78.52-1.45 0-2.61-.49-1.15-.5-1.97-1.38t-1.26-2.1q-.43-1.23-.43-2.68 0-1.46.46-2.68.47-1.22 1.32-2.11.85-.88 2.03-1.37t2.61-.49q1.42 0 2.53.47 1.1.47 1.87 1.22l-.81 1.13q-.07.11-.18.19t-.31.08q-.14 0-.28-.08-.14-.07-.31-.19-.18-.11-.4-.24-.23-.14-.52-.25-.3-.11-.69-.19t-.91-.08q-.87 0-1.59.31-.73.31-1.25.9t-.81 1.44-.29 1.94q0 1.1.31 1.96.31.85.84 1.44.53.58 1.25.89t1.55.31q.5 0 .9-.05.4-.06.74-.17.33-.12.64-.3.3-.19.59-.46.09-.08.19-.13t.21-.05"/></svg>