<svg xmlns="http://www.w3.org/2000/svg" width="100" height="100" viewBox="0 0 100 100"><rect width="100%" height="100%" fill="#dc2626"/><path fill="#ffffff" d="M37.565 38.795v3.42h-6.76v18.99h-4.17v-18.99h-6.76v-3.42zm7.11 19.16h4.22q1.16 0 1.95-.28t1.27-.75q.47-.46.68-1.08t.21-1.32q0-.73-.24-1.31-.23-.58-.72-.99-.5-.41-1.28-.63-.79-.22-1.89-.22h-4.2zm3.55-15.94h-3.55v6.48h3.32q2.14 0 3.23-.77 1.1-.78 1.1-2.47 0-1.75-1-2.5-.99-.74-3.1-.74m-7.72-3.22h7.72q2.2 0 3.77.42 1.57.41 2.56 1.19 1 .77 1.47 1.87.46 1.11.46 2.48 0 .8-.23 1.52t-.72 1.34q-.49.63-1.24 1.14t-1.79.87q4.62 1.04 4.62 4.99 0 1.43-.54 2.64t-1.58 2.08q-1.04.88-2.56 1.37-1.52.5-3.47.5h-8.47zm25.13 13.95h7.13l-2.73-7.46q-.2-.49-.42-1.18-.21-.68-.43-1.47-.2.79-.42 1.48t-.42 1.2zm5.69-13.95 8.8 22.41h-3.22q-.54 0-.89-.27-.34-.27-.51-.68l-1.67-4.57h-9.29l-1.67 4.57q-.12.36-.48.66-.36.29-.88.29h-3.26l8.82-22.41z"/></svg>