<svg xmlns="http://www.w3.org/2000/svg" width="100" height="100" viewBox="0 0 100 100"><rect width="100%" height="100%" fill="#dc2626"/><path fill="#ffffff" d="M33.695 41.325v2.65h-5.23v14.7h-3.23v-14.7h-5.23v-2.65zm5.51 14.83h3.26q.9 0 1.52-.22.61-.21.97-.57.37-.36.53-.84t.16-1.02q0-.57-.18-1.02t-.56-.76q-.38-.32-.99-.49t-1.46-.17h-3.25zm2.75-12.34h-2.75v5.02h2.57q1.65 0 2.5-.6t.85-1.91q0-1.35-.77-1.93t-2.4-.58m-5.98-2.49h5.98q1.7 0 2.91.32 1.22.33 1.99.93t1.13 1.45.36 1.92q0 .61-.18 1.17t-.55 1.04q-.38.49-.96.88-.59.4-1.39.68 3.58.8 3.58 3.86 0 1.1-.42 2.04t-1.23 1.61q-.8.68-1.98 1.07-1.17.38-2.69.38h-6.55zm26.75 2.57h-7.7v5.13h6.5v2.58h-6.5v7.07h-3.24v-17.35h10.94zm14.03-2.57h3.24v17.35h-3.24v-7.58h-8.15v7.58h-3.24v-17.35h3.24v7.46h8.15z"/></svg>