<svg xmlns="http://www.w3.org/2000/svg" width="100" height="100" viewBox="0 0 100 100"><rect width="100%" height="100%" fill="#dc2626"/><path fill="#ffffff" d="M32.035 42.04v2.44h-4.79v13.47h-2.96V44.48h-4.8v-2.44zm5.05 13.6h3q.82 0 1.38-.2t.9-.53q.33-.33.48-.77t.15-.93q0-.52-.16-.93-.17-.41-.52-.7-.35-.3-.91-.45-.55-.15-1.34-.15h-2.98zm2.52-11.31h-2.52v4.6h2.36q1.52 0 2.29-.55.78-.55.78-1.75 0-1.24-.71-1.77-.7-.53-2.2-.53m-5.48-2.29h5.48q1.56 0 2.68.3 1.11.3 1.82.85t1.04 1.33.33 1.76q0 .56-.17 1.07-.16.51-.51.96-.35.44-.88.81-.53.36-1.27.61 3.28.74 3.28 3.55 0 1.01-.39 1.87-.38.85-1.12 1.47-.74.63-1.82.98-1.07.35-2.46.35h-6.01zM63.785 50q0 1.75-.58 3.24-.57 1.49-1.63 2.58t-2.54 1.7q-1.49.61-3.3.61t-3.29-.61q-1.49-.61-2.55-1.7t-1.64-2.58-.58-3.24.58-3.24 1.64-2.58 2.55-1.7q1.48-.61 3.29-.61 1.21 0 2.28.28 1.06.28 1.95.79t1.6 1.24q.71.74 1.21 1.64.49.9.75 1.96.26 1.05.26 2.22m-3.02 0q0-1.31-.36-2.35-.35-1.04-1-1.77-.65-.72-1.58-1.11-.93-.38-2.09-.38-1.17 0-2.1.38-.93.39-1.58 1.11-.66.73-1.01 1.77t-.35 2.35.35 2.35 1.01 1.76q.65.72 1.58 1.1.93.39 2.1.39 1.16 0 2.09-.39.93-.38 1.58-1.1t1-1.76q.36-1.04.36-2.35m19.75 0q0 1.75-.58 3.21t-1.64 2.52q-1.06 1.05-2.54 1.64-1.49.58-3.3.58h-6.06V42.04h6.06q1.81 0 3.3.59 1.48.59 2.54 1.64t1.64 2.52q.58 1.46.58 3.21m-3.03 0q0-1.31-.35-2.35t-1-1.76q-.66-.72-1.59-1.11-.93-.38-2.09-.38h-3.09v11.2h3.09q1.16 0 2.09-.39.93-.38 1.59-1.1.65-.72 1-1.76t.35-2.35"/></svg>