<svg xmlns="http://www.w3.org/2000/svg" width="100" height="100" viewBox="0 0 100 100"><rect width="100%" height="100%" fill="#dc2626"/><path fill="#ffffff" d="M32.22 42.77v2.21h-4.36v12.25h-2.69V44.98h-4.36v-2.21zm11.83 11.05q.22 0 .39.17l1.06 1.15q-.88 1.09-2.16 1.67-1.29.58-3.09.58-1.61 0-2.89-.55-1.29-.55-2.2-1.53t-1.39-2.34q-.49-1.36-.49-2.97 0-1.63.52-2.98.52-1.36 1.47-2.34.94-.98 2.25-1.53 1.31-.54 2.9-.54 1.58 0 2.81.52 1.22.52 2.08 1.36l-.9 1.25q-.08.12-.2.21-.13.09-.35.09-.15 0-.31-.09-.16-.08-.35-.2-.19-.13-.44-.28t-.58-.28q-.33-.12-.76-.21-.44-.08-1.01-.08-.97 0-1.77.35-.81.34-1.39 1-.58.65-.9 1.6-.32.94-.32 2.15 0 1.22.35 2.17.34.95.93 1.6t1.39 1q.8.34 1.72.34.55 0 1-.06.44-.06.82-.19.37-.13.71-.34.33-.2.66-.5.1-.09.21-.14.11-.06.23-.06M61.14 50q0 1.59-.52 2.94-.53 1.36-1.49 2.35t-2.31 1.54q-1.35.56-3 .56-1.64 0-2.99-.56-1.35-.55-2.31-1.54-.97-.99-1.5-2.35-.53-1.35-.53-2.94t.53-2.95q.53-1.35 1.5-2.34.96-.99 2.31-1.54 1.35-.56 2.99-.56 1.1 0 2.07.25.97.26 1.78.73.81.46 1.46 1.12.64.67 1.09 1.49t.69 1.78q.23.96.23 2.02m-2.75 0q0-1.19-.32-2.14-.32-.94-.91-1.6t-1.43-1.01q-.85-.35-1.91-.35t-1.9.35q-.85.35-1.44 1.01-.6.66-.92 1.6-.32.95-.32 2.14t.32 2.14q.32.94.92 1.59.59.66 1.44 1.01.84.35 1.9.35t1.91-.35q.84-.35 1.43-1.01.59-.65.91-1.59.32-.95.32-2.14m18.77-7.23h2.03v14.46h-2.37v-9.34q0-.56.06-1.21l-4.37 8.21q-.31.59-.95.59h-.38q-.64 0-.95-.59l-4.42-8.24q.03.33.05.65t.02.59v9.34h-2.37V42.77h2.03q.18 0 .31.01t.24.05q.1.04.19.13.08.09.16.24l4.33 8.03q.17.32.32.66.14.34.28.7.14-.37.29-.72.15-.34.32-.66l4.27-8.01q.08-.15.17-.24t.2-.13q.1-.04.24-.05.12-.01.3-.01"/></svg>