<svg xmlns="http://www.w3.org/2000/svg" width="100" height="100" viewBox="0 0 100 100"><rect width="100%" height="100%" fill="#dc2626"/><path fill="#ffffff" d="M33.5 41.325v2.65h-5.23v14.7h-3.23v-14.7h-5.23v-2.65zm17.69 8.67q0 1.91-.64 3.51-.63 1.59-1.78 2.75-1.16 1.15-2.78 1.78-1.62.64-3.6.64h-6.61v-17.35h6.61q1.98 0 3.6.64t2.78 1.79q1.15 1.14 1.78 2.74.64 1.6.64 3.5m-3.31 0q0-1.42-.38-2.56-.38-1.13-1.09-1.92-.72-.78-1.73-1.2t-2.29-.42h-3.37v12.21h3.37q1.28 0 2.29-.42t1.73-1.2q.71-.79 1.09-1.92.38-1.14.38-2.57m9.38 6.16h3.27q.9 0 1.51-.22.61-.21.98-.57.36-.36.52-.84.17-.48.17-1.02 0-.57-.18-1.02t-.57-.76q-.38-.32-.99-.49-.6-.17-1.46-.17h-3.25zm2.75-12.34h-2.75v5.02h2.57q1.66 0 2.5-.6.85-.6.85-1.91 0-1.35-.77-1.93t-2.4-.58m-5.98-2.49h5.98q1.7 0 2.92.32 1.21.33 1.98.93.78.6 1.14 1.45t.36 1.92q0 .61-.18 1.17t-.56 1.04q-.38.49-.96.88-.58.4-1.39.68 3.58.8 3.58 3.86 0 1.1-.42 2.04t-1.23 1.61q-.8.68-1.98 1.07-1.17.38-2.68.38h-6.56zm25.85 1.63-.8 1.52q-.15.26-.31.37t-.4.11q-.25 0-.55-.18-.29-.19-.7-.42-.41-.22-.95-.41-.55-.19-1.29-.19-.67 0-1.18.17-.5.16-.84.45-.35.28-.51.69-.17.4-.17.88 0 .61.34 1.02t.91.69q.56.29 1.28.52t1.48.49q.75.25 1.47.6.72.34 1.29.86.56.52.9 1.28.34.75.34 1.83 0 1.18-.4 2.21-.4 1.02-1.17 1.78-.78.77-1.89 1.2-1.12.44-2.56.44-.83 0-1.63-.16-.81-.16-1.54-.46-.74-.3-1.39-.72t-1.15-.94l.95-1.55q.12-.16.31-.28.19-.11.41-.11.3 0 .64.24.35.25.83.55t1.12.55q.65.24 1.55.24 1.38 0 2.13-.65.76-.66.76-1.88 0-.68-.34-1.12-.35-.43-.91-.72-.56-.3-1.28-.5t-1.47-.44q-.74-.24-1.46-.58t-1.29-.88q-.56-.54-.9-1.35t-.34-1.99q0-.95.37-1.85.38-.9 1.1-1.6.72-.69 1.78-1.11 1.05-.42 2.42-.42 1.54 0 2.83.48 1.3.48 2.21 1.34"/></svg>