<svg xmlns="http://www.w3.org/2000/svg" width="100" height="100" viewBox="0 0 100 100"><rect width="100%" height="100%" fill="#dc2626"/><path fill="#ffffff" d="M35.565 40.24v2.98h-5.88v16.54h-3.63V43.22h-5.89v-2.98zm19.9 9.76q0 2.15-.71 3.94-.72 1.8-2.01 3.09-1.3 1.3-3.12 2.01-1.82.72-4.05.72h-7.44V40.24h7.44q2.23 0 4.05.72t3.12 2.01q1.29 1.29 2.01 3.09.71 1.79.71 3.94m-3.72 0q0-1.61-.43-2.88-.42-1.28-1.23-2.16-.8-.89-1.94-1.36t-2.57-.47h-3.8v13.74h3.8q1.43 0 2.57-.47t1.94-1.36q.81-.88 1.23-2.16.43-1.27.43-2.88m25.35-9.76h2.74v19.52h-3.2V47.15q0-.76.08-1.63l-5.9 11.08q-.42.8-1.28.8h-.51q-.87 0-1.29-.8l-5.96-11.12q.04.44.07.87.02.44.02.8v12.61h-3.2V40.24h2.74q.25 0 .42.01.18.02.32.07t.26.18q.11.12.22.32l5.84 10.84q.23.43.43.89.19.46.38.95.19-.5.4-.97.2-.47.43-.9l5.76-10.81q.11-.2.23-.32.12-.13.26-.18.15-.05.32-.07.18-.01.42-.01"/></svg>