<svg xmlns="http://www.w3.org/2000/svg" width="100" height="100" viewBox="0 0 100 100"><rect width="100%" height="100%" fill="#dc2626"/><path fill="#ffffff" d="M29.255 43.5v1.98h-3.92v11.03h-2.42V45.48h-3.93V43.5zm13.27 6.5q0 1.43-.48 2.63t-1.34 2.06q-.86.87-2.08 1.34-1.21.48-2.7.48h-4.96V43.5h4.96q1.49 0 2.7.48 1.22.48 2.08 1.34t1.34 2.05q.48 1.2.48 2.63m-2.49 0q0-1.07-.28-1.92t-.82-1.44q-.53-.59-1.29-.9-.77-.32-1.72-.32h-2.53v9.16h2.53q.95 0 1.72-.31.76-.32 1.29-.91.54-.59.82-1.44t.28-1.92m17.03 0q0 1.43-.47 2.65t-1.34 2.11q-.86.89-2.08 1.39-1.21.5-2.7.5-1.47 0-2.69-.5-1.21-.5-2.08-1.39t-1.35-2.11q-.47-1.22-.47-2.65t.47-2.65q.48-1.22 1.35-2.11t2.08-1.39q1.22-.5 2.69-.5.99 0 1.87.23.87.23 1.6.65t1.31 1.02q.58.59.98 1.33.41.74.62 1.6.21.87.21 1.82m-2.47 0q0-1.07-.29-1.92t-.82-1.44q-.53-.6-1.29-.91-.76-.32-1.72-.32-.95 0-1.71.32-.76.31-1.3.91-.53.59-.82 1.44t-.29 1.92.29 1.92.82 1.44q.54.59 1.3.91.76.31 1.71.31.96 0 1.72-.31.76-.32 1.29-.91t.82-1.44.29-1.92m7.03-.31h1.51q.68 0 1.19-.17t.84-.48q.33-.3.49-.71.16-.42.16-.91 0-.99-.65-1.52-.66-.53-2-.53h-1.54zm4.48 2.01 3.26 4.81h-2.19q-.62 0-.9-.49l-2.74-4.16q-.15-.24-.33-.34-.19-.1-.55-.1h-1.03v5.09h-2.43V43.5h3.97q1.33 0 2.28.27t1.55.77q.61.49.9 1.18t.29 1.52q0 .66-.2 1.24-.19.59-.55 1.06-.37.48-.9.84-.54.36-1.22.57.23.13.43.32.2.18.36.43m13.61 1.74q.19 0 .35.15l.95 1.04q-.79.98-1.95 1.5-1.15.52-2.77.52-1.45 0-2.61-.49-1.16-.5-1.98-1.38-.81-.88-1.25-2.1-.44-1.23-.44-2.68 0-1.46.47-2.68t1.32-2.11q.85-.88 2.03-1.37t2.61-.49q1.42 0 2.52.47 1.11.47 1.88 1.22l-.81 1.13q-.07.11-.18.19-.12.08-.32.08-.13 0-.27-.08-.15-.07-.32-.19-.17-.11-.4-.24-.22-.14-.52-.25-.29-.11-.69-.19-.39-.08-.9-.08-.87 0-1.6.31-.72.31-1.24.9-.53.59-.81 1.44-.29.85-.29 1.94 0 1.1.31 1.96.31.85.84 1.44.53.58 1.25.89t1.55.31q.49 0 .89-.05.41-.06.74-.17.34-.12.64-.3.3-.19.6-.46.09-.08.19-.13t.21-.05"/></svg>