<svg xmlns="http://www.w3.org/2000/svg" width="100" height="100" viewBox="0 0 100 100"><rect width="100%" height="100%" fill="#dc2626"/><path fill="#ffffff" d="M38.51 38.795v3.42h-6.76v18.99h-4.17v-18.99h-6.76v-3.42zm17.08 3.31h-9.95v6.22h7.84v3.21h-7.84v6.34h9.95v3.33H41.46v-22.41h14.13zm23.59 7.89q0 2.47-.82 4.53t-2.31 3.55-3.58 2.31-4.65.82h-8.54v-22.41h8.54q2.56 0 4.65.83t3.58 2.31 2.31 3.54.82 4.52m-4.28 0q0-1.84-.48-3.31-.49-1.46-1.41-2.48-.93-1.01-2.24-1.55-1.31-.55-2.95-.55h-4.35v15.78h4.35q1.64 0 2.95-.54t2.24-1.56q.92-1.01 1.41-2.48.48-1.46.48-3.31"/></svg>