<svg xmlns="http://www.w3.org/2000/svg" width="100" height="100" viewBox="0 0 100 100"><rect width="100%" height="100%" fill="#dc2626"/><path fill="#ffffff" d="M38.275 38.43v3.54h-6.97v19.6h-4.31v-19.6h-6.97v-3.54zm17.63 3.43h-10.27v6.85h8.67v3.44h-8.67v9.42h-4.32V38.43h14.59zM79.975 50q0 2.55-.85 4.67-.85 2.13-2.38 3.67-1.54 1.53-3.7 2.38t-4.8.85h-8.82V38.43h8.82q2.64 0 4.8.86t3.7 2.38q1.53 1.53 2.38 3.66t.85 4.67m-4.42 0q0-1.9-.5-3.41-.51-1.52-1.46-2.56-.95-1.05-2.3-1.61t-3.05-.56h-4.5v16.29h4.5q1.7 0 3.05-.56t2.3-1.61 1.46-2.56q.5-1.51.5-3.42"/></svg>