<svg xmlns="http://www.w3.org/2000/svg" width="100" height="100" viewBox="0 0 100 100"><rect width="100%" height="100%" fill="#dc2626"/><path fill="#ffffff" d="M32.27 42.41v2.32H27.7v12.86h-2.83V44.73h-4.58v-2.32zm4.82 0v6.36h.66q.4 0 .67-.11.26-.11.45-.35l4.19-5.3q.26-.34.55-.47t.73-.13h2.43l-5.11 6.31q-.45.58-.93.82.34.12.62.35.28.22.53.59l5.27 7.11h-2.49q-.5 0-.75-.14-.24-.14-.41-.42l-4.3-5.6q-.2-.29-.46-.4-.26-.12-.75-.12h-.9v6.68h-2.82V42.41zm14.77 9.45h4.83l-1.85-5.05q-.14-.34-.29-.8-.14-.46-.29-1-.14.54-.28 1-.15.47-.29.82zm3.85-9.45 5.96 15.18h-2.18q-.37 0-.6-.18-.23-.19-.35-.46l-1.13-3.1h-6.29l-1.13 3.1q-.09.24-.33.44t-.6.2h-2.2l5.97-15.18zm21.87 0h2.13v15.18h-2.49v-9.81q0-.59.07-1.27l-4.59 8.62q-.33.62-1 .62h-.4q-.67 0-1-.62l-4.64-8.65.06.68q.02.34.02.62v9.81h-2.49V42.41h2.13q.19 0 .33.01.13.01.24.05t.2.14q.09.09.17.25l4.55 8.43q.18.34.33.69.15.36.3.74.15-.39.31-.75.15-.37.33-.7l4.49-8.41q.08-.16.17-.25.1-.1.21-.14t.25-.05q.13-.01.32-.01"/></svg>