<svg xmlns="http://www.w3.org/2000/svg" width="100" height="100" viewBox="0 0 100 100"><rect width="100%" height="100%" fill="#dc2626"/><path fill="#ffffff" d="M29.16 43.495v1.98h-3.92v11.03h-2.42v-11.03h-3.93v-1.98zm4.13 0v5.45h.57q.34 0 .57-.09.22-.1.39-.31l3.59-4.54q.22-.29.47-.4t.62-.11h2.09l-4.38 5.4q-.39.5-.8.71.3.1.53.3.24.19.46.51l4.52 6.09h-2.14q-.43 0-.64-.12t-.36-.36l-3.68-4.8q-.17-.25-.39-.35-.23-.09-.65-.09h-.77v5.72h-2.42v-13.01zm18.46 0h2.43v13.01h-2.43v-5.69h-6.11v5.69h-2.43v-13.01h2.43v5.59h6.11zm14.17 0h2.13v13.01h-1.24q-.29 0-.48-.09-.19-.1-.37-.32l-6.8-8.68q.05.59.05 1.1v7.99h-2.13v-13.01h1.27q.15 0 .27.01.11.01.19.05.09.04.17.12t.18.2l6.82 8.71-.04-.62q-.02-.3-.02-.56zm7.45 6.19h1.51q.69 0 1.2-.17.5-.17.83-.48.33-.3.49-.71.17-.42.17-.91 0-.99-.66-1.52-.65-.53-1.99-.53h-1.55zm4.48 2.01 3.26 4.81h-2.19q-.62 0-.9-.49l-2.73-4.16q-.15-.24-.34-.34-.18-.1-.54-.1h-1.04v5.09h-2.42v-13.01h3.97q1.32 0 2.27.27t1.56.77q.61.49.89 1.18.29.69.29 1.52 0 .66-.19 1.24-.19.59-.56 1.06-.36.48-.9.84-.53.36-1.22.57.24.13.43.32.2.18.36.43"/></svg>