<svg xmlns="http://www.w3.org/2000/svg" width="100" height="100" viewBox="0 0 100 100"><rect width="100%" height="100%" fill="#dc2626"/><path fill="#ffffff" d="M40.2 37.345v3.87h-7.63v21.44h-4.71v-21.44h-7.63v-3.87zm8.03 21.42h10.12v3.89H43.52v-25.31h4.71zm18.18-8.69h3.52q1.3 0 2.26-.33.96-.32 1.6-.92.64-.61.95-1.47.32-.87.32-1.94 0-1.01-.32-1.84-.31-.82-.94-1.4-.63-.57-1.59-.88-.97-.31-2.28-.31h-3.52zm-4.7-12.73h8.22q2.54 0 4.39.6 1.86.59 3.07 1.66 1.2 1.07 1.79 2.56.59 1.48.59 3.25 0 1.84-.62 3.37-.61 1.53-1.83 2.63-1.23 1.11-3.07 1.72-1.85.61-4.32.61h-3.52v8.91h-4.7z"/></svg>