<svg xmlns="http://www.w3.org/2000/svg" width="100" height="100" viewBox="0 0 100 100"><rect width="100%" height="100%" fill="#dc2626"/><path fill="#ffffff" d="M43.985 35.9v4.31h-8.5V64.1h-5.25V40.21h-8.5V35.9zm30.32 0h3.96v28.2h-4.62V45.89q0-1.09.11-2.36l-8.52 16.01q-.6 1.15-1.85 1.15h-.74q-1.25 0-1.85-1.15l-8.62-16.07q.06.64.09 1.27.04.62.04 1.15V64.1h-4.62V35.9h3.96q.35 0 .61.02.25.02.45.1.21.08.37.25.17.18.33.47l8.44 15.66q.33.62.61 1.29.29.66.56 1.36.27-.72.56-1.39.3-.68.63-1.3l8.33-15.62q.15-.29.33-.47.17-.17.38-.25.2-.08.46-.1.25-.02.6-.02"/></svg>