<svg xmlns="http://www.w3.org/2000/svg" width="100" height="100" viewBox="0 0 100 100"><rect width="100%" height="100%" fill="#dc2626"/><path fill="#ffffff" d="M30.315 43.495v1.98h-3.93v11.03h-2.42v-11.03h-3.92v-1.98zm13.99 0h1.83v13.01h-2.13v-8.41q0-.5.05-1.09l-3.93 7.39q-.28.53-.86.53h-.34q-.58 0-.85-.53l-3.98-7.41.04.58q.02.29.02.53v8.41h-2.13v-13.01h2.1q.12.01.22.05.09.04.17.12.07.08.14.21l3.9 7.23q.16.29.29.59.13.31.25.63.13-.33.26-.64.14-.31.29-.6l3.84-7.21q.08-.13.16-.21t.17-.12q.1-.04.21-.05zm7.46 8.1h4.14l-1.58-4.33q-.12-.29-.24-.69-.13-.39-.25-.85-.12.46-.25.86-.12.4-.24.69zm3.31-8.1 5.11 13.01h-1.87q-.32 0-.52-.16-.19-.16-.29-.39l-.97-2.65h-5.4l-.97 2.65q-.07.21-.28.38-.2.17-.51.17h-1.89l5.12-13.01zm15.55 0v1.98h-3.92v11.03h-2.43v-11.03h-3.92v-1.98zm4.13 11.01h5.2v2h-7.62v-13.01h2.42z"/></svg>