<svg xmlns="http://www.w3.org/2000/svg" width="100" height="100" viewBox="0 0 100 100"><rect width="100%" height="100%" fill="#dc2626"/><path fill="#ffffff" d="M35.46 39.885v3.09h-6.1v17.15h-3.77v-17.15h-6.1v-3.09zm21.77 0h2.84v20.24h-3.31v-13.08q0-.78.08-1.69l-6.12 11.49q-.43.83-1.33.83h-.53q-.9 0-1.33-.83l-6.19-11.53q.04.46.07.91t.03.82v13.08h-3.32v-20.24h2.84q.26 0 .44.01t.33.07q.14.06.26.18.12.13.23.34l6.07 11.24q.23.45.44.92.2.48.4.98.19-.51.4-1 .21-.48.45-.93l5.98-11.21q.11-.21.24-.34.12-.12.27-.18t.33-.07.43-.01m21.25 15.47q.31 0 .55.23l1.48 1.61q-1.23 1.53-3.03 2.34t-4.32.81q-2.25 0-4.05-.77t-3.07-2.14q-1.28-1.37-1.95-3.27-.68-1.91-.68-4.16 0-2.28.72-4.18.73-1.9 2.06-3.27 1.32-1.37 3.15-2.14 1.84-.76 4.06-.76 2.21 0 3.93.73 1.71.73 2.92 1.9l-1.26 1.75q-.11.17-.29.3-.17.12-.48.12-.21 0-.44-.12-.22-.11-.49-.29-.26-.17-.61-.38t-.81-.39q-.47-.17-1.07-.29-.61-.12-1.41-.12-1.36 0-2.49.48-1.12.48-1.94 1.4-.81.92-1.26 2.24-.44 1.32-.44 3.02 0 1.71.48 3.04t1.31 2.24q.82.91 1.94 1.39t2.41.48q.77 0 1.4-.08.62-.09 1.14-.27.53-.18 1-.47.47-.28.93-.7.14-.13.29-.21.16-.07.32-.07"/></svg>