<svg xmlns="http://www.w3.org/2000/svg" width="100" height="100" viewBox="0 0 100 100"><rect width="100%" height="100%" fill="#dc2626"/><path fill="#ffffff" d="M29.505 43.13v2.1h-4.15v11.64h-2.55V45.23h-4.14v-2.1zm14.77 0h1.93v13.74h-2.25V48q0-.53.05-1.15l-4.15 7.8q-.29.56-.9.56h-.36q-.61 0-.91-.56l-4.19-7.83.04.62q.02.3.02.56v8.87h-2.25V43.13h1.93q.17 0 .29.01.13.01.23.05t.18.12q.08.09.15.23l4.12 7.63q.16.3.3.63l.27.66q.13-.35.27-.68.15-.33.31-.63l4.05-7.61q.08-.14.17-.23.08-.08.18-.12t.22-.05q.13-.01.3-.01m11.75 6.85h4.56v5.56q-1.05.77-2.23 1.13-1.18.35-2.53.35-1.68 0-3.04-.52-1.37-.52-2.33-1.45-.97-.93-1.49-2.23-.52-1.29-.52-2.82 0-1.55.5-2.84.51-1.29 1.43-2.22.93-.93 2.25-1.45 1.32-.51 2.96-.51.84 0 1.57.13.72.14 1.34.37.63.23 1.14.57.51.33.94.73l-.73 1.16q-.17.27-.45.33-.27.06-.6-.13-.31-.19-.62-.37-.32-.18-.7-.31-.39-.13-.87-.22-.48-.08-1.1-.08-1.02 0-1.84.34t-1.4.98q-.58.63-.9 1.53-.31.89-.31 1.99 0 1.18.34 2.11.34.92.95 1.56t1.48.98q.86.34 1.92.34.76 0 1.36-.16t1.17-.44V51.9h-1.73q-.25 0-.38-.14-.14-.13-.14-.33zm23.3-6.85h2.01l-4.27 13.74h-2.31l-3-9.39q-.12-.34-.23-.83-.05.24-.11.44-.06.21-.12.39l-3.03 9.39h-2.32l-4.26-13.74h2.14q.33 0 .55.16.23.16.3.42l2.34 8.22q.08.3.15.66t.15.75q.07-.4.16-.75.09-.36.2-.66l2.69-8.22q.08-.22.3-.4.23-.18.55-.18h.75q.33 0 .54.16.21.17.32.42l2.68 8.22q.2.59.36 1.36.13-.75.28-1.36l2.34-8.22q.05-.23.29-.41.23-.17.55-.17"/></svg>