<svg xmlns="http://www.w3.org/2000/svg" width="100" height="100" viewBox="0 0 100 100"><rect width="100%" height="100%" fill="#dc2626"/><path fill="#ffffff" d="M36.93 39.515v3.21h-6.32v17.76h-3.9v-17.76h-6.32v-3.21zm22.55 0h2.94v20.97h-3.43v-13.54q0-.82.09-1.76l-6.34 11.91q-.45.85-1.38.85h-.55q-.93 0-1.38-.85l-6.41-11.95q.05.48.08.94.03.47.03.86v13.54h-3.44v-20.97h2.94q.26 0 .45.02.19.01.34.07t.28.19q.12.13.24.35l6.28 11.64q.24.46.45.96.21.49.42 1.01.2-.53.42-1.03.21-.51.46-.97l6.19-11.61q.12-.22.25-.35t.28-.19.34-.07q.19-.02.45-.02m19.75 1.97-.97 1.85q-.18.3-.37.44-.2.14-.49.14-.3 0-.66-.23-.35-.22-.84-.5-.5-.27-1.16-.5-.66-.22-1.56-.22-.81 0-1.42.19-.61.2-1.02.55-.41.34-.62.83-.2.49-.2 1.07 0 .73.41 1.23.42.49 1.1.84t1.55.62q.87.28 1.78.59.92.31 1.79.72.87.42 1.55 1.05t1.09 1.54q.42.92.42 2.22 0 1.42-.49 2.66-.48 1.24-1.42 2.16-.93.92-2.28 1.45t-3.09.53q-1 0-1.97-.19-.98-.2-1.87-.56t-1.67-.87-1.39-1.13l1.14-1.87q.15-.21.38-.34.23-.14.49-.14.36 0 .78.3.43.29 1.01.65.58.37 1.35.66.78.3 1.86.3 1.67 0 2.59-.79.91-.79.91-2.27 0-.82-.41-1.35-.42-.52-1.1-.87-.68-.36-1.55-.61-.87-.24-1.77-.53t-1.77-.7q-.87-.4-1.55-1.06-.68-.65-1.1-1.63-.41-.98-.41-2.41 0-1.15.46-2.23.46-1.09 1.33-1.93t2.14-1.35q1.28-.51 2.93-.51 1.86 0 3.42.58 1.57.58 2.67 1.62"/></svg>