<svg xmlns="http://www.w3.org/2000/svg" width="100" height="100" viewBox="0 0 100 100"><rect width="100%" height="100%" fill="#dc2626"/><path fill="#ffffff" d="M38.57 38.07v3.65h-7.19v20.21h-4.44V41.72h-7.19v-3.65zm16.95 2.24-1.11 2.1q-.2.35-.42.5-.22.16-.55.16-.35 0-.75-.26-.41-.25-.97-.56-.56-.32-1.31-.57-.75-.26-1.77-.26-.93 0-1.62.22-.69.23-1.16.62-.47.4-.7.95-.24.55-.24 1.21 0 .85.47 1.41.48.56 1.25.95.78.4 1.77.71.99.32 2.03.67 1.03.36 2.02.83t1.77 1.18q.78.72 1.25 1.76t.47 2.53q0 1.61-.56 3.02-.55 1.41-1.61 2.46-1.07 1.05-2.6 1.65-1.54.6-3.52.6-1.14 0-2.24-.22-1.11-.22-2.12-.63-1.02-.42-1.91-.99-.89-.58-1.58-1.29l1.3-2.13q.17-.23.43-.39.27-.15.56-.15.42 0 .89.33.48.34 1.14.75.66.42 1.55.76.88.33 2.12.33 1.89 0 2.93-.9 1.04-.89 1.04-2.58 0-.94-.47-1.53-.47-.6-1.24-1-.78-.4-1.77-.69-.99-.28-2.01-.61-1.03-.33-2.02-.79t-1.76-1.2q-.78-.74-1.25-1.86-.47-1.11-.47-2.75 0-1.3.52-2.54.52-1.23 1.51-2.19t2.44-1.54q1.46-.57 3.34-.57 2.11 0 3.89.66t3.04 1.84m9.3 12.61h7.59l-2.9-7.94q-.22-.52-.45-1.25t-.46-1.57q-.21.84-.44 1.58-.23.73-.45 1.28zm6.06-14.85 9.37 23.86h-3.43q-.58 0-.94-.29t-.55-.72l-1.78-4.86h-9.88l-1.78 4.86q-.14.38-.52.7-.37.31-.94.31h-3.46l9.39-23.86z"/></svg>