<svg xmlns="http://www.w3.org/2000/svg" width="100" height="100" viewBox="0 0 100 100"><rect width="100%" height="100%" fill="#dc2626"/><path fill="#ffffff" d="M35.505 39.885v3.09h-6.1v17.15h-3.77v-17.15h-6.1v-3.09zm14.38 1.9-.94 1.78q-.17.29-.36.42-.18.14-.46.14-.3 0-.64-.22t-.82-.48q-.48-.27-1.11-.48-.64-.22-1.51-.22-.78 0-1.37.19t-.99.52q-.4.34-.59.81-.2.47-.2 1.03 0 .71.4 1.19.4.47 1.06.81.66.33 1.5.6t1.72.57 1.72.7 1.5 1.01q.66.6 1.05 1.49.4.88.4 2.14 0 1.37-.47 2.57-.46 1.19-1.37 2.08-.9.89-2.2 1.4t-2.98.51q-.97 0-1.91-.18-.94-.19-1.8-.54t-1.61-.84q-.76-.49-1.35-1.1l1.11-1.8q.14-.2.36-.33.23-.13.48-.13.35 0 .75.28.41.29.97.64t1.31.64q.75.28 1.8.28 1.61 0 2.49-.76t.88-2.19q0-.8-.4-1.3-.4-.51-1.05-.85-.66-.34-1.5-.58t-1.71-.52-1.71-.67-1.5-1.02q-.65-.63-1.05-1.58-.4-.94-.4-2.33 0-1.1.44-2.15t1.28-1.87q.84-.81 2.07-1.3t2.83-.49q1.79 0 3.3.56 1.52.56 2.58 1.57m27.62-1.9h2.96l-6.29 20.24h-3.4l-4.43-13.83q-.18-.51-.33-1.23-.09.35-.17.65-.08.31-.18.58l-4.47 13.83h-3.41l-6.28-20.24h3.15q.49 0 .82.23t.44.62l3.45 12.11q.11.45.21.97.11.53.22 1.1.11-.59.25-1.1.13-.52.28-.97l3.98-12.11q.11-.32.44-.59.33-.26.81-.26h1.1q.49 0 .8.23.31.24.46.62l3.96 12.11q.3.87.54 2 .18-1.1.4-2l3.45-12.11q.08-.35.42-.6.35-.25.82-.25"/></svg>