<svg xmlns="http://www.w3.org/2000/svg" width="100" height="100" viewBox="0 0 100 100"><rect width="100%" height="100%" fill="#dc2626"/><path fill="#ffffff" d="M35.48 40.24v2.98h-5.89v16.54h-3.63V43.22h-5.88v-2.98zm16.2 0v2.98h-5.89v16.54h-3.63V43.22h-5.88v-2.98zm6.2 16.52h7.8v3H54.25V40.24h3.63zm21.69-14.68-.9 1.71q-.17.28-.35.41t-.45.13q-.28 0-.61-.21t-.79-.47q-.46-.25-1.08-.46-.61-.21-1.45-.21-.75 0-1.32.18t-.95.51q-.39.32-.58.77-.19.46-.19 1 0 .69.39 1.14.38.46 1.02.79.63.32 1.44.58.81.25 1.66.54t1.66.68q.81.38 1.45.97.63.59 1.02 1.44.38.85.38 2.06 0 1.33-.45 2.48-.45 1.16-1.32 2.01-.87.86-2.13 1.35-1.25.5-2.87.5-.94 0-1.84-.19-.9-.18-1.74-.52-.83-.33-1.55-.81-.73-.47-1.3-1.05l1.07-1.74q.13-.19.35-.32.21-.13.46-.13.33 0 .73.28.39.28.93.61.54.34 1.26.62t1.73.28q1.56 0 2.41-.74t.85-2.11q0-.77-.39-1.26-.38-.48-1.02-.81-.63-.34-1.44-.56-.81-.23-1.65-.5t-1.65-.65-1.44-.99-1.02-1.52q-.38-.91-.38-2.24 0-1.07.42-2.08.43-1.02 1.24-1.8t1.99-1.25q1.19-.48 2.73-.48 1.73 0 3.19.54t2.48 1.52"/></svg>