<svg xmlns="http://www.w3.org/2000/svg" width="100" height="100" viewBox="0 0 100 100"><rect width="100%" height="100%" fill="#dc2626"/><path fill="#ffffff" d="M38.085 38.795v3.42h-6.75v18.99h-4.17v-18.99h-6.76v-3.42zm20.74 0-8.17 13.73v8.68h-4.15v-8.68l-8.17-13.73h3.67q.55 0 .87.26.31.26.53.67l4.09 7.48q.36.67.63 1.26t.49 1.18q.2-.59.46-1.18.27-.59.61-1.26l4.07-7.48q.17-.34.52-.64.34-.29.86-.29zm13.33 11.17h7.44v9.07q-1.7 1.26-3.63 1.84t-4.13.58q-2.75 0-4.97-.85-2.22-.86-3.8-2.38-1.57-1.52-2.42-3.62-.86-2.11-.86-4.61 0-2.52.83-4.63.82-2.11 2.33-3.63t3.66-2.35q2.16-.84 4.84-.84 1.36 0 2.55.22 1.18.21 2.2.59t1.85.92q.84.55 1.54 1.2l-1.2 1.89q-.28.45-.72.55-.45.1-.98-.23l-1.02-.58q-.52-.3-1.14-.52-.63-.21-1.41-.35-.79-.14-1.81-.14-1.66 0-3 .56-1.34.55-2.29 1.59-.94 1.04-1.45 2.5t-.51 3.25q0 1.93.55 3.44t1.55 2.55q1 1.05 2.41 1.6t3.14.55q1.24 0 2.22-.26.98-.27 1.91-.72v-4.06h-2.82q-.41 0-.63-.22-.23-.23-.23-.55z"/></svg>