<svg xmlns="http://www.w3.org/2000/svg" width="100" height="100" viewBox="0 0 100 100"><rect width="100%" height="100%" fill="#dc2626"/><path fill="#ffffff" d="M30.48 43.13h2.06L27 56.87h-2.31l-5.55-13.74h2.05q.33 0 .54.16.21.17.32.42l3.24 8.38q.16.41.31.9.14.49.28 1.02.11-.53.24-1.02.14-.49.3-.9l3.22-8.38q.07-.22.3-.4.22-.18.54-.18M47.07 50q0 1.51-.5 2.8t-1.41 2.23-2.19 1.46q-1.29.53-2.85.53t-2.84-.53q-1.29-.52-2.2-1.46-.92-.94-1.42-2.23-.51-1.29-.51-2.8t.51-2.8q.5-1.28 1.42-2.22.91-.94 2.2-1.47 1.28-.53 2.84-.53 1.04 0 1.96.24.92.25 1.69.69t1.39 1.07q.61.63 1.04 1.41.42.78.65 1.69.22.91.22 1.92m-2.61 0q0-1.13-.31-2.03-.3-.89-.86-1.52t-1.36-.96q-.81-.33-1.81-.33-1.01 0-1.81.33-.81.33-1.37.96-.57.63-.87 1.52-.31.9-.31 2.03t.31 2.03q.3.9.87 1.52.56.62 1.37.95.8.34 1.81.34 1 0 1.81-.34.8-.33 1.36-.95t.86-1.52q.31-.9.31-2.03m13.53-4.83h-6.1v3.81h4.8v1.96h-4.8v3.89h6.1v2.04h-8.67V43.13h8.67zm11.69 8.46q.21 0 .37.16l1.01 1.09q-.84 1.04-2.06 1.59t-2.93.55q-1.53 0-2.75-.52t-2.09-1.45q-.86-.93-1.32-2.23-.46-1.29-.46-2.82 0-1.55.49-2.83.5-1.29 1.39-2.22.9-.93 2.15-1.45 1.24-.52 2.75-.52 1.5 0 2.67.5 1.16.49 1.98 1.29l-.86 1.18q-.07.12-.19.2-.12.09-.33.09-.14 0-.3-.08-.15-.08-.33-.2t-.42-.26q-.23-.14-.55-.26-.31-.12-.72-.2-.42-.08-.96-.08-.92 0-1.68.32-.77.33-1.32.95-.55.63-.86 1.52-.3.9-.3 2.05 0 1.16.33 2.06.33.91.89 1.52.56.62 1.32.95t1.63.33q.52 0 .95-.06.42-.06.78-.18.35-.13.67-.32t.63-.48q.1-.08.2-.14.11-.05.22-.05m5.69 1.13h5.49v2.11h-8.05V43.13h2.56z"/></svg>