<svg xmlns="http://www.w3.org/2000/svg" width="100" height="100" viewBox="0 0 100 100"><rect width="100%" height="100%" fill="#dc2626"/><path fill="#ffffff" d="M36.96 39.515h3.14l-8.46 20.97h-3.53l-8.47-20.97h3.14q.5 0 .82.25t.48.64l4.95 12.79q.24.62.47 1.37.22.74.42 1.56.18-.82.38-1.56.2-.75.45-1.37l4.92-12.79q.11-.34.45-.61.34-.28.84-.28m25.31 10.49q0 2.3-.76 4.27-.76 1.96-2.15 3.4-1.39 1.43-3.35 2.24-1.96.8-4.35.8-2.38 0-4.34-.8-1.95-.81-3.35-2.24-1.4-1.44-2.17-3.4-.77-1.97-.77-4.27 0-2.31.77-4.27.77-1.97 2.17-3.4 1.4-1.44 3.35-2.24 1.96-.81 4.34-.81 1.6 0 3 .37 1.41.37 2.58 1.04 1.18.68 2.11 1.64.94.97 1.59 2.16t.99 2.58.34 2.93m-3.98 0q0-1.73-.47-3.1-.46-1.37-1.32-2.33-.85-.95-2.08-1.46-1.22-.51-2.76-.51t-2.76.51q-1.23.51-2.09 1.46-.86.96-1.33 2.33-.46 1.37-.46 3.1 0 1.72.46 3.09.47 1.37 1.33 2.32t2.09 1.46q1.22.51 2.76.51t2.76-.51q1.23-.51 2.08-1.46.86-.95 1.32-2.32.47-1.37.47-3.09m22.07-10.49v3.21h-6.33v17.76h-3.9v-17.76h-6.32v-3.21z"/></svg>