<svg xmlns="http://www.w3.org/2000/svg" width="100" height="100" viewBox="0 0 100 100"><rect width="100%" height="100%" fill="#dc2626"/><path fill="#ffffff" d="M43.165 41.325h2.53l-5.38 17.35h-2.92l-3.79-11.86q-.16-.43-.29-1.05-.07.3-.14.56-.08.27-.16.49l-3.83 11.86h-2.93l-5.37-17.35h2.7q.42 0 .7.2.28.19.38.53l2.95 10.38q.1.38.19.83t.18.95q.1-.51.21-.95.12-.45.25-.83l3.41-10.38q.09-.28.37-.5.29-.23.69-.23h.95q.42 0 .69.2.26.21.39.53l3.4 10.38q.25.74.45 1.72.16-.95.35-1.72l2.95-10.38q.08-.3.37-.52.29-.21.7-.21m7.9 14.69h6.93v2.66h-10.16v-17.35h3.23zm25.62-14.69h2.43v17.35h-2.84v-11.21q0-.67.07-1.45l-5.24 9.85q-.37.71-1.14.71h-.46q-.77 0-1.14-.71l-5.3-9.89.06.78q.02.39.02.71v11.21h-2.84v-17.35h2.43q.22 0 .38.01.15.01.28.06.12.05.23.16.1.1.19.28l5.2 9.64q.2.38.38.79.17.41.34.84.17-.44.35-.86.18-.41.38-.79l5.13-9.62q.09-.18.2-.28.11-.11.23-.16.13-.05.29-.06.15-.01.37-.01"/></svg>