<svg xmlns="http://www.w3.org/2000/svg" width="100" height="100" viewBox="0 0 100 100"><rect width="100%" height="100%" fill="#dc2626"/><path fill="#ffffff" d="M33.135 50q0 1.51-.5 2.78-.51 1.26-1.42 2.17t-2.19 1.42q-1.28.5-2.85.5h-5.24V43.13h5.24q1.57 0 2.85.51t2.19 1.42q.91.9 1.42 2.17.5 1.26.5 2.77m-2.62 0q0-1.13-.3-2.03-.3-.89-.86-1.52-.57-.62-1.37-.95t-1.81-.33h-2.67v9.67h2.67q1.01 0 1.81-.34.8-.33 1.37-.95.56-.62.86-1.52t.3-2.03m7.43-.33h1.59q.73 0 1.26-.18.54-.18.89-.5.34-.32.51-.76.18-.43.18-.96 0-1.04-.69-1.6t-2.11-.56h-1.63zm4.73 2.13 3.44 5.07h-2.31q-.66 0-.95-.51l-2.89-4.4q-.16-.25-.35-.35-.2-.11-.58-.11h-1.09v5.37h-2.56V43.13h4.19q1.4 0 2.4.29t1.65.82q.64.52.94 1.24.3.73.3 1.6 0 .7-.2 1.32-.2.61-.59 1.12-.38.5-.95.88-.56.38-1.29.6.25.14.46.34.21.19.38.46m14.53-8.67v2.1h-4.15v11.64h-2.55V45.23h-4.14v-2.1zm11.4 0v2.1h-4.15v11.64h-2.55V45.23h-4.14v-2.1zm10.46 2.04h-6.09v3.81h4.8v1.96h-4.8v3.89h6.09v2.04h-8.66V43.13h8.66z"/></svg>