<svg xmlns="http://www.w3.org/2000/svg" width="100" height="100" viewBox="0 0 100 100"><rect width="100%" height="100%" fill="#dc2626"/><path fill="#ffffff" d="M31.42 49.975h6.72v8.19q-1.54 1.13-3.29 1.66-1.74.52-3.73.52-2.47 0-4.48-.77t-3.43-2.14q-1.43-1.37-2.2-3.27-.77-1.91-.77-4.16 0-2.28.75-4.19.74-1.9 2.1-3.27 1.37-1.38 3.31-2.13 1.95-.76 4.37-.76 1.24 0 2.31.2 1.07.19 1.98.54.92.34 1.68.83.75.49 1.38 1.08l-1.08 1.71q-.25.4-.65.49-.41.09-.89-.2-.46-.27-.92-.53-.46-.27-1.03-.46-.57-.2-1.27-.33-.71-.12-1.63-.12-1.5 0-2.71.5-1.21.51-2.07 1.44-.85.94-1.31 2.26-.47 1.31-.47 2.94 0 1.73.5 3.1.5 1.36 1.4 2.31.9.94 2.18 1.44 1.27.5 2.84.5 1.12 0 2-.24.89-.24 1.72-.64v-3.67h-2.54q-.37 0-.57-.21-.2-.2-.2-.49zm28.33.03q0 2.22-.74 4.09-.74 1.86-2.09 3.2-1.34 1.35-3.23 2.09t-4.2.74h-7.71v-20.24h7.71q2.31 0 4.2.74 1.89.75 3.23 2.09 1.35 1.34 2.09 3.2t.74 4.09m-3.86 0q0-1.67-.44-2.99t-1.28-2.24q-.83-.92-2.01-1.41-1.19-.49-2.67-.49h-3.93v14.25h3.93q1.48 0 2.67-.49 1.18-.49 2.01-1.4.84-.92 1.28-2.24.44-1.33.44-2.99m17.15-.03h6.72v8.19q-1.54 1.13-3.28 1.66-1.75.52-3.74.52-2.47 0-4.48-.77t-3.43-2.14-2.19-3.27q-.77-1.91-.77-4.16 0-2.28.74-4.19.74-1.9 2.11-3.27 1.36-1.38 3.31-2.13 1.94-.76 4.36-.76 1.24 0 2.31.2 1.07.19 1.99.54.91.34 1.67.83t1.38 1.08l-1.07 1.71q-.26.4-.66.49-.41.09-.88-.2-.47-.27-.93-.53-.46-.27-1.03-.46-.56-.2-1.27-.33-.71-.12-1.63-.12-1.5 0-2.71.5-1.21.51-2.07 1.44-.85.94-1.31 2.26-.46 1.31-.46 2.94 0 1.73.49 3.1.5 1.36 1.4 2.31.91.94 2.18 1.44t2.84.5q1.12 0 2-.24.89-.24 1.73-.64v-3.67h-2.55q-.37 0-.57-.21-.2-.2-.2-.49z"/></svg>