<svg xmlns="http://www.w3.org/2000/svg" width="100" height="100" viewBox="0 0 100 100"><rect width="100%" height="100%" fill="#dc2626"/><path fill="#ffffff" d="M68.315 50.005q0 3.97-1.31 7.36-1.32 3.38-3.72 5.86-2.39 2.47-5.77 3.86-3.37 1.39-7.5 1.39-4.1 0-7.48-1.39-3.37-1.39-5.78-3.86-2.42-2.48-3.74-5.86-1.33-3.39-1.33-7.36 0-3.98 1.33-7.37 1.32-3.39 3.74-5.86 2.41-2.47 5.78-3.86 3.38-1.39 7.48-1.39 2.75 0 5.17.64 2.43.64 4.46 1.8 2.02 1.16 3.63 2.82 1.62 1.66 2.74 3.71 1.13 2.05 1.71 4.45.59 2.4.59 5.06m-6.88 0q0-2.98-.79-5.34-.81-2.37-2.28-4.02t-3.59-2.52q-2.11-.88-4.76-.88t-4.76.88q-2.12.87-3.6 2.52-1.49 1.65-2.29 4.02-.8 2.36-.8 5.34 0 2.97.8 5.33t2.29 4q1.48 1.64 3.6 2.51 2.11.88 4.76.88t4.76-.88q2.12-.87 3.59-2.51t2.28-4q.79-2.36.79-5.33"/></svg>