<svg xmlns="http://www.w3.org/2000/svg" width="100" height="100" viewBox="0 0 100 100"><rect width="100%" height="100%" fill="#dc2626"/><path fill="#ffffff" d="m31.47 42.66-.84 1.59q-.15.26-.32.38t-.42.12q-.26 0-.57-.19-.31-.2-.73-.43-.42-.24-.99-.43-.57-.2-1.35-.2-.7 0-1.22.17-.53.17-.88.47-.36.3-.53.72-.18.42-.18.92 0 .63.36 1.06.35.42.94.72t1.34.54 1.54.51q.78.27 1.53.62.75.36 1.34.9.59.55.94 1.33.36.79.36 1.92 0 1.22-.42 2.29t-1.22 1.86q-.81.8-1.97 1.25-1.17.46-2.67.46-.86 0-1.69-.17-.84-.17-1.61-.48t-1.45-.75q-.67-.44-1.19-.98l.98-1.61q.13-.17.33-.29t.42-.12q.32 0 .68.26.36.25.86.56.5.32 1.17.57.67.26 1.61.26 1.43 0 2.22-.68t.79-1.96q0-.71-.36-1.16-.35-.45-.94-.76-.59-.3-1.34-.52-.75-.21-1.52-.46-.78-.25-1.53-.6t-1.34-.91-.94-1.41q-.36-.84-.36-2.08 0-.99.4-1.92.39-.94 1.14-1.67.75-.72 1.85-1.16t2.53-.44q1.6 0 2.95.5 1.34.5 2.3 1.4m6.61 6.91h2.1q.95 0 1.65-.24.71-.24 1.17-.66.45-.42.68-.99.22-.58.22-1.27 0-1.37-.9-2.11-.91-.74-2.77-.74h-2.15zm6.22 2.79 4.53 6.68h-3.04q-.86 0-1.25-.68l-3.8-5.78q-.21-.33-.47-.47-.26-.13-.76-.13h-1.43v7.06h-3.37V40.97h5.52q1.84 0 3.15.38 1.32.38 2.17 1.06.84.69 1.24 1.65.4.95.4 2.1 0 .92-.27 1.73t-.77 1.47q-.51.67-1.25 1.17-.75.5-1.7.78.33.19.6.45.28.25.5.6m17.89-8.72h-8.03v5.35h6.78v2.69h-6.78v7.36h-3.37V40.97h11.4zm6.55 8.57h5.75l-2.2-6.01q-.16-.4-.34-.95-.17-.55-.35-1.19-.16.64-.33 1.2-.18.55-.34.97zm4.59-11.24 7.1 18.07h-2.6q-.44 0-.71-.22-.28-.22-.42-.54l-1.35-3.69h-7.48l-1.35 3.69q-.11.28-.39.52-.29.24-.71.24h-2.63l7.11-18.07z"/></svg>