<svg xmlns="http://www.w3.org/2000/svg" width="100" height="100" viewBox="0 0 100 100"><rect width="100%" height="100%" fill="#dc2626"/><path fill="#ffffff" d="M38.38 38.425v3.54h-6.97v19.6H27.1v-19.6h-6.97v-3.54zm18.98 0v1.59q0 .73-.42 1.34l-11.87 16.77h12.02v3.44h-17.6v-1.7q0-.32.11-.61.11-.3.29-.55l11.9-16.85H40.24v-3.43zm14.83 11.54h7.68v9.36q-1.76 1.3-3.75 1.9t-4.27.6q-2.83 0-5.12-.88-2.3-.88-3.92-2.45-1.63-1.57-2.51-3.75-.88-2.17-.88-4.75 0-2.61.85-4.78.85-2.18 2.41-3.75 1.56-1.56 3.78-2.43 2.23-.86 4.99-.86 1.41 0 2.64.22 1.22.23 2.27.62t1.91.95 1.58 1.23l-1.23 1.95q-.29.47-.75.57-.46.11-1.01-.23-.53-.3-1.05-.61-.53-.3-1.18-.53-.65-.22-1.46-.36-.8-.15-1.86-.15-1.71 0-3.1.58-1.38.57-2.36 1.65-.97 1.07-1.5 2.57-.53 1.51-.53 3.36 0 1.99.57 3.55t1.6 2.64 2.49 1.64q1.45.57 3.25.57 1.28 0 2.28-.27 1.01-.27 1.97-.74v-4.19h-2.91q-.42 0-.65-.23t-.23-.57z"/></svg>