<svg xmlns="http://www.w3.org/2000/svg" width="100" height="100" viewBox="0 0 100 100"><rect width="100%" height="100%" fill="#dc2626"/><path fill="#ffffff" d="M38.405 38.795h3.37l-9.06 22.41h-3.76l-9.06-22.41h3.35q.55 0 .89.26t.51.68l5.28 13.67q.27.67.51 1.47t.45 1.66q.19-.86.41-1.66.21-.8.48-1.47l5.25-13.67q.13-.35.49-.65.36-.29.89-.29m9.86 18.97h8.96v3.44h-13.13v-22.41h4.17zm31.84-7.77q0 2.47-.82 4.53-.83 2.06-2.31 3.55-1.49 1.49-3.58 2.31-2.1.82-4.65.82h-8.55v-22.41h8.55q2.55 0 4.65.83 2.09.83 3.58 2.31 1.48 1.48 2.31 3.54.82 2.06.82 4.52m-4.28 0q0-1.84-.49-3.31-.49-1.46-1.41-2.48-.92-1.01-2.23-1.55-1.31-.55-2.95-.55h-4.36v15.78h4.36q1.64 0 2.95-.54t2.23-1.56q.92-1.01 1.41-2.48.49-1.46.49-3.31"/></svg>