<svg xmlns="http://www.w3.org/2000/svg" width="100" height="100" viewBox="0 0 100 100"><rect width="100%" height="100%" fill="#dc2626"/><path fill="#ffffff" d="M27.83 52.745h7.13l-2.73-7.46q-.2-.49-.42-1.18-.22-.68-.43-1.47-.21.79-.42 1.48-.22.69-.42 1.2zm5.68-13.95 8.81 22.41h-3.23q-.54 0-.88-.27t-.51-.68l-1.67-4.57h-9.29l-1.67 4.57q-.13.36-.48.66-.36.29-.89.29h-3.25l8.82-22.41zm15.85 13.95h7.13l-2.73-7.46q-.2-.49-.42-1.18-.22-.68-.43-1.47-.21.79-.42 1.48-.22.69-.42 1.2zm5.68-13.95 8.81 22.41h-3.23q-.54 0-.88-.27t-.51-.68l-1.67-4.57h-9.29l-1.67 4.57q-.13.36-.48.66-.36.29-.89.29h-3.25l8.82-22.41zm24.11 2.11-1.04 1.96q-.19.33-.4.48-.21.14-.52.14-.32 0-.7-.24t-.91-.53q-.53-.3-1.23-.54-.71-.24-1.67-.24-.86 0-1.52.21-.65.21-1.09.58-.44.38-.66.9-.21.51-.21 1.13 0 .8.44 1.32.44.53 1.17.9t1.66.67q.93.29 1.9.63.98.33 1.91.77t1.66 1.12q.73.67 1.17 1.65.44.97.44 2.37 0 1.52-.52 2.84-.52 1.33-1.52 2.31-1 .99-2.44 1.55-1.44.57-3.3.57-1.07 0-2.11-.21t-1.99-.6-1.79-.93-1.49-1.21l1.23-2q.15-.21.4-.36t.53-.15q.38 0 .83.32t1.07.71q.62.38 1.45.7t1.99.32q1.79 0 2.76-.85.98-.84.98-2.42 0-.89-.44-1.44-.45-.56-1.17-.94-.73-.38-1.66-.65-.93-.26-1.89-.57t-1.89-.74q-.93-.44-1.66-1.13-.73-.7-1.17-1.75-.44-1.04-.44-2.58 0-1.22.48-2.39.49-1.16 1.42-2.06t2.3-1.44q1.36-.54 3.13-.54 1.98 0 3.65.62 1.68.62 2.86 1.74"/></svg>