<svg xmlns="http://www.w3.org/2000/svg" width="100" height="100" viewBox="0 0 100 100"><rect width="100%" height="100%" fill="#dc2626"/><path fill="#ffffff" d="M23.69 55.895h3.13q.86 0 1.45-.2.58-.21.93-.55.35-.35.51-.81.15-.46.15-.98 0-.54-.17-.97t-.54-.73q-.37-.31-.95-.47t-1.4-.16h-3.11zm2.63-11.82h-2.63v4.81h2.46q1.59 0 2.4-.57.81-.58.81-1.83 0-1.3-.74-1.86-.73-.55-2.3-.55m-5.73-2.39h5.73q1.63 0 2.8.31 1.16.31 1.9.89.74.57 1.09 1.39.34.82.34 1.84 0 .58-.17 1.12-.17.53-.54 1-.36.47-.92.85-.55.37-1.32.64 3.42.77 3.42 3.7 0 1.06-.4 1.96-.4.89-1.17 1.54t-1.9 1.02-2.58.37h-6.28zm25.64 2.46h-7.38v4.92h6.23v2.48h-6.23v6.77h-3.11v-16.63h10.49zm12.15-.89-.77 1.46q-.14.24-.29.35-.16.11-.39.11-.24 0-.52-.18t-.67-.4-.92-.4q-.52-.17-1.23-.17-.65 0-1.13.15-.48.16-.81.43-.33.28-.49.66-.16.39-.16.85 0 .58.33.98.33.39.87.66.54.28 1.23.5t1.41.46q.73.25 1.42.58t1.23.83.86 1.22q.33.73.33 1.76 0 1.13-.38 2.11-.39.98-1.13 1.71t-1.81 1.15-2.45.42q-.79 0-1.56-.15-.78-.16-1.48-.44-.71-.29-1.33-.69-.62-.41-1.1-.9l.9-1.48q.12-.17.3-.27.19-.11.39-.11.29 0 .62.23.34.24.8.53.46.28 1.07.52.62.23 1.48.23 1.32 0 2.05-.62.72-.63.72-1.8 0-.66-.32-1.07-.33-.42-.87-.7t-1.23-.47q-.69-.2-1.41-.43-.71-.23-1.4-.55t-1.23-.84-.87-1.3q-.33-.77-.33-1.91 0-.91.37-1.77.36-.86 1.05-1.53t1.7-1.07 2.32-.4q1.48 0 2.72.46t2.11 1.29m18.69-1.57h2.34v16.63h-2.73v-10.74q0-.64.07-1.39l-5.03 9.44q-.35.68-1.09.68h-.44q-.73 0-1.09-.68l-5.08-9.48.06.75q.02.37.02.68v10.74h-2.73v-16.63h2.34q.2 0 .35.01t.27.06q.13.05.22.15.1.1.19.28l4.98 9.23q.2.37.36.76.17.39.33.8.16-.42.34-.82.17-.39.36-.76l4.91-9.21q.1-.18.2-.28t.22-.15.27-.06.36-.01"/></svg>