<svg xmlns="http://www.w3.org/2000/svg" width="100" height="100" viewBox="0 0 100 100"><rect width="100%" height="100%" fill="#dc2626"/><path fill="#ffffff" d="M21.42 54.355h2.32q.63 0 1.07-.15.43-.15.69-.41.26-.25.37-.59.12-.34.12-.72 0-.4-.13-.72t-.4-.55q-.27-.22-.7-.34t-1.03-.12h-2.31zm1.95-8.73h-1.95v3.55h1.82q1.18 0 1.78-.43.59-.42.59-1.35 0-.96-.54-1.37-.54-.4-1.7-.4m-4.23-1.77h4.23q1.21 0 2.07.23.85.23 1.4.65.55.43.81 1.03.25.6.25 1.36 0 .43-.13.83-.12.4-.39.74t-.68.62-.98.48q2.53.57 2.53 2.74 0 .78-.3 1.44-.3.67-.87 1.15-.56.48-1.4.75-.83.27-1.9.27h-4.64zm22.79 0h1.73v12.29h-2.01v-7.94q0-.48.05-1.03l-3.72 6.98q-.26.5-.81.5h-.32q-.54 0-.81-.5l-3.75-7 .04.55q.02.27.02.5v7.94h-2.02v-12.29h1.73q.15 0 .26.01t.2.04.16.11.14.2l3.68 6.83q.15.27.27.56t.24.6q.12-.32.25-.61.13-.3.27-.57l3.63-6.81q.07-.12.15-.2.07-.08.16-.11t.2-.04.26-.01m16.19 6.14q0 1.36-.45 2.51-.44 1.15-1.26 1.99t-1.96 1.31q-1.15.48-2.55.48t-2.55-.48q-1.14-.47-1.96-1.31t-1.27-1.99-.45-2.51q0-1.35.45-2.5t1.27-1.99 1.96-1.32q1.15-.47 2.55-.47.93 0 1.76.22.82.22 1.51.61.69.4 1.24.96.54.57.93 1.26.38.7.58 1.52.2.81.2 1.71m-2.34 0q0-1.01-.27-1.81t-.77-1.36q-.51-.57-1.22-.86-.72-.3-1.62-.3t-1.62.3q-.72.29-1.23.86-.5.56-.77 1.36-.28.8-.28 1.81 0 1.02.28 1.82.27.8.77 1.36.51.56 1.23.85.72.3 1.62.3t1.62-.3q.71-.29 1.22-.85.5-.56.77-1.36t.27-1.82m12.94-6.14v1.88h-3.71v10.41h-2.28v-10.41h-3.71v-1.88zm4.2 7.65h3.91l-1.5-4.09q-.11-.27-.23-.65-.12-.37-.24-.8-.11.43-.23.81t-.23.66zm3.12-7.65 4.82 12.29H79.1q-.3 0-.49-.15-.18-.15-.28-.37l-.92-2.51h-5.09l-.92 2.51q-.06.2-.26.36t-.48.16h-1.79l4.84-12.29z"/></svg>