<svg xmlns="http://www.w3.org/2000/svg" width="100" height="100" viewBox="0 0 100 100"><rect width="100%" height="100%" fill="#dc2626"/><path fill="#ffffff" d="M31.335 50q0 1.43-.47 2.63-.48 1.2-1.34 2.06-.87.87-2.08 1.34-1.22.48-2.7.48h-4.96V43.5h4.96q1.48 0 2.7.48 1.21.48 2.08 1.34.86.86 1.34 2.05.47 1.2.47 2.63m-2.48 0q0-1.07-.28-1.92-.29-.85-.82-1.44-.54-.59-1.3-.9-.76-.32-1.71-.32h-2.53v9.16h2.53q.95 0 1.71-.31.76-.32 1.3-.91.53-.59.82-1.44.28-.85.28-1.92m20.03-6.5h1.9l-4.04 13.01h-2.18l-2.85-8.89q-.12-.33-.21-.79-.06.22-.11.42-.06.2-.12.37l-2.87 8.89h-2.2l-4.03-13.01h2.03q.31 0 .52.14.21.15.29.4l2.21 7.79q.07.29.14.63.07.33.14.7.07-.38.16-.71.08-.33.18-.62l2.56-7.79q.07-.2.28-.37t.52-.17h.71q.31 0 .51.15t.3.39l2.55 7.79q.19.56.34 1.29.12-.71.26-1.29l2.21-7.79q.06-.22.28-.38t.52-.16m11.04 1.22-.6 1.14q-.11.19-.23.28-.13.08-.31.08t-.41-.14q-.22-.14-.52-.31-.31-.17-.72-.31t-.96-.14q-.51 0-.89.12-.37.13-.63.34-.26.22-.38.52-.13.3-.13.66 0 .46.26.77.25.3.68.52.42.21.96.38l1.11.37q.56.19 1.1.45t.97.65q.42.39.68.96.25.56.25 1.37 0 .88-.3 1.65t-.88 1.35q-.58.57-1.42.9-.84.32-1.92.32-.62 0-1.22-.12t-1.16-.34q-.55-.23-1.04-.54-.48-.32-.86-.71l.71-1.16q.09-.12.24-.21.14-.08.3-.08.23 0 .49.18t.62.41q.36.22.84.41.48.18 1.16.18 1.03 0 1.6-.49t.57-1.41q0-.51-.26-.83-.26-.33-.68-.55t-.96-.37-1.1-.33-1.1-.44q-.54-.25-.96-.65-.43-.41-.68-1.01-.26-.61-.26-1.5 0-.71.28-1.39.29-.67.83-1.2.54-.52 1.33-.83.79-.32 1.82-.32 1.15 0 2.12.36t1.66 1.01m10.55.7h-5.78v3.85h4.88v1.94h-4.88v5.3h-2.43V43.5h8.21zm9.51-.7-.6 1.14q-.11.19-.23.28-.12.08-.3.08-.19 0-.41-.14t-.53-.31-.72-.31-.96-.14q-.51 0-.89.12-.37.13-.63.34-.26.22-.38.52-.13.3-.13.66 0 .46.26.77.25.3.68.52.42.21.96.38l1.11.37q.56.19 1.1.45t.97.65q.42.39.68.96.25.56.25 1.37 0 .88-.3 1.65t-.88 1.35q-.58.57-1.42.9-.83.32-1.91.32-.63 0-1.23-.12t-1.16-.34q-.55-.23-1.03-.54-.49-.32-.87-.71l.71-1.16q.09-.12.24-.21.14-.08.3-.08.23 0 .49.18t.62.41q.36.22.84.41.48.18 1.16.18 1.03 0 1.6-.49t.57-1.41q0-.51-.26-.83-.26-.33-.68-.55t-.96-.37-1.1-.33-1.1-.44q-.54-.25-.96-.65-.42-.41-.68-1.01-.26-.61-.26-1.5 0-.71.29-1.39.28-.67.82-1.2.54-.52 1.33-.83.79-.32 1.82-.32 1.15 0 2.12.36.98.36 1.66 1.01"/></svg>