<svg xmlns="http://www.w3.org/2000/svg" width="100" height="100" viewBox="0 0 100 100"><rect width="100%" height="100%" fill="#dc2626"/><path fill="#ffffff" d="M35.26 42.105h-9.95v6.64h8.4v3.33h-8.4v9.13h-4.18v-22.41h14.13zm23.32 7.89q0 2.47-.83 4.53-.82 2.06-2.3 3.55-1.49 1.49-3.59 2.31-2.09.82-4.65.82h-8.54v-22.41h8.54q2.56 0 4.65.83 2.1.83 3.59 2.31 1.48 1.48 2.3 3.54.83 2.06.83 4.52m-4.28 0q0-1.84-.49-3.31-.49-1.46-1.41-2.48-.92-1.01-2.23-1.55-1.31-.55-2.96-.55h-4.35v15.78h4.35q1.65 0 2.96-.54t2.23-1.56q.92-1.01 1.41-2.48.49-1.46.49-3.31m12.12 7.96h4.21q1.17 0 1.96-.28t1.26-.75q.47-.46.68-1.08t.21-1.32q0-.73-.23-1.31t-.73-.99q-.49-.41-1.28-.63-.78-.22-1.88-.22h-4.2zm3.55-15.94h-3.55v6.48h3.32q2.14 0 3.23-.77 1.09-.78 1.09-2.47 0-1.75-.99-2.5-.99-.74-3.1-.74m-7.72-3.22h7.72q2.2 0 3.77.42 1.56.41 2.56 1.19 1 .77 1.46 1.87.47 1.11.47 2.48 0 .8-.23 1.52-.24.72-.72 1.34-.49.63-1.24 1.14-.76.51-1.79.87 4.62 1.04 4.62 4.99 0 1.43-.55 2.64-.54 1.21-1.58 2.08-1.04.88-2.56 1.37-1.51.5-3.47.5h-8.46z"/></svg>