<svg xmlns="http://www.w3.org/2000/svg" width="100" height="100" viewBox="0 0 100 100"><rect width="100%" height="100%" fill="#dc2626"/><path fill="#ffffff" d="M28.39 43.855h2.3v12.29h-2.3v-5.37h-5.77v5.37h-2.29v-12.29h2.29v5.29h5.77zm15.95 6.14q0 1.36-.45 2.49t-1.27 1.94q-.81.82-1.96 1.27t-2.55.45h-4.68v-12.29h4.68q1.4 0 2.55.45 1.15.46 1.96 1.27.82.81 1.27 1.94t.45 2.48m-2.35 0q0-1.01-.26-1.81-.27-.8-.78-1.36-.5-.56-1.22-.85-.72-.3-1.62-.3h-2.39v8.65h2.39q.9 0 1.62-.3.72-.29 1.22-.85.51-.56.78-1.36.26-.8.26-1.82m6.95 1.51h3.91l-1.5-4.09q-.11-.27-.23-.65-.12-.37-.23-.8-.12.43-.23.81-.12.38-.23.66zm3.12-7.65 4.83 12.29h-1.77q-.3 0-.49-.15-.18-.15-.28-.37l-.91-2.51h-5.1l-.91 2.51q-.07.2-.27.36-.19.16-.48.16h-1.79l4.84-12.29zm17.02 6.14q0 1.36-.46 2.49-.45 1.13-1.26 1.94-.82.82-1.97 1.27-1.14.45-2.55.45h-4.68v-12.29h4.68q1.41 0 2.55.45 1.15.46 1.97 1.27.81.81 1.26 1.94.46 1.13.46 2.48m-2.35 0q0-1.01-.27-1.81t-.77-1.36q-.51-.56-1.23-.85-.71-.3-1.62-.3h-2.38v8.65h2.38q.91 0 1.62-.3.72-.29 1.23-.85.5-.56.77-1.36t.27-1.82m12.94-6.14v1.88h-3.7v10.41h-2.29v-10.41h-3.7v-1.88z"/></svg>