<svg xmlns="http://www.w3.org/2000/svg" width="100" height="100" viewBox="0 0 100 100"><rect width="100%" height="100%" fill="#dc2626"/><path fill="#ffffff" d="M24.065 42.04v15.91h-2.97V42.04zm6.51 8h2.21q.82 0 1.42-.2.61-.21 1.01-.59.4-.37.6-.92.2-.54.2-1.21 0-.64-.2-1.16t-.59-.88q-.4-.36-1.01-.56-.6-.19-1.43-.19h-2.21zm-2.96-8h5.17q1.6 0 2.77.38 1.16.37 1.92 1.04t1.13 1.61q.37.93.37 2.05 0 1.15-.39 2.11-.38.97-1.15 1.66t-1.93 1.08q-1.16.38-2.72.38h-2.21v5.6h-2.96zm24.55 12.16q.24 0 .42.19l1.17 1.26q-.97 1.2-2.38 1.84t-3.39.64q-1.78 0-3.19-.61-1.41-.6-2.41-1.68t-1.54-2.58q-.53-1.49-.53-3.26 0-1.8.57-3.29t1.61-2.56q1.04-1.08 2.48-1.68t3.19-.6q1.74 0 3.09.57t2.29 1.5l-.99 1.37q-.09.13-.22.23-.14.1-.38.1-.17 0-.34-.09-.18-.1-.39-.23-.21-.14-.48-.31-.28-.16-.64-.3t-.84-.23-1.11-.09q-1.07 0-1.95.38-.89.38-1.52 1.1-.64.72-.99 1.76-.36 1.04-.36 2.37 0 1.34.38 2.38.38 1.05 1.03 1.76.65.72 1.53 1.1t1.89.38q.61 0 1.1-.07.49-.06.9-.21.41-.14.78-.37.37-.22.73-.55.11-.1.23-.16t.26-.06m6.58-4.16h2.22q.81 0 1.41-.2.61-.21 1.01-.59.4-.37.6-.92.2-.54.2-1.21 0-.64-.2-1.16t-.59-.88q-.4-.36-1-.56-.61-.19-1.43-.19h-2.22zm-2.95-8h5.17q1.59 0 2.76.38 1.16.37 1.92 1.04t1.13 1.61q.37.93.37 2.05 0 1.15-.39 2.11-.38.97-1.15 1.66t-1.93 1.08q-1.16.38-2.71.38h-2.22v5.6h-2.95zm22.82 1.5-.74 1.4q-.13.23-.28.33-.15.11-.37.11-.23 0-.5-.17t-.64-.38-.87-.38-1.19-.17q-.61 0-1.07.15-.47.14-.78.41-.31.26-.47.63-.15.37-.15.81 0 .56.31.93.32.38.83.64.52.27 1.18.47.66.21 1.35.45.7.24 1.36.55t1.17.79q.52.48.83 1.17.32.7.32 1.69 0 1.08-.37 2.02t-1.08 1.63q-.71.7-1.73 1.1-1.03.41-2.35.41-.75 0-1.49-.15t-1.42-.43q-.67-.27-1.27-.66-.59-.38-1.05-.85l.87-1.42q.11-.16.28-.26.18-.11.38-.11.27 0 .59.23t.76.5q.44.28 1.03.5.59.23 1.41.23 1.27 0 1.96-.6t.69-1.72q0-.63-.31-1.03-.31-.39-.83-.66t-1.18-.46-1.34-.41-1.34-.52q-.66-.31-1.18-.81-.52-.49-.83-1.24-.31-.74-.31-1.83 0-.87.34-1.69.35-.83 1.01-1.46.66-.64 1.63-1.03.97-.38 2.22-.38 1.41 0 2.6.44 1.18.44 2.02 1.23"/></svg>