<svg xmlns="http://www.w3.org/2000/svg" width="100" height="100" viewBox="0 0 100 100"><rect width="100%" height="100%" fill="#dc2626"/><path fill="#ffffff" d="M32.39 41.325h3.24v17.35h-3.24v-7.58h-8.14v7.58h-3.24v-17.35h3.24v7.46h8.14zm10.34 14.69h6.93v2.66H39.5v-17.35h3.23zm12.88-3.89h5.52l-2.11-5.77q-.15-.39-.32-.92-.17-.52-.34-1.14-.15.62-.32 1.15t-.33.93zm4.41-10.8 6.81 17.35h-2.49q-.42 0-.69-.21-.26-.21-.39-.52l-1.3-3.54h-7.19l-1.29 3.54q-.1.27-.37.5-.28.23-.69.23H49.9l6.83-17.35zm18.66 1.63-.81 1.52q-.14.26-.3.37t-.4.11q-.26 0-.55-.18-.29-.19-.7-.42-.41-.22-.96-.41-.54-.19-1.29-.19-.67 0-1.17.17-.51.16-.85.45-.34.28-.51.69-.17.4-.17.88 0 .61.35 1.02.34.41.9.69.57.29 1.29.52t1.47.49q.76.25 1.48.6.72.34 1.28.86.57.52.91 1.28.34.75.34 1.83 0 1.18-.4 2.21-.4 1.02-1.18 1.78-.77.77-1.89 1.2-1.11.44-2.55.44-.83 0-1.64-.16-.8-.16-1.54-.46t-1.38-.72q-.65-.42-1.16-.94l.95-1.55q.12-.16.31-.28.2-.11.41-.11.3 0 .65.24.35.25.83.55t1.12.55q.64.24 1.54.24 1.38 0 2.14-.65.75-.66.75-1.88 0-.68-.34-1.12-.34-.43-.9-.72-.57-.3-1.29-.5t-1.46-.44q-.75-.24-1.47-.58t-1.28-.88-.91-1.35q-.34-.81-.34-1.99 0-.95.38-1.85t1.1-1.6q.72-.69 1.77-1.11 1.06-.42 2.43-.42 1.53 0 2.83.48t2.21 1.34"/></svg>