<svg xmlns="http://www.w3.org/2000/svg" width="100" height="100" viewBox="0 0 100 100"><rect width="100%" height="100%" fill="#dc2626"/><path fill="#ffffff" d="M46.55 39.885h2.96l-6.29 20.24h-3.4l-4.42-13.83q-.19-.51-.34-1.23-.08.35-.17.65-.08.31-.18.58l-4.47 13.83h-3.41l-6.27-20.24h3.15q.49 0 .81.23.33.23.45.62l3.44 12.11q.11.45.22.97.1.53.21 1.1.12-.59.25-1.1.13-.52.29-.97l3.97-12.11q.11-.32.44-.59.33-.26.81-.26h1.1q.49 0 .8.23.31.24.46.62l3.97 12.11q.29.87.53 2 .18-1.1.4-2l3.45-12.11q.08-.35.42-.6.35-.25.82-.25m17.17 1.9-.94 1.78q-.17.29-.36.42-.19.14-.47.14-.29 0-.63-.22-.35-.22-.82-.48-.48-.27-1.12-.48-.63-.22-1.5-.22-.78 0-1.37.19t-.99.52q-.4.34-.59.81-.2.47-.2 1.03 0 .71.4 1.19.4.47 1.06.81.65.33 1.49.6t1.73.57q.88.3 1.72.7t1.5 1.01q.65.6 1.05 1.49.4.88.4 2.14 0 1.37-.47 2.57-.47 1.19-1.37 2.08t-2.2 1.4q-1.31.51-2.99.51-.96 0-1.9-.18-.94-.19-1.8-.54t-1.62-.84q-.75-.49-1.34-1.1l1.11-1.8q.14-.2.36-.33t.48-.13q.35 0 .75.28.41.29.97.64t1.31.64q.75.28 1.8.28 1.61 0 2.49-.76t.88-2.19q0-.8-.4-1.3-.4-.51-1.06-.85-.65-.34-1.49-.58t-1.71-.52-1.71-.67-1.5-1.02-1.06-1.58q-.39-.94-.39-2.33 0-1.1.44-2.15t1.28-1.87q.84-.81 2.07-1.3t2.83-.49q1.79 0 3.3.56t2.58 1.57m15.36 0-.94 1.78q-.17.29-.36.42-.19.14-.47.14-.29 0-.64-.22-.34-.22-.81-.48-.48-.27-1.12-.48-.63-.22-1.5-.22-.79 0-1.37.19-.59.19-.99.52-.4.34-.6.81-.19.47-.19 1.03 0 .71.4 1.19.4.47 1.05.81.66.33 1.5.6t1.72.57q.89.3 1.73.7t1.49 1.01q.66.6 1.06 1.49.4.88.4 2.14 0 1.37-.47 2.57-.47 1.19-1.37 2.08t-2.21 1.4q-1.3.51-2.98.51-.96 0-1.9-.18-.94-.19-1.8-.54t-1.62-.84q-.75-.49-1.34-1.1l1.1-1.8q.14-.2.37-.33.22-.13.47-.13.35 0 .76.28.41.29.97.64t1.31.64q.74.28 1.79.28 1.61 0 2.5-.76.88-.76.88-2.19 0-.8-.4-1.3-.4-.51-1.06-.85t-1.5-.58-1.7-.52q-.87-.28-1.71-.67t-1.5-1.02-1.06-1.58q-.4-.94-.4-2.33 0-1.1.45-2.15.44-1.05 1.28-1.87.84-.81 2.07-1.3t2.83-.49q1.79 0 3.3.56t2.58 1.57"/></svg>