<svg xmlns="http://www.w3.org/2000/svg" width="100" height="100" viewBox="0 0 100 100"><rect width="100%" height="100%" fill="#dc2626"/><path fill="#ffffff" d="M31.635 44.145h-7.38v4.61h5.82v2.38h-5.82v4.71h7.38v2.47h-10.49v-16.63h10.49zm18.6 5.86q0 1.82-.61 3.38-.6 1.56-1.71 2.7-1.1 1.14-2.65 1.78-1.55.63-3.45.63-1.89 0-3.44-.63-1.55-.64-2.66-1.78t-1.72-2.7-.61-3.38q0-1.83.61-3.39t1.72-2.7 2.66-1.77q1.55-.64 3.44-.64 1.26 0 2.38.29 1.11.29 2.05.83.93.53 1.67 1.3.74.76 1.26 1.71.52.94.79 2.04.27 1.11.27 2.33m-3.17 0q0-1.37-.36-2.46-.37-1.09-1.05-1.85-.68-.75-1.65-1.16-.97-.4-2.19-.4t-2.19.4q-.97.41-1.66 1.16-.68.76-1.05 1.85t-.37 2.46q0 1.36.37 2.45t1.05 1.84q.69.75 1.66 1.16.97.4 2.19.4t2.19-.4q.97-.41 1.65-1.16t1.05-1.84q.36-1.09.36-2.45m9.39 2.03h5.29l-2.03-5.53q-.15-.37-.31-.87-.16-.51-.32-1.1-.15.59-.31 1.1t-.31.89zm4.22-10.35 6.53 16.63h-2.39q-.4 0-.66-.2-.25-.2-.38-.5l-1.24-3.39h-6.89l-1.24 3.39q-.09.26-.36.48-.26.22-.65.22h-2.42l6.55-16.63zm17.88 1.57-.77 1.46q-.14.24-.29.35-.16.11-.39.11-.24 0-.52-.18t-.67-.4q-.4-.22-.92-.4-.52-.17-1.23-.17-.65 0-1.13.15-.48.16-.81.43-.33.28-.49.66-.16.39-.16.85 0 .58.33.98.32.39.86.66.54.28 1.23.5t1.42.46q.72.25 1.41.58t1.23.83.87 1.22q.33.73.33 1.76 0 1.13-.39 2.11-.38.98-1.12 1.71t-1.81 1.15-2.45.42q-.8 0-1.57-.15-.77-.16-1.48-.44-.7-.29-1.32-.69-.62-.41-1.11-.9l.91-1.48q.12-.17.3-.27.18-.11.39-.11.29 0 .62.23.34.24.8.53.46.28 1.07.52.62.23 1.48.23 1.32 0 2.05-.62.72-.63.72-1.8 0-.66-.33-1.07-.33-.42-.87-.7t-1.23-.47q-.69-.2-1.4-.43t-1.4-.55-1.23-.84-.87-1.3q-.33-.77-.33-1.91 0-.91.36-1.77.37-.86 1.06-1.53t1.7-1.07 2.32-.4q1.47 0 2.71.46 1.25.46 2.12 1.29"/></svg>