<svg xmlns="http://www.w3.org/2000/svg" width="100" height="100" viewBox="0 0 100 100"><rect width="100%" height="100%" fill="#dc2626"/><path fill="#ffffff" d="M37.455 42.77h2.11l-4.5 14.46h-2.43l-3.16-9.88q-.13-.36-.24-.88-.05.25-.12.47-.06.22-.13.41l-3.19 9.88h-2.43l-4.48-14.46h2.24q.35 0 .59.17.23.16.31.44l2.46 8.65q.08.32.16.7.08.37.15.78.08-.42.18-.79.09-.37.2-.69l2.84-8.65q.08-.23.32-.42.23-.19.57-.19h.79q.35 0 .57.17t.33.44l2.84 8.65q.2.62.37 1.43.13-.79.29-1.43l2.47-8.65q.05-.25.3-.43t.59-.18m13 2.14h-6.42v4.28h5.42v2.15h-5.42v5.89h-2.7V42.77h9.12zm4.9-2.14v14.46h-2.7V42.77zm6.27 9h4.6l-1.76-4.81q-.13-.32-.27-.76t-.28-.95q-.13.51-.27.95-.14.45-.27.78zm3.67-9 5.68 14.46h-2.07q-.36 0-.58-.18-.21-.17-.33-.43l-1.08-2.95h-5.99l-1.08 2.95q-.08.23-.31.42t-.57.19h-2.1l5.69-14.46zm15.55 1.36-.66 1.27q-.13.21-.26.3-.13.1-.34.1t-.45-.16q-.25-.15-.59-.34t-.79-.35q-.46-.15-1.07-.15-.57 0-.99.14-.42.13-.7.37-.29.24-.43.57-.14.34-.14.74 0 .51.29.85.28.34.76.58.46.24 1.07.43.59.19 1.22.4.64.22 1.24.51.59.28 1.07.71.47.44.75 1.07.29.63.29 1.53 0 .98-.34 1.84-.34.85-.98 1.48-.64.64-1.57 1-.93.37-2.14.37-.68 0-1.36-.13-.66-.14-1.28-.39t-1.15-.6q-.55-.35-.97-.78l.79-1.29q.11-.14.27-.24.16-.09.34-.09.25 0 .53.2.29.21.69.46t.94.45q.53.21 1.28.21 1.15 0 1.78-.54.63-.55.63-1.57 0-.57-.28-.93-.29-.36-.75-.61-.48-.24-1.07-.41-.61-.17-1.23-.37-.61-.2-1.22-.48-.6-.28-1.07-.73t-.75-1.12q-.29-.68-.29-1.67 0-.79.32-1.54.31-.75.92-1.33.59-.58 1.48-.93.87-.35 2.02-.35 1.28 0 2.35.4 1.08.4 1.84 1.12"/></svg>