<svg xmlns="http://www.w3.org/2000/svg" width="100" height="100" viewBox="0 0 100 100"><rect width="100%" height="100%" fill="#dc2626"/><path fill="#ffffff" d="M29.645 43.5h2.13v13.01h-1.24q-.29 0-.48-.09-.2-.1-.38-.32l-6.79-8.68q.05.59.05 1.1v7.99h-2.13V43.5h1.27q.15 0 .26.01.12.01.2.05.09.04.17.12t.18.2l6.82 8.71q-.03-.31-.04-.62-.02-.3-.02-.56zm12.56 1.22-.6 1.14q-.11.19-.23.28-.12.08-.3.08-.19 0-.41-.14t-.53-.31q-.3-.17-.71-.31t-.97-.14q-.51 0-.88.12-.38.13-.64.34-.25.22-.38.52t-.13.66q0 .46.26.77.26.3.68.52.42.21.96.38l1.11.37q.57.19 1.11.45t.96.65.68.96q.26.56.26 1.37 0 .88-.31 1.65-.3.77-.88 1.35-.58.57-1.42.9-.83.32-1.91.32-.62 0-1.23-.12-.6-.12-1.15-.34-.56-.23-1.04-.54-.49-.32-.87-.71l.71-1.16q.09-.12.24-.21.14-.08.3-.08.23 0 .49.18t.62.41q.36.22.84.41.48.18 1.16.18 1.03 0 1.6-.49t.57-1.41q0-.51-.26-.83-.25-.33-.68-.55-.42-.22-.96-.37t-1.1-.33-1.1-.44q-.54-.25-.96-.65-.42-.41-.68-1.01-.26-.61-.26-1.5 0-.71.29-1.39.28-.67.82-1.2.54-.52 1.33-.83.8-.32 1.82-.32 1.15 0 2.13.36.97.36 1.65 1.01m14.63-1.22h1.82v13.01h-2.13V48.1q0-.5.05-1.09l-3.93 7.39q-.28.53-.85.53h-.35q-.57 0-.85-.53l-3.98-7.41q.03.29.05.58.01.29.01.53v8.41h-2.13V43.5h2.11q.11.01.21.05.09.04.17.12t.15.21l3.9 7.23q.15.29.28.59.13.31.26.63.12-.33.26-.64.13-.31.28-.6l3.85-7.21q.07-.13.15-.21t.18-.12q.09-.04.21-.05zm12.25 1.22-.6 1.14q-.11.19-.23.28-.12.08-.3.08-.19 0-.41-.14t-.53-.31q-.3-.17-.71-.31t-.97-.14q-.5 0-.88.12-.38.13-.63.34-.26.22-.39.52-.12.3-.12.66 0 .46.25.77.26.3.68.52.43.21.97.38.54.18 1.1.37.57.19 1.11.45t.96.65q.43.39.68.96.26.56.26 1.37 0 .88-.3 1.65t-.88 1.35q-.59.57-1.42.9-.84.32-1.92.32-.62 0-1.22-.12-.61-.12-1.16-.34-.55-.23-1.04-.54-.49-.32-.86-.71l.71-1.16q.09-.12.23-.21.15-.08.31-.08.22 0 .48.18t.62.41q.36.22.85.41.48.18 1.15.18 1.04 0 1.6-.49.57-.49.57-1.41 0-.51-.25-.83-.26-.33-.68-.55-.43-.22-.97-.37t-1.1-.33q-.55-.18-1.09-.44-.54-.25-.97-.65-.42-.41-.68-1.01-.25-.61-.25-1.5 0-.71.28-1.39.28-.67.82-1.2.54-.52 1.34-.83.79-.32 1.81-.32 1.16 0 2.13.36t1.65 1.01m9.88 0-.61 1.14q-.1.19-.22.28-.13.08-.31.08-.19 0-.41-.14t-.52-.31q-.31-.17-.72-.31t-.97-.14q-.5 0-.88.12-.38.13-.63.34-.26.22-.38.52-.13.3-.13.66 0 .46.26.77.25.3.68.52.42.21.96.38l1.11.37q.56.19 1.1.45t.97.65q.42.39.68.96.25.56.25 1.37 0 .88-.3 1.65t-.88 1.35q-.58.57-1.42.9-.84.32-1.92.32-.62 0-1.22-.12t-1.16-.34q-.55-.23-1.04-.54-.48-.32-.86-.71l.71-1.16q.09-.12.23-.21.15-.08.31-.08.23 0 .49.18t.62.41q.36.22.84.41.48.18 1.16.18 1.03 0 1.6-.49.56-.49.56-1.41 0-.51-.25-.83-.26-.33-.68-.55t-.96-.37-1.1-.33-1.1-.44q-.54-.25-.96-.65-.43-.41-.68-1.01-.26-.61-.26-1.5 0-.71.28-1.39.29-.67.83-1.2.54-.52 1.33-.83.79-.32 1.82-.32 1.15 0 2.12.36t1.66 1.01"/></svg>