<svg xmlns="http://www.w3.org/2000/svg" width="100" height="100" viewBox="0 0 100 100"><rect width="100%" height="100%" fill="#dc2626"/><path fill="#ffffff" d="M39.15 50q0 1.99-.66 3.68-.66 1.7-1.86 2.93-1.2 1.24-2.88 1.94-1.69.69-3.75.69-2.05 0-3.74-.69-1.69-.7-2.9-1.94-1.2-1.23-1.86-2.93-.67-1.69-.67-3.68t.67-3.68q.66-1.69 1.86-2.93 1.21-1.24 2.9-1.93 1.69-.7 3.74-.7 1.37 0 2.58.32 1.22.32 2.23.9t1.82 1.42q.8.83 1.37 1.85.56 1.03.85 2.23.3 1.2.3 2.52m-3.44 0q0-1.49-.4-2.67t-1.14-2q-.74-.83-1.79-1.27-1.06-.43-2.38-.43-1.33 0-2.39.43-1.05.44-1.8 1.27-.74.82-1.14 2t-.4 2.67.4 2.67 1.14 2q.75.82 1.8 1.26 1.06.43 2.39.43 1.32 0 2.38-.43 1.05-.44 1.79-1.26t1.14-2 .4-2.67m27.81-9.03h2.64l-5.61 18.07h-3.04l-3.95-12.35q-.16-.45-.3-1.1-.08.31-.15.59-.08.27-.16.51l-3.99 12.35h-3.05l-5.6-18.07h2.81q.44 0 .73.2.3.21.4.56l3.07 10.81q.1.4.19.87.1.47.2.98.1-.53.22-.99t.25-.86l3.55-10.81q.1-.29.4-.53.29-.23.72-.23h.98q.44 0 .72.21.27.21.41.55l3.54 10.81q.26.77.47 1.79.16-.99.36-1.79l3.08-10.81q.07-.32.38-.54t.73-.22m15.33 1.69-.84 1.59q-.15.26-.32.38t-.42.12q-.26 0-.57-.19-.3-.2-.73-.43-.42-.24-.99-.43-.57-.2-1.35-.2-.7 0-1.22.17-.53.17-.88.47-.36.3-.53.72-.18.42-.18.92 0 .63.36 1.06.35.42.94.72t1.34.54 1.54.51q.78.27 1.53.62.75.36 1.34.9.59.55.95 1.33.35.79.35 1.92 0 1.22-.42 2.29t-1.22 1.86q-.81.8-1.97 1.25-1.16.46-2.66.46-.87 0-1.7-.17-.84-.17-1.61-.48t-1.44-.75q-.68-.44-1.2-.98l.98-1.61q.13-.17.33-.29t.42-.12q.32 0 .68.26.36.25.86.56.5.32 1.17.57.67.26 1.61.26 1.43 0 2.22-.68t.79-1.96q0-.71-.36-1.16-.35-.45-.94-.76-.59-.3-1.34-.52-.75-.21-1.52-.46-.78-.25-1.53-.6t-1.34-.91q-.58-.56-.94-1.41-.36-.84-.36-2.08 0-.99.4-1.92.39-.94 1.14-1.67.75-.72 1.85-1.16t2.53-.44q1.6 0 2.95.5t2.3 1.4"/></svg>