<svg xmlns="http://www.w3.org/2000/svg" width="100" height="100" viewBox="0 0 100 100"><rect width="100%" height="100%" fill="#dc2626"/><path fill="#ffffff" d="M26.195 50.07h3.31q1.22 0 2.13-.31.91-.3 1.51-.87t.9-1.39.3-1.82q0-.96-.3-1.73-.3-.78-.89-1.32-.59-.55-1.5-.84t-2.15-.29h-3.31zm-4.44-12h7.75q2.4 0 4.14.56 1.75.56 2.89 1.57t1.69 2.41q.56 1.4.56 3.07 0 1.73-.58 3.17-.58 1.45-1.73 2.49-1.16 1.04-2.9 1.61-1.74.58-4.07.58h-3.31v8.4h-4.44zm36.81 18.23q.36 0 .64.28l1.75 1.9q-1.45 1.8-3.57 2.76-2.12.95-5.09.95-2.66 0-4.78-.9-2.12-.91-3.62-2.53t-2.3-3.86-.8-4.9q0-2.69.86-4.92.85-2.24 2.41-3.86 1.56-1.61 3.73-2.51 2.16-.9 4.78-.9 2.61 0 4.63.85 2.02.86 3.44 2.25l-1.49 2.06q-.13.2-.33.35-.21.15-.57.15-.25 0-.52-.14-.26-.14-.57-.35-.32-.21-.73-.45-.41-.25-.96-.46-.54-.2-1.26-.34t-1.66-.14q-1.6 0-2.93.56-1.32.57-2.28 1.65-.96 1.09-1.49 2.64-.52 1.56-.52 3.56 0 2.01.57 3.58t1.54 2.64 2.29 1.64 2.84.57q.91 0 1.64-.1.74-.1 1.35-.31.62-.22 1.18-.55.55-.34 1.09-.84.17-.15.35-.24t.38-.09m19.26-15.99-1.11 2.1q-.2.35-.42.5-.22.16-.55.16-.35 0-.75-.26-.41-.25-.97-.56-.56-.32-1.31-.57-.75-.26-1.78-.26-.92 0-1.61.22-.7.23-1.17.62-.47.4-.7.95t-.23 1.21q0 .85.47 1.41t1.25.95q.77.4 1.76.71.99.32 2.03.67 1.04.36 2.03.83t1.77 1.18q.77.72 1.24 1.76t.47 2.53q0 1.61-.55 3.02t-1.62 2.46q-1.06 1.05-2.59 1.65-1.54.6-3.52.6-1.14 0-2.24-.22-1.11-.22-2.12-.63-1.02-.42-1.91-.99-.89-.58-1.58-1.29l1.3-2.13q.17-.23.43-.39.26-.15.56-.15.41 0 .89.33.48.34 1.14.75.66.42 1.54.76.89.33 2.12.33 1.9 0 2.94-.9 1.04-.89 1.04-2.58 0-.94-.47-1.53-.47-.6-1.25-1-.77-.4-1.76-.69-.99-.28-2.02-.61-1.02-.33-2.01-.79t-1.76-1.2q-.78-.74-1.25-1.86-.47-1.11-.47-2.75 0-1.3.52-2.54.52-1.23 1.51-2.19t2.44-1.54q1.45-.57 3.34-.57 2.11 0 3.89.66t3.04 1.84"/></svg>