<svg xmlns="http://www.w3.org/2000/svg" width="100" height="100" viewBox="0 0 100 100"><rect width="100%" height="100%" fill="#dc2626"/><path fill="#ffffff" d="m28.375 45.005-.57 1.08q-.1.18-.22.26-.11.08-.28.08-.18 0-.39-.13t-.5-.29-.67-.29q-.39-.14-.92-.14-.47 0-.83.12-.36.11-.6.32-.24.2-.36.49-.12.28-.12.62 0 .43.24.72t.64.5q.4.2.91.36t1.05.35q.53.18 1.04.42t.91.61.65.91q.24.53.24 1.3 0 .83-.29 1.56-.28.73-.83 1.27t-1.34.85-1.81.31q-.59 0-1.16-.12-.56-.11-1.09-.33-.52-.21-.98-.51-.46-.29-.82-.66l.68-1.1q.08-.11.22-.2.13-.08.29-.08.21 0 .46.18.24.17.58.38.34.22.8.39.45.18 1.09.18.98 0 1.51-.47.54-.46.54-1.33 0-.48-.24-.79-.25-.3-.65-.51t-.91-.36q-.51-.14-1.03-.31-.53-.17-1.04-.41t-.91-.62-.64-.95q-.24-.58-.24-1.42 0-.67.26-1.31.27-.64.78-1.13t1.26-.79 1.72-.3q1.09 0 2 .34.92.34 1.57.95m13.93 4.99q0 1.36-.45 2.51-.44 1.15-1.26 1.99t-1.96 1.31q-1.15.48-2.55.48t-2.54-.48q-1.15-.47-1.97-1.31t-1.27-1.99-.45-2.51q0-1.35.45-2.5t1.27-1.99 1.97-1.32q1.14-.47 2.54-.47.93 0 1.76.22.82.22 1.51.61.69.4 1.24.96.54.57.93 1.26.38.7.58 1.52.2.81.2 1.71m-2.34 0q0-1.01-.27-1.81t-.77-1.36q-.51-.57-1.22-.86-.72-.3-1.62-.3t-1.62.3q-.72.29-1.23.86-.5.56-.77 1.36-.28.8-.28 1.81 0 1.02.28 1.82.27.8.77 1.36.51.56 1.23.85.72.3 1.62.3t1.62-.3q.71-.29 1.22-.85.5-.56.77-1.36t.27-1.82m12.94-6.14v1.88h-3.71v10.41h-2.28v-10.41h-3.71v-1.88zm16.17 0h1.8l-3.82 12.29h-2.06l-2.69-8.4q-.11-.3-.2-.75l-.11.4q-.05.19-.11.35l-2.71 8.4h-2.07l-3.81-12.29h1.91q.3 0 .5.14t.27.38l2.09 7.35q.07.27.13.59t.13.67q.07-.36.15-.67.08-.32.17-.59l2.42-7.35q.07-.2.27-.36t.48-.16h.68q.29 0 .48.14.19.15.28.38l2.41 7.35q.18.53.32 1.22.11-.68.25-1.22l2.09-7.35q.05-.22.26-.37.2-.15.49-.15m10.42 1.15-.56 1.08q-.11.18-.22.26-.12.08-.29.08t-.38-.13-.5-.29-.68-.29q-.38-.14-.91-.14-.48 0-.83.12-.36.11-.6.32-.24.2-.36.49-.12.28-.12.62 0 .43.24.72t.64.5q.4.2.91.36t1.05.35q.53.18 1.04.42t.91.61.64.91q.25.53.25 1.3 0 .83-.29 1.56-.28.73-.83 1.27t-1.34.85-1.81.31q-.59 0-1.16-.12-.57-.11-1.09-.33-.52-.21-.98-.51-.46-.29-.82-.66l.67-1.1q.09-.11.23-.2.13-.08.28-.08.22 0 .46.18.25.17.59.38.34.22.79.39.46.18 1.1.18.97 0 1.51-.47.54-.46.54-1.33 0-.48-.25-.79-.24-.3-.64-.51t-.91-.36q-.51-.14-1.04-.31-.52-.17-1.03-.41t-.91-.62-.64-.95q-.25-.58-.25-1.42 0-.67.27-1.31t.78-1.13 1.26-.79 1.71-.3q1.09 0 2.01.34t1.56.95"/></svg>