<svg xmlns="http://www.w3.org/2000/svg" width="100" height="100" viewBox="0 0 100 100"><rect width="100%" height="100%" fill="#dc2626"/><path fill="#ffffff" d="M41.435 36.985v3.98h-7.84v22.05h-4.85v-22.05h-7.84v-3.98zm8.27 22.03h10.4v4h-15.25v-26.03h4.85zm28.92-19.58-1.2 2.29q-.22.37-.46.54-.25.18-.61.18-.37 0-.81-.28-.45-.28-1.06-.62-.61-.35-1.43-.63-.82-.27-1.93-.27-1.01 0-1.77.24-.75.24-1.27.67-.51.44-.76 1.04t-.25 1.32q0 .92.51 1.53t1.36 1.05q.84.43 1.92.77t2.22.73q1.13.39 2.21.9t1.93 1.29q.84.79 1.36 1.92.51 1.14.51 2.76 0 1.76-.6 3.3-.61 1.54-1.77 2.68t-2.83 1.8q-1.68.66-3.84.66-1.24 0-2.44-.24-1.21-.25-2.32-.7-1.1-.45-2.08-1.08-.97-.63-1.72-1.4l1.42-2.32q.18-.26.47-.43.28-.17.61-.17.45 0 .97.37t1.24.82 1.68.82q.97.37 2.32.37 2.07 0 3.2-.98 1.14-.98 1.14-2.82 0-1.03-.52-1.67-.51-.65-1.36-1.09-.84-.44-1.92-.75t-2.2-.67q-1.11-.36-2.19-.86t-1.93-1.31-1.36-2.03q-.51-1.21-.51-3 0-1.42.56-2.77.57-1.35 1.65-2.39 1.08-1.05 2.67-1.68 1.58-.63 3.63-.63 2.31 0 4.25.72t3.31 2.02"/></svg>