<svg xmlns="http://www.w3.org/2000/svg" width="100" height="100" viewBox="0 0 100 100"><rect width="100%" height="100%" fill="#dc2626"/><path fill="#ffffff" d="M46.31 39.885h2.95l-6.28 20.24h-3.41l-4.42-13.83q-.18-.51-.33-1.23-.09.35-.17.65-.09.31-.19.58L30 60.125h-3.42l-6.27-20.24h3.15q.49 0 .82.23t.44.62l3.44 12.11q.12.45.22.97.11.53.22 1.1.11-.59.24-1.1.14-.52.29-.97l3.98-12.11q.11-.32.44-.59.33-.26.8-.26h1.11q.49 0 .8.23.31.24.46.62l3.96 12.11q.3.87.53 2 .18-1.1.41-2l3.44-12.11q.09-.35.43-.6t.82-.25m18.21 2.99h-8.98v5.99h7.58v3.01h-7.58v8.25h-3.78v-20.24h12.76zm14.8-1.09-.94 1.78q-.16.29-.35.42-.19.14-.47.14-.3 0-.64-.22t-.82-.48q-.48-.27-1.11-.48-.64-.22-1.51-.22-.78 0-1.37.19t-.99.52q-.39.34-.59.81t-.2 1.03q0 .71.4 1.19.4.47 1.06.81.66.33 1.5.6t1.72.57 1.72.7 1.5 1.01q.66.6 1.06 1.49.4.88.4 2.14 0 1.37-.47 2.57-.47 1.19-1.38 2.08-.9.89-2.2 1.4t-2.98.51q-.97 0-1.91-.18-.93-.19-1.8-.54-.86-.35-1.61-.84-.76-.49-1.35-1.1l1.11-1.8q.14-.2.36-.33.23-.13.48-.13.35 0 .75.28.41.29.97.64t1.31.64q.75.28 1.8.28 1.61 0 2.49-.76t.88-2.19q0-.8-.4-1.3-.39-.51-1.05-.85t-1.5-.58-1.71-.52-1.71-.67-1.49-1.02q-.66-.63-1.06-1.58-.4-.94-.4-2.33 0-1.1.44-2.15t1.28-1.87q.84-.81 2.07-1.3 1.24-.49 2.83-.49 1.79 0 3.31.56 1.51.56 2.57 1.57"/></svg>