<svg xmlns="http://www.w3.org/2000/svg" width="100" height="100" viewBox="0 0 100 100"><rect width="100%" height="100%" fill="#dc2626"/><path fill="#ffffff" d="M41.395 41.685h2.43l-5.17 16.63h-2.79l-3.64-11.36q-.14-.42-.27-1.01-.07.28-.14.54-.07.25-.15.47l-3.67 11.36h-2.8l-5.16-16.63h2.59q.4 0 .68.19.27.19.36.51l2.83 9.95q.09.37.17.8.09.43.18.9.09-.48.2-.91.11-.42.24-.79l3.27-9.95q.09-.26.36-.48t.66-.22h.91q.4 0 .65.2.26.19.38.5l3.26 9.95q.24.71.43 1.64.15-.9.34-1.64l2.83-9.95q.07-.28.35-.49t.67-.21m24.17 0h2.43l-5.16 16.63h-2.8l-3.63-11.36q-.15-.42-.28-1.01-.07.28-.14.54-.07.25-.15.47l-3.66 11.36h-2.81l-5.15-16.63h2.59q.4 0 .67.19t.36.51l2.83 9.95q.09.37.18.8.08.43.18.9.09-.48.2-.91.11-.42.23-.79l3.27-9.95q.09-.26.36-.48t.66-.22h.91q.4 0 .66.2.25.19.38.5l3.25 9.95q.24.71.44 1.64.15-.9.33-1.64l2.83-9.95q.07-.28.35-.49t.67-.21m14.1 1.57-.77 1.46q-.14.24-.29.35-.16.11-.39.11-.24 0-.52-.18t-.67-.4-.92-.4q-.52-.17-1.23-.17-.65 0-1.13.15-.48.16-.81.43-.33.28-.49.66-.16.39-.16.85 0 .58.33.98.32.39.87.66.54.28 1.23.5t1.41.46q.72.25 1.41.58t1.24.83q.54.5.86 1.22.33.73.33 1.76 0 1.13-.38 2.11-.39.98-1.13 1.71t-1.81 1.15-2.45.42q-.8 0-1.57-.15-.77-.16-1.47-.44-.71-.29-1.33-.69-.62-.41-1.11-.9l.91-1.48q.12-.17.3-.27.19-.11.39-.11.29 0 .62.23.34.24.8.53.46.28 1.07.52.62.23 1.48.23 1.32 0 2.05-.62.72-.63.72-1.8 0-.66-.33-1.07-.32-.42-.86-.7t-1.23-.47q-.69-.2-1.41-.43-.71-.23-1.4-.55t-1.23-.84-.87-1.3q-.33-.77-.33-1.91 0-.91.36-1.77.37-.86 1.06-1.53t1.7-1.07 2.32-.4q1.47 0 2.72.46 1.24.46 2.11 1.29"/></svg>