<svg xmlns="http://www.w3.org/2000/svg" width="100" height="100" viewBox="0 0 100 100"><rect width="100%" height="100%" fill="#dc2626"/><path fill="#ffffff" d="M28.715 61.8h6.26q1.72 0 2.89-.41 1.18-.42 1.88-1.11t1.01-1.61.31-1.95q0-1.08-.34-1.95-.35-.86-1.09-1.47-.73-.61-1.89-.93-1.17-.32-2.8-.32h-6.23zm5.27-23.64h-5.27v9.61h4.92q3.18 0 4.8-1.15t1.62-3.66q0-2.6-1.47-3.7-1.48-1.1-4.6-1.1m-11.46-4.79h11.46q3.26 0 5.58.62 2.33.62 3.81 1.77t2.17 2.79q.69 1.63.69 3.68 0 1.17-.34 2.24-.35 1.07-1.07 2t-1.84 1.69-2.66 1.29q6.86 1.54 6.86 7.4 0 2.12-.81 3.91-.8 1.8-2.34 3.1t-3.8 2.03q-2.25.74-5.15.74h-12.56zm36.48 28.43h6.26q1.72 0 2.89-.41 1.18-.42 1.88-1.11t1.01-1.61.31-1.95q0-1.08-.34-1.95-.35-.86-1.08-1.47-.74-.61-1.9-.93t-2.8-.32h-6.23zm5.27-23.64h-5.27v9.61h4.92q3.18 0 4.8-1.15t1.62-3.66q0-2.6-1.47-3.7t-4.6-1.1m-11.46-4.79h11.46q3.26 0 5.59.62 2.32.62 3.8 1.77 1.49 1.15 2.18 2.79.69 1.63.69 3.68 0 1.17-.35 2.24-.34 1.07-1.07 2-.72.93-1.84 1.69-1.11.76-2.66 1.29 6.86 1.54 6.86 7.4 0 2.12-.81 3.91-.8 1.8-2.34 3.1t-3.8 2.03q-2.25.74-5.15.74h-12.56z"/></svg>