<svg xmlns="http://www.w3.org/2000/svg" width="100" height="100" viewBox="0 0 100 100"><rect width="100%" height="100%" fill="#dc2626"/><path fill="#ffffff" d="M25.495 57.435h3.95q1.08 0 1.82-.26t1.18-.69q.45-.44.64-1.02.2-.58.2-1.23 0-.68-.22-1.22-.22-.55-.68-.93-.47-.39-1.2-.59t-1.76-.2h-3.93zm3.32-14.9h-3.32v6.06h3.1q2.01 0 3.03-.73 1.02-.72 1.02-2.3 0-1.64-.93-2.34-.93-.69-2.9-.69m-7.22-3.02h7.22q2.06 0 3.53.39 1.46.4 2.4 1.12.93.73 1.37 1.76.43 1.02.43 2.32 0 .73-.22 1.41-.21.67-.67 1.26t-1.16 1.07q-.7.47-1.68.81 4.32.97 4.32 4.67 0 1.33-.5 2.46-.51 1.13-1.48 1.95t-2.39 1.29q-1.43.46-3.25.46h-7.92zm23 17.92h3.94q1.09 0 1.83-.26t1.18-.69q.44-.44.64-1.02.19-.58.19-1.23 0-.68-.21-1.22-.22-.55-.68-.93-.47-.39-1.2-.59t-1.76-.2h-3.93zm3.32-14.9h-3.32v6.06h3.1q2 0 3.02-.73 1.03-.72 1.03-2.3 0-1.64-.93-2.34-.93-.69-2.9-.69m-7.22-3.02h7.22q2.06 0 3.52.39 1.47.4 2.4 1.12.94.73 1.37 1.76.44 1.02.44 2.32 0 .73-.22 1.41-.22.67-.67 1.26-.46.59-1.16 1.07-.71.47-1.68.81 4.32.97 4.32 4.67 0 1.33-.51 2.46-.5 1.13-1.48 1.95-.97.82-2.39 1.29-1.42.46-3.25.46h-7.91zm37.71 10.49q0 2.3-.77 4.23t-2.16 3.32-3.35 2.16q-1.95.77-4.35.77h-7.99v-20.97h7.99q2.4 0 4.35.78 1.96.77 3.35 2.16 1.39 1.38 2.16 3.31t.77 4.24m-4 0q0-1.73-.46-3.1-.45-1.37-1.32-2.32-.86-.95-2.08-1.46-1.23-.5-2.77-.5h-4.07v14.76h4.07q1.54 0 2.77-.51 1.22-.51 2.08-1.46.87-.95 1.32-2.32.46-1.37.46-3.09"/></svg>