<svg xmlns="http://www.w3.org/2000/svg" width="100" height="100" viewBox="0 0 100 100"><rect width="100%" height="100%" fill="#dc2626"/><path fill="#ffffff" d="M23.47 55.895h3.13q.86 0 1.45-.2.59-.21.94-.55.35-.35.5-.81.16-.46.16-.98 0-.54-.17-.97-.18-.43-.54-.73-.37-.31-.95-.47t-1.4-.16h-3.12zm2.64-11.82h-2.64v4.81h2.46q1.59 0 2.4-.57.81-.58.81-1.83 0-1.3-.73-1.86-.74-.55-2.3-.55m-5.73-2.39h5.73q1.63 0 2.79.31t1.91.89q.74.57 1.08 1.39.35.82.35 1.84 0 .58-.18 1.12-.17.53-.53 1t-.92.85q-.56.37-1.33.64 3.43.77 3.43 3.7 0 1.06-.4 1.96-.41.89-1.18 1.54t-1.89 1.02q-1.13.37-2.58.37h-6.28zm26.57 12.71q.25 0 .44.19l1.22 1.33q-1.01 1.25-2.49 1.92-1.47.66-3.54.66-1.86 0-3.33-.63-1.48-.63-2.53-1.76-1.04-1.12-1.6-2.69-.56-1.56-.56-3.41 0-1.88.6-3.44t1.68-2.68q1.09-1.13 2.6-1.76 1.5-.62 3.33-.62 1.82 0 3.23.6 1.41.59 2.39 1.56l-1.03 1.44q-.09.13-.24.24-.14.1-.39.1-.18 0-.36-.1-.18-.09-.4-.24-.22-.14-.51-.31-.29-.18-.67-.32-.37-.14-.87-.24-.51-.1-1.16-.1-1.12 0-2.04.4-.93.39-1.59 1.15-.67.75-1.04 1.84-.37 1.08-.37 2.48t.4 2.49 1.07 1.84q.68.75 1.6 1.15.92.39 1.98.39.63 0 1.15-.07.51-.07.94-.22t.81-.38q.39-.24.77-.58.11-.1.24-.17.13-.06.27-.06m14.28-10.25h-7.38v4.92h6.23v2.48h-6.23v6.77h-3.11v-16.63h10.49zm18.39 5.86q0 1.82-.61 3.38-.6 1.56-1.7 2.7-1.11 1.14-2.66 1.78-1.55.63-3.45.63-1.89 0-3.44-.63-1.55-.64-2.66-1.78t-1.72-2.7-.61-3.38q0-1.83.61-3.39t1.72-2.7 2.66-1.77q1.55-.64 3.44-.64 1.26 0 2.38.29 1.11.29 2.05.83.93.53 1.67 1.3.74.76 1.26 1.71.52.94.79 2.04.27 1.11.27 2.33m-3.17 0q0-1.37-.36-2.46-.37-1.09-1.05-1.85-.68-.75-1.65-1.16-.97-.4-2.19-.4t-2.19.4q-.97.41-1.66 1.16-.68.76-1.05 1.85t-.37 2.46q0 1.36.37 2.45t1.05 1.84q.69.75 1.66 1.16.97.4 2.19.4t2.19-.4q.97-.41 1.65-1.16t1.05-1.84q.36-1.09.36-2.45"/></svg>