<svg xmlns="http://www.w3.org/2000/svg" width="100" height="100" viewBox="0 0 100 100"><rect width="100%" height="100%" fill="#dc2626"/><path fill="#ffffff" d="M28.01 60.26h5.44q1.5 0 2.52-.36t1.63-.96.88-1.4.27-1.7q0-.94-.3-1.69t-.94-1.28-1.65-.81-2.43-.28h-5.42zm4.58-20.56h-4.58v8.36h4.28q2.76 0 4.17-1t1.41-3.18q0-2.26-1.28-3.22t-4-.96m-9.96-4.16h9.96q2.84 0 4.86.54t3.31 1.54 1.89 2.42.6 3.2q0 1.02-.3 1.95t-.93 1.74-1.6 1.47-2.31 1.12q5.96 1.34 5.96 6.44 0 1.84-.7 3.4t-2.04 2.69-3.3 1.77-4.48.64H22.63zm44.58 4.28H54.37v8.02h10.12v4.14H54.37v8.18h12.84v4.3H48.97V35.54h18.24zm10.16-4.28v28.92h-5.4V35.54z"/></svg>