<svg xmlns="http://www.w3.org/2000/svg" width="100" height="100" viewBox="0 0 100 100"><rect width="100%" height="100%" fill="#dc2626"/><path fill="#ffffff" d="M27.875 60.51h5.58q1.54 0 2.58-.36 1.05-.37 1.67-.99.63-.61.9-1.43.28-.82.28-1.75 0-.96-.31-1.73-.3-.77-.96-1.31t-1.69-.83q-1.04-.29-2.49-.29h-5.56zm4.7-21.07h-4.7v8.57h4.39q2.83 0 4.27-1.03 1.45-1.02 1.45-3.25 0-2.32-1.31-3.3-1.32-.99-4.1-.99m-10.21-4.26h10.21q2.91 0 4.98.55t3.39 1.58q1.32 1.02 1.94 2.48.61 1.46.61 3.28 0 1.04-.3 2-.31.95-.96 1.78-.64.83-1.64 1.51-.99.67-2.37 1.15 6.11 1.37 6.11 6.6 0 1.88-.71 3.48-.72 1.6-2.1 2.76-1.37 1.16-3.38 1.81-2.01.66-4.59.66h-11.19zM77.635 50q0 3.26-1.08 6.04-1.08 2.77-3.05 4.8-1.96 2.03-4.73 3.17t-6.15 1.14q-3.36 0-6.13-1.14t-4.75-3.17q-1.97-2.03-3.06-4.8-1.09-2.78-1.09-6.04t1.09-6.04 3.06-4.81q1.98-2.03 4.75-3.16 2.77-1.14 6.13-1.14 2.25 0 4.24.52t3.65 1.48q1.66.95 2.98 2.31 1.33 1.37 2.25 3.05t1.4 3.65q.49 1.97.49 4.14m-5.64 0q0-2.44-.66-4.38-.65-1.94-1.86-3.29t-2.95-2.07q-1.73-.72-3.9-.72t-3.91.72q-1.73.72-2.95 2.07t-1.87 3.29q-.66 1.94-.66 4.38t.66 4.38q.65 1.93 1.87 3.28 1.22 1.34 2.95 2.06 1.74.71 3.91.71t3.9-.71q1.74-.72 2.95-2.06 1.21-1.35 1.86-3.28.66-1.94.66-4.38"/></svg>