<svg xmlns="http://www.w3.org/2000/svg" width="100" height="100" viewBox="0 0 100 100"><rect width="100%" height="100%" fill="#dc2626"/><path fill="#ffffff" d="M23.725 56.155h3.27q.9 0 1.51-.22.61-.21.98-.57.36-.36.53-.84.16-.48.16-1.02 0-.57-.18-1.02t-.57-.76q-.38-.32-.99-.49-.6-.17-1.45-.17h-3.26zm2.75-12.34h-2.75v5.02h2.57q1.66 0 2.5-.6.85-.6.85-1.91 0-1.35-.77-1.93t-2.4-.58m-5.97-2.49h5.97q1.71 0 2.92.32 1.21.33 1.98.93.78.6 1.14 1.45t.36 1.92q0 .61-.18 1.17t-.56 1.04q-.38.49-.96.88-.58.4-1.39.68 3.58.8 3.58 3.86 0 1.1-.42 2.04t-1.22 1.61q-.81.68-1.98 1.07-1.18.38-2.69.38h-6.55zm27.92 0v2.65h-5.23v14.7h-3.23v-14.7h-5.23v-2.65zm5.93 10.8h5.52l-2.11-5.77q-.16-.39-.33-.92-.17-.52-.33-1.14-.16.62-.33 1.15t-.32.93zm4.4-10.8 6.82 17.35h-2.5q-.42 0-.68-.21-.27-.21-.4-.52l-1.29-3.54h-7.19l-1.3 3.54q-.09.27-.37.5t-.68.23h-2.52l6.82-17.35zm20.74 0v2.65h-5.23v14.7h-3.23v-14.7h-5.23v-2.65z"/></svg>