<svg xmlns="http://www.w3.org/2000/svg" width="100" height="100" viewBox="0 0 100 100"><rect width="100%" height="100%" fill="#dc2626"/><path fill="#ffffff" d="M25.06 58.205h4.35q1.2 0 2.02-.29.81-.29 1.3-.77t.71-1.12q.21-.64.21-1.36 0-.75-.24-1.35t-.75-1.02q-.51-.43-1.32-.65t-1.94-.22h-4.34zm3.66-16.45h-3.66v6.69h3.42q2.21 0 3.34-.8t1.13-2.54q0-1.81-1.03-2.58-1.02-.77-3.2-.77m-7.96-3.33h7.96q2.28 0 3.89.44 1.62.43 2.65 1.23t1.51 1.93q.48 1.14.48 2.56 0 .82-.24 1.56-.24.75-.74 1.4-.51.64-1.28 1.17-.78.53-1.85.9 4.77 1.07 4.77 5.15 0 1.47-.56 2.72t-1.63 2.15q-1.08.91-2.64 1.42-1.57.51-3.59.51h-8.73zm37.23 0v3.54h-6.98v19.6h-4.3v-19.6h-6.98v-3.54zm18.93 17.68q.35 0 .62.28l1.7 1.84q-1.41 1.74-3.47 2.67-2.05.93-4.93.93-2.58 0-4.64-.88-2.05-.88-3.51-2.45-1.45-1.57-2.23-3.75-.78-2.17-.78-4.75 0-2.61.84-4.77.83-2.17 2.34-3.74t3.61-2.44q2.09-.87 4.64-.87 2.53 0 4.49.83t3.33 2.18l-1.44 2q-.13.19-.33.33-.2.15-.55.15-.24 0-.49-.14-.26-.14-.56-.34-.31-.2-.71-.44t-.93-.44q-.52-.2-1.22-.33-.7-.14-1.61-.14-1.55 0-2.84.55-1.29.56-2.21 1.6-.93 1.05-1.44 2.56-.52 1.52-.52 3.45 0 1.95.56 3.47.55 1.52 1.49 2.56.95 1.04 2.23 1.6 1.28.55 2.75.55.88 0 1.59-.1.71-.09 1.31-.3t1.14-.54q.53-.33 1.06-.81.16-.14.34-.23.17-.09.37-.09"/></svg>