<svg xmlns="http://www.w3.org/2000/svg" width="100" height="100" viewBox="0 0 100 100"><rect width="100%" height="100%" fill="#dc2626"/><path fill="#ffffff" d="M24.635 56.67h3.53q.98 0 1.64-.23.66-.24 1.06-.63t.57-.91q.18-.52.18-1.1 0-.61-.2-1.1-.19-.49-.61-.83-.41-.35-1.07-.53t-1.58-.18h-3.52zm2.97-13.36h-2.97v5.43h2.78q1.79 0 2.71-.65t.92-2.07q0-1.47-.84-2.09-.83-.62-2.6-.62m-6.47-2.71h6.47q1.85 0 3.16.35 1.32.35 2.15 1 .84.65 1.23 1.58.39.92.39 2.08 0 .66-.19 1.26-.2.61-.61 1.14-.41.52-1.04.95t-1.5.73q3.88.87 3.88 4.18 0 1.2-.46 2.21-.45 1.02-1.33 1.75-.87.74-2.14 1.15-1.27.42-2.91.42h-7.1zm30.25 0v2.87h-5.67V59.4h-3.49V43.47h-5.67V40.6zm24.74 0h2.74l-5.83 18.8h-3.16l-4.11-12.84q-.17-.47-.31-1.15-.08.33-.16.61-.08.29-.17.54l-4.15 12.84h-3.17l-5.82-18.8h2.92q.46 0 .76.22.31.21.41.57l3.2 11.25q.11.42.2.9.1.49.2 1.02.11-.54.23-1.02.13-.48.27-.9l3.69-11.25q.1-.29.41-.54t.75-.25h1.02q.46 0 .75.22.28.22.42.57l3.68 11.25q.28.81.5 1.86.17-1.03.37-1.86l3.2-11.25q.08-.32.4-.55.32-.24.76-.24"/></svg>