<svg xmlns="http://www.w3.org/2000/svg" width="100" height="100" viewBox="0 0 100 100"><rect width="100%" height="100%" fill="#dc2626"/><path fill="#ffffff" d="M36.88 62.825h6.8q1.88 0 3.15-.45 1.28-.45 2.04-1.2t1.1-1.75.34-2.13q0-1.17-.38-2.11-.37-.94-1.17-1.6t-2.06-1.01q-1.27-.35-3.04-.35h-6.78zm5.73-25.7h-5.73v10.45h5.35q3.45 0 5.22-1.25 1.76-1.25 1.76-3.98 0-2.82-1.6-4.02t-5-1.2m-12.45-5.2h12.45q3.55 0 6.07.67 2.53.68 4.14 1.93t2.36 3.02q.75 1.78.75 4 0 1.28-.37 2.44-.38 1.16-1.16 2.18-.79 1.01-2 1.83-1.22.83-2.89 1.4 7.45 1.68 7.45 8.05 0 2.3-.88 4.25-.87 1.96-2.55 3.37-1.67 1.41-4.12 2.21t-5.6.8H30.16zm39.68 0v36.15h-6.75v-36.15z"/></svg>