<svg xmlns="http://www.w3.org/2000/svg" width="100" height="100" viewBox="0 0 100 100"><rect width="100%" height="100%" fill="#dc2626"/><path fill="#ffffff" d="M21.97 54.88h2.58q.72 0 1.2-.18.48-.17.77-.45.29-.29.42-.67t.13-.8q0-.45-.14-.81-.14-.35-.45-.61-.3-.25-.78-.38t-1.16-.13h-2.57zm2.17-9.77h-2.17v3.97H24q1.31 0 1.98-.48.67-.47.67-1.51 0-1.07-.61-1.52-.6-.46-1.9-.46m-4.73-1.98h4.73q1.35 0 2.31.26t1.58.73q.61.48.89 1.15.29.68.29 1.52 0 .48-.14.93-.15.44-.45.82-.3.39-.76.7-.46.32-1.09.53 2.83.64 2.83 3.06 0 .88-.33 1.62-.34.74-.97 1.28-.64.53-1.57.84-.93.3-2.13.3h-5.19zm28.79 0h2l-4.26 13.74h-2.31l-3-9.39q-.13-.34-.23-.83l-.11.44q-.06.21-.13.39l-3.03 9.39h-2.32l-4.25-13.74h2.13q.34 0 .56.16t.3.42l2.34 8.22q.07.3.14.66.08.36.15.75.08-.4.17-.75.09-.36.19-.66l2.7-8.22q.08-.22.3-.4t.55-.18h.75q.33 0 .54.16.21.17.31.42l2.69 8.22q.2.59.36 1.36.12-.75.28-1.36l2.33-8.22q.06-.23.29-.41.24-.17.56-.17m11.65 1.29-.64 1.21q-.11.2-.24.29t-.32.09q-.2 0-.43-.15-.24-.14-.56-.32t-.75-.33q-.44-.15-1.03-.15-.53 0-.93.13t-.67.36q-.27.22-.4.54t-.13.7q0 .48.27.81.27.32.72.55.44.23 1.01.41t1.17.38q.6.21 1.17.48t1.02.68q.44.41.71 1.01t.27 1.46q0 .93-.32 1.74-.31.81-.93 1.42-.61.6-1.49.95-.89.34-2.03.34-.65 0-1.29-.13-.63-.12-1.22-.36-.58-.24-1.1-.57-.51-.33-.91-.74l.75-1.23q.1-.13.25-.22t.32-.09q.24 0 .52.19.27.2.65.44.38.23.89.43.51.19 1.22.19 1.09 0 1.69-.52.6-.51.6-1.48 0-.54-.27-.89-.27-.34-.72-.57-.44-.23-1.01-.39-.57-.17-1.16-.36t-1.16-.45q-.57-.27-1.02-.7-.45-.42-.72-1.06-.27-.65-.27-1.59 0-.75.3-1.46t.87-1.26 1.41-.89q.83-.33 1.92-.33 1.21 0 2.24.38 1.02.38 1.75 1.06m18.74-1.29h2l-4.26 13.74h-2.31l-3-9.39q-.13-.34-.23-.83l-.11.44q-.06.21-.13.39l-3.03 9.39H65.2l-4.25-13.74h2.14q.33 0 .55.16t.3.42l2.34 8.22q.07.3.14.66.08.36.15.75.08-.4.17-.75.09-.36.19-.66l2.7-8.22q.08-.22.3-.4t.55-.18h.75q.33 0 .54.16.21.17.31.42l2.69 8.22q.2.59.36 1.36.13-.75.28-1.36l2.33-8.22q.06-.23.29-.41.24-.17.56-.17"/></svg>