<svg xmlns="http://www.w3.org/2000/svg" width="100" height="100" viewBox="0 0 100 100"><rect width="100%" height="100%" fill="#dc2626"/><path fill="#ffffff" d="M28.535 62.31h6.52q1.8 0 3.03-.43 1.22-.43 1.95-1.15.74-.72 1.06-1.68t.32-2.04q0-1.13-.36-2.03t-1.12-1.54q-.77-.63-1.98-.97-1.22-.34-2.92-.34h-6.5zm5.49-24.67h-5.49v10.03h5.13q3.31 0 5.01-1.2 1.69-1.2 1.69-3.82 0-2.71-1.54-3.86-1.53-1.15-4.8-1.15m-11.95-4.99h11.95q3.41 0 5.83.64 2.43.65 3.98 1.85 1.54 1.2 2.26 2.91.72 1.7.72 3.84 0 1.22-.36 2.34-.36 1.11-1.11 2.08-.76.98-1.92 1.77-1.17.79-2.77 1.34 7.15 1.61 7.15 7.73 0 2.21-.84 4.08t-2.45 3.23q-1.61 1.35-3.96 2.12t-5.38.77h-13.1zm55.85 0v5.3h-10.47v29.4h-6.45v-29.4h-10.47v-5.3z"/></svg>