<svg xmlns="http://www.w3.org/2000/svg" width="100" height="100" viewBox="0 0 100 100"><rect width="100%" height="100%" fill="#dc2626"/><path fill="#ffffff" d="M30.155 43.5v1.98h-3.93v11.03h-2.42V45.48h-3.92V43.5zm4.13 11.12h2.44q.68 0 1.14-.16t.73-.43q.28-.27.4-.63t.12-.77q0-.42-.14-.76-.13-.34-.42-.58-.29-.23-.74-.36-.46-.13-1.09-.13h-2.44zm2.06-9.25h-2.06v3.76h1.92q1.24 0 1.88-.45.63-.45.63-1.43 0-1.02-.57-1.45-.58-.43-1.8-.43m-4.48-1.87h4.48q1.28 0 2.18.24.91.24 1.49.69t.85 1.09.27 1.44q0 .46-.13.88-.14.42-.42.78-.28.37-.72.66-.44.3-1.04.51 2.68.6 2.68 2.89 0 .83-.31 1.53-.32.71-.92 1.22-.6.5-1.48.79-.89.29-2.02.29h-4.91zm24.26 6.5q0 1.43-.47 2.65-.48 1.22-1.34 2.11t-2.08 1.39q-1.21.5-2.7.5-1.47 0-2.69-.5-1.21-.5-2.08-1.39t-1.35-2.11-.48-2.65.48-2.65 1.35-2.11 2.08-1.39q1.22-.5 2.69-.5.99 0 1.87.23.87.23 1.6.65t1.31 1.02q.58.59.98 1.33.41.74.62 1.6.21.87.21 1.82m-2.47 0q0-1.07-.29-1.92t-.82-1.44q-.53-.6-1.29-.91-.76-.32-1.72-.32-.95 0-1.71.32-.76.31-1.3.91-.53.59-.82 1.44t-.29 1.92.29 1.92.82 1.44q.54.59 1.3.91.76.31 1.71.31.96 0 1.72-.31.76-.32 1.29-.91t.82-1.44.29-1.92m16.16 0q0 1.43-.48 2.63-.47 1.2-1.34 2.06-.86.87-2.08 1.34-1.21.48-2.7.48h-4.96V43.5h4.96q1.49 0 2.7.48 1.22.48 2.08 1.34.87.86 1.34 2.05.48 1.2.48 2.63m-2.49 0q0-1.07-.28-1.92t-.82-1.44q-.53-.59-1.29-.9-.76-.32-1.72-.32h-2.53v9.16h2.53q.96 0 1.72-.31.76-.32 1.29-.91.54-.59.82-1.44t.28-1.92m8.66 4.44h3.34q.36 0 .57.2.22.2.22.54v1.33h-8.93v-.74q0-.22.09-.47.1-.25.3-.45l3.95-3.96q.5-.5.89-.96t.65-.91.4-.91q.14-.47.14-.98 0-.47-.13-.82-.14-.36-.38-.6-.25-.24-.6-.36-.34-.13-.78-.13-.39 0-.73.12-.34.11-.6.31t-.44.47-.27.6q-.15.41-.4.55-.24.13-.7.06l-1.17-.21q.14-.93.52-1.64.39-.71.97-1.18t1.33-.71q.76-.24 1.62-.24.9 0 1.65.27.74.26 1.27.75.54.48.83 1.17.3.68.3 1.52 0 .72-.21 1.33t-.57 1.17q-.35.56-.83 1.08t-1 1.06l-2.93 3q.42-.13.84-.19.42-.07.79-.07"/></svg>