<svg xmlns="http://www.w3.org/2000/svg" width="100" height="100" viewBox="0 0 100 100"><rect width="100%" height="100%" fill="#dc2626"/><path fill="#ffffff" d="M31.195 42.41v2.32h-4.58v12.86h-2.82V44.73h-4.58v-2.32zm12.42 11.6q.24 0 .41.18l1.12 1.21q-.93 1.14-2.28 1.75t-3.24.61q-1.69 0-3.04-.58-1.34-.58-2.3-1.61t-1.46-2.45q-.51-1.43-.51-3.12 0-1.71.54-3.14.55-1.42 1.54-2.45t2.37-1.6q1.37-.57 3.04-.57 1.66 0 2.95.54 1.28.55 2.19 1.43l-.95 1.32q-.08.12-.21.22-.13.09-.37.09-.15 0-.32-.09t-.37-.22-.46-.29-.61-.29-.8-.22q-.46-.09-1.06-.09-1.02 0-1.86.37-.85.36-1.46 1.05-.6.68-.94 1.68-.34.99-.34 2.26 0 1.28.37 2.28.36.99.98 1.68.62.68 1.46 1.04t1.8.36q.58 0 1.05-.06.46-.06.86-.2.39-.14.74-.35.36-.22.7-.53.11-.1.22-.15.12-.06.24-.06m6.29-4.38h1.77q.8 0 1.39-.2t.98-.55q.38-.35.57-.83.19-.49.19-1.07 0-1.15-.76-1.77-.77-.62-2.33-.62h-1.81zm5.23 2.35 3.8 5.61h-2.55q-.72 0-1.05-.57l-3.19-4.86q-.18-.27-.39-.39-.22-.11-.64-.11h-1.21v5.93h-2.82V42.41h4.63q1.54 0 2.65.32t1.82.89q.71.58 1.04 1.39.34.8.34 1.76 0 .77-.23 1.45-.22.69-.65 1.24-.42.56-1.05.98-.62.42-1.42.66.27.16.5.37.23.22.42.51m23.44-9.57h2.21l-4.71 15.18h-2.55l-3.32-10.37q-.14-.38-.25-.93-.06.26-.13.5-.06.23-.13.43l-3.35 10.37h-2.57l-4.7-15.18h2.36q.37 0 .62.17.24.17.33.47l2.58 9.08q.08.34.16.73l.17.82q.08-.44.18-.83.1-.38.22-.72l2.98-9.08q.08-.24.33-.44.24-.2.6-.2h.83q.37 0 .6.18.23.17.35.46l2.97 9.08q.22.65.4 1.5.13-.83.3-1.5l2.58-9.08q.07-.27.32-.45.26-.19.62-.19"/></svg>