<svg xmlns="http://www.w3.org/2000/svg" width="100" height="100" viewBox="0 0 100 100"><rect width="100%" height="100%" fill="#dc2626"/><path fill="#ffffff" d="M33.685 41.325v2.65h-5.23v14.7h-3.23v-14.7h-5.23v-2.65zm17.69 8.67q0 1.91-.64 3.51-.64 1.59-1.79 2.75-1.15 1.15-2.77 1.78-1.62.64-3.6.64h-6.61v-17.35h6.61q1.98 0 3.6.64t2.77 1.79q1.15 1.14 1.79 2.74t.64 3.5m-3.32 0q0-1.42-.37-2.56-.38-1.13-1.1-1.92-.71-.78-1.72-1.2-1.02-.42-2.29-.42h-3.37v12.21h3.37q1.27 0 2.29-.42 1.01-.42 1.72-1.2.72-.79 1.1-1.92.37-1.14.37-2.57m9.39-.42h2.01q.92 0 1.59-.22.68-.23 1.12-.63.44-.41.65-.96.22-.55.22-1.21 0-1.32-.87-2.03t-2.66-.71h-2.06zm5.97 2.69 4.35 6.41h-2.92q-.83 0-1.2-.65l-3.65-5.55q-.2-.32-.45-.45-.24-.13-.72-.13h-1.38v6.78h-3.23v-17.35h5.29q1.77 0 3.03.36 1.27.37 2.08 1.03t1.19 1.58q.39.92.39 2.02 0 .88-.26 1.66t-.75 1.41q-.48.64-1.2 1.12-.71.48-1.62.75.31.18.57.43.27.25.48.58m16.28-9.31-.81 1.52q-.14.26-.3.37-.17.11-.41.11-.25 0-.54-.18-.3-.19-.7-.42-.41-.22-.96-.41-.54-.19-1.29-.19-.67 0-1.17.17-.51.16-.85.45-.34.28-.51.69-.17.4-.17.88 0 .61.34 1.02.35.41.91.69.56.29 1.28.52t1.48.49q.76.25 1.48.6.72.34 1.28.86t.91 1.28q.34.75.34 1.83 0 1.18-.4 2.21-.41 1.02-1.18 1.78-.77.77-1.89 1.2-1.12.44-2.56.44-.82 0-1.63-.16-.8-.16-1.54-.46t-1.39-.72q-.64-.42-1.15-.94l.95-1.55q.12-.16.31-.28.19-.11.41-.11.3 0 .65.24.35.25.83.55t1.12.55q.64.24 1.54.24 1.38 0 2.14-.65.75-.66.75-1.88 0-.68-.34-1.12-.34-.43-.91-.72-.56-.3-1.28-.5t-1.46-.44q-.75-.24-1.47-.58t-1.28-.88q-.57-.54-.91-1.35t-.34-1.99q0-.95.38-1.85t1.1-1.6q.72-.69 1.77-1.11 1.06-.42 2.43-.42 1.53 0 2.83.48 1.29.48 2.21 1.34"/></svg>