<svg xmlns="http://www.w3.org/2000/svg" width="100" height="100" viewBox="0 0 100 100"><rect width="100%" height="100%" fill="#dc2626"/><path fill="#ffffff" d="M30.345 43.495v1.98h-3.92v11.03h-2.43v-11.03h-3.92v-1.98zm4.13 6.54h1.81q.67 0 1.16-.17.5-.16.82-.47.33-.32.49-.76.17-.45.17-1 0-.52-.17-.94-.16-.42-.48-.72-.33-.3-.82-.45-.5-.16-1.17-.16h-1.81zm-2.42-6.54h4.23q1.3 0 2.26.3.95.31 1.57.86t.93 1.31q.3.77.3 1.67 0 .95-.32 1.74-.31.78-.94 1.35t-1.58.88q-.95.32-2.22.32h-1.81v4.58h-2.42zm26.56 0h1.9l-4.04 13.01h-2.19l-2.84-8.89q-.12-.33-.22-.79-.05.22-.11.42-.05.2-.12.37l-2.87 8.89h-2.19l-4.03-13.01h2.02q.32 0 .53.14.21.15.28.4l2.21 7.79q.08.29.14.63.07.33.14.7.08-.38.16-.71.09-.33.19-.62l2.55-7.79q.07-.2.29-.37.21-.17.51-.17h.71q.32 0 .52.15.19.15.29.39l2.55 7.79q.19.56.34 1.29.12-.71.26-1.29l2.22-7.79q.05-.22.27-.38t.53-.16m11.71 1.92h-5.78v3.85h4.88v1.94h-4.88v5.3h-2.43v-13.01h8.21zm4.4 9.09h5.2v2h-7.62v-13.01h2.42z"/></svg>