<svg xmlns="http://www.w3.org/2000/svg" width="100" height="100" viewBox="0 0 100 100"><rect width="100%" height="100%" fill="#dc2626"/><path fill="#ffffff" d="M49.225 38.795h3.27l-6.96 22.41h-3.77l-4.89-15.31q-.21-.56-.38-1.37-.09.39-.18.73-.1.34-.2.64l-4.95 15.31h-3.78l-6.94-22.41h3.48q.55 0 .91.25.36.26.49.69l3.81 13.41q.12.5.24 1.08t.24 1.21q.13-.65.27-1.22.15-.57.32-1.07l4.4-13.41q.13-.35.49-.65.36-.29.89-.29h1.23q.54 0 .88.26t.51.68l4.39 13.41q.32.96.59 2.22.2-1.23.45-2.22l3.81-13.41q.09-.39.47-.66.38-.28.91-.28m27.19 0h3.14v22.41h-3.67v-14.48q0-.87.09-1.87l-6.77 12.72q-.48.92-1.47.92h-.59q-.99 0-1.48-.92l-6.85-12.77q.05.51.08 1.01.03.49.03.91v14.48h-3.67v-22.41h3.15q.27 0 .48.01.2.02.36.08t.29.2q.14.14.26.37l6.71 12.45q.27.5.49 1.02.22.53.44 1.09.22-.58.45-1.11t.5-1.03l6.62-12.42q.12-.23.26-.37t.3-.2.37-.08q.2-.01.48-.01"/></svg>