<svg xmlns="http://www.w3.org/2000/svg" width="100" height="100" viewBox="0 0 100 100"><rect width="100%" height="100%" fill="#dc2626"/><path fill="#ffffff" d="M29.865 53.45h8.97l-3.43-9.38q-.26-.62-.53-1.48t-.55-1.85q-.25.99-.52 1.86-.28.87-.53 1.51zm7.15-17.55 11.08 28.2h-4.06q-.68 0-1.11-.34t-.64-.85l-2.11-5.75h-11.68l-2.1 5.75q-.16.45-.61.82t-1.11.37h-4.09l11.09-28.2zm19.27 0v28.2h-5.27V35.9zm22.62 2.65-1.31 2.48q-.23.41-.49.6-.27.18-.66.18-.41 0-.88-.3-.48-.3-1.15-.67-.66-.37-1.55-.68-.88-.3-2.09-.3-1.09 0-1.91.26-.82.27-1.38.74-.55.46-.83 1.12-.27.65-.27 1.43 0 .99.56 1.66.55.66 1.47 1.13t2.09.84 2.39.79q1.23.42 2.4.97 1.17.56 2.09 1.41.92.84 1.47 2.07.56 1.23.56 2.99 0 1.91-.66 3.57-.65 1.67-1.91 2.91t-3.07 1.95-4.15.71q-1.35 0-2.65-.26-1.31-.26-2.51-.75t-2.25-1.17q-1.06-.68-1.87-1.52l1.54-2.52q.19-.27.5-.46.32-.18.67-.18.48 0 1.05.4.56.4 1.34.89.78.48 1.83.88 1.04.4 2.5.4 2.25 0 3.47-1.06 1.23-1.06 1.23-3.05 0-1.11-.55-1.82-.56-.7-1.47-1.18-.92-.47-2.09-.8-1.17-.34-2.38-.73t-2.38-.93q-1.17-.55-2.09-1.43-.91-.87-1.47-2.19-.55-1.32-.55-3.25 0-1.54.61-3t1.78-2.59 2.89-1.82q1.72-.68 3.94-.68 2.5 0 4.6.78 2.11.78 3.59 2.18"/></svg>