<svg xmlns="http://www.w3.org/2000/svg" width="100" height="100" viewBox="0 0 100 100"><rect width="100%" height="100%" fill="#dc2626"/><path fill="#ffffff" d="M34.08 54.78q.28 0 .49.21l1.33 1.44q-1.1 1.36-2.71 2.08-1.61.73-3.86.73-2.01 0-3.62-.69-1.6-.69-2.74-1.91-1.14-1.23-1.74-2.93-.61-1.7-.61-3.71 0-2.04.65-3.73t1.83-2.92q1.18-1.22 2.82-1.9 1.64-.69 3.63-.69 1.97 0 3.5.65t2.61 1.7l-1.13 1.57q-.1.15-.25.26-.16.11-.43.11-.19 0-.39-.1-.2-.11-.44-.27-.24-.15-.55-.34t-.72-.34q-.42-.16-.96-.27-.54-.1-1.26-.1-1.21 0-2.22.43-1 .43-1.73 1.25-.72.82-1.12 2t-.4 2.69q0 1.53.43 2.71.43 1.19 1.17 2 .74.82 1.74 1.25t2.15.43q.68 0 1.24-.08.56-.07 1.02-.23.47-.17.89-.42.42-.26.83-.63.13-.12.27-.18.13-.07.28-.07m25.54-13.81h2.64l-5.61 18.07h-3.04l-3.95-12.35q-.16-.45-.3-1.1-.08.31-.15.59-.08.27-.16.51l-3.99 12.35h-3.05l-5.6-18.07h2.81q.44 0 .73.2.3.21.4.56l3.07 10.81q.1.4.19.87.1.47.2.98.1-.53.22-.99t.25-.86l3.55-10.81q.1-.29.4-.53.29-.23.72-.23h.98q.44 0 .72.21.27.21.41.55l3.54 10.81q.26.77.47 1.79.16-.99.36-1.79l3.08-10.81q.07-.32.38-.54t.73-.22m13.76 9.01h6v7.31q-1.37 1.01-2.93 1.48-1.55.47-3.33.47-2.21 0-4-.69-1.8-.69-3.07-1.91-1.27-1.23-1.95-2.93-.69-1.7-.69-3.71 0-2.04.66-3.74t1.88-2.92q1.22-1.23 2.96-1.9 1.74-.68 3.9-.68 1.1 0 2.06.18.95.17 1.77.48t1.49.74q.68.44 1.24.97l-.96 1.52q-.23.36-.59.45-.36.08-.79-.19-.41-.23-.82-.47t-.92-.41q-.51-.18-1.14-.29t-1.45-.11q-1.34 0-2.42.45t-1.85 1.28q-.76.84-1.17 2.02-.41 1.17-.41 2.62 0 1.55.44 2.77t1.25 2.06q.81.85 1.94 1.29 1.14.44 2.54.44 1 0 1.79-.21t1.54-.57V52.5h-2.28q-.32 0-.5-.18-.19-.18-.19-.44z"/></svg>