<svg xmlns="http://www.w3.org/2000/svg" width="100" height="100" viewBox="0 0 100 100"><rect width="100%" height="100%" fill="#dc2626"/><path fill="#ffffff" d="M42.545 50q0 2.7-.9 4.96t-2.53 3.9q-1.64 1.63-3.93 2.53-2.3.9-5.1.9h-9.37V37.71h9.37q2.8 0 5.1.91 2.29.91 3.93 2.53 1.63 1.62 2.53 3.88.9 2.27.9 4.97m-4.69 0q0-2.02-.54-3.63-.53-1.61-1.55-2.72-1.01-1.11-2.44-1.71-1.44-.59-3.24-.59h-4.78v17.3h4.78q1.8 0 3.24-.59 1.43-.6 2.44-1.71 1.02-1.12 1.55-2.72.54-1.61.54-3.63m37.84-12.29h3.59l-7.64 24.58h-4.13l-5.37-16.8q-.22-.61-.41-1.49-.1.42-.2.8-.1.37-.22.69l-5.43 16.8h-4.14l-7.62-24.58h3.83q.59 0 .99.28t.54.75l4.18 14.71q.13.54.26 1.18t.26 1.34q.14-.72.3-1.35t.35-1.17l4.83-14.71q.13-.39.53-.71t.98-.32h1.34q.6 0 .97.29.38.29.56.74l4.82 14.71q.35 1.05.64 2.43.22-1.34.49-2.43l4.19-14.71q.1-.42.52-.73.41-.3.99-.3"/></svg>