<svg xmlns="http://www.w3.org/2000/svg" width="100" height="100" viewBox="0 0 100 100"><rect width="100%" height="100%" fill="#dc2626"/><path fill="#ffffff" d="M35.19 49.965h8.4v10.24q-1.93 1.42-4.11 2.07-2.18.66-4.66.66-3.1 0-5.61-.96-2.51-.97-4.29-2.68-1.77-1.72-2.74-4.1-.96-2.38-.96-5.19 0-2.86.93-5.24t2.63-4.09q1.71-1.72 4.14-2.66 2.43-.95 5.46-.95 1.54 0 2.88.25 1.34.24 2.48.67 1.15.43 2.1 1.04.94.62 1.73 1.35l-1.35 2.14q-.31.5-.82.62-.51.11-1.1-.26l-1.16-.66q-.58-.33-1.29-.58-.7-.24-1.59-.4-.88-.16-2.04-.16-1.87 0-3.38.63-1.52.63-2.58 1.8-1.07 1.18-1.65 2.82-.58 1.65-.58 3.68 0 2.17.62 3.87.63 1.71 1.75 2.89 1.13 1.18 2.73 1.8 1.59.62 3.55.62 1.4 0 2.5-.29 1.1-.3 2.15-.81v-4.58h-3.18q-.46 0-.71-.26-.25-.25-.25-.62zm30.62-12.62v3.87h-7.63v21.44h-4.71v-21.44h-7.63v-3.87zm12.97 0v16.31q0 2.14-.53 3.85-.52 1.72-1.56 2.93-1.04 1.2-2.6 1.85t-3.62.65q-.95 0-1.86-.11-.91-.12-1.91-.36.06-.7.13-1.4t.12-1.4q.05-.39.31-.62.25-.24.72-.24.3 0 .78.12t1.22.12q.99 0 1.76-.28.77-.29 1.29-.92t.78-1.64.26-2.44v-16.42z"/></svg>