<svg xmlns="http://www.w3.org/2000/svg" width="100" height="100" viewBox="0 0 100 100"><rect width="100%" height="100%" fill="#dc2626"/><path fill="#ffffff" d="M37.585 50.005q0 1.82-.6 3.38t-1.71 2.7q-1.1 1.14-2.65 1.78-1.56.63-3.45.63t-3.44-.63q-1.56-.64-2.67-1.78t-1.71-2.7q-.61-1.56-.61-3.38 0-1.83.61-3.39.6-1.56 1.71-2.7t2.67-1.77q1.55-.64 3.44-.64 1.26 0 2.38.29 1.11.29 2.04.83.93.53 1.68 1.3.74.76 1.26 1.71.51.94.78 2.04.27 1.11.27 2.33m-3.16 0q0-1.37-.37-2.46t-1.04-1.85q-.68-.75-1.65-1.16-.98-.4-2.19-.4-1.22 0-2.2.4-.97.41-1.65 1.16-.69.76-1.05 1.85-.37 1.09-.37 2.46 0 1.36.37 2.45.36 1.09 1.05 1.84.68.75 1.65 1.16.98.4 2.2.4 1.21 0 2.19-.4.97-.41 1.65-1.16.67-.75 1.04-1.84t.37-2.45m17.31 4.39q.25 0 .45.19l1.22 1.33q-1.02 1.25-2.49 1.92-1.48.66-3.55.66-1.85 0-3.33-.63t-2.53-1.76q-1.04-1.12-1.6-2.69-.56-1.56-.56-3.41 0-1.88.6-3.44t1.69-2.68q1.08-1.13 2.59-1.76 1.51-.62 3.33-.62t3.23.6q1.41.59 2.4 1.56l-1.04 1.44q-.09.13-.23.24-.15.1-.4.1-.17 0-.36-.1-.18-.09-.4-.24-.22-.14-.51-.31-.28-.18-.66-.32t-.88-.24-1.16-.1q-1.11 0-2.04.4-.92.39-1.59 1.15-.67.75-1.04 1.84-.36 1.08-.36 2.48t.39 2.49q.4 1.09 1.08 1.84t1.6 1.15q.92.39 1.97.39.64 0 1.15-.07t.94-.22.82-.38q.38-.24.76-.58.12-.1.24-.17.13-.06.27-.06m15.41-12.71v2.54h-5.02v14.09h-3.09v-14.09h-5.01v-2.54zm11.81 1.57-.77 1.46q-.14.24-.3.35-.15.11-.38.11-.24 0-.52-.18-.29-.18-.68-.4t-.91-.4q-.52-.17-1.24-.17-.64 0-1.12.15-.49.16-.81.43-.33.28-.49.66-.16.39-.16.85 0 .58.32.98.33.39.87.66.54.28 1.23.5t1.42.46q.72.25 1.41.58t1.23.83.87 1.22q.33.73.33 1.76 0 1.13-.39 2.11-.38.98-1.12 1.71-.75.73-1.82 1.15t-2.45.42q-.79 0-1.56-.15-.77-.16-1.48-.44-.7-.29-1.33-.69-.62-.41-1.1-.9l.91-1.48q.11-.17.3-.27.18-.11.39-.11.29 0 .62.23.33.24.79.53.46.28 1.08.52.61.23 1.48.23 1.32 0 2.04-.62.73-.63.73-1.8 0-.66-.33-1.07-.33-.42-.87-.7t-1.23-.47q-.69-.2-1.4-.43t-1.4-.55-1.23-.84q-.55-.52-.87-1.3-.33-.77-.33-1.91 0-.91.36-1.77t1.05-1.53 1.71-1.07q1.01-.4 2.32-.4 1.47 0 2.71.46t2.12 1.29"/></svg>