<svg xmlns="http://www.w3.org/2000/svg" width="100" height="100" viewBox="0 0 100 100"><rect width="100%" height="100%" fill="#dc2626"/><path fill="#ffffff" d="M44.315 37.275h-16.05v10.02h12.65v5.18h-12.65v10.22h16.05v5.38h-22.8v-36.15h22.8zm12.67 11.85h4.2q1.9 0 3.31-.48 1.42-.47 2.33-1.31t1.36-1.99.45-2.52q0-2.75-1.81-4.23-1.81-1.47-5.54-1.47h-4.3zm12.45 5.6 9.05 13.35h-6.07q-1.73 0-2.5-1.35l-7.6-11.58q-.43-.65-.94-.92-.51-.28-1.51-.28h-2.88v14.13h-6.72v-36.15h11.02q3.68 0 6.31.76 2.64.76 4.33 2.14 1.69 1.37 2.49 3.29.8 1.91.8 4.21 0 1.82-.54 3.45-.54 1.62-1.55 2.95-1.01 1.32-2.5 2.32t-3.39 1.58q.65.37 1.2.89.55.51 1 1.21"/></svg>