<svg xmlns="http://www.w3.org/2000/svg" width="100" height="100" viewBox="0 0 100 100"><rect width="100%" height="100%" fill="#dc2626"/><path fill="#ffffff" d="M34.605 49.965h8.88v10.82q-2.04 1.5-4.34 2.19-2.3.7-4.93.7-3.27 0-5.93-1.02-2.65-1.02-4.53-2.83t-2.9-4.33q-1.01-2.52-1.01-5.5 0-3.01.98-5.53.98-2.51 2.78-4.33 1.8-1.81 4.38-2.81 2.57-1 5.77-1 1.63 0 3.04.26 1.42.26 2.63.71 1.21.46 2.21 1.11 1 .64 1.83 1.42l-1.42 2.26q-.34.53-.87.65-.54.12-1.17-.26-.61-.36-1.22-.71t-1.36-.61-1.68-.42q-.94-.17-2.16-.17-1.98 0-3.58.67-1.6.66-2.73 1.9t-1.74 2.98-.61 3.88q0 2.3.66 4.1.66 1.81 1.85 3.05 1.19 1.25 2.88 1.91 1.68.66 3.75.66 1.48 0 2.65-.32 1.16-.31 2.27-.85v-4.85h-3.36q-.48 0-.75-.26-.27-.27-.27-.66zm18.68-13.34v26.75h-4.99v-26.75zm10.96 12.73h3.1q1.41 0 2.46-.35 1.04-.36 1.72-.98.67-.62 1-1.47.34-.85.34-1.86 0-2.04-1.34-3.13-1.35-1.09-4.1-1.09h-3.18zm9.21 4.14 6.7 9.88h-4.5q-1.28 0-1.85-1l-5.62-8.56q-.32-.49-.7-.69t-1.12-.2h-2.12v10.45h-4.98v-26.75h8.16q2.72 0 4.67.56 1.95.57 3.2 1.58 1.25 1.02 1.84 2.44.59 1.41.59 3.12 0 1.35-.4 2.55-.39 1.2-1.14 2.18t-1.85 1.72-2.51 1.17q.48.27.89.65t.74.9"/></svg>