<svg xmlns="http://www.w3.org/2000/svg" width="100" height="100" viewBox="0 0 100 100"><rect width="100%" height="100%" fill="#dc2626"/><path fill="#ffffff" d="M35.78 41.685h2.33v16.63h-2.72v-10.74q0-.64.07-1.39l-5.03 9.44q-.36.68-1.09.68h-.44q-.73 0-1.09-.68l-5.08-9.48q.03.38.05.75.03.37.03.68v10.74h-2.73v-16.63h2.34q.2 0 .35.01t.27.06.22.15.19.28l4.98 9.23q.2.37.36.76.17.39.33.8.16-.42.33-.82.18-.39.37-.76l4.91-9.21q.09-.18.2-.28.1-.1.22-.15t.27-.06.36-.01m9.53 10.35h5.29l-2.02-5.53q-.15-.37-.31-.87-.16-.51-.32-1.1-.15.59-.32 1.1-.16.51-.31.89zm4.22-10.35 6.53 16.63h-2.39q-.4 0-.65-.2-.26-.2-.38-.5l-1.24-3.39h-6.89l-1.25 3.39q-.09.26-.35.48-.27.22-.66.22h-2.41l6.54-16.63zm27.96 0h2.43l-5.17 16.63h-2.79l-3.64-11.36q-.15-.42-.27-1.01-.07.28-.14.54-.07.25-.15.47l-3.67 11.36h-2.8l-5.16-16.63h2.59q.4 0 .67.19t.37.51l2.82 9.95q.1.37.18.8.09.43.18.9.09-.48.2-.91.11-.42.24-.79l3.26-9.95q.1-.26.37-.48t.66-.22h.91q.4 0 .65.2.25.19.38.5l3.26 9.95q.24.71.43 1.64.15-.9.34-1.64l2.83-9.95q.06-.28.35-.49.28-.21.67-.21"/></svg>