<svg xmlns="http://www.w3.org/2000/svg" width="100" height="100" viewBox="0 0 100 100"><rect width="100%" height="100%" fill="#dc2626"/><path fill="#ffffff" d="M29.85 50.095h5.02q1.85 0 3.23-.46 1.37-.46 2.29-1.32.91-.87 1.36-2.1.45-1.24.45-2.77 0-1.45-.45-2.62-.45-1.18-1.35-2-.9-.83-2.27-1.26-1.38-.44-3.26-.44h-5.02zm-6.73-18.17h11.75q3.63 0 6.28.85t4.37 2.37q1.73 1.53 2.57 3.65.84 2.13.84 4.65 0 2.63-.88 4.82-.87 2.18-2.62 3.76-1.75 1.57-4.39 2.45-2.64.87-6.17.87h-5.02v12.73h-6.73zm53.76 5.35H60.83v10.02h12.65v5.18H60.83v10.22h16.05v5.38h-22.8v-36.15h22.8z"/></svg>