<svg xmlns="http://www.w3.org/2000/svg" width="100" height="100" viewBox="0 0 100 100"><rect width="100%" height="100%" fill="#dc2626"/><path fill="#ffffff" d="M23.83 49.575h2.02q.91 0 1.59-.22.68-.23 1.11-.63.44-.41.66-.96.21-.55.21-1.21 0-1.32-.87-2.03t-2.65-.71h-2.07zm5.98 2.69 4.34 6.41h-2.91q-.83 0-1.2-.65l-3.65-5.55q-.21-.32-.45-.45-.25-.13-.73-.13h-1.38v6.78H20.6v-17.35h5.3q1.76 0 3.03.36 1.26.37 2.07 1.03t1.2 1.58q.38.92.38 2.02 0 .88-.26 1.66t-.74 1.41q-.49.64-1.2 1.12-.72.48-1.63.75.31.18.58.43.26.25.48.58m16.27-9.31-.8 1.52q-.15.26-.31.37t-.4.11q-.25 0-.55-.18-.29-.19-.7-.42-.41-.22-.95-.41-.55-.19-1.29-.19-.68 0-1.18.17-.5.16-.85.45-.34.28-.51.69-.16.4-.16.88 0 .61.34 1.02t.9.69q.57.29 1.29.52t1.47.49q.76.25 1.48.6.72.34 1.28.86.57.52.91 1.28.34.75.34 1.83 0 1.18-.4 2.21-.4 1.02-1.18 1.78-.77.77-1.89 1.2-1.11.44-2.55.44-.83 0-1.63-.16-.81-.16-1.55-.46-.73-.3-1.38-.72t-1.15-.94l.94-1.55q.12-.16.32-.28.19-.11.4-.11.3 0 .65.24.35.25.83.55t1.12.55q.64.24 1.54.24 1.38 0 2.14-.65.76-.66.76-1.88 0-.68-.35-1.12-.34-.43-.9-.72-.57-.3-1.29-.5t-1.46-.44-1.46-.58-1.29-.88q-.56-.54-.9-1.35-.35-.81-.35-1.99 0-.95.38-1.85t1.1-1.6q.72-.69 1.78-1.11 1.05-.42 2.42-.42 1.54 0 2.83.48 1.3.48 2.21 1.34m6.36-1.63v17.35H49.2v-17.35zm24.43 0h2.53l-5.38 17.35H71.1l-3.79-11.86q-.16-.43-.29-1.05-.07.3-.14.56-.08.27-.16.49l-3.83 11.86h-2.93l-5.37-17.35h2.7q.42 0 .7.2.28.19.38.53l2.95 10.38q.1.38.19.83t.18.95q.1-.51.21-.95.12-.45.25-.83l3.41-10.38q.09-.28.37-.5.29-.23.69-.23h.95q.42 0 .69.2.26.21.39.53l3.4 10.38q.25.74.45 1.72.16-.95.35-1.72l2.95-10.38q.08-.3.37-.52.29-.21.7-.21"/></svg>