<svg xmlns="http://www.w3.org/2000/svg" width="100" height="100" viewBox="0 0 100 100"><rect width="100%" height="100%" fill="#dc2626"/><path fill="#ffffff" d="m29.865 43.54-.74 1.4q-.13.23-.28.33-.15.11-.37.11-.23 0-.5-.17t-.64-.38q-.38-.21-.88-.38t-1.18-.17q-.62 0-1.08.15-.46.14-.77.41-.32.26-.47.63t-.15.81q0 .56.31.93.31.38.83.64.52.27 1.18.47.66.21 1.35.45t1.35.55 1.18.79.83 1.17q.31.7.31 1.69 0 1.08-.37 2.02-.36.94-1.07 1.63-.71.7-1.74 1.1-1.02.41-2.34.41-.76 0-1.5-.15-.73-.15-1.41-.43-.68-.27-1.27-.66-.59-.38-1.05-.85l.86-1.42q.11-.16.29-.26.18-.11.37-.11.28 0 .6.23t.76.5q.44.28 1.03.5.58.23 1.41.23 1.26 0 1.96-.6.69-.6.69-1.72 0-.63-.31-1.03-.32-.39-.83-.66-.52-.27-1.18-.46t-1.34-.41-1.34-.52q-.66-.31-1.18-.81-.52-.49-.83-1.24-.32-.74-.32-1.83 0-.87.35-1.69.35-.83 1.01-1.46.66-.64 1.63-1.03.96-.38 2.22-.38 1.4 0 2.59.44t2.03 1.23M47.895 50q0 1.75-.58 3.24t-1.63 2.58q-1.06 1.09-2.55 1.7-1.48.61-3.3.61-1.8 0-3.28-.61-1.49-.61-2.55-1.7t-1.65-2.58q-.58-1.49-.58-3.24t.58-3.24q.59-1.49 1.65-2.58t2.55-1.7q1.48-.61 3.28-.61 1.21 0 2.28.28t1.96.79 1.6 1.24q.71.74 1.2 1.64.5.9.76 1.96.26 1.05.26 2.22m-3.03 0q0-1.31-.35-2.35t-1-1.77q-.65-.72-1.58-1.11-.93-.38-2.1-.38-1.16 0-2.09.38-.93.39-1.59 1.11-.65.73-1 1.77t-.35 2.35.35 2.35 1 1.76q.66.72 1.59 1.1.93.39 2.09.39 1.17 0 2.1-.39.93-.38 1.58-1.1t1-1.76.35-2.35m20.65-7.96h2.23v15.91h-2.61V47.68q0-.62.07-1.33l-4.81 9.03q-.34.65-1.04.65h-.42q-.7 0-1.04-.65l-4.87-9.07q.04.37.06.72t.02.65v10.27h-2.61V42.04h2.24q.19 0 .34.02.14.01.26.05.11.04.2.14.1.1.19.27l4.76 8.83q.19.35.35.73.16.37.31.77.15-.41.32-.79.16-.38.35-.73l4.7-8.81q.09-.17.18-.27.1-.1.22-.14.11-.04.26-.05.14-.02.34-.02m8.73 13.47h6.36v2.44h-9.32V42.04h2.96z"/></svg>