<svg xmlns="http://www.w3.org/2000/svg" width="100" height="100" viewBox="0 0 100 100"><rect width="100%" height="100%" fill="#dc2626"/><path fill="#ffffff" d="M33.41 42.04v2.44h-4.79v13.47h-2.96V44.48h-4.8v-2.44zm12.12 2.36h-7.06v4.71h5.96v2.36h-5.96v6.48H35.5V42.04h10.03zM63.12 50q0 1.75-.57 3.24-.58 1.49-1.64 2.58-1.05 1.09-2.54 1.7-1.48.61-3.3.61-1.8 0-3.29-.61-1.48-.61-2.54-1.7-1.07-1.09-1.65-2.58T47.01 50t.58-3.24 1.65-2.58q1.06-1.09 2.54-1.7 1.49-.61 3.29-.61 1.21 0 2.28.28 1.06.28 1.96.79.89.51 1.6 1.24.71.74 1.2 1.64.5.9.75 1.96.26 1.05.26 2.22m-3.02 0q0-1.31-.35-2.35-.36-1.04-1.01-1.77-.64-.72-1.57-1.11-.93-.38-2.1-.38t-2.1.38q-.92.39-1.58 1.11-.65.73-1.01 1.77-.35 1.04-.35 2.35t.35 2.35q.36 1.04 1.01 1.76.66.72 1.58 1.1.93.39 2.1.39t2.1-.39q.93-.38 1.57-1.1.65-.72 1.01-1.76.35-1.04.35-2.35m16.43-7.96h2.61v15.91h-1.52q-.35 0-.59-.12-.23-.11-.45-.39l-8.31-10.6q.07.73.07 1.34v9.77h-2.61V42.04h1.55q.19 0 .32.02.14.02.25.07.1.05.2.14t.22.25l8.34 10.64-.06-.75q-.02-.38-.02-.7z"/></svg>