<svg xmlns="http://www.w3.org/2000/svg" width="100" height="100" viewBox="0 0 100 100"><rect width="100%" height="100%" fill="#dc2626"/><path fill="#ffffff" d="M34.235 40.6v2.87h-5.67V59.4h-3.49V43.47h-5.67V40.6zm11.73 9.37h6.24v7.61q-1.43 1.05-3.05 1.54t-3.47.49q-2.3 0-4.16-.72-1.87-.71-3.19-1.99-1.32-1.27-2.03-3.04-.72-1.77-.72-3.86 0-2.12.69-3.89.69-1.76 1.96-3.04 1.27-1.27 3.07-1.97 1.81-.71 4.06-.71 1.14 0 2.14.19.99.18 1.84.5.86.31 1.56.77.7.45 1.28 1l-1 1.59q-.23.37-.61.46-.37.08-.82-.19-.43-.25-.85-.49-.43-.25-.96-.43-.53-.19-1.18-.3-.66-.12-1.52-.12-1.39 0-2.51.47-1.13.47-1.92 1.34t-1.22 2.09-.43 2.73q0 1.61.46 2.88t1.3 2.15q.84.87 2.02 1.33 1.18.47 2.64.47 1.04 0 1.86-.23.82-.22 1.6-.59V52.6h-2.37q-.34 0-.52-.19-.19-.19-.19-.46zm31.89-9.37h2.74l-5.84 18.8h-3.16l-4.1-12.84q-.17-.47-.32-1.15-.07.33-.15.61-.08.29-.17.54l-4.15 12.84h-3.17l-5.82-18.8h2.92q.46 0 .76.22.31.21.41.57l3.2 11.25q.1.42.2.9.1.49.2 1.02.11-.54.23-1.02t.27-.9l3.69-11.25q.1-.29.41-.54.3-.25.75-.25h1.02q.46 0 .74.22.29.22.43.57l3.68 11.25q.27.81.5 1.86.16-1.03.37-1.86l3.2-11.25q.08-.32.4-.55.32-.24.76-.24"/></svg>