<svg xmlns="http://www.w3.org/2000/svg" width="100" height="100" viewBox="0 0 100 100"><rect width="100%" height="100%" fill="#dc2626"/><path fill="#ffffff" d="M42.485 40.965h2.64l-5.62 18.07h-3.03l-3.95-12.35q-.17-.45-.3-1.1-.08.31-.15.59-.08.27-.17.51l-3.98 12.35h-3.05l-5.6-18.07h2.81q.44 0 .73.2.29.21.39.56l3.08 10.81q.1.4.19.87.1.47.2.98.1-.53.21-.99.12-.46.26-.86l3.55-10.81q.1-.29.39-.53.3-.23.72-.23h.99q.44 0 .71.21.28.21.42.55l3.53 10.81q.27.77.48 1.79.16-.99.36-1.79l3.08-10.81q.07-.32.38-.54.3-.22.73-.22m16.72 0h3.38v18.07h-3.38v-7.9h-8.48v7.9h-3.38v-18.07h3.38v7.77h8.48zm10.77 8.6h2.1q.95 0 1.65-.24.71-.24 1.16-.66.46-.42.69-.99.22-.58.22-1.27 0-1.37-.91-2.11-.9-.74-2.76-.74h-2.15zm6.22 2.79 4.53 6.68h-3.04q-.86 0-1.25-.68l-3.8-5.78q-.21-.33-.47-.47-.26-.13-.76-.13h-1.43v7.06h-3.37v-18.07h5.52q1.83 0 3.15.38t2.16 1.06q.85.69 1.25 1.65.4.95.4 2.1 0 .92-.27 1.73t-.77 1.47q-.51.67-1.25 1.17-.75.5-1.7.78.33.19.6.45.28.25.5.6"/></svg>