<svg xmlns="http://www.w3.org/2000/svg" width="100" height="100" viewBox="0 0 100 100"><rect width="100%" height="100%" fill="#dc2626"/><path fill="#ffffff" d="M23.41 56.155h3.27q.9 0 1.51-.22.61-.21.98-.57.36-.36.52-.84.17-.48.17-1.02 0-.57-.18-1.02t-.57-.76q-.38-.32-.99-.49-.6-.17-1.46-.17h-3.25zm2.75-12.34h-2.75v5.02h2.57q1.66 0 2.5-.6.85-.6.85-1.91 0-1.35-.77-1.93t-2.4-.58m-5.98-2.49h5.98q1.7 0 2.92.32 1.21.33 1.98.93.78.6 1.14 1.45t.36 1.92q0 .61-.18 1.17t-.56 1.04q-.38.49-.96.88-.58.4-1.39.68 3.58.8 3.58 3.86 0 1.1-.42 2.04t-1.23 1.61q-.8.68-1.98 1.07-1.17.38-2.68.38h-6.56zm27.2 0h3.24v17.35h-3.24v-7.58h-8.15v7.58h-3.24v-17.35h3.24v7.46h8.15zm19.22 0v2.65h-5.23v14.7h-3.23v-14.7h-5.23v-2.65zm13.22 2.57h-7.7v4.81h6.07v2.48h-6.07v4.91h7.7v2.58H68.88v-17.35h10.94z"/></svg>