<svg xmlns="http://www.w3.org/2000/svg" width="100" height="100" viewBox="0 0 100 100"><rect width="100%" height="100%" fill="#dc2626"/><path fill="#ffffff" d="M24.235 56.405h3.4q.94 0 1.57-.22.64-.23 1.02-.6.38-.38.55-.88t.17-1.06q0-.59-.19-1.05-.18-.47-.58-.8-.4-.34-1.03-.51-.64-.18-1.52-.18h-3.39zm2.86-12.85h-2.86v5.23h2.67q1.73 0 2.61-.63.88-.62.88-1.98 0-1.42-.8-2.02t-2.5-.6m-6.22-2.59h6.22q1.78 0 3.04.33 1.26.34 2.07.96.8.63 1.18 1.52.37.88.37 2 0 .63-.18 1.22-.19.58-.58 1.08-.4.51-1 .92-.61.41-1.45.7 3.73.84 3.73 4.03 0 1.15-.44 2.12-.44.98-1.28 1.68-.83.71-2.06 1.11-1.22.4-2.8.4h-6.82zm29.09 0v2.76h-5.46v15.31h-3.36v-15.31h-5.45v-2.76zm16.72 0-6.59 11.07v7h-3.35v-7l-6.59-11.07h2.97q.44 0 .69.21.26.21.43.54l3.3 6.03q.29.54.51 1.01.22.48.39.95.16-.47.38-.95.21-.47.49-1.01l3.28-6.03q.14-.28.41-.52.28-.23.71-.23zm5.21 15.29h7.23v2.78h-10.59v-18.07h3.36z"/></svg>