<svg xmlns="http://www.w3.org/2000/svg" width="100" height="100" viewBox="0 0 100 100"><rect width="100%" height="100%" fill="#dc2626"/><path fill="#ffffff" d="M38.27 56.3q.36 0 .64.28l1.75 1.9q-1.45 1.8-3.57 2.76-2.12.95-5.09.95-2.66 0-4.78-.9-2.12-.91-3.62-2.53t-2.3-3.86-.8-4.9q0-2.69.86-4.92.86-2.24 2.42-3.86 1.55-1.61 3.72-2.51 2.16-.9 4.78-.9 2.61 0 4.63.85 2.02.86 3.44 2.25l-1.49 2.06q-.13.2-.33.35-.21.15-.57.15-.25 0-.51-.14-.27-.14-.58-.35-.32-.21-.73-.45-.41-.25-.95-.46-.55-.2-1.27-.34-.71-.14-1.66-.14-1.6 0-2.92.56-1.33.57-2.29 1.65-.96 1.09-1.48 2.64-.53 1.56-.53 3.56 0 2.01.57 3.58t1.54 2.64 2.29 1.64 2.84.57q.91 0 1.64-.1.74-.1 1.36-.31.61-.22 1.17-.55.55-.34 1.09-.84.17-.15.35-.24t.38-.09m19.26-15.99-1.11 2.1q-.2.35-.42.5-.22.16-.55.16-.35 0-.75-.26-.41-.25-.97-.56-.56-.32-1.31-.57-.75-.26-1.77-.26-.93 0-1.62.22-.69.23-1.16.62-.47.4-.71.95-.23.55-.23 1.21 0 .85.47 1.41t1.25.95q.77.4 1.76.71.99.32 2.03.67 1.04.36 2.03.83t1.77 1.18q.77.72 1.25 1.76.47 1.04.47 2.53 0 1.61-.56 3.02-.55 1.41-1.61 2.46-1.07 1.05-2.6 1.65-1.54.6-3.52.6-1.14 0-2.24-.22-1.11-.22-2.12-.63-1.02-.42-1.91-.99-.89-.58-1.58-1.29l1.3-2.13q.17-.23.43-.39.26-.15.56-.15.41 0 .89.33.48.34 1.14.75.66.42 1.54.76.89.33 2.12.33 1.9 0 2.94-.9 1.04-.89 1.04-2.58 0-.94-.47-1.53-.47-.6-1.25-1-.77-.4-1.76-.69-.99-.28-2.01-.61-1.03-.33-2.02-.79t-1.76-1.2q-.78-.74-1.25-1.86-.47-1.11-.47-2.75 0-1.3.52-2.54.52-1.23 1.51-2.19t2.44-1.54q1.46-.57 3.34-.57 2.11 0 3.89.66t3.04 1.84m8.72 18.15h4.49q1.24 0 2.08-.29.84-.3 1.35-.79.5-.5.72-1.16.23-.66.23-1.4 0-.78-.25-1.4-.25-.61-.78-1.05t-1.36-.67-2-.23h-4.48zm3.78-16.96h-3.78v6.9h3.54q2.27 0 3.44-.83 1.16-.82 1.16-2.62 0-1.86-1.06-2.66-1.05-.79-3.3-.79m-8.21-3.43h8.21q2.35 0 4.01.45 1.67.44 2.73 1.27 1.07.82 1.56 1.99.5 1.17.5 2.64 0 .85-.25 1.61-.25.77-.77 1.44t-1.32 1.21-1.9.92q4.91 1.11 4.91 5.32 0 1.52-.57 2.8-.58 1.29-1.69 2.22-1.1.93-2.72 1.46t-3.69.53h-9.01z"/></svg>