<svg xmlns="http://www.w3.org/2000/svg" width="100" height="100" viewBox="0 0 100 100"><rect width="100%" height="100%" fill="#dc2626"/><path fill="#ffffff" d="M38.78 56.3q.36 0 .64.28l1.75 1.9q-1.45 1.8-3.57 2.76-2.12.95-5.09.95-2.66 0-4.78-.9-2.12-.91-3.62-2.53t-2.3-3.86-.8-4.9q0-2.69.85-4.92.86-2.24 2.42-3.86 1.56-1.61 3.72-2.51t4.79-.9q2.6 0 4.63.85 2.02.86 3.44 2.25l-1.49 2.06q-.13.2-.34.35-.2.15-.57.15-.24 0-.51-.14-.26-.14-.58-.35-.31-.21-.72-.45-.41-.25-.96-.46-.54-.2-1.26-.34t-1.66-.14q-1.6 0-2.93.56-1.33.57-2.28 1.65-.96 1.09-1.49 2.64-.53 1.56-.53 3.56 0 2.01.57 3.58t1.55 2.64q.97 1.07 2.29 1.64t2.84.57q.9 0 1.64-.1.73-.1 1.35-.31.62-.22 1.17-.55.56-.34 1.1-.84.17-.15.35-.24t.38-.09m22.11-18.23v3.65h-7.2v20.21h-4.44V41.72h-7.19v-3.65zm10.54 20.06h6.12q.66 0 1.05.38.39.37.39.98v2.44H62.62v-1.35q0-.42.17-.87.18-.45.55-.82l7.25-7.26q.91-.92 1.62-1.76.72-.84 1.2-1.67.48-.82.73-1.67.26-.85.26-1.79 0-.86-.25-1.51t-.7-1.1-1.09-.67q-.63-.22-1.43-.22-.72 0-1.34.21-.62.2-1.1.57t-.81.87q-.33.49-.49 1.09-.28.76-.73 1-.44.25-1.28.12l-2.15-.38q.25-1.72.96-3.01.71-1.3 1.77-2.16 1.07-.87 2.44-1.31 1.38-.43 2.97-.43 1.65 0 3.02.48 1.36.49 2.34 1.38.97.89 1.52 2.15.54 1.25.54 2.79 0 1.32-.39 2.44-.38 1.12-1.04 2.14-.65 1.03-1.52 1.98-.88.96-1.83 1.95l-5.38 5.49q.77-.23 1.54-.35.77-.13 1.46-.13"/></svg>