<svg xmlns="http://www.w3.org/2000/svg" width="100" height="100" viewBox="0 0 100 100"><rect width="100%" height="100%" fill="#dc2626"/><path fill="#ffffff" d="M40.36 50.005q0 2.38-.8 4.38-.79 1.99-2.23 3.43-1.45 1.44-3.47 2.24-2.02.79-4.5.79H21.1v-21.69h8.26q2.48 0 4.5.8t3.47 2.24q1.44 1.43 2.23 3.43.8 1.99.8 4.38m-4.14 0q0-1.79-.48-3.21-.47-1.41-1.36-2.4-.89-.98-2.16-1.5-1.27-.53-2.86-.53h-4.21v15.27h4.21q1.59 0 2.86-.52 1.27-.53 2.16-1.51t1.36-2.4q.48-1.42.48-3.2m22.58 5.72q.34 0 .59.26l1.59 1.73q-1.32 1.63-3.25 2.5t-4.63.87q-2.41 0-4.34-.82-1.93-.83-3.29-2.3-1.37-1.47-2.09-3.51-.73-2.04-.73-4.45 0-2.45.78-4.48.78-2.04 2.2-3.5 1.41-1.47 3.38-2.29 1.96-.82 4.35-.82 2.37 0 4.21.78 1.83.78 3.12 2.04l-1.35 1.88q-.12.18-.3.31-.19.13-.52.13-.22 0-.47-.12-.24-.13-.52-.32l-.66-.41q-.38-.22-.87-.41-.5-.19-1.15-.32t-1.51-.13q-1.45 0-2.66.52t-2.08 1.5q-.87.99-1.35 2.4-.48 1.42-.48 3.24 0 1.83.52 3.25t1.4 2.4q.89.98 2.09 1.49 1.2.52 2.58.52.82 0 1.49-.09t1.23-.28q.56-.2 1.07-.51.5-.31.99-.75.16-.14.32-.22.16-.09.34-.09m20.1-16.57v3.31h-6.54v18.38h-4.03v-18.38h-6.54v-3.31z"/></svg>