<svg xmlns="http://www.w3.org/2000/svg" width="100" height="100" viewBox="0 0 100 100"><rect width="100%" height="100%" fill="#dc2626"/><path fill="#ffffff" d="M35.845 41.855h-10.27v6.85h8.67v3.44h-8.67v9.42h-4.32v-23.14h14.59zm19.41 14.25q.35 0 .63.28l1.69 1.84q-1.41 1.74-3.46 2.67-2.06.93-4.94.93-2.57 0-4.63-.88t-3.51-2.45q-1.46-1.57-2.23-3.75-.78-2.17-.78-4.75 0-2.61.83-4.77.83-2.17 2.35-3.74 1.51-1.57 3.6-2.44 2.1-.87 4.64-.87 2.53 0 4.49.83t3.34 2.18l-1.44 2q-.13.19-.33.33-.2.15-.55.15-.24 0-.5-.14-.25-.14-.56-.34-.3-.2-.7-.44t-.93-.44-1.22-.33q-.7-.14-1.61-.14-1.55 0-2.84.55-1.29.56-2.22 1.6-.93 1.05-1.44 2.56-.51 1.52-.51 3.45 0 1.95.55 3.47t1.5 2.56q.94 1.04 2.22 1.6 1.28.55 2.75.55.88 0 1.6-.1.71-.09 1.31-.3t1.13-.54q.54-.33 1.07-.81.16-.14.33-.23.18-.09.37-.09m21.17 0q.35 0 .62.28l1.7 1.84q-1.41 1.74-3.46 2.67-2.06.93-4.94.93-2.58 0-4.63-.88-2.06-.88-3.51-2.45-1.46-1.57-2.24-3.75-.77-2.17-.77-4.75 0-2.61.83-4.77.83-2.17 2.34-3.74 1.52-1.57 3.61-2.44 2.1-.87 4.64-.87 2.53 0 4.49.83t3.34 2.18l-1.44 2q-.13.19-.33.33-.2.15-.55.15-.24 0-.5-.14t-.56-.34-.7-.44-.93-.44-1.23-.33q-.69-.14-1.6-.14-1.56 0-2.84.55-1.29.56-2.22 1.6-.93 1.05-1.44 2.56-.51 1.52-.51 3.45 0 1.95.55 3.47t1.5 2.56q.94 1.04 2.22 1.6 1.28.55 2.75.55.88 0 1.59-.1.72-.09 1.32-.3t1.13-.54q.54-.33 1.07-.81.16-.14.33-.23.18-.09.37-.09"/></svg>