<svg xmlns="http://www.w3.org/2000/svg" width="100" height="100" viewBox="0 0 100 100"><rect width="100%" height="100%" fill="#dc2626"/><path fill="#ffffff" d="M35.83 41.855H25.56v6.85h8.67v3.44h-8.67v9.42h-4.32v-23.14h14.59zm25.59 8.14q0 2.55-.84 4.71-.84 2.17-2.38 3.76-1.54 1.58-3.7 2.47t-4.8.89q-2.62 0-4.78-.89t-3.7-2.47q-1.55-1.59-2.4-3.76-.84-2.16-.84-4.71 0-2.54.84-4.71.85-2.17 2.4-3.75 1.54-1.59 3.7-2.47 2.16-.89 4.78-.89 1.76 0 3.32.41 1.55.4 2.84 1.15 1.3.74 2.33 1.81 1.03 1.06 1.75 2.37t1.1 2.85.38 3.23m-4.4 0q0-1.9-.52-3.41-.51-1.52-1.45-2.57-.95-1.06-2.3-1.62t-3.05-.56q-1.69 0-3.04.56-1.36.56-2.31 1.62-.95 1.05-1.46 2.57-.51 1.51-.51 3.41 0 1.91.51 3.42t1.46 2.56 2.31 1.61q1.35.56 3.04.56 1.7 0 3.05-.56t2.3-1.61q.94-1.05 1.45-2.56.52-1.51.52-3.42m12.49 8.02h9.25v3.55H65.21v-23.14h4.3z"/></svg>