<svg xmlns="http://www.w3.org/2000/svg" width="100" height="100" viewBox="0 0 100 100"><rect width="100%" height="100%" fill="#dc2626"/><path fill="#ffffff" d="M28.7 45.42h-5.78v3.85h4.88v1.94h-4.88v5.3h-2.43V43.5h8.21zm9.51-.7-.6 1.14q-.11.19-.23.28-.13.08-.31.08t-.4-.14q-.23-.14-.53-.31-.31-.17-.72-.31t-.96-.14q-.51 0-.89.12-.37.13-.63.34-.26.22-.38.52-.13.3-.13.66 0 .46.26.77.25.3.68.52.42.21.96.38l1.11.37q.56.19 1.1.45t.97.65q.42.39.68.96.25.56.25 1.37 0 .88-.3 1.65t-.88 1.35q-.58.57-1.42.9-.84.32-1.92.32-.62 0-1.22-.12t-1.16-.34q-.55-.23-1.04-.54-.48-.32-.86-.71l.71-1.16q.09-.12.24-.21.14-.08.3-.08.23 0 .49.18t.62.41q.36.22.84.41.48.18 1.16.18 1.03 0 1.6-.49t.57-1.41q0-.51-.26-.83-.26-.33-.68-.55t-.96-.37-1.1-.33-1.1-.44q-.54-.25-.96-.65-.43-.41-.68-1.01-.26-.61-.26-1.5 0-.71.29-1.39.28-.67.82-1.2.54-.52 1.33-.83.79-.32 1.82-.32 1.15 0 2.12.36t1.66 1.01M52.96 50q0 1.43-.47 2.65-.48 1.22-1.34 2.11t-2.08 1.39q-1.21.5-2.7.5-1.47 0-2.69-.5-1.21-.5-2.08-1.39t-1.35-2.11-.48-2.65.48-2.65 1.35-2.11 2.08-1.39q1.22-.5 2.69-.5.99 0 1.87.23.87.23 1.6.65t1.31 1.02q.58.59.98 1.33.41.74.62 1.6.21.87.21 1.82m-2.47 0q0-1.07-.29-1.92t-.82-1.44q-.53-.6-1.29-.91-.76-.32-1.72-.32-.95 0-1.71.32-.76.31-1.3.91-.53.59-.82 1.44T42.25 50t.29 1.92.82 1.44q.54.59 1.3.91.76.31 1.71.31.96 0 1.72-.31.76-.32 1.29-.91t.82-1.44.29-1.92m16.16 0q0 1.43-.48 2.63-.47 1.2-1.34 2.06-.86.87-2.08 1.34-1.21.48-2.7.48h-4.96V43.5h4.96q1.49 0 2.7.48 1.22.48 2.08 1.34.87.86 1.34 2.05.48 1.2.48 2.63m-2.48 0q0-1.07-.29-1.92-.28-.85-.82-1.44-.53-.59-1.29-.9-.76-.32-1.72-.32h-2.53v9.16h2.53q.96 0 1.72-.31.76-.32 1.29-.91.54-.59.82-1.44.29-.85.29-1.92m11.02-.02h4.32v5.27q-.99.73-2.11 1.07-1.12.33-2.4.33-1.59 0-2.88-.49-1.29-.5-2.21-1.38-.91-.88-1.41-2.1-.49-1.23-.49-2.68 0-1.46.48-2.69.47-1.22 1.35-2.1.88-.89 2.13-1.37 1.25-.49 2.81-.49.79 0 1.48.13.69.12 1.27.34.59.22 1.08.54.49.31.89.69l-.69 1.1q-.16.26-.42.32-.27.06-.57-.13l-.6-.34q-.29-.17-.66-.3-.36-.13-.82-.21-.45-.08-1.04-.08-.97 0-1.75.33-.77.32-1.32.92-.55.61-.85 1.45-.3.85-.3 1.89 0 1.12.32 2 .32.87.9 1.48t1.4.93 1.83.32q.72 0 1.29-.16.56-.15 1.1-.41V51.8h-1.63q-.24 0-.37-.13t-.13-.32z"/></svg>