<svg xmlns="http://www.w3.org/2000/svg" width="100" height="100" viewBox="0 0 100 100"><rect width="100%" height="100%" fill="#dc2626"/><path fill="#ffffff" d="M30.375 49.97h6.24v7.61q-1.43 1.05-3.05 1.54t-3.46.49q-2.3 0-4.17-.72-1.87-.71-3.18-1.99-1.32-1.27-2.04-3.04-.71-1.77-.71-3.86 0-2.12.68-3.89.69-1.76 1.96-3.04 1.27-1.27 3.08-1.97 1.8-.71 4.05-.71 1.15 0 2.14.19.99.18 1.85.5.85.31 1.55.77.7.45 1.29 1l-1 1.59q-.24.37-.62.46-.37.08-.81-.19-.43-.25-.86-.49-.43-.25-.96-.43-.52-.19-1.18-.3-.66-.12-1.52-.12-1.39 0-2.51.47-1.13.47-1.92 1.34t-1.22 2.09-.43 2.73q0 1.61.46 2.88t1.3 2.15q.84.87 2.02 1.33 1.19.47 2.64.47 1.04 0 1.86-.23.82-.22 1.6-.59V52.6h-2.36q-.34 0-.53-.19t-.19-.46zm13.13-9.37v18.8h-3.51V40.6zm17.33 0v2.87h-5.67V59.4h-3.5V43.47h-5.66V40.6zm19.16 9.4q0 2.07-.69 3.8t-1.93 2.97q-1.25 1.25-3.01 1.94-1.75.69-3.9.69h-7.16V40.6h7.16q2.15 0 3.9.7 1.76.69 3.01 1.93 1.24 1.25 1.93 2.97.69 1.73.69 3.8m-3.59 0q0-1.55-.41-2.77-.41-1.23-1.18-2.08-.77-.86-1.87-1.31-1.1-.46-2.48-.46h-3.65v13.24h3.65q1.38 0 2.48-.46 1.1-.45 1.87-1.3.77-.86 1.18-2.08.41-1.23.41-2.78"/></svg>