<svg xmlns="http://www.w3.org/2000/svg" width="100" height="100" viewBox="0 0 100 100"><rect width="100%" height="100%" fill="#dc2626"/><path fill="#ffffff" d="M35.17 39.515h3.91v20.97h-3.91v-9.16h-9.85v9.16h-3.91v-20.97h3.91v9.02h9.85zm12.48 0v8.79h.92q.55 0 .91-.15t.62-.49l5.79-7.32q.36-.46.76-.65.4-.18 1.01-.18h3.36l-7.06 8.72q-.62.79-1.29 1.13.48.17.86.48.39.32.73.82l7.28 9.82h-3.43q-.7 0-1.04-.2-.34-.19-.57-.57l-5.93-7.74q-.28-.39-.64-.55t-1.05-.16h-1.23v9.22h-3.9v-20.97zm19.88 10.54h2.92q1.07 0 1.87-.26.79-.27 1.32-.77t.79-1.22.26-1.6q0-.84-.26-1.53-.26-.68-.78-1.15-.52-.48-1.32-.74-.8-.25-1.88-.25h-2.92zm-3.9-10.54h6.82q2.1 0 3.64.5 1.53.49 2.53 1.37 1 .89 1.49 2.12.48 1.23.48 2.7 0 1.52-.5 2.79-.51 1.27-1.52 2.18-1.02.91-2.55 1.42t-3.57.51h-2.92v7.38h-3.9z"/></svg>