<svg xmlns="http://www.w3.org/2000/svg" width="100" height="100" viewBox="0 0 100 100"><rect width="100%" height="100%" fill="#dc2626"/><path fill="#ffffff" d="M35.11 31.925v36.15h-6.75v-36.15zm32.91 27.62q.54 0 .97.43l2.65 2.87q-2.2 2.73-5.41 4.18-3.22 1.45-7.72 1.45-4.02 0-7.23-1.38-3.22-1.37-5.49-3.82-2.28-2.45-3.49-5.85t-1.21-7.42q0-4.08 1.3-7.47t3.66-5.84 5.64-3.81q3.27-1.36 7.25-1.36 3.95 0 7.01 1.3 3.07 1.3 5.22 3.4l-2.25 3.12q-.21.3-.52.53-.31.22-.86.22-.37 0-.77-.21t-.88-.52q-.47-.32-1.1-.69-.63-.38-1.45-.69-.83-.31-1.91-.52-1.09-.22-2.52-.22-2.42 0-4.43.87-2.02.86-3.47 2.5-1.45 1.63-2.25 4-.8 2.36-.8 5.39 0 3.04.87 5.42.86 2.37 2.33 4 1.48 1.62 3.48 2.49 2 .86 4.3.86 1.38 0 2.49-.15t2.05-.48q.94-.32 1.77-.83.84-.52 1.67-1.27.25-.22.52-.36t.58-.14"/></svg>