<svg xmlns="http://www.w3.org/2000/svg" width="100" height="100" viewBox="0 0 100 100"><rect width="100%" height="100%" fill="#dc2626"/><path fill="#ffffff" d="M25.35 39.885v8.48h.88q.54 0 .89-.15.35-.14.6-.47l5.58-7.07q.35-.44.74-.62.38-.17.97-.17h3.25l-6.82 8.41q-.6.77-1.24 1.09.46.17.83.47t.71.79l7.02 9.48h-3.31q-.68 0-1.01-.19-.32-.19-.55-.55l-5.72-7.48q-.27-.38-.62-.53t-1.01-.15h-1.19v8.9h-3.76v-20.24zm34.74 10.12q0 2.22-.74 4.12-.73 1.9-2.08 3.28-1.34 1.39-3.23 2.17-1.89.77-4.2.77-2.3 0-4.19-.77-1.89-.78-3.24-2.17-1.35-1.38-2.09-3.28t-.74-4.12q0-2.23.74-4.13.74-1.89 2.09-3.28 1.35-1.38 3.24-2.16t4.19-.78q1.54 0 2.9.36 1.35.36 2.49 1.01 1.13.65 2.03 1.58.91.93 1.54 2.08t.96 2.49.33 2.83m-3.85 0q0-1.67-.45-2.99t-1.28-2.25q-.82-.92-2.01-1.41-1.18-.49-2.66-.49-1.49 0-2.67.49t-2.02 1.41q-.83.93-1.28 2.25-.44 1.32-.44 2.99 0 1.66.44 2.99.45 1.32 1.28 2.24.84.91 2.02 1.4t2.67.49q1.48 0 2.66-.49 1.19-.49 2.01-1.4.83-.92 1.28-2.24.45-1.33.45-2.99m10.93 7.18h3.81q1.05 0 1.76-.25.72-.25 1.14-.67.43-.42.62-.98t.19-1.19q0-.66-.21-1.19-.21-.52-.66-.89t-1.16-.57q-.7-.2-1.7-.2h-3.79zm3.21-14.39h-3.21v5.85h3q1.93 0 2.92-.7.98-.7.98-2.23 0-1.58-.89-2.25-.9-.67-2.8-.67m-6.98-2.91h6.98q1.98 0 3.4.37 1.41.38 2.31 1.08.91.7 1.33 1.7.42.99.42 2.24 0 .71-.21 1.36t-.65 1.22-1.12 1.03-1.62.78q4.17.94 4.17 4.51 0 1.29-.49 2.38t-1.43 1.88q-.93.79-2.31 1.24-1.37.45-3.13.45H63.4z"/></svg>