<svg xmlns="http://www.w3.org/2000/svg" width="100" height="100" viewBox="0 0 100 100"><rect width="100%" height="100%" fill="#dc2626"/><path fill="#ffffff" d="M24.105 55.765h6.65v2.55h-9.74v-16.63h3.09zm19.77-14.08h3.1v16.63h-3.1v-7.27h-7.81v7.27h-3.1v-16.63h3.1v7.15h7.81zm10.3 10.35h5.29l-2.02-5.53q-.15-.37-.31-.87-.16-.51-.32-1.1-.15.59-.31 1.1t-.31.89zm4.22-10.35 6.54 16.63h-2.4q-.4 0-.65-.2t-.38-.5l-1.24-3.39h-6.89l-1.24 3.39q-.1.26-.36.48t-.66.22h-2.41l6.54-16.63zm11.35 14.21h3.13q.86 0 1.45-.2.59-.21.94-.55.35-.35.5-.81.16-.46.16-.98 0-.54-.17-.97-.18-.43-.54-.73-.37-.31-.95-.47t-1.4-.16h-3.12zm2.64-11.82h-2.64v4.81h2.47q1.58 0 2.39-.57.81-.58.81-1.83 0-1.3-.73-1.86-.74-.55-2.3-.55m-5.73-2.39h5.73q1.63 0 2.79.31t1.91.89q.74.57 1.08 1.39.35.82.35 1.84 0 .58-.18 1.12-.17.53-.53 1t-.92.85q-.56.37-1.33.64 3.43.77 3.43 3.7 0 1.06-.4 1.96-.41.89-1.18 1.54t-1.89 1.02q-1.13.37-2.58.37h-6.28z"/></svg>