<svg xmlns="http://www.w3.org/2000/svg" width="100" height="100" viewBox="0 0 100 100"><rect width="100%" height="100%" fill="#dc2626"/><path fill="#ffffff" d="M23.86 55.51h6.36v2.44H20.9V42.04h2.96zM35.3 42.04v15.91h-2.97V42.04zm6.9 9.9h5.06l-1.94-5.29q-.14-.35-.29-.83-.16-.49-.31-1.05-.14.56-.3 1.05-.15.49-.3.86zm4.04-9.9 6.24 15.91H50.2q-.39 0-.63-.19t-.36-.48l-1.19-3.25h-6.59l-1.19 3.25q-.09.25-.34.46t-.63.21h-2.31l6.26-15.91zm17.93 2.36H57.1v4.71h5.97v2.36H57.1v6.48h-2.97V42.04h10.04zm13.34 9.8q.24 0 .43.19l1.16 1.26q-.96 1.2-2.38 1.84-1.41.64-3.39.64-1.77 0-3.19-.61-1.41-.6-2.41-1.68t-1.53-2.58q-.54-1.49-.54-3.26 0-1.8.57-3.29.58-1.49 1.62-2.56 1.04-1.08 2.48-1.68t3.19-.6q1.73 0 3.08.57t2.3 1.5l-.99 1.37q-.09.13-.23.23t-.38.1q-.16 0-.34-.09-.18-.1-.39-.23-.2-.14-.48-.31-.27-.16-.64-.3-.36-.14-.84-.23t-1.1-.09q-1.07 0-1.96.38-.88.38-1.52 1.1t-.99 1.76-.35 2.37q0 1.34.38 2.38.38 1.05 1.03 1.76.64.72 1.52 1.1t1.9.38q.6 0 1.09-.07.49-.06.9-.21.42-.14.78-.37.37-.22.74-.55.11-.1.23-.16t.25-.06"/></svg>