<svg xmlns="http://www.w3.org/2000/svg" width="100" height="100" viewBox="0 0 100 100"><rect width="100%" height="100%" fill="#dc2626"/><path fill="#ffffff" d="M28.79 60.27h11.85v4.55H23.28V35.18h5.51zm43.77-25.09h4.16v29.64h-4.86V45.67q0-1.15.13-2.48l-8.96 16.83q-.64 1.21-1.95 1.21h-.78q-1.31 0-1.95-1.21l-9.06-16.89q.06.68.11 1.33.04.66.04 1.21v19.15h-4.86V35.18h4.16q.37 0 .63.02.27.02.49.1.21.08.39.27.17.18.33.49l8.88 16.46q.35.66.65 1.35.29.7.58 1.44.29-.76.6-1.47.3-.71.65-1.36l8.75-16.42q.17-.31.35-.49.19-.19.4-.27.22-.08.48-.1.27-.02.64-.02"/></svg>