<svg xmlns="http://www.w3.org/2000/svg" width="100" height="100" viewBox="0 0 100 100"><rect width="100%" height="100%" fill="#dc2626"/><path fill="#ffffff" d="M24.905 57.765h8.96v3.44h-13.13v-22.41h4.17zm33.1-18.97h3.14v22.41h-3.67v-14.48q0-.87.09-1.87l-6.77 12.72q-.48.92-1.47.92h-.59q-1 0-1.48-.92l-6.85-12.77q.05.51.08 1.01.03.49.03.91v14.48h-3.67v-22.41h3.14q.28 0 .48.01.21.02.37.08t.29.2q.14.14.26.37l6.71 12.45q.26.5.49 1.02.22.53.44 1.09.22-.58.45-1.11t.5-1.03l6.61-12.42q.13-.23.27-.37t.3-.2.36-.08q.21-.01.49-.01m12.3 18.97h8.96v3.44h-13.13v-22.41h4.17z"/></svg>