<svg xmlns="http://www.w3.org/2000/svg" width="100" height="100" viewBox="0 0 100 100"><rect width="100%" height="100%" fill="#dc2626"/><path fill="#ffffff" d="M26.655 58.765h10.11v3.89h-14.82v-25.31h4.71zm37.61-8.76q0 2.78-.92 5.15t-2.6 4.1q-1.68 1.74-4.05 2.71-2.36.97-5.25.97-2.86 0-5.23-.97-2.36-.97-4.05-2.71-1.69-1.73-2.62-4.1-.92-2.37-.92-5.15 0-2.79.92-5.16.93-2.37 2.62-4.1t4.05-2.7q2.37-.98 5.23-.98 1.93 0 3.63.45 1.69.45 3.11 1.26t2.55 1.98q1.13 1.16 1.92 2.6.78 1.43 1.19 3.11.42 1.68.42 3.54m-4.82 0q0-2.09-.56-3.74t-1.59-2.81q-1.03-1.15-2.51-1.77-1.48-.61-3.34-.61-1.85 0-3.33.61-1.48.62-2.52 1.77-1.04 1.16-1.6 2.81t-.56 3.74q0 2.08.56 3.73.56 1.66 1.6 2.8 1.04 1.15 2.52 1.76t3.33.61q1.86 0 3.34-.61t2.51-1.76q1.03-1.14 1.59-2.8.56-1.65.56-3.73m18.61-12.66v16.31q0 2.14-.53 3.85-.52 1.72-1.57 2.93-1.04 1.2-2.6 1.85-1.55.65-3.62.65-.94 0-1.85-.11-.91-.12-1.91-.36.05-.7.12-1.4t.12-1.4q.06-.39.31-.62.26-.24.73-.24.3 0 .78.12t1.21.12q1 0 1.77-.28.77-.29 1.29-.92.51-.63.78-1.64.26-1.01.26-2.44v-16.42z"/></svg>