<svg xmlns="http://www.w3.org/2000/svg" width="100" height="100" viewBox="0 0 100 100"><rect width="100%" height="100%" fill="#dc2626"/><path fill="#ffffff" d="M44.75 37.345h3.55v25.31h-4.15v-16.35q0-.98.11-2.11l-7.65 14.36q-.54 1.04-1.66 1.04h-.67q-1.12 0-1.66-1.04l-7.74-14.42q.06.58.09 1.14.04.56.04 1.03v16.35h-4.15v-25.31h3.55q.32 0 .54.02.23.02.42.09.18.07.33.23.15.15.29.42l7.57 14.05q.3.56.56 1.15.25.6.49 1.23.25-.65.51-1.25.26-.61.56-1.17l7.47-14.01q.14-.27.3-.42.16-.16.34-.23.19-.07.41-.09.23-.02.55-.02m13.91 0v25.31h-4.72v-25.31zm10.36 21.42h10.12v3.89H64.31v-25.31h4.71z"/></svg>