<svg xmlns="http://www.w3.org/2000/svg" width="100" height="100" viewBox="0 0 100 100"><rect width="100%" height="100%" fill="#dc2626"/><path fill="#ffffff" d="M39.82 39.885h2.84v20.24h-3.32v-13.08q0-.78.09-1.69l-6.12 11.49q-.43.83-1.33.83h-.53q-.9 0-1.33-.83l-6.19-11.53q.04.46.07.91t.03.82v13.08h-3.32v-20.24h2.84q.25 0 .44.01.18.01.33.07.14.06.26.18.12.13.23.34l6.06 11.24q.24.45.45.92.2.48.39.98.2-.51.41-1 .21-.48.45-.93l5.98-11.21q.11-.21.23-.34.13-.12.28-.18.14-.06.33-.07.18-.01.43-.01m21.66 0h3.04l-8.18 20.24h-3.4l-8.18-20.24h3.03q.49 0 .79.23.31.24.47.62l4.77 12.35q.24.6.46 1.32.21.72.41 1.51.17-.79.36-1.51.2-.72.44-1.32l4.74-12.35q.11-.32.44-.59.33-.26.81-.26m6.21 5.96-1.82-.32q.21-1.46.82-2.56.6-1.1 1.5-1.83.9-.74 2.07-1.11t2.52-.37q1.4 0 2.52.4 1.13.4 1.93 1.11.8.7 1.22 1.66.43.95.43 2.05 0 .97-.22 1.71-.21.73-.62 1.28-.41.54-1.01.92t-1.36.63q1.82.57 2.72 1.75t.9 2.95q0 1.52-.56 2.68t-1.52 1.95q-.95.79-2.2 1.2-1.25.4-2.65.4-1.53 0-2.66-.35-1.14-.35-1.98-1.03-.84-.69-1.43-1.68-.58-1-1-2.3l1.52-.63q.6-.25 1.13-.13.52.12.76.57.25.49.56.96.3.48.72.85t.98.6q.57.23 1.35.23.89 0 1.54-.29.66-.28 1.1-.74.44-.47.66-1.03.22-.57.22-1.14 0-.73-.16-1.33-.15-.59-.64-1.01t-1.41-.66q-.91-.24-2.45-.24v-2.46q1.27-.02 2.11-.24t1.34-.62.69-.96q.2-.56.2-1.23 0-1.43-.8-2.17-.8-.75-2.13-.75-.62 0-1.13.18-.52.17-.93.49-.42.31-.7.73t-.42.93q-.24.64-.62.85-.39.21-1.09.1"/></svg>