<svg xmlns="http://www.w3.org/2000/svg" width="100" height="100" viewBox="0 0 100 100"><rect width="100%" height="100%" fill="#dc2626"/><path fill="#ffffff" d="M35.735 42.04h2.23v15.91h-2.61V47.68q0-.62.07-1.33l-4.81 9.03q-.34.65-1.04.65h-.42q-.7 0-1.05-.65l-4.86-9.07q.04.37.06.72t.02.65v10.27h-2.61V42.04h2.24q.19 0 .34.02.14.01.26.05.11.04.2.14.1.1.19.27l4.76 8.83q.19.35.35.73l.31.77q.15-.41.32-.79.16-.38.35-.73l4.7-8.81q.08-.17.18-.27t.22-.14q.11-.04.26-.05.14-.02.34-.02m17.01 0h2.39l-6.42 15.91h-2.68l-6.42-15.91h2.38q.38 0 .62.19.25.19.37.49l3.75 9.7q.18.47.36 1.04.17.56.32 1.18.13-.62.29-1.18.15-.57.34-1.04l3.73-9.7q.08-.26.34-.47t.63-.21m13.25 1.5-.74 1.4q-.13.23-.28.33-.15.11-.37.11-.23 0-.5-.17t-.64-.38q-.38-.21-.88-.38t-1.18-.17q-.61 0-1.08.15-.46.14-.77.41-.32.26-.47.63t-.15.81q0 .56.31.93.31.38.83.64.52.27 1.18.47.66.21 1.35.45t1.35.55 1.18.79.83 1.17q.31.7.31 1.69 0 1.08-.36 2.02-.37.94-1.08 1.63-.71.7-1.73 1.1-1.03.41-2.35.41-.76 0-1.49-.15-.74-.15-1.42-.43-.67-.27-1.27-.66-.59-.38-1.05-.85l.87-1.42q.11-.16.28-.26.18-.11.38-.11.27 0 .59.23t.76.5q.44.28 1.03.5.59.23 1.41.23 1.27 0 1.96-.6t.69-1.72q0-.63-.31-1.03-.32-.39-.83-.66-.52-.27-1.18-.46t-1.34-.41-1.34-.52q-.66-.31-1.18-.81-.52-.49-.83-1.24-.31-.74-.31-1.83 0-.87.34-1.69.35-.83 1.01-1.46.66-.64 1.63-1.03.96-.38 2.22-.38 1.41 0 2.59.44 1.19.44 2.03 1.23m4.08 8.42h4.84v-5.21q0-.73.1-1.63zm7.2 0h2.01v1.57q0 .22-.15.38-.14.16-.4.16h-1.46v3.88h-2.36v-3.88h-6.71q-.27 0-.48-.17t-.27-.43l-.28-1.37 7.53-10.07h2.57z"/></svg>