<svg xmlns="http://www.w3.org/2000/svg" width="100" height="100" viewBox="0 0 100 100"><rect width="100%" height="100%" fill="#dc2626"/><path fill="#ffffff" d="M37.615 38.07h3.92v23.86h-2.28q-.53 0-.88-.17-.36-.18-.69-.59l-12.46-15.9q.1 1.08.1 2.01v14.65h-3.91V38.07h2.33q.28 0 .49.03.2.02.36.09.15.08.3.22t.33.37l12.51 15.97q-.05-.58-.08-1.14-.04-.56-.04-1.04zm37.49 0h3.48l-7.4 23.86h-4.01l-5.22-16.3q-.21-.6-.39-1.45-.1.41-.2.77t-.22.68l-5.26 16.3h-4.03l-7.39-23.86h3.71q.58 0 .97.27.39.28.52.74l4.06 14.27q.13.53.25 1.15.13.62.26 1.29.13-.69.29-1.3t.34-1.14l4.68-14.27q.14-.38.52-.7.39-.31.95-.31h1.31q.57 0 .94.28.36.28.54.73l4.67 14.27q.35 1.02.63 2.36.21-1.3.48-2.36l4.05-14.27q.1-.42.51-.71.4-.3.96-.3"/></svg>