<svg xmlns="http://www.w3.org/2000/svg" width="100" height="100" viewBox="0 0 100 100"><rect width="100%" height="100%" fill="#dc2626"/><path fill="#ffffff" d="M43.82 50.095h5.03q1.85 0 3.22-.46 1.38-.46 2.29-1.32.92-.87 1.37-2.1.45-1.24.45-2.77 0-1.45-.45-2.62-.45-1.18-1.36-2-.89-.83-2.27-1.26-1.37-.44-3.25-.44h-5.03zm-6.72-18.17h11.75q3.63 0 6.27.85 2.66.85 4.38 2.37 1.73 1.53 2.56 3.65.84 2.13.84 4.65 0 2.63-.87 4.82-.88 2.18-2.63 3.76-1.75 1.57-4.39 2.45-2.64.87-6.16.87h-5.03v12.73H37.1z"/></svg>