<svg xmlns="http://www.w3.org/2000/svg" width="100" height="100" viewBox="0 0 100 100"><rect width="100%" height="100%" fill="#dc2626"/><path fill="#ffffff" d="M27.89 50.08h3.92q1.44 0 2.51-.36t1.79-1.03q.71-.68 1.06-1.64.35-.97.35-2.16 0-1.13-.35-2.04-.35-.92-1.05-1.57-.71-.64-1.78-.98t-2.53-.34h-3.92zM22.64 35.9h9.17q2.82 0 4.89.67 2.07.66 3.41 1.85 1.35 1.19 2 2.85.66 1.65.66 3.62 0 2.05-.69 3.76-.68 1.7-2.04 2.93-1.37 1.23-3.43 1.91-2.05.68-4.8.68h-3.92v9.93h-5.25zm50.76 0h3.96v28.2h-4.62V45.89q0-1.09.11-2.36l-8.52 16.01q-.6 1.15-1.85 1.15h-.74q-1.25 0-1.85-1.15l-8.62-16.07q.06.64.1 1.27.03.62.03 1.15V64.1h-4.62V35.9h3.96q.35 0 .61.02.25.02.45.1.21.08.37.25.17.18.33.47l8.44 15.66q.33.62.61 1.29.29.66.56 1.36.27-.72.57-1.39.29-.68.62-1.3l8.33-15.62q.15-.29.33-.47.17-.17.38-.25.2-.08.46-.1.25-.02.6-.02"/></svg>