<svg xmlns="http://www.w3.org/2000/svg" width="100" height="100" viewBox="0 0 100 100"><rect width="100%" height="100%" fill="#dc2626"/><path fill="#ffffff" d="M26.45 49.55h2.77q1.25 0 2.18-.31.94-.31 1.54-.87.6-.55.9-1.31.29-.76.29-1.66 0-1.82-1.19-2.79-1.2-.98-3.66-.98h-2.83zm8.21 3.7 5.98 8.81h-4.01q-1.14 0-1.65-.89l-5.02-7.64q-.28-.43-.62-.61t-1-.18h-1.89v9.32h-4.44V38.2h7.27q2.43 0 4.17.5 1.74.51 2.85 1.41 1.12.91 1.65 2.17.52 1.27.52 2.78 0 1.21-.35 2.28-.36 1.07-1.02 1.95-.67.87-1.65 1.53-.99.66-2.24 1.04.43.25.79.59.37.34.66.8M59.89 38.2v3.65H52.7v20.21h-4.44V41.85h-7.2V38.2zm10.54 20.06h6.13q.66 0 1.04.38.39.37.39.98v2.44H61.62v-1.35q0-.42.18-.87.17-.45.55-.82l7.24-7.26q.91-.92 1.63-1.76t1.19-1.67q.48-.82.74-1.67.25-.85.25-1.79 0-.86-.24-1.51-.25-.65-.7-1.1-.46-.45-1.09-.67-.64-.22-1.43-.22-.73 0-1.35.21-.61.2-1.09.57t-.81.87q-.33.49-.5 1.09-.28.76-.72 1-.45.25-1.29.12l-2.14-.38q.24-1.72.95-3.01.71-1.3 1.78-2.16 1.06-.87 2.44-1.31 1.38-.43 2.96-.43 1.65 0 3.02.48 1.37.49 2.34 1.38.98.89 1.52 2.15.55 1.25.55 2.79 0 1.32-.39 2.44t-1.04 2.14q-.65 1.03-1.53 1.98-.87.96-1.83 1.95l-5.38 5.49q.78-.23 1.54-.35.77-.13 1.46-.13"/></svg>