<svg xmlns="http://www.w3.org/2000/svg" width="100" height="100" viewBox="0 0 100 100"><rect width="100%" height="100%" fill="#dc2626"/><path fill="#ffffff" d="m35.78 40.605-1.08 2.03q-.19.34-.4.49-.22.15-.54.15-.34 0-.73-.25-.39-.24-.93-.55-.55-.3-1.28-.55-.72-.25-1.72-.25-.89 0-1.56.22-.68.21-1.13.6-.46.38-.68.92-.23.53-.23 1.17 0 .82.46 1.36.46.55 1.21.93.75.39 1.71.69t1.97.65q1.01.34 1.97.8.96.45 1.71 1.15t1.21 1.7q.45 1.01.45 2.45 0 1.57-.53 2.94-.54 1.37-1.57 2.38-1.03 1.02-2.52 1.6-1.49.59-3.41.59-1.1 0-2.18-.22-1.07-.22-2.05-.62-.99-.4-1.85-.96t-1.54-1.24l1.27-2.07q.16-.22.41-.37.26-.16.55-.16.4 0 .86.33.47.33 1.11.73t1.49.73q.86.33 2.06.33 1.84 0 2.85-.88 1-.87 1-2.5 0-.91-.45-1.49-.46-.57-1.21-.97-.75-.39-1.71-.66t-1.95-.59q-1-.32-1.96-.77t-1.71-1.17-1.21-1.8q-.45-1.08-.45-2.66 0-1.27.5-2.47.51-1.2 1.47-2.12.96-.93 2.36-1.49 1.41-.56 3.24-.56 2.04 0 3.77.64t2.95 1.79m8.48-2.18v23.14h-4.32v-23.14zm9.48 0v23.14h-4.32v-23.14zm25.72 11.57q0 2.55-.85 4.67-.85 2.13-2.39 3.67-1.53 1.53-3.69 2.38t-4.8.85h-8.82v-23.14h8.82q2.64 0 4.8.86t3.69 2.38q1.54 1.53 2.39 3.66t.85 4.67m-4.42 0q0-1.9-.5-3.41-.51-1.52-1.46-2.56-.95-1.05-2.3-1.61-1.36-.56-3.05-.56h-4.5v16.29h4.5q1.69 0 3.05-.56 1.35-.56 2.3-1.61t1.46-2.56q.5-1.51.5-3.42"/></svg>