<svg xmlns="http://www.w3.org/2000/svg" width="100" height="100" viewBox="0 0 100 100"><rect width="100%" height="100%" fill="#dc2626"/><path fill="#ffffff" d="M31.825 42.77v2.21h-4.36v12.25h-2.69V44.98h-4.36v-2.21zm19.03 0h2.11l-4.49 14.46h-2.43l-3.16-9.88q-.13-.36-.24-.88-.06.25-.12.47t-.13.41l-3.19 9.88h-2.44l-4.48-14.46h2.25q.35 0 .58.17.24.16.32.44l2.46 8.65q.08.32.15.7.08.37.16.78.08-.42.17-.79.1-.37.21-.69l2.84-8.65q.08-.23.31-.42.24-.19.58-.19h.79q.35 0 .57.17t.33.44l2.83 8.65q.21.62.38 1.43.13-.79.29-1.43l2.46-8.65q.06-.25.3-.43.25-.18.59-.18m13.99 0v2.21h-4.36v12.25h-2.69V44.98h-4.36v-2.21zM79.585 50q0 1.59-.53 2.92t-1.49 2.29-2.31 1.49-3 .53h-5.51V42.77h5.51q1.65 0 3 .53 1.35.54 2.31 1.49.96.96 1.49 2.29t.53 2.92m-2.77 0q0-1.19-.31-2.14-.31-.94-.91-1.59-.59-.66-1.44-1.01-.84-.35-1.9-.35h-2.81v10.18h2.81q1.06 0 1.9-.35.85-.35 1.44-1.01.6-.65.91-1.59.31-.95.31-2.14"/></svg>