<svg xmlns="http://www.w3.org/2000/svg" width="100" height="100" viewBox="0 0 100 100"><rect width="100%" height="100%" fill="#dc2626"/><path fill="#ffffff" d="M70.57 31.925h5.28l-11.22 36.15h-6.08l-7.9-24.7q-.33-.9-.6-2.2-.15.62-.3 1.17t-.32 1.03l-7.98 24.7h-6.1l-11.2-36.15h5.62q.88 0 1.47.41.58.41.78 1.11l6.15 21.63q.2.8.39 1.74.19.93.39 1.96.2-1.05.44-1.98.23-.92.51-1.72l7.1-21.63q.2-.57.79-1.05.58-.47 1.43-.47h1.98q.87 0 1.43.42.55.43.82 1.1l7.08 21.63q.52 1.55.94 3.57.33-1.97.73-3.57l6.15-21.63q.15-.62.76-1.07t1.46-.45"/></svg>