<svg xmlns="http://www.w3.org/2000/svg" width="100" height="100" viewBox="0 0 100 100"><rect width="100%" height="100%" fill="#dc2626"/><path fill="#ffffff" d="M43.69 40.6h2.74L40.6 59.4h-3.16l-4.11-12.84q-.17-.47-.31-1.15-.08.33-.16.61-.08.29-.17.54L28.55 59.4h-3.18l-5.82-18.8h2.92q.46 0 .76.22.31.21.41.57l3.2 11.25q.11.42.2.9l.21 1.02q.1-.54.22-1.02.13-.48.27-.9l3.69-11.25q.11-.29.41-.54.31-.25.75-.25h1.03q.45 0 .74.22.28.22.43.57l3.67 11.25q.28.81.5 1.86.17-1.03.38-1.86l3.19-11.25q.08-.32.4-.55.32-.24.76-.24m18.19 0v2.87h-5.67V59.4h-3.5V43.47h-5.67V40.6zm6.42 11.7h5.98l-2.29-6.25q-.17-.42-.35-.99t-.36-1.23q-.17.66-.35 1.24-.19.58-.36 1zm4.77-11.7 7.38 18.8h-2.7q-.45 0-.74-.23t-.43-.56l-1.4-3.84h-7.79l-1.4 3.84q-.11.3-.41.54-.3.25-.74.25h-2.73l7.4-18.8z"/></svg>