<svg xmlns="http://www.w3.org/2000/svg" width="100" height="100" viewBox="0 0 100 100"><rect width="100%" height="100%" fill="#dc2626"/><path fill="#ffffff" d="M40.36 42.045h2.32l-4.93 15.91h-2.68l-3.47-10.87q-.15-.39-.27-.97-.06.28-.13.52t-.14.45l-3.51 10.87h-2.69l-4.92-15.91h2.47q.39 0 .65.19.25.18.34.49l2.71 9.51q.09.35.17.76.08.42.17.87.09-.46.19-.87.11-.41.23-.76l3.12-9.51q.09-.26.35-.47t.63-.21h.87q.38 0 .63.19.24.19.36.49l3.11 9.51q.23.68.42 1.57.14-.87.32-1.57l2.7-9.51q.07-.28.34-.48t.64-.2m16.91 0-5.8 9.75v6.16h-2.94v-6.16l-5.8-9.75h2.61q.38 0 .61.19.22.19.38.47l2.9 5.32q.25.47.45.89.19.42.34.83.14-.41.33-.83t.43-.89l2.89-5.32q.12-.24.37-.45.24-.21.61-.21zm20.47 0h2.32l-4.94 15.91h-2.67l-3.48-10.87q-.14-.39-.26-.97l-.13.52q-.07.24-.14.45l-3.51 10.87h-2.69l-4.93-15.91h2.48q.38 0 .64.19.26.18.35.49l2.71 9.51q.08.35.17.76.08.42.17.87.08-.46.19-.87.1-.41.22-.76l3.13-9.51q.09-.26.35-.47.25-.21.63-.21h.87q.38 0 .62.19.25.19.37.49l3.11 9.51q.23.68.42 1.57.14-.87.32-1.57l2.7-9.51q.07-.28.34-.48t.64-.2"/></svg>