<svg xmlns="http://www.w3.org/2000/svg" width="100" height="100" viewBox="0 0 100 100"><rect width="100%" height="100%" fill="#dc2626"/><path fill="#ffffff" d="m30.58 43.5-4.74 7.97v5.04h-2.42v-5.04l-4.74-7.97h2.13q.32 0 .5.15.19.15.31.39L24 48.38q.21.39.36.73.16.34.29.69.11-.35.27-.69.15-.34.35-.73l2.37-4.34q.09-.2.29-.37t.51-.17zm9.87 0h2.43v13.01h-2.43v-5.69h-6.11v5.69h-2.43V43.5h2.43v5.59h6.11zM58.19 50q0 1.43-.47 2.65t-1.34 2.11q-.86.89-2.08 1.39-1.21.5-2.7.5-1.47 0-2.69-.5-1.21-.5-2.08-1.39t-1.35-2.11q-.47-1.22-.47-2.65t.47-2.65q.48-1.22 1.35-2.11t2.08-1.39q1.22-.5 2.69-.5.99 0 1.87.23.87.23 1.6.65t1.31 1.02q.58.59.98 1.33.41.74.62 1.6.21.87.21 1.82m-2.47 0q0-1.07-.29-1.92t-.82-1.44q-.53-.6-1.29-.91-.76-.32-1.72-.32-.95 0-1.71.32-.76.31-1.3.91-.53.59-.82 1.44T47.48 50t.29 1.92.82 1.44q.54.59 1.3.91.76.31 1.71.31.96 0 1.72-.31.76-.32 1.29-.91t.82-1.44.29-1.92m13.54 3.44q.2 0 .35.15l.96 1.04q-.8.98-1.95 1.5-1.16.52-2.78.52-1.45 0-2.6-.49-1.16-.5-1.98-1.38T60 52.68q-.43-1.23-.43-2.68 0-1.46.47-2.68.46-1.22 1.31-2.11.86-.88 2.03-1.37 1.18-.49 2.61-.49t2.53.47 1.88 1.22l-.81 1.13q-.08.11-.19.19t-.31.08q-.13 0-.28-.08-.14-.07-.31-.19-.17-.11-.4-.24-.22-.14-.52-.25t-.69-.19-.9-.08q-.88 0-1.6.31-.73.31-1.25.9t-.81 1.44-.29 1.94q0 1.1.31 1.96.31.85.85 1.44.53.58 1.25.89t1.54.31q.5 0 .9-.05.4-.06.74-.17.34-.12.64-.3.3-.19.6-.46.09-.08.18-.13.1-.05.21-.05m12.06-9.94v1.98H77.4v11.03h-2.42V45.48h-3.93V43.5z"/></svg>