<svg xmlns="http://www.w3.org/2000/svg" width="100" height="100" viewBox="0 0 100 100"><rect width="100%" height="100%" fill="#dc2626"/><path fill="#ffffff" d="M31.12 54.07H41.7l-4.04-11.06q-.3-.74-.62-1.75-.33-1.01-.65-2.18-.3 1.17-.62 2.19-.32 1.03-.62 1.79zm8.45-20.7 13.06 33.26h-4.78q-.81 0-1.32-.4-.5-.4-.75-1l-2.49-6.79H29.51l-2.48 6.79q-.18.53-.71.96-.53.44-1.31.44h-4.83l13.08-33.26zm22.7 16.72h4.62q1.7 0 2.97-.42 1.26-.43 2.1-1.22.84-.8 1.25-1.93.42-1.14.42-2.55 0-1.33-.42-2.41-.41-1.08-1.24-1.84t-2.09-1.16q-1.27-.4-2.99-.4h-4.62zm-6.19-16.72h10.81q3.33 0 5.77.78 2.44.79 4.03 2.19 1.58 1.4 2.35 3.36.78 1.95.78 4.27 0 2.42-.81 4.43-.8 2.02-2.41 3.46-1.61 1.45-4.04 2.26-2.43.8-5.67.8h-4.62v11.71h-6.19z"/></svg>