<svg xmlns="http://www.w3.org/2000/svg" width="100" height="100" viewBox="0 0 100 100"><rect width="100%" height="100%" fill="#dc2626"/><path fill="#ffffff" d="M39.46 50q0 2.15-.71 3.94-.72 1.8-2.01 3.09-1.3 1.3-3.12 2.01-1.82.72-4.05.72h-7.44V40.24h7.44q2.23 0 4.05.72t3.12 2.01q1.29 1.29 2.01 3.09.71 1.79.71 3.94m-3.72 0q0-1.61-.43-2.88-.42-1.28-1.23-2.16-.8-.89-1.94-1.36t-2.57-.47h-3.8v13.74h3.8q1.43 0 2.57-.47t1.94-1.36q.81-.88 1.23-2.16.43-1.27.43-2.88m11.03 2.39h6.21L50.6 45.9q-.17-.44-.36-1.03t-.38-1.28q-.18.69-.37 1.29t-.36 1.04zm4.95-12.15 7.67 19.52h-2.81q-.47 0-.77-.24-.3-.23-.44-.58l-1.46-3.99h-8.09l-1.46 3.99q-.1.31-.41.56-.32.26-.77.26h-2.84l7.68-19.52zm22.51 0h3.64v19.52h-3.64v-8.53h-9.17v8.53h-3.65V40.24h3.65v8.4h9.17z"/></svg>