<svg xmlns="http://www.w3.org/2000/svg" width="100" height="100" viewBox="0 0 100 100"><rect width="100%" height="100%" fill="#dc2626"/><path fill="#ffffff" d="M43.235 50.005q0 2.78-.92 5.11-.93 2.32-2.61 4t-4.04 2.61q-2.37.93-5.25.93h-9.65v-25.31h9.65q2.88 0 5.25.94 2.36.94 4.04 2.61t2.61 4q.92 2.32.92 5.11m-4.83 0q0-2.09-.55-3.74t-1.59-2.8-2.52-1.76-3.33-.61h-4.92v17.81h4.92q1.85 0 3.33-.61t2.52-1.76q1.04-1.14 1.59-2.8.55-1.65.55-3.73m13.71-12.66v25.31h-4.73v-25.31zm10.36 0v10.61h1.1q.66 0 1.1-.18.44-.19.75-.59l6.99-8.84q.43-.56.92-.78.48-.22 1.21-.22h4.06l-8.52 10.52q-.75.96-1.56 1.37.58.21 1.04.58.47.38.89.99l8.78 11.85h-4.15q-.84 0-1.25-.24-.41-.23-.69-.69l-7.16-9.34q-.33-.48-.77-.67-.43-.19-1.26-.19h-1.48v11.13h-4.71v-25.31z"/></svg>