<svg xmlns="http://www.w3.org/2000/svg" width="100" height="100" viewBox="0 0 100 100"><rect width="100%" height="100%" fill="#dc2626"/><path fill="#ffffff" d="M40.74 50.005q0 2.38-.8 4.38-.79 1.99-2.24 3.43-1.44 1.44-3.46 2.24-2.02.79-4.5.79h-8.27v-21.69h8.27q2.48 0 4.5.8t3.46 2.24q1.45 1.43 2.24 3.43.8 1.99.8 4.38m-4.14 0q0-1.79-.48-3.21-.47-1.41-1.36-2.4-.9-.98-2.16-1.5-1.27-.53-2.86-.53h-4.21v15.27h4.21q1.59 0 2.86-.52 1.26-.53 2.16-1.51.89-.98 1.36-2.4.48-1.42.48-3.2m11.72-10.85v9.09h.95q.57 0 .94-.16.38-.15.65-.5l5.98-7.58q.38-.47.79-.66t1.04-.19h3.48l-7.3 9.02q-.65.82-1.34 1.17.5.18.9.5.39.32.75.85l7.53 10.15h-3.55q-.72 0-1.07-.2-.36-.2-.6-.59l-6.13-8.01q-.29-.41-.66-.58-.38-.16-1.08-.16h-1.28v9.54h-4.03v-21.69zm30.21 3.21H68.9v6.42h8.13v3.23H68.9v8.83h-4.05v-21.69h13.68z"/></svg>