<svg xmlns="http://www.w3.org/2000/svg" width="100" height="100" viewBox="0 0 100 100"><rect width="100%" height="100%" fill="#dc2626"/><path fill="#ffffff" d="M32.45 43.635h-8.02v5.01h6.32v2.59h-6.32v5.11h8.02v2.69h-11.4v-18.07h11.4zm6.34-2.67v7.57h.79q.47 0 .78-.13.32-.13.54-.42l4.99-6.31q.31-.4.65-.56.35-.15.87-.15h2.9l-6.08 7.51q-.54.68-1.12.97.42.15.75.42t.63.71l6.27 8.46H47.8q-.6 0-.89-.17-.3-.17-.5-.49l-5.11-6.68q-.24-.34-.55-.47-.31-.14-.9-.14h-1.06v7.95h-3.36v-18.07zm17.14 15.29h7.22v2.78H52.56v-18.07h3.37zm12.98.15h3.4q.94 0 1.58-.22.64-.23 1.02-.6.38-.38.55-.88t.17-1.06q0-.59-.19-1.05-.19-.47-.59-.8-.4-.34-1.03-.51-.63-.18-1.52-.18h-3.39zm2.87-12.85h-2.87v5.23h2.68q1.72 0 2.6-.63.89-.62.89-1.98 0-1.42-.8-2.02t-2.5-.6m-6.23-2.59h6.23q1.77 0 3.03.33 1.27.34 2.07.96.81.63 1.18 1.52.38.88.38 2 0 .63-.19 1.22-.19.58-.58 1.08-.39.51-1 .92t-1.44.7q3.72.84 3.72 4.03 0 1.15-.44 2.12-.43.98-1.27 1.68-.84.71-2.06 1.11-1.23.4-2.8.4h-6.83z"/></svg>