<svg xmlns="http://www.w3.org/2000/svg" width="100" height="100" viewBox="0 0 100 100"><rect width="100%" height="100%" fill="#dc2626"/><path fill="#ffffff" d="M26.505 49.985h3.84v4.68q-.88.65-1.88.95-.99.3-2.13.3-1.42 0-2.56-.44-1.15-.44-1.96-1.23-.82-.78-1.26-1.87t-.44-2.37q0-1.31.43-2.4.42-1.08 1.2-1.87.78-.78 1.89-1.21 1.12-.44 2.5-.44.7 0 1.32.12.61.11 1.13.3.53.2.96.48t.79.62l-.62.97q-.14.23-.37.29-.23.05-.51-.12l-.52-.3q-.27-.16-.59-.27-.33-.11-.73-.18t-.93-.07q-.86 0-1.55.28-.69.29-1.18.83-.49.53-.75 1.29-.27.75-.27 1.68 0 .99.29 1.77.28.78.8 1.32.51.54 1.24.82.73.29 1.63.29.64 0 1.14-.14t.98-.37v-2.09h-1.45q-.21 0-.33-.12-.11-.12-.11-.28zm14-5.77v1.77h-3.49v9.8h-2.15v-9.8h-3.49v-1.77zm12.44 0h1.62v11.57h-1.89v-7.47q0-.45.04-.97l-3.49 6.57q-.25.47-.76.47h-.31q-.51 0-.76-.47l-3.53-6.59.04.52q.01.25.01.47v7.47h-1.89v-11.57h1.62q.15 0 .25.01t.19.04q.08.03.15.1.07.08.13.2l3.47 6.42q.13.26.25.53l.23.56q.11-.3.23-.57.12-.28.25-.54l3.42-6.4q.06-.12.14-.2.07-.07.15-.1.09-.03.19-.04t.25-.01m15.23 5.79q0 1.27-.42 2.35-.42 1.09-1.19 1.88t-1.85 1.23q-1.08.45-2.4.45-1.31 0-2.39-.45-1.08-.44-1.85-1.23t-1.2-1.88q-.42-1.08-.42-2.35 0-1.28.42-2.36.43-1.08 1.2-1.88.77-.79 1.85-1.23 1.08-.45 2.39-.45.88 0 1.66.21.78.2 1.42.57.65.38 1.17.91.51.53.87 1.19.36.65.55 1.42t.19 1.62m-2.2 0q0-.96-.26-1.71-.25-.76-.72-1.29-.48-.52-1.15-.8-.68-.28-1.53-.28-.84 0-1.52.28t-1.15.8q-.48.53-.73 1.29-.26.75-.26 1.71 0 .95.26 1.7.25.76.73 1.28.47.53 1.15.81t1.52.28q.85 0 1.53-.28.67-.28 1.15-.81.47-.52.72-1.28.26-.75.26-1.7m6.25-5.79v4.85h.5q.31 0 .51-.08.2-.09.34-.27l3.19-4.04q.2-.26.42-.36t.56-.1h1.85l-3.89 4.81q-.35.44-.71.62.26.1.47.27t.41.45l4.01 5.42h-1.89q-.39 0-.58-.11-.18-.11-.31-.31l-3.27-4.28q-.16-.21-.36-.3t-.57-.09h-.68v5.09h-2.15v-11.57z"/></svg>