<svg xmlns="http://www.w3.org/2000/svg" width="100" height="100" viewBox="0 0 100 100"><rect width="100%" height="100%" fill="#dc2626"/><path fill="#ffffff" d="M36.395 38.555h4.32v23.14h-4.32v-10.11h-10.86v10.11h-4.32v-23.14h4.32v9.96h10.86zm24.07 3.43h-10.28v6.41h8.1v3.32h-8.1v6.54h10.28v3.44h-14.6v-23.14h14.6zm10.99 16.03h5.93q.64 0 1.02.36t.38.95v2.37h-15.88v-1.31q0-.4.17-.84t.54-.79l7.02-7.04q.88-.9 1.58-1.72.69-.81 1.16-1.61.46-.8.71-1.63.25-.82.25-1.73 0-.83-.24-1.47-.24-.63-.68-1.06t-1.06-.65q-.61-.21-1.38-.21-.71 0-1.31.2t-1.06.56-.78.84-.48 1.05q-.28.74-.71.98t-1.25.11l-2.08-.37q.24-1.66.93-2.92.69-1.25 1.72-2.09t2.37-1.27q1.34-.42 2.87-.42 1.6 0 2.93.47t2.27 1.34q.95.86 1.47 2.08.53 1.21.53 2.7 0 1.28-.37 2.37-.38 1.09-1.01 2.08t-1.48 1.92-1.78 1.89l-5.21 5.32q.75-.22 1.49-.34.75-.12 1.42-.12"/></svg>