<svg xmlns="http://www.w3.org/2000/svg" width="100" height="100" viewBox="0 0 100 100"><rect width="100%" height="100%" fill="#dc2626"/><path fill="#ffffff" d="M30.595 42.41h2.84v15.18h-2.84v-6.64h-7.13v6.64h-2.83V42.41h2.83v6.53h7.13zm24.2 0h2.22l-4.72 15.18h-2.55l-3.31-10.37q-.14-.38-.26-.93-.06.26-.12.5-.07.23-.14.43l-3.35 10.37h-2.56l-4.7-15.18h2.36q.37 0 .61.17.25.17.33.47l2.59 9.08q.08.34.16.73t.16.82q.09-.44.19-.83.09-.38.21-.72l2.98-9.08q.09-.24.33-.44.25-.2.61-.2h.83q.36 0 .59.18.24.17.35.46l2.97 9.08q.22.65.4 1.5.14-.83.31-1.5l2.58-9.08q.06-.27.32-.45.26-.19.61-.19m6.91 12.85h6.07v2.33h-8.89V42.41h2.82zm17.66-10.61h-6.74v4.5h5.69v2.26h-5.69v6.18h-2.83V42.41h9.57z"/></svg>