<svg xmlns="http://www.w3.org/2000/svg" width="100" height="100" viewBox="0 0 100 100"><rect width="100%" height="100%" fill="#dc2626"/><path fill="#ffffff" d="M28.58 43.495h2.43v13.01h-2.43v-5.69h-6.11v5.69h-2.43v-13.01h2.43v5.59h6.11zm20.75 0h1.9l-4.04 13.01H45l-2.84-8.89q-.12-.33-.22-.79-.05.22-.11.42-.05.2-.12.37l-2.87 8.89h-2.19l-4.03-13.01h2.02q.32 0 .53.14.21.15.28.4l2.21 7.79q.08.29.14.63.07.33.14.7.08-.38.16-.71.09-.33.19-.62l2.55-7.79q.07-.2.28-.37.22-.17.52-.17h.71q.32 0 .52.15.19.15.29.39l2.55 7.79q.19.56.34 1.29.12-.71.26-1.29l2.22-7.79q.05-.22.27-.38t.53-.16m18.92 0h1.9l-4.05 13.01h-2.18l-2.85-8.89q-.11-.33-.21-.79-.06.22-.11.42t-.12.37l-2.87 8.89h-2.19l-4.04-13.01h2.03q.31 0 .52.14.22.15.29.4l2.21 7.79q.07.29.14.63.07.33.14.7.07-.38.16-.71.08-.33.18-.62l2.56-7.79q.07-.2.28-.37t.52-.17h.71q.32 0 .51.15.2.15.3.39l2.55 7.79q.19.56.34 1.29.12-.71.26-1.29l2.22-7.79q.05-.22.27-.38t.53-.16m11.71 1.92h-5.78v3.85h4.88v1.94h-4.88v5.3h-2.43v-13.01h8.21z"/></svg>