<svg xmlns="http://www.w3.org/2000/svg" width="100" height="100" viewBox="0 0 100 100"><rect width="100%" height="100%" fill="#dc2626"/><path fill="#ffffff" d="M27.21 34.095v13.33h1.39q.83 0 1.38-.23t.95-.74l8.78-11.11q.55-.7 1.15-.98.61-.27 1.53-.27h5.1l-10.71 13.22q-.95 1.21-1.96 1.72.73.26 1.31.73.58.48 1.11 1.25l11.05 14.89h-5.22q-1.05 0-1.57-.3-.52-.29-.87-.87l-9-11.74q-.42-.6-.97-.84t-1.58-.24h-1.87v13.99h-5.92v-31.81zm30.93 19.8h10.12l-3.87-10.58q-.29-.71-.59-1.68-.31-.96-.62-2.09-.29 1.13-.59 2.11-.31.97-.6 1.7zm8.08-19.8 12.49 31.81h-4.57q-.77 0-1.26-.38-.48-.39-.72-.96l-2.38-6.49H56.6l-2.37 6.49q-.18.5-.69.92-.5.42-1.25.42h-4.62l12.52-31.81z"/></svg>