<svg xmlns="http://www.w3.org/2000/svg" width="100" height="100" viewBox="0 0 100 100"><rect width="100%" height="100%" fill="#dc2626"/><path fill="#ffffff" d="M24.325 40.6v7.88h.82q.5 0 .82-.14.33-.13.56-.43l5.19-6.57q.32-.41.68-.58.36-.16.9-.16h3.02l-6.33 7.81q-.56.72-1.16 1.02.43.15.77.43.35.28.66.74l6.53 8.8h-3.08q-.63 0-.93-.18-.31-.17-.52-.51l-5.32-6.94q-.24-.35-.57-.5-.32-.14-.93-.14h-1.11v8.27h-3.5V40.6zm32.07 0h2.64v18.8h-3.08V47.26q0-.73.08-1.58l-5.68 10.68q-.4.76-1.24.76h-.49q-.83 0-1.24-.76l-5.74-10.71q.04.42.06.84.03.42.03.77V59.4h-3.08V40.6h2.64q.23 0 .4.01.17.02.31.07.13.05.24.17t.22.31l5.63 10.44q.22.42.41.86.18.44.37.91.18-.48.37-.93.2-.45.42-.87l5.55-10.41q.1-.19.22-.31t.25-.17q.14-.05.31-.07.17-.01.4-.01m10.33 0v7.88h.81q.5 0 .82-.14.33-.13.56-.43l5.19-6.57q.32-.41.68-.58.36-.16.91-.16h3.01l-6.33 7.81q-.56.72-1.16 1.02.43.15.78.43.34.28.65.74l6.53 8.8h-3.08q-.63 0-.93-.18-.31-.17-.51-.51l-5.32-6.94q-.25-.35-.57-.5-.33-.14-.94-.14h-1.1v8.27h-3.5V40.6z"/></svg>