<svg xmlns="http://www.w3.org/2000/svg" width="100" height="100" viewBox="0 0 100 100"><rect width="100%" height="100%" fill="#dc2626"/><path fill="#ffffff" d="M25.4 38.08v10h1.04q.63 0 1.04-.17.42-.18.71-.56l6.59-8.33q.41-.53.86-.73.46-.21 1.15-.21h3.83L32.58 48q-.71.9-1.47 1.28.55.2.98.56.44.35.84.93l8.28 11.17H37.3q-.79 0-1.18-.22-.39-.23-.65-.65l-6.75-8.82q-.31-.44-.73-.62-.41-.18-1.18-.18H25.4v10.49h-4.43V38.08zm34.85 0v3.65h-7.19v20.21h-4.44V41.73h-7.19v-3.65zm4.97 14.87h7.26v-7.81q0-1.1.15-2.44zm10.81 0h3v2.36q0 .33-.22.57-.21.24-.61.24h-2.17v5.82h-3.55v-5.82H62.41q-.41 0-.72-.26-.32-.26-.4-.64l-.43-2.06 11.31-15.1h3.86z"/></svg>