<svg xmlns="http://www.w3.org/2000/svg" width="100" height="100" viewBox="0 0 100 100"><rect width="100%" height="100%" fill="#dc2626"/><path fill="#ffffff" d="M23.99 40.24v8.18h.85q.52 0 .85-.14.34-.14.59-.45l5.38-6.82q.34-.43.71-.6t.94-.17h3.13l-6.57 8.11q-.58.75-1.21 1.06.45.16.81.45t.68.76l6.78 9.14h-3.2q-.65 0-.97-.18t-.53-.54l-5.52-7.2q-.26-.37-.6-.52-.33-.15-.97-.15h-1.15v8.59h-3.63V40.24zm28.52 0v2.98h-5.89v16.54h-3.63V43.22H37.1v-2.98zm6.21 0v19.52h-3.65V40.24zm7.99 0v8.18h.85q.51 0 .85-.14t.58-.45l5.39-6.82q.33-.43.7-.6.38-.17.94-.17h3.13l-6.57 8.11q-.58.75-1.2 1.06.44.16.8.45t.68.76l6.78 9.14h-3.2q-.65 0-.96-.18-.32-.18-.54-.54l-5.52-7.2q-.26-.37-.59-.52-.34-.15-.97-.15h-1.15v8.59h-3.63V40.24z"/></svg>