<svg xmlns="http://www.w3.org/2000/svg" width="100" height="100" viewBox="0 0 100 100"><rect width="100%" height="100%" fill="#dc2626"/><path fill="#ffffff" d="M38.43 36.08h4.03v24.58h-2.34q-.55 0-.91-.18-.37-.18-.71-.6L25.67 43.49q.1 1.12.1 2.07v15.1h-4.03V36.08h2.4q.29 0 .5.02.21.03.37.11.16.07.32.22.15.14.34.38l12.88 16.45q-.05-.59-.08-1.17-.04-.58-.04-1.07zm21.61 12.25h8.16v9.95q-1.87 1.38-3.99 2.01-2.11.64-4.53.64-3 0-5.44-.93-2.44-.94-4.17-2.6-1.72-1.67-2.66-3.98-.93-2.31-.93-5.05 0-2.77.9-5.08.9-2.32 2.55-3.98 1.66-1.67 4.03-2.59 2.36-.91 5.3-.91 1.5 0 2.8.23 1.3.24 2.41.66 1.11.41 2.03 1.01.92.59 1.68 1.31l-1.3 2.07q-.31.5-.8.61-.5.11-1.07-.25-.57-.32-1.13-.65-.56-.32-1.25-.56-.68-.24-1.54-.39t-1.98-.15q-1.82 0-3.29.61t-2.51 1.75-1.6 2.74-.56 3.57q0 2.11.6 3.76.61 1.66 1.7 2.81 1.1 1.15 2.65 1.75 1.54.6 3.45.6 1.36 0 2.43-.29 1.07-.28 2.09-.78v-4.45h-3.09q-.45 0-.69-.25-.25-.24-.25-.6zM74.76 50q0 3.5.85 6.89.85 3.38 2.43 6.35.17.34.2.61.03.26-.04.46-.07.19-.22.34-.14.14-.31.24l-1.87 1.14q-1.26-1.94-2.14-3.89-.89-1.96-1.45-3.95-.56-1.98-.82-4.02T71.13 50q0-2.12.26-4.17t.82-4.04 1.45-3.94q.88-1.94 2.14-3.88l1.87 1.12q.17.1.31.25.15.14.22.34.07.19.04.46-.03.26-.2.62-1.58 2.96-2.43 6.35T74.76 50"/></svg>