<svg xmlns="http://www.w3.org/2000/svg" width="100" height="100" viewBox="0 0 100 100"><rect width="100%" height="100%" fill="#dc2626"/><path fill="#ffffff" d="M28.05 50.09h4.83q1.77 0 3.09-.44t2.2-1.27q.87-.83 1.31-2.02.43-1.19.43-2.65 0-1.39-.43-2.52-.44-1.13-1.3-1.92T36 38.06t-3.12-.42h-4.83zM21.6 32.65h11.28q3.48 0 6.02.81 2.54.82 4.2 2.28 1.66 1.47 2.46 3.51t.8 4.46q0 2.52-.84 4.62T43 51.94t-4.21 2.35-5.91.84h-4.83v12.22H21.6zm36.16 16.51h4.04q1.82 0 3.18-.46 1.35-.45 2.23-1.26.87-.8 1.31-1.91.43-1.1.43-2.42 0-2.64-1.74-4.06-1.74-1.41-5.32-1.41h-4.13zm11.96 5.37 8.68 12.82h-5.83q-1.65 0-2.4-1.3l-7.29-11.11q-.41-.62-.9-.89-.5-.26-1.46-.26h-2.76v13.56h-6.45v-34.7h10.58q3.53 0 6.06.73t4.15 2.05 2.39 3.16q.77 1.83.77 4.04 0 1.75-.52 3.31-.51 1.56-1.48 2.83-.98 1.28-2.4 2.24-1.43.96-3.26 1.51.63.36 1.16.85.52.49.96 1.16"/></svg>