<svg xmlns="http://www.w3.org/2000/svg" width="100" height="100" viewBox="0 0 100 100"><rect width="100%" height="100%" fill="#dc2626"/><path fill="#ffffff" d="M29.86 49.125h4.2q1.9 0 3.31-.48 1.42-.47 2.33-1.31t1.36-1.99.45-2.52q0-2.75-1.81-4.23-1.81-1.47-5.54-1.47h-4.3zm12.45 5.6 9.05 13.35h-6.07q-1.73 0-2.5-1.35l-7.6-11.58q-.43-.65-.94-.92-.51-.28-1.51-.28h-2.88v14.13h-6.72v-36.15h11.02q3.68 0 6.31.76 2.64.76 4.33 2.14 1.69 1.37 2.49 3.29.8 1.91.8 4.21 0 1.82-.54 3.45-.54 1.62-1.55 2.95-1.01 1.32-2.5 2.32t-3.39 1.58q.65.37 1.2.89.55.51 1 1.21m33.9-19.4-1.67 3.17q-.3.53-.64.77-.34.23-.84.23-.52 0-1.14-.38-.61-.39-1.46-.87-.85-.47-1.99-.86-1.13-.39-2.68-.39-1.4 0-2.45.34t-1.77.94q-.71.6-1.06 1.44-.35.83-.35 1.83 0 1.28.71 2.13.72.85 1.89 1.45 1.18.6 2.68 1.07 1.5.48 3.07 1.02 1.58.53 3.08 1.25 1.5.71 2.67 1.8 1.18 1.08 1.89 2.66.71 1.57.71 3.82 0 2.45-.83 4.59-.84 2.14-2.46 3.73-1.61 1.58-3.93 2.5-2.33.91-5.33.91-1.72 0-3.4-.34-1.67-.34-3.21-.96-1.54-.63-2.89-1.5-1.35-.88-2.4-1.95l1.98-3.23q.25-.35.65-.58.4-.24.85-.24.62 0 1.35.51.72.51 1.72 1.14 1 .62 2.34 1.14 1.34.51 3.21.51 2.88 0 4.45-1.36 1.58-1.37 1.58-3.92 0-1.42-.72-2.32-.71-.9-1.88-1.51-1.18-.62-2.68-1.04-1.5-.43-3.05-.93t-3.05-1.2q-1.5-.69-2.67-1.82-1.18-1.13-1.89-2.81-.71-1.69-.71-4.17 0-1.97.78-3.85.79-1.87 2.29-3.32t3.7-2.33q2.2-.87 5.05-.87 3.2 0 5.9 1t4.6 2.8"/></svg>