<svg xmlns="http://www.w3.org/2000/svg" width="100" height="100" viewBox="0 0 100 100"><rect width="100%" height="100%" fill="#dc2626"/><path fill="#ffffff" d="M25.67 49.455h2.6q1.18 0 2.05-.29.88-.3 1.44-.82.57-.52.85-1.23t.28-1.56q0-1.71-1.13-2.62-1.12-.92-3.43-.92h-2.66zm7.71 3.47 5.62 8.28h-3.77q-1.07 0-1.55-.84l-4.71-7.17q-.27-.41-.58-.58-.32-.17-.94-.17h-1.78v8.76H21.5v-22.41h6.83q2.28 0 3.92.47 1.63.47 2.68 1.33 1.04.85 1.54 2.03.5 1.19.5 2.62 0 1.13-.34 2.13-.33 1.01-.96 1.83t-1.55 1.44-2.1.98q.4.23.74.55.35.32.62.75m23.7-14.13v3.42h-6.75v18.99h-4.17v-18.99H39.4v-3.42zm13.99 11.17h7.43v9.07q-1.7 1.26-3.63 1.84t-4.13.58q-2.74 0-4.97-.85-2.22-.86-3.8-2.38-1.57-1.52-2.42-3.62-.85-2.11-.85-4.61 0-2.52.82-4.63t2.33-3.63 3.67-2.35q2.15-.84 4.83-.84 1.37 0 2.55.22 1.19.21 2.2.59 1.02.38 1.85.92.84.55 1.54 1.2l-1.19 1.89q-.28.45-.73.55t-.98-.23l-1.02-.58q-.51-.3-1.14-.52-.63-.21-1.41-.35t-1.81-.14q-1.66 0-3 .56-1.34.55-2.28 1.59-.95 1.04-1.46 2.5t-.51 3.25q0 1.93.55 3.44t1.55 2.55q1 1.05 2.41 1.6t3.15.55q1.24 0 2.21-.26.98-.27 1.91-.72v-4.06h-2.82q-.41 0-.63-.22-.22-.23-.22-.55z"/></svg>