<svg xmlns="http://www.w3.org/2000/svg" width="100" height="100" viewBox="0 0 100 100"><rect width="100%" height="100%" fill="#dc2626"/><path fill="#ffffff" d="M30.825 43.13v2.1h-4.14v11.64h-2.56V45.23h-4.14v-2.1zm8.57 6.85h4.56v5.56q-1.05.77-2.23 1.13-1.18.35-2.53.35-1.68 0-3.05-.52-1.36-.52-2.32-1.45-.97-.93-1.49-2.23-.52-1.29-.52-2.82 0-1.55.5-2.84t1.43-2.22 2.25-1.45q1.32-.51 2.96-.51.84 0 1.56.13.73.14 1.35.37.63.23 1.14.57.51.33.94.73l-.73 1.16q-.17.27-.45.33-.27.06-.6-.13-.31-.19-.62-.37-.32-.18-.7-.31-.39-.13-.87-.22-.48-.08-1.1-.08-1.02 0-1.84.34t-1.4.98q-.58.63-.9 1.53-.31.89-.31 1.99 0 1.18.34 2.11.33.92.95 1.56.61.64 1.47.98.87.34 1.93.34.76 0 1.36-.16t1.17-.44V51.9h-1.73q-.25 0-.38-.14-.14-.13-.14-.33zm16.04-6.85h2.57v13.74h-2.57v-6h-6.45v6h-2.56V43.13h2.56v5.91h6.45zm14.29 2.04h-6.1v4.06h5.15v2.04h-5.15v5.6h-2.56V43.13h8.66zm10.04-.75-.63 1.21q-.12.2-.24.29-.13.09-.32.09-.2 0-.44-.15-.23-.14-.55-.32t-.76-.33q-.43-.15-1.02-.15-.53 0-.93.13t-.67.36q-.27.22-.4.54-.14.32-.14.7 0 .48.28.81.27.32.71.55.45.23 1.02.41t1.17.38q.6.21 1.17.48t1.01.68q.45.41.72 1.01t.27 1.46q0 .93-.32 1.74t-.93 1.42q-.61.6-1.49.95-.89.34-2.03.34-.65 0-1.29-.13-.64-.12-1.22-.36-.59-.24-1.1-.57t-.91-.74l.75-1.23q.1-.13.25-.22t.32-.09q.24 0 .51.19.28.2.66.44.38.23.89.43.51.19 1.22.19 1.09 0 1.69-.52.6-.51.6-1.48 0-.54-.27-.89-.27-.34-.72-.57t-1.02-.39q-.57-.17-1.16-.36t-1.16-.45q-.57-.27-1.01-.7-.45-.42-.72-1.06-.27-.65-.27-1.59 0-.75.3-1.46t.87-1.26 1.4-.89q.84-.33 1.92-.33 1.22 0 2.25.38 1.02.38 1.74 1.06"/></svg>