<svg xmlns="http://www.w3.org/2000/svg" width="100" height="100" viewBox="0 0 100 100"><rect width="100%" height="100%" fill="#dc2626"/><path fill="#ffffff" d="M41.745 36.265v4.2h-8.28v23.27h-5.11v-23.27h-8.29v-4.2zm8.74 0v27.47h-5.13v-27.47zm11.25 0v11.51h1.2q.72 0 1.19-.2.48-.2.82-.64l7.58-9.59q.48-.61 1-.85.52-.23 1.32-.23h4.41l-9.26 11.42q-.81 1.04-1.69 1.48.63.23 1.13.63.51.41.96 1.08l9.54 12.86h-4.5q-.91 0-1.36-.26-.45-.25-.75-.75l-7.77-10.14q-.36-.52-.84-.73-.47-.2-1.37-.2h-1.61v12.08h-5.11v-27.47z"/></svg>