<svg xmlns="http://www.w3.org/2000/svg" width="100" height="100" viewBox="0 0 100 100"><rect width="100%" height="100%" fill="#dc2626"/><path fill="#ffffff" d="M37.445 43.13h2.01l-4.27 13.74h-2.31l-3-9.39q-.12-.34-.23-.83l-.11.44q-.06.21-.13.39l-3.03 9.39h-2.31l-4.26-13.74h2.14q.33 0 .55.16.23.16.3.42l2.34 8.22q.07.3.15.66.07.36.14.75.08-.4.17-.75.09-.36.19-.66l2.7-8.22q.08-.22.3-.4t.55-.18h.75q.33 0 .54.16.21.17.31.42l2.69 8.22q.2.59.36 1.36.13-.75.28-1.36l2.34-8.22q.05-.23.29-.41.23-.17.55-.17m11.65 1.29-.64 1.21q-.11.2-.24.29t-.32.09q-.2 0-.43-.15-.23-.14-.56-.32-.32-.18-.75-.33t-1.02-.15q-.54 0-.93.13-.4.13-.67.36-.28.22-.41.54t-.13.7q0 .48.27.81.27.32.72.55.44.23 1.01.41t1.17.38q.6.21 1.17.48t1.02.68q.44.41.71 1.01t.27 1.46q0 .93-.31 1.74-.32.81-.93 1.42-.62.6-1.5.95-.88.34-2.02.34-.66 0-1.3-.13-.63-.12-1.22-.36-.58-.24-1.09-.57-.52-.33-.92-.74l.75-1.23q.1-.13.25-.22t.32-.09q.24 0 .52.19.27.2.65.44.38.23.89.43.51.19 1.22.19 1.09 0 1.69-.52.6-.51.6-1.48 0-.54-.27-.89-.27-.34-.72-.57-.44-.23-1.01-.39-.57-.17-1.16-.36t-1.16-.45q-.57-.27-1.02-.7-.44-.42-.71-1.06-.28-.65-.28-1.59 0-.75.3-1.46t.87-1.26 1.41-.89q.83-.33 1.92-.33 1.21 0 2.24.38t1.75 1.06m18.74-1.29h2.01l-4.27 13.74h-2.31l-3-9.39q-.12-.34-.23-.83l-.11.44q-.06.21-.13.39l-3.03 9.39h-2.31l-4.26-13.74h2.14q.33 0 .55.16.23.16.3.42l2.34 8.22q.08.3.15.66t.14.75q.08-.4.17-.75.09-.36.19-.66l2.7-8.22q.08-.22.3-.4.23-.18.55-.18h.75q.33 0 .54.16.21.17.31.42l2.69 8.22q.2.59.36 1.36.13-.75.28-1.36l2.34-8.22q.05-.23.29-.41.23-.17.55-.17m12.36 2.04h-6.1v3.81h4.81v1.96h-4.81v3.89h6.1v2.04h-8.66V43.13h8.66z"/></svg>