<svg xmlns="http://www.w3.org/2000/svg" width="100" height="100" viewBox="0 0 100 100"><rect width="100%" height="100%" fill="#dc2626"/><path fill="#ffffff" d="M33.785 53.435q.27 0 .47.2l1.27 1.38q-1.05 1.31-2.59 2.01-1.55.69-3.71.69-1.93 0-3.47-.66t-2.63-1.83q-1.1-1.18-1.68-2.81t-.58-3.57q0-1.95.62-3.58.63-1.62 1.76-2.8 1.14-1.18 2.71-1.83t3.48-.65q1.89 0 3.36.62t2.51 1.63l-1.08 1.5q-.1.15-.25.25-.15.11-.41.11-.18 0-.38-.1-.19-.1-.42-.25-.22-.15-.52-.33t-.7-.33-.92-.25q-.52-.11-1.2-.11-1.17 0-2.13.42-.97.41-1.67 1.2-.69.78-1.08 1.92-.38 1.13-.38 2.58 0 1.47.41 2.61.42 1.14 1.13 1.92.7.78 1.66 1.19.96.42 2.07.42.66 0 1.19-.08.54-.07.99-.22.45-.16.85-.41.4-.24.8-.6.12-.11.25-.18.13-.06.27-.06m5.48-3.43q0 2.47.6 4.86.6 2.38 1.71 4.48.12.24.14.43t-.03.32q-.05.14-.15.24-.1.11-.22.18l-1.32.8q-.89-1.37-1.51-2.75-.63-1.38-1.02-2.78-.4-1.4-.59-2.84-.18-1.44-.18-2.94t.18-2.95q.19-1.45.59-2.85.39-1.4 1.02-2.78.62-1.37 1.51-2.74l1.32.79q.12.07.22.18.1.1.15.24.05.13.03.32t-.14.44q-1.11 2.09-1.71 4.48t-.6 4.87m21.62-1.16q0 1.91-.63 3.54-.63 1.62-1.78 2.81t-2.77 1.86q-1.62.66-3.6.66-1.97 0-3.59-.66-1.62-.67-2.78-1.86t-1.79-2.81q-.64-1.63-.64-3.54 0-1.9.64-3.53.63-1.63 1.79-2.81 1.16-1.19 2.78-1.86 1.62-.66 3.59-.66 1.32 0 2.48.3 1.16.31 2.14.87.97.55 1.74 1.35.78.8 1.32 1.78.54.99.82 2.14t.28 2.42m-3.3 0q0-1.42-.38-2.56-.39-1.13-1.1-1.92-.7-.8-1.72-1.22-1.01-.42-2.28-.42-1.28 0-2.29.42t-1.73 1.22q-.71.79-1.1 1.92-.38 1.14-.38 2.56 0 1.43.38 2.57.39 1.13 1.1 1.92.72.78 1.73 1.2t2.29.42q1.27 0 2.28-.42 1.02-.42 1.72-1.2.71-.79 1.1-1.92.38-1.14.38-2.57m21.55 0q0 1.91-.63 3.51-.64 1.59-1.79 2.75-1.15 1.15-2.77 1.78-1.62.64-3.6.64h-6.62v-17.35h6.62q1.98 0 3.6.64t2.77 1.79q1.15 1.14 1.79 2.74.63 1.6.63 3.5m-3.31 0q0-1.42-.38-2.56-.38-1.13-1.09-1.92-.71-.78-1.73-1.2-1.01-.42-2.28-.42h-3.38v12.21h3.38q1.27 0 2.28-.42 1.02-.42 1.73-1.2.71-.79 1.09-1.92.38-1.14.38-2.57"/></svg>