<svg xmlns="http://www.w3.org/2000/svg" width="100" height="100" viewBox="0 0 100 100"><rect width="100%" height="100%" fill="#dc2626"/><path fill="#ffffff" d="M48.11 50.005q0 3.34-1.11 6.13-1.12 2.79-3.13 4.81-2.02 2.01-4.85 3.13-2.84 1.11-6.3 1.11H21.15v-30.37h11.57q3.46 0 6.3 1.13 2.83 1.12 4.85 3.13 2.01 2 3.13 4.79 1.11 2.8 1.11 6.14m-5.8 0q0-2.5-.66-4.49-.66-1.98-1.91-3.36-1.25-1.37-3.02-2.11-1.78-.73-4-.73h-5.9v21.38h5.9q2.22 0 4-.74 1.77-.73 3.02-2.11 1.25-1.37 1.91-3.36.66-1.98.66-4.48m16.43-15.19v12.73h1.32q.8 0 1.32-.22.53-.22.9-.7l8.38-10.61q.53-.67 1.11-.93.57-.27 1.46-.27h4.87l-10.23 12.62q-.9 1.16-1.87 1.64.69.25 1.25.71.56.45 1.06 1.18l10.54 14.22h-4.97q-1.01 0-1.51-.28-.49-.29-.82-.83l-8.59-11.22q-.4-.56-.93-.8-.52-.23-1.51-.23h-1.78v13.36h-5.65v-30.37z"/></svg>