<svg xmlns="http://www.w3.org/2000/svg" width="100" height="100" viewBox="0 0 100 100"><rect width="100%" height="100%" fill="#dc2626"/><path fill="#ffffff" d="M53.98 49.945h12v14.63q-2.75 2.02-5.87 2.96-3.11.94-6.66.94-4.43 0-8.01-1.38-3.59-1.37-6.13-3.82t-3.91-5.85q-1.38-3.4-1.38-7.42 0-4.08 1.33-7.48 1.32-3.4 3.76-5.85t5.91-3.8q3.48-1.35 7.8-1.35 2.2 0 4.12.35 1.91.35 3.55.96 1.63.61 2.99 1.49 1.35.87 2.47 1.92l-1.93 3.05q-.45.73-1.17.89-.73.16-1.58-.36-.82-.48-1.65-.95-.82-.48-1.83-.83-1.02-.35-2.28-.57-1.26-.23-2.91-.23-2.68 0-4.84.9t-3.69 2.58q-1.52 1.67-2.35 4.02-.82 2.35-.82 5.26 0 3.09.89 5.53.88 2.44 2.5 4.13 1.61 1.68 3.88 2.57 2.28.89 5.08.89 2 0 3.57-.43 1.58-.42 3.08-1.15v-6.55h-4.55q-.65 0-1.01-.36t-.36-.89z"/></svg>