<svg xmlns="http://www.w3.org/2000/svg" width="100" height="100" viewBox="0 0 100 100"><rect width="100%" height="100%" fill="#dc2626"/><path fill="#ffffff" d="M24.19 41.34v17.35h-3.24V41.34zm19.28 8.67q0 1.91-.63 3.51-.64 1.59-1.79 2.75-1.15 1.15-2.77 1.78-1.62.64-3.6.64h-6.62V41.34h6.62q1.98 0 3.6.64t2.77 1.79q1.15 1.14 1.79 2.74.63 1.6.63 3.5m-3.31 0q0-1.42-.38-2.56-.38-1.13-1.09-1.92-.71-.78-1.73-1.2-1.01-.42-2.28-.42H31.3v12.21h3.38q1.27 0 2.28-.42 1.02-.42 1.73-1.2.71-.79 1.09-1.92.38-1.14.38-2.57m13.52 6.46h3.12v2.22h-9.6v-2.22h3.52V46.35q0-.6.04-1.23l-2.5 2.09q-.22.16-.43.21-.21.04-.39 0-.19-.03-.33-.12-.15-.09-.22-.2l-.93-1.29 5.29-4.5h2.43zm22.94-15.13h2.43v17.35h-2.84V47.48q0-.67.07-1.45l-5.24 9.85q-.38.71-1.14.71h-.46q-.77 0-1.14-.71L63 45.99l.06.78q.02.39.02.71v11.21h-2.84V41.34h2.43q.22 0 .37.01.16.01.29.06.12.05.22.16.11.1.2.28l5.2 9.64q.2.38.38.79.17.41.34.84.17-.44.35-.86.18-.41.38-.79l5.12-9.62q.1-.18.21-.28.11-.11.23-.16.13-.05.28-.06.16-.01.38-.01"/></svg>