<svg xmlns="http://www.w3.org/2000/svg" width="100" height="100" viewBox="0 0 100 100"><rect width="100%" height="100%" fill="#dc2626"/><path fill="#ffffff" d="M29.065 32.65v14.54h1.51q.91 0 1.51-.25t1.03-.81l9.58-12.12q.6-.76 1.26-1.06t1.67-.3h5.57l-11.69 14.42q-1.03 1.32-2.14 1.87.79.29 1.43.81.64.51 1.21 1.35l12.05 16.25h-5.69q-1.15 0-1.71-.32-.57-.33-.95-.95l-9.82-12.82q-.45-.65-1.05-.91t-1.73-.26h-2.04v15.26h-6.46v-34.7zm48.33 5.13h-15.4v9.63h12.14v4.96h-12.14v9.82h15.4v5.16h-21.88v-34.7h21.88z"/></svg>