<svg xmlns="http://www.w3.org/2000/svg" width="100" height="100" viewBox="0 0 100 100"><rect width="100%" height="100%" fill="#dc2626"/><path fill="#ffffff" d="M27.34 34.095v13.33h1.38q.84 0 1.39-.23t.95-.74l8.77-11.11q.55-.7 1.16-.98.6-.27 1.53-.27h5.1l-10.71 13.22q-.95 1.21-1.96 1.72.73.26 1.31.73.58.48 1.11 1.25l11.04 14.89H43.2q-1.06 0-1.57-.3-.52-.29-.87-.87l-9-11.74q-.42-.6-.97-.84t-1.58-.24h-1.87v13.99h-5.92v-31.81zm30.16 0v13.33h1.39q.83 0 1.38-.23t.95-.74L70 35.345q.55-.7 1.15-.98.61-.27 1.53-.27h5.1l-10.71 13.22q-.95 1.21-1.96 1.72.73.26 1.31.73.58.48 1.11 1.25l11.05 14.89h-5.22q-1.05 0-1.57-.3-.52-.29-.87-.87l-9-11.74q-.42-.6-.97-.84t-1.58-.24H57.5v13.99h-5.92v-31.81z"/></svg>