<svg xmlns="http://www.w3.org/2000/svg" width="100" height="100" viewBox="0 0 100 100"><rect width="100%" height="100%" fill="#dc2626"/><path fill="#ffffff" d="M26.15 39.515v8.79h.91q.55 0 .91-.15.37-.15.63-.49l5.78-7.32q.37-.46.76-.65.4-.18 1.01-.18h3.37l-7.06 8.72q-.63.79-1.3 1.13.48.17.87.48.38.32.73.82l7.28 9.82H36.6q-.69 0-1.03-.2-.35-.19-.58-.57l-5.93-7.74q-.27-.39-.64-.55-.36-.16-1.04-.16h-1.23v9.22h-3.9v-20.97zm19.88 10.54h2.91q1.07 0 1.87-.26.8-.27 1.33-.77t.79-1.22.26-1.6q0-.84-.26-1.53-.26-.68-.78-1.15-.53-.48-1.32-.74-.8-.25-1.89-.25h-2.91zm-3.9-10.54h6.81q2.1 0 3.64.5 1.54.49 2.54 1.37 1 .89 1.48 2.12.49 1.23.49 2.7 0 1.52-.51 2.79-.5 1.27-1.52 2.18-1.01.91-2.54 1.42t-3.58.51h-2.91v7.38h-3.9zm32.19 0h3.43v20.97h-2q-.46 0-.77-.15-.32-.15-.61-.52l-10.94-13.98q.08.96.08 1.77v12.88h-3.43v-20.97h2.04q.25 0 .43.02.18.03.32.09.14.07.27.19t.29.33l10.99 14.03q-.05-.51-.07-1-.03-.49-.03-.91z"/></svg>