<svg xmlns="http://www.w3.org/2000/svg" width="100" height="100" viewBox="0 0 100 100"><rect width="100%" height="100%" fill="#dc2626"/><path fill="#ffffff" d="M23.485 55.345h6.07v2.33h-8.89v-15.18h2.82zm10.91.12h2.86q.79 0 1.32-.18.54-.19.86-.51.32-.31.46-.73t.14-.9q0-.49-.16-.88-.15-.4-.49-.67-.34-.28-.87-.43t-1.27-.15h-2.85zm2.41-10.79h-2.41v4.39h2.25q1.45 0 2.19-.52.74-.53.74-1.67 0-1.19-.67-1.7-.67-.5-2.1-.5m-5.23-2.18h5.23q1.49 0 2.55.28t1.74.81q.67.52.99 1.27.31.74.31 1.68 0 .53-.15 1.02-.16.49-.49.92-.33.42-.84.77-.51.34-1.21.59 3.12.7 3.12 3.38 0 .96-.36 1.78-.37.82-1.07 1.41-.71.6-1.74.93-1.03.34-2.35.34h-5.73zm18.54 12.76h3.9q.42 0 .66.24.25.24.25.63v1.55h-10.42v-.86q0-.26.11-.55t.36-.52l4.61-4.62q.57-.59 1.03-1.13.46-.53.76-1.06.31-.52.47-1.06t.16-1.14q0-.55-.16-.96-.15-.42-.44-.7t-.7-.43q-.4-.14-.9-.14-.47 0-.86.13-.39.14-.7.37-.3.24-.51.55-.21.32-.32.7-.18.48-.46.64-.28.15-.82.07l-1.36-.24q.15-1.09.61-1.92.45-.82 1.12-1.37.68-.55 1.56-.83t1.88-.28q1.05 0 1.92.31.88.31 1.5.88.62.56.96 1.36.35.8.35 1.77 0 .84-.25 1.56-.25.71-.66 1.36t-.97 1.26-1.17 1.24l-3.42 3.5q.49-.15.98-.23t.93-.08m13.91.48h2.73v1.94h-8.4v-1.94h3.08v-8.85q0-.53.03-1.09l-2.18 1.83q-.19.15-.38.19-.18.03-.34 0t-.29-.11-.19-.17l-.82-1.13 4.63-3.93h2.13zm15.31-11h-6.74v4.5h5.69v2.26h-5.69v6.18h-2.83v-15.18h9.57z"/></svg>