<svg xmlns="http://www.w3.org/2000/svg" width="100" height="100" viewBox="0 0 100 100"><rect width="100%" height="100%" fill="#dc2626"/><path fill="#ffffff" d="M23.545 55.345h6.06v2.33h-8.89v-15.18h2.83zm10.9.12h2.86q.79 0 1.32-.18.54-.19.86-.51.32-.31.46-.73t.14-.9q0-.49-.15-.88-.16-.4-.5-.67-.33-.28-.86-.43t-1.28-.15h-2.85zm2.41-10.79h-2.41v4.39h2.25q1.45 0 2.19-.52.74-.53.74-1.67 0-1.19-.67-1.7-.67-.5-2.1-.5m-5.23-2.18h5.23q1.49 0 2.55.28t1.74.81q.68.52.99 1.27.32.74.32 1.68 0 .53-.16 1.02t-.49.92q-.33.42-.84.77-.51.34-1.21.59 3.13.7 3.13 3.38 0 .96-.37 1.78t-1.07 1.41q-.71.6-1.73.93-1.03.34-2.36.34h-5.73zm18.54 12.76h3.9q.42 0 .67.24.24.24.24.63v1.55h-10.41v-.86q0-.26.11-.55t.35-.52l4.61-4.62q.58-.59 1.03-1.13.46-.53.76-1.06.31-.52.47-1.06t.16-1.14q0-.55-.15-.96-.16-.42-.45-.7t-.69-.43q-.41-.14-.91-.14-.46 0-.86.13-.39.14-.7.37-.3.24-.51.55-.21.32-.32.7-.17.48-.46.64-.28.15-.82.07l-1.36-.24q.16-1.09.61-1.92.45-.82 1.13-1.37.67-.55 1.55-.83t1.89-.28q1.05 0 1.92.31t1.49.88q.62.56.96 1.36.35.8.35 1.77 0 .84-.25 1.56-.24.71-.66 1.36-.41.65-.97 1.26t-1.16 1.24l-3.43 3.5q.5-.15.98-.23.49-.08.93-.08m17.05-10.52h-6.75v4.21h5.32v2.18h-5.32v4.29h6.75v2.26h-9.58v-15.18h9.58zm12.07 0h-6.74v4.5h5.69v2.26h-5.69v6.18h-2.84v-15.18h9.58z"/></svg>