<svg xmlns="http://www.w3.org/2000/svg" width="100" height="100" viewBox="0 0 100 100"><rect width="100%" height="100%" fill="#dc2626"/><path fill="#ffffff" d="M26.385 52.565h6.67l-2.55-6.97q-.19-.47-.39-1.1-.21-.64-.41-1.38-.19.74-.39 1.38-.2.65-.39 1.13zm5.32-13.05 8.24 20.97h-3.02q-.51 0-.82-.25-.32-.26-.48-.63l-1.57-4.28h-8.68l-1.57 4.28q-.12.33-.45.6-.33.28-.83.28h-3.04l8.25-20.97zm30.41 10.49q0 2.3-.76 4.27-.76 1.96-2.16 3.4-1.39 1.43-3.35 2.24-1.95.8-4.35.8-2.37 0-4.33-.8-1.96-.81-3.36-2.24-1.4-1.44-2.17-3.4-.76-1.97-.76-4.27 0-2.31.76-4.27.77-1.97 2.17-3.4 1.4-1.44 3.36-2.24 1.96-.81 4.33-.81 1.6 0 3.01.37 1.4.37 2.58 1.04 1.17.68 2.11 1.64.93.97 1.58 2.16.66 1.19 1 2.58t.34 2.93m-3.99 0q0-1.73-.46-3.1-.47-1.37-1.32-2.33-.86-.95-2.08-1.46-1.23-.51-2.77-.51-1.53 0-2.76.51-1.22.51-2.09 1.46-.86.96-1.32 2.33-.47 1.37-.47 3.1 0 1.72.47 3.09.46 1.37 1.32 2.32.87.95 2.09 1.46 1.23.51 2.76.51 1.54 0 2.77-.51 1.22-.51 2.08-1.46.85-.95 1.32-2.32.46-1.37.46-3.09m11.33.05h2.91q1.07 0 1.87-.26.8-.27 1.33-.77t.79-1.22.26-1.6q0-.84-.26-1.53-.26-.68-.79-1.15-.52-.48-1.31-.74-.8-.25-1.89-.25h-2.91zm-3.9-10.54h6.81q2.1 0 3.64.5 1.54.49 2.54 1.37 1 .89 1.48 2.12.49 1.23.49 2.7 0 1.52-.51 2.79t-1.52 2.18q-1.02.91-2.55 1.42t-3.57.51h-2.91v7.38h-3.9z"/></svg>