<svg xmlns="http://www.w3.org/2000/svg" width="100" height="100" viewBox="0 0 100 100"><rect width="100%" height="100%" fill="#dc2626"/><path fill="#ffffff" d="M27.855 47.315h3.45q1.55 0 2.71-.39t1.91-1.07q.75-.69 1.12-1.63.37-.95.37-2.08 0-2.25-1.49-3.46t-4.54-1.21h-3.53zm10.21 4.59 7.42 10.95h-4.98q-1.41 0-2.05-1.11l-6.23-9.49q-.35-.53-.77-.76-.42-.22-1.24-.22h-2.36v11.58h-5.51v-29.64h9.04q3.01 0 5.17.62 2.17.63 3.55 1.75 1.38 1.13 2.04 2.7t.66 3.45q0 1.5-.44 2.83-.45 1.34-1.28 2.42-.83 1.09-2.05 1.91-1.21.82-2.77 1.29.53.31.98.73t.82.99m13.22-1.9q0 4.22 1.03 8.3 1.02 4.08 2.93 7.67.2.41.24.72.03.32-.06.56-.08.23-.25.41-.18.17-.38.29l-2.26 1.38q-1.51-2.34-2.58-4.7-1.07-2.35-1.74-4.75-.68-2.4-1-4.86-.31-2.46-.31-5.02 0-2.57.31-5.04.32-2.47 1-4.87.67-2.39 1.74-4.74t2.58-4.69l2.26 1.36q.2.12.38.3.17.17.25.41.09.23.06.55-.04.32-.24.75-1.91 3.56-2.93 7.65-1.03 4.09-1.03 8.32m25.83-14.01-1.37 2.61q-.25.43-.52.62-.28.2-.69.2-.43 0-.93-.32t-1.2-.71-1.63-.7q-.93-.32-2.2-.32-1.15 0-2.01.28-.87.27-1.45.76-.58.5-.87 1.18-.29.69-.29 1.51 0 1.04.59 1.74.58.7 1.54 1.19.97.49 2.2.88t2.52.83 2.52 1.03q1.23.58 2.19 1.47.97.9 1.55 2.19.59 1.29.59 3.13 0 2.01-.69 3.77-.69 1.75-2.01 3.05t-3.23 2.05q-1.9.75-4.36.75-1.42 0-2.79-.28-1.38-.28-2.64-.79t-2.36-1.23q-1.11-.72-1.97-1.6l1.62-2.64q.2-.29.53-.48.33-.2.7-.2.51 0 1.1.42.6.42 1.42.93.82.52 1.92.94 1.09.42 2.63.42 2.36 0 3.65-1.12t1.29-3.21q0-1.17-.58-1.9-.59-.74-1.55-1.24-.97-.51-2.2-.86-1.23-.34-2.5-.75t-2.5-.99q-1.23-.57-2.19-1.49-.96-.93-1.55-2.31-.58-1.38-.58-3.41 0-1.62.64-3.16.65-1.54 1.88-2.73t3.03-1.9q1.81-.72 4.14-.72 2.63 0 4.84.82 2.22.82 3.77 2.29"/></svg>