<svg xmlns="http://www.w3.org/2000/svg" width="100" height="100" viewBox="0 0 100 100"><rect width="100%" height="100%" fill="#dc2626"/><path fill="#ffffff" d="M29.615 43.13v2.1h-4.14v11.64h-2.55V45.23h-4.14v-2.1zM44.525 50q0 1.51-.5 2.8t-1.41 2.23-2.19 1.46q-1.29.53-2.85.53t-2.84-.53q-1.29-.52-2.2-1.46-.92-.94-1.42-2.23-.51-1.29-.51-2.8t.51-2.8q.5-1.28 1.42-2.22.91-.94 2.2-1.47 1.28-.53 2.84-.53 1.04 0 1.96.24.92.25 1.69.69t1.39 1.07q.61.63 1.04 1.41.42.78.65 1.69.22.91.22 1.92m-2.61 0q0-1.13-.31-2.03-.3-.89-.86-1.52t-1.36-.96q-.81-.33-1.81-.33-1.01 0-1.81.33-.81.33-1.37.96-.57.63-.87 1.52-.3.9-.3 2.03t.3 2.03.87 1.52q.56.62 1.37.95.8.34 1.81.34 1 0 1.81-.34.8-.33 1.36-.95t.86-1.52q.31-.9.31-2.03m12.81-5.58-.63 1.21q-.12.2-.25.29-.12.09-.31.09-.2 0-.44-.15-.23-.14-.55-.32t-.76-.33q-.43-.15-1.02-.15-.53 0-.93.13t-.67.36q-.27.22-.4.54-.14.32-.14.7 0 .48.27.81.28.32.72.55.45.23 1.02.41t1.17.38q.6.21 1.17.48t1.01.68q.45.41.72 1.01t.27 1.46q0 .93-.32 1.74t-.93 1.42q-.61.6-1.5.95-.88.34-2.02.34-.65 0-1.29-.13-.64-.12-1.22-.36-.59-.24-1.1-.57t-.91-.74l.75-1.23q.09-.13.25-.22.15-.09.32-.09.24 0 .51.19.28.2.66.44.38.23.89.43.5.19 1.22.19 1.09 0 1.69-.52.6-.51.6-1.48 0-.54-.27-.89-.27-.34-.72-.57t-1.02-.39q-.57-.17-1.16-.36t-1.16-.45q-.57-.27-1.01-.7-.45-.42-.72-1.06-.27-.65-.27-1.59 0-.75.3-1.46t.87-1.26 1.4-.89q.84-.33 1.92-.33 1.22 0 2.25.38 1.02.38 1.74 1.06M70.295 50q0 1.51-.5 2.8-.49 1.29-1.41 2.23-.91.94-2.19 1.46-1.28.53-2.85.53-1.56 0-2.84-.53-1.28-.52-2.2-1.46t-1.42-2.23-.5-2.8.5-2.8q.5-1.28 1.42-2.22t2.2-1.47 2.84-.53q1.04 0 1.97.24.92.25 1.69.69t1.38 1.07 1.04 1.41.65 1.69.22 1.92m-2.61 0q0-1.13-.3-2.03-.31-.89-.87-1.52t-1.36-.96-1.81-.33-1.81.33-1.37.96q-.56.63-.87 1.52-.3.9-.3 2.03t.3 2.03q.31.9.87 1.52.57.62 1.37.95.8.34 1.81.34t1.81-.34q.8-.33 1.36-.95t.87-1.52q.3-.9.3-2.03m13.53-4.83h-6.1v4.06h5.15v2.04h-5.15v5.6h-2.56V43.13h8.66z"/></svg>