<svg xmlns="http://www.w3.org/2000/svg" width="100" height="100" viewBox="0 0 100 100"><rect width="100%" height="100%" fill="#dc2626"/><path fill="#ffffff" d="M49.28 35.54h4.06v28.92H48.6V45.78q0-1.12.12-2.42l-8.74 16.42q-.62 1.18-1.9 1.18h-.76q-1.28 0-1.9-1.18L26.58 43.3q.06.66.1 1.3t.04 1.18v18.68h-4.74V35.54h4.06q.36 0 .62.02t.47.1.38.26.33.48l8.66 16.06q.34.64.63 1.32t.57 1.4q.28-.74.58-1.43t.64-1.33l8.54-16.02q.16-.3.34-.48t.39-.26.47-.1.62-.02m28.74 4.28H65.18v8.02H75.3v4.14H65.18v8.18h12.84v4.3H59.78V35.54h18.24z"/></svg>