<svg xmlns="http://www.w3.org/2000/svg" width="100" height="100" viewBox="0 0 100 100"><rect width="100%" height="100%" fill="#dc2626"/><path fill="#ffffff" d="M39.935 39.88h2.84v20.24h-3.32V47.04q0-.78.09-1.69l-6.12 11.49q-.44.83-1.33.83h-.53q-.9 0-1.33-.83l-6.19-11.53q.04.46.07.91t.03.82v13.08h-3.32V39.88h2.84q.25 0 .43.01.19.01.33.07.15.06.27.18.12.13.23.34l6.06 11.24q.24.45.44.92.21.48.4.98.2-.51.41-1 .21-.48.45-.93l5.97-11.21q.12-.21.24-.34.13-.12.27-.18.15-.06.33-.07.19-.01.44-.01m11.11 17.13h8.1v3.11h-11.86V39.88h3.76zm15.04-4.53h6.44l-2.46-6.74q-.19-.45-.38-1.06-.2-.62-.39-1.33-.19.71-.38 1.33-.2.63-.38 1.09zm5.14-12.6 7.95 20.24h-2.91q-.49 0-.8-.24-.31-.25-.46-.61l-1.51-4.13h-8.39l-1.51 4.13q-.11.32-.44.58-.32.27-.79.27h-2.94l7.96-20.24z"/></svg>