<svg xmlns="http://www.w3.org/2000/svg" width="100" height="100" viewBox="0 0 100 100"><rect width="100%" height="100%" fill="#dc2626"/><path fill="#ffffff" d="M37.465 41.325h2.44v17.35h-2.84v-11.21q0-.67.07-1.45l-5.25 9.85q-.37.71-1.14.71h-.45q-.77 0-1.14-.71l-5.31-9.89q.04.4.06.78.03.39.03.71v11.21h-2.85v-17.35h2.44q.22 0 .37.01.16.01.28.06.13.05.23.16.1.1.2.28l5.2 9.64q.2.38.37.79.18.41.35.84.16-.44.34-.86.18-.41.39-.79l5.12-9.62q.1-.18.21-.28.1-.11.23-.16t.28-.06q.16-.01.37-.01m12.92 0v11.18q0 1.47-.36 2.64-.36 1.18-1.08 2.01-.71.82-1.78 1.27-1.07.44-2.48.44-.65 0-1.28-.08-.62-.07-1.3-.24.03-.48.08-.96t.08-.96q.04-.27.21-.43.18-.16.5-.16.21 0 .54.08.33.09.83.09.68 0 1.21-.2t.88-.63q.36-.43.54-1.12t.18-1.68v-11.25zm7.34 10.8h5.52l-2.11-5.77q-.16-.39-.33-.92-.16-.52-.33-1.14-.16.62-.33 1.15-.16.53-.32.93zm4.4-10.8 6.82 17.35h-2.5q-.42 0-.68-.21t-.4-.52l-1.29-3.54h-7.19l-1.3 3.54q-.09.27-.37.5-.27.23-.68.23h-2.52l6.83-17.35zm8.32 2.81-.78-1.24q.41-.36.89-.68.49-.33 1.05-.57.57-.24 1.23-.38.66-.13 1.43-.13 1.04 0 1.9.28.86.29 1.47.83.61.53.95 1.29.33.75.33 1.69 0 .91-.26 1.58-.27.66-.66 1.15-.4.5-.87.86-.48.36-.9.67-.42.32-.72.63-.31.3-.37.69l-.27 1.75h-2.03l-.21-1.96q-.07-.56.17-.99.23-.42.62-.78.39-.35.87-.68t.9-.72.7-.88q.28-.48.28-1.15 0-.44-.16-.78t-.45-.59q-.29-.24-.69-.37-.4-.14-.87-.14-.68 0-1.16.15-.47.15-.8.34t-.56.34-.41.15q-.43 0-.62-.36m1.49 12.91q0-.37.14-.71.13-.34.37-.58t.58-.38.72-.14.71.14.58.38.39.58.14.71q0 .38-.14.71t-.39.57-.58.38-.71.14-.72-.14-.58-.38-.37-.57q-.14-.33-.14-.71"/></svg>