<svg xmlns="http://www.w3.org/2000/svg" width="100" height="100" viewBox="0 0 100 100"><rect width="100%" height="100%" fill="#dc2626"/><path fill="#ffffff" d="M34.175 40.24h3.19v19.52h-1.86q-.43 0-.72-.14t-.56-.48l-10.19-13.01q.08.89.08 1.64v11.99h-3.2V40.24h1.9q.23 0 .4.02t.3.08.25.18q.12.11.27.3l10.23 13.07q-.04-.47-.07-.93-.02-.46-.02-.85zm21.34 0h2.93l-7.89 19.52h-3.28l-7.88-19.52h2.92q.47 0 .77.23.29.23.44.59l4.6 11.91q.23.58.44 1.28.21.69.4 1.45.16-.76.35-1.45.19-.7.42-1.28l4.58-11.91q.11-.31.42-.56.32-.26.78-.26M79.085 50q0 2.15-.71 3.98-.71 1.82-2 3.16-1.3 1.34-3.12 2.09t-4.05.75q-2.22 0-4.04-.75t-3.12-2.09q-1.31-1.34-2.02-3.16-.72-1.83-.72-3.98t.72-3.98q.71-1.83 2.02-3.16 1.3-1.34 3.12-2.09t4.04-.75q1.48 0 2.79.35 1.31.34 2.41.97 1.09.63 1.96 1.52.87.9 1.48 2.01t.92 2.4q.32 1.3.32 2.73m-3.71 0q0-1.61-.43-2.88-.44-1.28-1.23-2.17-.8-.89-1.94-1.36-1.14-.48-2.57-.48t-2.57.48q-1.14.47-1.95 1.36-.8.89-1.23 2.17-.44 1.27-.44 2.88t.44 2.88q.43 1.28 1.23 2.16.81.89 1.95 1.36t2.57.47 2.57-.47 1.94-1.36q.79-.88 1.23-2.16.43-1.27.43-2.88"/></svg>