<svg xmlns="http://www.w3.org/2000/svg" width="100" height="100" viewBox="0 0 100 100"><rect width="100%" height="100%" fill="#dc2626"/><path fill="#ffffff" d="M25.95 50.07h3.42q1.25 0 2.19-.32.93-.31 1.55-.9.63-.59.93-1.43.31-.84.31-1.88 0-.98-.31-1.78-.3-.8-.92-1.36-.61-.56-1.54-.86-.94-.3-2.21-.3h-3.42zm-4.57-12.36h7.99q2.46 0 4.26.58 1.81.57 2.98 1.61t1.74 2.48q.57 1.45.57 3.16 0 1.79-.59 3.28-.6 1.48-1.79 2.56-1.19 1.07-2.98 1.66-1.8.6-4.19.6h-3.42v8.65h-4.57zm35.27 2.31-1.14 2.16q-.2.36-.43.52t-.57.16q-.36 0-.77-.26-.42-.27-1-.59t-1.35-.59q-.77-.26-1.83-.26-.95 0-1.66.23-.72.23-1.2.64-.49.4-.72.97-.24.57-.24 1.25 0 .87.48 1.45.49.58 1.29.98.79.41 1.81.73 1.02.33 2.1.69 1.07.37 2.09.85 1.02.49 1.82 1.23.79.74 1.28 1.81.48 1.07.48 2.6 0 1.66-.57 3.12-.57 1.45-1.66 2.53-1.1 1.08-2.68 1.7t-3.62.62q-1.17 0-2.31-.23t-2.19-.65q-1.04-.43-1.96-1.02-.92-.6-1.63-1.33l1.34-2.19q.17-.24.44-.4t.58-.16q.43 0 .92.35.49.34 1.17.77.68.42 1.59.77t2.19.35q1.95 0 3.02-.92 1.07-.93 1.07-2.67 0-.96-.48-1.58-.49-.61-1.29-1.02-.79-.42-1.81-.71t-2.08-.63q-1.05-.34-2.07-.82-1.02-.47-1.82-1.24-.8-.76-1.29-1.91-.48-1.15-.48-2.83 0-1.34.54-2.62.53-1.27 1.55-2.26 1.02-.98 2.52-1.58 1.49-.59 3.43-.59 2.18 0 4.01.68 1.84.68 3.13 1.9m8.99 10.05h3.42q1.26 0 2.19-.32.94-.31 1.56-.9t.93-1.43q.3-.84.3-1.88 0-.98-.3-1.78-.31-.8-.92-1.36t-1.55-.86q-.93-.3-2.21-.3h-3.42zm-4.57-12.36h7.99q2.47 0 4.27.58 1.8.57 2.97 1.61 1.18 1.04 1.75 2.48.57 1.45.57 3.16 0 1.79-.6 3.28-.59 1.48-1.78 2.56-1.19 1.07-2.99 1.66-1.79.6-4.19.6h-3.42v8.65h-4.57z"/></svg>