<svg xmlns="http://www.w3.org/2000/svg" width="100" height="100" viewBox="0 0 100 100"><rect width="100%" height="100%" fill="#dc2626"/><path fill="#ffffff" d="M25.405 50.055h3.02q1.11 0 1.93-.27.83-.28 1.38-.8.54-.52.81-1.26t.27-1.65q0-.87-.27-1.58-.27-.7-.81-1.2-.53-.49-1.36-.76-.83-.26-1.95-.26h-3.02zm-4.03-10.9h7.05q2.17 0 3.76.51t2.63 1.43q1.03.91 1.54 2.19.5 1.27.5 2.79 0 1.57-.53 2.88-.52 1.32-1.57 2.26t-2.63 1.47q-1.59.53-3.7.53h-3.02v7.63h-4.03zm33.72 0v3.31h-6.54v18.38h-4.04v-18.38h-6.54v-3.31zm23.53 10.85q0 2.38-.78 4.41-.79 2.04-2.23 3.52t-3.46 2.32q-2.03.83-4.51.83-2.46 0-4.48-.83-2.03-.84-3.47-2.32-1.45-1.48-2.25-3.52-.79-2.03-.79-4.41 0-2.39.79-4.42.8-2.03 2.25-3.52 1.44-1.49 3.47-2.32 2.02-.83 4.48-.83 1.65 0 3.11.38 1.45.39 2.67 1.08 1.21.7 2.18 1.7t1.64 2.23q.68 1.23 1.03 2.66.35 1.45.35 3.04m-4.12 0q0-1.79-.48-3.21-.48-1.41-1.37-2.4-.88-1-2.15-1.52-1.26-.53-2.86-.53-1.58 0-2.85.53-1.27.52-2.16 1.52-.89.99-1.38 2.4-.48 1.42-.48 3.21 0 1.78.48 3.2.49 1.42 1.38 2.4t2.16 1.51q1.27.52 2.85.52 1.6 0 2.86-.52 1.27-.53 2.15-1.51.89-.98 1.37-2.4t.48-3.2"/></svg>