<svg xmlns="http://www.w3.org/2000/svg" width="100" height="100" viewBox="0 0 100 100"><rect width="100%" height="100%" fill="#dc2626"/><path fill="#ffffff" d="m47.315 35.325-1.68 3.17q-.3.53-.63.77-.34.23-.84.23-.53 0-1.14-.38-.61-.39-1.46-.87-.85-.47-1.99-.86t-2.69-.39q-1.4 0-2.45.34t-1.76.94-1.06 1.44q-.35.83-.35 1.83 0 1.28.71 2.13t1.89 1.45q1.17.6 2.67 1.07 1.5.48 3.08 1.02 1.57.53 3.07 1.25 1.5.71 2.68 1.8 1.17 1.08 1.89 2.66.71 1.57.71 3.82 0 2.45-.84 4.59t-2.45 3.73q-1.61 1.58-3.94 2.5-2.32.91-5.32.91-1.73 0-3.4-.34-1.68-.34-3.21-.96-1.54-.63-2.89-1.5-1.35-.88-2.4-1.95l1.97-3.23q.25-.35.65-.58.4-.24.85-.24.63 0 1.35.51.73.51 1.73 1.14 1 .62 2.34 1.14 1.33.51 3.21.51 2.87 0 4.45-1.36 1.57-1.37 1.57-3.92 0-1.42-.71-2.32t-1.89-1.51q-1.17-.62-2.67-1.04-1.5-.43-3.05-.93t-3.05-1.2q-1.5-.69-2.68-1.82-1.17-1.13-1.89-2.81-.71-1.69-.71-4.17 0-1.97.79-3.85.79-1.87 2.29-3.32t3.7-2.33q2.2-.87 5.05-.87 3.2 0 5.9 1t4.6 2.8m17.72 27h9.28q1 0 1.59.56.58.56.58 1.49v3.7h-24.8v-2.05q0-.63.27-1.31.26-.69.83-1.24l10.98-11q1.37-1.4 2.46-2.68 1.09-1.27 1.81-2.52.73-1.25 1.12-2.54.38-1.29.38-2.71 0-1.3-.37-2.29-.38-.99-1.06-1.66-.69-.68-1.65-1.01-.97-.34-2.17-.34-1.1 0-2.03.31-.94.31-1.67.88-.72.56-1.22 1.31t-.75 1.65q-.43 1.15-1.1 1.52-.68.38-1.95.18l-3.25-.58q.37-2.6 1.45-4.56 1.07-1.96 2.69-3.27 1.61-1.32 3.7-1.98 2.08-.66 4.48-.66 2.5 0 4.58.74 2.07.73 3.55 2.08 1.47 1.35 2.3 3.25.82 1.9.82 4.23 0 2-.58 3.7-.59 1.7-1.58 3.25t-2.31 3q-1.33 1.45-2.78 2.95l-8.15 8.32q1.18-.35 2.34-.53 1.16-.19 2.21-.19"/></svg>