<svg xmlns="http://www.w3.org/2000/svg" width="100" height="100" viewBox="0 0 100 100"><rect width="100%" height="100%" fill="#dc2626"/><path fill="#ffffff" d="m36.74 40.02-1.14 2.16q-.2.36-.43.52t-.57.16q-.36 0-.78-.26-.41-.27-.99-.59t-1.35-.59q-.77-.26-1.83-.26-.95 0-1.66.23-.72.23-1.2.64-.49.4-.73.97-.23.57-.23 1.25 0 .87.48 1.45.49.58 1.28.98.8.41 1.82.73 1.02.33 2.09.69 1.08.37 2.1.85 1.02.49 1.81 1.23.8.74 1.29 1.81.48 1.07.48 2.6 0 1.66-.57 3.12-.57 1.45-1.66 2.53-1.1 1.08-2.68 1.7t-3.62.62q-1.17 0-2.31-.23t-2.19-.65q-1.04-.43-1.96-1.02-.92-.6-1.63-1.33l1.34-2.19q.17-.24.44-.4t.58-.16q.42 0 .92.35.49.34 1.17.77.68.42 1.59.77t2.18.35q1.96 0 3.03-.92 1.07-.93 1.07-2.67 0-.96-.48-1.58-.49-.61-1.29-1.02-.8-.42-1.82-.71t-2.07-.63-2.07-.82q-1.02-.47-1.82-1.24-.8-.76-1.29-1.91-.48-1.15-.48-2.83 0-1.34.53-2.62.54-1.27 1.56-2.26 1.02-.98 2.52-1.58 1.49-.59 3.43-.59 2.18 0 4.01.68 1.84.68 3.13 1.9m9.59 12.99h7.82l-2.99-8.18q-.22-.54-.46-1.29t-.48-1.62q-.22.87-.46 1.63-.24.75-.46 1.31zm6.24-15.3 9.65 24.58h-3.53q-.6 0-.97-.3-.38-.3-.56-.74l-1.84-5.01H45.14l-1.84 5.01q-.13.39-.52.72-.4.32-.97.32h-3.57l9.67-24.58zM79 40.02l-1.14 2.16q-.2.36-.43.52t-.57.16q-.36 0-.77-.26-.42-.27-1-.59t-1.35-.59q-.77-.26-1.83-.26-.95 0-1.66.23-.72.23-1.2.64-.49.4-.72.97-.24.57-.24 1.25 0 .87.48 1.45.49.58 1.29.98.8.41 1.82.73 1.02.33 2.09.69 1.07.37 2.09.85 1.02.49 1.82 1.23t1.28 1.81.48 2.6q0 1.66-.56 3.12-.57 1.45-1.67 2.53t-2.68 1.7-3.62.62q-1.17 0-2.31-.23t-2.19-.65q-1.04-.43-1.96-1.02-.92-.6-1.63-1.33l1.34-2.19q.17-.24.44-.4.28-.16.58-.16.43 0 .92.35.49.34 1.17.77.68.42 1.59.77t2.19.35q1.95 0 3.02-.92 1.07-.93 1.07-2.67 0-.96-.48-1.58-.49-.61-1.28-1.02-.8-.42-1.82-.71t-2.08-.63q-1.05-.34-2.07-.82-1.02-.47-1.82-1.24-.8-.76-1.28-1.91-.49-1.15-.49-2.83 0-1.34.54-2.62.53-1.27 1.55-2.26 1.02-.98 2.52-1.58 1.49-.59 3.43-.59 2.18 0 4.01.68 1.84.68 3.13 1.9"/></svg>