<svg xmlns="http://www.w3.org/2000/svg" width="100" height="100" viewBox="0 0 100 100"><rect width="100%" height="100%" fill="#dc2626"/><path fill="#ffffff" d="M37.86 38.795v3.42H31.1v18.99h-4.17v-18.99h-6.76v-3.42zm7.66 13.95h7.13l-2.73-7.46q-.2-.49-.42-1.18-.22-.68-.43-1.47-.21.79-.42 1.48-.22.69-.42 1.2zm5.68-13.95 8.81 22.41h-3.23q-.54 0-.88-.27t-.51-.68l-1.67-4.57h-9.29l-1.67 4.57q-.13.36-.48.66-.36.29-.89.29h-3.25l8.82-22.41zm15.3 10.66h2.61q1.18 0 2.05-.29.88-.3 1.44-.82.57-.52.85-1.23t.28-1.56q0-1.71-1.13-2.62-1.12-.92-3.43-.92H66.5zm7.72 3.47 5.61 8.28h-3.76q-1.07 0-1.55-.84l-4.72-7.17q-.26-.41-.58-.58-.31-.17-.93-.17H66.5v8.76h-4.17v-22.41h6.84q2.28 0 3.91.47 1.64.47 2.68 1.33 1.05.85 1.55 2.03.49 1.19.49 2.62 0 1.13-.33 2.13-.33 1.01-.96 1.83t-1.55 1.44-2.1.98q.4.23.74.55t.62.75"/></svg>