<svg xmlns="http://www.w3.org/2000/svg" width="100" height="100" viewBox="0 0 100 100"><rect width="100%" height="100%" fill="#dc2626"/><path fill="#ffffff" d="m41.6 38.555-8.43 14.18v8.96h-4.29v-8.96l-8.43-14.18h3.79q.56 0 .89.28.33.27.55.68l4.22 7.73q.37.69.65 1.3t.51 1.21q.2-.6.48-1.21.27-.61.62-1.3l4.21-7.73q.17-.35.53-.65.35-.31.89-.31zm6.67 19.78h4.35q1.2 0 2.02-.29t1.3-.77q.49-.48.71-1.12.21-.64.21-1.36 0-.75-.24-1.35t-.75-1.02q-.51-.43-1.32-.65t-1.94-.22h-4.34zm3.67-16.45h-3.67v6.69h3.43q2.2 0 3.33-.8t1.13-2.54q0-1.81-1.02-2.58-1.03-.77-3.2-.77m-7.97-3.33h7.97q2.27 0 3.88.44 1.62.43 2.65 1.23t1.51 1.93q.48 1.14.48 2.56 0 .82-.24 1.56-.24.75-.74 1.4-.5.64-1.28 1.17t-1.85.9q4.77 1.07 4.77 5.15 0 1.47-.56 2.72t-1.63 2.15q-1.07.91-2.64 1.42t-3.59.51h-8.73zm28.25 19.46h5.94q.64 0 1.02.36.37.36.37.95v2.37H63.68v-1.31q0-.4.17-.84t.53-.79l7.03-7.04q.88-.9 1.57-1.72.7-.81 1.16-1.61.47-.8.72-1.63.24-.82.24-1.73 0-.83-.24-1.47-.24-.63-.68-1.06t-1.05-.65q-.62-.21-1.39-.21-.7 0-1.3.2t-1.06.56q-.47.36-.79.84t-.48 1.05q-.27.74-.7.98t-1.25.11l-2.08-.37q.24-1.66.93-2.92.69-1.25 1.72-2.09t2.37-1.27q1.33-.42 2.87-.42 1.6 0 2.93.47 1.32.47 2.27 1.34.94.86 1.47 2.08.53 1.21.53 2.7 0 1.28-.38 2.37-.37 1.09-1.01 2.08-.63.99-1.48 1.92-.84.93-1.77 1.89l-5.22 5.32q.75-.22 1.5-.34.74-.12 1.41-.12"/></svg>