<svg xmlns="http://www.w3.org/2000/svg" width="100" height="100" viewBox="0 0 100 100"><rect width="100%" height="100%" fill="#dc2626"/><path fill="#ffffff" d="M27.645 52.825h7.36l-2.82-7.69q-.21-.51-.43-1.22-.22-.7-.45-1.52-.21.82-.43 1.53t-.43 1.24zm5.87-14.4 9.09 23.14h-3.33q-.56 0-.91-.28t-.53-.7l-1.73-4.72h-9.58l-1.73 4.72q-.13.37-.5.68-.36.3-.91.3h-3.36l9.11-23.14zm27.38 17.68q.35 0 .62.28l1.7 1.84q-1.41 1.74-3.47 2.67-2.05.93-4.93.93-2.58 0-4.64-.88-2.05-.88-3.51-2.45-1.45-1.57-2.23-3.75-.78-2.17-.78-4.75 0-2.61.84-4.77.83-2.17 2.34-3.74t3.61-2.44q2.09-.87 4.64-.87 2.53 0 4.49.83t3.33 2.18l-1.44 2q-.13.19-.33.33-.2.15-.55.15-.24 0-.49-.14-.26-.14-.56-.34-.31-.2-.71-.44t-.93-.44q-.52-.2-1.22-.33-.7-.14-1.61-.14-1.55 0-2.84.55-1.29.56-2.21 1.6-.93 1.05-1.44 2.56-.52 1.52-.52 3.45 0 1.95.56 3.47.55 1.52 1.49 2.56.95 1.04 2.23 1.6 1.28.55 2.75.55.88 0 1.59-.1.71-.09 1.31-.3t1.14-.54q.53-.33 1.06-.81.16-.14.34-.23.17-.09.37-.09m18.67-15.5-1.07 2.03q-.2.34-.41.49-.22.15-.54.15-.33 0-.73-.25-.39-.24-.93-.55-.55-.3-1.27-.55-.73-.25-1.72-.25-.9 0-1.57.22-.67.21-1.13.6-.46.38-.68.92-.22.53-.22 1.17 0 .82.45 1.36.46.55 1.21.93.75.39 1.71.69t1.97.65q1.01.34 1.97.8.96.45 1.71 1.15t1.21 1.7q.45 1.01.45 2.45 0 1.57-.53 2.94-.54 1.37-1.57 2.38-1.03 1.02-2.52 1.6-1.49.59-3.41.59-1.1 0-2.17-.22-1.08-.22-2.06-.62t-1.85-.96q-.86-.56-1.53-1.24l1.26-2.07q.16-.22.42-.37.25-.16.54-.16.4 0 .86.33.47.33 1.11.73t1.49.73q.86.33 2.06.33 1.84 0 2.85-.88 1.01-.87 1.01-2.5 0-.91-.46-1.49-.46-.57-1.21-.97-.75-.39-1.71-.66t-1.95-.59-1.95-.77-1.72-1.17q-.75-.72-1.2-1.8-.46-1.08-.46-2.66 0-1.27.5-2.47.51-1.2 1.47-2.12.96-.93 2.37-1.49 1.4-.56 3.23-.56 2.05 0 3.77.64 1.73.64 2.95 1.79"/></svg>