<svg xmlns="http://www.w3.org/2000/svg" width="100" height="100" viewBox="0 0 100 100"><rect width="100%" height="100%" fill="#dc2626"/><path fill="#ffffff" d="M23.71 51.505h3.91l-1.49-4.09q-.11-.27-.23-.65-.12-.37-.24-.8-.11.43-.23.81t-.23.66zm3.12-7.65 4.83 12.29h-1.77q-.3 0-.48-.15-.19-.15-.28-.37l-.92-2.51h-5.09l-.92 2.51q-.07.2-.26.36-.2.16-.49.16h-1.78l4.83-12.29zm14.17 0h2.3v12.29H41v-5.37h-5.77v5.37h-2.29v-12.29h2.29v5.29H41zm16.76 6.14q0 1.36-.45 2.51t-1.26 1.99q-.82.84-1.97 1.31-1.14.48-2.55.48-1.39 0-2.54-.48-1.15-.47-1.97-1.31t-1.27-1.99-.45-2.51q0-1.35.45-2.5t1.27-1.99 1.97-1.32q1.15-.47 2.54-.47.94 0 1.76.22.83.22 1.52.61.68.4 1.23.96.55.57.93 1.26.39.7.59 1.52.2.81.2 1.71m-2.34 0q0-1.01-.27-1.81-.28-.8-.78-1.36-.5-.57-1.22-.86-.72-.3-1.62-.3t-1.62.3q-.71.29-1.22.86-.51.56-.78 1.36t-.27 1.81q0 1.02.27 1.82t.78 1.36 1.22.85q.72.3 1.62.3t1.62-.3q.72-.29 1.22-.85t.78-1.36q.27-.8.27-1.82m12.93-6.14v1.88h-3.7v10.41h-2.29v-10.41h-3.7v-1.88zm9.97 0h2.01v12.29h-1.17q-.27 0-.46-.09-.18-.09-.35-.3l-6.42-8.2q.05.57.05 1.04v7.55h-2.01v-12.29h1.2q.14 0 .25.01t.19.05.15.11q.08.08.17.19l6.45 8.23q-.03-.3-.05-.58-.01-.29-.01-.54z"/></svg>