<svg xmlns="http://www.w3.org/2000/svg" width="100" height="100" viewBox="0 0 100 100"><rect width="100%" height="100%" fill="#dc2626"/><path fill="#ffffff" d="M24.395 51.69h4.59l-1.76-4.81q-.13-.32-.27-.76-.13-.44-.27-.95-.14.51-.28.95-.13.45-.26.78zm3.66-9 5.68 14.46h-2.08q-.35 0-.57-.18-.22-.17-.33-.43l-1.07-2.95h-6l-1.07 2.95q-.09.23-.32.42-.22.19-.57.19h-2.09l5.69-14.46zm12.7 0v9.32q0 1.22-.3 2.2-.31.98-.9 1.67t-1.48 1.06-2.07.37q-.54 0-1.06-.06-.53-.07-1.1-.21.04-.4.07-.8.04-.4.07-.8.04-.22.18-.35.14-.14.41-.14.18 0 .45.07.28.07.69.07.58 0 1.01-.17.44-.16.74-.52.29-.36.45-.94.14-.57.14-1.39v-9.38zm13.18 0v2.21h-4.36v12.25h-2.69V44.9h-4.37v-2.21zm11.38 0h2.71v14.46h-2.71v-6.32h-6.78v6.32h-2.7V42.69h2.7v6.22h6.78zm15.05 2.14h-6.43v4.28h5.43v2.15h-5.43v5.89h-2.7V42.69h9.13z"/></svg>