<svg xmlns="http://www.w3.org/2000/svg" width="100" height="100" viewBox="0 0 100 100"><rect width="100%" height="100%" fill="#dc2626"/><path fill="#ffffff" d="M31.485 50q0 1.43-.48 2.63t-1.34 2.06q-.86.87-2.08 1.34-1.21.48-2.7.48h-4.96V43.5h4.96q1.49 0 2.7.48 1.22.48 2.08 1.34t1.34 2.05q.48 1.2.48 2.63m-2.49 0q0-1.07-.28-1.92t-.82-1.44q-.53-.59-1.29-.9-.76-.32-1.72-.32h-2.53v9.16h2.53q.96 0 1.72-.31.76-.32 1.29-.91.54-.59.82-1.44t.28-1.92m16.18 0q0 1.43-.48 2.63t-1.34 2.06q-.86.87-2.08 1.34-1.21.48-2.7.48h-4.96V43.5h4.96q1.49 0 2.7.48 1.22.48 2.08 1.34t1.34 2.05q.48 1.2.48 2.63m-2.49 0q0-1.07-.28-1.92t-.82-1.44q-.53-.59-1.3-.9-.76-.32-1.71-.32h-2.53v9.16h2.53q.95 0 1.71-.31.77-.32 1.3-.91.54-.59.82-1.44t.28-1.92m7.36 1.6h4.14l-1.59-4.33q-.11-.29-.24-.69-.13-.39-.25-.85-.12.46-.25.86-.12.4-.24.69zm3.3-8.1 5.11 13.01h-1.87q-.32 0-.51-.16-.2-.16-.3-.39l-.97-2.65h-5.39l-.98 2.65q-.07.21-.27.38-.21.17-.52.17h-1.89l5.12-13.01zm15.66 0h1.95l-5.25 13.01h-2.19l-5.26-13.01h1.95q.31 0 .51.15t.3.39l3.07 7.94q.15.39.29.85.14.47.26.97.11-.5.24-.97.12-.46.28-.85l3.05-7.94q.07-.2.28-.37t.52-.17m10.84 1.22-.61 1.14q-.11.19-.23.28-.12.08-.3.08-.19 0-.41-.14t-.52-.31q-.31-.17-.72-.31t-.97-.14q-.5 0-.88.12-.38.13-.63.34-.26.22-.39.52-.12.3-.12.66 0 .46.25.77.26.3.68.52.43.21.97.38.54.18 1.1.37.57.19 1.11.45t.96.65q.43.39.68.96.26.56.26 1.37 0 .88-.3 1.65t-.88 1.35q-.58.57-1.42.9-.84.32-1.92.32-.62 0-1.22-.12-.61-.12-1.16-.34-.55-.23-1.04-.54-.48-.32-.86-.71l.71-1.16q.09-.12.23-.21.15-.08.31-.08.22 0 .48.18.27.18.63.41.36.22.84.41.48.18 1.15.18 1.04 0 1.61-.49.56-.49.56-1.41 0-.51-.25-.83-.26-.33-.68-.55-.43-.22-.97-.37t-1.09-.33q-.56-.18-1.1-.44-.54-.25-.97-.65-.42-.41-.68-1.01-.25-.61-.25-1.5 0-.71.28-1.39.29-.67.83-1.2.54-.52 1.33-.83.79-.32 1.82-.32 1.15 0 2.12.36t1.66 1.01"/></svg>