<svg xmlns="http://www.w3.org/2000/svg" width="100" height="100" viewBox="0 0 100 100"><rect width="100%" height="100%" fill="#dc2626"/><path fill="#ffffff" d="M34.3 49.97h7.92v9.65q-1.81 1.34-3.86 1.96-2.06.61-4.4.61-2.92 0-5.29-.9-2.37-.91-4.04-2.53-1.68-1.62-2.58-3.86-.91-2.24-.91-4.9 0-2.69.87-4.93.88-2.25 2.49-3.86 1.6-1.62 3.9-2.51 2.29-.89 5.15-.89 1.45 0 2.71.23t2.34.63q1.08.41 1.97.98.9.58 1.64 1.28l-1.27 2.01q-.3.48-.78.58-.48.11-1.04-.23-.54-.32-1.09-.63-.54-.32-1.21-.55t-1.5-.38q-.83-.14-1.92-.14-1.77 0-3.2.59-1.42.59-2.43 1.7-1.01 1.1-1.55 2.66-.54 1.55-.54 3.46 0 2.05.58 3.66.59 1.6 1.65 2.72 1.07 1.11 2.57 1.7 1.5.58 3.35.58 1.32 0 2.36-.28t2.03-.76V53.3h-3.01q-.43 0-.67-.24t-.24-.58zm26.03-9.66-1.11 2.1q-.2.35-.42.5-.22.16-.55.16-.35 0-.75-.26-.41-.25-.97-.56-.56-.32-1.31-.57-.75-.26-1.78-.26-.92 0-1.61.22-.7.23-1.17.62-.47.4-.7.95t-.23 1.21q0 .85.47 1.41t1.25.95q.77.4 1.76.71.99.32 2.03.67 1.04.36 2.03.83t1.77 1.18q.77.72 1.24 1.76t.47 2.53q0 1.61-.55 3.02t-1.62 2.46q-1.06 1.05-2.59 1.65-1.54.6-3.52.6-1.14 0-2.24-.22-1.11-.22-2.12-.63-1.02-.42-1.91-.99-.89-.58-1.58-1.29l1.3-2.13q.17-.23.43-.39.26-.15.56-.15.41 0 .89.33.48.34 1.14.75.66.42 1.54.76.89.33 2.12.33 1.9 0 2.94-.9 1.04-.89 1.04-2.58 0-.94-.47-1.53-.47-.6-1.25-1-.77-.4-1.76-.69-.99-.28-2.01-.61-1.03-.33-2.02-.79t-1.76-1.2q-.78-.74-1.25-1.86-.47-1.11-.47-2.75 0-1.3.52-2.54.52-1.23 1.51-2.19t2.44-1.54q1.45-.57 3.34-.57 2.11 0 3.89.66t3.04 1.84m18.1 0-1.11 2.1q-.2.35-.42.5-.22.16-.55.16-.35 0-.75-.26-.41-.25-.97-.56-.56-.32-1.31-.57-.75-.26-1.77-.26-.93 0-1.62.22-.69.23-1.16.62-.48.4-.71.95t-.23 1.21q0 .85.47 1.41t1.25.95q.77.4 1.76.71.99.32 2.03.67 1.04.36 2.03.83t1.77 1.18q.77.72 1.24 1.76.48 1.04.48 2.53 0 1.61-.56 3.02-.55 1.41-1.61 2.46-1.07 1.05-2.6 1.65-1.54.6-3.52.6-1.14 0-2.24-.22-1.11-.22-2.12-.63-1.02-.42-1.91-.99-.89-.58-1.58-1.29l1.3-2.13q.17-.23.43-.39.26-.15.56-.15.41 0 .89.33.48.34 1.14.75.66.42 1.54.76.89.33 2.12.33 1.9 0 2.94-.9 1.04-.89 1.04-2.58 0-.94-.47-1.53-.47-.6-1.25-1-.77-.4-1.76-.69-.99-.28-2.01-.61-1.03-.33-2.02-.79t-1.76-1.2q-.78-.74-1.25-1.86-.47-1.11-.47-2.75 0-1.3.52-2.54.52-1.23 1.51-2.19t2.44-1.54q1.45-.57 3.34-.57 2.11 0 3.89.66t3.04 1.84"/></svg>