<svg xmlns="http://www.w3.org/2000/svg" width="100" height="100" viewBox="0 0 100 100"><rect width="100%" height="100%" fill="#dc2626"/><path fill="#ffffff" d="M33.17 36.985v16.78q0 2.19-.54 3.96-.54 1.76-1.61 3-1.07 1.25-2.67 1.91-1.61.67-3.73.67-.97 0-1.91-.12-.93-.12-1.96-.37.05-.72.13-1.44.07-.72.12-1.44.06-.39.32-.64.26-.24.74-.24.31 0 .81.13.49.12 1.25.12 1.02 0 1.81-.3.8-.29 1.33-.94t.8-1.68q.27-1.04.27-2.51v-16.89zm11.02 16.2h8.28l-3.17-8.66q-.24-.57-.49-1.36-.25-.8-.5-1.71-.24.91-.49 1.71-.25.81-.48 1.4zm6.6-16.2 10.23 26.03h-3.75q-.63 0-1.02-.32-.4-.31-.6-.78l-1.94-5.31H42.93l-1.95 5.31q-.14.42-.56.76-.41.34-1.02.34h-3.78l10.24-26.03zm27.99 2.45-1.2 2.29q-.22.37-.46.54-.25.18-.61.18-.37 0-.81-.28t-1.06-.62q-.61-.35-1.43-.63-.82-.27-1.93-.27-1.01 0-1.77.24-.75.24-1.27.67-.51.44-.76 1.04t-.25 1.32q0 .92.51 1.53t1.36 1.05q.84.43 1.93.77 1.08.34 2.21.73t2.21.9 1.93 1.29q.85.79 1.36 1.92.51 1.14.51 2.76 0 1.76-.6 3.3t-1.77 2.68q-1.16 1.14-2.83 1.8-1.68.66-3.83.66-1.25 0-2.45-.24-1.21-.25-2.32-.7-1.1-.45-2.07-1.08-.98-.63-1.73-1.4l1.42-2.32q.18-.26.47-.43t.61-.17q.45 0 .97.37t1.24.82 1.69.82q.96.37 2.31.37 2.07 0 3.2-.98 1.14-.98 1.14-2.82 0-1.03-.52-1.67-.51-.65-1.35-1.09-.85-.44-1.93-.75t-2.2-.67q-1.11-.36-2.19-.86t-1.93-1.31q-.84-.81-1.36-2.03-.51-1.21-.51-3 0-1.42.57-2.77.56-1.35 1.64-2.39 1.08-1.05 2.67-1.68 1.58-.63 3.63-.63 2.31 0 4.25.72 1.95.72 3.31 2.02"/></svg>