<svg xmlns="http://www.w3.org/2000/svg" width="100" height="100" viewBox="0 0 100 100"><rect width="100%" height="100%" fill="#dc2626"/><path fill="#ffffff" d="M24.925 43.855v7.92q0 1.04-.25 1.87-.26.83-.77 1.42-.5.59-1.26.9-.75.32-1.76.32-.46 0-.9-.06-.44-.05-.92-.17.02-.34.05-.68.04-.34.06-.68.03-.19.15-.31.13-.11.36-.11.14 0 .37.06.24.06.59.06.49 0 .86-.14.38-.14.63-.45.25-.3.38-.79.12-.49.12-1.19v-7.97zm14.34 6.14q0 1.36-.45 2.51-.44 1.15-1.26 1.99-.81.84-1.96 1.31-1.15.48-2.55.48t-2.54-.48q-1.15-.47-1.97-1.31t-1.27-1.99-.45-2.51q0-1.35.45-2.5t1.27-1.99 1.97-1.32q1.14-.47 2.54-.47.93 0 1.76.22.82.22 1.51.61.69.4 1.24.96.55.57.93 1.26.38.7.58 1.52.2.81.2 1.71m-2.34 0q0-1.01-.27-1.81t-.77-1.36q-.5-.57-1.22-.86-.72-.3-1.62-.3t-1.62.3q-.72.29-1.23.86-.5.56-.77 1.36t-.27 1.81q0 1.02.27 1.82t.77 1.36q.51.56 1.23.85.72.3 1.62.3t1.62-.3q.72-.29 1.22-.85t.77-1.36.27-1.82m12.94-6.14v1.88h-3.71v10.41h-2.28v-10.41h-3.71v-1.88zm9.96 0h2.02v12.29h-1.18q-.27 0-.45-.09t-.35-.3l-6.42-8.2q.05.57.05 1.04v7.55h-2.02v-12.29h1.2q.15 0 .25.01.11.01.19.05t.16.11q.07.08.17.19l6.44 8.23-.04-.58q-.02-.29-.02-.54zm19.31 0h1.8l-3.82 12.29h-2.06l-2.69-8.4q-.11-.3-.2-.75l-.11.4q-.05.19-.11.35l-2.71 8.4h-2.07l-3.81-12.29h1.91q.3 0 .5.14t.27.38l2.09 7.35q.07.27.13.59t.13.67q.07-.36.15-.67.08-.32.17-.59l2.42-7.35q.07-.2.27-.36t.48-.16h.68q.29 0 .48.14.19.15.28.38l2.41 7.35q.18.53.32 1.22.11-.68.25-1.22l2.09-7.35q.05-.22.26-.37.2-.15.49-.15"/></svg>