<svg xmlns="http://www.w3.org/2000/svg" width="100" height="100" viewBox="0 0 100 100"><rect width="100%" height="100%" fill="#dc2626"/><path fill="#ffffff" d="M25.175 44.215v7.46q0 .97-.24 1.76-.24.78-.71 1.33-.48.56-1.19.85-.71.3-1.66.3-.43 0-.85-.05-.41-.06-.87-.17l.06-.64q.03-.32.05-.64.03-.17.14-.28.12-.11.34-.11.13 0 .35.06.22.05.56.05.45 0 .81-.13.35-.13.58-.42.24-.29.36-.75t.12-1.11v-7.51zm16.17 0h1.69l-3.59 11.57h-1.95l-2.53-7.9q-.1-.29-.19-.71-.05.2-.09.38-.05.17-.11.33l-2.55 7.9h-1.95l-3.59-11.57h1.8q.28 0 .47.13.19.14.25.36l1.97 6.92q.07.26.13.56t.12.62q.06-.33.14-.63.08-.29.16-.55l2.28-6.92q.06-.18.25-.34.19-.15.46-.15h.63q.28 0 .46.14.17.13.26.35l2.26 6.92q.17.5.31 1.14.1-.63.23-1.14l1.97-6.92q.05-.2.24-.34.2-.15.47-.15m13.38 5.79q0 1.27-.42 2.33-.42 1.07-1.19 1.83-.77.77-1.85 1.2-1.08.42-2.4.42h-4.41v-11.57h4.41q1.32 0 2.4.43t1.85 1.19q.77.77 1.19 1.83t.42 2.34m-2.2 0q0-.96-.26-1.71-.25-.76-.72-1.28-.48-.53-1.16-.81-.67-.28-1.52-.28h-2.25v8.15h2.25q.85 0 1.52-.28.68-.28 1.16-.81.47-.52.72-1.28.26-.75.26-1.7m17.8-5.79h1.69l-3.59 11.57h-1.94l-2.53-7.9q-.11-.29-.19-.71-.05.2-.1.38-.05.17-.1.33l-2.56 7.9h-1.95l-3.58-11.57h1.8q.28 0 .47.13.18.14.25.36l1.97 6.92q.06.26.12.56t.12.62q.07-.33.14-.63.08-.29.17-.55l2.27-6.92q.06-.18.25-.34.19-.15.46-.15h.63q.28 0 .46.14.18.13.26.35l2.27 6.92q.17.5.3 1.14.11-.63.23-1.14l1.97-6.92q.05-.2.25-.34.19-.15.46-.15m9.81 1.09-.53 1.02q-.1.16-.21.24t-.27.08-.36-.13q-.2-.12-.47-.27-.27-.16-.63-.28-.37-.12-.86-.12-.45 0-.79.1-.33.11-.56.3-.23.2-.34.46-.11.27-.11.59 0 .41.22.68.23.27.61.47.37.19.85.34t.99.32q.5.18.98.4.48.23.86.58.37.35.6.85.23.51.23 1.23 0 .78-.27 1.46-.27.69-.78 1.2-.52.5-1.26.8-.75.29-1.71.29-.55 0-1.08-.11-.54-.11-1.03-.31t-.93-.48q-.43-.28-.76-.62l.63-1.03q.08-.12.21-.19.12-.08.27-.08.2 0 .43.17.23.16.55.36t.75.36q.43.17 1.03.17.92 0 1.42-.44.51-.43.51-1.25 0-.46-.23-.74-.23-.29-.61-.49-.37-.19-.85-.33t-.98-.3q-.49-.16-.97-.38t-.86-.58-.6-.9q-.23-.54-.23-1.34 0-.63.25-1.23t.73-1.06q.48-.47 1.19-.75.7-.28 1.61-.28 1.03 0 1.89.32t1.47.9"/></svg>