<svg xmlns="http://www.w3.org/2000/svg" width="100" height="100" viewBox="0 0 100 100"><rect width="100%" height="100%" fill="#dc2626"/><path fill="#ffffff" d="M27.22 60.27h11.85v4.55H21.7V35.18h5.52zM54.3 35.18v19.1q0 2.5-.62 4.51-.61 2.01-1.83 3.43-1.22 1.41-3.05 2.17-1.82.76-4.24.76-1.11 0-2.17-.14-1.07-.13-2.24-.42.06-.82.15-1.64.08-.82.14-1.64.06-.45.36-.72.29-.28.85-.28.35 0 .91.14.56.15 1.43.15 1.16 0 2.07-.34.9-.34 1.5-1.08.61-.74.91-1.91.31-1.18.31-2.86V35.18zm23.47 2.78-1.37 2.61q-.25.43-.53.62-.27.2-.68.2-.43 0-.94-.32-.5-.32-1.2-.71-.69-.39-1.63-.7-.93-.32-2.2-.32-1.15 0-2.01.28-.86.27-1.44.76-.59.5-.87 1.18-.29.69-.29 1.51 0 1.04.58 1.74.59.7 1.55 1.19t2.19.88 2.53.83q1.29.44 2.52 1.03 1.23.58 2.19 1.47.96.9 1.55 2.19.58 1.29.58 3.13 0 2.01-.68 3.77-.69 1.75-2.01 3.05-1.33 1.3-3.23 2.05-1.91.75-4.37.75-1.41 0-2.79-.28-1.37-.28-2.63-.79t-2.37-1.23-1.97-1.6l1.62-2.64q.21-.29.54-.48.32-.2.69-.2.52 0 1.11.42t1.41.93q.82.52 1.92.94t2.64.42q2.35 0 3.64-1.12 1.3-1.12 1.3-3.21 0-1.17-.59-1.9-.58-.74-1.55-1.24-.96-.51-2.19-.86-1.23-.34-2.5-.75t-2.5-.99q-1.23-.57-2.2-1.49-.96-.93-1.54-2.31-.59-1.38-.59-3.41 0-1.62.65-3.16.64-1.54 1.87-2.73t3.04-1.9q1.8-.72 4.14-.72 2.62 0 4.84.82 2.21.82 3.77 2.29"/></svg>