<svg xmlns="http://www.w3.org/2000/svg" width="100" height="100" viewBox="0 0 100 100"><rect width="100%" height="100%" fill="#dc2626"/><path fill="#ffffff" d="M27.17 59.52h10.98v4.22H22.06V36.27h5.11zm19.74 0h10.98v4.22H41.8V36.27h5.11zm30.53-20.67-1.27 2.41q-.23.4-.49.58-.25.18-.63.18-.4 0-.87-.29-.46-.3-1.11-.66-.64-.36-1.51-.65-.86-.3-2.04-.3-1.07 0-1.86.26-.8.26-1.34.71-.54.46-.81 1.09-.27.64-.27 1.4 0 .97.54 1.62.55.64 1.44 1.1.89.45 2.03.81 1.14.37 2.34.77 1.2.41 2.34.95 1.14.55 2.03 1.37.89.83 1.43 2.03.55 1.19.55 2.9 0 1.86-.64 3.49-.64 1.62-1.86 2.83-1.23 1.21-3 1.9-1.76.69-4.04.69-1.31 0-2.59-.25-1.27-.26-2.44-.73-1.17-.48-2.19-1.14-1.03-.67-1.83-1.49l1.5-2.45q.19-.26.5-.44.3-.18.64-.18.48 0 1.03.39t1.31.86 1.78.86q1.01.39 2.44.39 2.18 0 3.38-1.03 1.2-1.04 1.2-2.97 0-1.09-.54-1.77-.54-.69-1.44-1.15-.89-.47-2.03-.79t-2.32-.7-2.32-.92q-1.14-.53-2.03-1.38-.89-.86-1.43-2.14-.55-1.28-.55-3.16 0-1.5.6-2.93.6-1.42 1.74-2.53 1.14-1.1 2.81-1.76 1.68-.67 3.84-.67 2.43 0 4.49.76 2.05.76 3.49 2.13"/></svg>