<svg xmlns="http://www.w3.org/2000/svg" width="100" height="100" viewBox="0 0 100 100"><rect width="100%" height="100%" fill="#dc2626"/><path fill="#ffffff" d="M31.77 54.2q.24 0 .43.19l1.16 1.26q-.96 1.2-2.38 1.84-1.41.64-3.39.64-1.77 0-3.18-.61-1.42-.6-2.42-1.68t-1.53-2.58q-.54-1.49-.54-3.26 0-1.8.57-3.29.58-1.49 1.62-2.56 1.04-1.08 2.48-1.68t3.19-.6q1.73 0 3.08.57t2.3 1.5l-.99 1.37q-.09.13-.23.23t-.38.1q-.16 0-.34-.09-.18-.1-.39-.23-.2-.14-.48-.31-.27-.16-.64-.3-.36-.14-.84-.23t-1.1-.09q-1.07 0-1.96.38-.88.38-1.52 1.1t-.99 1.76-.35 2.37q0 1.34.38 2.38.38 1.05 1.03 1.76.64.72 1.52 1.1t1.9.38q.6 0 1.09-.07.49-.06.9-.21.42-.14.78-.37.37-.22.74-.55.11-.1.23-.16t.25-.06m22.47-12.16h2.32l-4.94 15.91h-2.67l-3.47-10.87q-.15-.39-.27-.97-.06.28-.13.52t-.14.45l-3.51 10.87h-2.69l-4.92-15.91h2.47q.39 0 .64.19.26.18.35.49l2.71 9.51q.08.35.17.76.08.42.17.87.09-.46.19-.87t.23-.76l3.12-9.51q.09-.26.35-.47.25-.21.63-.21h.87q.38 0 .62.19.25.19.37.49l3.11 9.51q.23.68.42 1.57.14-.87.32-1.57l2.7-9.51q.07-.28.34-.48t.64-.2m13.49 1.5-.74 1.4q-.13.23-.28.33-.15.11-.37.11-.23 0-.5-.17t-.64-.38q-.38-.21-.88-.38t-1.18-.17q-.61 0-1.08.15-.46.14-.77.41-.32.26-.47.63t-.15.81q0 .56.31.93.31.38.83.64.52.27 1.18.47.66.21 1.35.45t1.35.55 1.18.79.83 1.17q.31.7.31 1.69 0 1.08-.36 2.02-.37.94-1.08 1.63-.71.7-1.73 1.1-1.03.41-2.35.41-.76 0-1.49-.15-.74-.15-1.42-.43-.67-.27-1.27-.66-.59-.38-1.05-.85l.87-1.42q.11-.16.28-.26.18-.11.38-.11.27 0 .59.23t.76.5q.44.28 1.03.5.59.23 1.41.23 1.27 0 1.96-.6t.69-1.72q0-.63-.31-1.03-.32-.39-.83-.66-.52-.27-1.18-.46t-1.34-.41-1.34-.52q-.66-.31-1.18-.81-.52-.49-.83-1.24-.31-.74-.31-1.83 0-.87.34-1.69.35-.83 1.01-1.46.66-.64 1.63-1.03.96-.38 2.22-.38 1.41 0 2.59.44 1.19.44 2.03 1.23m12.07 0-.74 1.4q-.13.23-.28.33-.15.11-.37.11-.23 0-.5-.17t-.64-.38q-.38-.21-.88-.38t-1.18-.17q-.62 0-1.08.15-.46.14-.77.41-.32.26-.47.63-.16.37-.16.81 0 .56.32.93.31.38.83.64.51.27 1.17.47.66.21 1.36.45.69.24 1.35.55t1.18.79q.51.48.83 1.17.31.7.31 1.69 0 1.08-.37 2.02t-1.08 1.63q-.7.7-1.73 1.1-1.02.41-2.34.41-.76 0-1.5-.15-.73-.15-1.41-.43-.68-.27-1.27-.66-.59-.38-1.06-.85l.87-1.42q.11-.16.29-.26.17-.11.37-.11.28 0 .6.23t.76.5q.44.28 1.02.5.59.23 1.42.23 1.26 0 1.96-.6.69-.6.69-1.72 0-.63-.32-1.03-.31-.39-.83-.66-.51-.27-1.17-.46t-1.34-.41q-.69-.22-1.35-.52-.66-.31-1.17-.81-.52-.49-.83-1.24-.32-.74-.32-1.83 0-.87.35-1.69.35-.83 1.01-1.46.66-.64 1.62-1.03.97-.38 2.23-.38 1.4 0 2.59.44t2.03 1.23"/></svg>