<svg xmlns="http://www.w3.org/2000/svg" width="100" height="100" viewBox="0 0 100 100"><rect width="100%" height="100%" fill="#dc2626"/><path fill="#ffffff" d="M46.855 39.515h3.06l-6.51 20.97h-3.53l-4.58-14.33q-.19-.52-.35-1.27-.08.36-.17.68t-.19.59l-4.63 14.33h-3.53l-6.5-20.97h3.26q.51 0 .85.24t.46.65l3.57 12.54q.11.46.22 1.01.11.54.23 1.14.11-.61.25-1.15t.3-1l4.11-12.54q.12-.34.46-.61.34-.28.83-.28h1.15q.51 0 .83.25t.48.64l4.1 12.54q.3.9.55 2.07.19-1.14.42-2.07l3.57-12.54q.08-.37.44-.63.35-.26.85-.26m9.54 17.75h8.38v3.22h-12.28v-20.97h3.9zm23.3-15.78-.97 1.85q-.18.3-.37.44-.2.14-.49.14-.3 0-.66-.23-.35-.22-.84-.5-.5-.27-1.16-.5-.66-.22-1.56-.22-.81 0-1.42.19-.61.2-1.02.55-.41.34-.62.83-.2.49-.2 1.07 0 .73.41 1.23.42.49 1.1.84t1.55.62q.87.28 1.78.59.92.31 1.79.72.87.42 1.55 1.05t1.09 1.54q.42.92.42 2.22 0 1.42-.49 2.66-.48 1.24-1.42 2.16-.93.92-2.28 1.45t-3.09.53q-1 0-1.97-.19-.98-.2-1.87-.56t-1.67-.87-1.39-1.13l1.14-1.87q.15-.21.38-.34.23-.14.49-.14.36 0 .78.3.43.29 1.01.65.58.37 1.35.66.78.3 1.86.3 1.67 0 2.59-.79.91-.79.91-2.27 0-.82-.41-1.35-.42-.52-1.1-.87-.68-.36-1.55-.61-.87-.24-1.77-.53t-1.77-.7q-.87-.4-1.55-1.06-.68-.65-1.1-1.63-.41-.98-.41-2.41 0-1.15.46-2.23.46-1.09 1.33-1.93t2.14-1.35q1.28-.51 2.93-.51 1.86 0 3.42.58 1.57.58 2.67 1.62"/></svg>