<svg xmlns="http://www.w3.org/2000/svg" width="100" height="100" viewBox="0 0 100 100"><rect width="100%" height="100%" fill="#dc2626"/><path fill="#ffffff" d="M23.18 49.61h1.84q.84 0 1.46-.21t1.02-.57q.41-.37.6-.88.2-.5.2-1.11 0-1.21-.8-1.86-.79-.65-2.43-.65h-1.89zm5.47 2.47 3.99 5.87h-2.68q-.76 0-1.1-.59l-3.34-5.1q-.19-.28-.41-.4-.23-.12-.67-.12h-1.26v6.21h-2.96V42.04h4.85q1.61 0 2.77.34 1.17.34 1.91.94.74.61 1.09 1.45t.35 1.85q0 .8-.23 1.52-.24.71-.68 1.3-.45.58-1.1 1.02-.66.44-1.49.69.28.17.52.39.25.23.44.54m8.67-2.47h1.85q.84 0 1.46-.21t1.02-.57q.4-.37.6-.88.2-.5.2-1.11 0-1.21-.8-1.86t-2.44-.65h-1.89zm5.48 2.47 3.98 5.87h-2.67q-.76 0-1.1-.59l-3.35-5.1q-.18-.28-.41-.4-.22-.12-.66-.12h-1.27v6.21h-2.96V42.04h4.85q1.62 0 2.78.34t1.9.94q.75.61 1.1 1.45t.35 1.85q0 .8-.24 1.52-.23.71-.68 1.3-.44.58-1.1 1.02-.65.44-1.49.69.29.17.53.39.24.23.44.54M63.68 50q0 1.75-.58 3.24t-1.63 2.58q-1.06 1.09-2.54 1.7-1.49.61-3.3.61t-3.29-.61q-1.49-.61-2.55-1.7t-1.64-2.58q-.59-1.49-.59-3.24t.59-3.24q.58-1.49 1.64-2.58t2.55-1.7q1.48-.61 3.29-.61 1.21 0 2.27.28 1.07.28 1.96.79t1.6 1.24q.71.74 1.21 1.64.49.9.75 1.96.26 1.05.26 2.22m-3.03 0q0-1.31-.35-2.35t-1-1.77q-.65-.72-1.58-1.11-.93-.38-2.09-.38-1.17 0-2.1.38-.93.39-1.58 1.11-.66.73-1.01 1.77T50.59 50t.35 2.35 1.01 1.76q.65.72 1.58 1.1.93.39 2.1.39 1.16 0 2.09-.39.93-.38 1.58-1.1t1-1.76.35-2.35m8.59-7.96v6.67h.7q.41 0 .69-.12.27-.11.47-.36l4.39-5.56q.28-.35.58-.49t.76-.14h2.56l-5.36 6.62q-.47.6-.98.85.36.14.65.37.3.24.56.62l5.52 7.45h-2.61q-.52 0-.78-.15t-.44-.43l-4.5-5.88q-.2-.29-.48-.42-.27-.12-.79-.12h-.94v7h-2.96V42.04z"/></svg>