<svg xmlns="http://www.w3.org/2000/svg" width="100" height="100" viewBox="0 0 100 100"><rect width="100%" height="100%" fill="#dc2626"/><path fill="#ffffff" d="M33.64 41.685v2.54h-5.01v14.09h-3.09v-14.09h-5.02v-2.54zm5.28 14.21h3.13q.86 0 1.45-.2.59-.21.94-.55.35-.35.5-.81.16-.46.16-.98 0-.54-.17-.97-.18-.43-.55-.73-.36-.31-.94-.47t-1.4-.16h-3.12zm2.64-11.82h-2.64v4.81h2.46q1.59 0 2.4-.57.81-.58.81-1.83 0-1.3-.73-1.86-.74-.55-2.3-.55m-5.73-2.39h5.73q1.63 0 2.79.31t1.9.89q.75.57 1.09 1.39.35.82.35 1.84 0 .58-.18 1.12-.17.53-.53 1t-.92.85q-.56.37-1.33.64 3.43.77 3.43 3.7 0 1.06-.41 1.96-.4.89-1.17 1.54t-1.9 1.02q-1.12.37-2.57.37h-6.28zm31 8.32q0 1.82-.6 3.38t-1.71 2.7q-1.1 1.14-2.66 1.78-1.55.63-3.45.63-1.88 0-3.43-.63-1.56-.64-2.67-1.78t-1.72-2.7q-.6-1.56-.6-3.38 0-1.83.6-3.39.61-1.56 1.72-2.7t2.67-1.77q1.55-.64 3.43-.64 1.27 0 2.39.29 1.11.29 2.04.83.93.53 1.68 1.3.74.76 1.26 1.71.51.94.78 2.04.27 1.11.27 2.33m-3.16 0q0-1.37-.37-2.46t-1.04-1.85q-.68-.75-1.65-1.16-.98-.4-2.2-.4-1.21 0-2.19.4-.97.41-1.65 1.16-.69.76-1.05 1.85-.37 1.09-.37 2.46 0 1.36.37 2.45.36 1.09 1.05 1.84.68.75 1.65 1.16.98.4 2.19.4 1.22 0 2.2-.4.97-.41 1.65-1.16.67-.75 1.04-1.84t.37-2.45m15.51-6.75-.77 1.46q-.13.24-.29.35t-.39.11q-.24 0-.52-.18t-.67-.4-.92-.4q-.52-.17-1.23-.17-.65 0-1.13.15-.48.16-.81.43-.33.28-.49.66-.16.39-.16.85 0 .58.33.98.33.39.87.66.54.28 1.23.5t1.41.46q.73.25 1.42.58t1.23.83.87 1.22q.32.73.32 1.76 0 1.13-.38 2.11-.39.98-1.13 1.71t-1.81 1.15-2.45.42q-.79 0-1.56-.15-.77-.16-1.48-.44-.71-.29-1.33-.69-.62-.41-1.1-.9l.9-1.48q.12-.17.3-.27.19-.11.39-.11.29 0 .63.23.33.24.79.53.46.28 1.07.52.62.23 1.48.23 1.32 0 2.05-.62.72-.63.72-1.8 0-.66-.32-1.07-.33-.42-.87-.7t-1.23-.47q-.69-.2-1.41-.43-.71-.23-1.4-.55t-1.23-.84-.87-1.3q-.33-.77-.33-1.91 0-.91.37-1.77.36-.86 1.05-1.53t1.7-1.07 2.32-.4q1.48 0 2.72.46t2.11 1.29"/></svg>