<svg xmlns="http://www.w3.org/2000/svg" width="100" height="100" viewBox="0 0 100 100"><rect width="100%" height="100%" fill="#dc2626"/><path fill="#ffffff" d="M34.79 40.6v2.87h-5.67V59.4h-3.49V43.47h-5.67V40.6zm15.76 0h2.82l-7.59 18.8h-3.16l-7.6-18.8h2.81q.46 0 .74.22.29.22.43.57l4.44 11.47q.22.56.42 1.23t.38 1.4q.16-.73.34-1.4t.4-1.23l4.41-11.47q.1-.29.41-.54.3-.25.75-.25m8.26 15.91h7.52v2.89H55.32V40.6h3.49zm20.9-14.14-.88 1.65q-.15.27-.33.4-.17.12-.43.12-.28 0-.59-.2-.32-.2-.76-.45-.45-.25-1.04-.45t-1.4-.2q-.72 0-1.27.18-.55.17-.92.48-.37.32-.55.75-.18.44-.18.96 0 .66.37 1.1t.98.76q.61.31 1.39.55.78.25 1.6.53t1.6.65 1.39.94q.61.56.98 1.38t.37 1.99q0 1.27-.43 2.39-.44 1.11-1.28 1.93-.83.83-2.04 1.3-1.21.48-2.77.48-.9 0-1.77-.18-.87-.17-1.67-.5-.8-.32-1.5-.78-.7-.45-1.25-1.01l1.03-1.68q.13-.18.33-.3.21-.13.45-.13.32 0 .7.27.38.26.9.59.52.32 1.21.59.7.27 1.67.27 1.5 0 2.32-.71.81-.71.81-2.04 0-.74-.37-1.2-.37-.47-.98-.79t-1.39-.54-1.58-.48q-.81-.26-1.59-.63-.78-.36-1.39-.94-.61-.59-.98-1.47-.37-.87-.37-2.16 0-1.03.41-2 .41-.98 1.19-1.73.78-.76 1.92-1.21 1.14-.46 2.63-.46 1.66 0 3.06.52 1.41.52 2.4 1.46"/></svg>