<svg xmlns="http://www.w3.org/2000/svg" width="100" height="100" viewBox="0 0 100 100"><rect width="100%" height="100%" fill="#dc2626"/><path fill="#ffffff" d="M40.175 37.345v3.87h-7.63v21.44h-4.71v-21.44h-7.63v-3.87zm20.75 0v1.74q0 .8-.45 1.47l-12.99 18.34h13.14v3.76h-19.25v-1.86q0-.35.13-.67.12-.32.31-.6l13.02-18.43h-12.63v-3.75zm18.41 2.38-1.17 2.23q-.21.36-.45.53-.23.17-.58.17-.37 0-.8-.27-.43-.28-1.02-.61-.6-.33-1.39-.6-.8-.27-1.89-.27-.98 0-1.71.23-.74.24-1.23.66-.5.42-.75 1.01-.24.58-.24 1.28 0 .89.5 1.49.5.59 1.32 1.01t1.87.76q1.05.33 2.15.71 1.11.37 2.16.87 1.04.5 1.87 1.26.82.76 1.32 1.86.5 1.11.5 2.68 0 1.72-.59 3.21-.58 1.5-1.71 2.61t-2.76 1.75-3.73.64q-1.2 0-2.38-.24-1.17-.23-2.25-.67-1.07-.44-2.02-1.05-.94-.61-1.68-1.37l1.38-2.25q.18-.25.46-.41.28-.17.59-.17.44 0 .95.36t1.21.79q.7.44 1.63.8.94.36 2.25.36 2.02 0 3.12-.95 1.1-.96 1.1-2.74 0-1-.5-1.63t-1.32-1.06-1.87-.73q-1.05-.29-2.14-.64-1.08-.35-2.13-.84t-1.88-1.28q-.82-.79-1.32-1.97t-.5-2.91q0-1.39.56-2.7.55-1.31 1.6-2.33 1.05-1.01 2.59-1.62 1.54-.62 3.53-.62 2.24 0 4.13.7t3.22 1.96"/></svg>