<svg xmlns="http://www.w3.org/2000/svg" width="100" height="100" viewBox="0 0 100 100"><rect width="100%" height="100%" fill="#dc2626"/><path fill="#ffffff" d="M25.44 57.955h4.22q1.16 0 1.95-.28t1.27-.75q.47-.46.68-1.08t.21-1.32q0-.73-.23-1.31-.24-.58-.73-.99-.5-.41-1.28-.63t-1.88-.22h-4.21zm3.55-15.94h-3.55v6.48h3.32q2.14 0 3.23-.77 1.1-.78 1.1-2.47 0-1.75-1-2.5-.99-.74-3.1-.74m-7.71-3.22h7.71q2.21 0 3.77.42 1.57.41 2.57 1.19 1 .77 1.46 1.87.47 1.11.47 2.48 0 .8-.24 1.52-.23.72-.72 1.34-.49.63-1.24 1.14t-1.79.87q4.62 1.04 4.62 4.99 0 1.43-.54 2.64t-1.58 2.08q-1.04.88-2.56 1.37-1.52.5-3.47.5h-8.46zm24.58 19.16h4.21q1.17 0 1.96-.28t1.26-.75q.47-.46.68-1.08t.21-1.32q0-.73-.23-1.31t-.73-.99-1.28-.63-1.88-.22h-4.2zm3.55-15.94h-3.55v6.48h3.32q2.13 0 3.23-.77 1.09-.78 1.09-2.47 0-1.75-.99-2.5-.99-.74-3.1-.74m-7.72-3.22h7.72q2.2 0 3.76.42 1.57.41 2.57 1.19 1 .77 1.46 1.87.47 1.11.47 2.48 0 .8-.23 1.52-.24.72-.72 1.34-.49.63-1.24 1.14-.76.51-1.79.87 4.61 1.04 4.61 4.99 0 1.43-.54 2.64t-1.58 2.08q-1.04.88-2.56 1.37-1.52.5-3.47.5h-8.46zm24.58 19.16h4.22q1.16 0 1.95-.28t1.26-.75q.48-.46.69-1.08t.21-1.32q0-.73-.24-1.31-.23-.58-.73-.99-.49-.41-1.27-.63-.79-.22-1.89-.22h-4.2zm3.55-15.94h-3.55v6.48h3.32q2.14 0 3.23-.77 1.09-.78 1.09-2.47 0-1.75-.99-2.5-.99-.74-3.1-.74m-7.72-3.22h7.72q2.2 0 3.77.42 1.56.41 2.56 1.19 1 .77 1.47 1.87.46 1.11.46 2.48 0 .8-.23 1.52t-.72 1.34q-.49.63-1.24 1.14t-1.79.87q4.62 1.04 4.62 4.99 0 1.43-.54 2.64-.55 1.21-1.59 2.08-1.03.88-2.55 1.37-1.52.5-3.47.5H62.1z"/></svg>