<svg xmlns="http://www.w3.org/2000/svg" width="100" height="100" viewBox="0 0 100 100"><rect width="100%" height="100%" fill="#dc2626"/><path fill="#ffffff" d="M23.38 55.13h2.72q.75 0 1.26-.18.5-.18.81-.48.3-.3.44-.7t.14-.85q0-.47-.15-.85-.15-.37-.47-.63-.32-.27-.83-.41t-1.22-.14h-2.7zm2.29-10.28h-2.29v4.18h2.14q1.38 0 2.08-.5.71-.5.71-1.59 0-1.13-.64-1.61-.65-.48-2-.48m-4.99-2.08h4.99q1.41 0 2.43.27 1.01.27 1.65.77.65.5.95 1.21t.3 1.6q0 .51-.15.98-.15.46-.47.86-.31.41-.8.74-.48.33-1.15.56 2.97.67 2.97 3.22 0 .92-.34 1.7-.35.78-1.02 1.34-.68.57-1.65.89-.99.32-2.24.32h-5.47zm23.11 11.05q.22 0 .39.17l1.06 1.15q-.88 1.09-2.17 1.67-1.28.58-3.08.58-1.61 0-2.9-.55-1.28-.55-2.19-1.53t-1.4-2.34q-.48-1.36-.48-2.97 0-1.63.52-2.98.52-1.36 1.46-2.34.95-.98 2.26-1.53 1.31-.54 2.9-.54 1.58 0 2.8.52 1.23.52 2.09 1.36l-.9 1.25q-.08.12-.21.21-.12.09-.34.09-.15 0-.31-.09-.16-.08-.35-.2-.19-.13-.44-.28t-.58-.28q-.33-.12-.77-.21-.43-.08-1-.08-.97 0-1.78.35-.8.34-1.38 1-.58.65-.9 1.6-.32.94-.32 2.15 0 1.22.34 2.17.35.95.94 1.6t1.39 1q.8.34 1.72.34.55 0 .99-.06.45-.06.82-.19.38-.13.71-.34.34-.2.67-.5.1-.09.21-.14.11-.06.23-.06m13.4-11.05v2.21h-4.36v12.25h-2.69V44.98h-4.36v-2.21zm6.39 12.16h3.71q.4 0 .63.22.24.23.24.6v1.48h-9.92v-.82q0-.25.1-.52.11-.28.34-.5l4.39-4.4q.55-.56.98-1.07.44-.51.73-1.01t.44-1.02q.16-.51.16-1.08 0-.52-.15-.92-.15-.39-.43-.66-.27-.27-.66-.41-.38-.13-.86-.13-.44 0-.82.12-.37.13-.66.36-.29.22-.49.52t-.3.66q-.17.46-.44.61t-.78.07l-1.3-.23q.15-1.04.58-1.83.43-.78 1.07-1.3.65-.53 1.48-.8.84-.26 1.8-.26 1 0 1.83.29.83.3 1.42.84t.92 1.3.33 1.69q0 .8-.24 1.48-.23.68-.63 1.3-.39.62-.92 1.2t-1.11 1.18l-3.26 3.33q.47-.14.93-.22.47-.07.89-.07m15.48-10.8-.67 1.27q-.13.21-.26.3-.13.1-.34.1t-.45-.16q-.24-.15-.58-.34t-.8-.35q-.45-.15-1.07-.15-.56 0-.99.14-.41.13-.7.37-.28.24-.43.57-.14.34-.14.74 0 .51.29.85.28.34.76.58.47.24 1.07.43t1.22.4q.64.22 1.24.51.6.28 1.07.71.47.44.75 1.07.29.63.29 1.53 0 .98-.34 1.84-.33.85-.98 1.48-.64.64-1.57 1-.93.37-2.14.37-.68 0-1.35-.13-.67-.14-1.29-.39-.61-.25-1.15-.6-.55-.35-.96-.78l.79-1.29q.1-.14.26-.24.16-.09.34-.09.25 0 .54.2.29.21.68.46.41.25.94.45.54.21 1.29.21 1.14 0 1.77-.54.64-.55.64-1.57 0-.57-.29-.93-.28-.36-.75-.61-.48-.24-1.07-.41-.6-.17-1.23-.37-.61-.2-1.21-.48-.61-.28-1.07-.73-.47-.45-.76-1.12-.28-.68-.28-1.67 0-.79.31-1.54.32-.75.92-1.33.59-.58 1.48-.93.88-.35 2.02-.35 1.28 0 2.36.4 1.07.4 1.84 1.12"/></svg>