<svg xmlns="http://www.w3.org/2000/svg" width="100" height="100" viewBox="0 0 100 100"><rect width="100%" height="100%" fill="#dc2626"/><path fill="#ffffff" d="M23.605 56.155h3.26q.9 0 1.52-.22.61-.21.97-.57.37-.36.53-.84t.16-1.02q0-.57-.18-1.02t-.56-.76q-.38-.32-.99-.49t-1.46-.17h-3.25zm2.75-12.34h-2.75v5.02h2.57q1.65 0 2.5-.6t.85-1.91q0-1.35-.77-1.93t-2.4-.58m-5.98-2.49h5.98q1.7 0 2.91.32 1.22.33 1.99.93t1.13 1.45.36 1.92q0 .61-.18 1.17t-.55 1.04q-.38.49-.96.88-.59.4-1.39.68 3.58.8 3.58 3.86 0 1.1-.42 2.04t-1.23 1.61q-.8.68-1.98 1.07-1.17.38-2.69.38h-6.55zm32.35 8.67q0 1.91-.63 3.54-.63 1.62-1.78 2.81t-2.77 1.86q-1.62.66-3.6.66-1.97 0-3.59-.66-1.62-.67-2.78-1.86-1.15-1.19-1.79-2.81-.64-1.63-.64-3.54 0-1.9.64-3.53t1.79-2.81q1.16-1.19 2.78-1.86 1.62-.66 3.59-.66 1.32 0 2.48.3 1.17.31 2.14.87.97.55 1.75 1.35.77.8 1.31 1.78.54.99.82 2.14t.28 2.42m-3.3 0q0-1.42-.38-2.56-.38-1.13-1.09-1.92-.71-.8-1.72-1.22-1.02-.42-2.29-.42t-2.29.42q-1.01.42-1.72 1.22-.72.79-1.1 1.92-.39 1.14-.39 2.56 0 1.43.39 2.57.38 1.13 1.1 1.92.71.78 1.72 1.2 1.02.42 2.29.42t2.29-.42q1.01-.42 1.72-1.2.71-.79 1.09-1.92.38-1.14.38-2.57m16.19-7.04-.8 1.52q-.15.26-.31.37t-.4.11q-.25 0-.55-.18-.29-.19-.7-.42-.41-.22-.95-.41-.55-.19-1.29-.19-.67 0-1.18.17-.5.16-.84.45-.35.28-.51.69-.17.4-.17.88 0 .61.34 1.02t.91.69q.56.29 1.28.52t1.48.49q.75.25 1.47.6.72.34 1.29.86.56.52.9 1.28.34.75.34 1.83 0 1.18-.4 2.21-.4 1.02-1.17 1.78-.78.77-1.89 1.2-1.12.44-2.56.44-.83 0-1.63-.16-.81-.16-1.54-.46-.74-.3-1.39-.72t-1.15-.94l.95-1.55q.12-.16.31-.28.19-.11.41-.11.3 0 .64.24.35.25.83.55t1.12.55q.65.24 1.55.24 1.38 0 2.13-.65.76-.66.76-1.88 0-.68-.34-1.12-.35-.43-.91-.72-.56-.3-1.28-.5t-1.47-.44q-.74-.24-1.46-.58t-1.29-.88q-.56-.54-.9-1.35t-.34-1.99q0-.95.37-1.85.38-.9 1.1-1.6.72-.69 1.78-1.11 1.05-.42 2.42-.42 1.54 0 2.83.48 1.3.48 2.21 1.34m8.51 12.96h4.45q.48 0 .76.27.29.27.29.71v1.78h-11.91v-.98q0-.3.13-.63.12-.33.4-.6l5.27-5.28q.66-.67 1.18-1.28t.87-1.21.53-1.22q.19-.62.19-1.3 0-.63-.18-1.1-.18-.48-.51-.8t-.79-.49q-.46-.16-1.04-.16-.53 0-.98.15t-.8.42q-.34.27-.58.63t-.36.79q-.21.56-.53.74-.33.18-.94.08l-1.56-.28q.18-1.24.7-2.19.51-.94 1.29-1.57.77-.63 1.77-.95 1.01-.31 2.16-.31 1.2 0 2.19.35 1 .35 1.71 1t1.1 1.56q.4.91.4 2.03 0 .96-.28 1.78-.29.81-.76 1.56-.47.74-1.11 1.44-.64.69-1.33 1.41l-3.91 4q.56-.17 1.12-.26t1.06-.09"/></svg>