<svg xmlns="http://www.w3.org/2000/svg" width="100" height="100" viewBox="0 0 100 100"><rect width="100%" height="100%" fill="#dc2626"/><path fill="#ffffff" d="M25.66 37.71v10.3h1.07q.65 0 1.07-.18.43-.18.73-.57l6.79-8.58q.42-.55.89-.76t1.18-.21h3.95l-8.28 10.21q-.73.94-1.52 1.33.56.2 1.02.57.45.37.85.96l8.54 11.51h-4.03q-.82 0-1.22-.23t-.67-.67l-6.95-9.08q-.32-.46-.75-.65-.42-.18-1.22-.18h-1.45v10.81h-4.57V37.71zm32.97 2.31-1.14 2.16q-.21.36-.44.52t-.57.16q-.35 0-.77-.26-.42-.27-.99-.59-.58-.32-1.36-.59-.77-.26-1.82-.26-.96 0-1.67.23t-1.2.64q-.48.4-.72.97t-.24 1.25q0 .87.49 1.45.48.58 1.28.98.8.41 1.82.73 1.02.33 2.09.69 1.07.37 2.09.85 1.02.49 1.82 1.23t1.28 1.81q.49 1.07.49 2.6 0 1.66-.57 3.12-.57 1.45-1.67 2.53-1.09 1.08-2.68 1.7-1.58.62-3.62.62-1.17 0-2.31-.23t-2.18-.65q-1.05-.43-1.97-1.02-.91-.6-1.63-1.33l1.34-2.19q.17-.24.45-.4.27-.16.57-.16.43 0 .92.35.5.34 1.18.77.68.42 1.58.77.91.35 2.19.35 1.95 0 3.03-.92 1.07-.93 1.07-2.67 0-.96-.49-1.58-.48-.61-1.28-1.02-.8-.42-1.82-.71t-2.07-.63q-1.06-.34-2.08-.82-1.02-.47-1.82-1.24-.8-.76-1.28-1.91-.49-1.15-.49-2.83 0-1.34.54-2.62.54-1.27 1.56-2.26 1.02-.98 2.51-1.58 1.5-.59 3.44-.59 2.17 0 4.01.68 1.83.68 3.13 1.9m17.85-2.31-7.3 8.92-.85 1.06q.72-.36 1.54-.56.83-.19 1.78-.19 1.39 0 2.71.46t2.32 1.38q1 .93 1.61 2.31.62 1.37.62 3.21 0 1.72-.63 3.22-.63 1.51-1.77 2.63t-2.75 1.77q-1.6.64-3.54.64-1.97 0-3.54-.63-1.56-.63-2.67-1.76-1.1-1.13-1.69-2.72-.58-1.59-.58-3.52 0-1.74.7-3.57.71-1.82 2.19-3.8l5.86-7.87q.31-.4.89-.69.59-.29 1.36-.29zm-6.35 21.42q1.01 0 1.85-.34t1.44-.95q.61-.62.95-1.44.34-.83.34-1.79 0-1.06-.33-1.9-.32-.84-.91-1.43-.6-.58-1.43-.89t-1.84-.31q-1 0-1.82.34-.81.34-1.39.95-.58.6-.9 1.43-.32.82-.32 1.77 0 1.02.28 1.86t.83 1.44q.55.59 1.37.93.81.33 1.88.33"/></svg>