<svg xmlns="http://www.w3.org/2000/svg" width="100" height="100" viewBox="0 0 100 100"><rect width="100%" height="100%" fill="#dc2626"/><path fill="#ffffff" d="M23.885 50.045h2.51q.93 0 1.62-.23.68-.23 1.14-.66t.68-1.05q.23-.62.23-1.38 0-.73-.23-1.32-.22-.58-.67-1-.45-.41-1.14-.63t-1.63-.22h-2.51zm-3.36-9.08h5.87q1.82 0 3.14.42 1.33.42 2.19 1.19.86.76 1.28 1.82t.42 2.33q0 1.31-.44 2.4-.44 1.1-1.31 1.88-.88.79-2.19 1.23-1.32.44-3.09.44h-2.51v6.36h-3.36zm18.84 15.29h7.22v2.78h-10.59v-18.07h3.37zm22.25-15.29v2.76h-5.45v15.31h-3.36v-15.31h-5.45v-2.76zm6.17 11.24h5.75l-2.2-6.01q-.16-.4-.33-.95-.18-.55-.35-1.19-.17.64-.34 1.2-.18.55-.34.97zm4.59-11.24 7.1 18.07h-2.6q-.44 0-.71-.22-.28-.22-.41-.54l-1.35-3.69h-7.49l-1.35 3.69q-.1.28-.39.52t-.71.24h-2.63l7.12-18.07z"/></svg>