<svg xmlns="http://www.w3.org/2000/svg" width="100" height="100" viewBox="0 0 100 100"><rect width="100%" height="100%" fill="#dc2626"/><path fill="#ffffff" d="M22.465 51.6h4.14l-1.59-4.33q-.11-.29-.24-.69-.12-.39-.25-.85-.12.46-.24.86-.13.4-.25.69zm3.3-8.1 5.11 13.01h-1.87q-.31 0-.51-.16t-.3-.39l-.97-2.65h-5.39l-.97 2.65q-.08.21-.28.38-.21.17-.52.17h-1.89l5.13-13.01zm12.87 6.48h4.32v5.27q-.99.73-2.11 1.07-1.12.33-2.4.33-1.59 0-2.88-.49-1.29-.5-2.21-1.38-.91-.88-1.41-2.1-.49-1.23-.49-2.68 0-1.46.48-2.69.47-1.22 1.35-2.1.88-.89 2.13-1.37 1.25-.49 2.81-.49.79 0 1.48.13.69.12 1.28.34t1.07.54q.49.31.89.69l-.69 1.1q-.16.26-.42.32t-.57-.13q-.3-.17-.59-.34-.3-.17-.67-.3-.36-.13-.82-.21-.45-.08-1.04-.08-.97 0-1.75.33-.77.32-1.32.92-.55.61-.85 1.45-.3.85-.3 1.89 0 1.12.32 2 .32.87.9 1.48t1.4.93 1.83.32q.72 0 1.29-.16.56-.15 1.1-.41V51.8h-1.63q-.24 0-.37-.13t-.13-.32zm15.5-6.48h2.13v13.01h-1.24q-.29 0-.48-.09-.19-.1-.37-.32l-6.8-8.68q.05.59.05 1.1v7.99h-2.13V43.5h1.27q.15 0 .27.01.11.01.19.05.09.04.17.12t.18.2l6.82 8.71-.04-.62q-.02-.3-.02-.56zm14.23 0h1.95l-5.25 13.01h-2.19l-5.26-13.01h1.95q.31 0 .51.15t.3.39l3.07 7.94q.15.39.29.85.14.47.26.97.11-.5.24-.97.12-.46.28-.85l3.05-7.94q.07-.2.28-.37t.52-.17m5.72 6.19h1.51q.69 0 1.2-.17t.83-.48q.33-.3.49-.71.17-.42.17-.91 0-.99-.66-1.52-.65-.53-1.99-.53h-1.55zm4.48 2.01 3.26 4.81h-2.18q-.63 0-.9-.49l-2.74-4.16q-.15-.24-.34-.34-.18-.1-.54-.1h-1.04v5.09h-2.42V43.5h3.97q1.32 0 2.27.27t1.56.77q.61.49.9 1.18.28.69.28 1.52 0 .66-.19 1.24-.19.59-.56 1.06-.36.48-.9.84-.53.36-1.22.57.24.13.43.32.2.18.36.43"/></svg>