<svg xmlns="http://www.w3.org/2000/svg" width="100" height="100" viewBox="0 0 100 100"><rect width="100%" height="100%" fill="#dc2626"/><path fill="#ffffff" d="M29.57 53.44q.2 0 .35.15l.96 1.04q-.79.98-1.95 1.5t-2.78.52q-1.45 0-2.6-.49-1.16-.5-1.98-1.38t-1.25-2.1q-.44-1.23-.44-2.68 0-1.46.47-2.68t1.32-2.11q.85-.88 2.03-1.37 1.17-.49 2.61-.49 1.42 0 2.52.47t1.88 1.22l-.81 1.13q-.08.11-.19.19t-.31.08q-.13 0-.28-.08-.14-.07-.31-.19-.17-.11-.4-.24-.22-.14-.52-.25t-.69-.19-.9-.08q-.88 0-1.6.31-.73.31-1.25.9t-.81 1.44-.29 1.94q0 1.1.32 1.96.31.85.84 1.44.53.58 1.25.89t1.55.31q.49 0 .89-.05.4-.06.74-.17.34-.12.64-.3.3-.19.6-.46.09-.08.19-.13.09-.05.2-.05m12.17-9.94h1.95l-5.25 13.01h-2.19L30.99 43.5h1.95q.31 0 .51.15t.3.39l3.07 7.94q.15.39.29.85.14.47.27.97.1-.5.23-.97.13-.46.28-.85l3.05-7.94q.07-.2.28-.37t.52-.17M56.6 50q0 1.43-.48 2.63-.47 1.2-1.34 2.06-.86.87-2.08 1.34-1.21.48-2.7.48h-4.96V43.5H50q1.49 0 2.7.48 1.22.48 2.08 1.34.87.86 1.34 2.05.48 1.2.48 2.63m-2.48 0q0-1.07-.29-1.92-.28-.85-.82-1.44-.53-.59-1.29-.9-.76-.32-1.72-.32h-2.53v9.16H50q.96 0 1.72-.31.76-.32 1.29-.91.54-.59.82-1.44.29-.85.29-1.92m7.03.04h1.81q.67 0 1.16-.17.5-.16.83-.47.33-.32.49-.76.16-.45.16-1 0-.52-.16-.94t-.49-.72q-.32-.3-.82-.45-.49-.16-1.17-.16h-1.81zm-2.42-6.54h4.23q1.31 0 2.26.3.96.31 1.58.86t.92 1.31q.3.77.3 1.67 0 .95-.31 1.74-.32.78-.95 1.35t-1.58.88q-.95.32-2.22.32h-1.81v4.58h-2.42zm20.08 9.94q.2 0 .35.15l.96 1.04q-.79.98-1.95 1.5t-2.78.52q-1.45 0-2.6-.49-1.16-.5-1.98-1.38t-1.25-2.1q-.44-1.23-.44-2.68 0-1.46.47-2.68t1.32-2.11q.85-.88 2.03-1.37 1.17-.49 2.61-.49 1.42 0 2.52.47t1.88 1.22l-.81 1.13q-.08.11-.19.19t-.31.08q-.13 0-.28-.08-.14-.07-.31-.19-.17-.11-.4-.24-.22-.14-.52-.25t-.69-.19-.9-.08q-.88 0-1.6.31-.73.31-1.25.9t-.81 1.44-.29 1.94q0 1.1.31 1.96.32.85.85 1.44.53.58 1.25.89t1.55.31q.49 0 .89-.05.4-.06.74-.17.34-.12.64-.3.3-.19.6-.46.09-.08.19-.13.09-.05.2-.05"/></svg>