<svg xmlns="http://www.w3.org/2000/svg" width="100" height="100" viewBox="0 0 100 100"><rect width="100%" height="100%" fill="#dc2626"/><path fill="#ffffff" d="M25.9 37.71v10.3h1.07q.65 0 1.07-.18.43-.18.73-.57l6.79-8.58q.42-.55.89-.76t1.18-.21h3.95L33.3 47.92q-.73.94-1.52 1.33.56.2 1.02.57.45.37.85.96l8.54 11.51h-4.03q-.82 0-1.22-.23t-.67-.67l-6.95-9.08q-.32-.46-.75-.65-.42-.18-1.22-.18H25.9v10.81h-4.57V37.71zm32.97 2.31-1.14 2.16q-.21.36-.44.52t-.57.16q-.35 0-.77-.26-.42-.27-.99-.59-.58-.32-1.36-.59-.77-.26-1.82-.26-.96 0-1.67.23t-1.2.64q-.48.4-.72.97t-.24 1.25q0 .87.49 1.45.48.58 1.28.98.8.41 1.82.73 1.02.33 2.09.69 1.07.37 2.09.85 1.02.49 1.82 1.23t1.28 1.81q.49 1.07.49 2.6 0 1.66-.57 3.12-.57 1.45-1.67 2.53-1.09 1.08-2.68 1.7-1.58.62-3.62.62-1.17 0-2.31-.23t-2.18-.65q-1.05-.43-1.97-1.02-.91-.6-1.63-1.33l1.34-2.19q.17-.24.45-.4.27-.16.57-.16.43 0 .92.35.5.34 1.18.77.68.42 1.58.77.91.35 2.19.35 1.95 0 3.03-.92 1.07-.93 1.07-2.67 0-.96-.49-1.58-.48-.61-1.28-1.02-.8-.42-1.82-.71t-2.07-.63q-1.06-.34-2.08-.82-1.02-.47-1.82-1.24-.8-.76-1.28-1.91-.49-1.15-.49-2.83 0-1.34.54-2.62.54-1.27 1.56-2.26 1.02-.98 2.51-1.58 1.5-.59 3.44-.59 2.17 0 4.01.68 1.83.68 3.13 1.9m5.72 4.93-2.21-.39q.26-1.77.99-3.1.73-1.34 1.83-2.23 1.09-.89 2.51-1.34t3.06-.45q1.7 0 3.06.48 1.37.48 2.34 1.34t1.49 2.02q.52 1.15.52 2.5 0 1.17-.27 2.06-.26.89-.75 1.56-.5.66-1.23 1.12t-1.65.76q2.21.7 3.3 2.13T78.67 55q0 1.83-.68 3.24t-1.84 2.38q-1.15.96-2.67 1.45t-3.22.49q-1.86 0-3.23-.42-1.38-.43-2.4-1.26t-1.74-2.04q-.71-1.21-1.22-2.79l1.85-.76q.73-.31 1.37-.17.64.15.93.69.3.6.67 1.18.37.57.88 1.02t1.19.74q.69.28 1.64.28 1.08 0 1.87-.35.8-.35 1.34-.91.53-.56.8-1.25.26-.69.26-1.39 0-.88-.19-1.6-.18-.73-.78-1.24-.59-.51-1.71-.79-1.11-.29-2.98-.29v-3q1.55-.01 2.57-.29 1.02-.27 1.62-.75.6-.49.84-1.17t.24-1.49q0-1.74-.97-2.64t-2.58-.9q-.75 0-1.38.21-.63.22-1.13.6t-.84.89-.51 1.12q-.29.79-.76 1.04-.47.26-1.32.12"/></svg>