<svg xmlns="http://www.w3.org/2000/svg" width="100" height="100" viewBox="0 0 100 100"><rect width="100%" height="100%" fill="#dc2626"/><path fill="#ffffff" d="M25.11 52.035h5.29l-2.03-5.53q-.15-.37-.31-.87-.16-.51-.32-1.1-.15.59-.31 1.1t-.31.89zm4.22-10.35 6.53 16.63h-2.39q-.4 0-.66-.2-.25-.2-.38-.5l-1.24-3.39H24.3l-1.24 3.39q-.09.26-.36.48-.26.22-.65.22h-2.42l6.55-16.63zm11.35 7.91h1.93q.87 0 1.52-.22.65-.21 1.07-.6.42-.38.63-.91t.21-1.17q0-1.26-.84-1.94-.83-.68-2.54-.68h-1.98zm5.73 2.58 4.16 6.14h-2.8q-.79 0-1.15-.62l-3.49-5.33q-.2-.29-.43-.42-.24-.13-.7-.13h-1.32v6.5h-3.09v-16.63h5.07q1.69 0 2.9.35t1.99.99q.78.63 1.14 1.51.37.88.37 1.93 0 .84-.24 1.59-.25.75-.72 1.36-.46.61-1.15 1.07-.68.46-1.56.72.3.18.56.41.25.24.46.56m16.45-8.03h-7.38v4.61h5.82v2.38h-5.82v4.71h7.38v2.47H52.37v-16.63h10.49zm17.51 5.86q0 1.82-.61 3.35t-1.72 2.64q-1.1 1.1-2.65 1.71-1.56.61-3.45.61H65.6v-16.63h6.34q1.89 0 3.45.62 1.55.61 2.65 1.71 1.11 1.1 1.72 2.63t.61 3.36m-3.18 0q0-1.37-.36-2.46t-1.05-1.84q-.68-.75-1.65-1.16-.97-.4-2.19-.4H68.7v11.71h3.24q1.22 0 2.19-.4.97-.41 1.65-1.16.69-.75 1.05-1.84t.36-2.45"/></svg>