<svg xmlns="http://www.w3.org/2000/svg" width="100" height="100" viewBox="0 0 100 100"><rect width="100%" height="100%" fill="#dc2626"/><path fill="#ffffff" d="M30.105 43.855v1.88h-3.71v10.41h-2.28v-10.41h-3.71v-1.88zm7.67 6.13h4.08v4.97q-.94.69-2 1.01t-2.26.32q-1.51 0-2.73-.47t-2.08-1.3q-.86-.84-1.33-1.99-.47-1.16-.47-2.53 0-1.38.45-2.54.45-1.15 1.28-1.99.83-.83 2.01-1.29t2.65-.46q.75 0 1.4.12t1.21.33 1.02.5q.45.3.84.66l-.66 1.04q-.15.24-.4.3-.24.05-.53-.13l-.56-.32q-.28-.16-.63-.28-.34-.12-.77-.19-.43-.08-.99-.08-.91 0-1.65.31-.73.3-1.25.87t-.8 1.37-.28 1.78q0 1.06.3 1.89t.85 1.4 1.32.88q.78.3 1.73.3.68 0 1.21-.15.54-.14 1.05-.39v-2.23h-1.55q-.22 0-.34-.12t-.12-.3zm10.97-6.13v7.92q0 1.04-.26 1.87-.25.83-.76 1.42-.5.59-1.26.9-.76.32-1.76.32-.46 0-.9-.06-.44-.05-.93-.17l.06-.68q.04-.34.06-.68.03-.19.15-.31.13-.11.35-.11.15 0 .38.06.24.06.59.06.49 0 .86-.14.38-.14.63-.45.25-.3.38-.79.12-.49.12-1.19v-7.97zm17.18 0h1.79l-3.82 12.29h-2.06l-2.69-8.4q-.11-.3-.2-.75-.05.22-.1.4-.05.19-.11.35l-2.71 8.4h-2.08l-3.81-12.29h1.92q.29 0 .49.14t.27.38l2.09 7.35q.07.27.13.59.07.32.14.67.06-.36.14-.67.08-.32.18-.59l2.41-7.35q.07-.2.27-.36t.49-.16h.67q.3 0 .48.14.19.15.29.38l2.4 7.35q.18.53.32 1.22.11-.68.25-1.22l2.09-7.35q.05-.22.26-.37t.5-.15m11.65 0h2.02v12.29h-1.18q-.27 0-.45-.09t-.35-.3l-6.42-8.2q.05.57.05 1.04v7.55h-2.02v-12.29h1.2q.15 0 .25.01.11.01.19.05t.16.11q.07.08.17.19l6.44 8.23-.04-.58q-.02-.29-.02-.54z"/></svg>