<svg xmlns="http://www.w3.org/2000/svg" width="100" height="100" viewBox="0 0 100 100"><rect width="100%" height="100%" fill="#dc2626"/><path fill="#ffffff" d="M27.94 49.18h3.95q1.79 0 3.12-.45 1.32-.45 2.18-1.23.86-.79 1.28-1.87.43-1.08.43-2.37 0-2.59-1.71-3.98-1.7-1.38-5.2-1.38h-4.05zm11.71 5.26 8.5 12.55h-5.71q-1.62 0-2.35-1.27l-7.14-10.88q-.4-.61-.88-.87t-1.42-.26h-2.71v13.28h-6.32V33.01h10.37q3.45 0 5.93.72 2.48.71 4.07 2.01 1.58 1.29 2.33 3.09.76 1.79.76 3.96 0 1.71-.51 3.24t-1.46 2.77q-.95 1.25-2.35 2.19t-3.18 1.48q.61.35 1.13.83.51.48.94 1.14m18.52-5.26h3.94q1.79 0 3.12-.45 1.32-.45 2.18-1.23.86-.79 1.28-1.87.43-1.08.43-2.37 0-2.59-1.71-3.98-1.7-1.38-5.2-1.38h-4.04zm11.7 5.26 8.51 12.55h-5.72q-1.62 0-2.35-1.27l-7.14-10.88q-.4-.61-.88-.87t-1.42-.26h-2.7v13.28h-6.33V33.01h10.37q3.45 0 5.93.72 2.48.71 4.07 2.01 1.58 1.29 2.33 3.09.76 1.79.76 3.96 0 1.71-.51 3.24-.5 1.53-1.46 2.77-.95 1.25-2.35 2.19-1.39.94-3.18 1.48.61.35 1.13.83t.94 1.14"/></svg>