<svg xmlns="http://www.w3.org/2000/svg" width="100" height="100" viewBox="0 0 100 100"><rect width="100%" height="100%" fill="#dc2626"/><path fill="#ffffff" d="M33.35 41.685v2.54h-5.02v14.09h-3.09v-14.09h-5.02v-2.54zm1.64 10.87v-2.37h5.96v2.37zm20.73-10.87v2.54h-5.01v14.09h-3.09v-14.09H42.6v-2.54zM61 55.765h6.65v2.55h-9.74v-16.63H61zm18.48-12.51-.77 1.46q-.14.24-.29.35-.16.11-.39.11-.24 0-.52-.18t-.67-.4-.92-.4q-.52-.17-1.23-.17-.65 0-1.13.15-.48.16-.81.43-.33.28-.49.66-.16.39-.16.85 0 .58.33.98.33.39.87.66.54.28 1.23.5t1.41.46q.73.25 1.42.58t1.23.83.86 1.22q.33.73.33 1.76 0 1.13-.38 2.11-.39.98-1.13 1.71t-1.81 1.15-2.45.42q-.79 0-1.56-.15-.78-.16-1.48-.44-.71-.29-1.33-.69-.62-.41-1.1-.9l.9-1.48q.12-.17.3-.27.19-.11.39-.11.29 0 .62.23.34.24.8.53.46.28 1.07.52.62.23 1.48.23 1.32 0 2.05-.62.72-.63.72-1.8 0-.66-.33-1.07-.32-.42-.86-.7t-1.23-.47q-.69-.2-1.41-.43-.71-.23-1.4-.55t-1.23-.84-.87-1.3q-.33-.77-.33-1.91 0-.91.37-1.77.36-.86 1.05-1.53t1.7-1.07 2.32-.4q1.48 0 2.72.46t2.11 1.29"/></svg>