<svg xmlns="http://www.w3.org/2000/svg" width="100" height="100" viewBox="0 0 100 100"><rect width="100%" height="100%" fill="#dc2626"/><path fill="#ffffff" d="M29.435 43.5v1.98h-3.92v11.03h-2.42V45.48h-3.93V43.5zm10.25 0h2.43v13.01h-2.43v-5.69h-6.11v5.69h-2.43V43.5h2.43v5.59h6.11zm11.74 6.48h4.32v5.27q-.99.73-2.11 1.07-1.12.33-2.4.33-1.59 0-2.88-.49-1.29-.5-2.21-1.38-.91-.88-1.41-2.1-.49-1.23-.49-2.68 0-1.46.48-2.69.47-1.22 1.35-2.1.88-.89 2.13-1.37 1.25-.49 2.81-.49.79 0 1.48.13.69.12 1.27.34.59.22 1.08.54.49.31.89.69l-.69 1.1q-.16.26-.42.32-.27.06-.57-.13l-.6-.34q-.29-.17-.66-.3-.36-.13-.82-.21-.45-.08-1.04-.08-.97 0-1.75.33-.77.32-1.32.92-.55.61-.85 1.45-.3.85-.3 1.89 0 1.12.32 2 .32.87.9 1.48t1.4.93 1.83.32q.72 0 1.29-.16.56-.15 1.1-.41V51.8h-1.63q-.24 0-.37-.13t-.13-.32zm19.07.02q0 1.43-.47 2.65t-1.34 2.11q-.86.89-2.08 1.39-1.21.5-2.7.5-1.47 0-2.69-.5-1.21-.5-2.08-1.39t-1.35-2.11q-.47-1.22-.47-2.65t.47-2.65q.48-1.22 1.35-2.11t2.08-1.39q1.22-.5 2.69-.5.99 0 1.87.23.87.23 1.6.65t1.31 1.02q.58.59.98 1.33.41.74.62 1.6.21.87.21 1.82m-2.47 0q0-1.07-.29-1.92t-.82-1.44q-.53-.6-1.29-.91-.76-.32-1.72-.32-.95 0-1.71.32-.76.31-1.3.91-.53.59-.82 1.44t-.29 1.92.29 1.92.82 1.44q.54.59 1.3.91.76.31 1.71.31.96 0 1.72-.31.76-.32 1.29-.91t.82-1.44.29-1.92m12.81-4.58h-5.78v3.61h4.56v1.86h-4.56v3.68h5.78v1.94h-8.21V43.5h8.21z"/></svg>