<svg xmlns="http://www.w3.org/2000/svg" width="100" height="100" viewBox="0 0 100 100"><rect width="100%" height="100%" fill="#dc2626"/><path fill="#ffffff" d="M32.08 42.41v2.32H27.5v12.86h-2.83V44.73h-4.58v-2.32zm4.83 0v15.18h-2.84V42.41zm6.58 9.45h4.83l-1.85-5.05q-.14-.34-.28-.8-.15-.46-.3-1-.13.54-.28 1-.15.47-.28.82zm3.85-9.45 5.97 15.18h-2.19q-.36 0-.6-.18-.23-.19-.34-.46l-1.14-3.1h-6.29l-1.13 3.1q-.08.24-.33.44-.24.2-.59.2h-2.21l5.98-15.18zM68.36 50q0 1.67-.55 3.06-.56 1.4-1.57 2.41t-2.42 1.56q-1.42.56-3.15.56h-5.79V42.41h5.79q1.73 0 3.15.56 1.41.56 2.42 1.56 1.01 1.01 1.57 2.4.55 1.4.55 3.07m-2.89 0q0-1.25-.34-2.24-.33-1-.95-1.68-.63-.69-1.51-1.06-.89-.37-2-.37h-2.95v10.69h2.95q1.11 0 2-.36.88-.37 1.51-1.06.62-.69.95-1.68.34-.99.34-2.24m14.17-6.17-.7 1.34q-.13.22-.27.32t-.35.1q-.22 0-.48-.16-.26-.17-.61-.37-.36-.2-.84-.36t-1.13-.16q-.59 0-1.03.14t-.74.39q-.3.26-.44.61-.15.35-.15.77 0 .53.3.89t.79.61 1.12.45q.64.2 1.3.43.66.22 1.29.52t1.12.76q.5.46.79 1.12.3.66.3 1.6 0 1.03-.35 1.93t-1.03 1.56q-.67.67-1.65 1.05-.98.39-2.24.39-.72 0-1.43-.14-.7-.15-1.34-.41-.65-.26-1.22-.63-.56-.37-1.01-.82l.83-1.35q.11-.15.28-.25.16-.1.35-.1.27 0 .57.22.31.21.73.48.42.26.98.47.56.22 1.35.22 1.2 0 1.87-.57.66-.58.66-1.65 0-.6-.3-.97-.3-.38-.79-.64-.5-.26-1.13-.44-.63-.17-1.28-.38t-1.28-.51q-.63-.29-1.12-.76-.5-.48-.8-1.19-.3-.7-.3-1.74 0-.83.33-1.62.34-.79.97-1.4t1.55-.97q.92-.37 2.12-.37 1.34 0 2.48.42 1.13.42 1.93 1.17"/></svg>