<svg xmlns="http://www.w3.org/2000/svg" width="100" height="100" viewBox="0 0 100 100"><rect width="100%" height="100%" fill="#dc2626"/><path fill="#ffffff" d="M25.99 57.515h8.67v3.33h-12.7v-21.69h4.03zm25.23-15.15h-9.63v6.42h8.13v3.23h-8.13v8.83h-4.05v-21.69h13.68zM75 39.155h3.04v21.69h-3.55v-14.01q0-.84.09-1.81l-6.56 12.31q-.46.88-1.42.88h-.57q-.96 0-1.43-.88l-6.63-12.36q.05.49.08.98.03.48.03.88v14.01h-3.56v-21.69h3.05q.27 0 .46.01.2.02.36.08.15.06.28.2.13.13.25.36l6.49 12.04q.26.48.48.99.21.51.42 1.05.21-.55.44-1.07.22-.52.48-1l6.4-12.01q.12-.23.26-.36.13-.14.29-.2t.35-.08q.2-.01.47-.01"/></svg>