<svg xmlns="http://www.w3.org/2000/svg" width="100" height="100" viewBox="0 0 100 100"><rect width="100%" height="100%" fill="#dc2626"/><path fill="#ffffff" d="M22.255 44.215v4.85h.51q.3 0 .5-.08.2-.09.35-.27l3.19-4.04q.2-.26.42-.36t.55-.1h1.86l-3.9 4.81q-.34.44-.71.62.27.1.48.27t.4.45l4.02 5.42h-1.9q-.38 0-.57-.11t-.32-.31l-3.27-4.28q-.15-.21-.35-.3t-.58-.09h-.68v5.09h-2.15v-11.57zm22.52 0h1.69l-3.59 11.57h-1.94l-2.53-7.9q-.11-.29-.19-.71-.05.2-.1.38-.05.17-.1.33l-2.56 7.9h-1.95l-3.58-11.57h1.8q.28 0 .47.13.18.14.25.36l1.97 6.92q.06.26.12.56t.12.62q.07-.33.14-.63.08-.29.17-.55l2.27-6.92q.06-.18.25-.34.19-.15.46-.15h.63q.28 0 .46.14.18.13.26.35l2.27 6.92q.17.5.3 1.14.11-.63.23-1.14l1.97-6.92q.05-.2.25-.34.19-.15.46-.15m5.27 9.79h4.62v1.78h-6.77v-11.57h2.15zm17.08-9.79h1.62v11.57h-1.89v-7.47q0-.45.04-.97l-3.49 6.57q-.25.47-.76.47h-.31q-.51 0-.76-.47l-3.53-6.59.04.52q.01.25.01.47v7.47h-1.89v-11.57h1.62q.15 0 .25.01t.19.04q.08.03.15.1.07.08.13.2l3.47 6.42q.13.26.25.53l.23.56q.11-.3.23-.57.12-.28.25-.54l3.42-6.4q.06-.12.14-.2.07-.07.15-.1.09-.03.19-.04t.25-.01m6.35 9.89h2.18q.6 0 1-.14.41-.15.66-.39.24-.24.35-.56t.11-.68q0-.37-.12-.67t-.38-.52q-.26-.21-.66-.32t-.97-.11h-2.17zm1.83-8.22h-1.83v3.34h1.71q1.11 0 1.67-.4t.56-1.27q0-.91-.51-1.29t-1.6-.38m-3.98-1.67h3.98q1.14 0 1.95.22.8.21 1.32.61t.76.97.24 1.28q0 .41-.12.78t-.38.7q-.25.32-.64.59-.38.26-.92.44 2.38.54 2.38 2.58 0 .74-.28 1.36t-.81 1.08q-.54.45-1.32.7-.79.26-1.79.26h-4.37z"/></svg>