<svg xmlns="http://www.w3.org/2000/svg" width="100" height="100" viewBox="0 0 100 100"><rect width="100%" height="100%" fill="#dc2626"/><path fill="#ffffff" d="M39.855 39.885h2.84v20.24h-3.31v-13.08q0-.78.08-1.69l-6.12 11.49q-.43.83-1.33.83h-.53q-.9 0-1.33-.83l-6.19-11.53q.04.46.07.91t.03.82v13.08h-3.32v-20.24h2.84q.25 0 .44.01.18.01.33.07.14.06.26.18.12.13.23.34l6.06 11.24q.24.45.45.92.2.48.4.98.19-.51.4-1 .21-.48.45-.93l5.98-11.21q.11-.21.23-.34.13-.12.28-.18t.33-.07.43-.01m19.07 1.9-.94 1.78q-.17.29-.36.42-.18.14-.46.14-.3 0-.64-.22t-.82-.48q-.48-.27-1.11-.48-.64-.22-1.51-.22-.78 0-1.37.19t-.99.52q-.4.34-.59.81-.2.47-.2 1.03 0 .71.4 1.19.4.47 1.06.81.66.33 1.5.6t1.72.57 1.72.7 1.5 1.01q.66.6 1.05 1.49.4.88.4 2.14 0 1.37-.47 2.57-.46 1.19-1.37 2.08-.9.89-2.2 1.4t-2.98.51q-.97 0-1.91-.18-.94-.19-1.8-.54t-1.61-.84q-.76-.49-1.35-1.1l1.11-1.8q.14-.2.36-.33.23-.13.48-.13.35 0 .75.28.41.29.97.64t1.31.64q.75.28 1.8.28 1.61 0 2.49-.76t.88-2.19q0-.8-.4-1.3-.4-.51-1.05-.85-.66-.34-1.5-.58t-1.71-.52-1.71-.67-1.5-1.02q-.65-.63-1.05-1.58-.4-.94-.4-2.33 0-1.1.44-2.15t1.28-1.87q.84-.81 2.07-1.3t2.83-.49q1.79 0 3.3.56t2.58 1.57m13.61 8.19h6.72v8.19q-1.54 1.13-3.29 1.66-1.74.52-3.73.52-2.47 0-4.48-.77t-3.43-2.14-2.19-3.27q-.77-1.91-.77-4.16 0-2.28.74-4.19.74-1.9 2.1-3.27 1.37-1.38 3.32-2.13 1.94-.76 4.36-.76 1.23 0 2.31.2 1.07.19 1.98.54.92.34 1.68.83.75.49 1.38 1.08l-1.07 1.71q-.26.4-.66.49-.41.09-.89-.2-.46-.27-.92-.53-.46-.27-1.03-.46-.56-.2-1.27-.33-.71-.12-1.63-.12-1.5 0-2.71.5-1.21.51-2.07 1.44-.85.94-1.31 2.26-.46 1.31-.46 2.94 0 1.73.49 3.1.5 1.36 1.4 2.31.91.94 2.18 1.44t2.84.5q1.12 0 2-.24.89-.24 1.73-.64v-3.67h-2.55q-.37 0-.57-.21-.2-.2-.2-.49z"/></svg>