<svg xmlns="http://www.w3.org/2000/svg" width="100" height="100" viewBox="0 0 100 100"><rect width="100%" height="100%" fill="#dc2626"/><path fill="#ffffff" d="M34.305 50q0 1.59-.53 2.94-.52 1.36-1.48 2.35t-2.32 1.54q-1.34.56-3 .56-1.63 0-2.98-.56-1.35-.55-2.32-1.54t-1.49-2.35q-.53-1.35-.53-2.94t.53-2.95q.52-1.35 1.49-2.34t2.32-1.54q1.35-.56 2.98-.56 1.11 0 2.07.25.98.26 1.79.73.81.46 1.45 1.12.65.67 1.1 1.49t.68 1.78q.24.96.24 2.02m-2.76 0q0-1.19-.32-2.14-.32-.94-.9-1.6-.6-.66-1.44-1.01t-1.91-.35q-1.05 0-1.9.35t-1.44 1.01-.91 1.6q-.32.95-.32 2.14t.32 2.14q.32.94.91 1.59.59.66 1.44 1.01t1.9.35q1.07 0 1.91-.35t1.44-1.01q.58-.65.9-1.59.32-.95.32-2.14m7.82.04h2.01q.74 0 1.29-.19.55-.18.91-.53.37-.34.55-.84.18-.49.18-1.1 0-.58-.18-1.05t-.54-.8-.91-.51q-.55-.17-1.3-.17h-2.01zm-2.69-7.27h4.7q1.45 0 2.51.34t1.75.95 1.02 1.46q.34.85.34 1.86 0 1.05-.35 1.93-.35.87-1.05 1.5t-1.76.98q-1.05.35-2.46.35h-2.01v5.09h-2.69zm26.03 0h2.03v14.46h-2.37v-9.34q0-.56.06-1.21l-4.37 8.21q-.31.59-.95.59h-.38q-.64 0-.95-.59l-4.42-8.24q.03.33.05.65t.02.59v9.34h-2.37V42.77h2.03q.18 0 .31.01t.23.05q.11.04.19.13.09.09.17.24l4.33 8.03q.17.32.31.66.15.34.29.7.14-.37.29-.72.15-.34.32-.66l4.27-8.01q.08-.15.17-.24t.19-.13q.11-.04.24-.05t.31-.01m8.29 9h4.6l-1.76-4.81q-.13-.32-.27-.76t-.28-.95q-.13.51-.27.95-.14.45-.27.78zm3.67-9 5.68 14.46h-2.08q-.35 0-.57-.18-.22-.17-.33-.43l-1.08-2.95h-5.99l-1.08 2.95q-.08.23-.31.42t-.57.19h-2.1l5.69-14.46z"/></svg>