<svg xmlns="http://www.w3.org/2000/svg" width="100" height="100" viewBox="0 0 100 100"><rect width="100%" height="100%" fill="#dc2626"/><path fill="#ffffff" d="M35.14 42.365h-9.63v6.42h8.13v3.23h-8.13v8.83h-4.05v-21.69h13.68zM43 52.655h6.9l-2.64-7.21q-.19-.48-.4-1.14t-.42-1.43q-.2.77-.41 1.43-.21.67-.4 1.16zm5.51-13.5 8.52 21.69h-3.12q-.53 0-.86-.26-.33-.27-.49-.65l-1.62-4.43h-8.99l-1.62 4.43q-.12.34-.46.63-.35.28-.86.28h-3.15l8.54-21.69zm30.03 10.85q0 2.38-.8 4.38-.79 1.99-2.23 3.43t-3.47 2.24q-2.02.79-4.5.79h-8.26v-21.69h8.26q2.48 0 4.5.8 2.03.8 3.47 2.24 1.44 1.43 2.23 3.43.8 1.99.8 4.38m-4.14 0q0-1.79-.48-3.21-.47-1.41-1.36-2.4-.89-.98-2.16-1.5-1.27-.53-2.86-.53h-4.21v15.27h4.21q1.59 0 2.86-.52 1.27-.53 2.16-1.51t1.36-2.4q.48-1.42.48-3.2"/></svg>