<svg xmlns="http://www.w3.org/2000/svg" width="100" height="100" viewBox="0 0 100 100"><rect width="100%" height="100%" fill="#dc2626"/><path fill="#ffffff" d="m21.395 47.33-1.17-.21q.14-.93.52-1.64.39-.71.97-1.18t1.33-.71q.76-.24 1.62-.24.9 0 1.62.26.73.25 1.24.71.51.45.79 1.07.27.61.27 1.32 0 .62-.14 1.09t-.4.83q-.26.35-.64.59-.39.24-.88.4 1.17.37 1.75 1.13.57.76.57 1.9 0 .97-.36 1.72-.36.74-.97 1.25t-1.42.77q-.8.26-1.7.26-.98 0-1.71-.22-.73-.23-1.27-.67t-.92-1.08-.65-1.47l.98-.41q.39-.16.73-.08.34.07.49.36.16.32.36.62.19.31.46.55.27.23.63.38.37.15.87.15.57 0 .99-.18.42-.19.71-.48.28-.3.42-.67.14-.36.14-.73 0-.47-.1-.85t-.41-.65q-.32-.27-.91-.43-.59-.15-1.58-.15v-1.58q.82-.01 1.36-.16.54-.14.86-.4.32-.25.45-.61.12-.36.12-.79 0-.92-.51-1.4t-1.37-.48q-.39 0-.73.12-.33.11-.59.31-.27.2-.45.47t-.27.6q-.15.41-.4.55-.25.13-.7.06m18.29-3.83h2.43v13.01h-2.43v-5.69h-6.11v5.69h-2.43V43.5h2.43v5.59h6.11zm16.88 6.5q0 1.43-.47 2.63-.48 1.2-1.34 2.06-.87.87-2.08 1.34-1.22.48-2.7.48h-4.96V43.5h4.96q1.48 0 2.7.48 1.21.48 2.08 1.34.86.86 1.34 2.05.47 1.2.47 2.63m-2.48 0q0-1.07-.28-1.92-.29-.85-.82-1.44-.54-.59-1.3-.9-.76-.32-1.71-.32h-2.53v9.16h2.53q.95 0 1.71-.31.76-.32 1.3-.91.53-.59.82-1.44.28-.85.28-1.92m16.17 0q0 1.43-.47 2.63-.48 1.2-1.34 2.06-.87.87-2.08 1.34-1.22.48-2.7.48h-4.96V43.5h4.96q1.48 0 2.7.48 1.21.48 2.08 1.34.86.86 1.34 2.05.47 1.2.47 2.63m-2.48 0q0-1.07-.28-1.92-.29-.85-.82-1.44-.54-.59-1.3-.9-.76-.32-1.71-.32h-2.53v9.16h2.53q.95 0 1.71-.31.76-.32 1.3-.91.53-.59.82-1.44.28-.85.28-1.92m12.15-5.28-.6 1.14q-.11.19-.23.28-.12.08-.3.08-.19 0-.41-.14t-.53-.31-.72-.31-.96-.14q-.51 0-.89.12-.37.13-.63.34-.26.22-.38.52-.13.3-.13.66 0 .46.26.77.25.3.68.52.42.21.96.38l1.11.37q.56.19 1.1.45t.97.65q.42.39.68.96.25.56.25 1.37 0 .88-.3 1.65t-.88 1.35q-.58.57-1.42.9-.83.32-1.91.32-.63 0-1.23-.12t-1.16-.34q-.55-.23-1.03-.54-.49-.32-.87-.71l.71-1.16q.09-.12.24-.21.14-.08.3-.08.23 0 .49.18t.62.41q.36.22.84.41.48.18 1.16.18 1.03 0 1.6-.49t.57-1.41q0-.51-.26-.83-.26-.33-.68-.55t-.96-.37-1.1-.33-1.1-.44q-.54-.25-.96-.65-.42-.41-.68-1.01-.26-.61-.26-1.5 0-.71.29-1.39.28-.67.82-1.2.54-.52 1.33-.83.79-.32 1.82-.32 1.15 0 2.12.36.98.36 1.66 1.01"/></svg>