<svg xmlns="http://www.w3.org/2000/svg" width="100" height="100" viewBox="0 0 100 100"><rect width="100%" height="100%" fill="#dc2626"/><path fill="#ffffff" d="M31.3 54.255h11.04l-4.22-11.55q-.31-.77-.65-1.82-.34-1.06-.67-2.28-.31 1.22-.65 2.29t-.65 1.86zm8.81-21.6 13.63 34.7h-4.99q-.84 0-1.37-.42t-.79-1.04L44 58.815H29.62l-2.59 7.08q-.19.55-.74 1-.56.46-1.37.46h-5.04l13.65-34.7zm40.01 17.35q0 4.53-.97 7.88-.98 3.35-2.69 5.53-1.72 2.19-4.06 3.26-2.34 1.06-5.05 1.06t-5.03-1.06q-2.31-1.07-4.02-3.26-1.7-2.18-2.66-5.53t-.96-7.88q0-4.56.96-7.9.96-3.33 2.66-5.52 1.71-2.18 4.02-3.25 2.32-1.07 5.03-1.07t5.05 1.07 4.06 3.25q1.71 2.19 2.69 5.52.97 3.34.97 7.9m-6.12 0q0-3.77-.55-6.24-.56-2.47-1.48-3.94-.92-1.46-2.12-2.05t-2.5-.59q-1.27 0-2.46.59t-2.1 2.05q-.91 1.47-1.45 3.94t-.54 6.24.54 6.24 1.45 3.93q.91 1.47 2.1 2.06 1.19.58 2.46.58 1.3 0 2.5-.58 1.2-.59 2.12-2.06.92-1.46 1.48-3.93.55-2.47.55-6.24"/></svg>