<svg xmlns="http://www.w3.org/2000/svg" width="100" height="100" viewBox="0 0 100 100"><rect width="100%" height="100%" fill="#dc2626"/><path fill="#ffffff" d="M22.47 54.355h2.31q.64 0 1.08-.15.43-.15.69-.41.26-.25.37-.59.12-.34.12-.72 0-.4-.13-.72t-.4-.55q-.27-.22-.7-.34t-1.03-.12h-2.31zm1.95-8.73h-1.95v3.55h1.82q1.17 0 1.77-.43.6-.42.6-1.35 0-.96-.54-1.37-.54-.4-1.7-.4m-4.23-1.77h4.23q1.21 0 2.06.23.86.23 1.41.65.55.43.8 1.03.26.6.26 1.36 0 .43-.13.83t-.39.74q-.27.34-.68.62-.42.28-.98.48 2.53.57 2.53 2.74 0 .78-.3 1.44-.3.67-.87 1.15t-1.4.75-1.9.27h-4.64zm13.77 7.65h3.91l-1.49-4.09q-.11-.27-.23-.65-.12-.37-.24-.8-.11.43-.23.81t-.23.66zm3.12-7.65 4.83 12.29h-1.77q-.29 0-.48-.15t-.28-.37l-.92-2.51h-5.09l-.92 2.51q-.07.2-.26.36-.2.16-.49.16h-1.78l4.84-12.29zm14.69 0v1.88h-3.7v10.41h-2.29v-10.41h-3.71v-1.88zm13.22 0h1.73v12.29H64.7v-7.94q0-.48.05-1.03l-3.71 6.98q-.27.5-.81.5h-.32q-.55 0-.81-.5l-3.76-7q.03.28.04.55.02.27.02.5v7.94h-2.01v-12.29h1.72q.16 0 .27.01t.2.04.16.11.14.2l3.68 6.83q.14.27.27.56.12.29.24.6.12-.32.24-.61.13-.3.28-.57l3.63-6.81q.06-.12.14-.2t.17-.11.2-.04.26-.01m12.81 0h2.01v12.29h-1.17q-.27 0-.45-.09-.19-.09-.36-.3l-6.41-8.2q.05.57.05 1.04v7.55h-2.02v-12.29h1.2q.15 0 .25.01.11.01.19.05t.16.11q.07.08.17.19l6.44 8.23q-.03-.3-.04-.58-.02-.29-.02-.54z"/></svg>