<svg xmlns="http://www.w3.org/2000/svg" width="100" height="100" viewBox="0 0 100 100"><rect width="100%" height="100%" fill="#dc2626"/><path fill="#ffffff" d="M39.665 50.005q0 2.22-.74 4.09-.74 1.86-2.09 3.2-1.34 1.35-3.23 2.09t-4.2.74h-7.72v-20.24h7.72q2.31 0 4.2.74 1.89.75 3.23 2.09 1.35 1.34 2.09 3.2t.74 4.09m-3.86 0q0-1.67-.45-2.99-.44-1.32-1.27-2.24t-2.02-1.41q-1.18-.49-2.66-.49h-3.94v14.25h3.94q1.48 0 2.66-.49 1.19-.49 2.02-1.4.83-.92 1.27-2.24.45-1.33.45-2.99m17.15-.03h6.72v8.19q-1.54 1.13-3.29 1.66-1.74.52-3.73.52-2.48 0-4.49-.77-2-.77-3.43-2.14-1.42-1.37-2.19-3.27-.77-1.91-.77-4.16 0-2.28.75-4.19.74-1.9 2.1-3.27 1.37-1.38 3.31-2.13 1.95-.76 4.37-.76 1.23 0 2.3.2 1.08.19 1.99.54.92.34 1.68.83.75.49 1.38 1.08l-1.08 1.71q-.25.4-.65.49-.41.09-.89-.2-.46-.27-.92-.53-.46-.27-1.03-.46-.57-.2-1.27-.33-.71-.12-1.63-.12-1.5 0-2.71.5-1.21.51-2.07 1.44-.85.94-1.31 2.26-.47 1.31-.47 2.94 0 1.73.5 3.1.5 1.36 1.4 2.31.9.94 2.18 1.44 1.27.5 2.84.5 1.12 0 2-.24t1.72-.64v-3.67h-2.54q-.37 0-.57-.21-.2-.2-.2-.49zm14.12 7.21h3.81q1.05 0 1.76-.25.72-.25 1.14-.67.43-.42.62-.98t.19-1.19q0-.66-.21-1.19-.21-.52-.66-.89t-1.15-.57q-.71-.2-1.7-.2h-3.8zm3.21-14.39h-3.21v5.85h3q1.93 0 2.92-.7.98-.7.98-2.23 0-1.58-.89-2.25-.9-.67-2.8-.67m-6.97-2.91h6.97q1.99 0 3.4.37 1.41.38 2.32 1.08.9.7 1.32 1.7.42.99.42 2.24 0 .71-.21 1.36t-.65 1.22-1.12 1.03-1.62.78q4.17.94 4.17 4.51 0 1.29-.49 2.38t-1.42 1.88q-.94.79-2.31 1.24-1.38.45-3.14.45h-7.64z"/></svg>