<svg xmlns="http://www.w3.org/2000/svg" width="100" height="100" viewBox="0 0 100 100"><rect width="100%" height="100%" fill="#dc2626"/><path fill="#ffffff" d="M32.715 49.965h7.44v9.07q-1.7 1.26-3.63 1.84t-4.13.58q-2.75 0-4.97-.85-2.22-.86-3.8-2.38-1.57-1.52-2.42-3.62-.86-2.11-.86-4.61 0-2.52.83-4.63.82-2.11 2.33-3.63t3.66-2.35q2.16-.84 4.84-.84 1.36 0 2.55.22 1.19.21 2.2.59 1.02.38 1.85.92.84.55 1.54 1.2l-1.2 1.89q-.28.45-.72.55-.45.1-.98-.23l-1.02-.58q-.52-.3-1.14-.52-.63-.21-1.41-.35-.79-.14-1.81-.14-1.66 0-3 .56-1.34.55-2.29 1.59-.94 1.04-1.45 2.5t-.51 3.25q0 1.93.55 3.44t1.55 2.55q1 1.05 2.41 1.6t3.14.55q1.24 0 2.22-.26.98-.27 1.91-.72v-4.06h-2.82q-.41 0-.63-.22-.23-.23-.23-.55zm25.61-7.86h-9.95v6.22h7.84v3.21h-7.84v6.34h9.95v3.33h-14.14v-22.41h14.14zm19.08 13.81q.34 0 .6.27l1.65 1.78q-1.37 1.69-3.36 2.59t-4.78.9q-2.5 0-4.49-.85-1.99-.86-3.4-2.38t-2.16-3.62q-.75-2.11-.75-4.61 0-2.52.8-4.62.81-2.1 2.27-3.62 1.47-1.52 3.5-2.37 2.03-.84 4.49-.84 2.45 0 4.35.8 1.9.81 3.23 2.11l-1.39 1.94q-.13.19-.32.33t-.54.14q-.23 0-.48-.14-.24-.13-.54-.32-.29-.2-.68-.43t-.9-.42q-.51-.2-1.19-.33-.67-.13-1.55-.13-1.51 0-2.75.53-1.25.54-2.15 1.55-.9 1.02-1.4 2.48-.49 1.47-.49 3.34 0 1.89.53 3.37.54 1.47 1.45 2.48.92 1 2.16 1.54 1.24.53 2.66.53.86 0 1.54-.09.69-.09 1.28-.29.58-.21 1.1-.52.52-.32 1.03-.79.15-.14.32-.22.17-.09.36-.09"/></svg>