<svg xmlns="http://www.w3.org/2000/svg" width="100" height="100" viewBox="0 0 100 100"><rect width="100%" height="100%" fill="#dc2626"/><path fill="#ffffff" d="M29.27 49.975h5.76v7.02q-1.32.97-2.81 1.42t-3.2.45q-2.12 0-3.84-.66-1.73-.66-2.94-1.83-1.22-1.18-1.88-2.81t-.66-3.57q0-1.95.63-3.58.64-1.64 1.81-2.81 1.17-1.18 2.84-1.83 1.67-.64 3.74-.64 1.06 0 1.98.16.91.17 1.7.47.79.29 1.43.71.65.42 1.19.92l-.92 1.47q-.22.35-.57.42-.34.08-.75-.17-.4-.23-.79-.46-.4-.22-.89-.39-.48-.17-1.09-.28-.6-.11-1.4-.11-1.28 0-2.32.44-1.04.43-1.77 1.23-.73.81-1.13 1.93-.39 1.13-.39 2.52 0 1.49.42 2.66.43 1.17 1.2 1.98.78.81 1.87 1.24 1.09.42 2.44.42.96 0 1.71-.2.76-.2 1.48-.55v-3.15h-2.19q-.31 0-.48-.17-.18-.17-.18-.43zm20.84-8.65v1.19q0 .55-.32 1l-8.9 12.58h9.01v2.58H36.7v-1.27q0-.24.09-.46.08-.23.21-.42l8.93-12.63h-8.66v-2.57zm14.84 0h2.6l-7 17.35h-2.92l-7.01-17.35h2.59q.42 0 .69.2.26.21.39.53l4.1 10.58q.2.52.39 1.14.18.62.35 1.29.14-.67.31-1.29t.37-1.14l4.07-10.58q.1-.28.38-.5.28-.23.69-.23m15.35 2.57h-7.71v4.81h6.08v2.48h-6.08v4.91h7.71v2.58H69.35v-17.35H80.3z"/></svg>