<svg xmlns="http://www.w3.org/2000/svg" width="100" height="100" viewBox="0 0 100 100"><rect width="100%" height="100%" fill="#dc2626"/><path fill="#ffffff" d="M31.695 37.94v15.38q0 2.01-.5 3.63-.49 1.62-1.47 2.75-.99 1.14-2.45 1.75-1.47.61-3.42.61-.89 0-1.75-.1-.86-.11-1.8-.34.05-.66.12-1.32.06-.66.11-1.32.05-.36.29-.59.24-.22.69-.22.28 0 .73.12.46.11 1.15.11.94 0 1.66-.27.73-.27 1.22-.87.48-.59.73-1.54t.25-2.3V37.94zm9.52 20.39h4.49q1.23 0 2.08-.29.84-.3 1.34-.79.5-.5.73-1.16.22-.66.22-1.4 0-.78-.25-1.4-.25-.61-.77-1.05-.53-.44-1.37-.67-.83-.23-2-.23h-4.47zm3.78-16.96h-3.78v6.9h3.53q2.28 0 3.44-.83 1.16-.82 1.16-2.62 0-1.86-1.05-2.66-1.06-.79-3.3-.79m-8.22-3.43h8.22q2.34 0 4.01.45 1.66.44 2.73 1.27 1.06.82 1.56 1.99.49 1.17.49 2.64 0 .85-.25 1.61-.24.77-.76 1.44t-1.32 1.21-1.91.92q4.92 1.11 4.92 5.32 0 1.52-.58 2.8-.58 1.29-1.68 2.22-1.11.93-2.73 1.46-1.61.53-3.69.53h-9.01zm42.92 11.93q0 2.62-.88 4.82-.87 2.19-2.46 3.78-1.58 1.58-3.81 2.46-2.23.87-4.95.87h-9.09V37.94h9.09q2.72 0 4.95.88 2.23.89 3.81 2.46 1.59 1.58 2.46 3.77.88 2.2.88 4.82m-4.56 0q0-1.96-.52-3.52t-1.5-2.64-2.37-1.66q-1.4-.58-3.15-.58h-4.63v16.8h4.63q1.75 0 3.15-.58 1.39-.58 2.37-1.66t1.5-2.64.52-3.52"/></svg>