<svg xmlns="http://www.w3.org/2000/svg" width="100" height="100" viewBox="0 0 100 100"><rect width="100%" height="100%" fill="#dc2626"/><path fill="#ffffff" d="M25.185 55.205h8.38v3.22h-12.28v-20.97h3.9zm11.72 7.34-.63-.57q-.26-.22-.26-.53 0-.12.08-.26.08-.15.2-.27.16-.17.39-.42.23-.26.46-.58.23-.33.43-.71.2-.39.3-.82-.47 0-.84-.17-.38-.17-.65-.46t-.42-.68-.15-.85q0-.41.15-.77.15-.35.43-.62.27-.27.67-.42.39-.15.85-.15.55 0 .97.19.41.2.68.54t.4.78q.14.45.14.94 0 .69-.21 1.46t-.62 1.54q-.4.77-1 1.49-.61.73-1.37 1.34m-1.19-16.43q0-.45.16-.86.17-.4.46-.69t.7-.47q.4-.17.87-.17.46 0 .86.17.4.18.7.47.29.29.47.69.17.41.17.86 0 .46-.17.86-.18.4-.47.69-.3.29-.7.46-.4.16-.86.16-.47 0-.87-.16-.41-.17-.7-.46t-.46-.69q-.16-.4-.16-.86m12.38-8.66v8.79h.91q.55 0 .92-.15.36-.15.62-.49l5.79-7.32q.36-.46.76-.65.4-.18 1.01-.18h3.36l-7.06 8.72q-.63.79-1.29 1.13.48.17.86.48.38.32.73.82l7.28 9.82h-3.44q-.69 0-1.03-.2-.34-.19-.57-.57l-5.94-7.74q-.27-.39-.63-.55-.37-.16-1.05-.16h-1.23v9.22h-3.9v-20.97zm30.62 0v3.21h-6.32v17.76h-3.9v-17.76h-6.32v-3.21z"/></svg>