<svg xmlns="http://www.w3.org/2000/svg" width="100" height="100" viewBox="0 0 100 100"><rect width="100%" height="100%" fill="#dc2626"/><path fill="#ffffff" d="m27.535 45.005-.57 1.08q-.1.18-.22.26-.11.08-.28.08-.18 0-.39-.13t-.5-.29-.67-.29q-.39-.14-.92-.14-.47 0-.83.12-.36.11-.6.32-.24.2-.36.49-.12.28-.12.62 0 .43.24.72.25.29.64.5.4.2.91.36t1.05.35q.54.18 1.05.42t.9.61q.4.37.65.91.24.53.24 1.3 0 .83-.29 1.56-.28.73-.83 1.27t-1.34.85-1.81.31q-.58 0-1.15-.12-.57-.11-1.1-.33-.52-.21-.98-.51-.46-.29-.81-.66l.67-1.1q.08-.11.22-.2.13-.08.29-.08.21 0 .46.18.24.17.58.38.34.22.8.39.45.18 1.09.18.98 0 1.51-.47.54-.46.54-1.33 0-.48-.24-.79-.25-.3-.65-.51t-.91-.36q-.51-.14-1.03-.31-.53-.17-1.04-.41t-.91-.62-.64-.95q-.24-.58-.24-1.42 0-.67.26-1.31.27-.64.78-1.13t1.26-.79 1.72-.3q1.09 0 2 .34.92.34 1.57.95m4.49 5.03h1.71q.63 0 1.1-.16t.78-.45.46-.71.15-.94q0-.5-.15-.9-.15-.39-.46-.68-.3-.28-.77-.42-.47-.15-1.11-.15h-1.71zm-2.28-6.18h3.99q1.24 0 2.14.29t1.48.81q.59.51.87 1.24.29.72.29 1.58 0 .89-.3 1.63-.3.75-.89 1.28-.6.54-1.49.84-.9.29-2.1.29h-1.71v4.33h-2.28zm22.24 6.14q0 1.36-.44 2.51-.45 1.15-1.27 1.99-.81.84-1.96 1.31-1.15.48-2.55.48-1.39 0-2.54-.48-1.15-.47-1.97-1.31t-1.27-1.99-.45-2.51q0-1.35.45-2.5t1.27-1.99 1.97-1.32q1.15-.47 2.54-.47.94 0 1.76.22t1.51.61q.69.4 1.24.96.55.57.93 1.26.38.7.58 1.52.2.81.2 1.71m-2.34 0q0-1.01-.27-1.81t-.77-1.36q-.5-.57-1.22-.86-.72-.3-1.62-.3t-1.62.3q-.72.29-1.22.86-.51.56-.78 1.36t-.27 1.81q0 1.02.27 1.82t.78 1.36q.5.56 1.22.85.72.3 1.62.3t1.62-.3q.72-.29 1.22-.85t.77-1.36.27-1.82m12.94-6.14v1.88h-3.7v10.41h-2.29v-10.41h-3.71v-1.88zm16.18 0h1.79l-3.82 12.29h-2.06l-2.69-8.4q-.11-.3-.2-.75-.05.22-.1.4-.05.19-.11.35l-2.72 8.4h-2.07l-3.81-12.29h1.92q.29 0 .49.14t.27.38l2.09 7.35q.07.27.13.59.07.32.13.67.07-.36.15-.67.08-.32.18-.59l2.41-7.35q.07-.2.27-.36t.49-.16h.67q.3 0 .48.14.19.15.28.38l2.41 7.35q.18.53.32 1.22.11-.68.25-1.22l2.09-7.35q.05-.22.26-.37t.5-.15"/></svg>