<svg xmlns="http://www.w3.org/2000/svg" width="100" height="100" viewBox="0 0 100 100"><rect width="100%" height="100%" fill="#dc2626"/><path fill="#ffffff" d="M28.695 62.31h6.53q1.8 0 3.03-.43 1.22-.43 1.95-1.15t1.06-1.68q.32-.96.32-2.04 0-1.13-.36-2.03t-1.13-1.54q-.76-.63-1.98-.97-1.21-.34-2.91-.34h-6.51zm5.5-24.67h-5.5v10.03h5.14q3.31 0 5-1.2 1.7-1.2 1.7-3.82 0-2.71-1.54-3.86t-4.8-1.15m-11.95-4.99h11.95q3.41 0 5.83.64 2.43.65 3.97 1.85 1.55 1.2 2.27 2.91.72 1.7.72 3.84 0 1.22-.36 2.34-.36 1.11-1.11 2.08-.76.98-1.92 1.77-1.17.79-2.78 1.34 7.16 1.61 7.16 7.73 0 2.21-.84 4.08t-2.45 3.23q-1.61 1.35-3.96 2.12t-5.38.77h-13.1zm55.51 0v2.37q0 1.11-.62 2.02l-17.81 25.15h18.02v5.16h-26.4v-2.54q0-.48.17-.93.17-.44.43-.83l17.86-25.27h-17.33v-5.13z"/></svg>