<svg xmlns="http://www.w3.org/2000/svg" width="100" height="100" viewBox="0 0 100 100"><rect width="100%" height="100%" fill="#dc2626"/><path fill="#ffffff" d="M53.175 33.92h4.47v31.81h-5.21V45.18q0-1.23.13-2.66l-9.62 18.06q-.68 1.3-2.09 1.3h-.83q-1.41 0-2.09-1.3l-9.73-18.13q.07.73.11 1.43.05.71.05 1.3v20.55h-5.22V33.92h4.47q.4 0 .68.02.29.02.52.11t.42.29q.18.19.36.52l9.53 17.67q.37.7.69 1.45t.63 1.54q.3-.81.63-1.57t.71-1.46l9.39-17.63q.18-.33.38-.52.19-.2.42-.29.24-.09.52-.11.29-.02.68-.02m23.68 0v20.5q0 2.69-.67 4.84-.65 2.16-1.96 3.68-1.31 1.51-3.27 2.33-1.96.81-4.56.81-1.18 0-2.33-.14-1.14-.14-2.39-.45.06-.88.15-1.76t.15-1.76q.07-.49.39-.78.32-.3.91-.3.38 0 .98.15.61.16 1.53.16 1.25 0 2.22-.36.97-.37 1.62-1.16t.98-2.06q.33-1.26.33-3.07V33.92z"/></svg>