<svg xmlns="http://www.w3.org/2000/svg" width="100" height="100" viewBox="0 0 100 100"><rect width="100%" height="100%" fill="#dc2626"/><path fill="#ffffff" d="M45.045 58.02q.46 0 .82.36l2.23 2.41q-1.85 2.29-4.55 3.51t-6.48 1.22q-3.38 0-6.08-1.16-2.7-1.15-4.61-3.21t-2.93-4.92q-1.02-2.85-1.02-6.23 0-3.43 1.1-6.27 1.09-2.85 3.07-4.91 1.99-2.05 4.74-3.2 2.75-1.14 6.09-1.14 3.32 0 5.89 1.09t4.38 2.86l-1.89 2.62q-.17.25-.43.44-.27.19-.73.19-.31 0-.65-.18-.33-.18-.73-.44t-.93-.58q-.52-.31-1.22-.57-.69-.27-1.6-.44-.92-.18-2.11-.18-2.04 0-3.73.72-1.69.73-2.91 2.1-1.22 1.38-1.89 3.36-.67 1.99-.67 4.53 0 2.56.72 4.55.73 2 1.97 3.36 1.24 1.37 2.92 2.09 1.68.73 3.61.73 1.15 0 2.09-.13.93-.12 1.72-.4.79-.27 1.49-.7t1.4-1.06q.21-.19.44-.31.23-.11.48-.11m26.86-23.21h5.67v30.37h-5.67V51.91h-14.26v13.27h-5.67V34.81h5.67v13.07h14.26z"/></svg>