<svg xmlns="http://www.w3.org/2000/svg" width="100" height="100" viewBox="0 0 100 100"><rect width="100%" height="100%" fill="#dc2626"/><path fill="#ffffff" d="M23.455 56.26h7.22v2.78h-10.59V40.97h3.37zm12.98-6.69h2.1q.95 0 1.66-.24t1.16-.66q.46-.42.68-.99.23-.58.23-1.27 0-1.37-.91-2.11-.9-.74-2.77-.74h-2.15zm6.23 2.79 4.52 6.68h-3.03q-.87 0-1.25-.68l-3.8-5.78q-.22-.33-.47-.47-.26-.13-.76-.13h-1.44v7.06h-3.36V40.97h5.51q1.84 0 3.16.38t2.16 1.06q.85.69 1.25 1.65.4.95.4 2.1 0 .92-.27 1.73t-.78 1.47q-.5.67-1.25 1.17-.74.5-1.69.78.32.19.6.45.27.25.5.6m18.9 2.42q.27 0 .49.21l1.32 1.44q-1.1 1.36-2.71 2.08-1.6.73-3.85.73-2.01 0-3.62-.69t-2.74-1.91q-1.14-1.23-1.75-2.93-.6-1.7-.6-3.71 0-2.04.65-3.73t1.83-2.92q1.18-1.22 2.82-1.9 1.63-.69 3.62-.69 1.98 0 3.51.65t2.6 1.7l-1.12 1.57q-.1.15-.26.26-.15.11-.43.11-.19 0-.39-.1-.2-.11-.43-.27-.24-.15-.55-.34-.32-.19-.73-.34-.41-.16-.95-.27-.55-.1-1.26-.1-1.21 0-2.22.43t-1.73 1.25q-.73.82-1.13 2t-.4 2.69q0 1.53.43 2.71.44 1.19 1.17 2 .74.82 1.74 1.25t2.15.43q.69 0 1.25-.08.55-.07 1.02-.23.47-.17.89-.42.42-.26.83-.63.12-.12.26-.18.14-.07.29-.07m16.54 0q.27 0 .48.21l1.33 1.44q-1.1 1.36-2.71 2.08-1.6.73-3.85.73-2.02 0-3.62-.69-1.61-.69-2.75-1.91-1.13-1.23-1.74-2.93t-.61-3.71q0-2.04.65-3.73t1.84-2.92q1.18-1.22 2.81-1.9 1.64-.69 3.63-.69 1.97 0 3.51.65 1.53.65 2.6 1.7l-1.12 1.57q-.1.15-.26.26t-.43.11q-.19 0-.39-.1-.2-.11-.44-.27-.23-.15-.55-.34-.31-.19-.72-.34-.41-.16-.96-.27-.54-.1-1.25-.1-1.22 0-2.22.43-1.01.43-1.73 1.25-.73.82-1.13 2t-.4 2.69q0 1.53.43 2.71.43 1.19 1.17 2 .74.82 1.74 1.25t2.15.43q.69 0 1.24-.08.56-.07 1.03-.23.47-.17.89-.42.41-.26.83-.63.12-.12.26-.18.14-.07.29-.07"/></svg>