<svg xmlns="http://www.w3.org/2000/svg" width="100" height="100" viewBox="0 0 100 100"><rect width="100%" height="100%" fill="#dc2626"/><path fill="#ffffff" d="M64.52 31.925h5.08v36.15h-5.92v-23.35q0-1.4.15-3.03L52.9 62.225q-.77 1.47-2.37 1.47h-.95q-1.6 0-2.38-1.47l-11.05-20.6q.08.82.13 1.62t.05 1.48v23.35H30.4v-36.15h5.07q.46 0 .78.02.33.03.59.13t.47.32q.22.23.42.6l10.82 20.08q.43.8.79 1.65t.71 1.75q.35-.93.73-1.79.37-.86.8-1.66l10.67-20.03q.2-.37.43-.6.22-.22.48-.32.27-.1.59-.13.33-.02.77-.02"/></svg>