<svg xmlns="http://www.w3.org/2000/svg" width="100" height="100" viewBox="0 0 100 100"><rect width="100%" height="100%" fill="#dc2626"/><path fill="#ffffff" d="M40.115 39.885h2.84v20.24h-3.31v-13.08q0-.78.08-1.69l-6.12 11.49q-.43.83-1.33.83h-.53q-.9 0-1.33-.83l-6.19-11.53q.04.46.07.91t.03.82v13.08h-3.32v-20.24h2.84q.26 0 .44.01t.33.07q.14.06.26.18.12.13.23.34l6.07 11.24q.23.45.44.92.2.48.4.98.19-.51.4-1 .21-.48.45-.93l5.98-11.21q.11-.21.24-.34.12-.12.27-.18t.33-.07.43-.01m11.61 12.6h6.44l-2.47-6.74q-.18-.45-.37-1.06-.2-.62-.4-1.33-.18.71-.37 1.33-.2.63-.38 1.09zm5.14-12.6 7.95 20.24h-2.91q-.49 0-.8-.24-.31-.25-.46-.61l-1.52-4.13h-8.38l-1.51 4.13q-.12.32-.44.58-.32.27-.8.27h-2.94l7.97-20.24zm21.77 1.9-.94 1.78q-.17.29-.36.42-.19.14-.47.14-.29 0-.64-.22-.34-.22-.81-.48-.48-.27-1.12-.48-.63-.22-1.5-.22-.79 0-1.37.19-.59.19-.99.52-.4.34-.6.81-.19.47-.19 1.03 0 .71.4 1.19.4.47 1.05.81.66.33 1.5.6t1.72.57q.89.3 1.73.7t1.49 1.01q.66.6 1.06 1.49.4.88.4 2.14 0 1.37-.47 2.57-.47 1.19-1.37 2.08t-2.21 1.4q-1.3.51-2.98.51-.96 0-1.9-.18-.94-.19-1.8-.54t-1.62-.84q-.75-.49-1.34-1.1l1.1-1.8q.14-.2.37-.33.22-.13.47-.13.35 0 .76.28.41.29.97.64t1.3.64q.75.28 1.8.28 1.61 0 2.5-.76.88-.76.88-2.19 0-.8-.4-1.3-.4-.51-1.06-.85t-1.5-.58-1.7-.52q-.87-.28-1.71-.67t-1.5-1.02-1.06-1.58q-.4-.94-.4-2.33 0-1.1.44-2.15.45-1.05 1.29-1.87.84-.81 2.07-1.3t2.83-.49q1.79 0 3.3.56t2.58 1.57"/></svg>