<svg xmlns="http://www.w3.org/2000/svg" width="100" height="100" viewBox="0 0 100 100"><rect width="100%" height="100%" fill="#dc2626"/><path fill="#ffffff" d="m43.195 36.5-1.54 2.92q-.28.48-.59.7t-.77.22q-.48 0-1.05-.36-.56-.35-1.34-.79t-1.83-.79q-1.05-.36-2.47-.36-1.29 0-2.26.31-.96.31-1.62.86-.65.56-.98 1.33-.32.77-.32 1.69 0 1.17.66 1.95.65.78 1.73 1.34 1.08.55 2.46.98 1.38.44 2.83.94 1.45.49 2.83 1.15 1.38.65 2.46 1.65t1.74 2.45.66 3.52q0 2.26-.78 4.22-.77 1.97-2.25 3.43t-3.62 2.3-4.9.84q-1.59 0-3.13-.31t-2.95-.89q-1.42-.57-2.66-1.38-1.24-.8-2.21-1.79l1.82-2.97q.23-.32.6-.54.36-.22.78-.22.57 0 1.24.47t1.59 1.05 2.15 1.05 2.95.47q2.65 0 4.1-1.26 1.45-1.25 1.45-3.59 0-1.32-.66-2.14-.65-.83-1.74-1.4-1.08-.56-2.46-.95t-2.8-.85q-1.43-.46-2.81-1.1-1.38-.65-2.46-1.68-1.08-1.04-1.74-2.59-.65-1.55-.65-3.83 0-1.82.72-3.54.73-1.73 2.11-3.06 1.38-1.34 3.4-2.14 2.03-.81 4.65-.81 2.94 0 5.43.92 2.48.92 4.23 2.58M78.705 50q0 3.66-1.22 6.72t-3.43 5.26q-2.21 2.21-5.31 3.43-3.11 1.22-6.9 1.22h-12.67V33.37h12.67q3.79 0 6.9 1.23 3.1 1.23 5.31 3.43t3.43 5.26q1.22 3.05 1.22 6.71m-6.35 0q0-2.74-.72-4.91-.73-2.17-2.1-3.68t-3.31-2.31q-1.94-.81-4.38-.81h-6.46v23.42h6.46q2.44 0 4.38-.81 1.94-.8 3.31-2.31 1.37-1.5 2.1-3.68.72-2.17.72-4.91"/></svg>