<svg xmlns="http://www.w3.org/2000/svg" width="100" height="100" viewBox="0 0 100 100"><rect width="100%" height="100%" fill="#dc2626"/><path fill="#ffffff" d="m35.87 40.31-1.1 2.1q-.2.35-.42.5-.23.16-.56.16-.34 0-.75-.26-.4-.25-.96-.56-.56-.32-1.31-.57-.75-.26-1.78-.26-.92 0-1.61.22-.7.23-1.17.62-.47.4-.7.95t-.23 1.21q0 .85.47 1.41t1.25.95q.77.4 1.76.71.99.32 2.03.67 1.04.36 2.03.83t1.77 1.18q.77.72 1.24 1.76t.47 2.53q0 1.61-.55 3.02t-1.62 2.46q-1.06 1.05-2.6 1.65-1.53.6-3.51.6-1.14 0-2.24-.22-1.11-.22-2.12-.63-1.02-.42-1.91-.99-.89-.58-1.58-1.29l1.3-2.13q.16-.23.43-.39.26-.15.56-.15.41 0 .89.33.48.34 1.14.75.66.42 1.54.76.88.33 2.12.33 1.9 0 2.94-.9 1.04-.89 1.04-2.58 0-.94-.47-1.53-.47-.6-1.25-1-.77-.4-1.76-.69-.99-.28-2.02-.61-1.02-.33-2.01-.79t-1.77-1.2q-.77-.74-1.24-1.86-.47-1.11-.47-2.75 0-1.3.52-2.54.52-1.23 1.51-2.19t2.44-1.54q1.45-.57 3.33-.57 2.12 0 3.9.66t3.03 1.84m19.95-2.24h4.46v23.86h-4.46V51.5h-11.2v10.43h-4.46V38.07h4.46v10.26h11.2zm23.58 2.24-1.11 2.1q-.19.35-.42.5-.22.16-.55.16-.35 0-.75-.26-.4-.25-.96-.56-.57-.32-1.32-.57-.75-.26-1.77-.26-.92 0-1.62.22-.69.23-1.16.62-.47.4-.7.95t-.23 1.21q0 .85.47 1.41t1.24.95q.78.4 1.77.71.99.32 2.03.67 1.04.36 2.03.83t1.76 1.18q.78.72 1.25 1.76t.47 2.53q0 1.61-.55 3.02-.56 1.41-1.62 2.46t-2.6 1.65q-1.53.6-3.51.6-1.14 0-2.25-.22-1.1-.22-2.12-.63-1.01-.42-1.9-.99-.89-.58-1.59-1.29L65 56.93q.16-.23.42-.39.27-.15.57-.15.41 0 .89.33.48.34 1.14.75.66.42 1.54.76.88.33 2.12.33 1.9 0 2.94-.9 1.03-.89 1.03-2.58 0-.94-.47-1.53-.47-.6-1.24-1-.78-.4-1.77-.69-.99-.28-2.01-.61t-2.01-.79-1.77-1.2q-.77-.74-1.24-1.86-.47-1.11-.47-2.75 0-1.3.52-2.54.52-1.23 1.51-2.19t2.44-1.54q1.45-.57 3.33-.57 2.11 0 3.89.66 1.79.66 3.04 1.84"/></svg>