<svg xmlns="http://www.w3.org/2000/svg" width="100" height="100" viewBox="0 0 100 100"><rect width="100%" height="100%" fill="#dc2626"/><path fill="#ffffff" d="M45.27 40.24h2.84l-6.06 19.52h-3.28l-4.26-13.34q-.18-.48-.33-1.19-.08.34-.16.64t-.17.55l-4.31 13.34h-3.3L20.2 40.24h3.03q.48 0 .79.22.32.22.43.6l3.32 11.68q.11.43.21.94l.21 1.06q.11-.57.23-1.07.13-.5.28-.93l3.84-11.68q.1-.31.42-.56.32-.26.78-.26h1.06q.48 0 .77.23.3.23.45.59l3.82 11.68q.28.84.51 1.93.18-1.07.39-1.93l3.32-11.68q.09-.34.42-.58t.79-.24m16.55 1.84-.91 1.71q-.16.28-.34.41t-.45.13q-.29 0-.62-.21t-.79-.47q-.46-.25-1.07-.46-.62-.21-1.45-.21-.76 0-1.33.18-.56.18-.95.51-.38.32-.57.77-.19.46-.19 1 0 .69.38 1.14.39.46 1.02.79.64.32 1.45.58.81.25 1.66.54t1.66.68q.81.38 1.44.97.64.59 1.02 1.44.39.85.39 2.06 0 1.33-.45 2.48-.46 1.16-1.33 2.01-.87.86-2.12 1.35-1.26.5-2.88.5-.93 0-1.83-.19-.91-.18-1.74-.52-.83-.33-1.56-.81-.73-.47-1.29-1.05l1.06-1.74q.14-.19.35-.32.22-.13.46-.13.34 0 .73.28t.93.61q.54.34 1.26.62.73.28 1.74.28 1.55 0 2.4-.74t.85-2.11q0-.77-.38-1.26-.39-.48-1.02-.81-.64-.34-1.45-.56-.81-.23-1.64-.5-.84-.27-1.65-.65t-1.44-.99q-.64-.61-1.02-1.52-.39-.91-.39-2.24 0-1.07.43-2.08.42-1.02 1.23-1.8t2-1.25q1.19-.48 2.73-.48 1.73 0 3.18.54 1.46.54 2.49 1.52m7.14 14.85h3.67q1.01 0 1.7-.25.69-.24 1.1-.65.41-.4.6-.94.18-.54.18-1.15 0-.63-.2-1.14-.21-.51-.64-.86-.43-.36-1.11-.55t-1.64-.19h-3.66zm3.09-13.88h-3.09v5.64h2.89q1.86 0 2.81-.67.95-.68.95-2.15 0-1.53-.86-2.18-.86-.64-2.7-.64m-6.72-2.81h6.72q1.92 0 3.28.36 1.36.37 2.23 1.04.88.68 1.28 1.64.41.95.41 2.16 0 .69-.21 1.31-.2.63-.62 1.18-.43.54-1.08.99-.66.45-1.56.76 4.02.9 4.02 4.34 0 1.24-.47 2.3-.48 1.05-1.38 1.81-.9.77-2.23 1.2-1.32.43-3.02.43h-7.37z"/></svg>