<svg xmlns="http://www.w3.org/2000/svg" width="100" height="100" viewBox="0 0 100 100"><rect width="100%" height="100%" fill="#dc2626"/><path fill="#ffffff" d="m41.615 38.425-8.43 14.18v8.96h-4.29v-8.96l-8.43-14.18h3.79q.56 0 .89.28.33.27.55.68l4.22 7.73q.37.69.65 1.3t.51 1.21q.2-.6.48-1.21.27-.61.62-1.3l4.21-7.73q.17-.35.53-.65.35-.31.89-.31zm6.67 19.78h4.35q1.2 0 2.02-.29t1.3-.77q.49-.48.71-1.12.21-.64.21-1.36 0-.75-.24-1.35t-.75-1.02q-.51-.43-1.32-.65t-1.94-.22h-4.34zm3.67-16.45h-3.67v6.69h3.43q2.2 0 3.33-.8t1.13-2.54q0-1.81-1.02-2.58-1.03-.77-3.2-.77m-7.97-3.33h7.97q2.27 0 3.88.44 1.62.43 2.65 1.23t1.51 1.93q.48 1.14.48 2.56 0 .82-.24 1.56-.24.75-.74 1.4-.5.64-1.28 1.17t-1.85.9q4.77 1.07 4.77 5.15 0 1.47-.56 2.72t-1.63 2.15q-1.07.91-2.64 1.42t-3.59.51h-8.73zm22.3 6.82-2.08-.37q.24-1.66.93-2.92.69-1.25 1.72-2.09t2.37-1.27q1.33-.42 2.87-.42 1.6 0 2.89.45 1.29.46 2.2 1.27t1.4 1.89q.49 1.09.49 2.36 0 1.1-.25 1.94t-.71 1.46q-.47.63-1.16 1.06-.68.43-1.55.72 2.08.66 3.11 2 1.02 1.34 1.02 3.38 0 1.72-.64 3.05t-1.73 2.23q-1.09.91-2.52 1.37-1.43.47-3.03.47-1.74 0-3.04-.4t-2.26-1.19q-.96-.78-1.63-1.92-.67-1.13-1.15-2.62l1.74-.72q.69-.29 1.29-.15.6.13.87.64.29.56.64 1.11.34.54.82.97.48.42 1.13.68.65.27 1.54.27 1.01 0 1.76-.33t1.26-.86q.5-.52.75-1.17t.25-1.31q0-.83-.18-1.51-.17-.68-.73-1.16t-1.61-.75-2.81-.27v-2.82q1.46-.01 2.42-.27t1.52-.71q.57-.46.8-1.1.22-.64.22-1.41 0-1.63-.91-2.48-.91-.84-2.43-.84-.71 0-1.3.2t-1.06.56q-.48.36-.8.84t-.48 1.05q-.27.74-.71.98t-1.24.11"/></svg>