<svg xmlns="http://www.w3.org/2000/svg" width="100" height="100" viewBox="0 0 100 100"><rect width="100%" height="100%" fill="#dc2626"/><path fill="#ffffff" d="M31.83 54.255h11.04l-4.22-11.55q-.31-.77-.65-1.82-.34-1.06-.67-2.28-.31 1.22-.65 2.29t-.65 1.86zm8.81-21.6 13.63 34.7h-4.99q-.84 0-1.37-.42t-.79-1.04l-2.59-7.08H30.15l-2.59 7.08q-.19.55-.74 1-.56.46-1.37.46h-5.04l13.65-34.7zm19.08 10.22-3.12-.55q.36-2.5 1.39-4.38 1.03-1.89 2.58-3.15t3.55-1.89q2.01-.64 4.31-.64 2.4 0 4.33.69 1.94.68 3.3 1.89 1.37 1.21 2.1 2.85.74 1.63.74 3.52 0 1.66-.38 2.92-.37 1.26-1.06 2.2-.7.93-1.73 1.58t-2.33 1.08q3.12.98 4.66 3 1.53 2.02 1.53 5.06 0 2.6-.96 4.59t-2.59 3.35q-1.63 1.35-3.78 2.05-2.15.69-4.55.69-2.61 0-4.56-.6-1.94-.6-3.38-1.77-1.44-1.18-2.45-2.88-1.01-1.71-1.73-3.94l2.62-1.08q1.03-.43 1.93-.23.9.21 1.31.98.43.84.95 1.65.51.82 1.23 1.45.72.64 1.69 1.04.98.39 2.32.39 1.51 0 2.64-.49t1.88-1.28q.76-.8 1.13-1.77t.37-1.95q0-1.25-.26-2.27t-1.1-1.74-2.42-1.13q-1.57-.41-4.21-.41v-4.22q2.19-.03 3.63-.41t2.29-1.07q.85-.68 1.19-1.64.33-.96.33-2.11 0-2.45-1.37-3.72-1.36-1.28-3.64-1.28-1.06 0-1.95.3t-1.59.84q-.71.54-1.19 1.26t-.72 1.59q-.41 1.1-1.07 1.46t-1.86.17"/></svg>