<svg xmlns="http://www.w3.org/2000/svg" width="100" height="100" viewBox="0 0 100 100"><rect width="100%" height="100%" fill="#dc2626"/><path fill="#ffffff" d="M23.55 51.68h4.37l-1.67-4.57q-.13-.3-.26-.72t-.27-.9q-.12.48-.25.91-.14.42-.26.73zm3.48-8.55 5.4 13.74h-1.98q-.33 0-.54-.17-.21-.16-.31-.41l-1.03-2.8h-5.69l-1.02 2.8q-.08.22-.3.4t-.54.18h-1.99l5.4-13.74zm15.49 2.04h-6.1v4.06h5.15v2.04h-5.15v5.6h-2.57V43.13h8.67zm11.68-2.04v2.1h-4.14v11.64h-2.55V45.23h-4.15v-2.1zm4.7 8.55h4.37l-1.68-4.57q-.12-.3-.25-.72t-.27-.9q-.12.48-.25.91-.14.42-.26.73zm3.48-8.55 5.4 13.74H65.8q-.33 0-.54-.17-.21-.16-.31-.41l-1.03-2.8h-5.69l-1.02 2.8q-.08.22-.3.4t-.54.18h-2l5.41-13.74zm9.71 8.55h4.37l-1.67-4.57q-.12-.3-.26-.72-.13-.42-.26-.9-.13.48-.26.91-.13.42-.26.73zm3.49-8.55 5.39 13.74H79q-.33 0-.54-.17-.21-.16-.32-.41l-1.02-2.8h-5.69l-1.03 2.8q-.07.22-.29.4t-.54.18h-2l5.41-13.74z"/></svg>