<svg xmlns="http://www.w3.org/2000/svg" width="100" height="100" viewBox="0 0 100 100"><rect width="100%" height="100%" fill="#dc2626"/><path fill="#ffffff" d="M21.895 54.615h2.45q.68 0 1.13-.16.46-.16.74-.43.27-.27.39-.63.13-.36.13-.77 0-.42-.14-.76-.13-.34-.42-.58-.29-.23-.75-.36-.45-.13-1.09-.13h-2.44zm2.06-9.25h-2.06v3.76h1.93q1.24 0 1.87-.45.64-.45.64-1.43 0-1.02-.58-1.45-.57-.43-1.8-.43m-4.48-1.87h4.48q1.28 0 2.19.24t1.49.69.85 1.09.27 1.44q0 .46-.13.88-.14.42-.42.78-.29.37-.72.66-.44.3-1.04.51 2.68.6 2.68 2.89 0 .83-.32 1.53-.31.71-.91 1.22-.61.5-1.49.79t-2.01.29h-4.92zm14.28 11.12h2.44q.68 0 1.14-.16t.73-.43q.28-.27.4-.63t.12-.77q0-.42-.14-.76-.13-.34-.42-.58-.29-.23-.74-.36-.46-.13-1.1-.13h-2.43zm2.06-9.25h-2.06v3.76h1.92q1.24 0 1.88-.45.63-.45.63-1.43 0-1.02-.57-1.45-.58-.43-1.8-.43m-4.49-1.87h4.49q1.27 0 2.18.24t1.49.69.85 1.09.27 1.44q0 .46-.13.88-.14.42-.42.78-.28.37-.72.66-.44.3-1.04.51 2.68.6 2.68 2.89 0 .83-.31 1.53-.32.71-.92 1.22-.6.5-1.49.79-.88.29-2.01.29h-4.92zm20.95 0v1.98h-3.93v11.03h-2.42v-11.03h-3.92v-1.98zm17.12 0h1.9l-4.04 13.01h-2.18l-2.85-8.89q-.12-.33-.21-.79-.06.22-.11.42-.06.2-.12.37l-2.87 8.89h-2.2l-4.03-13.01h2.03q.31 0 .52.14.21.15.29.4l2.21 7.79q.07.29.14.63.07.33.14.7.07-.38.16-.71.08-.33.18-.62l2.56-7.79q.07-.2.28-.37t.52-.17h.71q.31 0 .51.15t.3.39l2.55 7.79q.19.56.34 1.29.12-.71.26-1.29l2.21-7.79q.06-.22.28-.38t.52-.16m5.93 11.01h5.2v2h-7.62v-13.01h2.42z"/></svg>