<svg xmlns="http://www.w3.org/2000/svg" width="100" height="100" viewBox="0 0 100 100"><rect width="100%" height="100%" fill="#dc2626"/><path fill="#ffffff" d="M46.535 48.175q0 3.02-1.01 5.55t-2.83 4.35q-1.82 1.83-4.39 2.83-2.56 1.01-5.7 1.01h-10.47v-27.47h10.47q3.14 0 5.7 1.01 2.57 1.02 4.39 2.83 1.82 1.82 2.83 4.34 1.01 2.53 1.01 5.55m-5.25 0q0-2.26-.59-4.05-.6-1.8-1.73-3.04-1.13-1.25-2.74-1.91-1.6-.67-3.62-.67h-5.34v19.34h5.34q2.02 0 3.62-.66 1.61-.67 2.74-1.91t1.73-3.04q.59-1.8.59-4.06m12.15 1.83q0 3.91.95 7.69t2.71 7.11q.19.38.22.67.03.3-.05.52-.07.21-.23.38-.17.16-.36.27l-2.09 1.27q-1.4-2.16-2.39-4.35-.99-2.18-1.61-4.4-.63-2.23-.93-4.51-.29-2.28-.29-4.65 0-2.38.29-4.67.3-2.29.93-4.51.62-2.22 1.61-4.4.99-2.17 2.39-4.34l2.09 1.25q.19.12.36.28.16.16.23.38.08.22.05.51-.03.3-.22.7-1.76 3.3-2.71 7.09t-.95 7.71m23.94-12.98-1.28 2.41q-.23.4-.48.58-.26.18-.64.18-.4 0-.86-.29-.47-.3-1.11-.66-.65-.36-1.52-.65-.86-.3-2.04-.3-1.06 0-1.86.26t-1.34.71q-.54.46-.81 1.09-.26.64-.26 1.4 0 .97.54 1.62.54.64 1.43 1.1.9.45 2.04.81 1.14.37 2.33.77 1.2.41 2.34.95 1.14.55 2.03 1.37.9.83 1.44 2.03.54 1.19.54 2.9 0 1.86-.64 3.49-.63 1.62-1.86 2.83-1.22 1.21-2.99 1.9t-4.05.69q-1.31 0-2.58-.25-1.28-.26-2.44-.73-1.17-.48-2.2-1.14-1.02-.67-1.82-1.49l1.5-2.45q.19-.26.49-.44.31-.18.65-.18.47 0 1.02.39.56.39 1.32.86t1.77.86q1.02.39 2.44.39 2.19 0 3.39-1.03 1.19-1.04 1.19-2.97 0-1.09-.54-1.77-.54-.69-1.43-1.15-.9-.47-2.04-.79t-2.31-.7q-1.18-.38-2.32-.92-1.14-.53-2.04-1.38-.89-.86-1.43-2.14t-.54-3.16q0-1.5.6-2.93.6-1.42 1.74-2.53 1.14-1.1 2.81-1.76 1.67-.67 3.84-.67 2.43 0 4.48.76t3.5 2.13"/></svg>