<svg xmlns="http://www.w3.org/2000/svg" width="100" height="100" viewBox="0 0 100 100"><rect width="100%" height="100%" fill="#dc2626"/><path fill="#ffffff" d="M33.965 42.875h-8.99v5.99h7.59v3.01h-7.59v8.25h-3.77v-20.24h12.76zm16.98 12.48q.31 0 .55.23l1.48 1.61q-1.23 1.53-3.03 2.34t-4.32.81q-2.25 0-4.05-.77t-3.07-2.14q-1.28-1.37-1.95-3.27-.68-1.91-.68-4.16 0-2.28.72-4.18.73-1.9 2.06-3.27 1.32-1.37 3.15-2.14 1.84-.76 4.06-.76 2.21 0 3.93.73t2.92 1.9l-1.26 1.75q-.11.17-.29.3-.17.12-.48.12-.21 0-.44-.12-.22-.11-.48-.29-.27-.17-.62-.38t-.81-.39q-.46-.17-1.07-.29t-1.41-.12q-1.36 0-2.49.48-1.12.48-1.93 1.4-.82.92-1.27 2.24-.44 1.32-.44 3.02 0 1.71.48 3.04t1.31 2.24q.82.91 1.95 1.39 1.11.48 2.4.48.77 0 1.4-.08.62-.09 1.14-.27.53-.18 1-.47.47-.28.93-.7.14-.13.29-.21.16-.07.32-.07m8.88-2.87h6.44l-2.46-6.74q-.18-.45-.38-1.06-.2-.62-.39-1.33-.18.71-.38 1.33-.2.63-.38 1.09zm5.14-12.6 7.95 20.24h-2.91q-.49 0-.8-.24-.31-.25-.46-.61l-1.51-4.13h-8.39l-1.51 4.13q-.11.32-.43.58-.33.27-.8.27h-2.94l7.96-20.24zm13.83 0v20.24h-3.78v-20.24z"/></svg>