<svg xmlns="http://www.w3.org/2000/svg" width="100" height="100" viewBox="0 0 100 100"><rect width="100%" height="100%" fill="#dc2626"/><path fill="#ffffff" d="M25.91 58.765h10.12v3.89H21.2v-25.31h4.71zm18.8-5.67h8.05l-3.08-8.41q-.23-.56-.48-1.33-.24-.77-.49-1.67-.22.9-.47 1.68-.24.77-.47 1.35zm6.42-15.75 9.94 25.31h-3.64q-.61 0-1-.31-.38-.3-.58-.76l-1.89-5.16H43.48l-1.89 5.16q-.14.4-.54.74-.4.33-1 .33h-3.67l9.95-25.31zm27.21 2.38-1.17 2.23q-.21.36-.45.53-.23.17-.58.17-.37 0-.8-.27-.43-.28-1.02-.61-.6-.33-1.39-.6-.8-.27-1.89-.27-.98 0-1.71.23-.74.24-1.23.66-.5.42-.75 1.01-.24.58-.24 1.28 0 .89.5 1.49.49.59 1.32 1.01.82.42 1.87.76 1.05.33 2.15.71 1.1.37 2.15.87t1.88 1.26q.82.76 1.32 1.86.5 1.11.5 2.68 0 1.72-.59 3.21-.59 1.5-1.71 2.61-1.13 1.11-2.76 1.75t-3.73.64q-1.21 0-2.38-.24-1.17-.23-2.25-.67-1.07-.44-2.02-1.05-.94-.61-1.68-1.37l1.38-2.25q.18-.25.46-.41.28-.17.59-.17.44 0 .95.36t1.21.79q.7.44 1.63.8.94.36 2.25.36 2.01 0 3.12-.95 1.1-.96 1.1-2.74 0-1-.5-1.63t-1.32-1.06-1.87-.73q-1.05-.29-2.14-.64-1.08-.35-2.13-.84t-1.88-1.28q-.82-.79-1.32-1.97t-.5-2.91q0-1.39.56-2.7.55-1.31 1.6-2.33 1.05-1.01 2.59-1.62 1.54-.62 3.53-.62 2.24 0 4.13.7t3.22 1.96"/></svg>