<svg xmlns="http://www.w3.org/2000/svg" width="100" height="100" viewBox="0 0 100 100"><rect width="100%" height="100%" fill="#dc2626"/><path fill="#ffffff" d="M22.49 55.01h5.78v2.22H19.8V42.77h2.69zm17.63-1.19q.22 0 .39.17l1.06 1.15q-.88 1.09-2.16 1.67-1.29.58-3.09.58-1.61 0-2.9-.55-1.28-.55-2.19-1.53t-1.4-2.34q-.48-1.36-.48-2.97 0-1.63.52-2.98.52-1.36 1.46-2.34.95-.98 2.26-1.53 1.31-.54 2.9-.54 1.58 0 2.81.52 1.22.52 2.08 1.36l-.9 1.25q-.08.12-.2.21-.13.09-.35.09-.15 0-.31-.09-.16-.08-.35-.2-.19-.13-.44-.28t-.58-.28q-.33-.12-.77-.21-.43-.08-1-.08-.97 0-1.77.35-.81.34-1.39 1-.58.65-.9 1.6-.32.94-.32 2.15 0 1.22.35 2.17.34.95.93 1.6t1.39 1q.8.34 1.72.34.55 0 .99-.06.45-.06.83-.19.37-.13.71-.34.33-.2.66-.5.1-.09.21-.14.11-.06.23-.06m5.99-4.17h1.68q.76 0 1.33-.19.56-.19.93-.52.36-.34.54-.8t.18-1.01q0-1.1-.72-1.69-.73-.59-2.22-.59h-1.72zm4.98 2.24 3.62 5.34h-2.43q-.69 0-1-.54l-3.04-4.63q-.17-.26-.37-.37-.21-.11-.61-.11h-1.15v5.65h-2.69V42.77h4.41q1.47 0 2.53.3 1.05.31 1.73.86.67.55.99 1.32.32.76.32 1.68 0 .73-.21 1.38-.22.65-.62 1.18-.41.53-1 .93-.6.4-1.36.63.26.15.48.35.22.21.4.49m15.29-9.12v2.21h-4.36v12.25h-2.69V44.98h-4.36v-2.21zm9.02 7.21h4.8v5.85q-1.1.81-2.35 1.19-1.24.37-2.66.37-1.77 0-3.2-.55-1.44-.55-2.46-1.53-1.01-.98-1.56-2.34T67.42 50q0-1.63.53-2.99t1.51-2.34q.97-.98 2.36-1.52t3.12-.54q.88 0 1.65.14.76.14 1.42.38.65.25 1.19.6t.99.77l-.77 1.22q-.18.29-.47.36-.29.06-.63-.15l-.66-.38q-.33-.19-.74-.33-.4-.14-.9-.23-.51-.09-1.17-.09-1.07 0-1.93.36-.87.36-1.48 1.03t-.94 1.61-.33 2.1q0 1.24.36 2.22.35.97 1 1.64.64.68 1.55 1.04.91.35 2.03.35.8 0 1.43-.17t1.23-.46V52h-1.82q-.26 0-.4-.15-.15-.14-.15-.35z"/></svg>