<svg xmlns="http://www.w3.org/2000/svg" width="100" height="100" viewBox="0 0 100 100"><rect width="100%" height="100%" fill="#dc2626"/><path fill="#ffffff" d="m30.61 43.83-.7 1.34q-.13.22-.27.32t-.35.1q-.22 0-.48-.16-.25-.17-.61-.37t-.84-.36q-.47-.16-1.13-.16-.58 0-1.02.14-.45.14-.74.39-.3.26-.45.61t-.15.77q0 .53.3.89t.79.61q.5.25 1.13.45t1.29.43q.66.22 1.29.52t1.12.76q.5.46.8 1.12t.3 1.6q0 1.03-.36 1.93-.35.9-1.02 1.56-.68.67-1.66 1.05-.97.39-2.23.39-.73 0-1.43-.14-.71-.15-1.35-.41-.65-.26-1.21-.63-.57-.37-1.01-.82l.83-1.35q.1-.15.27-.25t.36-.1q.26 0 .56.22.31.21.73.48.42.26.98.47.56.22 1.35.22 1.21 0 1.87-.57.66-.58.66-1.65 0-.6-.3-.97-.3-.38-.79-.64-.5-.26-1.13-.44-.63-.17-1.28-.38t-1.28-.51q-.63-.29-1.12-.76-.49-.48-.79-1.19-.3-.7-.3-1.74 0-.83.33-1.62t.96-1.4 1.55-.97q.93-.37 2.12-.37 1.35 0 2.48.42 1.14.42 1.93 1.17m13.34-1.42v2.32h-4.58v12.86h-2.82V44.73h-4.58v-2.32zM60.42 50q0 1.67-.55 3.09t-1.56 2.46-2.42 1.63q-1.42.58-3.15.58t-3.14-.58q-1.42-.59-2.43-1.63-1.02-1.04-1.57-2.46-.56-1.42-.56-3.09t.56-3.09q.55-1.43 1.57-2.47 1.01-1.04 2.43-1.62 1.41-.58 3.14-.58 1.15 0 2.17.27 1.02.26 1.87.75t1.53 1.19q.67.7 1.15 1.56.47.86.72 1.87.24 1.01.24 2.12m-2.88 0q0-1.25-.34-2.24-.34-1-.96-1.69t-1.5-1.06q-.89-.37-2-.37-1.12 0-2 .37-.89.37-1.52 1.06-.62.69-.96 1.69-.33.99-.33 2.24t.33 2.24q.34.99.96 1.68.63.69 1.52 1.06.88.36 2 .36 1.11 0 2-.36.88-.37 1.5-1.06t.96-1.68.34-2.24m19.7-7.59h2.14v15.18h-2.49v-9.81q0-.59.06-1.27l-4.59 8.62q-.32.62-1 .62h-.4q-.67 0-.99-.62l-4.64-8.65q.03.35.05.68.02.34.02.62v9.81h-2.49V42.41h2.13q.19 0 .33.01.13.01.25.05.11.04.19.14.09.09.18.25l4.54 8.43q.18.34.34.69.15.36.29.74.15-.39.31-.75.16-.37.33-.7l4.49-8.41q.08-.16.18-.25.09-.1.2-.14t.25-.05q.13-.01.32-.01"/></svg>