<svg xmlns="http://www.w3.org/2000/svg" width="100" height="100" viewBox="0 0 100 100"><rect width="100%" height="100%" fill="#dc2626"/><path fill="#ffffff" d="M21.825 50.04h1.91q.71 0 1.23-.18.52-.17.87-.5t.52-.8.17-1.05q0-.55-.17-1-.17-.44-.52-.76-.34-.31-.86-.47-.52-.17-1.24-.17h-1.91zm-2.55-6.91h4.46q1.38 0 2.39.33 1.01.32 1.66.9.66.58.98 1.39.31.8.31 1.76 0 1-.33 1.83t-1 1.43q-.66.6-1.66.93-1.01.33-2.35.33h-1.91v4.84h-2.55zm24.73 0h1.93v13.74h-2.26V48q0-.53.06-1.15l-4.15 7.8q-.29.56-.9.56h-.36q-.61 0-.91-.56l-4.19-7.83.04.62q.02.3.02.56v8.87h-2.25V43.13h1.93q.17 0 .29.01.13.01.23.05t.18.12q.08.09.15.23l4.12 7.63q.16.3.3.63l.27.66q.13-.35.27-.68.15-.33.31-.63l4.05-7.61q.08-.14.16-.23.09-.08.19-.12t.22-.05q.13-.01.3-.01m21.26 0h2l-4.26 13.74h-2.31l-3-9.39q-.13-.34-.23-.83l-.11.44q-.06.21-.13.39l-3.03 9.39h-2.32l-4.25-13.74h2.13q.34 0 .56.16t.3.42l2.34 8.22q.07.3.14.66.08.36.15.75.08-.4.17-.75.09-.36.19-.66l2.7-8.22q.08-.22.3-.4t.55-.18h.75q.33 0 .54.16.21.17.31.42l2.69 8.22q.2.59.36 1.36.12-.75.28-1.36l2.33-8.22q.06-.23.29-.41.24-.17.56-.17m13.4 0h2.06l-5.54 13.74h-2.31l-5.55-13.74h2.05q.33 0 .54.16.21.17.32.42l3.24 8.38q.16.41.31.9.14.49.28 1.02.11-.53.24-1.02.14-.49.3-.9l3.22-8.38q.07-.22.3-.4.22-.18.54-.18"/></svg>