<svg xmlns="http://www.w3.org/2000/svg" width="100" height="100" viewBox="0 0 100 100"><rect width="100%" height="100%" fill="#dc2626"/><path fill="#ffffff" d="M25.72 50.05h2.82q1.03 0 1.8-.26.77-.25 1.28-.74.52-.48.77-1.17.25-.7.25-1.55 0-.81-.25-1.47t-.76-1.12q-.5-.46-1.27-.71-.77-.24-1.82-.24h-2.82zm-3.76-10.17h6.58q2.03 0 3.51.47 1.49.48 2.45 1.33.97.86 1.44 2.05t.47 2.6q0 1.47-.49 2.69-.49 1.23-1.47 2.11t-2.46 1.37-3.45.49h-2.82v7.13h-3.76zm31.47 0v3.09h-6.1v17.15h-3.77V42.97h-6.1v-3.09zm21.77 0h2.84v20.24h-3.32V47.04q0-.78.09-1.69l-6.12 11.49q-.43.83-1.33.83h-.53q-.9 0-1.33-.83l-6.19-11.53q.04.46.07.91t.03.82v13.08h-3.32V39.88h2.84q.25 0 .44.01.18.01.32.07.15.06.27.18.12.13.23.34l6.06 11.24q.24.45.45.92.2.48.39.98.2-.51.41-1 .21-.48.45-.93l5.98-11.21q.11-.21.23-.34.13-.12.28-.18.14-.06.33-.07.18-.01.43-.01"/></svg>