<svg xmlns="http://www.w3.org/2000/svg" width="100" height="100" viewBox="0 0 100 100"><rect width="100%" height="100%" fill="#dc2626"/><path fill="#ffffff" d="M22.62 50.04h1.8q.67 0 1.17-.17.49-.16.82-.47.33-.32.49-.76.16-.45.16-1 0-.52-.16-.94t-.49-.72q-.32-.3-.82-.45-.49-.16-1.17-.16h-1.8zm-2.43-6.54h4.23q1.31 0 2.26.3.96.31 1.58.86t.92 1.31q.3.77.3 1.67 0 .95-.31 1.74-.32.78-.95 1.35t-1.58.88q-.95.32-2.22.32h-1.8v4.58h-2.43zm20.24 0v1.98H36.5v11.03h-2.42V45.48h-3.92V43.5zm4.13 6.19h1.51q.68 0 1.19-.17t.84-.48q.33-.3.49-.71.16-.42.16-.91 0-.99-.65-1.52t-1.99-.53h-1.55zm4.48 2.01 3.26 4.81h-2.19q-.62 0-.9-.49l-2.74-4.16q-.15-.24-.33-.34-.19-.1-.55-.1h-1.03v5.09h-2.42V43.5h3.97q1.32 0 2.27.27t1.55.77q.61.49.9 1.18t.29 1.52q0 .66-.2 1.24-.19.59-.55 1.06-.37.48-.9.84-.54.36-1.22.57.23.13.43.32.2.18.36.43M66.12 50q0 1.43-.47 2.65t-1.34 2.11q-.86.89-2.08 1.39-1.21.5-2.7.5-1.47 0-2.69-.5-1.21-.5-2.08-1.39t-1.35-2.11q-.47-1.22-.47-2.65t.47-2.65q.48-1.22 1.35-2.11t2.08-1.39q1.22-.5 2.69-.5.99 0 1.87.23.87.23 1.6.65t1.31 1.02q.58.59.98 1.33.41.74.62 1.6.21.87.21 1.82m-2.47 0q0-1.07-.29-1.92t-.82-1.44q-.53-.6-1.29-.91-.76-.32-1.72-.32-.95 0-1.71.32-.76.31-1.3.91-.53.59-.82 1.44T55.41 50t.29 1.92.82 1.44q.54.59 1.3.91.76.31 1.71.31.96 0 1.72-.31.76-.32 1.29-.91t.82-1.44.29-1.92m16.16 0q0 1.43-.48 2.63-.47 1.2-1.34 2.06-.86.87-2.08 1.34-1.21.48-2.7.48h-4.96V43.5h4.96q1.49 0 2.7.48 1.22.48 2.08 1.34.87.86 1.34 2.05.48 1.2.48 2.63m-2.48 0q0-1.07-.29-1.92-.28-.85-.82-1.44-.53-.59-1.29-.9-.76-.32-1.72-.32h-2.53v9.16h2.53q.96 0 1.72-.31.76-.32 1.29-.91.54-.59.82-1.44.29-.85.29-1.92"/></svg>