<svg xmlns="http://www.w3.org/2000/svg" width="100" height="100" viewBox="0 0 100 100"><rect width="100%" height="100%" fill="#dc2626"/><path fill="#ffffff" d="M22.8 50.04h2.11q.78 0 1.36-.19.57-.2.96-.56.38-.36.57-.88t.19-1.16q0-.61-.19-1.11-.19-.49-.57-.84-.38-.34-.95-.53-.58-.18-1.37-.18H22.8zm-2.82-7.63h4.93q1.52 0 2.64.35 1.11.36 1.83 1 .73.64 1.08 1.53.35.9.35 1.96 0 1.1-.36 2.02-.37.92-1.11 1.58-.73.66-1.84 1.03t-2.59.37H22.8v5.34h-2.82zm23.45 0v1.04q0 .48-.27.88l-7.79 11h7.89v2.26H31.71v-1.11q0-.21.07-.41.07-.19.19-.36l7.81-11.06H32.2v-2.24zm16.59 0h2.14v15.18h-2.49v-9.81q0-.59.06-1.27l-4.59 8.62q-.32.62-1 .62h-.4q-.67 0-.99-.62l-4.64-8.65q.03.35.05.68.02.34.02.62v9.81h-2.49V42.41h2.13q.19 0 .33.01.13.01.25.05.11.04.19.14.09.09.18.25l4.54 8.43q.18.34.34.69.15.36.29.74.15-.39.31-.75.16-.37.33-.7l4.49-8.41q.08-.16.18-.25.09-.1.2-.14t.25-.05q.13-.01.32-.01m20 7.59q0 1.67-.56 3.09-.55 1.42-1.55 2.46-1.01 1.04-2.43 1.63-1.42.58-3.15.58-1.72 0-3.14-.58-1.42-.59-2.43-1.63t-1.57-2.46-.56-3.09.56-3.09q.56-1.43 1.57-2.47t2.43-1.62 3.14-.58q1.15 0 2.17.27 1.02.26 1.87.75t1.53 1.19 1.15 1.56.72 1.87.25 2.12m-2.89 0q0-1.25-.34-2.24-.33-1-.95-1.69t-1.51-1.06-2-.37-2 .37-1.51 1.06q-.63.69-.96 1.69-.34.99-.34 2.24t.34 2.24q.33.99.96 1.68.62.69 1.51 1.06.89.36 2 .36t2-.36q.89-.37 1.51-1.06t.95-1.68q.34-.99.34-2.24"/></svg>