<svg xmlns="http://www.w3.org/2000/svg" width="100" height="100" viewBox="0 0 100 100"><rect width="100%" height="100%" fill="#dc2626"/><path fill="#ffffff" d="m28.29 45.005-.57 1.08q-.1.18-.22.26-.11.08-.28.08-.18 0-.39-.13t-.5-.29-.67-.29q-.39-.14-.92-.14-.47 0-.83.12-.36.11-.6.32-.24.2-.36.49-.12.28-.12.62 0 .43.24.72t.64.5q.4.2.91.36t1.05.35q.53.18 1.04.42t.91.61.65.91q.24.53.24 1.3 0 .83-.29 1.56-.28.73-.83 1.27t-1.34.85-1.81.31q-.59 0-1.16-.12-.56-.11-1.09-.33-.52-.21-.98-.51-.46-.29-.82-.66l.68-1.1q.08-.11.22-.2.13-.08.29-.08.21 0 .46.18.24.17.58.38.34.22.8.39.45.18 1.09.18.98 0 1.51-.47.54-.46.54-1.33 0-.48-.24-.79-.25-.3-.65-.51t-.91-.36q-.51-.14-1.03-.31-.53-.17-1.04-.41t-.91-.62-.64-.95q-.24-.58-.24-1.42 0-.67.26-1.31.27-.64.78-1.13t1.26-.79 1.72-.3q1.09 0 2 .34.92.34 1.57.95m13.93 4.99q0 1.36-.45 2.51-.44 1.15-1.26 1.99t-1.96 1.31q-1.15.48-2.55.48t-2.55-.48q-1.14-.47-1.96-1.31t-1.27-1.99-.45-2.51q0-1.35.45-2.5t1.27-1.99 1.96-1.32q1.15-.47 2.55-.47.93 0 1.76.22.82.22 1.51.61.69.4 1.24.96.54.57.93 1.26.38.7.58 1.52.2.81.2 1.71m-2.34 0q0-1.01-.27-1.81t-.77-1.36q-.51-.57-1.22-.86-.72-.3-1.62-.3t-1.62.3q-.72.29-1.23.86-.5.56-.77 1.36-.28.8-.28 1.81 0 1.02.28 1.82.27.8.77 1.36.51.56 1.23.85.72.3 1.62.3t1.62-.3q.71-.29 1.22-.85.5-.56.77-1.36t.27-1.82m15.96-6.14h1.72v12.29h-2.01v-7.94q0-.48.05-1.03l-3.72 6.98q-.26.5-.8.5h-.33q-.54 0-.8-.5l-3.76-7 .04.55q.02.27.02.5v7.94h-2.02v-12.29h1.73q.15 0 .26.01t.2.04.16.11q.08.08.14.2l3.68 6.83q.15.27.27.56.13.29.24.6.12-.32.25-.61.13-.3.27-.57l3.63-6.81q.07-.12.15-.2.07-.08.16-.11t.2-.04.27-.01m7.04 7.65h3.91l-1.49-4.09q-.11-.27-.23-.65-.12-.37-.24-.8-.11.43-.23.81t-.23.66zm3.12-7.65 4.83 12.29h-1.77q-.3 0-.48-.15-.19-.15-.28-.37l-.92-2.51h-5.09l-.92 2.51q-.07.2-.26.36-.2.16-.49.16h-1.78l4.83-12.29zm9.92 10.33h3.15q.34 0 .54.2.2.19.2.5v1.26h-8.43v-.7q0-.21.09-.44.09-.24.29-.42l3.73-3.74q.47-.48.83-.91.37-.44.62-.86.25-.43.38-.86.13-.44.13-.93 0-.44-.13-.77-.12-.34-.36-.57-.23-.23-.56-.34-.33-.12-.73-.12-.38 0-.7.11-.32.1-.56.29-.25.2-.42.45-.17.26-.25.56-.15.39-.38.52t-.66.06l-1.11-.2q.13-.88.5-1.55.36-.66.91-1.11t1.26-.67q.71-.23 1.53-.23.85 0 1.55.25.71.25 1.21.71t.78 1.11q.28.64.28 1.43 0 .68-.2 1.26t-.54 1.11q-.33.52-.78 1.02-.45.49-.94 1l-2.78 2.83q.4-.12.8-.18.39-.07.75-.07"/></svg>