<svg xmlns="http://www.w3.org/2000/svg" width="100" height="100" viewBox="0 0 100 100"><rect width="100%" height="100%" fill="#dc2626"/><path fill="#ffffff" d="m32.085 42.955-.81 1.52q-.14.26-.3.37-.17.11-.41.11-.25 0-.54-.18-.3-.19-.7-.42-.41-.22-.96-.41-.54-.19-1.29-.19-.67 0-1.17.17-.51.16-.85.45-.34.28-.51.69-.17.4-.17.88 0 .61.34 1.02.35.41.91.69.56.29 1.28.52t1.48.49q.76.25 1.48.6.72.34 1.28.86t.91 1.28q.34.75.34 1.83 0 1.18-.4 2.21-.41 1.02-1.18 1.78-.77.77-1.89 1.2-1.12.44-2.56.44-.82 0-1.63-.16-.8-.16-1.54-.46t-1.39-.72q-.64-.42-1.15-.94l.95-1.55q.12-.16.31-.28.19-.11.41-.11.3 0 .65.24.35.25.83.55t1.12.55q.64.24 1.54.24 1.38 0 2.14-.65.75-.66.75-1.88 0-.68-.34-1.12-.34-.43-.91-.72-.56-.3-1.28-.5t-1.46-.44q-.75-.24-1.47-.58t-1.28-.88q-.57-.54-.91-1.35t-.34-1.99q0-.95.38-1.85t1.1-1.6q.72-.69 1.77-1.11 1.06-.42 2.43-.42 1.53 0 2.83.48 1.29.48 2.21 1.34m19.66 7.04q0 1.91-.63 3.54-.63 1.62-1.78 2.81t-2.77 1.86q-1.62.66-3.6.66-1.97 0-3.59-.66-1.62-.67-2.78-1.86-1.15-1.19-1.79-2.81-.64-1.63-.64-3.54 0-1.9.64-3.53t1.79-2.81q1.16-1.19 2.78-1.86 1.62-.66 3.59-.66 1.32 0 2.48.3 1.17.31 2.14.87.97.55 1.75 1.35.77.8 1.31 1.78.54.99.82 2.14t.28 2.42m-3.3 0q0-1.42-.38-2.56-.38-1.13-1.09-1.92-.71-.8-1.72-1.22-1.02-.42-2.29-.42t-2.29.42q-1.01.42-1.72 1.22-.72.79-1.1 1.92-.39 1.14-.39 2.56 0 1.43.39 2.57.38 1.13 1.1 1.92.71.78 1.72 1.2 1.02.42 2.29.42t2.29-.42q1.01-.42 1.72-1.2.71-.79 1.09-1.92.38-1.14.38-2.57m18.27-8.67v2.65h-5.23v14.7h-3.23v-14.7h-5.23v-2.65zm12.32 1.63-.8 1.52q-.15.26-.31.37t-.4.11q-.25 0-.55-.18-.29-.19-.7-.42-.41-.22-.95-.41-.55-.19-1.29-.19-.67 0-1.18.17-.5.16-.84.45-.35.28-.51.69-.17.4-.17.88 0 .61.34 1.02t.91.69q.56.29 1.28.52t1.48.49q.75.25 1.47.6.72.34 1.29.86.56.52.9 1.28.34.75.34 1.83 0 1.18-.4 2.21-.4 1.02-1.17 1.78-.78.77-1.89 1.2-1.12.44-2.56.44-.83 0-1.63-.16-.81-.16-1.54-.46-.74-.3-1.39-.72t-1.15-.94l.95-1.55q.12-.16.31-.28.19-.11.41-.11.3 0 .64.24.35.25.83.55t1.12.55q.65.24 1.55.24 1.38 0 2.13-.65.76-.66.76-1.88 0-.68-.34-1.12-.35-.43-.91-.72-.56-.3-1.28-.5t-1.47-.44q-.74-.24-1.46-.58t-1.29-.88q-.56-.54-.9-1.35t-.34-1.99q0-.95.37-1.85.38-.9 1.1-1.6.72-.69 1.78-1.11 1.05-.42 2.42-.42 1.54 0 2.83.48 1.3.48 2.21 1.34"/></svg>