<svg xmlns="http://www.w3.org/2000/svg" width="100" height="100" viewBox="0 0 100 100"><rect width="100%" height="100%" fill="#dc2626"/><path fill="#ffffff" d="M33.565 41.325v2.65h-5.23v14.7h-3.23v-14.7h-5.23v-2.65zm14.2 13.26q.26 0 .46.2l1.28 1.38q-1.06 1.31-2.6 2.01-1.54.69-3.7.69-1.94 0-3.48-.66t-2.63-1.83q-1.09-1.18-1.68-2.81-.58-1.63-.58-3.57 0-1.95.63-3.58.62-1.62 1.75-2.8 1.14-1.18 2.71-1.83t3.48-.65q1.9 0 3.37.62t2.5 1.63l-1.08 1.5q-.1.15-.25.25-.15.11-.41.11-.18 0-.37-.1-.2-.1-.42-.25-.23-.15-.53-.33t-.7-.33q-.39-.15-.92-.25-.52-.11-1.2-.11-1.17 0-2.13.42-.97.41-1.66 1.2-.7.78-1.08 1.92-.39 1.13-.39 2.58 0 1.47.42 2.61.41 1.14 1.12 1.92t1.67 1.19q.96.42 2.06.42.66 0 1.19-.08.54-.07.99-.22.45-.16.85-.41.4-.24.8-.6.12-.11.25-.18.13-.06.28-.06m7.18-4.54h2.42q.88 0 1.54-.22t1.1-.64q.44-.41.66-1 .21-.6.21-1.33 0-.7-.21-1.26-.22-.56-.65-.96t-1.09-.61-1.56-.21h-2.42zm-3.22-8.72h5.64q1.74 0 3.01.41 1.27.4 2.1 1.14.83.73 1.23 1.75t.4 2.23q0 1.26-.42 2.31t-1.26 1.81q-.84.75-2.11 1.17-1.26.42-2.95.42h-2.42v6.11h-3.22zm18.08 8.25h2.02q.91 0 1.59-.22.67-.23 1.11-.63.44-.41.66-.96.21-.55.21-1.21 0-1.32-.87-2.03t-2.66-.71h-2.06zm5.98 2.69 4.34 6.41h-2.92q-.82 0-1.2-.65l-3.64-5.55q-.21-.32-.45-.45-.25-.13-.73-.13h-1.38v6.78h-3.23v-17.35h5.29q1.77 0 3.03.36 1.27.37 2.08 1.03t1.19 1.58q.39.92.39 2.02 0 .88-.26 1.66t-.74 1.41q-.49.64-1.2 1.12-.72.48-1.63.75.31.18.58.43.26.25.48.58"/></svg>