<svg xmlns="http://www.w3.org/2000/svg" width="100" height="100" viewBox="0 0 100 100"><rect width="100%" height="100%" fill="#dc2626"/><path fill="#ffffff" d="M27.235 52.83h7.36l-2.81-7.69q-.21-.51-.43-1.22-.23-.7-.45-1.52-.21.82-.43 1.53-.23.71-.44 1.24zm5.88-14.4 9.08 23.14h-3.32q-.56 0-.92-.28-.35-.28-.52-.7l-1.73-4.72h-9.59l-1.72 4.72q-.13.37-.5.68-.37.3-.91.3h-3.36l9.1-23.14zm16.35 14.4h7.36l-2.82-7.69q-.21-.51-.43-1.22-.22-.7-.45-1.52-.21.82-.43 1.53t-.43 1.24zm5.87-14.4 9.09 23.14h-3.33q-.56 0-.91-.28t-.53-.7l-1.73-4.72h-9.58l-1.73 4.72q-.13.37-.5.68-.36.3-.91.3h-3.36l9.11-23.14zm15.79 19.59h9.25v3.55h-13.55V38.43h4.3z"/></svg>