<svg xmlns="http://www.w3.org/2000/svg" width="100" height="100" viewBox="0 0 100 100"><rect width="100%" height="100%" fill="#dc2626"/><path fill="#ffffff" d="M24.74 52.21h5.75l-2.2-6.01q-.17-.4-.34-.95-.18-.55-.35-1.19-.16.64-.34 1.2-.17.55-.34.97zm4.58-11.24 7.1 18.07h-2.6q-.43 0-.71-.22-.27-.22-.41-.54l-1.35-3.69h-7.49l-1.35 3.69q-.1.28-.39.52-.28.24-.71.24h-2.62l7.11-18.07zm19.44 1.69-.84 1.59q-.15.26-.31.38-.17.12-.42.12-.27 0-.57-.19-.31-.2-.73-.43-.43-.24-1-.43-.57-.2-1.34-.2-.7 0-1.23.17-.52.17-.88.47-.35.3-.53.72-.17.42-.17.92 0 .63.35 1.06.36.42.95.72.58.3 1.33.54t1.54.51 1.54.62q.75.36 1.34.9.58.55.94 1.33.36.79.36 1.92 0 1.22-.42 2.29t-1.23 1.86q-.8.8-1.97 1.25-1.16.46-2.66.46-.86 0-1.7-.17t-1.6-.48q-.77-.31-1.45-.75-.67-.44-1.2-.98l.99-1.61q.12-.17.32-.29t.43-.12q.31 0 .67.26.37.25.87.56.5.32 1.17.57.66.26 1.6.26 1.44 0 2.23-.68.78-.68.78-1.96 0-.71-.35-1.16-.36-.45-.95-.76-.58-.3-1.33-.52-.75-.21-1.53-.46-.77-.25-1.52-.6t-1.34-.91-.94-1.41q-.36-.84-.36-2.08 0-.99.39-1.92.4-.94 1.15-1.67.75-.72 1.85-1.16t2.52-.44q1.6 0 2.95.5t2.3 1.4m13.71 0-.83 1.59q-.15.26-.32.38t-.42.12q-.26 0-.57-.19-.31-.2-.73-.43-.43-.24-.99-.43-.57-.2-1.35-.2-.7 0-1.22.17-.53.17-.88.47-.36.3-.54.72-.17.42-.17.92 0 .63.36 1.06.35.42.94.72t1.34.54 1.53.51q.79.27 1.54.62.75.36 1.34.9.59.55.94 1.33.36.79.36 1.92 0 1.22-.42 2.29t-1.22 1.86q-.81.8-1.97 1.25-1.17.46-2.67.46-.86 0-1.7-.17-.83-.17-1.6-.48t-1.45-.75q-.67-.44-1.2-.98l.99-1.61q.13-.17.33-.29t.42-.12q.31 0 .68.26.36.25.86.56.5.32 1.17.57.67.26 1.6.26 1.44 0 2.23-.68t.79-1.96q0-.71-.36-1.16t-.94-.76q-.59-.3-1.34-.52-.75-.21-1.53-.46-.77-.25-1.52-.6t-1.34-.91-.94-1.41q-.36-.84-.36-2.08 0-.99.4-1.92.39-.94 1.14-1.67.75-.72 1.85-1.16t2.52-.44q1.6 0 2.95.5t2.3 1.4m7.05 9.55h5.75l-2.2-6.01q-.16-.4-.33-.95-.18-.55-.35-1.19-.16.64-.34 1.2-.17.55-.34.97zm4.59-11.24 7.1 18.07h-2.6q-.44 0-.71-.22t-.41-.54l-1.35-3.69h-7.49l-1.35 3.69q-.1.28-.39.52-.28.24-.71.24h-2.63l7.12-18.07z"/></svg>