<svg xmlns="http://www.w3.org/2000/svg" width="100" height="100" viewBox="0 0 100 100"><rect width="100%" height="100%" fill="#dc2626"/><path fill="#ffffff" d="M32.085 54.2q.24 0 .43.19l1.16 1.26q-.97 1.2-2.38 1.84t-3.39.64q-1.77 0-3.19-.61-1.41-.6-2.41-1.68t-1.54-2.58q-.53-1.49-.53-3.26 0-1.8.57-3.29t1.61-2.56q1.04-1.08 2.48-1.68t3.19-.6q1.74 0 3.09.57t2.29 1.5l-.99 1.37q-.09.13-.22.23-.14.1-.38.1-.17 0-.34-.09-.18-.1-.39-.23-.21-.14-.48-.31-.28-.16-.64-.3t-.84-.23-1.11-.09q-1.06 0-1.95.38t-1.52 1.1q-.64.72-.99 1.76-.36 1.04-.36 2.37 0 1.34.38 2.38.38 1.05 1.03 1.76.65.72 1.53 1.1t1.89.38q.61 0 1.1-.07.49-.06.9-.21.41-.14.78-.37.37-.22.73-.55.11-.1.23-.16t.26-.06m17.75-4.2q0 1.75-.58 3.21-.59 1.46-1.64 2.52-1.06 1.05-2.54 1.64-1.49.58-3.3.58h-6.06V42.04h6.06q1.81 0 3.3.59 1.48.59 2.54 1.64 1.05 1.05 1.64 2.52.58 1.46.58 3.21m-3.04 0q0-1.31-.34-2.35-.35-1.04-1-1.76-.66-.72-1.59-1.11-.93-.38-2.09-.38h-3.09v11.2h3.09q1.16 0 2.09-.39.93-.38 1.59-1.1.65-.72 1-1.76.34-1.04.34-2.35m16.76-7.96v2.44h-4.8v13.47h-2.96V44.48h-4.79v-2.44zM79.765 50q0 1.75-.58 3.21t-1.64 2.52q-1.06 1.05-2.54 1.64-1.49.58-3.3.58h-6.06V42.04h6.06q1.81 0 3.3.59 1.48.59 2.54 1.64t1.64 2.52q.58 1.46.58 3.21m-3.03 0q0-1.31-.35-2.35t-1-1.76q-.66-.72-1.59-1.11-.93-.38-2.09-.38h-3.09v11.2h3.09q1.16 0 2.09-.39.93-.38 1.59-1.1.65-.72 1-1.76t.35-2.35"/></svg>