<svg xmlns="http://www.w3.org/2000/svg" width="100" height="100" viewBox="0 0 100 100"><rect width="100%" height="100%" fill="#dc2626"/><path fill="#ffffff" d="M32.135 49.995q0 1.43-.48 2.63t-1.34 2.06q-.87.87-2.08 1.34-1.22.48-2.7.48h-4.96v-13.01h4.96q1.48 0 2.7.48 1.21.48 2.08 1.34.86.86 1.34 2.05.48 1.2.48 2.63m-2.49 0q0-1.07-.28-1.92-.29-.85-.82-1.44-.54-.59-1.3-.9-.76-.32-1.71-.32h-2.53v9.16h2.53q.95 0 1.71-.31.76-.32 1.3-.91.53-.59.82-1.44.28-.85.28-1.92m13.16-6.5h2.43v13.01h-2.43v-5.69h-6.11v5.69h-2.43v-13.01h2.43v5.59h6.11zm7.75 11.12h2.45q.67 0 1.13-.16t.73-.43q.28-.27.4-.63t.12-.77q0-.42-.13-.76-.14-.34-.43-.58-.28-.23-.74-.36-.45-.13-1.09-.13h-2.44zm2.06-9.25h-2.06v3.76h1.92q1.25 0 1.88-.45.64-.45.64-1.43 0-1.02-.58-1.45t-1.8-.43m-4.48-1.87h4.48q1.28 0 2.19.24t1.49.69.85 1.09.27 1.44q0 .46-.14.88-.13.42-.42.78-.28.37-.72.66-.43.3-1.04.51 2.69.6 2.69 2.89 0 .83-.32 1.53-.31.71-.92 1.22-.6.5-1.48.79t-2.02.29h-4.91zm24.14 0h1.82v13.01h-2.13v-8.41q0-.5.05-1.09l-3.93 7.39q-.28.53-.85.53h-.35q-.57 0-.85-.53l-3.98-7.41q.03.29.05.58.01.29.01.53v8.41h-2.13v-13.01h2.11q.11.01.21.05.09.04.17.12t.15.21l3.9 7.23q.15.29.28.59.13.31.25.63.13-.33.27-.64.13-.31.28-.6l3.85-7.21q.07-.13.15-.21t.18-.12q.09-.04.21-.05zm7.15 0v13.01h-2.43v-13.01z"/></svg>