<svg xmlns="http://www.w3.org/2000/svg" width="100" height="100" viewBox="0 0 100 100"><rect width="100%" height="100%" fill="#dc2626"/><path fill="#ffffff" d="M48.28 50q0 3.18-1.06 5.84t-2.98 4.58-4.62 2.98-6 1.06H22.6V35.54h11.02q3.3 0 6 1.07t4.62 2.98 2.98 4.57T48.28 50m-5.52 0q0-2.38-.63-4.27t-1.82-3.2-2.88-2.01-3.81-.7H28v20.36h5.62q2.12 0 3.81-.7t2.88-2.01 1.82-3.2.63-4.27m29.9-14.46h4.74v28.92h-2.76q-.64 0-1.07-.21t-.83-.71l-15.1-19.28q.12 1.32.12 2.44v17.76h-4.74V35.54h2.82q.34 0 .59.03t.44.12.37.26.4.45L72.8 55.76q-.06-.7-.1-1.38t-.04-1.26z"/></svg>