<svg xmlns="http://www.w3.org/2000/svg" width="100" height="100" viewBox="0 0 100 100"><rect width="100%" height="100%" fill="#dc2626"/><path fill="#ffffff" d="M32.295 43.895h-7.7v4.81h6.07v2.48h-6.07v4.91h7.7v2.58h-10.94v-17.35h10.94zm6.51 8.23h5.52l-2.11-5.77q-.16-.39-.33-.92-.17-.52-.33-1.14-.16.62-.33 1.15t-.32.93zm4.4-10.8 6.82 17.35h-2.5q-.42 0-.68-.21-.27-.21-.4-.52l-1.29-3.54h-7.19l-1.3 3.54q-.09.27-.37.5t-.68.23h-2.52l6.82-17.35zm20.53 13.26q.27 0 .47.2l1.27 1.38q-1.05 1.31-2.59 2.01-1.55.69-3.71.69-1.93 0-3.47-.66t-2.63-1.83q-1.1-1.18-1.68-2.81t-.58-3.57q0-1.95.62-3.58.63-1.62 1.76-2.8 1.14-1.18 2.71-1.83t3.48-.65q1.89 0 3.36.62t2.51 1.63l-1.08 1.5q-.1.15-.25.25-.15.11-.41.11-.18 0-.38-.1-.19-.1-.42-.25-.22-.15-.52-.33t-.7-.33-.92-.25q-.52-.11-1.2-.11-1.17 0-2.13.42-.97.41-1.67 1.2-.69.78-1.08 1.92-.38 1.13-.38 2.58 0 1.47.41 2.61.42 1.14 1.13 1.92.7.78 1.66 1.19.96.42 2.07.42.66 0 1.19-.08.54-.07.99-.22.45-.16.85-.41.4-.24.8-.6.12-.11.25-.18.13-.06.27-.06m14.91-10.69h-7.71v4.81h6.08v2.48h-6.08v4.91h7.71v2.58h-10.95v-17.35h10.95z"/></svg>