<svg xmlns="http://www.w3.org/2000/svg" width="100" height="100" viewBox="0 0 100 100"><rect width="100%" height="100%" fill="#dc2626"/><path fill="#ffffff" d="M29.35 44.91h-6.42v4.01h5.06v2.07h-5.06v4.09h6.42v2.15h-9.12V42.77h9.12zm5.42 6.86h4.6l-1.76-4.81q-.13-.32-.27-.76t-.28-.95q-.13.51-.27.95-.14.45-.27.78zm3.67-9 5.68 14.46h-2.08q-.35 0-.57-.18-.22-.17-.33-.43l-1.08-2.95h-5.99l-1.08 2.95q-.08.23-.31.42t-.57.19h-2.1l5.69-14.46zm9.87 0v6.06h.63q.38 0 .63-.11.25-.1.43-.33l3.99-5.05q.25-.32.53-.45.27-.12.69-.12h2.32l-4.87 6.01q-.43.55-.89.78.33.12.6.34.26.21.5.56l5.02 6.77h-2.37q-.48 0-.72-.14-.23-.13-.39-.39l-4.09-5.34q-.19-.27-.44-.38t-.72-.11h-.85v6.36h-2.69V42.77zm20.14 2.14h-6.42v4.28h5.42v2.15h-5.42v5.89h-2.7V42.77h9.12zm11.32 0h-6.42v4.28h5.42v2.15h-5.42v5.89h-2.7V42.77h9.12z"/></svg>