<svg xmlns="http://www.w3.org/2000/svg" width="100" height="100" viewBox="0 0 100 100"><rect width="100%" height="100%" fill="#dc2626"/><path fill="#ffffff" d="M31.055 44.145h-7.38v4.61h5.82v2.38h-5.82v4.71h7.38v2.47h-10.49v-16.63h10.49zm5.84-2.46v16.63h-3.1v-16.63zm11.91 8.29h5.52v6.73q-1.27.93-2.7 1.36t-3.07.43q-2.03 0-3.68-.63t-2.82-1.76q-1.17-1.12-1.8-2.69-.63-1.56-.63-3.41 0-1.88.61-3.44.61-1.57 1.73-2.69 1.12-1.13 2.72-1.75t3.59-.62q1.01 0 1.89.16t1.63.44q.76.28 1.38.68.62.41 1.13.89l-.88 1.4q-.21.34-.54.41-.33.08-.73-.16-.38-.22-.75-.44-.38-.22-.85-.38t-1.05-.27q-.58-.1-1.34-.1-1.23 0-2.22.41-1 .42-1.7 1.19t-1.08 1.85-.38 2.42q0 1.42.41 2.54t1.15 1.9 1.79 1.18q1.04.41 2.33.41.92 0 1.65-.19.72-.2 1.41-.53v-3.01h-2.09q-.3 0-.47-.17-.16-.17-.16-.41zm28.21-8.29h2.42l-5.16 16.63h-2.8l-3.63-11.36q-.15-.42-.28-1.01-.06.28-.13.54-.07.25-.15.47l-3.67 11.36h-2.81l-5.15-16.63h2.59q.4 0 .67.19t.36.51l2.83 9.95q.09.37.18.8t.18.9q.09-.48.2-.91.11-.42.24-.79l3.26-9.95q.09-.26.36-.48t.66-.22h.91q.41 0 .66.2.25.19.38.5l3.25 9.95q.24.71.44 1.64.15-.9.33-1.64l2.83-9.95q.07-.28.35-.49t.68-.21"/></svg>