<svg xmlns="http://www.w3.org/2000/svg" width="100" height="100" viewBox="0 0 100 100"><rect width="100%" height="100%" fill="#dc2626"/><path fill="#ffffff" d="M25.875 49.985h3.84v4.68q-.88.65-1.88.95t-2.13.3q-1.42 0-2.57-.44-1.14-.44-1.96-1.23-.81-.78-1.25-1.87t-.44-2.37q0-1.31.43-2.4.42-1.08 1.2-1.87.78-.78 1.89-1.21 1.11-.44 2.5-.44.7 0 1.31.12.62.11 1.14.3.52.2.96.48.43.28.79.62l-.62.97q-.14.23-.37.29-.24.05-.51-.12-.26-.15-.53-.3-.26-.16-.58-.27-.33-.11-.73-.18-.41-.07-.93-.07-.86 0-1.55.28-.69.29-1.18.83-.49.53-.75 1.29-.27.75-.27 1.68 0 .99.29 1.77.28.78.8 1.32.51.54 1.24.82.73.29 1.62.29.64 0 1.15-.14.5-.14.98-.37v-2.09h-1.45q-.21 0-.33-.12-.11-.12-.11-.28zm10.57 4.06q.63 0 1.12-.2.49-.21.83-.59.33-.37.51-.91t.18-1.2v-6.93h2.15v6.93q0 1.03-.33 1.91-.33.87-.95 1.51t-1.51.99q-.89.36-2 .36-1.12 0-2.01-.36-.88-.35-1.5-.99t-.96-1.51q-.33-.88-.33-1.91v-6.93h2.15v6.92q0 .67.18 1.2.18.54.52.92t.84.59q.49.2 1.11.2m20.93-9.83h1.69l-3.59 11.57h-1.95l-2.53-7.9q-.1-.29-.19-.71-.05.2-.09.38-.05.17-.11.33l-2.55 7.9h-1.95l-3.59-11.57h1.8q.28 0 .47.13.19.14.25.36l1.97 6.92q.07.26.13.56t.12.62q.06-.33.14-.63.08-.29.16-.55l2.28-6.92q.06-.18.25-.34.19-.15.46-.15h.63q.28 0 .46.14.17.13.26.35l2.26 6.92q.17.5.31 1.14.1-.63.23-1.14l1.97-6.92q.05-.2.24-.34.2-.15.47-.15m11.06 8.84q.17 0 .31.14l.85.92q-.71.87-1.74 1.33-1.02.47-2.46.47-1.29 0-2.32-.44t-1.76-1.23q-.72-.78-1.11-1.87t-.39-2.37q0-1.31.42-2.39.41-1.09 1.17-1.87.75-.78 1.8-1.22t2.32-.44 2.25.42 1.66 1.09l-.72 1q-.06.09-.16.17-.1.07-.28.07-.12 0-.24-.07-.13-.07-.28-.17-.16-.1-.36-.22t-.46-.22-.61-.17q-.35-.06-.81-.06-.77 0-1.42.27-.64.28-1.1.8-.47.53-.72 1.28-.26.76-.26 1.73t.28 1.73q.27.76.74 1.28.48.52 1.12.8.64.27 1.37.27.44 0 .8-.04.35-.05.65-.16.3-.1.57-.26.27-.17.53-.41.08-.07.17-.11.09-.05.19-.05m7.29.99q.63 0 1.12-.2.49-.21.83-.59.33-.37.51-.91t.18-1.2v-6.93h2.15v6.93q0 1.03-.33 1.91-.33.87-.95 1.51t-1.51.99q-.89.36-2 .36-1.12 0-2.01-.36-.88-.35-1.5-.99t-.96-1.51q-.33-.88-.33-1.91v-6.93h2.15v6.92q0 .67.18 1.2.18.54.52.92t.84.59q.49.2 1.11.2"/></svg>