<svg xmlns="http://www.w3.org/2000/svg" width="100" height="100" viewBox="0 0 100 100"><rect width="100%" height="100%" fill="#dc2626"/><path fill="#ffffff" d="M26.655 36.27v27.47h-5.13V36.27zm24.17 0h5.13v27.47h-5.13V51.73h-12.9v12.01h-5.13V36.27h5.13v11.81h12.9zm27.15 2.58-1.27 2.41q-.23.4-.48.58-.26.18-.64.18-.4 0-.87-.29-.46-.3-1.11-.66-.64-.36-1.51-.65-.86-.3-2.04-.3-1.06 0-1.86.26t-1.34.71q-.54.46-.81 1.09-.26.64-.26 1.4 0 .97.54 1.62.54.64 1.43 1.1.89.45 2.03.81 1.14.37 2.34.77 1.2.41 2.34.95 1.14.55 2.03 1.37.89.83 1.44 2.03.54 1.19.54 2.9 0 1.86-.64 3.49-.64 1.62-1.86 2.83-1.23 1.21-2.99 1.9-1.77.69-4.05.69-1.31 0-2.58-.25-1.28-.26-2.45-.73-1.16-.48-2.19-1.14-1.03-.67-1.82-1.49l1.5-2.45q.19-.26.49-.44t.65-.18q.47 0 1.02.39t1.31.86 1.78.86 2.44.39q2.19 0 3.38-1.03 1.2-1.04 1.2-2.97 0-1.09-.54-1.77-.54-.69-1.44-1.15-.89-.47-2.03-.79t-2.32-.7q-1.17-.38-2.31-.92-1.14-.53-2.04-1.38-.89-.86-1.43-2.14t-.54-3.16q0-1.5.6-2.93.59-1.42 1.73-2.53 1.14-1.1 2.82-1.76 1.67-.67 3.83-.67 2.44 0 4.49.76t3.49 2.13"/></svg>