<svg xmlns="http://www.w3.org/2000/svg" width="100" height="100" viewBox="0 0 100 100"><rect width="100%" height="100%" fill="#dc2626"/><path fill="#ffffff" d="M25.17 49.435h2.69q1.22 0 2.12-.3.91-.31 1.49-.84.58-.54.87-1.27.29-.74.29-1.62 0-1.76-1.16-2.7-1.16-.95-3.54-.95h-2.76zm7.97 3.59 5.79 8.54h-3.88q-1.11 0-1.6-.86l-4.87-7.41q-.27-.42-.6-.59-.33-.18-.97-.18h-1.84v9.04h-4.3v-23.14h7.06q2.35 0 4.04.49 1.68.49 2.76 1.37t1.6 2.1q.51 1.23.51 2.7 0 1.17-.35 2.21-.34 1.04-.99 1.89-.65.84-1.6 1.48t-2.17 1.01q.42.24.77.57t.64.78m24.19 3.08q.36 0 .63.28l1.69 1.84q-1.4 1.74-3.46 2.67t-4.94.93q-2.57 0-4.63-.88-2.05-.88-3.51-2.45t-2.23-3.75q-.78-2.17-.78-4.75 0-2.61.83-4.77.84-2.17 2.35-3.74t3.61-2.44q2.09-.87 4.64-.87 2.52 0 4.48.83t3.34 2.18l-1.44 2q-.13.19-.33.33-.2.15-.55.15-.24 0-.5-.14-.25-.14-.56-.34-.3-.2-.7-.44t-.93-.44-1.22-.33q-.7-.14-1.61-.14-1.55 0-2.84.55-1.29.56-2.22 1.6-.92 1.05-1.44 2.56-.51 1.52-.51 3.45 0 1.95.55 3.47.56 1.52 1.5 2.56t2.22 1.6q1.28.55 2.76.55.88 0 1.59-.1.71-.09 1.31-.3t1.14-.54q.53-.33 1.06-.81.16-.14.34-.23.17-.09.36-.09m9.59-6.04h3.21q1.19 0 2.07-.3t1.46-.85q.59-.55.87-1.34.29-.79.29-1.77 0-.93-.29-1.68-.28-.75-.86-1.28t-1.46-.81-2.08-.28h-3.21zm-4.31-11.64h7.52q2.32 0 4.02.55 1.7.54 2.8 1.52 1.1.97 1.64 2.33t.54 2.98q0 1.68-.56 3.08t-1.68 2.41-2.81 1.57-3.95.56h-3.21v8.14h-4.31z"/></svg>