<svg xmlns="http://www.w3.org/2000/svg" width="100" height="100" viewBox="0 0 100 100"><rect width="100%" height="100%" fill="#dc2626"/><path fill="#ffffff" d="M23.28 50.04h2.21q.82 0 1.42-.2.61-.21 1.01-.59.4-.37.6-.92.2-.54.2-1.21 0-.64-.2-1.16t-.59-.88q-.4-.36-1.01-.56-.6-.19-1.43-.19h-2.21zm-2.95-8h5.16q1.6 0 2.77.38 1.16.37 1.92 1.04t1.13 1.61q.37.93.37 2.05 0 1.15-.39 2.11-.38.97-1.15 1.66t-1.93 1.08q-1.16.38-2.72.38h-2.21v5.6h-2.95zm16.96 9.9h5.06l-1.94-5.29q-.14-.35-.3-.83-.15-.49-.3-1.05-.15.56-.3 1.05-.16.49-.3.86zm4.03-9.9 6.25 15.91h-2.29q-.38 0-.62-.19-.25-.19-.37-.48l-1.18-3.25h-6.59l-1.19 3.25q-.09.25-.34.46-.26.21-.63.21h-2.31l6.26-15.91zm19.14 0h2.39l-6.42 15.91h-2.68l-6.42-15.91h2.38q.38 0 .62.19t.37.49l3.75 9.7q.18.47.35 1.04.17.56.33 1.18.13-.62.28-1.18.16-.57.35-1.04l3.72-9.7q.09-.26.35-.47t.63-.21M79.67 50q0 1.75-.58 3.24t-1.63 2.58q-1.06 1.09-2.54 1.7-1.49.61-3.3.61t-3.29-.61q-1.49-.61-2.55-1.7t-1.64-2.58q-.59-1.49-.59-3.24t.59-3.24q.58-1.49 1.64-2.58t2.55-1.7q1.48-.61 3.29-.61 1.21 0 2.27.28 1.07.28 1.96.79t1.6 1.24q.71.74 1.21 1.64.49.9.75 1.96.26 1.05.26 2.22m-3.03 0q0-1.31-.35-2.35t-1-1.77q-.65-.72-1.58-1.11-.93-.38-2.09-.38-1.17 0-2.1.38-.93.39-1.58 1.11-.66.73-1.01 1.77T66.58 50t.35 2.35 1.01 1.76q.65.72 1.58 1.1.93.39 2.1.39 1.16 0 2.09-.39.93-.38 1.58-1.1t1-1.76.35-2.35"/></svg>