<svg xmlns="http://www.w3.org/2000/svg" width="100" height="100" viewBox="0 0 100 100"><rect width="100%" height="100%" fill="#dc2626"/><path fill="#ffffff" d="M27.645 49.215h3.78q1.71 0 2.98-.43t2.09-1.18q.83-.76 1.23-1.79.41-1.04.41-2.27 0-2.48-1.64-3.81-1.63-1.33-4.98-1.33h-3.87zm11.21 5.04 8.14 12.01h-5.47q-1.55 0-2.25-1.21l-6.84-10.42q-.38-.59-.84-.83-.46-.25-1.36-.25h-2.59v12.71h-6.05v-32.53h9.92q3.31 0 5.68.68 2.38.69 3.89 1.93 1.52 1.23 2.24 2.95.72 1.73.72 3.79 0 1.65-.48 3.11t-1.39 2.66q-.92 1.19-2.25 2.09-1.34.9-3.05 1.42.58.33 1.08.79.49.47.9 1.1m18.51-.28h10.35l-3.96-10.82q-.29-.72-.6-1.71-.32-.99-.63-2.13-.3 1.14-.61 2.14-.32 1.01-.61 1.75zm8.26-20.24 12.78 32.53h-4.68q-.79 0-1.28-.39-.5-.4-.74-.98l-2.43-6.64h-13.48l-2.43 6.64q-.18.52-.7.94-.52.43-1.28.43h-4.73l12.81-32.53z"/></svg>