<svg xmlns="http://www.w3.org/2000/svg" width="100" height="100" viewBox="0 0 100 100"><rect width="100%" height="100%" fill="#dc2626"/><path fill="#ffffff" d="m29.485 44.13-.67 1.27q-.13.21-.26.3-.13.1-.33.1-.22 0-.46-.16-.24-.15-.58-.34t-.8-.35q-.45-.15-1.07-.15-.56 0-.98.14-.42.13-.71.37-.28.24-.42.57-.14.34-.14.74 0 .51.28.85.29.34.76.58t1.07.43 1.23.4q.63.22 1.23.51.6.28 1.07.71.47.44.75 1.07.29.63.29 1.53 0 .98-.34 1.84-.33.85-.98 1.48-.64.64-1.57 1-.93.37-2.13.37-.69 0-1.36-.13-.67-.14-1.29-.39-.61-.25-1.15-.6t-.96-.78l.79-1.29q.1-.14.26-.24.16-.09.34-.09.25 0 .54.2.29.21.69.46t.93.45q.54.21 1.29.21 1.15 0 1.78-.54.63-.55.63-1.57 0-.57-.29-.93-.28-.36-.75-.61-.47-.24-1.07-.41t-1.22-.37-1.22-.48-1.07-.73-.76-1.12q-.28-.68-.28-1.67 0-.79.31-1.54.32-.75.92-1.33t1.48-.93 2.02-.35q1.28 0 2.36.4t1.84 1.12m5.29 10.88h5.78v2.22h-8.47V42.77h2.69zm16.07-10.88-.67 1.27q-.12.21-.26.3-.13.1-.33.1-.21 0-.46-.16-.24-.15-.58-.34t-.8-.35q-.45-.15-1.07-.15-.56 0-.98.14-.42.13-.71.37-.28.24-.42.57-.14.34-.14.74 0 .51.28.85.29.34.76.58t1.07.43 1.23.4q.63.22 1.23.51.6.28 1.07.71.47.44.75 1.07.29.63.29 1.53 0 .98-.34 1.84-.33.85-.98 1.48-.64.64-1.57 1-.93.37-2.13.37-.69 0-1.36-.13-.67-.14-1.29-.39-.61-.25-1.15-.6t-.96-.78l.79-1.29q.1-.14.26-.24.16-.09.34-.09.25 0 .54.2.29.21.69.46t.93.45q.54.21 1.29.21 1.15 0 1.78-.54.63-.55.63-1.57 0-.57-.29-.93-.28-.36-.75-.61-.47-.24-1.07-.41t-1.22-.37-1.22-.48-1.07-.73-.76-1.12q-.28-.68-.28-1.67 0-.79.31-1.54.32-.75.92-1.33t1.48-.93 2.02-.35q1.28 0 2.36.4t1.84 1.12M66.285 50q0 1.59-.53 2.92t-1.49 2.29-2.31 1.49-3 .53h-5.51V42.77h5.51q1.65 0 3 .53 1.35.54 2.31 1.49.96.96 1.49 2.29t.53 2.92m-2.76 0q0-1.19-.32-2.14-.31-.94-.91-1.59-.59-.66-1.44-1.01-.84-.35-1.9-.35h-2.81v10.18h2.81q1.06 0 1.9-.35.85-.35 1.44-1.01.6-.65.91-1.59.32-.95.32-2.14m15.06 3.82q.21 0 .39.17l1.06 1.15q-.88 1.09-2.17 1.67-1.28.58-3.08.58-1.61 0-2.9-.55t-2.2-1.53-1.39-2.34-.48-2.97q0-1.63.52-2.98.51-1.36 1.46-2.34t2.25-1.53q1.32-.54 2.91-.54 1.58 0 2.8.52t2.09 1.36l-.91 1.25q-.07.12-.2.21-.12.09-.34.09-.15 0-.31-.09-.16-.08-.36-.2-.18-.13-.43-.28t-.58-.28q-.33-.12-.77-.21-.43-.08-1.01-.08-.96 0-1.77.35-.8.34-1.38 1-.58.65-.9 1.6-.32.94-.32 2.15 0 1.22.34 2.17.35.95.94 1.6t1.39 1q.8.34 1.72.34.55 0 .99-.06.45-.06.82-.19.38-.13.71-.34.34-.2.67-.5.1-.09.21-.14.11-.06.23-.06"/></svg>