<svg xmlns="http://www.w3.org/2000/svg" width="100" height="100" viewBox="0 0 100 100"><rect width="100%" height="100%" fill="#dc2626"/><path fill="#ffffff" d="M39.445 37.71v3.75h-7.41v20.83h-4.57V41.46h-7.41v-3.75zm2.08 0h16.98v1.82q0 .81-.17 1.31-.17.51-.34.85l-9.32 19.17q-.28.6-.81 1.01-.53.42-1.41.42h-3.05l9.51-18.79q.32-.57.64-1.06.31-.48.7-.92h-11.76q-.39 0-.68-.29t-.29-.68zm25.45 12.36h3.41q1.26 0 2.2-.32.93-.31 1.55-.9t.93-1.43.31-1.88q0-.98-.31-1.78t-.92-1.36-1.55-.86q-.93-.3-2.21-.3h-3.41zm-4.58-12.36h7.99q2.47 0 4.27.58 1.8.57 2.98 1.61 1.17 1.04 1.74 2.48.57 1.45.57 3.16 0 1.79-.6 3.28-.59 1.48-1.78 2.56-1.19 1.07-2.99 1.66-1.79.6-4.19.6h-3.41v8.65h-4.58z"/></svg>