<svg xmlns="http://www.w3.org/2000/svg" width="100" height="100" viewBox="0 0 100 100"><rect width="100%" height="100%" fill="#dc2626"/><path fill="#ffffff" d="M31.39 42.41v2.32h-4.58v12.86h-2.82V44.73h-4.58v-2.32zm12.42 11.6q.24 0 .41.18l1.12 1.21q-.93 1.14-2.28 1.75t-3.24.61q-1.69 0-3.04-.58-1.34-.58-2.3-1.61t-1.47-2.45q-.5-1.43-.5-3.12 0-1.71.54-3.14.55-1.42 1.54-2.45t2.37-1.6q1.37-.57 3.04-.57 1.66 0 2.95.54 1.28.55 2.19 1.43l-.95 1.32q-.08.12-.21.22-.13.09-.37.09-.15 0-.32-.09t-.37-.22-.46-.29-.61-.29-.8-.22q-.46-.09-1.06-.09-1.02 0-1.86.37-.85.36-1.46 1.05-.6.68-.94 1.68-.34.99-.34 2.26 0 1.28.37 2.28.36.99.98 1.68.62.68 1.46 1.04t1.8.36q.58 0 1.05-.06.46-.06.86-.2.39-.14.74-.35.36-.22.7-.53.11-.1.22-.15.12-.06.24-.06m6.3-11.6v15.18h-2.83V42.41zm14 0v2.32h-4.58v12.86h-2.82V44.73h-4.58v-2.32zM80.59 50q0 1.67-.56 3.09-.55 1.42-1.56 2.46-1 1.04-2.42 1.63-1.42.58-3.15.58-1.72 0-3.14-.58-1.42-.59-2.43-1.63t-1.57-2.46T65.2 50t.56-3.09q.56-1.43 1.57-2.47t2.43-1.62 3.14-.58q1.15 0 2.17.27 1.02.26 1.87.75t1.53 1.19 1.15 1.56.72 1.87.25 2.12m-2.89 0q0-1.25-.34-2.24-.33-1-.95-1.69t-1.51-1.06-2-.37-2 .37-1.51 1.06q-.63.69-.96 1.69-.34.99-.34 2.24t.34 2.24q.33.99.96 1.68.62.69 1.51 1.06.89.36 2 .36t2-.36q.89-.37 1.51-1.06t.95-1.68q.34-.99.34-2.24"/></svg>