<svg xmlns="http://www.w3.org/2000/svg" width="100" height="100" viewBox="0 0 100 100"><rect width="100%" height="100%" fill="#dc2626"/><path fill="#ffffff" d="M30.015 43.13v2.1h-4.14v11.64h-2.56V45.23h-4.14v-2.1zm14 6.87q0 1.51-.5 2.78-.5 1.26-1.41 2.17-.92.91-2.2 1.42-1.28.5-2.85.5h-5.23V43.13h5.23q1.57 0 2.85.51t2.2 1.42q.91.9 1.41 2.17.5 1.26.5 2.77m-2.62 0q0-1.13-.3-2.03-.3-.89-.86-1.52-.57-.62-1.37-.95t-1.81-.33h-2.67v9.67h2.67q1.01 0 1.81-.34.8-.33 1.37-.95.56-.62.86-1.52t.3-2.03m7.76 1.68h4.37l-1.67-4.57q-.12-.3-.25-.72-.14-.42-.27-.9-.12.48-.26.91-.13.42-.25.73zm3.49-8.55 5.4 13.74h-1.98q-.33 0-.54-.17-.21-.16-.31-.41l-1.03-2.8h-5.69l-1.03 2.8q-.07.22-.29.4t-.54.18h-2l5.41-13.74zm9.38 6.91h1.91q.7 0 1.22-.18.52-.17.87-.5t.52-.8.17-1.05q0-.55-.17-1-.17-.44-.51-.76-.35-.31-.87-.47-.52-.17-1.23-.17h-1.91zm-2.56-6.91h4.47q1.37 0 2.38.33 1.01.32 1.66.9.66.58.98 1.39.32.8.32 1.76 0 1-.34 1.83-.33.83-.99 1.43-.67.6-1.67.93t-2.34.33h-1.91v4.84h-2.56zm21.36 0v2.1h-4.14v11.64h-2.56V45.23h-4.14v-2.1z"/></svg>