<svg xmlns="http://www.w3.org/2000/svg" width="100" height="100" viewBox="0 0 100 100"><rect width="100%" height="100%" fill="#dc2626"/><path fill="#ffffff" d="M32.34 42.41v2.32h-4.58v12.86h-2.83V44.73h-4.57v-2.32zm12.6 0v2.32h-4.58v12.86h-2.83V44.73h-4.57v-2.32zm4.82 7.63h2.11q.77 0 1.35-.19.58-.2.96-.56.39-.36.57-.88.19-.52.19-1.16 0-.61-.19-1.11-.18-.49-.56-.84-.38-.34-.96-.53-.58-.18-1.36-.18h-2.11zm-2.83-7.63h4.94q1.52 0 2.63.35 1.12.36 1.84 1t1.08 1.53q.35.9.35 1.96 0 1.1-.37 2.02t-1.1 1.58q-.74.66-1.84 1.03-1.11.37-2.59.37h-2.11v5.34h-2.83zm15.84 0v15.18h-2.84V42.41zM79.64 50q0 1.67-.56 3.06-.55 1.4-1.56 2.41t-2.43 1.56q-1.41.56-3.15.56h-5.78V42.41h5.78q1.74 0 3.15.56 1.42.56 2.43 1.56 1.01 1.01 1.56 2.4.56 1.4.56 3.07m-2.9 0q0-1.25-.33-2.24-.33-1-.95-1.68-.63-.69-1.52-1.06-.88-.37-2-.37h-2.95v10.69h2.95q1.12 0 2-.36.89-.37 1.52-1.06.62-.69.95-1.68t.33-2.24"/></svg>