<svg xmlns="http://www.w3.org/2000/svg" width="100" height="100" viewBox="0 0 100 100"><rect width="100%" height="100%" fill="#dc2626"/><path fill="#ffffff" d="M26.405 52.3h5.98l-2.28-6.25q-.17-.42-.36-.99-.18-.57-.36-1.23-.17.66-.35 1.24t-.35 1zm4.77-11.7 7.39 18.8h-2.71q-.45 0-.74-.23-.28-.23-.43-.56l-1.4-3.84h-7.79l-1.4 3.84q-.1.3-.4.54-.3.25-.74.25h-2.73l7.39-18.8zm18.59 9.37h6.24v7.61q-1.43 1.05-3.04 1.54-1.62.49-3.47.49-2.3 0-4.17-.72-1.86-.71-3.18-1.99-1.32-1.27-2.03-3.04-.72-1.77-.72-3.86 0-2.12.69-3.89.69-1.76 1.96-3.04 1.26-1.27 3.07-1.97 1.81-.71 4.06-.71 1.14 0 2.13.19 1 .18 1.85.5.85.31 1.55.77.71.45 1.29 1l-1 1.59q-.23.37-.61.46-.38.08-.82-.19-.43-.25-.86-.49-.43-.25-.95-.43-.53-.19-1.19-.3-.65-.12-1.51-.12-1.39 0-2.52.47-1.12.47-1.91 1.34-.8.87-1.23 2.09-.42 1.22-.42 2.73 0 1.61.46 2.88t1.3 2.15q.84.87 2.02 1.33 1.18.47 2.64.47 1.04 0 1.86-.23.82-.22 1.6-.59V52.6h-2.37q-.34 0-.53-.19t-.19-.46zm27.37-9.37h2.64v18.8h-3.08V47.26q0-.73.08-1.58l-5.69 10.68q-.4.76-1.23.76h-.49q-.84 0-1.24-.76l-5.75-10.71q.04.42.07.84t.03.77V59.4h-3.09V40.6h2.64q.24 0 .41.01.17.02.3.07.14.05.25.17t.21.31l5.63 10.44q.22.42.41.86t.37.91q.18-.48.38-.93.19-.45.42-.87l5.55-10.41q.1-.19.22-.31.11-.12.25-.17t.31-.07q.17-.01.4-.01"/></svg>