<svg xmlns="http://www.w3.org/2000/svg" width="100" height="100" viewBox="0 0 100 100"><rect width="100%" height="100%" fill="#dc2626"/><path fill="#ffffff" d="M27.295 61.545h6.12q1.69 0 2.84-.41t1.83-1.08q.69-.67.99-1.58.31-.9.31-1.91 0-1.05-.34-1.9-.34-.84-1.06-1.44-.72-.59-1.86-.91-1.13-.31-2.73-.31h-6.1zm5.15-23.14h-5.15v9.41h4.82q3.1 0 4.69-1.12 1.58-1.13 1.58-3.58 0-2.55-1.43-3.62-1.44-1.09-4.51-1.09m-11.2-4.67h11.2q3.2 0 5.47.6 2.27.61 3.73 1.73 1.45 1.13 2.12 2.73.68 1.59.68 3.6 0 1.15-.34 2.19-.34 1.05-1.05 1.96-.7.91-1.8 1.65-1.09.75-2.6 1.26 6.71 1.51 6.71 7.25 0 2.07-.79 3.82-.78 1.76-2.29 3.03t-3.72 1.99q-2.2.72-5.04.72h-12.28zm36.47 20.24h10.35l-3.96-10.82q-.29-.72-.6-1.71-.32-.99-.63-2.13-.3 1.14-.61 2.14-.32 1.01-.61 1.75zm8.26-20.24 12.78 32.53h-4.68q-.79 0-1.28-.39-.5-.4-.75-.98l-2.43-6.64h-13.47l-2.43 6.64q-.18.52-.7.94-.52.43-1.28.43h-4.73l12.81-32.53z"/></svg>