<svg xmlns="http://www.w3.org/2000/svg" width="100" height="100" viewBox="0 0 100 100"><rect width="100%" height="100%" fill="#dc2626"/><path fill="#ffffff" d="M50.165 49.995q0 3.5-1.16 6.43-1.17 2.92-3.28 5.04-2.11 2.11-5.08 3.27-2.97 1.17-6.6 1.17h-12.13v-31.81h12.13q3.63 0 6.6 1.18 2.97 1.17 5.08 3.27t3.28 5.03q1.16 2.93 1.16 6.42m-6.07 0q0-2.61-.69-4.69-.7-2.08-2.01-3.52-1.3-1.44-3.16-2.21t-4.19-.77h-6.19v22.39h6.19q2.33 0 4.19-.77t3.16-2.21q1.31-1.44 2.01-3.52.69-2.08.69-4.7m17.2.09h4.42q1.63 0 2.84-.4 1.21-.41 2.02-1.17.8-.76 1.19-1.85.4-1.09.4-2.43 0-1.28-.4-2.31-.39-1.03-1.18-1.76-.8-.73-2.01-1.11-1.21-.39-2.86-.39h-4.42zm-5.92-15.99h10.34q3.19 0 5.53.75 2.33.74 3.85 2.09 1.51 1.34 2.25 3.21t.74 4.09q0 2.31-.77 4.24-.77 1.92-2.31 3.31-1.54 1.38-3.86 2.15t-5.43.77h-4.42v11.2h-5.92z"/></svg>