<svg xmlns="http://www.w3.org/2000/svg" width="100" height="100" viewBox="0 0 100 100"><rect width="100%" height="100%" fill="#dc2626"/><path fill="#ffffff" d="M33.745 42.87h-8.99v5.99h7.59v3.01h-7.59v8.25h-3.78V39.88h12.77zm27.06-2.99h2.96l-6.29 20.24h-3.4l-4.43-13.83q-.18-.51-.33-1.23-.09.35-.17.65-.08.31-.18.58l-4.47 13.83h-3.41l-6.28-20.24h3.15q.49 0 .82.23t.44.62l3.45 12.11q.11.45.22.97.1.53.21 1.1.11-.59.25-1.1.13-.52.28-.97l3.98-12.11q.11-.32.44-.59.33-.26.81-.26h1.1q.49 0 .8.23.31.24.46.62l3.96 12.11q.3.87.54 2 .18-1.1.4-2l3.45-12.11q.08-.35.42-.6.35-.25.82-.25m18.22 2.99h-8.99v5.99h7.59v3.01h-7.59v8.25h-3.78V39.88h12.77z"/></svg>