<svg xmlns="http://www.w3.org/2000/svg" width="100" height="100" viewBox="0 0 100 100"><rect width="100%" height="100%" fill="#dc2626"/><path fill="#ffffff" d="M38.85 49.955h10.56v12.87q-2.42 1.78-5.16 2.61-2.74.82-5.86.82-3.9 0-7.06-1.21-3.15-1.21-5.39-3.36-2.23-2.16-3.44-5.15t-1.21-6.54q0-3.58 1.17-6.57 1.16-3 3.31-5.15 2.14-2.16 5.2-3.35 3.06-1.18 6.87-1.18 1.93 0 3.61.3 1.69.31 3.13.85t2.63 1.31 2.18 1.69l-1.7 2.69q-.39.64-1.03.78t-1.39-.32q-.72-.42-1.45-.84-.73-.41-1.62-.72t-2-.51-2.56-.2q-2.36 0-4.26.8-1.9.79-3.24 2.26-1.35 1.48-2.07 3.54-.73 2.07-.73 4.62 0 2.73.78 4.88.78 2.14 2.2 3.63 1.42 1.48 3.42 2.26 2.01.78 4.47.78 1.76 0 3.15-.37 1.38-.37 2.7-1.01v-5.77h-4q-.57 0-.89-.31-.32-.32-.32-.79zm22.2 11.33h5.98q1.65 0 2.77-.4 1.12-.39 1.79-1.05.68-.66.97-1.54.3-.88.3-1.87 0-1.04-.33-1.86-.33-.83-1.03-1.41-.71-.58-1.82-.89t-2.67-.31h-5.96zm5.03-22.62h-5.03v9.2h4.7q3.04 0 4.59-1.1t1.55-3.5q0-2.48-1.41-3.54-1.4-1.06-4.4-1.06m-10.95-4.57h10.95q3.13 0 5.35.59 2.22.6 3.64 1.7t2.08 2.66.66 3.52q0 1.12-.33 2.14-.33 1.03-1.02 1.92-.7.89-1.76 1.61-1.07.73-2.54 1.24 6.55 1.47 6.55 7.08 0 2.02-.77 3.74t-2.24 2.96q-1.48 1.24-3.63 1.95-2.16.7-4.93.7H55.13z"/></svg>