<svg xmlns="http://www.w3.org/2000/svg" width="100" height="100" viewBox="0 0 100 100"><rect width="100%" height="100%" fill="#dc2626"/><path fill="#ffffff" d="M31.82 49.975h6.72v8.19q-1.54 1.13-3.28 1.66-1.74.52-3.73.52-2.48 0-4.49-.77t-3.43-2.14-2.19-3.27q-.77-1.91-.77-4.16 0-2.28.74-4.19.75-1.9 2.11-3.27 1.37-1.38 3.31-2.13 1.95-.76 4.37-.76 1.23 0 2.3.2 1.07.19 1.99.54.92.34 1.67.83.76.49 1.39 1.08l-1.08 1.71q-.25.4-.66.49-.4.09-.88-.2-.46-.27-.92-.53-.46-.27-1.03-.46-.57-.2-1.28-.33-.7-.12-1.63-.12-1.49 0-2.7.5-1.22.51-2.07 1.44-.85.94-1.32 2.26-.46 1.31-.46 2.94 0 1.73.5 3.1.5 1.36 1.4 2.31.9.94 2.18 1.44 1.27.5 2.84.5 1.12 0 2-.24t1.72-.64v-3.67h-2.55q-.36 0-.56-.21-.21-.2-.21-.49zm14.13-10.09v8.48h.88q.53 0 .88-.15.35-.14.61-.47l5.58-7.07q.35-.44.74-.62.38-.17.97-.17h3.25l-6.82 8.41q-.6.77-1.25 1.09.47.17.84.47t.7.79l7.03 9.48h-3.32q-.67 0-1-.19t-.55-.55l-5.73-7.48q-.26-.38-.61-.53t-1.01-.15h-1.19v8.9h-3.77v-20.24zm33.4 10.12q0 2.22-.74 4.09-.74 1.86-2.08 3.2-1.35 1.35-3.24 2.09t-4.2.74h-7.71v-20.24h7.71q2.31 0 4.2.74 1.89.75 3.24 2.09 1.34 1.34 2.08 3.2t.74 4.09m-3.86 0q0-1.67-.44-2.99t-1.28-2.24q-.83-.92-2.01-1.41t-2.67-.49h-3.93v14.25h3.93q1.49 0 2.67-.49t2.01-1.4q.84-.92 1.28-2.24.44-1.33.44-2.99"/></svg>