<svg xmlns="http://www.w3.org/2000/svg" width="100" height="100" viewBox="0 0 100 100"><rect width="100%" height="100%" fill="#dc2626"/><path fill="#ffffff" d="M44.175 33.37h6.21v33.26h-6.21V52.09h-15.61v14.54h-6.21V33.37h6.21v14.31h15.61zm32.87 3.13-1.54 2.92q-.28.48-.59.7t-.77.22q-.48 0-1.04-.36-.57-.35-1.35-.79t-1.83-.79q-1.04-.36-2.47-.36-1.29 0-2.25.31-.97.31-1.63.86-.65.56-.97 1.33-.33.77-.33 1.69 0 1.17.66 1.95t1.74 1.34q1.08.55 2.46.98 1.38.44 2.83.94 1.45.49 2.82 1.15 1.39.65 2.47 1.65t1.73 2.45q.66 1.45.66 3.52 0 2.26-.77 4.22-.77 1.97-2.26 3.43-1.48 1.46-3.62 2.3t-4.9.84q-1.58 0-3.13-.31-1.54-.31-2.95-.89-1.42-.57-2.66-1.38-1.24-.8-2.21-1.79l1.82-2.97q.23-.32.6-.54t.78-.22q.58 0 1.24.47.67.47 1.59 1.05t2.15 1.05 2.96.47q2.64 0 4.09-1.26 1.45-1.25 1.45-3.59 0-1.32-.66-2.14-.65-.83-1.73-1.4-1.08-.56-2.46-.95t-2.81-.85-2.81-1.1q-1.38-.65-2.46-1.68-1.08-1.04-1.73-2.59-.66-1.55-.66-3.83 0-1.82.73-3.54.72-1.73 2.1-3.06 1.38-1.34 3.4-2.14 2.03-.81 4.65-.81 2.94 0 5.43.92 2.48.92 4.23 2.58"/></svg>