<svg xmlns="http://www.w3.org/2000/svg" width="100" height="100" viewBox="0 0 100 100"><rect width="100%" height="100%" fill="#dc2626"/><path fill="#ffffff" d="M27.83 41.23v11.18q0 1.47-.36 2.64-.36 1.18-1.08 2.01-.71.82-1.78 1.27-1.07.44-2.48.44-.65 0-1.27-.08-.63-.07-1.31-.24.03-.48.08-.96t.09-.96q.03-.27.21-.43.17-.16.49-.16.21 0 .54.08.33.09.83.09.69 0 1.21-.2.53-.2.89-.63.35-.43.53-1.12t.18-1.68V41.23zm6.92 14.83h3.27q.9 0 1.51-.22.61-.21.98-.57.36-.36.52-.84.17-.48.17-1.02 0-.57-.18-1.02t-.57-.76q-.38-.32-.99-.49-.6-.17-1.46-.17h-3.25zm2.75-12.34h-2.75v5.02h2.57q1.66 0 2.5-.6.85-.6.85-1.91 0-1.35-.77-1.93t-2.4-.58m-5.98-2.49h5.98q1.7 0 2.92.32 1.21.33 1.98.93.78.6 1.14 1.45t.36 1.92q0 .61-.18 1.17t-.56 1.04q-.38.49-.96.88-.58.4-1.39.68 3.58.8 3.58 3.86 0 1.1-.42 2.04t-1.23 1.61q-.8.68-1.98 1.07-1.17.38-2.68.38h-6.56zm31.22 8.67q0 1.91-.64 3.51-.64 1.59-1.79 2.75-1.15 1.15-2.77 1.78-1.62.64-3.6.64h-6.61V41.23h6.61q1.98 0 3.6.64t2.77 1.79q1.15 1.14 1.79 2.74t.64 3.5m-3.32 0q0-1.42-.37-2.56-.38-1.13-1.1-1.92-.71-.78-1.72-1.2-1.02-.42-2.29-.42h-3.37v12.21h3.37q1.27 0 2.29-.42 1.01-.42 1.72-1.2.72-.79 1.1-1.92.37-1.14.37-2.57m9.81 2.13h5.52l-2.11-5.77q-.16-.39-.33-.92-.17-.52-.33-1.14-.16.62-.33 1.15t-.32.93zm4.4-10.8 6.82 17.35h-2.5q-.42 0-.68-.21-.27-.21-.4-.52l-1.29-3.54h-7.19l-1.3 3.54q-.09.27-.37.5t-.68.23h-2.52l6.82-17.35z"/></svg>