<svg xmlns="http://www.w3.org/2000/svg" width="100" height="100" viewBox="0 0 100 100"><rect width="100%" height="100%" fill="#dc2626"/><path fill="#ffffff" d="M34.415 34.285v20.04q0 2.62-.65 4.73-.64 2.11-1.92 3.59t-3.19 2.28q-1.92.79-4.46.79-1.16 0-2.27-.14-1.12-.14-2.35-.44.07-.86.15-1.72.09-.86.15-1.72.07-.47.38-.76t.89-.29q.37 0 .96.15t1.49.15q1.23 0 2.17-.35.95-.36 1.58-1.13.64-.78.96-2.01.32-1.24.32-3v-20.17zm12.42 0v31.09h-5.8v-31.09zm28.92 0h4.67l-12.56 31.09h-5.22l-12.56-31.09h4.64q.76 0 1.23.37.47.36.71.94l7.33 18.97q.37.92.7 2.03.33 1.1.63 2.31.26-1.21.56-2.31.3-1.11.67-2.03l7.29-18.97q.17-.49.68-.9.5-.41 1.23-.41"/></svg>