<svg xmlns="http://www.w3.org/2000/svg" width="100" height="100" viewBox="0 0 100 100"><rect width="100%" height="100%" fill="#dc2626"/><path fill="#ffffff" d="M31.07 38.67v14.44q0 1.89-.47 3.41-.46 1.52-1.38 2.59-.93 1.07-2.31 1.64-1.38.58-3.2.58-.84 0-1.65-.1-.8-.1-1.69-.32.05-.62.11-1.24t.11-1.24q.05-.34.27-.55.23-.21.64-.21.27 0 .69.11.43.11 1.08.11.89 0 1.57-.26.68-.25 1.14-.81.45-.56.69-1.45.23-.89.23-2.16V38.67zm19.99 0h3.68v22.41H52.6q-.5 0-.83-.16-.33-.17-.64-.55L39.42 45.43q.1 1.02.1 1.89v13.76h-3.68V38.67h2.19q.26 0 .45.02.2.02.35.09.14.07.28.2.14.14.31.35l11.75 15.01q-.04-.55-.08-1.07-.03-.53-.03-.98zm28.57 11.2q0 2.47-.82 4.53t-2.31 3.55-3.58 2.31-4.65.82h-8.54V38.67h8.54q2.56 0 4.65.83t3.58 2.31 2.31 3.54.82 4.52m-4.28 0q0-1.84-.49-3.31-.48-1.46-1.41-2.48-.92-1.01-2.23-1.55-1.31-.55-2.95-.55h-4.36v15.78h4.36q1.64 0 2.95-.54t2.23-1.56q.93-1.01 1.41-2.48.49-1.46.49-3.31"/></svg>