<svg xmlns="http://www.w3.org/2000/svg" width="100" height="100" viewBox="0 0 100 100"><rect width="100%" height="100%" fill="#dc2626"/><path fill="#ffffff" d="M43.985 31.925v23.3q0 3.05-.75 5.5t-2.24 4.17q-1.49 1.73-3.71 2.65-2.23.93-5.18.93-1.35 0-2.65-.16t-2.72-.52q.07-1 .17-1.99.1-1.01.18-2.01.07-.55.44-.88.36-.34 1.03-.34.43 0 1.12.17.68.18 1.73.18 1.43 0 2.53-.41 1.1-.42 1.84-1.32.73-.9 1.11-2.33.37-1.44.37-3.49v-23.45zm28.63 3.4-1.68 3.17q-.3.53-.64.77-.34.23-.84.23-.52 0-1.13-.38-.62-.39-1.46-.87-.85-.47-1.99-.86t-2.69-.39q-1.4 0-2.45.34t-1.76.94-1.07 1.44q-.35.83-.35 1.83 0 1.28.72 2.13.71.85 1.88 1.45 1.18.6 2.68 1.07 1.5.48 3.07 1.02 1.58.53 3.08 1.25 1.5.71 2.67 1.8 1.18 1.08 1.89 2.66.72 1.57.72 3.82 0 2.45-.84 4.59t-2.45 3.73q-1.61 1.58-3.94 2.5-2.33.91-5.33.91-1.72 0-3.4-.34-1.67-.34-3.21-.96-1.54-.63-2.89-1.5-1.35-.88-2.4-1.95l1.98-3.23q.25-.35.65-.58.4-.24.85-.24.62 0 1.35.51.72.51 1.72 1.14 1 .62 2.34 1.14 1.34.51 3.21.51 2.88 0 4.45-1.36 1.58-1.37 1.58-3.92 0-1.42-.71-2.32t-1.89-1.51q-1.18-.62-2.68-1.04-1.5-.43-3.05-.93t-3.05-1.2q-1.5-.69-2.67-1.82-1.18-1.13-1.89-2.81-.71-1.69-.71-4.17 0-1.97.79-3.85.78-1.87 2.28-3.32t3.7-2.33q2.21-.87 5.05-.87 3.21 0 5.91 1 2.69 1 4.6 2.8"/></svg>