<svg xmlns="http://www.w3.org/2000/svg" width="100" height="100" viewBox="0 0 100 100"><rect width="100%" height="100%" fill="#dc2626"/><path fill="#ffffff" d="M23.05 42.41v6.36h.66q.4 0 .66-.11t.45-.35l4.19-5.3q.26-.34.55-.47t.73-.13h2.44l-5.12 6.31q-.45.58-.93.82.35.12.62.35.28.22.53.59l5.28 7.11h-2.49q-.51 0-.75-.14-.25-.14-.42-.42l-4.29-5.6q-.2-.29-.47-.4-.26-.12-.75-.12h-.89v6.68h-2.83V42.41zm21.53 0h2.84v15.18h-2.84v-6.64h-7.13v6.64h-2.83V42.41h2.83v6.53h7.13zm16.53 0h2.49v15.18h-1.45q-.34 0-.56-.11-.23-.11-.44-.37l-7.93-10.13q.07.7.07 1.29v9.32H50.8V42.41h1.48q.18 0 .31.01.13.02.23.07.1.04.19.13.1.09.21.24l7.96 10.16q-.03-.37-.05-.72-.02-.36-.02-.66zm15.83 0h2.84v15.18h-2.84v-6.64h-7.13v6.64h-2.83V42.41h2.83v6.53h7.13z"/></svg>