<svg xmlns="http://www.w3.org/2000/svg" width="100" height="100" viewBox="0 0 100 100"><rect width="100%" height="100%" fill="#dc2626"/><path fill="#ffffff" d="M25.79 57.01h8.1v3.11H22.03V39.88h3.76zm15.04-4.53h6.44l-2.46-6.74q-.19-.45-.38-1.06-.2-.62-.39-1.33-.19.71-.38 1.33-.2.63-.38 1.09zm5.14-12.6 7.95 20.24h-2.91q-.49 0-.8-.24-.31-.25-.46-.61l-1.51-4.13h-8.39l-1.51 4.13q-.11.32-.44.58-.32.27-.79.27h-2.94l7.96-20.24zm29.16 0h2.84v20.24h-3.32V47.04q0-.78.09-1.69l-6.12 11.49q-.43.83-1.33.83h-.53q-.9 0-1.33-.83l-6.19-11.53q.04.46.07.91t.03.82v13.08h-3.32V39.88h2.84q.25 0 .44.01.18.01.33.07.14.06.26.18.12.13.23.34l6.06 11.24q.24.45.45.92.2.48.39.98.2-.51.41-1 .21-.48.45-.93l5.98-11.21q.11-.21.23-.34.13-.12.28-.18.14-.06.33-.07.18-.01.43-.01"/></svg>