<svg xmlns="http://www.w3.org/2000/svg" width="100" height="100" viewBox="0 0 100 100"><rect width="100%" height="100%" fill="#dc2626"/><path fill="#ffffff" d="M47.8 36.265h3.85v27.47h-4.5v-17.75q0-1.06.12-2.29l-8.31 15.59q-.59 1.13-1.8 1.13h-.72q-1.22 0-1.81-1.13l-8.4-15.65q.06.63.1 1.23.04.61.04 1.12v17.75h-4.51v-27.47h3.86q.34 0 .59.02.25.01.45.09.19.08.36.25.16.17.31.45l8.23 15.26q.32.61.6 1.25.27.65.54 1.33.26-.7.55-1.35.28-.66.61-1.27l8.11-15.22q.15-.28.32-.45t.37-.25.45-.09q.25-.02.59-.02m15.08 23.48h5.17q1.43 0 2.4-.34.96-.34 1.54-.91t.84-1.33.26-1.62q0-.89-.29-1.6-.28-.72-.89-1.22t-1.57-.77-2.31-.27h-5.15zm4.35-19.53h-4.35v7.94h4.07q2.62 0 3.96-.95t1.34-3.02q0-2.15-1.22-3.06-1.21-.91-3.8-.91m-9.46-3.95h9.46q2.7 0 4.62.51t3.15 1.46q1.22.95 1.79 2.3t.57 3.04q0 .97-.28 1.85-.29.89-.89 1.66t-1.52 1.39q-.92.63-2.19 1.07 5.66 1.27 5.66 6.12 0 1.74-.66 3.23-.67 1.48-1.94 2.55-1.28 1.07-3.14 1.68t-4.25.61H57.77z"/></svg>