<svg xmlns="http://www.w3.org/2000/svg" width="100" height="100" viewBox="0 0 100 100"><rect width="100%" height="100%" fill="#dc2626"/><path fill="#ffffff" d="M37.595 40.6h2.64v18.8h-3.08V47.26q0-.73.08-1.58l-5.68 10.68q-.4.76-1.23.76h-.5q-.83 0-1.23-.76l-5.75-10.71q.04.42.06.84.03.42.03.77V59.4h-3.08V40.6h2.64q.23 0 .4.01.17.02.31.07.13.05.24.17t.22.31l5.63 10.44q.22.42.41.86t.37.91q.18-.48.37-.93.2-.45.42-.87l5.55-10.41q.11-.19.22-.31.12-.12.26-.17.13-.05.3-.07.17-.01.4-.01m23.52 9.4q0 2.07-.69 3.8t-1.93 2.97q-1.25 1.25-3.01 1.94-1.75.69-3.9.69h-7.16V40.6h7.16q2.15 0 3.9.7 1.76.69 3.01 1.93 1.24 1.25 1.93 2.97.69 1.73.69 3.8m-3.59 0q0-1.55-.41-2.77-.4-1.23-1.18-2.08-.77-.86-1.87-1.31-1.1-.46-2.48-.46h-3.65v13.24h3.65q1.38 0 2.48-.46 1.1-.45 1.87-1.3.78-.86 1.18-2.08.41-1.23.41-2.78m10.17-9.4v7.88h.82q.49 0 .82-.14.32-.13.56-.43l5.18-6.57q.33-.41.69-.58.35-.16.9-.16h3.02l-6.33 7.81q-.56.72-1.16 1.02.43.15.77.43.35.28.66.74l6.52 8.8h-3.08q-.62 0-.93-.18-.3-.17-.51-.51l-5.32-6.94q-.24-.35-.57-.5-.32-.14-.93-.14h-1.11v8.27h-3.5V40.6z"/></svg>