<svg xmlns="http://www.w3.org/2000/svg" width="100" height="100" viewBox="0 0 100 100"><rect width="100%" height="100%" fill="#dc2626"/><path fill="#ffffff" d="M42.1 34.815h4.98v30.37h-2.9q-.67 0-1.12-.22t-.87-.75l-15.86-20.24q.13 1.39.13 2.56v18.65h-4.98v-30.37h2.96q.36 0 .62.04.26.03.46.12.2.1.39.27.19.18.42.48l15.92 20.33q-.06-.74-.11-1.45-.04-.72-.04-1.33zm26.38 14.51 10.04 15.86h-5.63q-.59 0-.94-.29-.34-.3-.55-.68l-7.04-11.65q-.17.52-.4.9l-6.74 10.75q-.25.36-.58.67-.32.3-.85.3h-5.27l10.08-15.62-9.68-14.75h5.63q.59 0 .85.16t.49.52l6.91 11.13q.21-.53.51-1.05l6.34-9.98q.23-.4.5-.59.28-.19.7-.19h5.39z"/></svg>