<svg xmlns="http://www.w3.org/2000/svg" width="100" height="100" viewBox="0 0 100 100"><rect width="100%" height="100%" fill="#dc2626"/><path fill="#ffffff" d="M25.855 49.4h2.35q1.06 0 1.85-.27.79-.26 1.3-.73.52-.47.77-1.12.25-.64.25-1.41 0-1.54-1.02-2.37-1.01-.82-3.1-.82h-2.4zm6.97 3.13 5.07 7.48h-3.41q-.96 0-1.4-.76l-4.25-6.48q-.24-.36-.53-.52-.28-.15-.84-.15h-1.61v7.91h-3.77V39.77h6.17q2.06 0 3.54.42 1.48.43 2.42 1.2.95.77 1.39 1.84.45 1.07.45 2.36 0 1.02-.3 1.93t-.87 1.65q-.56.75-1.4 1.31-.83.56-1.89.88.36.21.67.5.31.28.56.67m25.24-2.64q0 2.22-.74 4.09-.74 1.86-2.09 3.2-1.34 1.35-3.23 2.09t-4.2.74h-7.72V39.77h7.72q2.31 0 4.2.74 1.89.75 3.23 2.09 1.35 1.34 2.09 3.2t.74 4.09m-3.86 0q0-1.67-.44-2.99-.45-1.32-1.28-2.24t-2.01-1.41q-1.19-.49-2.67-.49h-3.94v14.25h3.94q1.48 0 2.67-.49 1.18-.49 2.01-1.4.83-.92 1.28-2.24.44-1.33.44-2.99m15.33 7.08q1.09 0 1.95-.36.86-.37 1.45-1.02.59-.66.9-1.6.32-.94.32-2.1V39.77h3.76v12.12q0 1.81-.58 3.34t-1.66 2.64q-1.09 1.12-2.64 1.74-1.56.62-3.5.62-1.96 0-3.52-.62-1.55-.62-2.64-1.74-1.08-1.11-1.66-2.64t-.58-3.34V39.77h3.76v12.11q0 1.16.32 2.1.31.93.91 1.6.59.66 1.45 1.03.86.36 1.96.36"/></svg>