<svg xmlns="http://www.w3.org/2000/svg" width="100" height="100" viewBox="0 0 100 100"><rect width="100%" height="100%" fill="#dc2626"/><path fill="#ffffff" d="M27.665 49.26h3.53q1.59 0 2.78-.4t1.95-1.1q.77-.7 1.15-1.67.38-.96.38-2.12 0-2.31-1.53-3.55-1.52-1.24-4.65-1.24h-3.61zm10.46 4.71 7.6 11.21h-5.1q-1.45 0-2.1-1.13l-6.39-9.73q-.35-.54-.79-.77-.43-.24-1.27-.24h-2.41v11.87h-5.65V34.81h9.26q3.09 0 5.3.64 2.22.64 3.64 1.8 1.41 1.15 2.09 2.76.67 1.61.67 3.54 0 1.53-.45 2.9-.46 1.36-1.31 2.48-.85 1.11-2.1 1.95-1.24.84-2.84 1.32.54.32 1.01.75.46.43.84 1.02M77.985 50q0 3.34-1.11 6.18-1.1 2.85-3.12 4.93-2.01 2.07-4.85 3.24-2.83 1.17-6.3 1.17-3.44 0-6.28-1.17-2.83-1.17-4.86-3.24-2.02-2.08-3.14-4.93-1.11-2.84-1.11-6.18t1.11-6.19q1.12-2.84 3.14-4.92 2.03-2.08 4.86-3.25 2.84-1.16 6.28-1.16 2.31 0 4.35.53 2.04.54 3.74 1.52 1.7.97 3.05 2.37 1.36 1.39 2.3 3.12.95 1.72 1.44 3.73.5 2.02.5 4.25m-5.78 0q0-2.5-.67-4.49-.67-1.98-1.91-3.37-1.24-1.38-3.02-2.12-1.77-.73-4-.73-2.22 0-4 .73-1.77.74-3.02 2.12-1.25 1.39-1.92 3.37-.67 1.99-.67 4.49t.67 4.48q.67 1.99 1.92 3.36 1.25 1.38 3.02 2.11 1.78.74 4 .74 2.23 0 4-.74 1.78-.73 3.02-2.11 1.24-1.37 1.91-3.36.67-1.98.67-4.48"/></svg>