<svg xmlns="http://www.w3.org/2000/svg" width="100" height="100" viewBox="0 0 100 100"><rect width="100%" height="100%" fill="#dc2626"/><path fill="#ffffff" d="m34.955 41.195-1.01 1.9q-.18.32-.38.46-.2.15-.5.15-.32 0-.69-.24-.36-.23-.87-.51-.52-.29-1.2-.52t-1.61-.23q-.84 0-1.47.2t-1.06.56-.63.86q-.21.5-.21 1.11 0 .76.42 1.27.43.51 1.14.87.7.36 1.6.64.9.29 1.85.61.94.32 1.84.75t1.6 1.08q.71.65 1.14 1.6t.43 2.3q0 1.46-.51 2.75-.5 1.28-1.47 2.23-.96.96-2.36 1.5-1.39.55-3.19.55-1.04 0-2.04-.2-1.01-.2-1.93-.58-.92-.37-1.73-.9-.81-.52-1.44-1.17l1.18-1.93q.15-.21.39-.36.24-.14.51-.14.38 0 .81.31.44.31 1.04.68.6.38 1.4.68.8.31 1.93.31 1.72 0 2.66-.82.95-.81.95-2.34 0-.86-.43-1.4-.42-.54-1.13-.91-.71-.36-1.6-.62-.9-.25-1.83-.56-.93-.29-1.83-.71t-1.61-1.1q-.7-.68-1.13-1.69t-.43-2.5q0-1.18.47-2.31.48-1.12 1.38-1.99t2.22-1.39q1.32-.53 3.03-.53 1.92 0 3.54.6t2.76 1.68m8.45 11.46h6.91l-2.65-7.21q-.19-.48-.4-1.14t-.42-1.43q-.19.77-.41 1.43-.2.67-.4 1.16zm5.51-13.5 8.52 21.69h-3.12q-.52 0-.86-.26-.32-.27-.49-.65l-1.62-4.43h-8.98l-1.63 4.43q-.12.34-.46.63-.35.28-.86.28h-3.14l8.53-21.69zm14.81 18.36h8.66v3.33h-12.7v-21.69h4.04zm15.6-18.36v21.69h-4.05v-21.69z"/></svg>