<svg xmlns="http://www.w3.org/2000/svg" width="100" height="100" viewBox="0 0 100 100"><rect width="100%" height="100%" fill="#dc2626"/><path fill="#ffffff" d="m34.675 41.485-.97 1.85q-.17.3-.37.44-.19.14-.48.14-.31 0-.66-.23-.36-.22-.85-.5-.49-.27-1.15-.5-.66-.22-1.56-.22-.82 0-1.42.19-.61.2-1.03.55-.41.34-.61.83-.21.49-.21 1.07 0 .73.42 1.23.41.49 1.09.84t1.55.62q.87.28 1.79.59.91.31 1.78.72.87.42 1.55 1.05t1.1 1.54q.41.92.41 2.22 0 1.42-.49 2.66-.48 1.24-1.42 2.16-.93.92-2.28 1.45t-3.09.53q-1 0-1.97-.19-.97-.2-1.86-.56-.9-.36-1.68-.87t-1.39-1.13l1.14-1.87q.15-.21.38-.34.23-.14.49-.14.37 0 .79.3.42.29 1 .65.58.37 1.35.66.78.3 1.87.3 1.66 0 2.58-.79.91-.79.91-2.27 0-.82-.41-1.35-.41-.52-1.1-.87-.68-.36-1.55-.61-.87-.24-1.77-.53t-1.77-.7q-.87-.4-1.55-1.06-.68-.65-1.09-1.63-.42-.98-.42-2.41 0-1.15.46-2.23.46-1.09 1.33-1.93t2.14-1.35q1.28-.51 2.93-.51 1.86 0 3.43.58 1.56.58 2.66 1.62m22.39 8.52q0 2.3-.77 4.23t-2.16 3.32-3.35 2.16q-1.95.77-4.35.77h-7.99v-20.97h7.99q2.4 0 4.35.78 1.96.77 3.35 2.16 1.39 1.38 2.16 3.31t.77 4.24m-4 0q0-1.73-.46-3.1-.45-1.37-1.32-2.32-.86-.95-2.08-1.46-1.23-.5-2.77-.5h-4.07v14.76h4.07q1.54 0 2.77-.51 1.22-.51 2.08-1.46.87-.95 1.32-2.32.46-1.37.46-3.09m26.06 0q0 2.3-.77 4.23t-2.16 3.32q-1.4 1.39-3.35 2.16-1.96.77-4.35.77h-7.99v-20.97h7.99q2.39 0 4.35.78 1.95.77 3.35 2.16 1.39 1.38 2.16 3.31t.77 4.24m-4.01 0q0-1.73-.45-3.1-.46-1.37-1.32-2.32-.87-.95-2.09-1.46-1.23-.5-2.76-.5h-4.08v14.76h4.08q1.53 0 2.76-.51 1.22-.51 2.09-1.46.86-.95 1.32-2.32.45-1.37.45-3.09"/></svg>