<svg xmlns="http://www.w3.org/2000/svg" width="100" height="100" viewBox="0 0 100 100"><rect width="100%" height="100%" fill="#dc2626"/><path fill="#ffffff" d="m43.45 35.625-1.64 3.11q-.3.51-.63.74-.33.24-.82.24-.51 0-1.11-.38t-1.44-.85q-.83-.46-1.94-.84-1.12-.38-2.64-.38-1.37 0-2.4.33t-1.73.92q-.69.58-1.04 1.4-.34.83-.34 1.81 0 1.24.7 2.08.7.83 1.85 1.42t2.62 1.05q1.47.47 3.01.99 1.55.53 3.02 1.23t2.62 1.76q1.15 1.07 1.85 2.61.7 1.55.7 3.75 0 2.4-.83 4.5-.82 2.09-2.4 3.65-1.58 1.55-3.86 2.45-2.27.89-5.21.89-1.69 0-3.34-.33-1.64-.33-3.14-.94-1.51-.61-2.83-1.47-1.33-.86-2.36-1.91l1.94-3.16q.24-.35.64-.58.39-.23.83-.23.61 0 1.32.5t1.69 1.11q.98.62 2.29 1.12t3.15.5q2.82 0 4.36-1.33 1.55-1.34 1.55-3.84 0-1.39-.7-2.28-.7-.88-1.85-1.48t-2.62-1.02q-1.47-.41-2.99-.9t-2.99-1.18q-1.47-.68-2.62-1.79-1.15-1.1-1.85-2.75-.7-1.66-.7-4.08 0-1.94.77-3.77.77-1.84 2.24-3.26t3.63-2.28q2.15-.86 4.95-.86 3.13 0 5.78.98t4.51 2.75m12.96-3.34v14.85h1.54q.93 0 1.55-.26.61-.25 1.05-.82l9.77-12.37q.62-.78 1.29-1.09t1.7-.31H79l-11.93 14.73q-1.06 1.34-2.18 1.91.8.29 1.45.82t1.24 1.38l12.3 16.59h-5.81q-1.17 0-1.75-.33-.57-.33-.97-.97l-10.02-13.08q-.46-.66-1.07-.93-.62-.27-1.77-.27h-2.08v15.58h-6.59v-35.43z"/></svg>