<svg xmlns="http://www.w3.org/2000/svg" width="100" height="100" viewBox="0 0 100 100"><rect width="100%" height="100%" fill="#dc2626"/><path fill="#ffffff" d="m41.015 37.96-1.37 2.61q-.25.43-.52.62-.28.2-.69.2-.43 0-.93-.32-.51-.32-1.2-.71-.7-.39-1.63-.7-.94-.32-2.21-.32-1.14 0-2.01.28-.86.27-1.44.76-.58.5-.87 1.18-.29.69-.29 1.51 0 1.04.59 1.74.58.7 1.54 1.19.97.49 2.2.88t2.52.83 2.52 1.03q1.23.58 2.19 1.47.97.9 1.55 2.19.59 1.29.59 3.13 0 2.01-.69 3.77-.69 1.75-2.01 3.05t-3.23 2.05-4.37.75q-1.41 0-2.78-.28-1.38-.28-2.64-.79t-2.37-1.23q-1.1-.72-1.96-1.6l1.62-2.64q.2-.29.53-.48.33-.2.7-.2.51 0 1.1.42.6.42 1.42.93.82.52 1.91.94 1.1.42 2.64.42 2.36 0 3.65-1.12t1.29-3.21q0-1.17-.59-1.9-.58-.74-1.54-1.24-.97-.51-2.2-.86-1.23-.34-2.5-.75t-2.5-.99q-1.23-.57-2.19-1.49-.97-.93-1.55-2.31t-.58-3.41q0-1.62.64-3.16.65-1.54 1.88-2.73t3.03-1.9q1.81-.72 4.14-.72 2.63 0 4.84.82t3.77 2.29m33.31-2.78h4.17v29.64h-4.86V45.67q0-1.15.12-2.48l-8.96 16.83q-.63 1.21-1.95 1.21h-.77q-1.32 0-1.95-1.21l-9.06-16.89q.06.68.1 1.33.04.66.04 1.21v19.15h-4.86V35.18h4.16q.37 0 .64.02t.48.1q.22.08.39.27.17.18.34.49l8.88 16.46q.34.66.64 1.35.3.7.59 1.44.28-.76.59-1.47t.66-1.36l8.75-16.42q.16-.31.35-.49.18-.19.4-.27.21-.08.48-.1t.63-.02"/></svg>