<svg xmlns="http://www.w3.org/2000/svg" width="100" height="100" viewBox="0 0 100 100"><rect width="100%" height="100%" fill="#dc2626"/><path fill="#ffffff" d="m32.45 42.66-.84 1.59q-.15.26-.32.38t-.42.12q-.26 0-.57-.19-.3-.2-.73-.43-.42-.24-.99-.43-.57-.2-1.35-.2-.7 0-1.22.17-.53.17-.88.47-.36.3-.53.72-.18.42-.18.92 0 .63.36 1.06.35.42.94.72t1.34.54 1.54.51q.78.27 1.53.62.75.36 1.34.9.59.55.95 1.33.35.79.35 1.92 0 1.22-.42 2.29t-1.22 1.86q-.81.8-1.97 1.25-1.16.46-2.66.46-.87 0-1.7-.17-.84-.17-1.61-.48t-1.44-.75q-.68-.44-1.2-.98l.98-1.61q.13-.17.33-.29t.42-.12q.32 0 .68.26.36.25.86.56.5.32 1.17.57.67.26 1.61.26 1.43 0 2.22-.68t.79-1.96q0-.71-.36-1.16-.35-.45-.94-.76-.59-.3-1.34-.52-.75-.21-1.52-.46-.78-.25-1.53-.6t-1.34-.91q-.58-.56-.94-1.41-.36-.84-.36-2.08 0-.99.4-1.92.39-.94 1.14-1.67.75-.72 1.85-1.16t2.53-.44q1.6 0 2.95.5t2.3 1.4m13.71 0-.84 1.59q-.15.26-.32.38t-.42.12q-.26 0-.56-.19-.31-.2-.74-.43-.42-.24-.99-.43-.57-.2-1.34-.2-.7 0-1.23.17-.52.17-.88.47t-.53.72q-.18.42-.18.92 0 .63.36 1.06.36.42.94.72.59.3 1.34.54t1.54.51 1.54.62q.75.36 1.33.9.59.55.95 1.33.35.79.35 1.92 0 1.22-.41 2.29-.42 1.07-1.23 1.86-.81.8-1.97 1.25-1.16.46-2.66.46-.86 0-1.7-.17t-1.61-.48-1.44-.75q-.68-.44-1.2-.98l.99-1.61q.12-.17.32-.29t.43-.12q.31 0 .67.26.36.25.86.56.5.32 1.17.57.67.26 1.61.26 1.44 0 2.22-.68.79-.68.79-1.96 0-.71-.35-1.16-.36-.45-.95-.76-.59-.3-1.34-.52-.75-.21-1.52-.46-.78-.25-1.53-.6t-1.33-.91q-.59-.56-.95-1.41-.35-.84-.35-2.08 0-.99.39-1.92.39-.94 1.14-1.67.75-.72 1.85-1.16t2.53-.44q1.6 0 2.95.5t2.3 1.4m6.61-1.69v7.57h.79q.47 0 .79-.13.31-.13.53-.42l4.99-6.31q.31-.4.66-.56.34-.15.87-.15h2.9l-6.09 7.51q-.54.68-1.11.97.41.15.74.42t.63.71l6.28 8.46h-2.97q-.6 0-.89-.17t-.49-.49l-5.12-6.68q-.23-.34-.55-.47-.31-.14-.9-.14h-1.06v7.95h-3.36V40.97zm17.14 9.08h2.51q.93 0 1.61-.23.69-.23 1.15-.66.45-.43.68-1.05.22-.62.22-1.38 0-.73-.22-1.32-.23-.58-.68-1-.45-.41-1.13-.63-.69-.22-1.63-.22h-2.51zm-3.36-9.08h5.87q1.81 0 3.14.42 1.32.42 2.19 1.19.86.76 1.28 1.82t.42 2.33q0 1.31-.44 2.4-.44 1.1-1.31 1.88-.88.79-2.2 1.23t-3.08.44h-2.51v6.36h-3.36z"/></svg>