<svg xmlns="http://www.w3.org/2000/svg" width="100" height="100" viewBox="0 0 100 100"><rect width="100%" height="100%" fill="#dc2626"/><path fill="#ffffff" d="M47.76 32.655v5.3H37.29v29.4h-6.45v-29.4H20.37v-5.3zm28.39 26.52q.53 0 .94.4l2.54 2.76q-2.11 2.62-5.2 4.01-3.08 1.39-7.4 1.39-3.86 0-6.95-1.32-3.08-1.32-5.27-3.67-2.18-2.35-3.34-5.61-1.17-3.27-1.17-7.13 0-3.91 1.25-7.17 1.25-3.25 3.52-5.6 2.26-2.35 5.41-3.66 3.14-1.31 6.96-1.31 3.79 0 6.73 1.25t5 3.26l-2.16 3q-.19.29-.49.51-.3.21-.83.21-.36 0-.74-.2t-.84-.5-1.06-.66-1.39-.66-1.83-.51q-1.05-.2-2.42-.2-2.32 0-4.26.83-1.93.82-3.32 2.4-1.39 1.57-2.16 3.84-.77 2.26-.77 5.17 0 2.93.83 5.21t2.24 3.84q1.42 1.56 3.34 2.38 1.92.83 4.13.83 1.32 0 2.39-.14 1.06-.15 1.96-.46t1.71-.8q.8-.49 1.59-1.21.24-.22.51-.35.26-.13.55-.13"/></svg>