<svg xmlns="http://www.w3.org/2000/svg" width="100" height="100" viewBox="0 0 100 100"><rect width="100%" height="100%" fill="#dc2626"/><path fill="#ffffff" d="M31 53.82q.22 0 .39.17l1.06 1.15q-.88 1.09-2.16 1.67-1.29.58-3.09.58-1.61 0-2.89-.55-1.29-.55-2.2-1.53t-1.39-2.34q-.49-1.36-.49-2.97 0-1.63.52-2.98.52-1.36 1.47-2.34.94-.98 2.25-1.53 1.31-.54 2.9-.54 1.58 0 2.81.52 1.22.52 2.08 1.36l-.9 1.25q-.08.12-.2.21-.13.09-.35.09-.15 0-.31-.09-.16-.08-.35-.2-.19-.13-.44-.28t-.58-.28q-.33-.12-.76-.21-.44-.08-1.01-.08-.97 0-1.77.35-.81.34-1.39 1-.58.65-.9 1.6-.32.94-.32 2.15 0 1.22.35 2.17.34.95.93 1.6t1.39 1q.8.34 1.72.34.55 0 1-.06.44-.06.82-.19.37-.13.71-.34.33-.2.66-.5.1-.09.21-.14.11-.06.23-.06m11.67-9.69L42 45.4q-.12.21-.25.3-.14.1-.34.1-.21 0-.45-.16-.25-.15-.59-.34t-.79-.35q-.46-.15-1.08-.15-.56 0-.98.14-.42.13-.7.37-.29.24-.43.57-.14.34-.14.74 0 .51.29.85.28.34.75.58t1.07.43 1.23.4q.63.22 1.23.51.6.28 1.07.71.47.44.76 1.07.28.63.28 1.53 0 .98-.33 1.84-.34.85-.98 1.48-.65.64-1.58 1-.93.37-2.13.37-.69 0-1.36-.13-.67-.14-1.28-.39-.62-.25-1.16-.6t-.96-.78l.79-1.29q.1-.14.26-.24.16-.09.34-.09.25 0 .54.2.29.21.69.46t.94.45q.53.21 1.28.21 1.15 0 1.78-.54.63-.55.63-1.57 0-.57-.28-.93-.29-.36-.76-.61-.47-.24-1.07-.41t-1.22-.37-1.22-.48-1.07-.73-.75-1.12q-.29-.68-.29-1.67 0-.79.32-1.54.31-.75.91-1.33t1.48-.93 2.02-.35q1.28 0 2.36.4t1.84 1.12m7.09 10.8h3.71q.4 0 .64.22.23.23.23.6v1.48h-9.92v-.82q0-.25.11-.52.1-.28.33-.5l4.39-4.4q.55-.56.99-1.07.43-.51.72-1.01t.45-1.02q.15-.51.15-1.08 0-.52-.15-.92-.15-.39-.42-.66-.28-.27-.66-.41-.39-.13-.87-.13-.44 0-.81.12-.38.13-.67.36-.29.22-.49.52t-.3.66q-.17.46-.44.61t-.78.07l-1.3-.23q.15-1.04.58-1.83.43-.78 1.08-1.3.64-.53 1.48-.8.83-.26 1.79-.26 1 0 1.83.29.83.3 1.42.84t.92 1.3.33 1.69q0 .8-.23 1.48-.24.68-.63 1.3-.4.62-.93 1.2t-1.11 1.18l-3.26 3.33q.47-.14.94-.22.46-.07.88-.07m15.48-10.8-.67 1.27q-.12.21-.25.3-.14.1-.34.1-.21 0-.45-.16-.25-.15-.59-.34t-.79-.35q-.46-.15-1.08-.15-.56 0-.98.14-.42.13-.7.37-.29.24-.43.57-.14.34-.14.74 0 .51.29.85.28.34.75.58t1.07.43 1.23.4q.63.22 1.23.51.6.28 1.07.71.47.44.76 1.07.28.63.28 1.53 0 .98-.33 1.84-.34.85-.98 1.48-.65.64-1.58 1-.93.37-2.13.37-.69 0-1.36-.13-.67-.14-1.28-.39-.62-.25-1.16-.6t-.96-.78l.79-1.29q.1-.14.26-.24.16-.09.34-.09.25 0 .54.2.29.21.69.46t.94.45q.53.21 1.28.21 1.15 0 1.78-.54.63-.55.63-1.57 0-.57-.28-.93-.29-.36-.76-.61-.47-.24-1.07-.41t-1.22-.37-1.22-.48-1.07-.73-.75-1.12q-.29-.68-.29-1.67 0-.79.32-1.54.31-.75.91-1.33t1.48-.93 2.02-.35q1.28 0 2.36.4t1.84 1.12m9.73 5.85h4.8v5.85q-1.11.81-2.35 1.19-1.25.37-2.67.37-1.76 0-3.2-.55t-2.45-1.53-1.56-2.34-.55-2.97q0-1.63.53-2.99.52-1.36 1.5-2.34t2.36-1.52q1.39-.54 3.12-.54.88 0 1.65.14.76.14 1.42.38.66.25 1.2.6t.98.77l-.76 1.22q-.18.29-.47.36-.29.06-.64-.15-.32-.19-.65-.38t-.74-.33q-.4-.14-.91-.23t-1.17-.09q-1.07 0-1.93.36-.87.36-1.48 1.03-.6.67-.94 1.61-.32.94-.32 2.1 0 1.24.35 2.22.36.97 1 1.64.65.68 1.56 1.04.91.35 2.02.35.81 0 1.44-.17t1.23-.46V52h-1.82q-.27 0-.41-.15-.14-.14-.14-.35z"/></svg>