<svg xmlns="http://www.w3.org/2000/svg" width="100" height="100" viewBox="0 0 100 100"><rect width="100%" height="100%" fill="#dc2626"/><path fill="#ffffff" d="M35.77 41.6h-10.6v6.62h8.35v3.41h-8.35v6.75h10.6v3.55H20.72V38.07h15.05zm8.94 11.32h7.59l-2.9-7.94q-.22-.52-.45-1.25t-.46-1.57q-.22.84-.45 1.58-.23.73-.44 1.28zm6.06-14.85 9.37 23.86h-3.43q-.58 0-.94-.29-.37-.29-.55-.72l-1.78-4.86h-9.88l-1.79 4.86q-.13.38-.51.7-.38.31-.94.31h-3.46l9.39-23.86zm28.51 0v3.65h-7.2v20.21h-4.43V41.72h-7.2v-3.65z"/></svg>