<svg xmlns="http://www.w3.org/2000/svg" width="100" height="100" viewBox="0 0 100 100"><rect width="100%" height="100%" fill="#dc2626"/><path fill="#ffffff" d="M23.73 41.685v16.63h-3.1v-16.63zm15.01 0h2.73v16.63h-1.59q-.37 0-.62-.12-.24-.12-.47-.41l-8.69-11.09q.07.76.07 1.41v10.21h-2.72v-16.63h1.62q.19 0 .34.02.14.02.25.07t.21.15q.11.09.23.26l8.72 11.13-.06-.8q-.02-.39-.02-.72zm16.05 1.57-.77 1.46q-.13.24-.29.35-.15.11-.38.11-.25 0-.53-.18t-.67-.4-.91-.4q-.53-.17-1.24-.17-.65 0-1.13.15-.48.16-.81.43-.33.28-.49.66-.16.39-.16.85 0 .58.33.98.33.39.87.66.54.28 1.23.5t1.41.46q.73.25 1.42.58t1.23.83.87 1.22q.32.73.32 1.76 0 1.13-.38 2.11-.39.98-1.13 1.71t-1.81 1.15-2.45.42q-.79 0-1.56-.15-.77-.16-1.48-.44-.71-.29-1.33-.69-.62-.41-1.1-.9l.9-1.48q.12-.17.3-.27.19-.11.39-.11.29 0 .63.23.33.24.79.53.46.28 1.07.52.62.23 1.48.23 1.32 0 2.05-.62.72-.63.72-1.8 0-.66-.32-1.07-.33-.42-.87-.7t-1.23-.47q-.69-.2-1.41-.43-.71-.23-1.4-.55t-1.23-.84-.87-1.3q-.33-.77-.33-1.91 0-.91.37-1.77.36-.86 1.05-1.53t1.7-1.07 2.32-.4q1.48 0 2.72.46t2.11 1.29m6.1-1.57v16.63h-3.11v-16.63zm18.48 8.32q0 1.82-.61 3.35t-1.71 2.64q-1.11 1.1-2.66 1.71t-3.45.61H64.6v-16.63h6.34q1.9 0 3.45.62 1.55.61 2.66 1.71 1.1 1.1 1.71 2.63t.61 3.36m-3.17 0q0-1.37-.37-2.46-.36-1.09-1.04-1.84-.69-.75-1.66-1.16-.97-.4-2.19-.4h-3.23v11.71h3.23q1.22 0 2.19-.4.97-.41 1.66-1.16.68-.75 1.04-1.84.37-1.09.37-2.45"/></svg>