<svg xmlns="http://www.w3.org/2000/svg" width="100" height="100" viewBox="0 0 100 100"><rect width="100%" height="100%" fill="#dc2626"/><path fill="#ffffff" d="M39.54 31.725v23.3q0 3.05-.75 5.5t-2.24 4.17q-1.49 1.73-3.71 2.65-2.23.93-5.18.93-1.35 0-2.65-.16t-2.72-.52q.07-1 .17-1.99.1-1.01.18-2.01.07-.55.44-.88.36-.34 1.03-.34.43 0 1.12.17.68.18 1.73.18 1.43 0 2.53-.41 1.1-.42 1.84-1.32.73-.9 1.11-2.33.37-1.44.37-3.49v-23.45zm31.42 0h6.75v36.15h-6.75v-15.8H53.99v15.8h-6.75v-36.15h6.75v15.55h16.97z"/></svg>