<svg xmlns="http://www.w3.org/2000/svg" width="100" height="100" viewBox="0 0 100 100"><rect width="100%" height="100%" fill="#dc2626"/><path fill="#ffffff" d="M26 58.385h9.83v3.77h-14.4v-24.58H26zm18.26-5.51h7.82l-2.99-8.18q-.22-.54-.46-1.29t-.48-1.62q-.22.87-.46 1.63-.23.75-.46 1.31zm6.24-15.3 9.65 24.58h-3.53q-.6 0-.97-.3t-.56-.74l-1.84-5.01H43.07l-1.84 5.01q-.13.39-.52.72-.39.32-.97.32h-3.57l9.67-24.58zm25.64 0-7.3 8.92-.85 1.06q.72-.36 1.54-.56.82-.19 1.78-.19 1.39 0 2.71.46t2.32 1.38q1 .93 1.61 2.31.62 1.37.62 3.21 0 1.72-.63 3.22-.63 1.51-1.77 2.63t-2.75 1.77q-1.6.64-3.54.64-1.97 0-3.54-.63-1.56-.63-2.67-1.76-1.1-1.13-1.69-2.72-.58-1.59-.58-3.52 0-1.74.7-3.57.71-1.82 2.19-3.8l5.86-7.87q.31-.4.89-.69.59-.29 1.35-.29zm-6.35 21.42q1.01 0 1.85-.34t1.44-.95q.61-.62.95-1.44.34-.83.34-1.79 0-1.06-.33-1.9-.32-.84-.91-1.43-.6-.58-1.43-.89-.84-.31-1.84-.31t-1.82.34q-.81.34-1.39.95-.58.6-.9 1.43-.33.82-.33 1.77 0 1.02.29 1.86.28.84.83 1.44.55.59 1.37.93.81.33 1.88.33"/></svg>