<svg xmlns="http://www.w3.org/2000/svg" width="100" height="100" viewBox="0 0 100 100"><rect width="100%" height="100%" fill="#dc2626"/><path fill="#ffffff" d="M56.98 32.285h4.97v35.43h-5.8v-22.88q0-1.38.14-2.97l-10.7 20.12q-.76 1.44-2.33 1.44h-.93q-1.57 0-2.33-1.44l-10.83-20.19q.08.81.13 1.59.04.79.04 1.45v22.88h-5.8v-35.43h4.97q.44 0 .76.03.32.02.58.12.25.1.46.32t.41.59l10.6 19.67q.42.78.78 1.62.35.83.69 1.71.35-.9.72-1.75.36-.84.78-1.63l10.46-19.62q.2-.37.42-.59t.47-.32q.26-.1.58-.12.32-.03.76-.03m19.48 0v35.43h-6.62v-35.43z"/></svg>