<svg xmlns="http://www.w3.org/2000/svg" width="100" height="100" viewBox="0 0 100 100"><rect width="100%" height="100%" fill="#dc2626"/><path fill="#ffffff" d="M36.015 50q0 1.75-.57 3.24-.58 1.49-1.64 2.58-1.05 1.09-2.54 1.7-1.48.61-3.3.61-1.8 0-3.29-.61-1.48-.61-2.54-1.7-1.07-1.09-1.65-2.58t-.58-3.24.58-3.24 1.65-2.58q1.06-1.09 2.54-1.7 1.49-.61 3.29-.61 1.21 0 2.28.28t1.96.79 1.6 1.24q.71.74 1.2 1.64.5.9.76 1.96.25 1.05.25 2.22m-3.02 0q0-1.31-.35-2.35-.36-1.04-1-1.77-.65-.72-1.58-1.11-.93-.38-2.1-.38-1.16 0-2.09.38-.93.39-1.59 1.11-.65.73-1 1.77-.36 1.04-.36 2.35t.36 2.35q.35 1.04 1 1.76.66.72 1.59 1.1.93.39 2.09.39 1.17 0 2.1-.39.93-.38 1.58-1.1.64-.72 1-1.76.35-1.04.35-2.35m16.74-7.96v2.44h-4.8v13.47h-2.95V44.48h-4.8v-2.44zm5.05 7.57h1.85q.83 0 1.46-.21.62-.21 1.02-.57.4-.37.6-.88.2-.5.2-1.11 0-1.21-.8-1.86t-2.44-.65h-1.89zm5.48 2.47 3.98 5.87h-2.67q-.76 0-1.1-.59l-3.35-5.1q-.18-.28-.41-.4t-.67-.12h-1.26v6.21h-2.96V42.04h4.85q1.62 0 2.78.34t1.9.94q.74.61 1.1 1.45.35.84.35 1.85 0 .8-.24 1.52-.23.71-.68 1.3-.45.58-1.1 1.02t-1.49.69q.29.17.53.39.24.23.44.54M80.095 50q0 1.75-.58 3.21-.59 1.46-1.64 2.52-1.06 1.05-2.54 1.64-1.49.58-3.3.58h-6.06V42.04h6.06q1.81 0 3.3.59 1.48.59 2.54 1.64 1.05 1.05 1.64 2.52.58 1.46.58 3.21m-3.04 0q0-1.31-.34-2.35-.35-1.04-1-1.76-.66-.72-1.59-1.11-.93-.38-2.09-.38h-3.09v11.2h3.09q1.16 0 2.09-.39.93-.38 1.59-1.1.65-.72 1-1.76.34-1.04.34-2.35"/></svg>