<svg xmlns="http://www.w3.org/2000/svg" width="100" height="100" viewBox="0 0 100 100"><rect width="100%" height="100%" fill="#dc2626"/><path fill="#ffffff" d="M27.83 61.025h5.84q1.62 0 2.71-.38 1.1-.39 1.76-1.03.65-.65.94-1.51t.29-1.83q0-1.01-.32-1.81-.32-.81-1.01-1.38t-1.77-.87q-1.09-.3-2.62-.3h-5.82zm4.92-22.1h-4.92v8.99h4.6q2.96 0 4.48-1.08 1.52-1.07 1.52-3.41 0-2.43-1.38-3.47-1.38-1.03-4.3-1.03m-10.71-4.47h10.71q3.05 0 5.22.58 2.18.58 3.56 1.66 1.39 1.07 2.03 2.6.65 1.52.65 3.44 0 1.09-.32 2.09-.33 1-1 1.88-.68.87-1.72 1.58-1.05.71-2.49 1.2 6.41 1.44 6.41 6.92 0 1.98-.75 3.66-.75 1.67-2.19 2.89-1.45 1.21-3.55 1.9-2.11.69-4.82.69H22.04zm55.92 15.55q0 3.41-1.14 6.27-1.13 2.86-3.2 4.93-2.06 2.06-4.96 3.2-2.91 1.14-6.45 1.14H50.36v-31.09h11.85q3.54 0 6.45 1.15 2.9 1.15 4.96 3.2 2.07 2.06 3.2 4.92 1.14 2.86 1.14 6.28m-5.93 0q0-2.56-.68-4.59-.67-2.04-1.95-3.44-1.28-1.41-3.1-2.17-1.82-.75-4.09-.75h-6.05v21.89h6.05q2.27 0 4.09-.75 1.82-.76 3.1-2.16 1.28-1.41 1.95-3.44.68-2.04.68-4.59"/></svg>