<svg xmlns="http://www.w3.org/2000/svg" width="100" height="100" viewBox="0 0 100 100"><rect width="100%" height="100%" fill="#dc2626"/><path fill="#ffffff" d="M24.385 56.67h3.54q.97 0 1.63-.23.67-.24 1.06-.63.4-.39.57-.91.18-.52.18-1.1 0-.61-.19-1.1-.2-.49-.62-.83-.41-.35-1.07-.53-.65-.18-1.58-.18h-3.52zm2.98-13.36h-2.98v5.43h2.78q1.8 0 2.71-.65.92-.65.92-2.07 0-1.47-.83-2.09-.84-.62-2.6-.62m-6.48-2.71h6.48q1.84 0 3.16.35 1.31.35 2.15 1t1.23 1.58q.39.92.39 2.08 0 .66-.2 1.26-.19.61-.6 1.14-.41.52-1.04.95t-1.51.73q3.88.87 3.88 4.18 0 1.2-.46 2.21-.45 1.02-1.32 1.75-.87.74-2.15 1.15-1.27.42-2.91.42h-7.1zm20.62 9.45h2.61q.97 0 1.68-.24.72-.24 1.19-.69t.71-1.09q.23-.64.23-1.44 0-.75-.23-1.36-.24-.61-.7-1.04-.47-.43-1.19-.66-.71-.22-1.69-.22h-2.61zm-3.5-9.45h6.11q1.89 0 3.27.44 1.37.45 2.27 1.24t1.33 1.9q.44 1.1.44 2.41 0 1.37-.46 2.51-.45 1.13-1.36 1.95t-2.28 1.28q-1.37.45-3.21.45h-2.61v6.62h-3.5zm38.37 0h2.74l-5.84 18.8h-3.16l-4.1-12.84q-.17-.47-.32-1.15-.07.33-.15.61-.08.29-.17.54l-4.15 12.84h-3.17l-5.82-18.8h2.92q.46 0 .76.22.31.21.41.57l3.2 11.25q.1.42.2.9.1.49.2 1.02.11-.54.23-1.02t.27-.9l3.69-11.25q.1-.29.41-.54.3-.25.74-.25h1.03q.46 0 .74.22.29.22.43.57l3.68 11.25q.27.81.49 1.86.17-1.03.38-1.86l3.2-11.25q.08-.32.4-.55.31-.24.76-.24"/></svg>