<svg xmlns="http://www.w3.org/2000/svg" width="100" height="100" viewBox="0 0 100 100"><rect width="100%" height="100%" fill="#dc2626"/><path fill="#ffffff" d="M27.58 62.06h6.39q1.76 0 2.96-.43 1.2-.42 1.92-1.13.71-.7 1.03-1.64t.32-2q0-1.1-.35-1.98-.36-.89-1.11-1.51t-1.94-.95q-1.18-.33-2.85-.33h-6.37zm5.38-24.16h-5.38v9.82h5.03q3.24 0 4.9-1.18 1.66-1.17 1.66-3.73 0-2.66-1.51-3.78-1.5-1.13-4.7-1.13m-11.7-4.89h11.7q3.34 0 5.71.63 2.38.64 3.89 1.81 1.52 1.18 2.22 2.85.71 1.67.71 3.76 0 1.2-.36 2.29-.35 1.09-1.09 2.04t-1.88 1.73-2.71 1.32q7 1.57 7 7.56 0 2.16-.82 4-.82 1.83-2.4 3.16-1.57 1.33-3.88 2.08-2.3.75-5.26.75H21.26zm37.27 16.17h3.95q1.78 0 3.11-.45t2.19-1.23q.85-.79 1.28-1.87.42-1.08.42-2.37 0-2.59-1.7-3.98-1.71-1.38-5.21-1.38h-4.04zm11.7 5.26 8.51 12.55h-5.71q-1.62 0-2.35-1.27l-7.15-10.88q-.39-.61-.88-.87-.48-.26-1.42-.26h-2.7v13.28h-6.32V33.01h10.36q3.46 0 5.93.72 2.48.71 4.07 2.01 1.59 1.29 2.34 3.09.75 1.79.75 3.96 0 1.71-.5 3.24-.51 1.53-1.46 2.77-.95 1.25-2.35 2.19t-3.19 1.48q.62.35 1.13.83.52.48.94 1.14"/></svg>