<svg xmlns="http://www.w3.org/2000/svg" width="100" height="100" viewBox="0 0 100 100"><rect width="100%" height="100%" fill="#dc2626"/><path fill="#ffffff" d="M35.63 42.105h-9.95v6.22h7.84v3.21h-7.84v6.34h9.95v3.33H21.5v-22.41h14.13zm25.07 7.89q0 2.47-.82 4.57-.81 2.1-2.3 3.63-1.49 1.54-3.58 2.4t-4.65.86q-2.54 0-4.63-.86-2.1-.86-3.59-2.4-1.5-1.53-2.32-3.63t-.82-4.57q0-2.46.82-4.56t2.32-3.64q1.49-1.53 3.59-2.39 2.09-.86 4.63-.86 1.7 0 3.21.39 1.5.4 2.76 1.12 1.25.72 2.25 1.75t1.7 2.3 1.06 2.76q.37 1.49.37 3.13m-4.27 0q0-1.84-.49-3.31-.5-1.46-1.41-2.48-.92-1.03-2.23-1.57t-2.95-.54-2.95.54-2.24 1.57q-.92 1.02-1.41 2.48-.5 1.47-.5 3.31 0 1.85.5 3.31.49 1.47 1.41 2.48.93 1.02 2.24 1.56t2.95.54 2.95-.54 2.23-1.56q.91-1.01 1.41-2.48.49-1.46.49-3.31m22.07-7.89h-9.95v6.64h8.4v3.33h-8.4v9.13h-4.18v-22.41H78.5z"/></svg>