<svg xmlns="http://www.w3.org/2000/svg" width="100" height="100" viewBox="0 0 100 100"><rect width="100%" height="100%" fill="#dc2626"/><path fill="#ffffff" d="M43.81 33.915h6.07v32.53h-6.07v-14.22H28.53v14.22h-6.07v-32.53h6.07v13.99h15.28zm23.42 27.36h8.35q.9 0 1.43.5.53.51.53 1.34v3.33H55.22v-1.84q0-.57.23-1.19.24-.62.76-1.11l9.87-9.9q1.24-1.26 2.22-2.41.98-1.14 1.63-2.27.65-1.12 1-2.28t.35-2.45q0-1.16-.34-2.05-.33-.89-.95-1.5t-1.49-.91q-.86-.3-1.94-.3-.99 0-1.84.28-.84.28-1.49.78-.66.51-1.11 1.19-.45.67-.67 1.48-.38 1.03-.99 1.37t-1.76.16l-2.92-.52q.34-2.34 1.3-4.1.97-1.77 2.42-2.95t3.33-1.78q1.88-.59 4.04-.59 2.25 0 4.12.66t3.19 1.88q1.33 1.21 2.07 2.92.75 1.71.75 3.8 0 1.81-.53 3.34-.53 1.52-1.42 2.92t-2.08 2.7-2.5 2.66l-7.33 7.49q1.05-.32 2.1-.49 1.05-.16 1.99-.16"/></svg>