<svg xmlns="http://www.w3.org/2000/svg" width="100" height="100" viewBox="0 0 100 100"><rect width="100%" height="100%" fill="#dc2626"/><path fill="#ffffff" d="M26.38 39.155v9.09h.95q.57 0 .94-.16.38-.15.65-.5l5.98-7.58q.38-.47.79-.66t1.04-.19h3.48l-7.3 9.02q-.65.82-1.34 1.17.5.18.9.5.39.32.75.85l7.53 10.15H37.2q-.72 0-1.07-.2-.36-.2-.6-.59l-6.13-8.01q-.29-.41-.66-.58-.38-.16-1.08-.16h-1.28v9.54h-4.03v-21.69zm29.09 2.04-1.01 1.9q-.18.32-.38.46-.2.15-.5.15-.32 0-.68-.24-.37-.23-.88-.51-.51-.29-1.19-.52-.69-.23-1.62-.23-.84 0-1.47.2t-1.05.56q-.43.36-.64.86t-.21 1.11q0 .76.43 1.27.42.51 1.13.87.7.36 1.6.64.9.29 1.85.61.94.32 1.84.75t1.61 1.08q.7.65 1.13 1.6t.43 2.3q0 1.46-.5 2.75-.51 1.28-1.47 2.23-.97.96-2.37 1.5-1.39.55-3.19.55-1.04 0-2.04-.2-1.01-.2-1.93-.58-.92-.37-1.73-.9-.81-.52-1.44-1.17l1.18-1.93q.15-.21.39-.36.24-.14.51-.14.38 0 .81.31.44.31 1.04.68.6.38 1.4.68.8.31 1.93.31 1.72 0 2.67-.82.94-.81.94-2.34 0-.86-.42-1.4-.43-.54-1.14-.91-.7-.36-1.6-.62-.9-.25-1.83-.56-.93-.29-1.83-.71t-1.61-1.1q-.7-.68-1.13-1.69t-.43-2.5q0-1.18.48-2.31.47-1.12 1.37-1.99t2.22-1.39q1.32-.53 3.03-.53 1.92 0 3.54.6t2.76 1.68m18.63-2.04h3.55v21.69h-2.07q-.48 0-.8-.16t-.62-.53l-11.33-14.46q.09.99.09 1.83v13.32h-3.55v-21.69h2.11q.26 0 .45.02.18.03.33.09.14.07.27.2.14.13.3.34l11.37 14.52q-.04-.53-.07-1.04t-.03-.94z"/></svg>