<svg xmlns="http://www.w3.org/2000/svg" width="100" height="100" viewBox="0 0 100 100"><rect width="100%" height="100%" fill="#dc2626"/><path fill="#ffffff" d="M35.84 41.595h2.33v16.63h-2.72v-10.74q0-.64.06-1.39l-5.02 9.44q-.36.68-1.09.68h-.44q-.74 0-1.09-.68l-5.09-9.48q.04.38.06.75t.02.68v10.74h-2.72v-16.63h2.33q.21 0 .36.01t.27.06.22.15.19.28l4.98 9.23q.19.37.36.76t.33.8q.16-.42.33-.82.17-.39.37-.76l4.91-9.21q.09-.18.2-.28.1-.1.22-.15t.27-.06.36-.01m15.12 0-4.93 6.04-.58.71q.48-.24 1.04-.37t1.2-.13q.95 0 1.84.31t1.57.93q.68.63 1.09 1.56t.41 2.17q0 1.17-.42 2.18-.43 1.02-1.2 1.78t-1.86 1.2q-1.08.43-2.39.43-1.34 0-2.4-.42-1.05-.43-1.8-1.19-.75-.77-1.14-1.84-.4-1.08-.4-2.39 0-1.17.48-2.41.47-1.23 1.47-2.57l3.97-5.32q.21-.28.6-.47.4-.2.92-.2zm-4.29 14.49q.68 0 1.25-.23t.97-.64q.41-.42.64-.97.23-.56.23-1.22 0-.71-.22-1.28-.21-.57-.62-.97-.4-.39-.96-.6-.57-.21-1.24-.21-.68 0-1.24.23-.55.23-.94.64t-.61.97q-.22.55-.22 1.2 0 .69.19 1.26t.57.97q.37.4.92.63.55.22 1.28.22m14.88-14.49v10.72q0 1.4-.34 2.53-.35 1.13-1.03 1.92-.69.79-1.71 1.22-1.03.42-2.38.42-.62 0-1.22-.07-.6-.08-1.25-.24.03-.46.08-.92l.08-.92q.03-.25.2-.4.16-.16.47-.16.2 0 .52.08.31.08.8.08.65 0 1.16-.19.5-.19.84-.6.34-.42.51-1.08.18-.66.18-1.6v-10.79zm18.31 8.32q0 1.82-.61 3.35t-1.71 2.64q-1.11 1.1-2.66 1.71t-3.45.61h-6.34v-16.63h6.34q1.9 0 3.45.62 1.55.61 2.66 1.71 1.1 1.1 1.71 2.63t.61 3.36m-3.18 0q0-1.37-.36-2.46t-1.04-1.84q-.69-.75-1.66-1.16-.97-.4-2.19-.4H68.2v11.71h3.23q1.22 0 2.19-.4.97-.41 1.66-1.16.68-.75 1.04-1.84t.36-2.45"/></svg>