<svg xmlns="http://www.w3.org/2000/svg" width="100" height="100" viewBox="0 0 100 100"><rect width="100%" height="100%" fill="#dc2626"/><path fill="#ffffff" d="M39.595 39.88h2.84v20.24h-3.32V47.04q0-.78.08-1.69l-6.11 11.49q-.44.83-1.33.83h-.54q-.89 0-1.33-.83l-6.18-11.53q.04.46.07.91.02.45.02.82v13.08h-3.31V39.88h2.84q.25 0 .43.01t.33.07.27.18q.12.13.23.34l6.06 11.24q.24.45.44.92.2.48.4.98.2-.51.41-1 .21-.48.44-.93l5.98-11.21q.11-.21.24-.34.13-.12.27-.18.15-.06.33-.07t.44-.01m11.11 17.3h3.81q1.05 0 1.76-.25.72-.25 1.14-.67.43-.42.62-.98t.19-1.19q0-.66-.21-1.19-.21-.52-.66-.89t-1.15-.57q-.71-.2-1.7-.2h-3.8zm3.21-14.39h-3.21v5.85h3q1.93 0 2.92-.7.98-.7.98-2.23 0-1.58-.89-2.25-.9-.67-2.8-.67m-6.97-2.91h6.97q1.99 0 3.4.37 1.41.38 2.32 1.08.9.7 1.32 1.7.42.99.42 2.24 0 .71-.21 1.36t-.65 1.22-1.12 1.03-1.62.78q4.17.94 4.17 4.51 0 1.29-.49 2.38t-1.42 1.88q-.94.79-2.31 1.24-1.38.45-3.14.45h-7.64zm32.57 0v3.09h-6.1v17.15h-3.77V42.97h-6.1v-3.09z"/></svg>