<svg xmlns="http://www.w3.org/2000/svg" width="100" height="100" viewBox="0 0 100 100"><rect width="100%" height="100%" fill="#dc2626"/><path fill="#ffffff" d="M46.425 36.625h3.75v26.75h-4.38v-17.28q0-1.03.11-2.24l-8.09 15.19q-.57 1.09-1.75 1.09h-.71q-1.18 0-1.75-1.09l-8.18-15.24q.05.61.09 1.2t.04 1.09v17.28h-4.39v-26.75h3.76q.33 0 .57.02t.44.09q.19.07.35.24t.3.44l8.02 14.86q.31.59.58 1.22t.53 1.3q.25-.69.53-1.33.28-.63.59-1.23l7.9-14.82q.15-.27.32-.44.16-.17.36-.24.19-.07.43-.09t.58-.02m14.69 0v11.21h1.16q.7 0 1.17-.19.46-.2.79-.62l7.38-9.35q.47-.59.97-.82.51-.23 1.29-.23h4.29l-9.01 11.12q-.79 1.02-1.64 1.44.61.22 1.1.62t.93 1.05l9.29 12.52h-4.39q-.88 0-1.32-.25-.43-.25-.73-.73l-7.57-9.88q-.35-.5-.81-.7-.46-.21-1.33-.21h-1.57v11.77h-4.98v-26.75z"/></svg>