<svg xmlns="http://www.w3.org/2000/svg" width="100" height="100" viewBox="0 0 100 100"><rect width="100%" height="100%" fill="#dc2626"/><path fill="#ffffff" d="M33.36 42.77h2.03v14.46h-2.37v-9.34q0-.56.06-1.21l-4.37 8.21q-.31.59-.95.59h-.38q-.64 0-.95-.59l-4.42-8.24q.03.33.05.65t.02.59v9.34h-2.37V42.77h2.03q.18 0 .31.01t.23.05q.11.04.19.13.09.09.17.24l4.33 8.03q.17.32.31.66.15.34.29.7.14-.37.29-.72.15-.34.32-.66l4.27-8.01q.08-.15.17-.24t.19-.13q.11-.04.24-.05t.31-.01m7.94 12.24h5.78v2.22h-8.47V42.77h2.69zm21.35-12.24h2.03v14.46h-2.37v-9.34q0-.56.06-1.21L58 54.89q-.31.59-.95.59h-.38q-.64 0-.95-.59l-4.42-8.24q.03.33.05.65t.02.59v9.34H49V42.77h2.03q.18 0 .31.01t.24.05q.1.04.19.13.08.09.16.24l4.33 8.03q.17.32.32.66.14.34.28.7.14-.37.29-.72.15-.34.32-.66l4.27-8.01q.08-.15.17-.24t.19-.13q.11-.04.24-.05t.31-.01m8.29 9h4.6l-1.76-4.81q-.13-.32-.27-.76t-.28-.95q-.13.51-.27.95-.14.45-.27.78zm3.67-9 5.68 14.46h-2.08q-.35 0-.57-.18-.22-.17-.33-.43l-1.08-2.95h-5.99l-1.08 2.95q-.08.23-.31.42t-.57.19h-2.1l5.69-14.46z"/></svg>