<svg xmlns="http://www.w3.org/2000/svg" width="100" height="100" viewBox="0 0 100 100"><rect width="100%" height="100%" fill="#dc2626"/><path fill="#ffffff" d="M28.85 49.245h3.62q1.63 0 2.85-.41 1.21-.4 2-1.12.78-.72 1.17-1.71.38-.99.38-2.18 0-2.36-1.55-3.63-1.56-1.27-4.77-1.27h-3.7zm10.71 4.82 7.78 11.48h-5.22q-1.48 0-2.15-1.16l-6.54-9.96q-.36-.55-.8-.79t-1.3-.24h-2.48v12.15h-5.78v-31.09h9.48q3.16 0 5.43.66 2.27.65 3.72 1.83 1.45 1.19 2.14 2.83.69 1.65.69 3.62 0 1.57-.46 2.97-.47 1.4-1.34 2.54t-2.15 2-2.91 1.35q.56.33 1.03.77t.86 1.04m31.56-19.61h5.81v31.09h-5.81v-13.59H56.53v13.59h-5.81v-31.09h5.81v13.37h14.59z"/></svg>