<svg xmlns="http://www.w3.org/2000/svg" width="100" height="100" viewBox="0 0 100 100"><rect width="100%" height="100%" fill="#dc2626"/><path fill="#ffffff" d="m45.25 35.325-1.67 3.17q-.3.53-.64.77-.34.23-.84.23-.52 0-1.13-.38-.62-.39-1.47-.87-.85-.47-1.98-.86-1.14-.39-2.69-.39-1.4 0-2.45.34t-1.76.94q-.72.6-1.07 1.44-.35.83-.35 1.83 0 1.28.72 2.13.71.85 1.88 1.45 1.18.6 2.68 1.07 1.5.48 3.07 1.02 1.58.53 3.08 1.25 1.5.71 2.67 1.8 1.18 1.08 1.89 2.66.71 1.57.71 3.82 0 2.45-.83 4.59-.84 2.14-2.45 3.73-1.62 1.58-3.94 2.5-2.33.91-5.33.91-1.72 0-3.4-.34-1.67-.34-3.21-.96-1.54-.63-2.89-1.5-1.35-.88-2.4-1.95l1.98-3.23q.25-.35.65-.58.4-.24.85-.24.62 0 1.35.51.72.51 1.72 1.14 1 .62 2.34 1.14 1.34.51 3.21.51 2.88 0 4.45-1.36 1.58-1.37 1.58-3.92 0-1.42-.71-2.32-.72-.9-1.89-1.51-1.18-.62-2.68-1.04-1.5-.43-3.05-.93t-3.05-1.2q-1.5-.69-2.67-1.82-1.18-1.13-1.89-2.81-.71-1.69-.71-4.17 0-1.97.79-3.85.78-1.87 2.28-3.32t3.7-2.33q2.2-.87 5.05-.87 3.2 0 5.9 1t4.6 2.8m13.23 27.5h6.8q1.87 0 3.15-.45 1.27-.45 2.04-1.2.76-.75 1.1-1.75.33-1 .33-2.13 0-1.17-.37-2.11-.38-.94-1.18-1.6t-2.06-1.01-3.04-.35h-6.77zm5.72-25.7h-5.72v10.45h5.35q3.45 0 5.21-1.25t1.76-3.98q0-2.82-1.6-4.02t-5-1.2m-12.45-5.2H64.2q3.55 0 6.08.67 2.52.68 4.14 1.93 1.61 1.25 2.36 3.02.75 1.78.75 4 0 1.28-.38 2.44-.37 1.16-1.16 2.18-.79 1.01-2 1.83-1.21.83-2.89 1.4 7.45 1.68 7.45 8.05 0 2.3-.87 4.25-.88 1.96-2.55 3.37-1.68 1.41-4.13 2.21t-5.6.8H51.75z"/></svg>