<svg xmlns="http://www.w3.org/2000/svg" width="100" height="100" viewBox="0 0 100 100"><rect width="100%" height="100%" fill="#dc2626"/><path fill="#ffffff" d="m37.07 39.725-1.17 2.23q-.21.36-.45.53t-.59.17q-.36 0-.79-.27-.43-.28-1.03-.61-.59-.33-1.39-.6-.79-.27-1.88-.27-.98 0-1.71.23-.74.24-1.24.66t-.74 1.01q-.25.58-.25 1.28 0 .89.5 1.49.5.59 1.32 1.01.83.42 1.88.76 1.05.33 2.15.71 1.1.37 2.15.87t1.87 1.26q.83.76 1.32 1.86.5 1.11.5 2.68 0 1.72-.58 3.21-.59 1.5-1.72 2.61t-2.75 1.75q-1.63.64-3.73.64-1.21 0-2.38-.24-1.17-.23-2.25-.67t-2.02-1.05q-.95-.61-1.68-1.37l1.38-2.25q.18-.25.46-.41.28-.17.59-.17.44 0 .95.36.5.36 1.2.79.7.44 1.64.8t2.25.36q2.01 0 3.11-.95 1.11-.96 1.11-2.74 0-1-.5-1.63t-1.32-1.06q-.83-.43-1.88-.73-1.05-.29-2.13-.64-1.09-.35-2.14-.84t-1.87-1.28-1.32-1.97-.5-2.91q0-1.39.55-2.7t1.6-2.33q1.05-1.01 2.59-1.62 1.54-.62 3.54-.62 2.24 0 4.13.7t3.22 1.96M59 56.685q.38 0 .68.3l1.85 2.01q-1.54 1.91-3.79 2.92-2.24 1.02-5.39 1.02-2.82 0-5.07-.96-2.25-.97-3.84-2.68-1.59-1.72-2.44-4.1t-.85-5.19q0-2.86.91-5.23t2.56-4.08q1.66-1.72 3.95-2.67 2.29-.96 5.07-.96 2.77 0 4.91.91 2.15.91 3.65 2.38l-1.57 2.19q-.14.21-.36.37t-.61.16q-.26 0-.54-.15t-.61-.37-.77-.48-1.02-.48q-.57-.22-1.34-.37-.76-.15-1.75-.15-1.7 0-3.11.61-1.41.6-2.42 1.75-1.02 1.14-1.58 2.8-.56 1.65-.56 3.77 0 2.13.6 3.79.61 1.67 1.64 2.8 1.03 1.14 2.43 1.75 1.4.6 3.01.6.97 0 1.74-.11.78-.1 1.44-.33t1.24-.58q.59-.36 1.17-.89.17-.16.36-.25.2-.1.41-.1m10.48 2.08h10.11v3.89H64.77v-25.31h4.71z"/></svg>