<svg xmlns="http://www.w3.org/2000/svg" width="100" height="100" viewBox="0 0 100 100"><rect width="100%" height="100%" fill="#dc2626"/><path fill="#ffffff" d="M46.755 33.01v5.19h-10.25v28.79h-6.32V38.2h-10.24v-5.19zm10.79 0v14.24h1.48q.89 0 1.48-.25.58-.24 1.01-.78l9.37-11.87q.59-.75 1.24-1.05.64-.29 1.63-.29h5.45l-11.44 14.12q-1.01 1.29-2.09 1.84.77.28 1.4.78.62.51 1.18 1.33l11.8 15.91h-5.57q-1.13 0-1.68-.32-.55-.31-.93-.93l-9.61-12.54q-.45-.64-1.03-.9-.59-.26-1.7-.26h-1.99v14.95h-6.33V33.01z"/></svg>