<svg xmlns="http://www.w3.org/2000/svg" width="100" height="100" viewBox="0 0 100 100"><rect width="100%" height="100%" fill="#dc2626"/><path fill="#ffffff" d="M34.99 40.24v2.98h-5.88v16.54h-3.63V43.22h-5.89v-2.98zm21 0h2.74v19.52h-3.2V47.15q0-.76.08-1.63l-5.9 11.08q-.42.8-1.28.8h-.52q-.86 0-1.28-.8l-5.97-11.12q.04.44.07.87.03.44.03.8v12.61h-3.2V40.24h2.74q.24 0 .42.01.17.02.32.07.14.05.25.18.12.12.22.32l5.85 10.84q.23.43.43.89.19.46.38.95.19-.5.39-.97t.43-.9l5.77-10.81q.11-.2.23-.32.12-.13.26-.18t.32-.07q.17-.01.42-.01M80.41 50q0 2.15-.72 3.94-.71 1.8-2.01 3.09-1.29 1.3-3.12 2.01-1.82.72-4.05.72h-7.44V40.24h7.44q2.23 0 4.05.72 1.83.72 3.12 2.01 1.3 1.29 2.01 3.09.72 1.79.72 3.94m-3.73 0q0-1.61-.42-2.88-.43-1.28-1.23-2.16-.8-.89-1.95-1.36-1.14-.47-2.57-.47h-3.79v13.74h3.79q1.43 0 2.57-.47 1.15-.47 1.95-1.36.8-.88 1.23-2.16.42-1.27.42-2.88"/></svg>