<svg xmlns="http://www.w3.org/2000/svg" width="100" height="100" viewBox="0 0 100 100"><rect width="100%" height="100%" fill="#dc2626"/><path fill="#ffffff" d="m30.305 41.325-5.15 6.3-.6.74q.5-.25 1.08-.39.59-.14 1.26-.14.98 0 1.91.33.93.32 1.64.98.71.65 1.14 1.62t.43 2.27q0 1.21-.44 2.27-.45 1.07-1.25 1.86t-1.94 1.25q-1.13.45-2.5.45-1.39 0-2.5-.44-1.1-.45-1.88-1.24-.78-.8-1.19-1.92-.42-1.13-.42-2.49 0-1.23.5-2.52t1.54-2.68l4.14-5.56q.22-.28.63-.49.42-.2.96-.2zm-4.48 15.12q.71 0 1.3-.24.6-.24 1.02-.67.43-.44.67-1.02t.24-1.26q0-.75-.23-1.34-.23-.6-.65-1.01t-1.01-.63q-.58-.22-1.29-.22t-1.29.24q-.57.24-.98.67t-.64 1.01q-.22.58-.22 1.25 0 .72.19 1.32.2.59.59 1.01t.97.65q.57.24 1.33.24m17.46-6.47h5.76v7.02q-1.32.97-2.81 1.42-1.5.45-3.2.45-2.13 0-3.85-.66t-2.94-1.83q-1.22-1.18-1.88-2.81t-.66-3.57q0-1.95.64-3.58.64-1.64 1.81-2.81 1.17-1.18 2.83-1.83 1.67-.64 3.75-.64 1.05 0 1.97.16.92.17 1.71.47.78.29 1.43.71t1.19.92l-.93 1.47q-.21.35-.56.42-.35.08-.76-.17-.39-.23-.79-.46-.39-.22-.88-.39t-1.09-.28q-.61-.11-1.4-.11-1.28 0-2.32.44-1.04.43-1.77 1.23-.73.81-1.13 1.93-.4 1.13-.4 2.52 0 1.49.43 2.66t1.2 1.98 1.87 1.24q1.09.42 2.43.42.96 0 1.72-.2.75-.2 1.47-.55v-3.15h-2.18q-.31 0-.49-.17-.17-.17-.17-.43zm22.66-8.65-6.33 10.63v6.72h-3.21v-6.72l-6.33-10.63h2.85q.42 0 .66.2.25.21.42.52l3.16 5.79q.28.52.49.98.21.45.38.91.15-.46.36-.91.2-.46.47-.98l3.15-5.79q.13-.27.4-.49.26-.23.67-.23zm5 8.72h2.41q.89 0 1.55-.22t1.1-.64q.44-.41.65-1 .22-.6.22-1.33 0-.7-.22-1.26-.21-.56-.65-.96-.43-.4-1.09-.61t-1.56-.21h-2.41zm-3.23-8.72h5.64q1.74 0 3.01.41 1.28.4 2.1 1.14.83.73 1.23 1.75.41 1.02.41 2.23 0 1.26-.42 2.31t-1.26 1.81q-.84.75-2.11 1.17t-2.96.42h-2.41v6.11h-3.23z"/></svg>