<svg xmlns="http://www.w3.org/2000/svg" width="100" height="100" viewBox="0 0 100 100"><rect width="100%" height="100%" fill="#dc2626"/><path fill="#ffffff" d="M24.295 51.77h4.6l-1.76-4.81q-.13-.32-.27-.76t-.28-.95q-.13.51-.27.95-.14.45-.27.78zm3.67-9 5.68 14.46h-2.08q-.35 0-.57-.18-.22-.17-.33-.43l-1.08-2.95h-5.99l-1.08 2.95q-.08.23-.31.42t-.57.19h-2.1l5.69-14.46zm9.88 0v14.46h-2.7V42.77zM53.915 50q0 1.59-.53 2.92t-1.49 2.29-2.31 1.49-3 .53h-5.51V42.77h5.51q1.65 0 3 .53 1.35.54 2.31 1.49.96.96 1.49 2.29t.53 2.92m-2.76 0q0-1.19-.31-2.14-.32-.94-.91-1.59-.6-.66-1.44-1.01-.85-.35-1.91-.35h-2.81v10.18h2.81q1.06 0 1.91-.35.84-.35 1.44-1.01.59-.65.91-1.59.31-.95.31-2.14m7.82 5.01h5.78v2.22h-8.47V42.77h2.69zM80.465 50q0 1.59-.52 2.94-.53 1.36-1.49 2.35t-2.31 1.54q-1.35.56-3 .56-1.64 0-2.99-.56-1.35-.55-2.31-1.54-.97-.99-1.5-2.35-.53-1.35-.53-2.94t.53-2.95q.53-1.35 1.5-2.34.96-.99 2.31-1.54 1.35-.56 2.99-.56 1.1 0 2.07.25.97.26 1.78.73.81.46 1.46 1.12.64.67 1.09 1.49t.69 1.78q.23.96.23 2.02m-2.75 0q0-1.19-.32-2.14-.32-.94-.91-1.6t-1.43-1.01q-.85-.35-1.91-.35t-1.9.35q-.85.35-1.44 1.01-.6.66-.92 1.6-.32.95-.32 2.14t.32 2.14q.32.94.92 1.59.59.66 1.44 1.01.84.35 1.9.35t1.91-.35q.84-.35 1.43-1.01.59-.65.91-1.59.32-.95.32-2.14"/></svg>