<svg xmlns="http://www.w3.org/2000/svg" width="100" height="100" viewBox="0 0 100 100"><rect width="100%" height="100%" fill="#dc2626"/><path fill="#ffffff" d="M23.985 50.46h4.83l-1.84-5.05q-.14-.34-.29-.8-.14-.46-.29-1-.14.54-.29 1-.14.47-.28.82zm3.86-9.45 5.96 15.18h-2.18q-.37 0-.6-.18-.23-.19-.35-.46l-1.13-3.1h-6.29l-1.14 3.1q-.08.24-.32.44t-.6.2h-2.2l5.97-15.18zm16.32 1.42-.7 1.34q-.12.22-.27.32-.14.1-.35.1-.22 0-.48-.16-.25-.17-.61-.37t-.84-.36q-.47-.16-1.12-.16-.59 0-1.03.14t-.74.39q-.3.26-.45.61t-.15.77q0 .53.3.89t.8.61q.49.25 1.12.45t1.29.43q.66.22 1.29.52t1.13.76q.49.46.79 1.12t.3 1.6q0 1.03-.35 1.93-.36.9-1.03 1.56-.68.67-1.66 1.05-.97.39-2.23.39-.73 0-1.43-.14-.7-.15-1.35-.41t-1.21-.63q-.57-.37-1.01-.82l.83-1.35q.1-.15.27-.25t.36-.1q.26 0 .57.22.3.21.72.48.42.26.98.47.56.22 1.35.22 1.21 0 1.87-.57.66-.58.66-1.65 0-.6-.3-.97-.3-.38-.79-.64t-1.12-.44q-.63-.17-1.29-.38-.65-.21-1.28-.51-.63-.29-1.12-.76-.49-.48-.79-1.19-.3-.7-.3-1.74 0-.83.33-1.62t.96-1.4 1.55-.97q.93-.37 2.12-.37 1.35 0 2.48.42 1.14.42 1.93 1.17m5.57-1.42v15.18h-2.84V41.01zm14 0v2.32h-4.58v12.86h-2.83V43.33h-4.57v-2.32zm3.99 7.59q0 1.25.33 2.24.34.99.96 1.68.63.69 1.51 1.06.89.36 2.01.36 1.11 0 2-.36.88-.37 1.5-1.06t.96-1.68q.33-.99.33-2.24t-.33-2.24q-.34-1-.96-1.69t-1.5-1.06q-.89-.37-2-.37-1.12 0-2.01.37-.88.37-1.51 1.06-.62.69-.96 1.69-.33.99-.33 2.24m9.43 6.36 3.85 4.2h-2.33q-.51 0-.91-.14-.4-.13-.74-.5l-2.23-2.46q-.53.15-1.09.22-.57.08-1.17.08-1.73 0-3.14-.58-1.42-.59-2.44-1.63-1.01-1.04-1.56-2.46-.56-1.42-.56-3.09t.56-3.09q.55-1.43 1.56-2.47 1.02-1.04 2.44-1.62 1.41-.58 3.14-.58 1.15 0 2.17.27 1.02.26 1.87.75t1.53 1.19q.67.7 1.15 1.56.47.86.71 1.87.25 1.01.25 2.12 0 1.02-.21 1.95t-.6 1.73q-.4.81-.96 1.49-.57.68-1.29 1.19"/></svg>