<svg xmlns="http://www.w3.org/2000/svg" width="100" height="100" viewBox="0 0 100 100"><rect width="100%" height="100%" fill="#dc2626"/><path fill="#ffffff" d="M29.56 45.42h-5.78v3.85h4.88v1.94h-4.88v5.3h-2.43V43.5h8.21zm11.07-1.92v1.98H36.7v11.03h-2.42V45.48h-3.92V43.5zm10.8 0v1.98H47.5v11.03h-2.42V45.48h-3.92V43.5zM65.55 50q0 1.43-.47 2.65-.48 1.22-1.34 2.11-.87.89-2.08 1.39-1.22.5-2.7.5t-2.69-.5q-1.22-.5-2.08-1.39-.87-.89-1.35-2.11T52.36 50t.48-2.65 1.35-2.11q.86-.89 2.08-1.39 1.21-.5 2.69-.5.99 0 1.86.23.88.23 1.6.65.73.42 1.31 1.02.58.59.99 1.33.4.74.62 1.6.21.87.21 1.82m-2.48 0q0-1.07-.29-1.92-.28-.85-.81-1.44-.54-.6-1.3-.91-.76-.32-1.71-.32t-1.71.32q-.77.31-1.3.91-.54.59-.82 1.44-.29.85-.29 1.92t.29 1.92q.28.85.82 1.44.53.59 1.3.91.76.31 1.71.31t1.71-.31q.76-.32 1.3-.91.53-.59.81-1.44.29-.85.29-1.92m13.15-6.5h2.43v13.01h-2.43v-5.69h-6.11v5.69h-2.43V43.5h2.43v5.59h6.11z"/></svg>