<svg xmlns="http://www.w3.org/2000/svg" width="100" height="100" viewBox="0 0 100 100"><rect width="100%" height="100%" fill="#dc2626"/><path fill="#ffffff" d="M39.96 49.95h11.28V63.7q-2.58 1.9-5.51 2.78-2.92.89-6.26.89-4.16 0-7.53-1.3-3.37-1.29-5.76-3.59-2.38-2.31-3.68-5.5-1.29-3.2-1.29-6.98 0-3.83 1.25-7.03 1.24-3.19 3.53-5.5 2.29-2.3 5.56-3.57t7.33-1.27q2.07 0 3.87.33t3.34.91q1.53.57 2.8 1.39 1.27.83 2.33 1.81l-1.81 2.87q-.42.68-1.1.84-.69.15-1.48-.34l-1.56-.9q-.77-.44-1.72-.77t-2.14-.54q-1.19-.22-2.74-.22-2.51 0-4.55.85-2.03.85-3.46 2.42-1.44 1.58-2.21 3.78-.78 2.21-.78 4.94 0 2.91.84 5.2.83 2.3 2.35 3.88 1.51 1.59 3.65 2.42 2.14.84 4.77.84 1.88 0 3.36-.4t2.89-1.08V54.7h-4.27q-.62 0-.96-.34t-.34-.84zm38.83-11.91H63.7V48.1h12.74v5.05H63.7v13.84h-6.35V33.01h21.44z"/></svg>