<svg xmlns="http://www.w3.org/2000/svg" width="100" height="100" viewBox="0 0 100 100"><rect width="100%" height="100%" fill="#dc2626"/><path fill="#ffffff" d="M31.57 49.975h6.96v8.48q-1.6 1.17-3.4 1.72-1.81.54-3.87.54-2.56 0-4.64-.8-2.08-.79-3.56-2.21-1.47-1.43-2.27-3.4-.79-1.97-.79-4.3 0-2.37.77-4.34.76-1.97 2.18-3.39 1.41-1.42 3.43-2.21 2.01-.78 4.52-.78 1.28 0 2.39.2 1.11.21 2.06.56.95.36 1.73.87.78.5 1.43 1.11l-1.11 1.77q-.26.42-.68.52-.42.09-.92-.22-.48-.27-.95-.55-.48-.27-1.07-.47-.59-.21-1.32-.34t-1.69-.13q-1.55 0-2.8.52-1.26.53-2.14 1.5-.89.97-1.37 2.33t-.48 3.05q0 1.79.52 3.21.51 1.41 1.45 2.39.93.98 2.25 1.49 1.32.52 2.95.52 1.16 0 2.07-.25.91-.24 1.78-.66v-3.8h-2.63q-.38 0-.59-.21t-.21-.52zm21.05 0h6.96v8.48q-1.59 1.17-3.4 1.72-1.8.54-3.86.54-2.57 0-4.65-.8-2.08-.79-3.55-2.21-1.47-1.43-2.27-3.4t-.8-4.3q0-2.37.77-4.34t2.18-3.39q1.42-1.42 3.43-2.21 2.02-.78 4.53-.78 1.27 0 2.38.2 1.11.21 2.06.56.95.36 1.73.87.79.5 1.44 1.11l-1.12 1.77q-.26.42-.68.52-.42.09-.91-.22-.48-.27-.96-.55-.48-.27-1.07-.47-.58-.21-1.32-.34-.73-.13-1.69-.13-1.55 0-2.8.52-1.26.53-2.14 1.5t-1.36 2.33-.48 3.05q0 1.79.51 3.21.52 1.41 1.45 2.39.94.98 2.26 1.49 1.32.52 2.94.52 1.16 0 2.08-.25.91-.24 1.78-.66v-3.8h-2.64q-.38 0-.59-.21t-.21-.52zM80 39.515l-7.64 12.85v8.12h-3.89v-8.12l-7.64-12.85h3.44q.5 0 .8.25t.5.62l3.83 7.01q.33.62.59 1.17.25.55.45 1.1.19-.55.44-1.1.24-.55.56-1.17l3.82-7.01q.16-.32.48-.59.31-.28.81-.28z"/></svg>