<svg xmlns="http://www.w3.org/2000/svg" width="100" height="100" viewBox="0 0 100 100"><rect width="100%" height="100%" fill="#dc2626"/><path fill="#ffffff" d="M23.04 41.325v7.27h.75q.46 0 .76-.13.3-.12.52-.4l4.78-6.06q.3-.38.63-.53t.84-.15h2.78l-5.84 7.21q-.52.66-1.07.94.4.14.71.4.32.26.61.68l6.02 8.12h-2.84q-.58 0-.86-.16t-.47-.48l-4.91-6.4q-.23-.33-.53-.46t-.86-.13h-1.02v7.63h-3.23v-17.35zm25.14 13.26q.26 0 .47.2l1.27 1.38q-1.06 1.31-2.6 2.01-1.54.69-3.7.69-1.93 0-3.48-.66-1.54-.66-2.63-1.83-1.09-1.18-1.67-2.81-.59-1.63-.59-3.57 0-1.95.63-3.58.62-1.62 1.76-2.8 1.13-1.18 2.7-1.83t3.48-.65q1.9 0 3.37.62t2.5 1.63l-1.08 1.5q-.1.15-.25.25-.15.11-.41.11-.18 0-.37-.1t-.42-.25-.53-.33-.7-.33q-.39-.15-.91-.25-.53-.11-1.21-.11-1.16 0-2.13.42-.97.41-1.66 1.2-.7.78-1.08 1.92-.39 1.13-.39 2.58 0 1.47.42 2.61.41 1.14 1.12 1.92t1.67 1.19q.96.42 2.06.42.66 0 1.2-.08.53-.07.98-.22.45-.16.85-.41.4-.24.8-.6.12-.11.25-.18.13-.06.28-.06m16.08-13.26v2.65h-5.23v14.7H55.8v-14.7h-5.23v-2.65zm14.19 13.26q.27 0 .47.2l1.27 1.38q-1.05 1.31-2.59 2.01-1.55.69-3.71.69-1.93 0-3.47-.66t-2.63-1.83q-1.1-1.18-1.68-2.81t-.58-3.57q0-1.95.62-3.58.63-1.62 1.76-2.8 1.14-1.18 2.71-1.83t3.48-.65q1.89 0 3.36.62t2.51 1.63l-1.08 1.5q-.1.15-.25.25-.15.11-.41.11-.18 0-.38-.1-.19-.1-.42-.25-.22-.15-.52-.33t-.7-.33-.92-.25q-.52-.11-1.2-.11-1.17 0-2.13.42-.97.41-1.67 1.2-.69.78-1.08 1.92-.38 1.13-.38 2.58 0 1.47.41 2.61.42 1.14 1.13 1.92.7.78 1.66 1.19.96.42 2.07.42.66 0 1.19-.08.54-.07.99-.22.45-.16.85-.41.4-.24.8-.6.12-.11.25-.18.13-.06.27-.06"/></svg>