<svg xmlns="http://www.w3.org/2000/svg" width="100" height="100" viewBox="0 0 100 100"><rect width="100%" height="100%" fill="#dc2626"/><path fill="#ffffff" d="M33.925 55.16q.29 0 .52.23l1.43 1.55q-1.18 1.47-2.92 2.25-1.73.79-4.16.79-2.18 0-3.91-.75-1.74-.74-2.97-2.06-1.22-1.33-1.88-3.16-.65-1.84-.65-4.01 0-2.2.7-4.03t1.98-3.15q1.27-1.33 3.04-2.06 1.77-.74 3.91-.74t3.79.7q1.66.71 2.82 1.84l-1.22 1.69q-.11.16-.28.28-.16.12-.46.12-.2 0-.42-.11-.22-.12-.47-.28-.26-.17-.6-.38-.33-.2-.78-.37-.44-.17-1.03-.28-.59-.12-1.36-.12-1.31 0-2.39.47-1.09.47-1.87 1.35-.79.88-1.22 2.16t-.43 2.91q0 1.65.46 2.93.47 1.28 1.27 2.16.79.88 1.87 1.34 1.08.47 2.32.47.75 0 1.35-.08t1.11-.26q.5-.18.95-.45.46-.28.9-.68.14-.13.28-.2.15-.07.32-.07m22.88-14.92h2.74v19.52h-3.2V47.15q0-.76.08-1.63l-5.9 11.08q-.42.8-1.28.8h-.52q-.86 0-1.28-.8l-5.96-11.12q.04.44.06.87.03.44.03.8v12.61h-3.2V40.24h2.74q.24 0 .42.01.17.02.32.07.14.05.25.18.12.12.23.32l5.84 10.84q.23.43.43.89.19.46.38.95.19-.5.39-.97.21-.47.43-.9l5.77-10.81q.11-.2.23-.32.12-.13.26-.18t.32-.07q.17-.01.42-.01m11.19 12.15h6.21l-2.38-6.49q-.17-.44-.36-1.03t-.38-1.28q-.17.69-.36 1.29t-.37 1.04zm4.95-12.15 7.67 19.52h-2.81q-.47 0-.77-.24-.29-.23-.44-.58l-1.46-3.99h-8.09l-1.45 3.99q-.11.31-.42.56-.31.26-.77.26h-2.84l7.68-19.52z"/></svg>