<svg xmlns="http://www.w3.org/2000/svg" width="100" height="100" viewBox="0 0 100 100"><rect width="100%" height="100%" fill="#dc2626"/><path fill="#ffffff" d="M33.5 43.5h1.83v13.01h-2.14V48.1q0-.5.06-1.09l-3.94 7.39q-.28.53-.85.53h-.34q-.58 0-.86-.53l-3.98-7.41q.03.29.05.58t.02.53v8.41h-2.14V43.5h2.11q.12.01.21.05.1.04.17.12.08.08.15.21l3.9 7.23q.15.29.28.59.13.31.26.63.12-.33.26-.64.13-.31.29-.6l3.84-7.21q.07-.13.15-.21t.18-.12q.09-.04.21-.05zm13.66 9.94q.2 0 .35.15l.96 1.04q-.8.98-1.95 1.5-1.16.52-2.78.52-1.45 0-2.6-.49-1.16-.5-1.98-1.38t-1.26-2.1q-.43-1.23-.43-2.68 0-1.46.47-2.68.46-1.22 1.31-2.11.85-.88 2.03-1.37t2.61-.49 2.53.47 1.87 1.22l-.81 1.13q-.07.11-.18.19t-.31.08q-.14 0-.28-.08-.14-.07-.31-.19-.18-.11-.4-.24-.23-.14-.52-.25-.3-.11-.69-.19t-.91-.08q-.87 0-1.59.31-.73.31-1.25.9t-.81 1.44-.29 1.94q0 1.1.31 1.96.31.85.84 1.44.54.58 1.26.89t1.54.31q.5 0 .9-.05.4-.06.74-.17.33-.12.64-.3.3-.19.59-.46.09-.08.19-.13t.21-.05M62.54 50q0 1.43-.47 2.65t-1.34 2.11q-.86.89-2.08 1.39-1.21.5-2.7.5-1.47 0-2.69-.5-1.21-.5-2.08-1.39t-1.35-2.11q-.47-1.22-.47-2.65t.47-2.65q.48-1.22 1.35-2.11t2.08-1.39q1.22-.5 2.69-.5.99 0 1.87.23.87.23 1.6.65t1.31 1.02q.58.59.98 1.33.41.74.62 1.6.21.87.21 1.82m-2.47 0q0-1.07-.29-1.92t-.82-1.44q-.53-.6-1.29-.91-.76-.32-1.72-.32-.95 0-1.71.32-.76.31-1.3.91-.53.59-.82 1.44T51.83 50t.29 1.92.82 1.44q.54.59 1.3.91.76.31 1.71.31.96 0 1.72-.31.76-.32 1.29-.91t.82-1.44.29-1.92m16.89-6.5h1.83v13.01h-2.14V48.1q0-.5.06-1.09l-3.94 7.39q-.27.53-.85.53h-.34q-.58 0-.86-.53l-3.98-7.41q.03.29.05.58t.02.53v8.41h-2.14V43.5h2.11q.12.01.21.05.1.04.17.12.08.08.15.21l3.9 7.23q.15.29.28.59.13.31.26.63.12-.33.26-.64.13-.31.29-.6l3.84-7.21q.07-.13.15-.21t.18-.12q.09-.04.21-.05z"/></svg>