<svg xmlns="http://www.w3.org/2000/svg" width="100" height="100" viewBox="0 0 100 100"><rect width="100%" height="100%" fill="#dc2626"/><path fill="#ffffff" d="M37.72 50q0 1.99-.65 3.68-.66 1.7-1.86 2.93-1.2 1.24-2.89 1.94-1.69.69-3.75.69-2.05 0-3.74-.69-1.68-.7-2.89-1.94-1.21-1.23-1.87-2.93-.66-1.69-.66-3.68t.66-3.68 1.87-2.93 2.89-1.93q1.69-.7 3.74-.7 1.38 0 2.59.32t2.22.9q1.02.58 1.82 1.42.81.83 1.37 1.85.56 1.03.86 2.23.29 1.2.29 2.52m-3.44 0q0-1.49-.4-2.67t-1.13-2q-.74-.83-1.8-1.27-1.05-.43-2.38-.43-1.32 0-2.38.43-1.06.44-1.8 1.27-.74.82-1.14 2t-.4 2.67.4 2.67 1.14 2 1.8 1.26q1.06.43 2.38.43 1.33 0 2.38-.43 1.06-.44 1.8-1.26.73-.82 1.13-2t.4-2.67m18.82 4.78q.27 0 .49.21l1.32 1.44q-1.1 1.36-2.71 2.08-1.6.73-3.85.73-2.02 0-3.62-.69-1.61-.69-2.75-1.91-1.13-1.23-1.74-2.93T39.63 50q0-2.04.65-3.73t1.84-2.92q1.18-1.22 2.81-1.9 1.64-.69 3.63-.69 1.97 0 3.51.65 1.53.65 2.6 1.7l-1.12 1.57q-.1.15-.26.26t-.43.11q-.19 0-.39-.1-.2-.11-.44-.27-.23-.15-.55-.34-.31-.19-.72-.34-.41-.16-.96-.27-.54-.1-1.25-.1-1.22 0-2.22.43-1.01.43-1.73 1.25-.73.82-1.13 2t-.4 2.69q0 1.53.43 2.71.43 1.19 1.17 2 .74.82 1.74 1.25t2.15.43q.69 0 1.24-.08.56-.07 1.03-.23.47-.17.89-.42.41-.26.83-.63.12-.12.26-.18.14-.07.29-.07m11.01-13.81v11.64q0 1.53-.37 2.75-.38 1.23-1.12 2.09-.75.86-1.86 1.33-1.11.46-2.59.46-.67 0-1.32-.08t-1.36-.26q.03-.5.08-1t.09-1q.04-.27.22-.44t.52-.17q.21 0 .55.09.35.08.87.08.71 0 1.27-.2.55-.21.91-.66.37-.45.56-1.17t.19-1.74V40.97zm16.48 0v2.76h-5.45v15.31h-3.37V43.73h-5.45v-2.76z"/></svg>