<svg xmlns="http://www.w3.org/2000/svg" width="100" height="100" viewBox="0 0 100 100"><rect width="100%" height="100%" fill="#dc2626"/><path fill="#ffffff" d="M23.84 49.61h1.85q.84 0 1.46-.21t1.02-.57q.4-.37.6-.88.2-.5.2-1.11 0-1.21-.8-1.86t-2.44-.65h-1.89zm5.48 2.47 3.98 5.87h-2.67q-.76 0-1.1-.59l-3.34-5.1q-.19-.28-.42-.4-.22-.12-.66-.12h-1.27v6.21h-2.96V42.04h4.85q1.62 0 2.78.34t1.91.94q.74.61 1.09 1.45t.35 1.85q0 .8-.23 1.52-.24.71-.69 1.3-.44.58-1.1 1.02-.65.44-1.49.69.29.17.53.39.24.23.44.54M50.2 50q0 1.75-.58 3.24t-1.63 2.58q-1.06 1.09-2.54 1.7-1.49.61-3.3.61t-3.29-.61q-1.49-.61-2.55-1.7t-1.64-2.58q-.59-1.49-.59-3.24t.59-3.24q.58-1.49 1.64-2.58t2.55-1.7q1.48-.61 3.29-.61 1.21 0 2.27.28 1.07.28 1.96.79t1.6 1.24q.71.74 1.21 1.64.49.9.75 1.96.26 1.05.26 2.22m-3.03 0q0-1.31-.35-2.35t-1-1.77q-.65-.72-1.58-1.11-.93-.38-2.09-.38-1.17 0-2.1.38-.93.39-1.58 1.11-.66.73-1.01 1.77T37.11 50t.35 2.35 1.01 1.76q.65.72 1.58 1.1.93.39 2.1.39 1.16 0 2.09-.39.93-.38 1.58-1.1t1-1.76.35-2.35m16.75-7.96v2.44h-4.8v13.47h-2.96V44.48h-4.8v-2.44zm9.92 7.94h5.28v6.43q-1.21.89-2.58 1.3-1.37.42-2.93.42-1.95 0-3.53-.61-1.58-.6-2.69-1.68-1.12-1.08-1.73-2.58-.6-1.49-.6-3.26 0-1.8.58-3.29.59-1.5 1.66-2.58 1.07-1.07 2.6-1.67 1.53-.59 3.43-.59.97 0 1.81.15.84.16 1.56.43t1.32.65q.59.39 1.09.85l-.85 1.34q-.2.32-.52.39t-.69-.16q-.36-.21-.73-.42-.36-.21-.8-.36-.45-.15-1.01-.25-.55-.1-1.28-.1-1.17 0-2.13.39-.95.4-1.62 1.14-.67.73-1.03 1.77-.37 1.03-.37 2.31 0 1.36.4 2.43.39 1.08 1.1 1.82.7.74 1.71 1.13 1 .39 2.23.39.88 0 1.57-.18.69-.19 1.35-.51V52.2h-2q-.28 0-.44-.16t-.16-.39z"/></svg>