<svg xmlns="http://www.w3.org/2000/svg" width="100" height="100" viewBox="0 0 100 100"><rect width="100%" height="100%" fill="#dc2626"/><path fill="#ffffff" d="M29.955 43.13v2.1h-4.14v11.64h-2.55V45.23h-4.15v-2.1zm11.24 10.5q.21 0 .37.16l1.01 1.09q-.84 1.04-2.06 1.59t-2.93.55q-1.53 0-2.75-.52t-2.08-1.45q-.87-.93-1.33-2.23-.46-1.29-.46-2.82 0-1.55.49-2.83.5-1.29 1.4-2.22.89-.93 2.14-1.45 1.24-.52 2.75-.52 1.5 0 2.67.5 1.16.49 1.98 1.29l-.86 1.18q-.07.12-.19.2-.12.09-.33.09-.14 0-.29-.08t-.34-.2q-.18-.12-.41-.26-.24-.14-.55-.26-.32-.12-.73-.2t-.96-.08q-.92 0-1.68.32-.77.33-1.32.95-.55.63-.85 1.52-.31.9-.31 2.05 0 1.16.33 2.06.33.91.89 1.52.56.62 1.32.95t1.63.33q.53 0 .95-.06t.78-.18q.35-.13.67-.32t.63-.48q.1-.08.2-.14.11-.05.22-.05M57.435 50q0 1.51-.5 2.8t-1.41 2.23-2.2 1.46q-1.28.53-2.85.53-1.55 0-2.84-.53-1.28-.52-2.2-1.46-.91-.94-1.42-2.23-.5-1.29-.5-2.8t.5-2.8q.51-1.28 1.42-2.22.92-.94 2.2-1.47 1.29-.53 2.84-.53 1.05 0 1.97.24.92.25 1.69.69t1.38 1.07q.62.63 1.04 1.41.43.78.65 1.69.23.91.23 1.92m-2.61 0q0-1.13-.31-2.03-.3-.89-.86-1.52t-1.37-.96q-.8-.33-1.81-.33-1 0-1.81.33-.8.33-1.36.96-.57.63-.87 1.52-.31.9-.31 2.03t.31 2.03q.3.9.87 1.52.56.62 1.36.95.81.34 1.81.34 1.01 0 1.81-.34.81-.33 1.37-.95t.86-1.52q.31-.9.31-2.03m14.45-6.87v2.1h-4.14v11.64h-2.55V45.23h-4.15v-2.1zm4.36 6.91h1.91q.71 0 1.23-.18.52-.17.87-.5t.52-.8.17-1.05q0-.55-.17-1-.17-.44-.52-.76-.34-.31-.86-.47-.52-.17-1.24-.17h-1.91zm-2.55-6.91h4.46q1.38 0 2.39.33 1.01.32 1.66.9.66.58.98 1.39.31.8.31 1.76 0 1-.33 1.83t-1 1.43q-.66.6-1.66.93-1.01.33-2.35.33h-1.91v4.84h-2.55z"/></svg>