<svg xmlns="http://www.w3.org/2000/svg" width="100" height="100" viewBox="0 0 100 100"><rect width="100%" height="100%" fill="#dc2626"/><path fill="#ffffff" d="M37.19 39.515v3.21h-6.32v17.76h-3.9v-17.76h-6.33v-3.21zm15.98 3.11h-9.31v5.81h7.34v3h-7.34v5.93h9.31v3.12H39.94v-20.97h13.23zm23.24-3.11h2.95v20.97h-3.44v-13.54q0-.82.09-1.76l-6.34 11.91q-.45.85-1.38.85h-.55q-.93 0-1.38-.85l-6.41-11.95q.05.48.08.94.03.47.03.86v13.54h-3.44v-20.97h2.94q.26 0 .45.02.19.01.34.07.16.06.28.19t.24.35l6.28 11.64q.24.46.45.96.21.49.42 1.01.2-.53.42-1.03.21-.51.46-.97l6.19-11.61q.12-.22.25-.35t.28-.19.34-.07q.19-.02.45-.02"/></svg>