<svg xmlns="http://www.w3.org/2000/svg" width="100" height="100" viewBox="0 0 100 100"><rect width="100%" height="100%" fill="#dc2626"/><path fill="#ffffff" d="M36.135 39.515v3.21h-6.32v17.76h-3.9v-17.76h-6.32v-3.21zm15.98 3.11h-9.31v6.2h7.86v3.12h-7.86v8.54h-3.91v-20.97h13.22zm7.11-3.11v20.97h-3.92v-20.97zm19.08 16.03q.32 0 .56.24l1.54 1.67q-1.28 1.58-3.14 2.42t-4.47.84q-2.34 0-4.2-.8-1.86-.79-3.18-2.21-1.32-1.43-2.03-3.4-.7-1.97-.7-4.3 0-2.37.75-4.33.76-1.97 2.13-3.39t3.27-2.21 4.2-.79 4.07.75q1.78.76 3.02 1.98l-1.3 1.81q-.12.17-.3.3t-.5.13q-.22 0-.45-.12t-.51-.3q-.27-.18-.63-.4-.37-.22-.84-.4-.48-.18-1.11-.31-.63-.12-1.46-.12-1.41 0-2.57.5-1.17.5-2.01 1.45t-1.31 2.32q-.46 1.37-.46 3.13 0 1.77.5 3.14.5 1.38 1.35 2.32.86.95 2.02 1.45t2.49.5q.8 0 1.45-.09.64-.09 1.19-.28.54-.19 1.03-.48.48-.3.96-.73.14-.14.3-.21.16-.08.34-.08"/></svg>