<svg xmlns="http://www.w3.org/2000/svg" width="100" height="100" viewBox="0 0 100 100"><rect width="100%" height="100%" fill="#dc2626"/><path fill="#ffffff" d="M31.775 42.41v2.32h-4.58v12.86h-2.82V44.73h-4.58v-2.32zm4.82 7.63h2.11q.78 0 1.35-.19.58-.2.96-.56.39-.36.58-.88t.19-1.16q0-.61-.19-1.11-.19-.49-.57-.84-.38-.34-.96-.53-.57-.18-1.36-.18h-2.11zm-2.83-7.63h4.94q1.52 0 2.63.35 1.12.36 1.84 1 .73.64 1.08 1.53.35.9.35 1.96 0 1.1-.37 2.02-.36.92-1.1 1.58-.73.66-1.84 1.03t-2.59.37h-2.11v5.34h-2.83zM61.245 50q0 1.67-.55 3.09t-1.56 2.46-2.42 1.63q-1.42.58-3.15.58t-3.14-.58q-1.42-.59-2.43-1.63-1.02-1.04-1.57-2.46-.56-1.42-.56-3.09t.56-3.09q.55-1.43 1.57-2.47 1.01-1.04 2.43-1.62 1.41-.58 3.14-.58 1.15 0 2.17.27 1.02.26 1.87.75t1.53 1.19q.67.7 1.15 1.56.47.86.72 1.87.24 1.01.24 2.12m-2.88 0q0-1.25-.34-2.24-.34-1-.96-1.69t-1.5-1.06q-.89-.37-2-.37-1.12 0-2 .37-.89.37-1.52 1.06-.62.69-.96 1.69-.33.99-.33 2.24t.33 2.24q.34.99.96 1.68.63.69 1.52 1.06.88.36 2 .36 1.11 0 2-.36.88-.37 1.5-1.06t.96-1.68.34-2.24m19.7-7.59h2.14v15.18h-2.49v-9.81q0-.59.06-1.27l-4.59 8.62q-.32.62-1 .62h-.4q-.67 0-.99-.62l-4.64-8.65q.03.35.05.68.02.34.02.62v9.81h-2.49V42.41h2.13q.19 0 .33.01.13.01.25.05.11.04.19.14.09.09.18.25l4.54 8.43q.18.34.34.69.15.36.29.74.15-.39.31-.75.16-.37.34-.7l4.48-8.41q.08-.16.18-.25.09-.1.2-.14t.25-.05.32-.01"/></svg>