<svg xmlns="http://www.w3.org/2000/svg" width="100" height="100" viewBox="0 0 100 100"><rect width="100%" height="100%" fill="#dc2626"/><path fill="#ffffff" d="M30.655 42.77v2.21h-4.36v12.25h-2.69V44.98h-4.36v-2.21zm10.27 1.36-.67 1.27q-.12.21-.25.3-.14.1-.34.1-.21 0-.45-.16-.25-.15-.59-.34t-.79-.35q-.46-.15-1.08-.15-.56 0-.98.14-.42.13-.7.37-.29.24-.43.57-.14.34-.14.74 0 .51.29.85.28.34.75.58t1.07.43 1.23.4q.63.22 1.23.51.6.28 1.07.71.47.44.76 1.07.28.63.28 1.53 0 .98-.33 1.84-.34.85-.98 1.48-.65.64-1.58 1-.93.37-2.13.37-.69 0-1.36-.13-.67-.14-1.28-.39-.62-.25-1.16-.6t-.96-.78l.79-1.29q.1-.14.26-.24.16-.09.34-.09.25 0 .54.2.29.21.69.46t.94.45q.53.21 1.28.21 1.15 0 1.78-.54.63-.55.63-1.57 0-.57-.28-.93-.29-.36-.76-.61-.47-.24-1.07-.41t-1.22-.37-1.22-.48-1.07-.73-.75-1.12q-.29-.68-.29-1.67 0-.79.32-1.54.31-.75.91-1.33t1.48-.93 2.02-.35q1.28 0 2.36.4t1.84 1.12m10.97 0-.67 1.27q-.12.21-.25.3-.14.1-.34.1-.21 0-.45-.16-.25-.15-.59-.34t-.79-.35q-.46-.15-1.08-.15-.56 0-.98.14-.42.13-.7.37-.29.24-.43.57-.14.34-.14.74 0 .51.29.85.28.34.75.58t1.07.43 1.23.4q.63.22 1.23.51.6.28 1.07.71.47.44.76 1.07.28.63.28 1.53 0 .98-.33 1.84-.34.85-.98 1.48-.65.64-1.58 1-.93.37-2.13.37-.69 0-1.36-.13-.67-.14-1.28-.39-.62-.25-1.16-.6t-.96-.78l.79-1.29q.1-.14.26-.24.16-.09.34-.09.25 0 .54.2.29.21.69.46t.94.45q.53.21 1.28.21 1.15 0 1.78-.54.63-.55.63-1.57 0-.57-.28-.93-.29-.36-.76-.61-.47-.24-1.07-.41t-1.22-.37-1.22-.48-1.07-.73-.75-1.12q-.29-.68-.29-1.67 0-.79.32-1.54.31-.75.91-1.33t1.48-.93 2.02-.35q1.28 0 2.36.4t1.84 1.12M68.285 50q0 1.59-.52 2.94-.53 1.36-1.49 2.35t-2.31 1.54q-1.35.56-3 .56-1.64 0-2.99-.56-1.35-.55-2.31-1.54-.97-.99-1.5-2.35-.53-1.35-.53-2.94t.53-2.95q.53-1.35 1.5-2.34.96-.99 2.31-1.54 1.35-.56 2.99-.56 1.1 0 2.07.25.97.26 1.78.73.81.46 1.46 1.12.64.67 1.09 1.49t.69 1.78q.23.96.23 2.02m-2.75 0q0-1.19-.32-2.14-.32-.94-.91-1.6t-1.43-1.01q-.85-.35-1.91-.35t-1.9.35q-.85.35-1.44 1.01-.6.66-.92 1.6-.32.95-.32 2.14t.32 2.14q.32.94.92 1.59.59.66 1.44 1.01.84.35 1.9.35t1.91-.35q.84-.35 1.43-1.01.59-.65.91-1.59.32-.95.32-2.14m15.22-7.23v2.21h-4.36v12.25h-2.69V44.98h-4.36v-2.21z"/></svg>