<svg xmlns="http://www.w3.org/2000/svg" width="100" height="100" viewBox="0 0 100 100"><rect width="100%" height="100%" fill="#dc2626"/><path fill="#ffffff" d="M41 36.625v4.09h-8.07v22.66h-4.97v-22.66h-8.07v-4.09zm35.21 0h3.9l-8.31 26.75h-4.49l-5.85-18.28q-.24-.66-.44-1.63-.11.47-.23.87-.11.41-.24.76l-5.9 18.28h-4.51l-8.29-26.75h4.16q.65 0 1.09.3.43.31.58.83l4.55 16q.15.59.29 1.29.13.69.28 1.45.15-.78.33-1.46.17-.69.38-1.28l5.25-16q.15-.43.58-.78.44-.35 1.07-.35h1.46q.65 0 1.05.31.41.32.61.82l5.24 16q.39 1.15.7 2.65.24-1.47.54-2.65l4.55-16q.11-.46.56-.8.46-.33 1.09-.33"/></svg>