<svg xmlns="http://www.w3.org/2000/svg" width="100" height="100" viewBox="0 0 100 100"><rect width="100%" height="100%" fill="#dc2626"/><path fill="#ffffff" d="M28.72 62.06h6.4q1.76 0 2.96-.43 1.2-.42 1.91-1.13.72-.7 1.04-1.64.31-.94.31-2 0-1.1-.35-1.98-.35-.89-1.1-1.51-.76-.62-1.94-.95-1.19-.33-2.86-.33h-6.37zm5.39-24.16h-5.39v9.82h5.03q3.25 0 4.9-1.18 1.66-1.17 1.66-3.73 0-2.66-1.5-3.78-1.51-1.13-4.7-1.13M22.4 33.01h11.71q3.33 0 5.71.63 2.37.64 3.88 1.81 1.52 1.18 2.23 2.85.7 1.67.7 3.76 0 1.2-.35 2.29t-1.09 2.04-1.88 1.73-2.72 1.32q7 1.57 7 7.56 0 2.16-.82 4-.82 1.83-2.4 3.16-1.57 1.33-3.87 2.08-2.31.75-5.27.75H22.4zm37.27 17.08h4.73q1.74 0 3.03-.43 1.29-.44 2.15-1.25t1.28-1.97.42-2.6q0-1.36-.42-2.46-.42-1.11-1.27-1.89-.85-.77-2.14-1.18t-3.05-.41h-4.73zm-6.32-17.08H64.4q3.4 0 5.9.8 2.49.8 4.11 2.23t2.41 3.43q.78 2 .78 4.37 0 2.47-.82 4.53-.82 2.05-2.47 3.53-1.64 1.48-4.12 2.31-2.48.82-5.79.82h-4.73v11.96h-6.32z"/></svg>