<svg xmlns="http://www.w3.org/2000/svg" width="100" height="100" viewBox="0 0 100 100"><rect width="100%" height="100%" fill="#dc2626"/><path fill="#ffffff" d="M25.89 57.185h3.81q1.05 0 1.76-.25.72-.25 1.15-.67.42-.42.61-.98t.19-1.19q0-.66-.21-1.19-.21-.52-.66-.89t-1.15-.57q-.71-.2-1.7-.2h-3.8zm3.21-14.39h-3.21v5.85h3q1.93 0 2.92-.7.98-.7.98-2.23 0-1.58-.89-2.25-.9-.67-2.8-.67m-6.97-2.91h6.97q1.99 0 3.4.37 1.41.38 2.32 1.08.9.7 1.32 1.7.42.99.42 2.24 0 .71-.21 1.36t-.65 1.22-1.12 1.03-1.62.78q4.17.94 4.17 4.51 0 1.29-.49 2.38t-1.42 1.88q-.94.79-2.31 1.24-1.38.45-3.14.45h-7.64zm30.15 1.9-.94 1.78q-.16.29-.35.42-.19.14-.47.14-.3 0-.64-.22t-.82-.48q-.47-.27-1.11-.48-.64-.22-1.51-.22-.78 0-1.37.19t-.99.52q-.39.34-.59.81t-.2 1.03q0 .71.4 1.19.4.47 1.06.81.66.33 1.5.6t1.72.57 1.72.7 1.5 1.01q.66.6 1.06 1.49.4.88.4 2.14 0 1.37-.47 2.57-.47 1.19-1.38 2.08-.9.89-2.2 1.4t-2.98.51q-.97 0-1.91-.18-.93-.19-1.8-.54-.86-.35-1.61-.84-.76-.49-1.35-1.1l1.11-1.8q.14-.2.36-.33.23-.13.48-.13.35 0 .76.28.4.29.96.64t1.31.64q.75.28 1.8.28 1.61 0 2.49-.76t.88-2.19q0-.8-.4-1.3-.39-.51-1.05-.85t-1.5-.58-1.71-.52-1.71-.67-1.49-1.02q-.66-.63-1.06-1.58-.4-.94-.4-2.33 0-1.1.44-2.15t1.28-1.87q.84-.81 2.07-1.3 1.24-.49 2.83-.49 1.79 0 3.31.56 1.51.56 2.57 1.57m22.75-1.9h2.84v20.24h-3.31v-13.08q0-.78.08-1.69l-6.12 11.49q-.43.83-1.33.83h-.53q-.9 0-1.33-.83l-6.19-11.53q.04.46.07.91t.03.82v13.08h-3.32v-20.24h2.84q.26 0 .44.01t.33.07q.14.06.26.18.12.13.23.34l6.07 11.24q.23.45.44.92.2.48.4.98.19-.51.4-1 .21-.48.45-.93l5.98-11.21q.11-.21.24-.34.12-.12.27-.18t.33-.07.43-.01"/></svg>