<svg xmlns="http://www.w3.org/2000/svg" width="100" height="100" viewBox="0 0 100 100"><rect width="100%" height="100%" fill="#dc2626"/><path fill="#ffffff" d="M47.63 50q0 3.18-1.06 5.84t-2.98 4.58-4.62 2.98-6 1.06H21.95V35.54h11.02q3.3 0 6 1.07t4.62 2.98 2.98 4.57T47.63 50m-5.52 0q0-2.38-.63-4.27t-1.82-3.2-2.88-2.01-3.81-.7h-5.62v20.36h5.62q2.12 0 3.81-.7t2.88-2.01 1.82-3.2.63-4.27m35.94 0q0 3.18-1.06 5.84t-2.98 4.58-4.62 2.98-6 1.06H52.37V35.54h11.02q3.3 0 6 1.07t4.62 2.98 2.98 4.57T78.05 50m-5.52 0q0-2.38-.63-4.27t-1.82-3.2-2.88-2.01-3.81-.7h-5.62v20.36h5.62q2.12 0 3.81-.7t2.88-2.01 1.82-3.2.63-4.27"/></svg>