<svg xmlns="http://www.w3.org/2000/svg" width="100" height="100" viewBox="0 0 100 100"><rect width="100%" height="100%" fill="#dc2626"/><path fill="#ffffff" d="M45.75 37.275H29.7v10.7h13.55v5.37H29.7v14.73h-6.75v-36.15h22.8zm12.23 12.82H63q1.85 0 3.23-.46 1.37-.46 2.28-1.32.92-.87 1.37-2.1.45-1.24.45-2.77 0-1.45-.45-2.62-.45-1.18-1.35-2-.9-.83-2.28-1.26-1.37-.44-3.25-.44h-5.02zm-6.73-18.17H63q3.63 0 6.28.85t4.37 2.37q1.73 1.53 2.56 3.65.84 2.13.84 4.65 0 2.63-.87 4.82-.88 2.18-2.63 3.76-1.75 1.57-4.39 2.45-2.63.87-6.16.87h-5.02v12.73h-6.73z"/></svg>