<svg xmlns="http://www.w3.org/2000/svg" width="100" height="100" viewBox="0 0 100 100"><rect width="100%" height="100%" fill="#dc2626"/><path fill="#ffffff" d="M25.74 38.795v22.41h-4.19v-22.41zm14.02 19.05q1.21 0 2.17-.41.95-.4 1.6-1.13t1-1.77q.35-1.03.35-2.32v-13.42h4.17v13.42q0 2-.64 3.7-.65 1.69-1.85 2.93-1.2 1.23-2.92 1.92t-3.88.69q-2.17 0-3.89-.69t-2.92-1.92q-1.2-1.24-1.84-2.93-.65-1.7-.65-3.7v-13.42h4.17v13.4q0 1.29.35 2.33t1.01 1.77q.66.74 1.61 1.14.96.41 2.16.41m29.39-1.93q.34 0 .61.27l1.64 1.78q-1.36 1.69-3.36 2.59-1.99.9-4.78.9-2.49 0-4.48-.85-2-.86-3.41-2.38t-2.16-3.62q-.75-2.11-.75-4.61 0-2.52.81-4.62.8-2.1 2.27-3.62 1.46-1.52 3.49-2.37 2.03-.84 4.5-.84 2.45 0 4.34.8 1.9.81 3.24 2.11l-1.4 1.94q-.12.19-.32.33-.19.14-.53.14-.23 0-.48-.14-.25-.13-.54-.32-.3-.2-.69-.43-.38-.23-.9-.42-.51-.2-1.18-.33-.68-.13-1.56-.13-1.5 0-2.75.53-1.25.54-2.15 1.55-.9 1.02-1.39 2.48-.5 1.47-.5 3.34 0 1.89.54 3.37.53 1.47 1.45 2.48.91 1 2.15 1.54 1.24.53 2.67.53.85 0 1.54-.09t1.27-.29q.58-.21 1.1-.52.52-.32 1.03-.79.16-.14.33-.22.17-.09.35-.09m9.3-17.12v22.41h-4.18v-22.41z"/></svg>