<svg xmlns="http://www.w3.org/2000/svg" width="100" height="100" viewBox="0 0 100 100"><rect width="100%" height="100%" fill="#dc2626"/><path fill="#ffffff" d="M25.26 39.515v20.97h-3.91v-20.97zm13.13 17.82q1.13 0 2.02-.37.89-.38 1.5-1.06t.94-1.66q.32-.97.32-2.17v-12.56h3.9v12.56q0 1.87-.6 3.46t-1.72 2.74q-1.13 1.15-2.74 1.8-1.61.64-3.62.64-2.03 0-3.64-.64-1.61-.65-2.74-1.8-1.12-1.15-1.72-2.74t-.6-3.46v-12.56h3.9v12.55q0 1.2.32 2.17.33.97.95 1.66.61.69 1.5 1.07.9.37 2.03.37m27.49-1.79q.32 0 .56.24l1.54 1.67q-1.27 1.58-3.14 2.42-1.86.84-4.47.84-2.34 0-4.2-.8-1.86-.79-3.18-2.21-1.32-1.43-2.02-3.4-.71-1.97-.71-4.3 0-2.37.76-4.33.75-1.97 2.12-3.39t3.27-2.21 4.21-.79q2.29 0 4.06.75 1.78.76 3.03 1.98l-1.31 1.81q-.12.17-.3.3t-.5.13q-.21 0-.45-.12-.23-.12-.5-.3-.28-.18-.64-.4t-.84-.4-1.11-.31q-.63-.12-1.46-.12-1.41 0-2.57.5-1.17.5-2.01 1.45t-1.31 2.32q-.46 1.37-.46 3.13 0 1.77.5 3.14.5 1.38 1.36 2.32.85.95 2.01 1.45t2.5.5q.79 0 1.44-.09.64-.09 1.19-.28.54-.19 1.03-.48.48-.3.96-.73.15-.14.31-.21.15-.08.33-.08m12.77-16.03v13.52q0 1.77-.43 3.19-.44 1.42-1.3 2.42t-2.15 1.54q-1.29.53-3 .53-.79 0-1.54-.09-.76-.1-1.58-.3.04-.58.1-1.16t.1-1.16q.05-.32.26-.51.21-.2.6-.2.24 0 .64.1t1.01.1q.83 0 1.46-.24.64-.24 1.07-.76t.65-1.35q.21-.84.21-2.03v-13.6z"/></svg>