<svg xmlns="http://www.w3.org/2000/svg" width="100" height="100" viewBox="0 0 100 100"><rect width="100%" height="100%" fill="#dc2626"/><path fill="#ffffff" d="M24.33 41.23v17.35h-3.24V41.23zm10.86 14.75q.94 0 1.68-.32.73-.31 1.24-.87.5-.57.77-1.37t.27-1.8V41.23h3.23v10.39q0 1.55-.5 2.86-.5 1.32-1.43 2.27t-2.26 1.49q-1.33.53-3 .53-1.68 0-3.01-.53-1.33-.54-2.26-1.49t-1.43-2.27q-.5-1.31-.5-2.86V41.23h3.23v10.38q0 .99.27 1.8.27.8.78 1.37t1.25.88q.74.32 1.67.32m26.25-6.08q0 1.91-.64 3.51-.64 1.59-1.79 2.75-1.15 1.15-2.77 1.78-1.62.64-3.6.64h-6.61V41.23h6.61q1.98 0 3.6.64t2.77 1.79q1.15 1.14 1.79 2.74t.64 3.5m-3.32 0q0-1.42-.37-2.56-.38-1.13-1.1-1.92-.71-.78-1.72-1.2-1.02-.42-2.29-.42h-3.37v12.21h3.37q1.27 0 2.29-.42 1.01-.42 1.72-1.2.72-.79 1.1-1.92.37-1.14.37-2.57m17.94-8.67h2.85v17.35h-1.66q-.38 0-.64-.13-.26-.12-.5-.42l-9.06-11.57q.07.79.07 1.46v10.66h-2.84V41.23h1.69q.21 0 .36.02.15.01.26.07.11.05.22.15.11.11.24.27l9.1 11.62q-.04-.42-.06-.83-.03-.41-.03-.75z"/></svg>