<svg xmlns="http://www.w3.org/2000/svg" width="100" height="100" viewBox="0 0 100 100"><rect width="100%" height="100%" fill="#dc2626"/><path fill="#ffffff" d="M26.725 36.115v27.47h-5.13v-27.47zm17.2 23.35q1.48 0 2.65-.5 1.17-.49 1.97-1.38.79-.9 1.22-2.17t.43-2.85v-16.45h5.11v16.45q0 2.45-.79 4.53t-2.26 3.59-3.58 2.36q-2.11.84-4.75.84-2.66 0-4.77-.84-2.11-.85-3.58-2.36t-2.26-3.59-.79-4.53v-16.45h5.11v16.43q0 1.58.43 2.85.42 1.27 1.23 2.18.81.9 1.98 1.39 1.17.5 2.65.5m34.48-19.29h-12.19v7.62h9.61v3.93h-9.61v7.78h12.19v4.08h-17.32v-27.47h17.32z"/></svg>