<svg xmlns="http://www.w3.org/2000/svg" width="100" height="100" viewBox="0 0 100 100"><rect width="100%" height="100%" fill="#dc2626"/><path fill="#ffffff" d="M25.94 38.07v23.86h-4.46V38.07zm14.93 20.28q1.29 0 2.3-.43t1.71-1.2q.69-.78 1.06-1.89.37-1.1.37-2.47V38.07h4.44v14.29q0 2.13-.68 3.94-.69 1.8-1.97 3.11-1.28 1.32-3.11 2.05t-4.12.73q-2.31 0-4.14-.73t-3.11-2.05q-1.28-1.31-1.97-3.11-.68-1.81-.68-3.94V38.07h4.44v14.27q0 1.37.37 2.48.37 1.1 1.07 1.89.7.78 1.72 1.21 1.01.43 2.3.43M78.52 50q0 2.62-.86 4.86-.87 2.24-2.45 3.87-1.59 1.63-3.82 2.55-2.22.91-4.95.91-2.7 0-4.93-.91-2.23-.92-3.82-2.55t-2.47-3.87q-.87-2.24-.87-4.86t.87-4.86q.88-2.23 2.47-3.87 1.59-1.63 3.82-2.55 2.23-.91 4.93-.91 1.82 0 3.42.42t2.94 1.19q1.33.76 2.4 1.86 1.06 1.1 1.8 2.45.75 1.35 1.13 2.94.39 1.58.39 3.33m-4.54 0q0-1.96-.52-3.52-.53-1.56-1.51-2.65-.97-1.09-2.36-1.67-1.4-.57-3.15-.57t-3.14.57q-1.39.58-2.38 1.67-.98 1.09-1.51 2.65-.52 1.56-.52 3.52t.52 3.52q.53 1.56 1.51 2.64.99 1.08 2.38 1.66t3.14.58 3.15-.58q1.39-.58 2.36-1.66.98-1.08 1.51-2.64.52-1.56.52-3.52"/></svg>