<svg xmlns="http://www.w3.org/2000/svg" width="100" height="100" viewBox="0 0 100 100"><rect width="100%" height="100%" fill="#dc2626"/><path fill="#ffffff" d="M29.14 40.13v12.58q0 1.65-.4 2.97-.41 1.32-1.21 2.26-.8.93-2 1.43-1.21.5-2.8.5-.73 0-1.43-.09t-1.47-.28q.04-.54.09-1.08.06-.54.1-1.08.04-.3.23-.48.2-.18.56-.18.23 0 .61.09.37.1.93.1.77 0 1.37-.22.59-.23.99-.71.4-.49.6-1.26.2-.78.2-1.89V40.13zm17.42 0h3.2v19.52H47.9q-.44 0-.73-.14t-.56-.48L36.42 46.02q.08.89.08 1.64v11.99h-3.2V40.13h1.91q.23 0 .39.02.17.02.3.08t.25.18q.12.11.27.3l10.23 13.07q-.04-.47-.06-.93-.03-.46-.03-.85zm14.98 0v12.58q0 1.65-.4 2.97-.41 1.32-1.21 2.26-.8.93-2 1.43-1.21.5-2.8.5-.73 0-1.43-.09t-1.47-.28q.04-.54.09-1.08.06-.54.1-1.08.04-.3.23-.48.2-.18.56-.18.23 0 .61.09.37.1.93.1.77 0 1.37-.22.59-.23.99-.71.4-.49.6-1.26.2-.78.2-1.89V40.13zm7.79 16.69h3.68q1.01 0 1.7-.25.69-.24 1.1-.65.41-.4.59-.94t.18-1.15q0-.63-.2-1.14t-.63-.86q-.44-.36-1.12-.55t-1.64-.19h-3.66zm3.1-13.88h-3.1v5.64h2.89q1.87 0 2.82-.67.95-.68.95-2.15 0-1.53-.86-2.18-.87-.64-2.7-.64m-6.73-2.81h6.73q1.91 0 3.28.36 1.36.37 2.23 1.04.87.68 1.28 1.64.4.95.4 2.16 0 .69-.2 1.31-.2.63-.63 1.18-.42.54-1.08.99-.65.45-1.56.76 4.02.9 4.02 4.34 0 1.24-.47 2.3-.47 1.05-1.38 1.81-.9.77-2.22 1.2-1.33.43-3.03.43H65.7z"/></svg>