<svg xmlns="http://www.w3.org/2000/svg" width="100" height="100" viewBox="0 0 100 100"><rect width="100%" height="100%" fill="#dc2626"/><path fill="#ffffff" d="M28.45 34.815v12.73h1.33q.8 0 1.32-.22t.9-.7l8.38-10.61q.53-.67 1.1-.93.58-.27 1.46-.27h4.88l-10.23 12.62q-.9 1.16-1.87 1.64.69.25 1.25.71.56.45 1.06 1.18l10.54 14.22H43.6q-1.01 0-1.51-.28-.49-.29-.83-.83l-8.58-11.22q-.4-.56-.93-.8-.52-.23-1.51-.23h-1.79v13.36H22.8v-30.37zm43.08 0h5.67v30.37h-5.67v-13.27H57.27v13.27H51.6v-30.37h5.67v13.07h14.26z"/></svg>