<svg xmlns="http://www.w3.org/2000/svg" width="100" height="100" viewBox="0 0 100 100"><rect width="100%" height="100%" fill="#dc2626"/><path fill="#ffffff" d="M29.57 49.98h5.29v6.43q-1.22.89-2.58 1.3-1.37.42-2.94.42-1.94 0-3.52-.61-1.58-.6-2.7-1.68-1.11-1.08-1.72-2.58-.6-1.49-.6-3.26 0-1.8.58-3.29.58-1.5 1.66-2.58 1.07-1.07 2.6-1.67 1.53-.59 3.43-.59.97 0 1.81.15.84.16 1.56.43t1.31.65q.6.39 1.09.85L34 45.29q-.2.32-.52.39t-.69-.16q-.37-.21-.73-.42t-.81-.36q-.44-.15-1-.25-.55-.1-1.28-.1-1.18 0-2.13.39-.95.4-1.62 1.14-.67.73-1.03 1.77-.37 1.03-.37 2.31 0 1.36.39 2.43.39 1.08 1.1 1.82t1.71 1.13 2.24.39q.88 0 1.57-.18.69-.19 1.35-.51V52.2h-2q-.29 0-.45-.16t-.16-.39zm18.58-7.94h2.97v15.91h-2.97V51h-7.46v6.95h-2.98V42.04h2.98v6.85h7.46zM65.59 54.2q.24 0 .43.19l1.16 1.26q-.96 1.2-2.38 1.84-1.41.64-3.39.64-1.77 0-3.19-.61-1.41-.6-2.41-1.68t-1.53-2.58q-.54-1.49-.54-3.26 0-1.8.57-3.29.58-1.49 1.62-2.56 1.04-1.08 2.48-1.68t3.19-.6q1.73 0 3.08.57t2.29 1.5l-.98 1.37q-.09.13-.23.23t-.38.1q-.16 0-.34-.09-.18-.1-.39-.23-.2-.14-.48-.31-.27-.16-.64-.3-.36-.14-.84-.23t-1.1-.09q-1.07 0-1.96.38-.88.38-1.52 1.1t-.99 1.76-.35 2.37q0 1.34.38 2.38.38 1.05 1.03 1.76.64.72 1.52 1.1t1.9.38q.6 0 1.09-.07.49-.06.9-.21.42-.14.78-.37.37-.22.74-.55.11-.1.23-.16t.25-.06m8.57 1.22h4.08q.44 0 .7.25t.26.65v1.63H68.28v-.9q0-.28.12-.58t.37-.54l4.83-4.84q.6-.62 1.08-1.18t.8-1.11.49-1.12q.17-.56.17-1.19 0-.57-.17-1.01-.16-.43-.46-.73-.31-.3-.73-.45-.42-.14-.95-.14-.49 0-.9.13-.41.14-.73.39t-.54.58-.33.72q-.19.51-.48.67-.3.17-.86.08l-1.43-.25q.16-1.15.64-2.01.47-.86 1.18-1.44t1.63-.87 1.97-.29q1.1 0 2.02.32.91.33 1.56.92.65.6 1.01 1.43.36.84.36 1.86 0 .88-.26 1.63t-.69 1.43-1.02 1.32q-.58.64-1.22 1.3l-3.58 3.66q.51-.15 1.02-.24.52-.08.98-.08"/></svg>