<svg xmlns="http://www.w3.org/2000/svg" width="100" height="100" viewBox="0 0 100 100"><rect width="100%" height="100%" fill="#dc2626"/><path fill="#ffffff" d="m44.425 35.325-1.67 3.17q-.3.53-.64.77-.34.23-.84.23-.52 0-1.14-.38-.61-.39-1.46-.87-.85-.47-1.99-.86t-2.68-.39q-1.41 0-2.45.34-1.06.34-1.77.94t-1.06 1.44q-.35.83-.35 1.83 0 1.28.71 2.13.72.85 1.89 1.45 1.18.6 2.68 1.07 1.5.48 3.07 1.02 1.57.53 3.08 1.25 1.5.71 2.67 1.8 1.18 1.08 1.89 2.66.71 1.57.71 3.82 0 2.45-.84 4.59-.83 2.14-2.45 3.73-1.61 1.58-3.94 2.5-2.32.91-5.32.91-1.72 0-3.4-.34-1.67-.34-3.21-.96-1.54-.63-2.89-1.5-1.35-.88-2.4-1.95l1.97-3.23q.25-.35.65-.58.41-.24.85-.24.63 0 1.36.51.72.51 1.72 1.14 1 .62 2.34 1.14 1.33.51 3.21.51 2.87 0 4.45-1.36 1.58-1.37 1.58-3.92 0-1.42-.72-2.32-.71-.9-1.88-1.51-1.18-.62-2.68-1.04-1.5-.43-3.05-.93t-3.05-1.2q-1.5-.69-2.67-1.82-1.18-1.13-1.89-2.81-.72-1.69-.72-4.17 0-1.97.79-3.85.79-1.87 2.29-3.32t3.7-2.33q2.2-.87 5.05-.87 3.2 0 5.9 1t4.6 2.8m31.33 24.22q.55 0 .97.43l2.65 2.87q-2.2 2.73-5.41 4.18t-7.71 1.45q-4.03 0-7.24-1.38-3.21-1.37-5.49-3.82-2.27-2.45-3.49-5.85-1.21-3.4-1.21-7.42 0-4.08 1.3-7.47t3.66-5.84q2.37-2.45 5.64-3.81 3.28-1.36 7.25-1.36 3.95 0 7.01 1.3 3.07 1.3 5.22 3.4l-2.25 3.12q-.2.3-.52.53-.31.22-.86.22-.37 0-.77-.21t-.88-.52q-.47-.32-1.1-.69-.62-.38-1.45-.69-.82-.31-1.91-.52-1.09-.22-2.51-.22-2.43 0-4.44.87-2.01.86-3.46 2.5-1.45 1.63-2.25 4-.8 2.36-.8 5.39 0 3.04.86 5.42.86 2.37 2.34 4 1.47 1.62 3.47 2.49 2 .86 4.3.86 1.38 0 2.49-.15t2.05-.48q.94-.32 1.77-.83.84-.52 1.67-1.27.25-.22.52-.36.28-.14.58-.14"/></svg>