<svg xmlns="http://www.w3.org/2000/svg" width="100" height="100" viewBox="0 0 100 100"><rect width="100%" height="100%" fill="#dc2626"/><path fill="#ffffff" d="m55.28 35.325-1.68 3.17q-.3.53-.64.77-.33.23-.83.23-.53 0-1.14-.38-.61-.39-1.46-.87-.85-.47-1.99-.86t-2.69-.39q-1.4 0-2.45.34t-1.76.94-1.07 1.44q-.34.83-.34 1.83 0 1.28.71 2.13t1.88 1.45q1.18.6 2.68 1.07 1.5.48 3.07 1.02 1.58.53 3.08 1.25 1.5.71 2.68 1.8 1.17 1.08 1.88 2.66.72 1.57.72 3.82 0 2.45-.84 4.59t-2.45 3.73q-1.61 1.58-3.94 2.5-2.32.91-5.32.91-1.73 0-3.4-.34-1.68-.34-3.22-.96-1.54-.63-2.88-1.5-1.36-.88-2.41-1.95l1.98-3.23q.25-.35.65-.58.4-.24.85-.24.62 0 1.35.51.72.51 1.72 1.14 1.01.62 2.34 1.14 1.34.51 3.21.51 2.88 0 4.45-1.36 1.58-1.37 1.58-3.92 0-1.42-.71-2.32T47 53.865q-1.18-.62-2.68-1.04-1.5-.43-3.04-.93-1.55-.5-3.05-1.2-1.5-.69-2.68-1.82-1.17-1.13-1.89-2.81-.71-1.69-.71-4.17 0-1.97.79-3.85.78-1.87 2.28-3.32t3.71-2.33q2.2-.87 5.05-.87 3.2 0 5.9 1t4.6 2.8m13.25-3.4v36.15h-6.75v-36.15z"/></svg>