<svg xmlns="http://www.w3.org/2000/svg" width="100" height="100" viewBox="0 0 100 100"><rect width="100%" height="100%" fill="#dc2626"/><path fill="#ffffff" d="M40.03 38.07v3.65h-7.2v20.21h-4.44V41.72H21.2v-3.65zm25.65 0h3.35v23.86h-3.91V46.52q0-.93.1-2l-7.21 13.55q-.51.97-1.57.97h-.62q-1.06 0-1.57-.97l-7.29-13.6q.05.55.08 1.08.03.52.03.97v15.41h-3.91V38.07h3.35q.3 0 .51.02.22.01.39.08t.31.21q.14.15.28.4l7.14 13.25q.28.53.52 1.09t.47 1.15q.23-.61.48-1.18t.53-1.09l7.04-13.22q.13-.25.28-.4.15-.14.33-.21.17-.07.38-.08.22-.02.51-.02m13.12 0v23.86h-4.45V38.07z"/></svg>