<svg xmlns="http://www.w3.org/2000/svg" width="100" height="100" viewBox="0 0 100 100"><rect width="100%" height="100%" fill="#dc2626"/><path fill="#ffffff" d="M22.71 55.895h3.13q.86 0 1.45-.2.58-.21.93-.55.35-.35.51-.81.15-.46.15-.98 0-.54-.17-.97t-.54-.73q-.37-.31-.95-.47t-1.4-.16h-3.11zm2.63-11.82h-2.63v4.81h2.46q1.59 0 2.4-.57.81-.58.81-1.83 0-1.3-.74-1.86-.73-.55-2.3-.55m-5.73-2.39h5.73q1.63 0 2.8.31 1.16.31 1.9.89.74.57 1.09 1.39.34.82.34 1.84 0 .58-.17 1.12-.17.53-.54 1-.36.47-.92.85-.55.37-1.32.64 3.42.77 3.42 3.7 0 1.06-.4 1.96-.4.89-1.17 1.54t-1.9 1.02-2.58.37h-6.28zm26.06 0h3.11v16.63h-3.11v-7.27h-7.8v7.27h-3.11v-16.63h3.11v7.15h7.8zm18.43 0v2.54h-5.02v14.09h-3.09v-14.09h-5.01v-2.54zm5.28 0v6.97h.72q.44 0 .72-.12.29-.12.5-.39l4.59-5.8q.28-.37.6-.52.32-.14.8-.14h2.67l-5.6 6.91q-.5.64-1.03.9.38.14.69.38.3.25.58.65l5.77 7.79h-2.72q-.56 0-.83-.16-.27-.15-.45-.45l-4.7-6.14q-.22-.31-.51-.44-.29-.12-.83-.12h-.97v7.31h-3.1v-16.63z"/></svg>