<svg xmlns="http://www.w3.org/2000/svg" width="100" height="100" viewBox="0 0 100 100"><rect width="100%" height="100%" fill="#dc2626"/><path fill="#ffffff" d="M32.79 54.395q.25 0 .45.19l1.22 1.33q-1.01 1.25-2.49 1.92-1.48.66-3.55.66-1.85 0-3.33-.63t-2.52-1.76q-1.05-1.12-1.61-2.69-.55-1.56-.55-3.41 0-1.88.59-3.44.6-1.56 1.69-2.68 1.09-1.13 2.59-1.76 1.51-.62 3.34-.62 1.81 0 3.22.6 1.41.59 2.4 1.56l-1.03 1.44q-.1.13-.24.24-.14.1-.4.1-.17 0-.35-.1-.19-.09-.41-.24-.21-.14-.5-.31-.29-.18-.67-.32t-.88-.24-1.15-.1q-1.12 0-2.05.4-.92.39-1.59 1.15-.67.75-1.03 1.84-.37 1.08-.37 2.48t.4 2.49q.39 1.09 1.07 1.84t1.6 1.15q.92.39 1.98.39.63 0 1.14-.07t.94-.22q.44-.15.82-.38.39-.24.77-.58.11-.1.24-.17.12-.06.26-.06m15.22 0q.25 0 .44.19l1.22 1.33q-1.01 1.25-2.49 1.92-1.47.66-3.54.66-1.86 0-3.33-.63-1.48-.63-2.53-1.76-1.04-1.12-1.6-2.69-.56-1.56-.56-3.41 0-1.88.6-3.44t1.68-2.68q1.09-1.13 2.6-1.76 1.5-.62 3.33-.62 1.82 0 3.23.6 1.41.59 2.4 1.56l-1.04 1.44q-.09.13-.24.24-.14.1-.39.1-.17 0-.36-.1-.18-.09-.4-.24-.22-.14-.51-.31-.28-.18-.66-.32t-.88-.24-1.16-.1q-1.12 0-2.04.4-.93.39-1.59 1.15-.67.75-1.04 1.84-.37 1.08-.37 2.48t.4 2.49 1.08 1.84q.67.75 1.59 1.15.92.39 1.98.39.63 0 1.15-.07.51-.07.94-.22t.82-.38q.38-.24.76-.58.12-.1.24-.17.13-.06.27-.06m14.28-10.25h-7.38v4.92h6.23v2.48h-6.23v6.77H51.8v-16.63h10.49zm17.3 5.86q0 1.82-.61 3.35t-1.72 2.64q-1.1 1.1-2.65 1.71-1.56.61-3.45.61h-6.34v-16.63h6.34q1.89 0 3.45.62 1.55.61 2.65 1.71 1.11 1.1 1.72 2.63t.61 3.36m-3.18 0q0-1.37-.36-2.46T75 45.705q-.68-.75-1.65-1.16-.98-.4-2.19-.4h-3.24v11.71h3.24q1.21 0 2.19-.4.97-.41 1.65-1.16.69-.75 1.05-1.84t.36-2.45"/></svg>