<svg xmlns="http://www.w3.org/2000/svg" width="100" height="100" viewBox="0 0 100 100"><rect width="100%" height="100%" fill="#dc2626"/><path fill="#ffffff" d="M30.935 54.01q.23 0 .41.18l1.11 1.21q-.92 1.14-2.27 1.75t-3.24.61q-1.69 0-3.04-.58t-2.31-1.61q-.95-1.03-1.46-2.45-.51-1.43-.51-3.12 0-1.71.54-3.14.55-1.42 1.54-2.45t2.37-1.6 3.05-.57q1.65 0 2.94.54 1.29.55 2.19 1.43l-.95 1.32q-.08.12-.21.22-.13.09-.36.09-.16 0-.33-.09t-.37-.22-.46-.29-.61-.29q-.34-.13-.8-.22t-1.06-.09q-1.01 0-1.86.37-.84.36-1.45 1.05-.61.68-.95 1.68-.33.99-.33 2.26 0 1.28.36 2.28.36.99.98 1.68.62.68 1.46 1.04t1.81.36q.57 0 1.04-.06t.86-.2.75-.35q.35-.22.69-.53.11-.1.23-.15.11-.06.24-.06m13.89 0q.23 0 .41.18l1.11 1.21q-.92 1.14-2.27 1.75t-3.24.61q-1.69 0-3.04-.58t-2.31-1.61q-.95-1.03-1.46-2.45-.51-1.43-.51-3.12 0-1.71.55-3.14.54-1.42 1.53-2.45 1-1.03 2.37-1.6 1.38-.57 3.05-.57 1.66 0 2.94.54 1.29.55 2.19 1.43l-.94 1.32q-.09.12-.22.22-.13.09-.36.09-.16 0-.33-.09-.16-.09-.36-.22t-.47-.29q-.26-.16-.61-.29-.34-.13-.8-.22t-1.05-.09q-1.02 0-1.87.37-.84.36-1.45 1.05-.61.68-.95 1.68-.33.99-.33 2.26 0 1.28.36 2.28.36.99.98 1.68.62.68 1.46 1.04t1.81.36q.57 0 1.04-.06t.86-.2q.4-.14.75-.35.35-.22.7-.53.1-.1.22-.15.11-.06.24-.06m13.04-9.36h-6.74v4.5h5.69v2.26h-5.69v6.18h-2.84V42.41h9.58zm20.3-2.24h2.21l-4.71 15.18h-2.55l-3.32-10.37q-.14-.38-.25-.93-.07.26-.13.5-.06.23-.14.43l-3.35 10.37h-2.56l-4.7-15.18h2.36q.37 0 .61.17.25.17.33.47l2.59 9.08q.08.34.16.73t.16.82q.09-.44.19-.83.1-.38.21-.72l2.98-9.08q.09-.24.34-.44.24-.2.6-.2h.83q.37 0 .6.18.23.17.34.46l2.97 9.08q.23.65.4 1.5.14-.83.31-1.5l2.58-9.08q.06-.27.32-.45.26-.19.62-.19"/></svg>