<svg xmlns="http://www.w3.org/2000/svg" width="100" height="100" viewBox="0 0 100 100"><rect width="100%" height="100%" fill="#dc2626"/><path fill="#ffffff" d="M45.35 37.535H29.62v10.48H42.9v5.27H29.62v14.43H23v-35.43h22.35zm11.98 25.03h6.66q1.84 0 3.09-.44t2-1.17q.74-.74 1.07-1.72.34-.98.34-2.08 0-1.15-.37-2.07t-1.15-1.57q-.79-.65-2.02-.99-1.24-.34-2.98-.34h-6.64zm5.61-25.18h-5.61v10.24h5.24q3.38 0 5.11-1.23 1.73-1.22 1.73-3.89 0-2.77-1.57-3.95-1.57-1.17-4.9-1.17m-12.2-5.1h12.2q3.48 0 5.95.66 2.48.67 4.06 1.89 1.58 1.23 2.31 2.97.74 1.73.74 3.92 0 1.24-.37 2.38t-1.14 2.14q-.77.99-1.96 1.8-1.19.8-2.83 1.37 7.3 1.64 7.3 7.89 0 2.25-.86 4.16-.85 1.91-2.49 3.3-1.65 1.38-4.05 2.17-2.4.78-5.48.78H50.74z"/></svg>