<svg xmlns="http://www.w3.org/2000/svg" width="100" height="100" viewBox="0 0 100 100"><rect width="100%" height="100%" fill="#dc2626"/><path fill="#ffffff" d="M35.225 31.925v36.15h-6.75v-36.15zm14.8 17.2h4.2q1.9 0 3.31-.48 1.41-.47 2.33-1.31.91-.84 1.36-1.99t.45-2.52q0-2.75-1.81-4.23-1.82-1.47-5.54-1.47h-4.3zm12.45 5.6 9.05 13.35h-6.08q-1.72 0-2.5-1.35l-7.6-11.58q-.42-.65-.93-.92-.52-.28-1.52-.28h-2.87v14.13h-6.73v-36.15h11.03q3.67 0 6.31.76t4.32 2.14q1.69 1.37 2.49 3.29.8 1.91.8 4.21 0 1.82-.54 3.45-.53 1.62-1.54 2.95-1.02 1.32-2.5 2.32-1.49 1-3.39 1.58.65.37 1.2.89.55.51 1 1.21"/></svg>