<svg xmlns="http://www.w3.org/2000/svg" width="100" height="100" viewBox="0 0 100 100"><rect width="100%" height="100%" fill="#dc2626"/><path fill="#ffffff" d="M34.24 43.13h1.93v13.74h-2.25V48q0-.53.06-1.15l-4.15 7.8q-.3.56-.91.56h-.36q-.6 0-.9-.56l-4.2-7.83q.03.31.05.62.02.3.02.56v8.87h-2.25V43.13h1.93q.17 0 .29.01t.22.05.18.12q.08.09.16.23l4.11 7.63q.17.3.3.63.14.32.27.66.14-.35.28-.68t.3-.63l4.06-7.61q.08-.14.16-.23.09-.08.19-.12t.22-.05.29-.01m7.88 8.55h4.37l-1.67-4.57q-.13-.3-.26-.72t-.26-.9q-.13.48-.26.91-.13.42-.26.73zm3.49-8.55L51 56.87h-1.97q-.34 0-.55-.17-.2-.16-.31-.41l-1.02-2.8h-5.7l-1.02 2.8q-.08.22-.3.4-.21.18-.54.18H37.6L43 43.13zm16.41 0v2.1h-4.14v11.64h-2.56V45.23h-4.14v-2.1zm14.77 0h1.93v13.74h-2.25V48q0-.53.06-1.15l-4.15 7.8q-.3.56-.91.56h-.36q-.6 0-.9-.56l-4.2-7.83q.03.31.05.62.02.3.02.56v8.87h-2.25V43.13h1.93q.17 0 .29.01t.22.05.18.12q.08.09.16.23l4.11 7.63q.17.3.3.63.14.32.27.66.14-.35.28-.68t.3-.63l4.06-7.61q.08-.14.16-.23.09-.08.19-.12t.22-.05.29-.01"/></svg>