<svg xmlns="http://www.w3.org/2000/svg" width="100" height="100" viewBox="0 0 100 100"><rect width="100%" height="100%" fill="#dc2626"/><path fill="#ffffff" d="M38.38 41.07h2.53v18.07h-2.96V47.46q0-.7.08-1.51l-5.47 10.26q-.38.74-1.18.74h-.48q-.8 0-1.19-.74l-5.52-10.3q.04.42.06.82.03.4.03.73v11.68h-2.97V41.07h2.54q.23 0 .39.01t.29.06.24.16.21.3l5.41 10.04q.21.4.39.82.18.43.36.88.17-.46.36-.89.19-.44.4-.84l5.34-10.01q.1-.19.21-.3t.24-.16q.14-.05.3-.06t.39-.01m9.93 0v18.07h-3.37V41.07zm16.67 0v2.76h-5.45v15.31h-3.37V43.83h-5.45v-2.76zm7.98 15.19h4.64q.5 0 .8.29.29.28.29.74v1.85h-12.4v-1.03q0-.31.13-.65t.42-.62l5.49-5.5q.68-.7 1.23-1.34.54-.64.9-1.26.37-.63.56-1.27t.19-1.36q0-.65-.18-1.14-.19-.49-.53-.83-.35-.34-.83-.51t-1.08-.17q-.55 0-1.02.16t-.83.44-.61.65q-.25.38-.38.83-.21.57-.55.76t-.97.09l-1.63-.29q.19-1.3.73-2.28.53-.98 1.34-1.64.81-.65 1.85-.98 1.04-.34 2.24-.34 1.25 0 2.29.37t1.78 1.05q.73.67 1.15 1.62.41.95.41 2.11 0 1-.29 1.85-.3.85-.79 1.63-.5.77-1.16 1.5-.66.72-1.39 1.47l-4.07 4.17q.59-.18 1.17-.27.58-.1 1.1-.1"/></svg>