<svg xmlns="http://www.w3.org/2000/svg" width="100" height="100" viewBox="0 0 100 100"><rect width="100%" height="100%" fill="#dc2626"/><path fill="#ffffff" d="M39.525 39.885h2.84v20.24h-3.31v-13.08q0-.78.08-1.69l-6.12 11.49q-.43.83-1.33.83h-.53q-.9 0-1.33-.83l-6.19-11.53q.04.46.07.91t.03.82v13.08h-3.32v-20.24h2.84q.26 0 .44.01t.33.07q.14.06.26.18.12.13.23.34l6.07 11.24q.23.45.44.92.2.48.4.98.19-.51.4-1 .21-.48.45-.93l5.98-11.21q.11-.21.24-.34.12-.12.27-.18t.33-.07.43-.01m19.07 1.9-.94 1.78q-.17.29-.35.42-.19.14-.47.14-.3 0-.64-.22t-.82-.48q-.48-.27-1.11-.48-.64-.22-1.51-.22-.78 0-1.37.19t-.99.52q-.4.34-.59.81-.2.47-.2 1.03 0 .71.4 1.19.4.47 1.06.81.66.33 1.5.6t1.72.57 1.72.7 1.5 1.01q.66.6 1.06 1.49.39.88.39 2.14 0 1.37-.46 2.57-.47 1.19-1.38 2.08-.9.89-2.2 1.4t-2.98.51q-.97 0-1.91-.18-.94-.19-1.8-.54t-1.61-.84q-.76-.49-1.35-1.1l1.11-1.8q.14-.2.36-.33.23-.13.48-.13.35 0 .75.28.41.29.97.64t1.31.64q.75.28 1.8.28 1.61 0 2.49-.76t.88-2.19q0-.8-.4-1.3-.4-.51-1.05-.85-.66-.34-1.5-.58t-1.71-.52-1.71-.67-1.5-1.02q-.65-.63-1.05-1.58-.4-.94-.4-2.33 0-1.1.44-2.15t1.28-1.87q.84-.81 2.07-1.3t2.83-.49q1.79 0 3.3.56 1.52.56 2.58 1.57m7.9 10.7h6.44l-2.47-6.74q-.18-.45-.38-1.06-.19-.62-.39-1.33-.18.71-.38 1.33-.19.63-.37 1.09zm5.13-12.6 7.96 20.24h-2.92q-.49 0-.79-.24-.31-.25-.47-.61l-1.51-4.13h-8.38l-1.52 4.13q-.11.32-.43.58-.32.27-.8.27h-2.94l7.97-20.24z"/></svg>