<svg xmlns="http://www.w3.org/2000/svg" width="100" height="100" viewBox="0 0 100 100"><rect width="100%" height="100%" fill="#dc2626"/><path fill="#ffffff" d="M34.33 40.965v2.76h-5.45v15.31h-3.36v-15.31h-5.45v-2.76zm19.44 0h2.54v18.07h-2.96v-11.68q0-.7.07-1.51l-5.46 10.26q-.39.74-1.19.74h-.47q-.8 0-1.19-.74l-5.53-10.3q.04.42.06.82.03.4.03.73v11.68h-2.96v-18.07h2.54q.22 0 .38.01.17.01.3.06t.23.16q.11.11.21.3l5.41 10.04q.22.4.4.82.18.43.35.88.18-.46.37-.89.18-.44.4-.84l5.33-10.01q.1-.19.22-.3.11-.11.24-.16t.29-.06q.17-.01.39-.01m23.62 0h2.54v18.07h-2.96v-11.68q0-.7.08-1.51l-5.47 10.26q-.38.74-1.18.74h-.48q-.8 0-1.19-.74l-5.52-10.3q.04.42.06.82.03.4.03.73v11.68h-2.97v-18.07h2.54q.23 0 .39.01t.29.06.24.16q.1.11.21.3l5.41 10.04q.21.4.39.82.18.43.36.88.17-.46.36-.89.19-.44.4-.84l5.34-10.01q.1-.19.21-.3t.24-.16q.14-.05.3-.06t.38-.01"/></svg>