<svg xmlns="http://www.w3.org/2000/svg" width="100" height="100" viewBox="0 0 100 100"><rect width="100%" height="100%" fill="#dc2626"/><path fill="#ffffff" d="M36.71 43.13h2l-4.26 13.74h-2.31l-3-9.39q-.13-.34-.23-.83l-.11.44q-.06.21-.13.39l-3.03 9.39h-2.32l-4.25-13.74h2.14q.33 0 .55.16t.3.42l2.34 8.22q.07.3.14.66.08.36.15.75.08-.4.17-.75.09-.36.19-.66l2.7-8.22q.08-.22.3-.4t.55-.18h.75q.33 0 .54.16.21.17.31.42l2.69 8.22q.2.59.36 1.36.12-.75.28-1.36l2.33-8.22q.06-.23.29-.41.24-.17.56-.17M53.51 50q0 1.51-.5 2.8t-1.41 2.23q-.92.94-2.2 1.46-1.28.53-2.85.53-1.56 0-2.84-.53-1.28-.52-2.2-1.46t-1.42-2.23-.5-2.8.5-2.8q.5-1.28 1.42-2.22t2.2-1.47 2.84-.53q1.05 0 1.97.24.92.25 1.69.69t1.38 1.07 1.04 1.41.65 1.69q.23.91.23 1.92m-2.62 0q0-1.13-.3-2.03-.31-.89-.87-1.52t-1.36-.96-1.81-.33-1.81.33-1.37.96q-.56.63-.87 1.52-.3.9-.3 2.03t.3 2.03q.31.9.87 1.52.57.62 1.37.95.8.34 1.81.34t1.81-.34q.8-.33 1.36-.95t.87-1.52q.3-.9.3-2.03m17.06 0q0 1.51-.5 2.78-.5 1.26-1.41 2.17-.92.91-2.2 1.42-1.28.5-2.85.5h-5.23V43.13h5.23q1.57 0 2.85.51t2.2 1.42q.91.9 1.41 2.17.5 1.26.5 2.77m-2.62 0q0-1.13-.3-2.03-.3-.89-.86-1.52-.57-.62-1.37-.95t-1.81-.33h-2.67v9.67h2.67q1.01 0 1.81-.34.8-.33 1.37-.95.56-.62.86-1.52t.3-2.03m7.43-.33h1.6q.72 0 1.26-.18.53-.18.88-.5t.52-.76q.17-.43.17-.96 0-1.04-.69-1.6t-2.1-.56h-1.64zm4.73 2.13 3.44 5.07h-2.31q-.65 0-.95-.51l-2.88-4.4q-.17-.25-.36-.35-.2-.11-.58-.11h-1.09v5.37h-2.55V43.13h4.19q1.39 0 2.39.29 1.01.29 1.65.82.64.52.94 1.24.31.73.31 1.6 0 .7-.21 1.32-.2.61-.59 1.12-.38.5-.95.88-.56.38-1.28.6.24.14.45.34.21.19.38.46"/></svg>