<svg xmlns="http://www.w3.org/2000/svg" width="100" height="100" viewBox="0 0 100 100"><rect width="100%" height="100%" fill="#dc2626"/><path fill="#ffffff" d="M42.205 41.325h2.53l-5.39 17.35h-2.92l-3.79-11.86q-.15-.43-.29-1.05-.07.3-.14.56-.07.27-.16.49l-3.82 11.86h-2.93l-5.38-17.35h2.7q.42 0 .7.2.29.19.38.53l2.95 10.38q.1.38.19.83l.19.95q.09-.51.21-.95.11-.45.24-.83l3.41-10.38q.1-.28.38-.5.28-.23.69-.23h.95q.42 0 .68.2.26.21.4.53l3.39 10.38q.25.74.46 1.72.15-.95.35-1.72l2.95-10.38q.07-.3.36-.52.3-.21.71-.21m16.78 0v2.65h-5.23v14.7h-3.23v-14.7h-5.23v-2.65zm18.66 0h2.44v17.35h-2.84v-11.21q0-.67.07-1.45l-5.25 9.85q-.37.71-1.14.71h-.45q-.77 0-1.14-.71l-5.31-9.89q.04.4.06.78.03.39.03.71v11.21h-2.85v-17.35h2.44q.22 0 .37.01.16.01.28.06.13.05.23.16.1.1.2.28l5.2 9.64q.2.38.37.79.18.41.35.84.16-.44.34-.86.18-.41.39-.79l5.12-9.62q.1-.18.21-.28.1-.11.23-.16t.28-.06q.16-.01.37-.01"/></svg>