<svg xmlns="http://www.w3.org/2000/svg" width="100" height="100" viewBox="0 0 100 100"><rect width="100%" height="100%" fill="#dc2626"/><path fill="#ffffff" d="M27.3 52.92h7.59l-2.9-7.94q-.21-.52-.45-1.25-.23-.73-.46-1.57-.21.84-.44 1.58-.23.73-.45 1.28zm6.06-14.85 9.37 23.86H39.3q-.58 0-.94-.29t-.55-.72l-1.78-4.86h-9.88l-1.78 4.86q-.13.38-.51.7-.38.31-.94.31h-3.47l9.39-23.86zm26.89 3.53H49.66v7.06h8.94v3.55h-8.94v9.72h-4.45V38.07h15.04zm20.3-3.53v3.65h-7.19v20.21h-4.44V41.72h-7.2v-3.65z"/></svg>