<svg xmlns="http://www.w3.org/2000/svg" width="100" height="100" viewBox="0 0 100 100"><rect width="100%" height="100%" fill="#dc2626"/><path fill="#ffffff" d="M25.255 52.125h5.52l-2.11-5.77q-.16-.39-.33-.92-.16-.52-.33-1.14-.16.62-.33 1.15-.16.53-.32.93zm4.4-10.8 6.82 17.35h-2.5q-.42 0-.68-.21t-.4-.52l-1.29-3.54h-7.19l-1.3 3.54q-.09.27-.37.5-.27.23-.68.23h-2.52l6.83-17.35zm25 0h2.44v17.35h-2.85v-11.21q0-.67.07-1.45l-5.24 9.85q-.37.71-1.14.71h-.46q-.76 0-1.14-.71l-5.3-9.89q.04.4.06.78.02.39.02.71v11.21h-2.84v-17.35h2.44q.21 0 .37.01.15.01.28.06t.23.16q.1.1.2.28l5.19 9.64q.21.38.38.79t.34.84q.17-.44.35-.86.18-.41.38-.79l5.13-9.62q.09-.18.2-.28.11-.11.24-.16.12-.05.28-.06.15-.01.37-.01m9.54 0v17.35h-3.24v-17.35zm7.1 8.72h2.42q.88 0 1.54-.22t1.1-.64q.44-.41.66-1 .21-.6.21-1.33 0-.7-.21-1.26-.22-.56-.65-.96t-1.09-.61-1.56-.21h-2.42zm-3.22-8.72h5.64q1.74 0 3.01.41 1.27.4 2.1 1.14.83.73 1.23 1.75t.4 2.23q0 1.26-.42 2.31t-1.26 1.81q-.84.75-2.11 1.17-1.26.42-2.95.42h-2.42v6.11h-3.22z"/></svg>