<svg xmlns="http://www.w3.org/2000/svg" width="100" height="100" viewBox="0 0 100 100"><rect width="100%" height="100%" fill="#dc2626"/><path fill="#ffffff" d="M24.825 56.82h3.67q1.01 0 1.7-.25.69-.24 1.1-.65.41-.4.59-.94.19-.54.19-1.15 0-.63-.21-1.14-.2-.51-.63-.86-.43-.36-1.11-.55-.69-.19-1.64-.19h-3.66zm3.09-13.88h-3.09v5.64h2.89q1.86 0 2.81-.67.95-.68.95-2.15 0-1.53-.86-2.18-.87-.64-2.7-.64m-6.72-2.81h6.72q1.92 0 3.28.36 1.36.37 2.23 1.04.87.68 1.28 1.64.4.95.4 2.16 0 .69-.2 1.31-.2.63-.63 1.18-.42.54-1.08.99-.65.45-1.56.76 4.03.9 4.03 4.34 0 1.24-.48 2.3-.47 1.05-1.37 1.81-.91.77-2.23 1.2t-3.02.43h-7.37zm31.41 0v2.98h-5.89v16.54h-3.63V43.11h-5.88v-2.98zm16.2 0v2.98h-5.89v16.54h-3.63V43.11h-5.88v-2.98zm10 0v12.58q0 1.65-.4 2.97-.41 1.32-1.21 2.26-.8.93-2 1.43-1.21.5-2.8.5-.73 0-1.43-.09t-1.47-.28q.04-.54.09-1.08.06-.54.1-1.08.04-.3.23-.48.2-.18.56-.18.23 0 .6.09.38.1.94.1.77 0 1.37-.22.59-.23.99-.71.4-.49.6-1.26.2-.78.2-1.89V40.13z"/></svg>