<svg xmlns="http://www.w3.org/2000/svg" width="100" height="100" viewBox="0 0 100 100"><rect width="100%" height="100%" fill="#dc2626"/><path fill="#ffffff" d="M44.47 58.595q.49 0 .87.38l2.39 2.59q-1.98 2.45-4.87 3.76-2.89 1.3-6.94 1.3-3.63 0-6.52-1.24-2.89-1.23-4.94-3.44-2.04-2.2-3.14-5.26-1.09-3.06-1.09-6.69 0-3.66 1.17-6.71t3.3-5.26q2.13-2.2 5.07-3.43 2.95-1.22 6.53-1.22 3.55 0 6.31 1.17t4.69 3.06l-2.02 2.81q-.18.27-.47.47-.28.2-.77.2-.34 0-.7-.19t-.79-.47q-.42-.28-.99-.62-.56-.34-1.3-.62t-1.72-.47-2.26-.19q-2.19 0-4 .77-1.81.78-3.11 2.25-1.31 1.48-2.03 3.6-.72 2.13-.72 4.85 0 2.75.78 4.89.77 2.13 2.1 3.59 1.33 1.47 3.13 2.24 1.8.78 3.87.78 1.24 0 2.24-.14 1-.13 1.84-.42.84-.3 1.6-.76.75-.46 1.49-1.13.23-.2.48-.33.25-.12.52-.12m14.26-4.62h10.35l-3.96-10.82q-.29-.72-.61-1.71-.31-.99-.63-2.13-.29 1.14-.6 2.14-.32 1.01-.61 1.75zm8.26-20.24 12.78 32.53h-4.68q-.79 0-1.29-.39-.49-.4-.74-.98l-2.43-6.64H57.15l-2.43 6.64q-.17.52-.69.94-.52.43-1.28.43h-4.73l12.8-32.53z"/></svg>