<svg xmlns="http://www.w3.org/2000/svg" width="100" height="100" viewBox="0 0 100 100"><rect width="100%" height="100%" fill="#dc2626"/><path fill="#ffffff" d="M31.945 54.2q.24 0 .42.19l1.17 1.26q-.97 1.2-2.38 1.84t-3.39.64q-1.78 0-3.19-.61-1.41-.6-2.41-1.68t-1.54-2.58q-.53-1.49-.53-3.26 0-1.8.57-3.29t1.61-2.56q1.04-1.08 2.48-1.68t3.19-.6q1.74 0 3.09.57t2.29 1.5l-.99 1.37q-.09.13-.22.23-.14.1-.38.1-.17 0-.34-.09-.18-.1-.39-.23-.21-.14-.48-.31-.28-.16-.64-.3t-.84-.23-1.11-.09q-1.07 0-1.95.38-.89.38-1.52 1.1-.64.72-.99 1.76-.36 1.04-.36 2.37 0 1.34.38 2.38.38 1.05 1.03 1.76.65.72 1.53 1.1t1.89.38q.61 0 1.1-.07.49-.06.9-.21.41-.14.78-.37.37-.22.73-.55.11-.1.23-.16t.26-.06m6.58-12.16v6.67h.7q.42 0 .69-.12.28-.11.47-.36l4.39-5.56q.28-.35.58-.49t.76-.14h2.56l-5.36 6.62q-.47.6-.98.85.36.14.65.37.3.24.56.62l5.52 7.45h-2.6q-.53 0-.79-.15t-.44-.43l-4.49-5.88q-.21-.29-.49-.42-.27-.12-.79-.12h-.94v7h-2.95V42.04zM64.775 50q0 1.75-.58 3.21-.59 1.46-1.64 2.52-1.06 1.05-2.54 1.64-1.49.58-3.3.58h-6.06V42.04h6.06q1.81 0 3.3.59 1.48.59 2.54 1.64 1.05 1.05 1.64 2.52.58 1.46.58 3.21m-3.04 0q0-1.31-.34-2.35-.35-1.04-1-1.76-.66-.72-1.59-1.11-.93-.38-2.09-.38h-3.09v11.2h3.09q1.16 0 2.09-.39.93-.38 1.59-1.1.65-.72 1-1.76.34-1.04.34-2.35m16.57 4.2q.24 0 .43.19l1.17 1.26q-.97 1.2-2.39 1.84-1.41.64-3.39.64-1.77 0-3.18-.61-1.42-.6-2.42-1.68t-1.53-2.58q-.54-1.49-.54-3.26 0-1.8.57-3.29.58-1.49 1.62-2.56 1.04-1.08 2.48-1.68t3.19-.6q1.73 0 3.08.57t2.3 1.5l-.99 1.37q-.09.13-.23.23t-.38.1q-.16 0-.34-.09-.18-.1-.39-.23-.2-.14-.48-.31-.27-.16-.64-.3-.36-.14-.84-.23t-1.1-.09q-1.07 0-1.96.38-.88.38-1.52 1.1t-.99 1.76-.35 2.37q0 1.34.38 2.38.38 1.05 1.03 1.76.65.72 1.52 1.1.88.38 1.9.38.6 0 1.09-.07.49-.06.9-.21.42-.14.78-.37.37-.22.74-.55.11-.1.23-.16t.25-.06"/></svg>