<svg xmlns="http://www.w3.org/2000/svg" width="100" height="100" viewBox="0 0 100 100"><rect width="100%" height="100%" fill="#dc2626"/><path fill="#ffffff" d="M42.2 57.26q.42 0 .74.32l2.02 2.19q-1.67 2.07-4.12 3.17-2.44 1.1-5.86 1.1-3.06 0-5.5-1.04-2.44-1.05-4.17-2.91t-2.65-4.44q-.92-2.59-.92-5.65 0-3.09.99-5.67.99-2.57 2.78-4.43 1.8-1.87 4.29-2.9 2.48-1.04 5.51-1.04 3 0 5.33.99 2.32.99 3.96 2.58l-1.71 2.38q-.16.23-.39.4-.24.17-.66.17-.28 0-.59-.16-.3-.16-.66-.4t-.84-.52q-.47-.29-1.1-.53-.63-.23-1.45-.4-.83-.16-1.91-.16-1.85 0-3.38.66-1.53.65-2.63 1.9-1.1 1.24-1.71 3.04-.61 1.79-.61 4.09 0 2.32.66 4.13.66 1.8 1.78 3.04 1.12 1.23 2.64 1.89 1.52.65 3.27.65 1.04 0 1.89-.11.84-.12 1.55-.36.72-.25 1.35-.64.64-.39 1.27-.96.19-.17.4-.27.2-.11.43-.11m32.21-20.99h3.85v27.47h-4.5V45.99q0-1.06.12-2.29l-8.31 15.59q-.59 1.13-1.8 1.13h-.72q-1.22 0-1.81-1.13l-8.4-15.65q.06.63.1 1.23.04.61.04 1.12v17.75h-4.51V36.27h3.86q.34 0 .59.02.25.01.45.09.19.08.36.25.16.17.31.45l8.23 15.26q.32.61.6 1.25.27.65.54 1.33.26-.7.55-1.35.28-.66.61-1.27l8.11-15.22q.15-.28.32-.45t.37-.25.45-.09q.25-.02.59-.02"/></svg>