<svg xmlns="http://www.w3.org/2000/svg" width="100" height="100" viewBox="0 0 100 100"><rect width="100%" height="100%" fill="#dc2626"/><path fill="#ffffff" d="M33.045 43.38h-8.34v5.22h6.58v2.69h-6.58v5.31h8.34v2.8h-11.85V40.6h11.85zm14.95 0h-8.34v5.57h7.04v2.79h-7.04v7.66h-3.51V40.6h11.85zm6.36 6.67h2.61q.97 0 1.68-.24.72-.24 1.19-.69t.71-1.09q.23-.64.23-1.44 0-.75-.23-1.36-.24-.61-.7-1.04-.47-.43-1.19-.66-.71-.22-1.69-.22h-2.61zm-3.5-9.45h6.11q1.89 0 3.27.44 1.37.45 2.27 1.24t1.33 1.9q.44 1.1.44 2.41 0 1.37-.45 2.51-.46 1.13-1.37 1.95t-2.28 1.28q-1.37.45-3.21.45h-2.61v6.62h-3.5zm27.95 2.78h-8.34v5.22h6.58v2.69h-6.58v5.31h8.34v2.8h-11.85V40.6h11.85z"/></svg>