<svg xmlns="http://www.w3.org/2000/svg" width="100" height="100" viewBox="0 0 100 100"><rect width="100%" height="100%" fill="#dc2626"/><path fill="#ffffff" d="M32.615 49.965h7.44v9.07q-1.7 1.26-3.63 1.84t-4.13.58q-2.75 0-4.97-.85-2.23-.86-3.8-2.38t-2.43-3.62q-.85-2.11-.85-4.61 0-2.52.82-4.63t2.34-3.63q1.51-1.52 3.66-2.35 2.16-.84 4.84-.84 1.36 0 2.55.22 1.18.21 2.2.59 1.01.38 1.85.92.84.55 1.54 1.2l-1.2 1.89q-.28.45-.73.55t-.97-.23q-.51-.29-1.03-.58-.51-.3-1.14-.52-.62-.21-1.41-.35-.78-.14-1.8-.14-1.66 0-3 .56-1.34.55-2.29 1.59-.94 1.04-1.45 2.5-.52 1.46-.52 3.25 0 1.93.55 3.44t1.55 2.55q1 1.05 2.41 1.6 1.42.55 3.15.55 1.24 0 2.22-.26.97-.27 1.9-.72v-4.06h-2.82q-.4 0-.62-.22-.23-.23-.23-.55zm27.31-11.17h3.37l-9.06 22.41h-3.76l-9.06-22.41h3.35q.55 0 .89.26t.51.68l5.28 13.67q.27.67.51 1.47t.45 1.66q.19-.86.41-1.66.21-.8.48-1.47l5.25-13.67q.13-.35.49-.65.36-.29.89-.29m19.83 3.31h-9.95v6.64h8.4v3.33h-8.4v9.13h-4.19v-22.41h14.14z"/></svg>