<svg xmlns="http://www.w3.org/2000/svg" width="100" height="100" viewBox="0 0 100 100"><rect width="100%" height="100%" fill="#dc2626"/><path fill="#ffffff" d="M29.085 43.13h2.56v13.74h-2.56v-6h-6.45v6h-2.57V43.13h2.57v5.91h6.45zm15.06 10.5q.2 0 .37.16l1 1.09q-.83 1.04-2.05 1.59t-2.93.55q-1.53 0-2.75-.52-1.23-.52-2.09-1.45t-1.33-2.23q-.46-1.29-.46-2.82 0-1.55.5-2.83.49-1.29 1.39-2.22t2.14-1.45q1.25-.52 2.76-.52 1.5 0 2.66.5 1.17.49 1.98 1.29l-.85 1.18q-.08.12-.2.2-.12.09-.32.09-.15 0-.3-.08t-.33-.2-.42-.26-.55-.26-.73-.2q-.41-.08-.95-.08-.92 0-1.69.32-.76.33-1.31.95-.56.63-.86 1.52-.3.9-.3 2.05 0 1.16.32 2.06.33.91.89 1.52.56.62 1.32.95t1.64.33q.52 0 .94-.06.43-.06.78-.18.36-.13.68-.32.31-.19.63-.48.09-.08.2-.14.1-.05.22-.05m6.02-1.95h4.37l-1.67-4.57q-.13-.3-.26-.72t-.27-.9q-.12.48-.25.91-.14.42-.26.73zm3.49-8.55 5.39 13.74h-1.97q-.34 0-.55-.17-.21-.16-.31-.41l-1.03-2.8h-5.69l-1.02 2.8q-.08.22-.3.4t-.54.18h-1.99l5.4-13.74zm9.37 11.63h5.49v2.11h-8.04V43.13h2.55zm16.91-11.63v2.1h-4.14v11.64h-2.56V45.23h-4.14v-2.1z"/></svg>