<svg xmlns="http://www.w3.org/2000/svg" width="100" height="100" viewBox="0 0 100 100"><rect width="100%" height="100%" fill="#dc2626"/><path fill="#ffffff" d="M39.07 40.6h2.64v18.8h-3.08V47.26q0-.73.08-1.58l-5.69 10.68q-.4.76-1.23.76h-.49q-.84 0-1.24-.76l-5.75-10.71q.04.42.07.84t.03.77V59.4h-3.09V40.6h2.64q.24 0 .41.01.17.02.3.07.14.05.25.17t.21.31l5.63 10.44q.22.42.41.86t.37.91q.18-.48.38-.93.19-.45.42-.87l5.55-10.41q.1-.19.22-.31.11-.12.25-.17t.31-.07q.17-.01.4-.01m10.32 9.45H52q.97 0 1.68-.24.72-.24 1.19-.69.48-.45.71-1.09t.23-1.44q0-.75-.23-1.36t-.7-1.04-1.19-.66q-.71-.22-1.69-.22h-2.61zm-3.5-9.45H52q1.89 0 3.27.44 1.38.45 2.27 1.24.9.79 1.34 1.9.43 1.1.43 2.41 0 1.37-.45 2.51-.46 1.13-1.37 1.95t-2.28 1.28q-1.37.45-3.21.45h-2.61v6.62h-3.5zM78.68 50q0 2.07-.69 3.8t-1.94 2.97q-1.24 1.25-3 1.94-1.75.69-3.9.69h-7.16V40.6h7.16q2.15 0 3.9.7 1.76.69 3 1.93 1.25 1.25 1.94 2.97.69 1.73.69 3.8m-3.59 0q0-1.55-.41-2.77-.41-1.23-1.18-2.08-.77-.86-1.87-1.31-1.1-.46-2.48-.46H65.5v13.24h3.65q1.38 0 2.48-.46 1.1-.45 1.87-1.3.77-.86 1.18-2.08.41-1.23.41-2.78"/></svg>