<svg xmlns="http://www.w3.org/2000/svg" width="100" height="100" viewBox="0 0 100 100"><rect width="100%" height="100%" fill="#dc2626"/><path fill="#ffffff" d="M22.865 54.255h4.92v1.89h-7.2v-12.29h2.28zm18.27-4.26q0 1.36-.45 2.51-.44 1.15-1.26 1.99-.81.84-1.96 1.31-1.15.48-2.55.48t-2.54-.48q-1.15-.47-1.97-1.31t-1.27-1.99-.45-2.51q0-1.35.45-2.5t1.27-1.99 1.97-1.32q1.14-.47 2.54-.47.93 0 1.76.22.82.22 1.51.61.69.4 1.24.96.55.57.93 1.26.38.7.58 1.52.2.81.2 1.71m-2.34 0q0-1.01-.27-1.81t-.77-1.36q-.5-.57-1.22-.86-.72-.3-1.62-.3t-1.62.3q-.72.29-1.23.86-.5.56-.77 1.36t-.27 1.81q0 1.02.27 1.82t.77 1.36q.51.56 1.23.85.72.3 1.62.3t1.62-.3q.72-.29 1.22-.85t.77-1.36.27-1.82m16.08 0q0 1.36-.45 2.51t-1.26 1.99q-.82.84-1.97 1.31-1.14.48-2.55.48-1.39 0-2.54-.48-1.14-.47-1.97-1.31-.82-.84-1.27-1.99t-.45-2.51q0-1.35.45-2.5t1.27-1.99q.83-.84 1.97-1.32 1.15-.47 2.54-.47.94 0 1.76.22.83.22 1.52.61.69.4 1.23.96.55.57.93 1.26.39.7.59 1.52.2.81.2 1.71m-2.34 0q0-1.01-.27-1.81-.28-.8-.78-1.36-.5-.57-1.22-.86-.71-.3-1.62-.3-.9 0-1.62.3-.71.29-1.22.86-.5.56-.78 1.36-.27.8-.27 1.81 0 1.02.27 1.82.28.8.78 1.36.51.56 1.22.85.72.3 1.62.3.91 0 1.62-.3.72-.29 1.22-.85t.78-1.36q.27-.8.27-1.82m15.26 0q0 1.36-.45 2.49t-1.26 1.94q-.82.82-1.97 1.27-1.14.45-2.55.45h-4.68v-12.29h4.68q1.41 0 2.55.45 1.15.46 1.97 1.27.81.81 1.26 1.94t.45 2.48m-2.34 0q0-1.01-.27-1.81t-.77-1.36q-.51-.56-1.23-.85-.71-.3-1.62-.3h-2.38v8.65h2.38q.91 0 1.62-.3.72-.29 1.23-.85.5-.56.77-1.36t.27-1.82m6.65-.29h1.42q.65 0 1.13-.16.48-.17.79-.45.31-.29.46-.68.16-.39.16-.86 0-.93-.62-1.43t-1.88-.5h-1.46zm4.23 1.9 3.08 4.54h-2.07q-.59 0-.85-.46l-2.58-3.93q-.15-.23-.32-.32-.18-.09-.52-.09h-.97v4.8h-2.29v-12.29h3.75q1.25 0 2.14.26.9.26 1.47.72.58.47.85 1.12t.27 1.43q0 .63-.18 1.18t-.53 1q-.34.45-.85.79-.5.34-1.15.54.22.12.41.3.19.17.34.41"/></svg>