<svg xmlns="http://www.w3.org/2000/svg" width="100" height="100" viewBox="0 0 100 100"><rect width="100%" height="100%" fill="#dc2626"/><path fill="#ffffff" d="M22.49 55.01h5.77v2.22h-8.47V42.77h2.7zM43.98 50q0 1.59-.53 2.94-.52 1.36-1.48 2.35t-2.31 1.54q-1.35.56-3 .56-1.64 0-2.99-.56-1.35-.55-2.32-1.54t-1.49-2.35q-.53-1.35-.53-2.94t.53-2.95q.52-1.35 1.49-2.34t2.32-1.54q1.35-.56 2.99-.56 1.1 0 2.07.25.97.26 1.78.73.81.46 1.45 1.12.65.67 1.1 1.49t.68 1.78q.24.96.24 2.02m-2.75 0q0-1.19-.32-2.14-.32-.94-.91-1.6t-1.44-1.01q-.84-.35-1.9-.35t-1.91.35q-.84.35-1.44 1.01-.59.66-.91 1.6-.32.95-.32 2.14t.32 2.14q.32.94.91 1.59.6.66 1.44 1.01.85.35 1.91.35t1.9-.35q.85-.35 1.44-1.01.59-.65.91-1.59.32-.95.32-2.14m15.22-7.23v2.21h-4.36v12.25H49.4V44.98h-4.36v-2.21zm11.83 11.05q.22 0 .39.17l1.05 1.15q-.87 1.09-2.16 1.67-1.28.58-3.08.58-1.62 0-2.9-.55t-2.19-1.53-1.4-2.34q-.48-1.36-.48-2.97 0-1.63.51-2.98.53-1.36 1.47-2.34.95-.98 2.26-1.53 1.31-.54 2.9-.54 1.57 0 2.8.52t2.09 1.36l-.9 1.25q-.08.12-.21.21-.12.09-.35.09-.14 0-.3-.09-.17-.08-.35-.2-.19-.13-.44-.28t-.59-.28q-.32-.12-.76-.21-.43-.08-1-.08-.97 0-1.78.35-.8.34-1.38 1-.58.65-.9 1.6-.32.94-.32 2.15 0 1.22.34 2.17.35.95.94 1.6t1.39 1q.8.34 1.72.34.55 0 .99-.06t.82-.19q.37-.13.71-.34.34-.2.66-.5.11-.09.21-.14.11-.06.24-.06m11.67-9.69-.67 1.27q-.13.21-.26.3-.13.1-.33.1-.22 0-.46-.16-.24-.15-.58-.34t-.8-.35q-.45-.15-1.07-.15-.56 0-.99.14-.41.13-.7.37-.28.24-.42.57-.15.34-.15.74 0 .51.29.85t.76.58 1.07.43 1.22.4q.64.22 1.24.51.6.28 1.07.71.47.44.75 1.07.29.63.29 1.53 0 .98-.34 1.84-.33.85-.98 1.48-.64.64-1.57 1-.93.37-2.13.37-.69 0-1.36-.13-.67-.14-1.29-.39-.61-.25-1.15-.6t-.96-.78l.79-1.29q.1-.14.26-.24.16-.09.34-.09.25 0 .54.2.29.21.68.46.41.25.94.45.54.21 1.29.21 1.15 0 1.77-.54.64-.55.64-1.57 0-.57-.29-.93-.28-.36-.75-.61-.47-.24-1.07-.41t-1.22-.37-1.22-.48q-.61-.28-1.07-.73-.47-.45-.76-1.12-.28-.68-.28-1.67 0-.79.31-1.54.32-.75.92-1.33t1.48-.93 2.02-.35q1.28 0 2.36.4t1.84 1.12"/></svg>