<svg xmlns="http://www.w3.org/2000/svg" width="100" height="100" viewBox="0 0 100 100"><rect width="100%" height="100%" fill="#dc2626"/><path fill="#ffffff" d="M32.275 43.495h1.83v13.01h-2.13v-8.41q0-.5.05-1.09l-3.93 7.39q-.28.53-.86.53h-.34q-.57 0-.85-.53l-3.98-7.41q.03.29.04.58.02.29.02.53v8.41h-2.13v-13.01h2.1q.12.01.22.05.09.04.17.12.07.08.15.21l3.89 7.23q.16.29.29.59.13.31.25.63.13-.33.26-.64.14-.31.29-.6l3.85-7.21q.07-.13.15-.21t.17-.12q.1-.04.22-.05zm7.15 0v5.45h.57q.34 0 .56-.09.23-.1.39-.31l3.59-4.54q.23-.29.47-.4.25-.11.63-.11h2.09l-4.38 5.4q-.39.5-.81.71.3.1.54.3.24.19.45.51l4.52 6.09h-2.13q-.43 0-.64-.12-.22-.12-.36-.36l-3.68-4.8q-.17-.25-.4-.35-.22-.09-.64-.09h-.77v5.72h-2.42v-13.01zm12.34 11.01h5.2v2h-7.62v-13.01h2.42zm18.49-4.51q0 1.43-.48 2.63t-1.34 2.06q-.87.87-2.08 1.34-1.22.48-2.7.48h-4.96v-13.01h4.96q1.48 0 2.7.48 1.21.48 2.08 1.34.86.86 1.34 2.05.48 1.2.48 2.63m-2.49 0q0-1.07-.28-1.92-.29-.85-.82-1.44-.54-.59-1.3-.9-.76-.32-1.71-.32h-2.53v9.16h2.53q.95 0 1.71-.31.76-.32 1.3-.91.53-.59.82-1.44.28-.85.28-1.92m7.04 4.51h5.2v2h-7.62v-13.01h2.42z"/></svg>