<svg xmlns="http://www.w3.org/2000/svg" width="100" height="100" viewBox="0 0 100 100"><rect width="100%" height="100%" fill="#dc2626"/><path fill="#ffffff" d="M31.2 44.215h1.63v11.57h-1.9v-7.47q0-.45.05-.97l-3.5 6.57q-.24.47-.76.47h-.3q-.51 0-.76-.47l-3.54-6.59q.03.26.04.52.02.25.02.47v7.47h-1.9v-11.57h1.63q.14 0 .25.01.1.01.18.04.09.03.16.1.06.08.13.2l3.46 6.42q.14.26.25.53.12.27.23.56.11-.3.23-.57.12-.28.26-.54l3.42-6.4q.06-.12.13-.2.07-.07.16-.1.08-.03.19-.04.1-.01.24-.01m6.36 0v4.85h.5q.3 0 .5-.08.2-.09.35-.27l3.19-4.04q.2-.26.42-.36t.56-.1h1.85l-3.89 4.81q-.35.44-.72.62.27.1.48.27t.4.45l4.02 5.42h-1.9q-.38 0-.57-.11t-.31-.31l-3.28-4.28q-.15-.21-.35-.3t-.57-.09h-.68v5.09H35.4v-11.57zm19.84 5.79q0 1.27-.42 2.35-.42 1.09-1.18 1.88-.77.79-1.85 1.23-1.08.45-2.4.45-1.31 0-2.39-.45-1.08-.44-1.86-1.23-.77-.79-1.19-1.88-.43-1.08-.43-2.35 0-1.28.43-2.36.42-1.08 1.19-1.88.78-.79 1.86-1.23 1.08-.45 2.39-.45.88 0 1.65.21.78.2 1.43.57.65.38 1.16.91.52.53.88 1.19.36.65.55 1.42.18.77.18 1.62m-2.2 0q0-.96-.25-1.71-.26-.76-.73-1.29-.47-.52-1.15-.8-.67-.28-1.52-.28t-1.53.28q-.67.28-1.15.8-.47.53-.73 1.29-.26.75-.26 1.71 0 .95.26 1.7.26.76.73 1.28.48.53 1.15.81.68.28 1.53.28t1.52-.28q.68-.28 1.15-.81.47-.52.73-1.28.25-.75.25-1.7m14.37 0q0 1.27-.42 2.33-.43 1.07-1.19 1.83-.77.77-1.85 1.2-1.08.42-2.4.42H59.3v-11.57h4.41q1.32 0 2.4.43t1.85 1.19q.76.77 1.19 1.83.42 1.06.42 2.34m-2.21 0q0-.96-.25-1.71-.25-.76-.73-1.28-.47-.53-1.15-.81-.67-.28-1.52-.28h-2.25v8.15h2.25q.85 0 1.52-.28.68-.28 1.15-.81.48-.52.73-1.28.25-.75.25-1.7m6.26.03h1.61q.59 0 1.03-.15t.73-.42q.29-.28.44-.68.14-.39.14-.88 0-.46-.14-.84-.15-.38-.43-.64-.29-.26-.73-.4t-1.04-.14h-1.61zm-2.15-5.82h3.76q1.16 0 2.01.27.84.28 1.4.76.55.49.82 1.17.26.68.26 1.49 0 .84-.28 1.54t-.84 1.2q-.56.51-1.4.79t-1.97.28h-1.61v4.07h-2.15z"/></svg>