<svg xmlns="http://www.w3.org/2000/svg" width="100" height="100" viewBox="0 0 100 100"><rect width="100%" height="100%" fill="#dc2626"/><path fill="#ffffff" d="M32.11 43.855h1.72v12.29h-2.01v-7.94q0-.48.05-1.03l-3.72 6.98q-.26.5-.8.5h-.33q-.54 0-.8-.5l-3.76-7 .04.55q.02.27.02.5v7.94H20.5v-12.29h1.73q.15 0 .26.01t.2.04.16.11q.08.08.14.2l3.69 6.83q.14.27.26.56.13.29.25.6.11-.32.24-.61.13-.3.27-.57l3.63-6.81q.07-.12.15-.2.07-.08.16-.11t.2-.04.27-.01m13.04 0v1.88h-3.7v10.41h-2.29v-10.41h-3.7v-1.88zm10.06 9.39q.19 0 .33.15l.9.97q-.75.93-1.84 1.42-1.09.5-2.62.5-1.37 0-2.46-.47t-1.87-1.3q-.77-.84-1.18-1.99-.41-1.16-.41-2.53 0-1.38.44-2.53t1.24-1.99q.81-.83 1.92-1.29 1.11-.47 2.46-.47t2.39.44q1.04.45 1.77 1.16l-.76 1.06q-.07.11-.18.18-.1.08-.29.08-.13 0-.27-.07l-.29-.18q-.16-.11-.38-.24-.21-.12-.49-.23t-.65-.18-.85-.07q-.83 0-1.51.29-.69.3-1.18.85-.49.56-.77 1.36-.27.81-.27 1.83 0 1.04.3 1.85.29.81.79 1.36t1.18.84q.68.3 1.46.3.47 0 .85-.05t.7-.16q.32-.12.6-.29.29-.17.57-.43.08-.08.17-.12.1-.05.2-.05m14.53-3.25q0 1.36-.45 2.51t-1.26 1.99q-.82.84-1.97 1.31-1.14.48-2.55.48-1.39 0-2.54-.48-1.14-.47-1.96-1.31-.83-.84-1.28-1.99t-.45-2.51q0-1.35.45-2.5t1.28-1.99q.82-.84 1.96-1.32 1.15-.47 2.54-.47.94 0 1.76.22.83.22 1.52.61.69.4 1.23.96.55.57.93 1.26.39.7.59 1.52.2.81.2 1.71m-2.34 0q0-1.01-.27-1.81-.28-.8-.78-1.36-.5-.57-1.22-.86-.71-.3-1.62-.3-.9 0-1.61.3-.72.29-1.23.86-.5.56-.78 1.36-.27.8-.27 1.81 0 1.02.27 1.82.28.8.78 1.36.51.56 1.23.85.71.3 1.61.3.91 0 1.62-.3.72-.29 1.22-.85t.78-1.36q.27-.8.27-1.82m12.1-4.32h-5.45v3.64h4.6v1.82h-4.6v5.01h-2.3v-12.29h7.75z"/></svg>