<svg xmlns="http://www.w3.org/2000/svg" width="100" height="100" viewBox="0 0 100 100"><rect width="100%" height="100%" fill="#dc2626"/><path fill="#ffffff" d="M34.51 42.41h2.13v15.18h-2.49v-9.81q0-.59.07-1.27l-4.59 8.62q-.33.62-1 .62h-.4q-.67 0-.99-.62l-4.65-8.65q.04.35.06.68.02.34.02.62v9.81h-2.49V42.41h2.13q.19 0 .33.01.13.01.24.05t.2.14q.09.09.18.25l4.54 8.43q.18.34.33.69.16.36.3.74.15-.39.31-.75.15-.37.33-.7l4.49-8.41q.08-.16.17-.25.1-.1.21-.14t.25-.05q.13-.01.32-.01m16.12 0v2.32h-4.58v12.86h-2.82V44.73h-4.58v-2.32zm9.47 7.57h5.04v6.14q-1.15.85-2.46 1.24-1.31.4-2.8.4-1.86 0-3.37-.58-1.5-.58-2.57-1.61-1.06-1.03-1.64-2.45-.58-1.43-.58-3.12 0-1.71.56-3.14.55-1.43 1.58-2.46 1.02-1.03 2.48-1.59 1.46-.57 3.28-.57.92 0 1.72.15.81.14 1.5.4.68.26 1.25.62.57.37 1.04.81l-.81 1.28q-.19.31-.49.38-.31.07-.66-.16-.35-.19-.7-.39-.34-.2-.77-.35-.42-.15-.95-.24-.53-.1-1.23-.1-1.12 0-2.03.38t-1.55 1.08q-.64.71-.98 1.69-.35.99-.35 2.21 0 1.3.37 2.32.37 1.03 1.05 1.74t1.63 1.08q.96.37 2.14.37.84 0 1.5-.18t1.29-.48V52.1h-1.91q-.28 0-.43-.15-.15-.16-.15-.38zm18.2 4.03q.23 0 .41.18l1.11 1.21q-.92 1.14-2.27 1.75t-3.24.61q-1.69 0-3.04-.58t-2.31-1.61q-.95-1.03-1.46-2.45-.51-1.43-.51-3.12 0-1.71.54-3.14.55-1.42 1.54-2.45t2.37-1.6 3.05-.57q1.65 0 2.94.54 1.29.55 2.19 1.43l-.95 1.32q-.08.12-.21.22-.13.09-.36.09-.16 0-.33-.09t-.37-.22-.46-.29-.61-.29q-.34-.13-.8-.22t-1.06-.09q-1.01 0-1.86.37-.84.36-1.45 1.05-.61.68-.95 1.68-.33.99-.33 2.26 0 1.28.36 2.28.36.99.98 1.68.62.68 1.46 1.04t1.81.36q.57 0 1.04-.06t.86-.2.75-.35q.35-.22.69-.53.11-.1.23-.15.11-.06.24-.06"/></svg>