<svg xmlns="http://www.w3.org/2000/svg" width="100" height="100" viewBox="0 0 100 100"><rect width="100%" height="100%" fill="#dc2626"/><path fill="#ffffff" d="M38.77 38.425v3.54h-6.98v19.6h-4.3v-19.6h-6.98v-3.54zm18.93 17.68q.35 0 .62.28l1.7 1.84q-1.41 1.74-3.47 2.67-2.05.93-4.93.93-2.58 0-4.64-.88-2.05-.88-3.51-2.45-1.45-1.57-2.23-3.75-.78-2.17-.78-4.75 0-2.61.84-4.77.83-2.17 2.34-3.74t3.61-2.44q2.09-.87 4.64-.87 2.53 0 4.49.83t3.33 2.18l-1.44 2q-.13.19-.33.33-.2.15-.55.15-.24 0-.49-.14-.26-.14-.56-.34-.31-.2-.71-.44t-.93-.44q-.52-.2-1.22-.33-.7-.14-1.61-.14-1.55 0-2.84.55-1.29.56-2.21 1.6-.93 1.05-1.44 2.56-.52 1.52-.52 3.45 0 1.95.56 3.47.55 1.52 1.49 2.56.95 1.04 2.23 1.6 1.28.55 2.75.55.88 0 1.59-.1.71-.09 1.31-.3t1.14-.54q.53-.33 1.06-.81.16-.14.34-.23.17-.09.37-.09m9.58-6.04h3.22q1.18 0 2.06-.3t1.46-.85q.59-.55.88-1.34.28-.79.28-1.77 0-.93-.28-1.68-.29-.75-.87-1.28-.57-.53-1.45-.81t-2.08-.28h-3.22zm-4.3-11.64h7.52q2.32 0 4.01.55 1.7.54 2.8 1.52 1.11.97 1.64 2.33.54 1.36.54 2.98 0 1.68-.56 3.08t-1.68 2.41-2.81 1.57-3.94.56h-3.22v8.14h-4.3z"/></svg>