<svg xmlns="http://www.w3.org/2000/svg" width="100" height="100" viewBox="0 0 100 100"><rect width="100%" height="100%" fill="#dc2626"/><path fill="#ffffff" d="M30.86 42.77v2.21H26.5v12.25h-2.69V44.98h-4.36v-2.21zm11.72 0h2.37v14.46h-1.38q-.32 0-.53-.1-.22-.11-.42-.36l-7.55-9.64q.06.66.06 1.22v8.88h-2.37V42.77h1.41q.17 0 .3.01.12.02.22.07.09.04.18.12.09.09.2.23l7.58 9.68q-.03-.35-.05-.69t-.02-.63zm11.1 0v9.32q0 1.22-.3 2.2t-.89 1.67q-.6.69-1.49 1.06t-2.07.37q-.54 0-1.06-.06-.52-.07-1.09-.21.03-.4.07-.8t.07-.8q.03-.22.18-.35.14-.14.41-.14.17 0 .45.07.27.07.69.07.57 0 1.01-.17.44-.16.74-.52.29-.36.44-.94.15-.57.15-1.39v-9.38zm7.57 12.16h3.71q.4 0 .64.22.23.23.23.6v1.48h-9.92v-.82q0-.25.11-.52.1-.28.33-.5l4.39-4.4q.55-.56.99-1.07.43-.51.72-1.01t.45-1.02q.15-.51.15-1.08 0-.52-.15-.92-.15-.39-.42-.66-.28-.27-.66-.41-.39-.13-.87-.13-.44 0-.81.12-.38.13-.67.36-.29.22-.49.52t-.3.66q-.17.46-.44.61t-.78.07l-1.3-.23q.15-1.04.58-1.83.43-.78 1.08-1.3.64-.53 1.48-.8.83-.26 1.79-.26 1 0 1.83.29.83.3 1.42.84t.92 1.3.33 1.69q0 .8-.23 1.48-.24.68-.63 1.3-.4.62-.93 1.2t-1.11 1.18l-3.26 3.33q.47-.14.94-.22.46-.07.88-.07m16.93-12.16h2.37v14.46h-1.37q-.32 0-.54-.1-.21-.11-.42-.36l-7.54-9.64q.05.66.05 1.22v8.88h-2.37V42.77h1.41q.18 0 .3.01.13.02.22.07.09.04.18.12.09.09.21.23l7.57 9.68q-.03-.35-.04-.69-.03-.34-.03-.63z"/></svg>