<svg xmlns="http://www.w3.org/2000/svg" width="100" height="100" viewBox="0 0 100 100"><rect width="100%" height="100%" fill="#dc2626"/><path fill="#ffffff" d="M39.09 37.71v3.75h-7.42v20.83H27.1V41.46h-7.41v-3.75zm17.46 2.31-1.14 2.16q-.21.36-.44.52t-.57.16q-.35 0-.77-.26-.42-.27-.99-.59-.58-.32-1.36-.59-.77-.26-1.82-.26-.96 0-1.67.23t-1.2.64q-.48.4-.72.97t-.24 1.25q0 .87.49 1.45.48.58 1.28.98.8.41 1.82.73 1.02.33 2.09.69 1.07.37 2.09.85 1.02.49 1.82 1.23t1.28 1.81q.49 1.07.49 2.6 0 1.66-.57 3.12-.57 1.45-1.67 2.53-1.09 1.08-2.67 1.7-1.59.62-3.63.62-1.17 0-2.31-.23t-2.18-.65q-1.05-.43-1.97-1.02-.91-.6-1.63-1.33l1.34-2.19q.17-.24.45-.4.27-.16.57-.16.43 0 .92.35.5.34 1.18.77.68.42 1.59.77.9.35 2.18.35 1.96 0 3.03-.92 1.07-.93 1.07-2.67 0-.96-.49-1.58-.48-.61-1.28-1.02-.8-.42-1.82-.71t-2.07-.63q-1.06-.34-2.08-.82-1.02-.47-1.82-1.24-.8-.76-1.28-1.91-.49-1.15-.49-2.83 0-1.34.54-2.62.54-1.27 1.56-2.26 1.02-.98 2.51-1.58 1.5-.59 3.44-.59 2.17 0 4.01.68 1.83.68 3.13 1.9m21.3 16.47q.37 0 .66.29l1.8 1.96q-1.49 1.85-3.68 2.84-2.18.98-5.24.98-2.74 0-4.92-.93-2.19-.94-3.74-2.6-1.54-1.67-2.37-3.98-.82-2.31-.82-5.05 0-2.77.88-5.08.89-2.3 2.49-3.97 1.61-1.66 3.84-2.59 2.22-.92 4.93-.92 2.68 0 4.76.88 2.09.88 3.55 2.31l-1.53 2.13q-.14.2-.35.35-.21.16-.59.16-.25 0-.52-.15-.27-.14-.6-.35-.32-.22-.75-.47-.42-.26-.98-.47t-1.3-.36q-.74-.14-1.71-.14-1.65 0-3.02.59-1.37.58-2.35 1.7-.99 1.11-1.53 2.72-.55 1.6-.55 3.66 0 2.07.59 3.69.59 1.61 1.59 2.72 1 1.1 2.36 1.69t2.93.59q.93 0 1.69-.11.75-.1 1.39-.32t1.21-.57 1.13-.86q.17-.15.36-.24.18-.1.39-.1"/></svg>