<svg xmlns="http://www.w3.org/2000/svg" width="100" height="100" viewBox="0 0 100 100"><rect width="100%" height="100%" fill="#dc2626"/><path fill="#ffffff" d="M37.585 36.725v3.42h-6.75v18.99h-4.17v-18.99h-6.76v-3.42zm15.92 2.11-1.04 1.96q-.18.33-.39.48-.21.14-.52.14-.33 0-.7-.24-.38-.24-.91-.53-.53-.3-1.23-.54-.71-.24-1.67-.24-.87 0-1.52.21t-1.09.58q-.44.38-.66.9-.22.51-.22 1.13 0 .8.44 1.32.45.53 1.17.9.73.37 1.66.67.93.29 1.91.63.98.33 1.91.77t1.65 1.12q.73.67 1.17 1.65.45.97.45 2.37 0 1.52-.52 2.84-.52 1.33-1.52 2.31-1 .99-2.44 1.55-1.44.57-3.3.57-1.07 0-2.11-.21t-1.99-.6q-.96-.39-1.79-.93-.84-.54-1.49-1.21l1.22-2q.16-.21.4-.36.25-.15.53-.15.39 0 .84.32t1.07.71q.62.38 1.45.7t1.99.32q1.78 0 2.76-.85.97-.84.97-2.42 0-.89-.44-1.44-.44-.56-1.17-.94t-1.66-.65q-.93-.26-1.89-.57t-1.89-.74q-.93-.44-1.66-1.13-.72-.7-1.17-1.75-.44-1.04-.44-2.58 0-1.22.49-2.39.49-1.16 1.42-2.06t2.29-1.44q1.37-.54 3.13-.54 1.99 0 3.66.62 1.68.62 2.85 1.74m6.98 9.09q0 1.85.49 3.31.5 1.47 1.42 2.48.92 1.02 2.23 1.56t2.96.54q1.64 0 2.95-.54t2.22-1.56q.92-1.01 1.41-2.48.5-1.46.5-3.31 0-1.84-.5-3.31-.49-1.46-1.41-2.48-.91-1.03-2.22-1.57t-2.95-.54q-1.65 0-2.96.54t-2.23 1.57q-.92 1.02-1.42 2.48-.49 1.47-.49 3.31m13.92 9.4 5.69 6.2h-3.45q-.74 0-1.34-.21-.59-.2-1.09-.74l-3.28-3.63q-.8.22-1.62.33-.83.11-1.73.11-2.54 0-4.64-.86-2.09-.86-3.59-2.4-1.49-1.53-2.31-3.63t-.82-4.57q0-2.46.82-4.56t2.31-3.64q1.5-1.53 3.59-2.39 2.1-.86 4.64-.86 1.7 0 3.21.39 1.5.4 2.75 1.12 1.26.72 2.26 1.75t1.7 2.3q.69 1.27 1.06 2.76.36 1.49.36 3.13 0 1.51-.31 2.88t-.89 2.56q-.58 1.2-1.42 2.2-.83 1-1.9 1.76"/></svg>