<svg xmlns="http://www.w3.org/2000/svg" width="100" height="100" viewBox="0 0 100 100"><rect width="100%" height="100%" fill="#dc2626"/><path fill="#ffffff" d="m39.875 39.155-7.91 13.29v8.4h-4.02v-8.4l-7.9-13.29h3.55q.53 0 .84.26.3.25.51.64l3.96 7.25q.35.64.61 1.21t.47 1.14q.2-.57.45-1.14.26-.57.59-1.21l3.94-7.25q.17-.33.5-.61.33-.29.84-.29zm12.9 10.81h7.2v8.78q-1.65 1.21-3.52 1.78-1.87.56-4 .56-2.65 0-4.8-.82-2.16-.83-3.68-2.3t-2.35-3.51q-.82-2.04-.82-4.45 0-2.45.79-4.49.8-2.04 2.26-3.51t3.55-2.28q2.08-.81 4.68-.81 1.32 0 2.46.21 1.15.21 2.13.58.99.37 1.8.89.81.53 1.48 1.16l-1.15 1.82q-.27.44-.71.54-.43.1-.94-.22-.5-.28-.99-.57-.5-.28-1.1-.5-.61-.2-1.37-.34t-1.75-.14q-1.6 0-2.9.55-1.3.54-2.21 1.54-.92 1.01-1.41 2.42-.5 1.41-.5 3.15 0 1.86.54 3.32.53 1.46 1.5 2.47.96 1.01 2.33 1.55 1.36.53 3.04.53 1.2 0 2.15-.26.94-.25 1.84-.69v-3.92h-2.73q-.39 0-.6-.22-.22-.22-.22-.53zm15.13 7.73h4.08q1.13 0 1.89-.27.77-.27 1.23-.72.45-.45.65-1.05.21-.6.21-1.27 0-.71-.23-1.27-.22-.56-.7-.96t-1.24-.61-1.82-.21h-4.07zm3.44-15.42h-3.44v6.27h3.21q2.07 0 3.13-.75t1.06-2.38q0-1.7-.96-2.42t-3-.72m-7.47-3.12h7.47q2.13 0 3.64.4 1.52.41 2.48 1.16.97.75 1.42 1.82.45 1.06.45 2.4 0 .76-.22 1.46-.23.7-.7 1.3-.47.61-1.2 1.11-.73.49-1.73.83 4.47 1.01 4.47 4.83 0 1.38-.53 2.56-.52 1.17-1.53 2.01-1 .85-2.47 1.33t-3.36.48h-8.19z"/></svg>