<svg xmlns="http://www.w3.org/2000/svg" width="100" height="100" viewBox="0 0 100 100"><rect width="100%" height="100%" fill="#dc2626"/><path fill="#ffffff" d="M30.125 53.715h9.66l-3.7-10.1q-.27-.67-.56-1.59-.3-.93-.59-2-.27 1.07-.57 2.01-.29.93-.56 1.62zm7.71-18.9 11.93 30.37h-4.37q-.74 0-1.2-.37t-.69-.91l-2.27-6.2h-12.58l-2.27 6.2q-.17.48-.65.88t-1.2.4h-4.41l11.95-30.37zm42.04 15.19q0 3.34-1.11 6.13-1.12 2.79-3.13 4.81-2.02 2.01-4.85 3.13-2.84 1.11-6.3 1.11h-11.57v-30.37h11.57q3.46 0 6.3 1.13 2.83 1.12 4.85 3.13 2.01 2 3.13 4.79 1.11 2.8 1.11 6.14m-5.8 0q0-2.5-.66-4.49-.66-1.98-1.91-3.36-1.25-1.37-3.02-2.11-1.78-.73-4-.73h-5.9v21.38h5.9q2.22 0 4-.74 1.77-.73 3.02-2.11 1.25-1.37 1.91-3.36.66-1.98.66-4.48"/></svg>