<svg xmlns="http://www.w3.org/2000/svg" width="100" height="100" viewBox="0 0 100 100"><rect width="100%" height="100%" fill="#dc2626"/><path fill="#ffffff" d="M28.35 53.275h8.51l-3.25-8.9q-.25-.59-.5-1.41-.26-.81-.52-1.75-.24.94-.5 1.76-.26.83-.5 1.44zm6.79-16.65 10.51 26.75H41.8q-.65 0-1.05-.32-.41-.33-.61-.81l-2-5.46H27.06l-2 5.46q-.15.43-.58.78-.42.35-1.05.35h-3.88l10.52-26.75zm18.28 0v26.75h-5v-26.75zm24.34 20.44q.41 0 .73.32l1.96 2.12q-1.63 2.02-4.01 3.09-2.38 1.08-5.71 1.08-2.97 0-5.35-1.02t-4.06-2.83q-1.69-1.81-2.58-4.33-.9-2.52-.9-5.5 0-3.01.96-5.52.96-2.5 2.71-4.32 1.75-1.81 4.17-2.82 2.43-1.01 5.37-1.01 2.92 0 5.19.97 2.26.96 3.86 2.51l-1.67 2.31q-.15.23-.38.39-.23.17-.64.17-.27 0-.57-.16t-.65-.39-.81-.51q-.46-.27-1.07-.5-.62-.24-1.42-.39-.8-.16-1.86-.16-1.79 0-3.28.64t-2.57 1.85q-1.07 1.21-1.66 2.96t-.59 3.98q0 2.26.64 4.02.63 1.76 1.73 2.96 1.09 1.2 2.57 1.84t3.18.64q1.02 0 1.84-.11t1.52-.35q.69-.25 1.31-.62.62-.38 1.23-.94.19-.16.39-.27.2-.1.42-.1"/></svg>