<svg xmlns="http://www.w3.org/2000/svg" width="100" height="100" viewBox="0 0 100 100"><rect width="100%" height="100%" fill="#dc2626"/><path fill="#ffffff" d="M23.115 54.88h2.58q.71 0 1.2-.18.48-.17.77-.45.29-.29.42-.67t.13-.8q0-.45-.14-.81-.15-.35-.45-.61-.3-.25-.78-.38t-1.16-.13h-2.57zm2.17-9.77h-2.17v3.97h2.03q1.31 0 1.98-.48.67-.47.67-1.51 0-1.07-.61-1.52-.61-.46-1.9-.46m-4.73-1.98h4.73q1.35 0 2.31.26t1.57.73q.62.48.9 1.15.29.68.29 1.52 0 .48-.15.93-.14.44-.44.82-.3.39-.76.7-.46.32-1.1.53 2.84.64 2.84 3.06 0 .88-.34 1.62-.33.74-.97 1.28-.63.53-1.56.84-.93.3-2.13.3h-5.19zm28.79 0h2l-4.26 13.74h-2.31l-3-9.39q-.13-.34-.23-.83-.06.24-.12.44-.05.21-.12.39l-3.03 9.39h-2.32l-4.25-13.74h2.13q.34 0 .56.16t.3.42l2.33 8.22q.08.3.15.66t.15.75q.08-.4.17-.75.09-.36.19-.66l2.7-8.22q.07-.22.3-.4.22-.18.54-.18h.75q.34 0 .55.16.2.17.31.42l2.69 8.22q.2.59.36 1.36.12-.75.27-1.36l2.34-8.22q.06-.23.29-.41.23-.17.56-.17m13.02 0h2.25v13.74h-1.31q-.3 0-.51-.1-.2-.1-.39-.34l-7.17-9.16q.05.63.05 1.16v8.44h-2.25V43.13h1.34q.16 0 .28.02.12.01.21.05.09.05.18.13.08.08.19.21l7.2 9.2q-.03-.33-.05-.66-.02-.32-.02-.6zm8.2 8.55h4.37l-1.67-4.57q-.13-.3-.26-.72t-.26-.9q-.13.48-.26.91-.13.42-.26.73zm3.49-8.55 5.39 13.74h-1.97q-.34 0-.55-.17-.2-.16-.31-.41l-1.02-2.8h-5.7l-1.02 2.8q-.08.22-.3.4-.21.18-.54.18h-1.99l5.4-13.74z"/></svg>