<svg xmlns="http://www.w3.org/2000/svg" width="100" height="100" viewBox="0 0 100 100"><rect width="100%" height="100%" fill="#dc2626"/><path fill="#ffffff" d="M30.55 54.01q.23 0 .41.18l1.11 1.21q-.92 1.14-2.27 1.75t-3.24.61q-1.69 0-3.04-.58t-2.3-1.61q-.96-1.03-1.47-2.45-.51-1.43-.51-3.12 0-1.71.55-3.14.54-1.42 1.54-2.45.99-1.03 2.36-1.6 1.38-.57 3.05-.57 1.66 0 2.94.54 1.29.55 2.19 1.43l-.94 1.32q-.09.12-.22.22-.13.09-.36.09-.16 0-.32-.09-.17-.09-.37-.22t-.46-.29q-.27-.16-.61-.29-.35-.13-.81-.22-.45-.09-1.05-.09-1.02 0-1.87.37-.84.36-1.45 1.05-.61.68-.94 1.68-.34.99-.34 2.26 0 1.28.36 2.28.36.99.98 1.68.62.68 1.46 1.04t1.81.36q.58 0 1.04-.06.47-.06.86-.2.4-.14.75-.35.35-.22.7-.53.1-.1.22-.15.11-.06.24-.06m17.8-11.6h2.13v15.18h-2.49v-9.81q0-.59.06-1.27l-4.58 8.62q-.33.62-1 .62h-.4q-.67 0-1-.62l-4.64-8.65q.03.35.05.68.02.34.02.62v9.81h-2.48V42.41h2.13q.19 0 .32.01.14.01.25.05t.2.14q.09.09.17.25l4.55 8.43q.18.34.33.69.15.36.3.74.15-.39.3-.75.16-.37.34-.7l4.48-8.41q.09-.16.18-.25.1-.1.21-.14t.24-.05q.14-.01.33-.01m15.94 11.6q.23 0 .41.18l1.11 1.21q-.92 1.14-2.27 1.75t-3.24.61q-1.69 0-3.04-.58t-2.31-1.61q-.95-1.03-1.46-2.45-.51-1.43-.51-3.12 0-1.71.54-3.14.55-1.42 1.54-2.45 1-1.03 2.37-1.6 1.38-.57 3.05-.57 1.65 0 2.94.54 1.29.55 2.19 1.43l-.94 1.32q-.09.12-.22.22-.13.09-.36.09-.16 0-.33-.09t-.37-.22q-.19-.13-.46-.29-.26-.16-.61-.29-.34-.13-.8-.22t-1.05-.09q-1.02 0-1.87.37-.84.36-1.45 1.05-.61.68-.95 1.68-.33.99-.33 2.26 0 1.28.36 2.28.36.99.98 1.68.62.68 1.46 1.04t1.81.36q.57 0 1.04-.06t.86-.2q.4-.14.75-.35.35-.22.7-.53.1-.1.22-.15.11-.06.24-.06m6.65-2.15h4.83l-1.84-5.05q-.14-.34-.29-.8-.14-.46-.29-1-.14.54-.28 1-.15.47-.29.82zm3.86-9.45 5.96 15.18h-2.18q-.37 0-.6-.18-.23-.19-.35-.46l-1.13-3.1h-6.29l-1.13 3.1q-.09.24-.33.44t-.6.2h-2.2l5.97-15.18z"/></svg>