<svg xmlns="http://www.w3.org/2000/svg" width="100" height="100" viewBox="0 0 100 100"><rect width="100%" height="100%" fill="#dc2626"/><path fill="#ffffff" d="M36.585 49.965h8.88v10.82q-2.03 1.5-4.34 2.19-2.3.7-4.93.7-3.27 0-5.93-1.02-2.65-1.02-4.53-2.83t-2.89-4.33q-1.02-2.52-1.02-5.5 0-3.01.98-5.53.98-2.51 2.78-4.33 1.81-1.81 4.38-2.81t5.77-1q1.63 0 3.04.26 1.42.26 2.63.71 1.21.46 2.21 1.11 1 .64 1.83 1.42l-1.42 2.26q-.33.53-.87.65t-1.17-.26q-.61-.36-1.22-.71t-1.36-.61-1.68-.42q-.93-.17-2.15-.17-1.98 0-3.58.67-1.6.66-2.73 1.9t-1.74 2.98-.61 3.88q0 2.3.65 4.1.66 1.81 1.85 3.05 1.2 1.25 2.88 1.91t3.76.66q1.48 0 2.64-.32 1.17-.31 2.28-.85v-4.85h-3.37q-.48 0-.75-.26-.27-.27-.27-.66zm18.67.11h3.72q1.37 0 2.38-.34 1.02-.35 1.7-.98.67-.64 1.01-1.56.33-.91.33-2.04 0-1.08-.33-1.94-.34-.87-1-1.48-.67-.62-1.69-.94-1.01-.32-2.4-.32h-3.72zm-4.98-13.45h8.7q2.68 0 4.64.63t3.24 1.76q1.28 1.12 1.89 2.7.62 1.57.62 3.44 0 1.94-.64 3.56-.65 1.62-1.95 2.78-1.29 1.17-3.24 1.82-1.95.64-4.56.64h-3.72v9.42h-4.98zm27.9 0v26.75h-4.99v-26.75z"/></svg>