<svg xmlns="http://www.w3.org/2000/svg" width="100" height="100" viewBox="0 0 100 100"><rect width="100%" height="100%" fill="#dc2626"/><path fill="#ffffff" d="M24.5 50.05h2.51q.93 0 1.62-.23.68-.23 1.14-.66t.68-1.05q.23-.62.23-1.38 0-.73-.23-1.32-.22-.58-.67-1-.46-.41-1.14-.63-.69-.22-1.63-.22H24.5zm-3.36-9.08h5.87q1.81 0 3.14.42t2.19 1.19q.86.76 1.28 1.82t.42 2.33q0 1.31-.44 2.4-.44 1.1-1.31 1.88-.88.79-2.2 1.23-1.31.44-3.08.44H24.5v6.36h-3.36zm28.1 0v2.76h-5.45v15.31h-3.36V43.73h-5.45v-2.76zm5.74 15.44h3.4q.93 0 1.57-.22.64-.23 1.02-.6.38-.38.55-.88t.17-1.06q0-.59-.19-1.05-.19-.47-.59-.8-.4-.34-1.03-.51-.63-.18-1.52-.18h-3.38zm2.86-12.85h-2.86v5.23h2.67q1.73 0 2.61-.63.88-.62.88-1.98 0-1.42-.8-2.02t-2.5-.6m-6.23-2.59h6.23q1.77 0 3.04.33 1.26.34 2.06.96.81.63 1.19 1.52.37.88.37 2 0 .63-.19 1.22-.18.58-.58 1.08-.39.51-1 .92-.6.41-1.44.7 3.72.84 3.72 4.03 0 1.15-.43 2.12-.44.98-1.28 1.68-.84.71-2.06 1.11-1.23.4-2.8.4h-6.83zm26.93 1.69-.84 1.59q-.15.26-.32.38t-.42.12q-.26 0-.57-.19-.3-.2-.73-.43-.42-.24-.99-.43-.57-.2-1.34-.2-.7 0-1.23.17-.52.17-.88.47t-.53.72q-.18.42-.18.92 0 .63.36 1.06.36.42.94.72.59.3 1.34.54t1.54.51 1.54.62q.75.36 1.33.9.59.55.95 1.33.35.79.35 1.92 0 1.22-.42 2.29-.41 1.07-1.22 1.86-.81.8-1.97 1.25-1.16.46-2.66.46-.86 0-1.7-.17t-1.61-.48-1.44-.75q-.68-.44-1.2-.98l.99-1.61q.12-.17.32-.29t.43-.12q.31 0 .67.26.36.25.86.56.5.32 1.17.57.67.26 1.61.26 1.44 0 2.22-.68.79-.68.79-1.96 0-.71-.36-1.16-.35-.45-.94-.76-.59-.3-1.34-.52-.75-.21-1.52-.46-.78-.25-1.53-.6t-1.33-.91q-.59-.56-.95-1.41-.35-.84-.35-2.08 0-.99.39-1.92.39-.94 1.14-1.67.75-.72 1.85-1.16t2.53-.44q1.6 0 2.95.5t2.3 1.4"/></svg>