<svg xmlns="http://www.w3.org/2000/svg" width="100" height="100" viewBox="0 0 100 100"><rect width="100%" height="100%" fill="#dc2626"/><path fill="#ffffff" d="m27.46 44.72-.61 1.14q-.1.19-.23.28-.12.08-.3.08-.19 0-.41-.14t-.52-.31q-.31-.17-.72-.31t-.97-.14q-.5 0-.88.12-.38.13-.63.34-.26.22-.39.52-.12.3-.12.66 0 .46.25.77.26.3.68.52.43.21.97.38.54.18 1.1.37.57.19 1.11.45t.96.65q.43.39.68.96.26.56.26 1.37 0 .88-.3 1.65t-.88 1.35q-.58.57-1.42.9-.84.32-1.92.32-.62 0-1.22-.12t-1.16-.34q-.55-.23-1.04-.54-.48-.32-.86-.71l.71-1.16q.09-.12.23-.21.15-.08.31-.08.22 0 .49.18.26.18.62.41.36.22.84.41.48.18 1.15.18 1.04 0 1.61-.49.56-.49.56-1.41 0-.51-.25-.83-.26-.33-.68-.55-.43-.22-.97-.37t-1.09-.33q-.56-.18-1.1-.44-.54-.25-.96-.65-.43-.41-.68-1.01-.26-.61-.26-1.5 0-.71.28-1.39.29-.67.83-1.2.54-.52 1.33-.83.79-.32 1.82-.32 1.15 0 2.12.36t1.66 1.01m17.75-1.22h1.9l-4.04 13.01h-2.19l-2.84-8.89q-.12-.33-.22-.79-.05.22-.1.42-.06.2-.12.37l-2.87 8.89h-2.2L28.5 43.5h2.03q.31 0 .52.14.21.15.29.4l2.21 7.79q.07.29.14.63.07.33.14.7.07-.38.16-.71.08-.33.18-.62l2.56-7.79q.07-.2.28-.37t.52-.17h.71q.31 0 .51.15t.3.39l2.55 7.79q.18.56.34 1.29.11-.71.26-1.29l2.21-7.79q.06-.22.28-.38t.52-.16m6.24 8.1h4.14l-1.58-4.33q-.12-.29-.25-.69-.12-.39-.25-.85-.12.46-.24.86-.13.4-.24.69zm3.3-8.1 5.12 13.01h-1.88q-.31 0-.51-.16t-.3-.39l-.97-2.65h-5.39l-.97 2.65q-.07.21-.28.38t-.51.17h-1.89l5.12-13.01zm15.56 0v1.98h-3.93v11.03h-2.42V45.48h-3.92V43.5zm10.8 0v1.98h-3.93v11.03h-2.42V45.48h-3.92V43.5z"/></svg>