<svg xmlns="http://www.w3.org/2000/svg" width="100" height="100" viewBox="0 0 100 100"><rect width="100%" height="100%" fill="#dc2626"/><path fill="#ffffff" d="M30.395 42.77v2.21h-4.36v12.25h-2.69V44.98h-4.36v-2.21zm4.59 12.36h2.72q.75 0 1.26-.18t.81-.48q.31-.3.44-.7.14-.4.14-.85 0-.47-.15-.85-.15-.37-.47-.63-.32-.27-.83-.41-.5-.14-1.21-.14h-2.71zm2.29-10.28h-2.29v4.18h2.14q1.38 0 2.08-.5.71-.5.71-1.59 0-1.13-.64-1.61t-2-.48m-4.98-2.08h4.98q1.42 0 2.43.27t1.65.77q.65.5.95 1.21t.3 1.6q0 .51-.15.98-.15.46-.47.86-.31.41-.8.74-.48.33-1.15.56 2.98.67 2.98 3.22 0 .92-.35 1.7t-1.02 1.34q-.67.57-1.65.89t-2.24.32h-5.46zm23.1 11.05q.22 0 .39.17l1.06 1.15q-.88 1.09-2.17 1.67-1.28.58-3.08.58-1.61 0-2.9-.55-1.28-.55-2.19-1.53t-1.4-2.34q-.48-1.36-.48-2.97 0-1.63.52-2.98.52-1.36 1.46-2.34.95-.98 2.26-1.53 1.31-.54 2.9-.54 1.58 0 2.8.52 1.23.52 2.09 1.36l-.9 1.25q-.08.12-.21.21-.12.09-.34.09-.15 0-.31-.09-.16-.08-.35-.2-.19-.13-.44-.28t-.58-.28q-.33-.12-.77-.21-.43-.08-1-.08-.97 0-1.78.35-.8.34-1.38 1-.58.65-.9 1.6-.32.94-.32 2.15 0 1.22.34 2.17.35.95.94 1.6t1.39 1q.8.34 1.72.34.55 0 .99-.06.45-.06.82-.19.38-.13.71-.34.34-.2.67-.5.1-.09.21-.14.11-.06.23-.06m13.4-11.05v2.21h-4.36v12.25h-2.69V44.98h-4.36v-2.21zm4.59 7.27h2.01q.74 0 1.29-.19.55-.18.91-.53.37-.34.55-.84.18-.49.18-1.1 0-.58-.18-1.05t-.54-.8-.91-.51q-.55-.17-1.3-.17h-2.01zm-2.69-7.27h4.7q1.45 0 2.51.34t1.75.95 1.02 1.46q.34.85.34 1.86 0 1.05-.35 1.93-.35.87-1.05 1.5t-1.76.98q-1.05.35-2.46.35h-2.01v5.09h-2.69z"/></svg>