<svg xmlns="http://www.w3.org/2000/svg" width="100" height="100" viewBox="0 0 100 100"><rect width="100%" height="100%" fill="#dc2626"/><path fill="#ffffff" d="M38.35 39.155v3.31h-6.53v18.38h-4.04v-18.38h-6.54v-3.31zm17.75 16.57q.33 0 .59.26l1.59 1.73q-1.32 1.63-3.25 2.5t-4.63.87q-2.41 0-4.34-.82-1.93-.83-3.29-2.3-1.37-1.47-2.1-3.51-.72-2.04-.72-4.45 0-2.45.78-4.48.78-2.04 2.19-3.5 1.42-1.47 3.39-2.29 1.96-.82 4.35-.82 2.37 0 4.2.78 1.84.78 3.13 2.04l-1.35 1.88q-.12.18-.31.31-.18.13-.52.13-.22 0-.46-.12-.24-.13-.52-.32l-.66-.41q-.38-.22-.87-.41-.5-.19-1.15-.32t-1.51-.13q-1.45 0-2.66.52t-2.08 1.5q-.87.99-1.35 2.4-.48 1.42-.48 3.24 0 1.83.52 3.25t1.4 2.4q.89.98 2.09 1.49 1.2.52 2.58.52.82 0 1.49-.09t1.23-.28q.56-.2 1.06-.51.51-.31 1-.75.15-.14.32-.22.16-.09.34-.09m13.68 1.87q1.17 0 2.09-.4.93-.39 1.55-1.09.63-.7.97-1.71t.34-2.25v-12.99h4.03v12.99q0 1.94-.62 3.58t-1.78 2.83q-1.17 1.2-2.83 1.86-1.66.67-3.75.67-2.1 0-3.77-.67-1.66-.66-2.82-1.86-1.16-1.19-1.79-2.83-.62-1.64-.62-3.58v-12.99h4.03v12.98q0 1.24.34 2.25.34 1 .98 1.71.63.71 1.56 1.1.92.4 2.09.4"/></svg>