<svg xmlns="http://www.w3.org/2000/svg" width="100" height="100" viewBox="0 0 100 100"><rect width="100%" height="100%" fill="#dc2626"/><path fill="#ffffff" d="M31.345 42.41v2.32h-4.58v12.86h-2.83V44.73h-4.57v-2.32zm12.3 0h2.49v15.18h-1.45q-.33 0-.56-.11t-.44-.37l-7.92-10.13q.06.7.06 1.29v9.32h-2.49V42.41h1.48q.18 0 .31.01.13.02.23.07.1.04.2.13.09.09.21.24l7.96 10.16q-.04-.37-.06-.72-.02-.36-.02-.66zm15.45 2.24h-6.74v4.5h5.69v2.26h-5.69v6.18h-2.84V42.41h9.58zm5.14-2.24v15.18h-2.83V42.41zm6.59 9.45h4.83l-1.85-5.05q-.14-.34-.28-.8-.15-.46-.3-1-.14.54-.28 1-.15.47-.29.82zm3.85-9.45 5.96 15.18h-2.18q-.37 0-.6-.18-.23-.19-.34-.46l-1.14-3.1h-6.29l-1.13 3.1q-.09.24-.33.44t-.6.2h-2.2l5.97-15.18z"/></svg>