<svg xmlns="http://www.w3.org/2000/svg" width="100" height="100" viewBox="0 0 100 100"><rect width="100%" height="100%" fill="#dc2626"/><path fill="#ffffff" d="M37.395 39.515v3.21h-6.33v17.76h-3.9v-17.76h-6.32v-3.21zm14.89 1.97-.97 1.85q-.18.3-.37.44-.2.14-.49.14-.3 0-.66-.23-.36-.22-.85-.5-.49-.27-1.15-.5-.66-.22-1.56-.22-.81 0-1.42.19-.61.2-1.02.55-.42.34-.62.83t-.2 1.07q0 .73.41 1.23.41.49 1.1.84.68.35 1.55.62.87.28 1.78.59t1.78.72q.87.42 1.56 1.05.68.63 1.09 1.54.41.92.41 2.22 0 1.42-.48 2.66-.49 1.24-1.42 2.16-.94.92-2.29 1.45t-3.09.53q-1 0-1.97-.19-.97-.2-1.86-.56t-1.68-.87q-.78-.51-1.39-1.13l1.15-1.87q.14-.21.38-.34.23-.14.49-.14.36 0 .78.3.42.29 1 .65.58.37 1.36.66.77.3 1.86.3 1.67 0 2.58-.79.92-.79.92-2.27 0-.82-.42-1.35-.41-.52-1.09-.87-.68-.36-1.55-.61-.87-.24-1.77-.53t-1.77-.7q-.87-.4-1.55-1.06-.69-.65-1.1-1.63t-.41-2.41q0-1.15.46-2.23.45-1.09 1.32-1.93t2.15-1.35q1.27-.51 2.93-.51 1.85 0 3.42.58 1.56.58 2.67 1.62m18.17 14.06q.31 0 .56.24l1.54 1.67q-1.28 1.58-3.14 2.42t-4.47.84q-2.34 0-4.2-.8-1.87-.79-3.19-2.21-1.31-1.43-2.02-3.4-.7-1.97-.7-4.3 0-2.37.75-4.33.76-1.97 2.13-3.39t3.27-2.21 4.2-.79q2.29 0 4.07.75 1.78.76 3.02 1.98l-1.3 1.81q-.12.17-.3.3t-.5.13q-.22 0-.45-.12t-.51-.3q-.27-.18-.64-.4-.36-.22-.84-.4-.47-.18-1.11-.31-.63-.12-1.45-.12-1.41 0-2.58.5-1.16.5-2 1.45-.85.95-1.31 2.32t-.46 3.13q0 1.77.5 3.14.5 1.38 1.35 2.32.86.95 2.02 1.45t2.49.5q.8 0 1.44-.09.65-.09 1.19-.28.55-.19 1.03-.48.49-.3.97-.73.14-.14.3-.21.16-.08.34-.08m8.7-16.03v20.97h-3.92v-20.97z"/></svg>