<svg xmlns="http://www.w3.org/2000/svg" width="100" height="100" viewBox="0 0 100 100"><rect width="100%" height="100%" fill="#dc2626"/><path fill="#ffffff" d="M38.115 38.795v3.42h-6.76v18.99h-4.16v-18.99h-6.76v-3.42zm18.6 0v3.42h-6.76v18.99h-4.16v-18.99h-6.76v-3.42zm22.85 11.2q0 2.47-.82 4.53t-2.31 3.55-3.58 2.31-4.65.82h-8.54v-22.41h8.54q2.56 0 4.65.83t3.58 2.31 2.31 3.54.82 4.52m-4.28 0q0-1.84-.49-3.31-.48-1.46-1.41-2.48-.92-1.01-2.23-1.55-1.31-.55-2.95-.55h-4.36v15.78h4.36q1.64 0 2.95-.54t2.23-1.56q.93-1.01 1.41-2.48.49-1.46.49-3.31"/></svg>