<svg xmlns="http://www.w3.org/2000/svg" width="100" height="100" viewBox="0 0 100 100"><rect width="100%" height="100%" fill="#dc2626"/><path fill="#ffffff" d="M25.08 54.045q.63 0 1.12-.2.49-.21.83-.59.33-.37.51-.91t.18-1.2v-6.93h2.16v6.93q0 1.03-.34 1.91-.33.87-.95 1.51t-1.51.99q-.88.36-2 .36t-2-.36q-.89-.35-1.51-.99t-.95-1.51q-.34-.88-.34-1.91v-6.93h2.16v6.92q0 .67.18 1.2.18.54.52.92t.83.59q.49.2 1.11.2m20.93-9.83h1.69l-3.59 11.57h-1.95l-2.52-7.9q-.11-.29-.2-.71-.04.2-.09.38-.05.17-.11.33l-2.55 7.9h-1.95l-3.58-11.57h1.8q.28 0 .46.13.19.14.26.36l1.96 6.92q.07.26.13.56t.12.62q.07-.33.14-.63.08-.29.17-.55l2.27-6.92q.06-.18.25-.34.19-.15.46-.15h.63q.28 0 .46.14.17.13.26.35l2.27 6.92q.16.5.3 1.14.1-.63.23-1.14l1.97-6.92q.05-.2.24-.34.2-.15.47-.15m16.82 0h1.69l-3.6 11.57h-1.94l-2.53-7.9q-.1-.29-.19-.71-.05.2-.1.38-.04.17-.1.33l-2.55 7.9h-1.95l-3.59-11.57h1.8q.28 0 .47.13.19.14.25.36l1.97 6.92q.06.26.12.56t.13.62q.06-.33.14-.63.07-.29.16-.55l2.27-6.92q.07-.18.26-.34.18-.15.46-.15h.63q.28 0 .45.14.18.13.27.35l2.26 6.92q.17.5.31 1.14.1-.63.23-1.14l1.97-6.92q.04-.2.24-.34.2-.15.47-.15m7.52 0v7.46q0 .97-.24 1.76-.24.78-.72 1.33-.47.56-1.19.85-.71.3-1.65.3-.43 0-.85-.05-.42-.06-.87-.17.02-.32.05-.64.04-.32.06-.64.02-.17.14-.28t.33-.11q.14 0 .36.06.22.05.55.05.46 0 .81-.13t.59-.42.36-.75.12-1.11v-7.51zm9.16 1.09-.54 1.02q-.09.16-.2.24t-.27.08q-.17 0-.36-.13-.2-.12-.47-.27-.27-.16-.64-.28-.36-.12-.86-.12-.45 0-.78.1-.34.11-.57.3-.22.2-.34.46-.11.27-.11.59 0 .41.23.68t.6.47q.38.19.86.34t.98.32q.51.18.99.4.48.23.85.58.38.35.61.85.23.51.23 1.23 0 .78-.27 1.46-.27.69-.79 1.2-.51.5-1.26.8-.74.29-1.7.29-.55 0-1.09-.11-.53-.11-1.03-.31-.49-.2-.92-.48t-.77-.62l.63-1.03q.08-.12.21-.19.13-.08.27-.08.2 0 .44.17.23.16.55.36t.75.36q.42.17 1.02.17.92 0 1.43-.44.5-.43.5-1.25 0-.46-.23-.74-.22-.29-.6-.49-.38-.19-.86-.33t-.97-.3q-.5-.16-.98-.38t-.85-.58q-.38-.36-.61-.9t-.23-1.34q0-.63.26-1.23.25-.6.73-1.06.48-.47 1.18-.75.71-.28 1.62-.28 1.02 0 1.89.32.86.32 1.47.9"/></svg>