<svg xmlns="http://www.w3.org/2000/svg" width="100" height="100" viewBox="0 0 100 100"><rect width="100%" height="100%" fill="#dc2626"/><path fill="#ffffff" d="M23.845 56.67h3.54q.97 0 1.64-.23.66-.24 1.06-.63.39-.39.57-.91.17-.52.17-1.1 0-.61-.19-1.1-.2-.49-.61-.83-.42-.35-1.07-.53-.66-.18-1.58-.18h-3.53zm2.98-13.36h-2.98v5.43h2.79q1.79 0 2.71-.65.91-.65.91-2.07 0-1.47-.83-2.09t-2.6-.62m-6.47-2.71h6.47q1.85 0 3.16.35t2.15 1 1.23 1.58q.39.92.39 2.08 0 .66-.2 1.26-.19.61-.6 1.14-.41.52-1.04.95t-1.5.73q3.87.87 3.87 4.18 0 1.2-.45 2.21-.46 1.02-1.33 1.75-.87.74-2.14 1.15-1.28.42-2.92.42h-7.09zm28.97 2.78h-8.34v5.57h7.04v2.79h-7.04v7.66h-3.51V40.6h11.85zm15.99-2.78v2.87h-5.66V59.4h-3.5V43.47h-5.67V40.6zm14.33 2.78h-8.35v5.57h7.05v2.79h-7.05v7.66h-3.51V40.6h11.86z"/></svg>