<svg xmlns="http://www.w3.org/2000/svg" width="100" height="100" viewBox="0 0 100 100"><rect width="100%" height="100%" fill="#dc2626"/><path fill="#ffffff" d="M38.92 50q0 2.15-.71 3.94-.72 1.8-2.01 3.09-1.3 1.3-3.12 2.01-1.83.72-4.05.72h-7.44V40.24h7.44q2.22 0 4.05.72 1.82.72 3.12 2.01 1.29 1.29 2.01 3.09.71 1.79.71 3.94m-3.72 0q0-1.61-.43-2.88-.42-1.28-1.23-2.16-.8-.89-1.94-1.36t-2.57-.47h-3.8v13.74h3.8q1.43 0 2.57-.47t1.94-1.36q.81-.88 1.23-2.16.43-1.27.43-2.88m25.54 0q0 2.15-.71 3.98-.71 1.82-2 3.16-1.3 1.34-3.12 2.09-1.83.75-4.05.75t-4.04-.75-3.12-2.09q-1.31-1.34-2.02-3.16-.72-1.83-.72-3.98t.72-3.98q.71-1.83 2.02-3.16 1.3-1.34 3.12-2.09t4.04-.75q1.48 0 2.79.35 1.31.34 2.4.97 1.1.63 1.97 1.52.87.9 1.48 2.01.6 1.11.92 2.4.32 1.3.32 2.73m-3.71 0q0-1.61-.44-2.88-.43-1.28-1.22-2.17-.8-.89-1.94-1.36-1.14-.48-2.57-.48t-2.57.48q-1.15.47-1.95 1.36t-1.23 2.17q-.44 1.27-.44 2.88t.44 2.88q.43 1.28 1.23 2.16.8.89 1.95 1.36 1.14.47 2.57.47t2.57-.47 1.94-1.36q.79-.88 1.22-2.16.44-1.27.44-2.88m10.54 6.93h3.67q1.01 0 1.7-.25.69-.24 1.1-.65.42-.4.6-.94t.18-1.15q0-.63-.2-1.14-.21-.51-.64-.86-.43-.36-1.11-.55t-1.64-.19h-3.66zm3.09-13.88h-3.09v5.64h2.89q1.86 0 2.81-.67.96-.68.96-2.15 0-1.53-.87-2.18-.86-.64-2.7-.64m-6.72-2.81h6.72q1.92 0 3.28.36 1.37.37 2.24 1.04.87.68 1.27 1.64.41.95.41 2.16 0 .69-.21 1.31-.2.63-.62 1.18-.43.54-1.08.99-.66.45-1.56.76 4.02.9 4.02 4.34 0 1.24-.47 2.3-.47 1.05-1.38 1.81-.9.77-2.23 1.2-1.32.43-3.02.43h-7.37z"/></svg>