<svg xmlns="http://www.w3.org/2000/svg" width="100" height="100" viewBox="0 0 100 100"><rect width="100%" height="100%" fill="#dc2626"/><path fill="#ffffff" d="M44.53 37.535H28.81v10.48h13.27v5.27H28.81v14.43h-6.62v-35.43h22.34zm29.72 21.83q.54 0 .96.41l2.6 2.82q-2.16 2.67-5.31 4.09t-7.56 1.42q-3.94 0-7.09-1.35-3.15-1.34-5.38-3.74-2.23-2.41-3.41-5.74-1.19-3.33-1.19-7.27 0-4 1.27-7.32t3.59-5.72 5.52-3.73q3.21-1.34 7.11-1.34 3.87 0 6.87 1.27 3 1.28 5.11 3.34l-2.2 3.06q-.2.29-.51.51-.3.22-.84.22-.37 0-.76-.2-.39-.21-.86-.52-.46-.3-1.08-.67-.61-.37-1.42-.68-.81-.3-1.87-.51-1.07-.21-2.46-.21-2.38 0-4.35.85-1.98.84-3.4 2.45-1.42 1.6-2.2 3.92-.79 2.31-.79 5.28 0 2.99.85 5.31.84 2.33 2.29 3.92 1.45 1.6 3.41 2.44 1.96.85 4.21.85 1.35 0 2.44-.15t2.01-.47 1.74-.82 1.63-1.23q.24-.23.51-.36t.56-.13"/></svg>