<svg xmlns="http://www.w3.org/2000/svg" width="100" height="100" viewBox="0 0 100 100"><rect width="100%" height="100%" fill="#dc2626"/><path fill="#ffffff" d="M27.76 45.415h-5.78v3.85h4.88v1.94h-4.88v5.3h-2.43v-13.01h8.21zm14.27-1.92h1.82v13.01h-2.13v-8.41q0-.5.06-1.09l-3.94 7.39q-.28.53-.85.53h-.34q-.58 0-.86-.53l-3.98-7.41q.03.29.05.58t.02.53v8.41h-2.14v-13.01h2.11q.12.01.21.05t.17.12.15.21l3.9 7.23q.15.29.28.59.13.31.26.63.12-.33.26-.64.13-.31.29-.6l3.84-7.21q.07-.13.15-.21t.18-.12q.09-.04.21-.05zm7.14 11.12h2.45q.68 0 1.14-.16.45-.16.73-.43.27-.27.39-.63.13-.36.13-.77 0-.42-.14-.76-.13-.34-.42-.58-.29-.23-.74-.36-.46-.13-1.1-.13h-2.44zm2.06-9.25h-2.06v3.76h1.93q1.24 0 1.88-.45.63-.45.63-1.43 0-1.02-.58-1.45-.57-.43-1.8-.43m-4.48-1.87h4.48q1.28 0 2.19.24t1.49.69.85 1.09.27 1.44q0 .46-.13.88-.14.42-.42.78-.29.37-.72.66-.44.3-1.04.51 2.68.6 2.68 2.89 0 .83-.31 1.53-.32.71-.92 1.22-.61.5-1.49.79t-2.01.29h-4.92zm20.95 0v1.98h-3.93v11.03h-2.42v-11.03h-3.92v-1.98zm4.13 0v5.45h.56q.35 0 .57-.09.23-.1.39-.31l3.59-4.54q.22-.29.47-.4t.63-.11h2.08l-4.38 5.4q-.39.5-.8.71.3.1.54.3.23.19.45.51l4.52 6.09h-2.13q-.44 0-.65-.12t-.35-.36l-3.68-4.8q-.18-.25-.4-.35-.23-.09-.65-.09h-.76v5.72h-2.42v-13.01z"/></svg>