<svg xmlns="http://www.w3.org/2000/svg" width="100" height="100" viewBox="0 0 100 100"><rect width="100%" height="100%" fill="#dc2626"/><path fill="#ffffff" d="M24.075 56.51h7.52v2.89h-11.01V40.6h3.49zm13.51.16h3.54q.97 0 1.63-.23.67-.24 1.06-.63.4-.39.58-.91.17-.52.17-1.1 0-.61-.19-1.1-.2-.49-.61-.83-.42-.35-1.08-.53-.65-.18-1.58-.18h-3.52zm2.98-13.36h-2.98v5.43h2.78q1.8 0 2.71-.65.92-.65.92-2.07 0-1.47-.83-2.09t-2.6-.62m-6.48-2.71h6.48q1.84 0 3.16.35 1.31.35 2.15 1t1.23 1.58q.39.92.39 2.08 0 .66-.2 1.26-.19.61-.6 1.14-.41.52-1.04.95t-1.5.73q3.87.87 3.87 4.18 0 1.2-.46 2.21-.45 1.02-1.32 1.75-.87.74-2.15 1.15-1.27.42-2.91.42h-7.1zm30.03 14.37q.29 0 .51.22l1.38 1.49q-1.15 1.42-2.82 2.17-1.67.76-4.01.76-2.09 0-3.76-.72-1.67-.71-2.85-1.99-1.19-1.27-1.82-3.04t-.63-3.86q0-2.12.68-3.88.67-1.76 1.9-3.04 1.23-1.27 2.93-1.98 1.71-.71 3.77-.71t3.65.68 2.71 1.77l-1.17 1.62q-.1.16-.27.28-.16.11-.44.11-.2 0-.41-.11-.2-.11-.45-.27t-.57-.36q-.33-.19-.76-.36-.43-.16-.99-.27-.57-.11-1.31-.11-1.26 0-2.31.45-1.04.45-1.8 1.3-.75.85-1.17 2.08-.41 1.23-.41 2.8 0 1.59.45 2.82.44 1.24 1.21 2.08.77.85 1.81 1.3 1.04.44 2.23.44.72 0 1.3-.07.58-.08 1.06-.25.49-.17.93-.44.43-.26.86-.65.13-.12.27-.19.15-.07.3-.07m7.79 1.54h7.51v2.89h-11.01V40.6h3.5z"/></svg>