<svg xmlns="http://www.w3.org/2000/svg" width="100" height="100" viewBox="0 0 100 100"><rect width="100%" height="100%" fill="#dc2626"/><path fill="#ffffff" d="M34.845 39.885h3.32v20.24h-1.93q-.45 0-.75-.15-.3-.14-.58-.49l-10.57-13.5q.08.92.08 1.71v12.43h-3.32v-20.24h1.98q.23 0 .41.02.17.02.31.08.13.06.26.18.12.12.28.32l10.61 13.55q-.04-.49-.07-.97-.03-.47-.03-.88zm20.59 2.99h-8.98v5.99h7.58v3.01h-7.58v8.25h-3.78v-20.24h12.76zm6.86-2.99v20.24h-3.78v-20.24zm16.24 1.9-.93 1.78q-.17.29-.36.42-.19.14-.47.14-.29 0-.64-.22-.34-.22-.82-.48-.47-.27-1.11-.48-.64-.22-1.5-.22-.79 0-1.37.19-.59.19-.99.52-.4.34-.6.81-.19.47-.19 1.03 0 .71.4 1.19.39.47 1.05.81.66.33 1.5.6t1.72.57 1.72.7 1.5 1.01q.66.6 1.06 1.49.4.88.4 2.14 0 1.37-.47 2.57-.47 1.19-1.37 2.08-.91.89-2.21 1.4t-2.98.51q-.97 0-1.9-.18-.94-.19-1.8-.54t-1.62-.84-1.34-1.1l1.1-1.8q.14-.2.37-.33.22-.13.47-.13.35 0 .76.28.4.29.96.64t1.31.64q.75.28 1.8.28 1.61 0 2.49-.76.89-.76.89-2.19 0-.8-.4-1.3-.4-.51-1.06-.85t-1.5-.58-1.71-.52q-.86-.28-1.7-.67t-1.5-1.02-1.06-1.58q-.4-.94-.4-2.33 0-1.1.44-2.15t1.29-1.87q.83-.81 2.07-1.3 1.23-.49 2.82-.49 1.8 0 3.31.56t2.57 1.57"/></svg>