<svg xmlns="http://www.w3.org/2000/svg" width="100" height="100" viewBox="0 0 100 100"><rect width="100%" height="100%" fill="#dc2626"/><path fill="#ffffff" d="M36.43 41.685h2.33v16.63h-2.72v-10.74q0-.64.07-1.39l-5.03 9.44q-.35.68-1.09.68h-.44q-.73 0-1.09-.68l-5.08-9.48.06.75q.02.37.02.68v10.74h-2.73v-16.63h2.34q.2 0 .35.01t.27.06.22.15.19.28l4.98 9.23q.2.37.36.76.17.39.33.8.16-.42.34-.82.17-.39.36-.76l4.91-9.21q.1-.18.2-.28t.22-.15.27-.06.36-.01m9.13 14.08h6.65v2.55h-9.74v-16.63h3.09zm11.96-14.08v16.63h-3.1v-16.63zm19.41 0h2.34v16.63h-2.73v-10.74q0-.64.07-1.39l-5.02 9.44q-.36.68-1.1.68h-.43q-.74 0-1.1-.68l-5.08-9.48q.04.38.06.75t.02.68v10.74h-2.72v-16.63h2.33q.21 0 .36.01t.27.06.22.15q.09.1.19.28l4.97 9.23q.2.37.37.76.16.39.32.8.17-.42.34-.82.17-.39.37-.76l4.91-9.21q.09-.18.19-.28.11-.1.23-.15t.27-.06.35-.01"/></svg>