<svg xmlns="http://www.w3.org/2000/svg" width="100" height="100" viewBox="0 0 100 100"><rect width="100%" height="100%" fill="#dc2626"/><path fill="#ffffff" d="M32.82 42.41v2.32h-4.57v12.86h-2.83V44.73h-4.58v-2.32zm4.82 12.85h6.07v2.33h-8.89V42.41h2.82zM60.21 50q0 1.67-.55 3.09t-1.56 2.46-2.43 1.63q-1.42.58-3.15.58-1.72 0-3.14-.58-1.41-.59-2.43-1.63-1.01-1.04-1.57-2.46-.55-1.42-.55-3.09t.55-3.09q.56-1.43 1.57-2.47 1.02-1.04 2.43-1.62 1.42-.58 3.14-.58 1.16 0 2.18.27 1.01.26 1.86.75.86.49 1.53 1.19.68.7 1.15 1.56t.72 1.87.25 2.12m-2.89 0q0-1.25-.34-2.24-.33-1-.95-1.69t-1.51-1.06q-.88-.37-2-.37-1.11 0-2 .37t-1.51 1.06-.96 1.69q-.34.99-.34 2.24t.34 2.24.96 1.68 1.51 1.06q.89.36 2 .36 1.12 0 2-.36.89-.37 1.51-1.06t.95-1.68q.34-.99.34-2.24m19.71-7.59h2.13v15.18h-2.49v-9.81q0-.59.07-1.27l-4.59 8.62q-.33.62-1 .62h-.4q-.67 0-1-.62l-4.64-8.65q.03.35.05.68.03.34.03.62v9.81H62.7V42.41h2.13q.19 0 .32.01.14.01.25.05t.2.14q.09.09.17.25l4.55 8.43q.18.34.33.69.15.36.3.74.15-.39.3-.75.16-.37.34-.7l4.48-8.41q.09-.16.18-.25.1-.1.21-.14t.24-.05q.14-.01.33-.01"/></svg>