<svg xmlns="http://www.w3.org/2000/svg" width="100" height="100" viewBox="0 0 100 100"><rect width="100%" height="100%" fill="#dc2626"/><path fill="#ffffff" d="M24.4 56.67h3.53q.98 0 1.64-.23.67-.24 1.06-.63.4-.39.57-.91.18-.52.18-1.1 0-.61-.2-1.1-.19-.49-.61-.83-.41-.35-1.07-.53t-1.58-.18H24.4zm2.98-13.36H24.4v5.43h2.78q1.79 0 2.71-.65t.92-2.07q0-1.47-.83-2.09-.84-.62-2.6-.62M20.9 40.6h6.48q1.84 0 3.15.35 1.32.35 2.16 1 .83.65 1.22 1.58.39.92.39 2.08 0 .66-.19 1.26-.2.61-.61 1.14-.4.52-1.04.95-.63.43-1.5.73 3.88.87 3.88 4.18 0 1.2-.46 2.21-.45 1.02-1.32 1.75-.87.74-2.15 1.15-1.27.42-2.91.42h-7.1zm30.25 0v2.87h-5.67V59.4h-3.49V43.47h-5.67V40.6zm13.35 1.77-.87 1.65q-.15.27-.33.4-.17.12-.43.12-.28 0-.6-.2-.31-.2-.76-.45-.44-.25-1.03-.45t-1.4-.2q-.73 0-1.27.18-.55.17-.92.48-.37.32-.55.75-.18.44-.18.96 0 .66.37 1.1t.98.76q.61.31 1.39.55.78.25 1.6.53t1.6.65 1.39.94q.61.56.98 1.38t.37 1.99q0 1.27-.43 2.39-.44 1.11-1.28 1.93-.84.83-2.05 1.3-1.2.48-2.76.48-.9 0-1.77-.18-.87-.17-1.67-.5-.8-.32-1.5-.78-.71-.45-1.25-1.01l1.02-1.68q.13-.18.34-.3.21-.13.44-.13.33 0 .71.27.37.26.89.59.52.32 1.22.59.69.27 1.67.27 1.49 0 2.31-.71t.82-2.04q0-.74-.37-1.2-.37-.47-.98-.79t-1.39-.54-1.59-.48q-.8-.26-1.58-.63-.78-.36-1.39-.94-.61-.59-.99-1.47-.37-.87-.37-2.16 0-1.03.41-2 .41-.98 1.19-1.73.78-.76 1.93-1.21 1.14-.46 2.62-.46 1.67 0 3.07.52 1.41.52 2.39 1.46m14.26 0-.87 1.65q-.15.27-.33.4-.17.12-.43.12-.28 0-.59-.2-.32-.2-.77-.45-.44-.25-1.03-.45t-1.4-.2q-.72 0-1.27.18-.55.17-.92.48-.37.32-.55.75-.18.44-.18.96 0 .66.37 1.1t.98.76q.61.31 1.39.55.78.25 1.6.53t1.6.65 1.39.94q.61.56.98 1.38t.37 1.99q0 1.27-.43 2.39-.44 1.11-1.28 1.93-.84.83-2.04 1.3-1.21.48-2.77.48-.9 0-1.77-.18-.87-.17-1.67-.5-.8-.32-1.5-.78-.71-.45-1.25-1.01l1.03-1.68q.13-.18.33-.3.21-.13.45-.13.32 0 .7.27.37.26.89.59.52.32 1.22.59t1.67.27q1.5 0 2.31-.71.82-.71.82-2.04 0-.74-.37-1.2-.37-.47-.98-.79t-1.39-.54-1.59-.48q-.8-.26-1.58-.63-.78-.36-1.39-.94-.61-.59-.98-1.47-.37-.87-.37-2.16 0-1.03.41-2 .4-.98 1.18-1.73.78-.76 1.93-1.21 1.14-.46 2.62-.46 1.67 0 3.07.52 1.41.52 2.39 1.46"/></svg>