<svg xmlns="http://www.w3.org/2000/svg" width="100" height="100" viewBox="0 0 100 100"><rect width="100%" height="100%" fill="#dc2626"/><path fill="#ffffff" d="M24.44 39.515v20.97h-3.92v-20.97zm16.82 1.97-.97 1.85q-.18.3-.37.44-.2.14-.49.14-.3 0-.66-.23-.35-.22-.85-.5-.49-.27-1.15-.5-.66-.22-1.56-.22-.81 0-1.42.19-.61.2-1.02.55-.41.34-.62.83-.2.49-.2 1.07 0 .73.41 1.23.42.49 1.1.84t1.55.62q.87.28 1.78.59.92.31 1.79.72.87.42 1.55 1.05t1.09 1.54q.42.92.42 2.22 0 1.42-.49 2.66-.48 1.24-1.42 2.16t-2.28 1.45q-1.35.53-3.09.53-1 0-1.97-.19-.98-.2-1.87-.56t-1.67-.87q-.79-.51-1.39-1.13l1.14-1.87q.15-.21.38-.34.23-.14.49-.14.36 0 .78.3.42.29 1 .65.58.37 1.36.66.78.3 1.86.3 1.67 0 2.58-.79.92-.79.92-2.27 0-.82-.42-1.35-.41-.52-1.09-.87-.68-.36-1.55-.61-.87-.24-1.77-.53t-1.77-.7q-.87-.4-1.55-1.06-.68-.65-1.1-1.63-.41-.98-.41-2.41 0-1.15.46-2.23.45-1.09 1.32-1.93t2.15-1.35 2.93-.51q1.86 0 3.42.58 1.57.58 2.67 1.62m7.67 8.57h2.91q1.08 0 1.88-.26.79-.27 1.32-.77t.79-1.22.26-1.6q0-.84-.26-1.53-.26-.68-.78-1.15-.52-.48-1.32-.74-.8-.25-1.89-.25h-2.91zm-3.9-10.54h6.81q2.11 0 3.64.5 1.54.49 2.54 1.37 1 .89 1.49 2.12.48 1.23.48 2.7 0 1.52-.5 2.79-.51 1.27-1.53 2.18-1.01.91-2.54 1.42t-3.58.51h-2.91v7.38h-3.9zm32.35 16.03q.32 0 .56.24l1.54 1.67q-1.27 1.58-3.14 2.42-1.86.84-4.47.84-2.34 0-4.2-.8-1.86-.79-3.18-2.21-1.32-1.43-2.02-3.4-.71-1.97-.71-4.3 0-2.37.76-4.33.75-1.97 2.12-3.39t3.27-2.21 4.21-.79q2.29 0 4.06.75 1.78.76 3.03 1.98l-1.31 1.81q-.11.17-.3.3-.18.13-.5.13-.21 0-.45-.12-.23-.12-.5-.3-.28-.18-.64-.4t-.84-.4-1.11-.31q-.63-.12-1.46-.12-1.41 0-2.57.5-1.17.5-2.01 1.45t-1.31 2.32q-.46 1.37-.46 3.13 0 1.77.5 3.14.5 1.38 1.36 2.32.85.95 2.01 1.45t2.5.5q.79 0 1.44-.09.64-.09 1.19-.28.54-.19 1.03-.48.48-.3.96-.73.15-.14.31-.21.16-.08.33-.08"/></svg>