<svg xmlns="http://www.w3.org/2000/svg" width="100" height="100" viewBox="0 0 100 100"><rect width="100%" height="100%" fill="#dc2626"/><path fill="#ffffff" d="M45.5 58.79q.51 0 .9.39l2.44 2.64q-2.03 2.51-4.98 3.84Q40.9 67 36.76 67q-3.7 0-6.66-1.27-2.95-1.26-5.04-3.52-2.1-2.25-3.21-5.38-1.12-3.13-1.12-6.83 0-3.75 1.2-6.86 1.19-3.12 3.37-5.37 2.17-2.26 5.18-3.51Q33.5 33 37.15 33q3.64 0 6.46 1.2 2.81 1.2 4.79 3.13l-2.07 2.87q-.18.28-.47.49-.29.2-.79.2-.35 0-.72-.19-.36-.2-.8-.49-.44-.28-1.01-.63-.58-.34-1.34-.63t-1.76-.48q-1-.2-2.31-.2-2.23 0-4.08.79-1.85.8-3.19 2.3-1.33 1.51-2.07 3.68-.73 2.18-.73 4.96 0 2.81.79 4.99.79 2.19 2.15 3.68 1.36 1.5 3.2 2.29t3.95.79q1.27 0 2.29-.13 1.03-.14 1.89-.44t1.63-.77 1.53-1.16q.23-.21.48-.34.26-.12.53-.12m30.43 0q.51 0 .9.39l2.44 2.64q-2.03 2.51-4.98 3.84Q71.33 67 67.19 67q-3.7 0-6.66-1.27-2.95-1.26-5.05-3.52-2.09-2.25-3.2-5.38-1.12-3.13-1.12-6.83 0-3.75 1.2-6.86 1.19-3.12 3.37-5.37 2.17-2.26 5.18-3.51Q63.93 33 67.58 33q3.64 0 6.45 1.2 2.82 1.2 4.8 3.13l-2.07 2.87q-.18.28-.47.49-.29.2-.79.2-.35 0-.72-.19-.37-.2-.8-.49-.44-.28-1.02-.63-.57-.34-1.33-.63t-1.76-.48q-1-.2-2.31-.2-2.23 0-4.08.79-1.85.8-3.19 2.3-1.33 1.51-2.07 3.68-.73 2.18-.73 4.96 0 2.81.79 4.99.79 2.19 2.15 3.68 1.36 1.5 3.2 2.29t3.95.79q1.27 0 2.29-.13 1.02-.14 1.89-.44.86-.3 1.63-.77t1.53-1.16q.23-.21.48-.34.26-.12.53-.12"/></svg>