<svg xmlns="http://www.w3.org/2000/svg" width="100" height="100" viewBox="0 0 100 100"><rect width="100%" height="100%" fill="#dc2626"/><path fill="#ffffff" d="M25.405 56.405h7.51v2.89h-11.01v-18.8h3.5zm32.28-15.91h2.74l-5.83 18.8h-3.16l-4.11-12.84q-.17-.47-.31-1.15-.08.33-.16.61-.08.29-.17.54l-4.15 12.84h-3.17l-5.82-18.8h2.92q.46 0 .76.22.31.21.41.57l3.2 11.25q.11.42.2.9l.21 1.02q.1-.54.22-1.02.13-.48.27-.9l3.69-11.25q.1-.29.41-.54t.75-.25h1.02q.46 0 .75.22.28.22.42.57l3.68 11.25q.28.81.5 1.86.17-1.03.38-1.86l3.19-11.25q.08-.32.4-.55.32-.24.76-.24m12.62 15.98q1.02 0 1.82-.34t1.34-.95q.55-.61.84-1.48t.29-1.95v-11.26h3.5v11.26q0 1.68-.54 3.1t-1.55 2.46q-1 1.03-2.45 1.61-1.44.58-3.25.58-1.82 0-3.26-.58t-2.45-1.61q-1.01-1.04-1.55-2.46t-.54-3.1v-11.26h3.5v11.25q0 1.08.29 1.95.3.87.85 1.49.55.61 1.35.95t1.81.34"/></svg>