<svg xmlns="http://www.w3.org/2000/svg" width="100" height="100" viewBox="0 0 100 100"><rect width="100%" height="100%" fill="#dc2626"/><path fill="#ffffff" d="M24.12 50.05h2.72q1 0 1.74-.25t1.23-.71q.5-.47.74-1.14.24-.66.24-1.49 0-.78-.24-1.41-.24-.64-.73-1.08-.49-.45-1.23-.69-.74-.23-1.75-.23h-2.72zm-3.63-9.81h6.35q1.95 0 3.39.46 1.43.46 2.36 1.28t1.38 1.97.45 2.51q0 1.42-.47 2.6t-1.42 2.03q-.94.85-2.37 1.33-1.42.47-3.32.47h-2.72v6.87h-3.63zm39.84 0h2.85l-6.06 19.52h-3.28l-4.27-13.34q-.17-.48-.32-1.19-.08.34-.17.64-.08.3-.17.55L44.6 59.76h-3.29l-6.05-19.52h3.04q.47 0 .79.22t.42.6l3.32 11.68q.11.43.21.94l.21 1.06q.11-.57.24-1.07t.28-.93l3.83-11.68q.11-.31.43-.56.31-.26.77-.26h1.07q.47 0 .77.23.29.23.44.59l3.82 11.68q.29.84.52 1.93.17-1.07.39-1.93l3.32-11.68q.08-.34.41-.58t.79-.24m8.88 9.81h2.72q1 0 1.74-.25t1.23-.71q.5-.47.74-1.14.24-.66.24-1.49 0-.78-.24-1.41-.24-.64-.73-1.08-.49-.45-1.23-.69-.74-.23-1.75-.23h-2.72zm-3.63-9.81h6.35q1.95 0 3.39.46 1.43.46 2.36 1.28t1.38 1.97.45 2.51q0 1.42-.47 2.6t-1.42 2.03q-.94.85-2.37 1.33-1.42.47-3.32.47h-2.72v6.87h-3.63z"/></svg>