<svg xmlns="http://www.w3.org/2000/svg" width="100" height="100" viewBox="0 0 100 100"><rect width="100%" height="100%" fill="#dc2626"/><path fill="#ffffff" d="m28.815 44.13-.67 1.27q-.12.21-.26.3-.13.1-.33.1-.21 0-.46-.16-.24-.15-.58-.34t-.8-.35q-.45-.15-1.07-.15-.56 0-.98.14-.42.13-.71.37-.28.24-.42.57-.14.34-.14.74 0 .51.28.85.29.34.76.58t1.07.43 1.23.4q.63.22 1.23.51.6.28 1.07.71.47.44.75 1.07.29.63.29 1.53 0 .98-.34 1.84-.33.85-.98 1.48-.64.64-1.57 1-.93.37-2.13.37-.69 0-1.36-.13-.67-.14-1.29-.39-.61-.25-1.15-.6t-.96-.78l.79-1.29q.1-.14.26-.24.16-.09.34-.09.25 0 .54.2.29.21.69.46t.93.45q.54.21 1.29.21 1.15 0 1.78-.54.63-.55.63-1.57 0-.57-.29-.93-.28-.36-.75-.61-.47-.24-1.07-.41t-1.22-.37-1.22-.48-1.07-.73-.76-1.12q-.28-.68-.28-1.67 0-.79.31-1.54.32-.75.92-1.33t1.48-.93 2.02-.35q1.28 0 2.36.4t1.84 1.12M45.205 50q0 1.59-.53 2.94-.52 1.36-1.48 2.35t-2.31 1.54q-1.35.56-3 .56-1.64 0-2.99-.56-1.35-.55-2.32-1.54-.96-.99-1.49-2.35-.53-1.35-.53-2.94t.53-2.95q.53-1.35 1.49-2.34.97-.99 2.32-1.54 1.35-.56 2.99-.56 1.1 0 2.07.25.97.26 1.78.73.81.46 1.45 1.12.65.67 1.1 1.49t.68 1.78q.24.96.24 2.02m-2.75 0q0-1.19-.32-2.14-.32-.94-.91-1.6t-1.44-1.01q-.84-.35-1.9-.35t-1.91.35q-.84.35-1.44 1.01-.59.66-.91 1.6-.32.95-.32 2.14t.32 2.14q.32.94.91 1.59.6.66 1.44 1.01.85.35 1.91.35t1.9-.35q.85-.35 1.44-1.01.59-.65.91-1.59.32-.95.32-2.14m8.16 1.77h4.6l-1.76-4.81q-.13-.32-.27-.76t-.28-.95q-.13.51-.27.95-.14.45-.27.78zm3.67-9 5.68 14.46h-2.08q-.35 0-.57-.18-.22-.17-.33-.43l-1.08-2.95h-5.99l-1.08 2.95q-.08.23-.31.42t-.57.19h-2.1l5.69-14.46zm24.31 0h2.11l-4.49 14.46h-2.43l-3.16-9.88q-.13-.36-.24-.88-.06.25-.12.47t-.13.41l-3.19 9.88h-2.44l-4.48-14.46h2.25q.35 0 .58.17.24.16.32.44l2.46 8.65q.08.32.15.7.08.37.16.78.08-.42.17-.79.1-.37.21-.69l2.84-8.65q.08-.23.31-.42.24-.19.58-.19h.79q.35 0 .57.17t.33.44l2.83 8.65q.21.62.38 1.43.13-.79.29-1.43l2.46-8.65q.06-.25.3-.43.25-.18.59-.18"/></svg>