<svg xmlns="http://www.w3.org/2000/svg" width="100" height="100" viewBox="0 0 100 100"><rect width="100%" height="100%" fill="#dc2626"/><path fill="#ffffff" d="m31.79 42.955-.81 1.52q-.14.26-.3.37t-.4.11q-.26 0-.55-.18-.29-.19-.7-.42-.41-.22-.96-.41-.54-.19-1.29-.19-.67 0-1.17.17-.51.16-.85.45-.34.28-.51.69-.17.4-.17.88 0 .61.35 1.02.34.41.9.69.57.29 1.29.52t1.47.49q.76.25 1.48.6.72.34 1.28.86.57.52.91 1.28.34.75.34 1.83 0 1.18-.4 2.21-.4 1.02-1.18 1.78-.77.77-1.89 1.2-1.11.44-2.55.44-.83 0-1.64-.16-.8-.16-1.54-.46t-1.38-.72q-.65-.42-1.16-.94l.95-1.55q.12-.16.31-.28.2-.11.41-.11.3 0 .65.24.35.25.83.55t1.12.55q.64.24 1.54.24 1.38 0 2.14-.65.75-.66.75-1.88 0-.68-.34-1.12-.34-.43-.9-.72-.57-.3-1.29-.5t-1.46-.44q-.75-.24-1.47-.58t-1.28-.88-.91-1.35q-.34-.81-.34-1.99 0-.95.38-1.85t1.1-1.6q.72-.69 1.77-1.11 1.06-.42 2.43-.42 1.53 0 2.83.48t2.21 1.34m19.67 7.04q0 1.91-.63 3.54-.63 1.62-1.79 2.81-1.15 1.19-2.77 1.86-1.62.66-3.6.66-1.97 0-3.59-.66-1.62-.67-2.77-1.86-1.16-1.19-1.8-2.81-.63-1.63-.63-3.54 0-1.9.63-3.53.64-1.63 1.8-2.81 1.15-1.19 2.77-1.86 1.62-.66 3.59-.66 1.32 0 2.49.3 1.16.31 2.13.87.97.55 1.75 1.35.77.8 1.31 1.78.54.99.82 2.14.29 1.15.29 2.42m-3.3 0q0-1.42-.39-2.56-.38-1.13-1.09-1.92-.71-.8-1.72-1.22-1.02-.42-2.29-.42t-2.28.42q-1.02.42-1.73 1.22-.72.79-1.1 1.92-.38 1.14-.38 2.56 0 1.43.38 2.57.38 1.13 1.1 1.92.71.78 1.73 1.2 1.01.42 2.28.42t2.29-.42q1.01-.42 1.72-1.2.71-.79 1.09-1.92.39-1.14.39-2.57m18.26-8.67v2.65h-5.23v14.7h-3.23v-14.7h-5.23v-2.65zm13.22 2.57h-7.7v4.81h6.07v2.48h-6.07v4.91h7.7v2.58H68.7v-17.35h10.94z"/></svg>