<svg xmlns="http://www.w3.org/2000/svg" width="100" height="100" viewBox="0 0 100 100"><rect width="100%" height="100%" fill="#dc2626"/><path fill="#ffffff" d="M42.365 41.325h2.54l-5.39 17.35h-2.92l-3.79-11.86q-.16-.43-.29-1.05-.07.3-.14.56-.07.27-.16.49l-3.83 11.86h-2.92l-5.38-17.35h2.7q.42 0 .7.2.28.19.38.53l2.95 10.38q.1.38.19.83t.18.95q.1-.51.21-.95.12-.45.25-.83l3.41-10.38q.09-.28.38-.5.28-.23.69-.23h.94q.42 0 .69.2.26.21.39.53l3.4 10.38q.25.74.46 1.72.15-.95.34-1.72l2.96-10.38q.07-.3.36-.52.3-.21.7-.21m20.08 8.67q0 1.91-.64 3.51-.63 1.59-1.78 2.75-1.16 1.15-2.78 1.78-1.62.64-3.6.64h-6.61v-17.35h6.61q1.98 0 3.6.64t2.78 1.79q1.15 1.14 1.78 2.74.64 1.6.64 3.5m-3.31 0q0-1.42-.38-2.56-.38-1.13-1.09-1.92-.72-.78-1.73-1.2t-2.29-.42h-3.37v12.21h3.37q1.28 0 2.29-.42t1.73-1.2q.71-.79 1.09-1.92.38-1.14.38-2.57m17.94-8.67h2.84v17.35h-1.65q-.39 0-.65-.13-.25-.12-.49-.42l-9.06-11.57q.07.79.07 1.46v10.66h-2.85v-17.35h1.7q.2 0 .35.02.15.01.26.07.12.05.23.15.1.11.24.27l9.09 11.62-.06-.83q-.02-.41-.02-.75z"/></svg>