<svg xmlns="http://www.w3.org/2000/svg" width="100" height="100" viewBox="0 0 100 100"><rect width="100%" height="100%" fill="#dc2626"/><path fill="#ffffff" d="M27.26 52.39h6.21l-2.38-6.49q-.17-.44-.36-1.03t-.38-1.28q-.18.69-.36 1.29-.19.6-.37 1.04zm4.95-12.15 7.67 19.52h-2.81q-.47 0-.77-.24-.29-.23-.44-.58l-1.46-3.99h-8.09l-1.45 3.99q-.11.31-.42.56-.31.26-.77.26h-2.84l7.68-19.52zm22.51 0h3.64v19.52h-3.64v-8.53h-9.17v8.53h-3.64V40.24h3.64v8.4h9.17zm21.25 0h3.2v19.52H77.3q-.43 0-.72-.14t-.56-.48L65.83 46.13q.08.89.08 1.64v11.99h-3.2V40.24h1.9q.23 0 .4.02t.3.08.25.18q.12.11.27.3l10.23 13.07q-.04-.47-.07-.93-.02-.46-.02-.85z"/></svg>