<svg xmlns="http://www.w3.org/2000/svg" width="100" height="100" viewBox="0 0 100 100"><rect width="100%" height="100%" fill="#dc2626"/><path fill="#ffffff" d="M41.375 55.435q.42 0 .74.32l2.02 2.19q-1.67 2.07-4.12 3.17-2.44 1.1-5.86 1.1-3.06 0-5.5-1.04-2.44-1.05-4.17-2.91t-2.65-4.44q-.92-2.59-.92-5.65 0-3.09.99-5.67.99-2.57 2.78-4.43 1.8-1.87 4.29-2.9 2.49-1.04 5.51-1.04 3 0 5.33.99 2.32.99 3.96 2.58l-1.71 2.38q-.15.23-.39.4t-.66.17q-.28 0-.59-.16-.3-.16-.66-.4t-.84-.52q-.47-.29-1.1-.53-.63-.23-1.45-.4-.83-.16-1.91-.16-1.85 0-3.37.66-1.53.65-2.64 1.9-1.1 1.24-1.71 3.04-.6 1.79-.6 4.09 0 2.32.65 4.13.66 1.8 1.78 3.04 1.12 1.23 2.64 1.89 1.52.65 3.27.65 1.04 0 1.89-.11.84-.12 1.55-.36.72-.25 1.35-.64.64-.39 1.27-.96.19-.17.4-.27.21-.11.43-.11m25.14 0q.42 0 .74.32l2.02 2.19q-1.68 2.07-4.12 3.17t-5.86 1.1q-3.06 0-5.5-1.04-2.44-1.05-4.17-2.91t-2.65-4.44q-.92-2.59-.92-5.65 0-3.09.99-5.67.98-2.57 2.78-4.43 1.79-1.87 4.28-2.9 2.49-1.04 5.51-1.04 3.01 0 5.33.99 2.33.99 3.96 2.58l-1.71 2.38q-.15.23-.39.4-.23.17-.65.17-.29 0-.59-.16t-.66-.4q-.37-.24-.84-.52-.48-.29-1.1-.53-.63-.23-1.46-.4-.82-.16-1.91-.16-1.84 0-3.37.66-1.53.65-2.63 1.9-1.1 1.24-1.71 3.04-.61 1.79-.61 4.09 0 2.32.66 4.13.65 1.8 1.77 3.04 1.13 1.23 2.65 1.89 1.52.65 3.26.65 1.05 0 1.89-.11.85-.12 1.56-.36.71-.25 1.35-.64t1.26-.96q.19-.17.4-.27.21-.11.44-.11m8.66-5.43q0 3.91.95 7.69t2.72 7.11q.19.38.22.67.03.3-.05.52-.07.21-.23.38-.17.16-.36.27l-2.09 1.27q-1.4-2.16-2.39-4.35-.99-2.18-1.62-4.4-.62-2.23-.92-4.51-.29-2.28-.29-4.65 0-2.38.29-4.67.3-2.29.92-4.51.63-2.22 1.62-4.4.99-2.17 2.39-4.34l2.09 1.25q.19.12.36.28.16.16.23.38.08.22.05.51-.03.3-.22.7-1.77 3.3-2.72 7.09t-.95 7.71"/></svg>