<svg xmlns="http://www.w3.org/2000/svg" width="100" height="100" viewBox="0 0 100 100"><rect width="100%" height="100%" fill="#dc2626"/><path fill="#ffffff" d="M38.67 50.005q0 2.3-.77 4.23t-2.16 3.32q-1.4 1.39-3.35 2.16-1.96.77-4.35.77h-7.99v-20.97h7.99q2.39 0 4.35.78 1.95.77 3.35 2.16 1.39 1.38 2.16 3.31t.77 4.24m-4.01 0q0-1.73-.45-3.1-.46-1.37-1.32-2.32-.87-.95-2.09-1.46-1.23-.5-2.76-.5h-4.08v14.76h4.08q1.53 0 2.76-.51 1.22-.51 2.09-1.46.86-.95 1.32-2.32.45-1.37.45-3.09M46 39.515v8.79h.92q.55 0 .91-.15t.62-.49l5.79-7.32q.36-.46.76-.65.4-.18 1.01-.18h3.36l-7.06 8.72q-.62.79-1.29 1.13.48.17.86.48.39.32.73.82l7.28 9.82h-3.43q-.7 0-1.04-.2-.34-.19-.57-.57l-5.93-7.74q-.28-.39-.64-.55t-1.05-.16H46v9.22h-3.9v-20.97zm20.39 13.05h6.67l-2.55-6.97q-.19-.47-.39-1.1-.21-.64-.41-1.38-.19.74-.39 1.38-.2.65-.39 1.13zm5.32-13.05 8.24 20.97h-3.02q-.51 0-.83-.25-.31-.26-.47-.63l-1.57-4.28h-8.69l-1.56 4.28q-.12.33-.45.6-.33.28-.83.28h-3.04l8.25-20.97z"/></svg>