<svg xmlns="http://www.w3.org/2000/svg" width="100" height="100" viewBox="0 0 100 100"><rect width="100%" height="100%" fill="#dc2626"/><path fill="#ffffff" d="M39.2 50q0 2.22-.74 4.09-.75 1.86-2.09 3.2-1.34 1.35-3.23 2.09t-4.2.74h-7.72V39.88h7.72q2.31 0 4.2.74 1.89.75 3.23 2.09t2.09 3.2q.74 1.86.74 4.09m-3.86 0q0-1.67-.45-2.99-.44-1.32-1.27-2.24t-2.02-1.41q-1.18-.49-2.66-.49H25v14.25h3.94q1.48 0 2.66-.49 1.19-.49 2.02-1.4.83-.92 1.27-2.24.45-1.33.45-2.99m10.94-10.12v8.48h.89q.53 0 .88-.15.35-.14.6-.47l5.59-7.07q.35-.44.73-.62.39-.17.97-.17h3.25l-6.82 8.41q-.6.77-1.24 1.09.46.17.83.47t.71.79l7.03 9.48h-3.32q-.67 0-1-.19t-.56-.55L49.1 51.9q-.27-.38-.62-.53t-1.01-.15h-1.19v8.9h-3.76V39.88zm28.72 0h3.78v20.24H75v-8.85h-9.51v8.85h-3.78V39.88h3.78v8.7H75z"/></svg>