<svg xmlns="http://www.w3.org/2000/svg" width="100" height="100" viewBox="0 0 100 100"><rect width="100%" height="100%" fill="#dc2626"/><path fill="#ffffff" d="M40.8 49.995q0 2.47-.82 4.53t-2.31 3.55-3.58 2.31-4.65.82H20.9v-22.41h8.54q2.56 0 4.65.83t3.58 2.31 2.31 3.54.82 4.52m-4.28 0q0-1.84-.48-3.31-.49-1.46-1.41-2.48-.93-1.01-2.24-1.55-1.31-.55-2.95-.55h-4.35v15.78h4.35q1.64 0 2.95-.54t2.24-1.56q.92-1.01 1.41-2.48.48-1.46.48-3.31m12.13-11.2v9.39h.97q.59 0 .98-.16.39-.17.67-.52l6.18-7.83q.39-.5.81-.69.43-.19 1.08-.19h3.6l-7.55 9.31q-.67.86-1.38 1.21.51.19.92.52t.78.88l7.78 10.49h-3.67q-.74 0-1.11-.21-.36-.21-.61-.61l-6.34-8.28q-.29-.42-.68-.59t-1.12-.17h-1.31v9.86h-4.17v-22.41zm30.05 2.11-1.04 1.96q-.18.33-.39.48-.21.14-.52.14-.33 0-.71-.24t-.9-.53q-.53-.3-1.24-.54-.7-.24-1.66-.24-.87 0-1.52.21t-1.1.58q-.44.38-.65.9-.22.51-.22 1.13 0 .8.44 1.32.44.53 1.17.9t1.66.67q.93.29 1.91.63.97.33 1.9.77t1.66 1.12q.73.67 1.17 1.65.44.97.44 2.37 0 1.52-.52 2.84-.52 1.33-1.52 2.31-.99.99-2.44 1.55-1.44.57-3.3.57-1.07 0-2.11-.21-1.03-.21-1.99-.6-.95-.39-1.79-.93-.83-.54-1.49-1.21l1.23-2q.15-.21.4-.36t.53-.15q.39 0 .84.32t1.07.71q.62.38 1.44.7.83.32 2 .32 1.78 0 2.76-.85.97-.84.97-2.42 0-.89-.44-1.44-.44-.56-1.17-.94t-1.66-.65q-.93-.26-1.89-.57t-1.89-.74q-.93-.44-1.66-1.13-.73-.7-1.17-1.75-.44-1.04-.44-2.58 0-1.22.49-2.39.49-1.16 1.42-2.06t2.29-1.44 3.13-.54q1.98 0 3.66.62 1.67.62 2.85 1.74"/></svg>