<svg xmlns="http://www.w3.org/2000/svg" width="100" height="100" viewBox="0 0 100 100"><rect width="100%" height="100%" fill="#dc2626"/><path fill="#ffffff" d="M38.67 50.005q0 2.3-.77 4.23t-2.16 3.32q-1.4 1.39-3.35 2.16-1.96.77-4.35.77h-7.99v-20.97h7.99q2.39 0 4.35.78 1.95.77 3.35 2.16 1.39 1.38 2.16 3.31t.77 4.24m-4.01 0q0-1.73-.45-3.1-.46-1.37-1.32-2.32-.87-.95-2.09-1.46-1.23-.5-2.76-.5h-4.08v14.76h4.08q1.53 0 2.76-.51 1.22-.51 2.09-1.46.86-.95 1.32-2.32.45-1.37.45-3.09M46 39.515v8.79h.92q.55 0 .91-.15t.62-.49l5.79-7.32q.36-.46.76-.65.4-.18 1.01-.18h3.36l-7.06 8.72q-.62.79-1.29 1.13.48.17.86.48.39.32.73.82l7.28 9.82h-3.43q-.7 0-1.04-.2-.34-.19-.57-.57l-5.93-7.74q-.28-.39-.64-.55t-1.05-.16H46v9.22h-3.9v-20.97zm30.8 0h3.15l-8.47 20.97h-3.52l-8.47-20.97h3.13q.51 0 .83.25.31.25.47.64l4.95 12.79q.25.62.47 1.37.22.74.43 1.56.17-.82.37-1.56.21-.75.45-1.37l4.92-12.79q.12-.34.46-.61.34-.28.83-.28"/></svg>