<svg xmlns="http://www.w3.org/2000/svg" width="100" height="100" viewBox="0 0 100 100"><rect width="100%" height="100%" fill="#dc2626"/><path fill="#ffffff" d="M34.595 50.005q0 1.82-.61 3.35t-1.72 2.64q-1.1 1.1-2.65 1.71t-3.45.61h-6.34v-16.63h6.34q1.9 0 3.45.62 1.55.61 2.65 1.71 1.11 1.1 1.72 2.63t.61 3.36m-3.18 0q0-1.37-.36-2.46t-1.05-1.84q-.68-.75-1.65-1.16-.97-.4-2.19-.4h-3.23v11.71h3.23q1.22 0 2.19-.4.97-.41 1.65-1.16.69-.75 1.05-1.84t.36-2.45m17.52-8.32v2.54h-5.02v14.09h-3.09v-14.09h-5.01v-2.54zm5.68 10.35h5.29l-2.02-5.53q-.15-.37-.32-.87-.16-.51-.32-1.1-.15.59-.31 1.1t-.31.89zm4.22-10.35 6.53 16.63h-2.39q-.4 0-.66-.2-.25-.2-.38-.5l-1.24-3.39h-6.89l-1.24 3.39q-.09.26-.35.48-.27.22-.66.22h-2.41l6.54-16.63zm19.68 12.71q.25 0 .44.19l1.22 1.33q-1.01 1.25-2.49 1.92-1.47.66-3.54.66-1.86 0-3.33-.63-1.48-.63-2.53-1.76-1.04-1.12-1.6-2.69-.56-1.56-.56-3.41 0-1.88.6-3.44t1.68-2.68q1.09-1.13 2.6-1.76 1.5-.62 3.33-.62 1.82 0 3.23.6 1.41.59 2.4 1.56l-1.04 1.44q-.09.13-.24.24-.14.1-.39.1-.17 0-.36-.1-.18-.09-.4-.24-.22-.14-.51-.31-.28-.18-.66-.32t-.88-.24-1.16-.1q-1.12 0-2.04.4-.93.39-1.59 1.15-.67.75-1.04 1.84-.37 1.08-.37 2.48t.4 2.49 1.08 1.84q.67.75 1.59 1.15.92.39 1.98.39.63 0 1.15-.07.51-.07.94-.22t.82-.38q.38-.24.76-.58.12-.1.24-.17.13-.06.27-.06"/></svg>