<svg xmlns="http://www.w3.org/2000/svg" width="100" height="100" viewBox="0 0 100 100"><rect width="100%" height="100%" fill="#dc2626"/><path fill="#ffffff" d="M31.405 43.635h-8.02v5.01h6.32v2.59h-6.32v5.11h8.02v2.69h-11.4v-18.07h11.4zm6.34-2.67v7.57h.79q.47 0 .78-.13.32-.13.54-.42l4.99-6.31q.31-.4.66-.56.34-.15.86-.15h2.9l-6.08 7.51q-.54.68-1.12.97.42.15.75.42t.63.71l6.27 8.46h-2.96q-.6 0-.89-.17-.3-.17-.5-.49l-5.11-6.68q-.24-.34-.55-.47-.31-.14-.9-.14h-1.06v7.95h-3.36v-18.07zm17.14 15.29h7.22v2.78h-10.59v-18.07h3.37zm13.42-4.05h5.75l-2.2-6.01q-.16-.4-.34-.95-.17-.55-.35-1.19-.16.64-.33 1.2-.18.55-.34.97zm4.59-11.24 7.1 18.07h-2.6q-.44 0-.71-.22-.28-.22-.42-.54l-1.35-3.69h-7.48l-1.35 3.69q-.1.28-.39.52t-.71.24h-2.63l7.11-18.07z"/></svg>