<svg xmlns="http://www.w3.org/2000/svg" width="100" height="100" viewBox="0 0 100 100"><rect width="100%" height="100%" fill="#dc2626"/><path fill="#ffffff" d="M32.035 43.64h-8.02v5.01h6.32v2.59h-6.32v5.11h8.02v2.69h-11.4V40.97h11.4zm6.34-2.67v7.57h.79q.47 0 .79-.13.31-.13.53-.42l4.99-6.31q.31-.4.66-.56.34-.15.87-.15h2.9l-6.09 7.51q-.54.68-1.11.97.41.15.74.42t.63.71l6.28 8.46h-2.97q-.6 0-.89-.17t-.49-.49l-5.12-6.68q-.23-.34-.55-.47-.31-.14-.9-.14h-1.06v7.95h-3.36V40.97zm17.14 15.29h7.22v2.78h-10.58V40.97h3.36zm22.04-1.48q.27 0 .48.21l1.33 1.44q-1.1 1.36-2.71 2.08-1.6.73-3.85.73-2.02 0-3.62-.69-1.61-.69-2.75-1.91-1.13-1.23-1.74-2.93t-.61-3.71q0-2.04.65-3.73t1.84-2.92q1.18-1.22 2.81-1.9 1.64-.69 3.63-.69 1.97 0 3.51.65 1.53.65 2.6 1.7l-1.12 1.57q-.1.15-.26.26t-.43.11q-.19 0-.39-.1-.2-.11-.44-.27-.23-.15-.55-.34-.31-.19-.72-.34-.41-.16-.96-.27-.54-.1-1.25-.1-1.22 0-2.22.43-1.01.43-1.73 1.25-.73.82-1.13 2t-.4 2.69q0 1.53.43 2.71.43 1.19 1.17 2 .74.82 1.74 1.25t2.15.43q.69 0 1.24-.08.56-.07 1.03-.23.47-.17.88-.42.42-.26.84-.63.12-.12.26-.18.14-.07.29-.07"/></svg>