<svg xmlns="http://www.w3.org/2000/svg" width="100" height="100" viewBox="0 0 100 100"><rect width="100%" height="100%" fill="#dc2626"/><path fill="#ffffff" d="M24.15 40.6v7.88h.82q.5 0 .82-.14.33-.13.56-.43l5.19-6.57q.32-.41.68-.58.36-.16.9-.16h3.02l-6.33 7.81q-.56.72-1.16 1.02.43.15.77.43.35.28.66.74l6.53 8.8h-3.08q-.63 0-.93-.18-.31-.17-.52-.51l-5.31-6.94q-.25-.35-.58-.5-.32-.14-.93-.14h-1.11v8.27h-3.49V40.6zm27.24 14.37q.28 0 .5.22l1.38 1.49q-1.14 1.42-2.81 2.17-1.67.76-4.01.76-2.1 0-3.77-.72-1.67-.71-2.85-1.99-1.18-1.27-1.81-3.04T37.39 50q0-2.12.67-3.88.68-1.76 1.91-3.04 1.23-1.27 2.93-1.98t3.77-.71q2.05 0 3.65.68 1.59.68 2.71 1.77l-1.17 1.62q-.11.16-.27.28-.16.11-.45.11-.19 0-.4-.11t-.46-.27q-.24-.16-.57-.36-.32-.19-.75-.36-.43-.16-1-.27-.56-.11-1.3-.11-1.27 0-2.31.45-1.05.45-1.8 1.3-.76.85-1.17 2.08-.42 1.23-.42 2.8 0 1.59.45 2.82.45 1.24 1.22 2.08.76.85 1.8 1.3 1.04.44 2.24.44.71 0 1.29-.07.58-.08 1.07-.25t.92-.44q.44-.26.87-.65.13-.12.27-.19t.3-.07m7.8-14.37v18.8h-3.51V40.6zm7.69 0v7.88h.82q.5 0 .82-.14.33-.13.56-.43l5.19-6.57q.32-.41.68-.58.36-.16.9-.16h3.02l-6.33 7.81q-.56.72-1.16 1.02.43.15.78.43.34.28.65.74l6.53 8.8h-3.08q-.63 0-.93-.18-.31-.17-.52-.51l-5.31-6.94q-.25-.35-.58-.5-.32-.14-.93-.14h-1.11v8.27h-3.49V40.6z"/></svg>