<svg xmlns="http://www.w3.org/2000/svg" width="100" height="100" viewBox="0 0 100 100"><rect width="100%" height="100%" fill="#dc2626"/><path fill="#ffffff" d="M26.505 35.665v10.61h1.1q.66 0 1.1-.18.44-.19.75-.59l6.99-8.84q.43-.56.91-.78.49-.22 1.22-.22h4.06l-8.52 10.52q-.75.96-1.56 1.37.58.21 1.04.58.47.38.89.99l8.78 11.85h-4.15q-.84 0-1.25-.24-.41-.23-.69-.69l-7.16-9.34q-.33-.48-.77-.67-.43-.19-1.26-.19h-1.48v11.13h-4.71v-25.31zm41.75 12.66q0 2.78-.93 5.11-.92 2.32-2.6 4t-4.05 2.61q-2.36.93-5.25.93h-9.64v-25.31h9.64q2.89 0 5.25.94 2.37.94 4.05 2.61t2.6 4q.93 2.32.93 5.11m-4.83 0q0-2.09-.55-3.74t-1.59-2.8-2.52-1.76-3.34-.61h-4.91v17.81h4.91q1.86 0 3.34-.61t2.52-1.76q1.04-1.14 1.59-2.8.55-1.65.55-3.73m11.18 1.68q0 3.6.88 7.08.87 3.49 2.5 6.55.18.35.2.62.03.27-.04.47-.07.21-.22.35-.15.15-.32.26l-1.93 1.17q-1.29-1.99-2.2-4.01-.91-2.01-1.49-4.06t-.85-4.15-.27-4.28q0-2.19.27-4.3t.85-4.16q.58-2.04 1.49-4.05.91-2 2.2-4l1.93 1.16q.17.1.32.25t.22.35.04.48q-.02.27-.2.63-1.63 3.05-2.5 6.54-.88 3.49-.88 7.1"/></svg>