<svg xmlns="http://www.w3.org/2000/svg" width="100" height="100" viewBox="0 0 100 100"><rect width="100%" height="100%" fill="#dc2626"/><path fill="#ffffff" d="M28.555 33.37v13.94h1.45q.87 0 1.44-.24.58-.24.99-.77l9.18-11.62q.58-.73 1.21-1.02t1.6-.29h5.33l-11.2 13.83q-.99 1.26-2.05 1.79.76.28 1.37.77t1.16 1.3l11.55 15.57h-5.45q-1.1 0-1.65-.31-.54-.31-.9-.91l-9.41-12.28q-.44-.62-1.01-.88-.58-.25-1.66-.25h-1.95v14.63h-6.19V33.37zm31.53 16.72h4.62q1.7 0 2.97-.42 1.26-.43 2.1-1.22.84-.8 1.26-1.93.41-1.14.41-2.55 0-1.33-.41-2.41-.42-1.08-1.24-1.84-.83-.76-2.1-1.16-1.26-.4-2.99-.4h-4.62zm-6.19-16.72h10.81q3.34 0 5.78.78 2.43.79 4.02 2.19t2.36 3.36q.77 1.95.77 4.27 0 2.42-.81 4.43-.8 2.02-2.41 3.46-1.61 1.45-4.04 2.26-2.42.8-5.67.8h-4.62v11.71h-6.19z"/></svg>