<svg xmlns="http://www.w3.org/2000/svg" width="100" height="100" viewBox="0 0 100 100"><rect width="100%" height="100%" fill="#dc2626"/><path fill="#ffffff" d="M30.435 42.41h2.49v15.18h-1.45q-.33 0-.56-.11t-.44-.37l-7.92-10.13q.06.7.06 1.29v9.32h-2.49V42.41h1.48q.18 0 .31.01.13.02.23.07.1.04.2.13.09.09.21.24l7.95 10.16q-.03-.37-.05-.72-.02-.36-.02-.66zM49.785 50q0 1.67-.55 3.06-.56 1.4-1.57 2.41t-2.42 1.56q-1.42.56-3.15.56h-5.79V42.41h5.79q1.73 0 3.15.56 1.41.56 2.42 1.56 1.01 1.01 1.57 2.4.55 1.4.55 3.07m-2.89 0q0-1.25-.34-2.24-.33-1-.95-1.68-.63-.69-1.51-1.06-.89-.37-2-.37h-2.95v10.69h2.95q1.11 0 2-.36.88-.37 1.51-1.06.62-.69.95-1.68.34-.99.34-2.24m8.57 1.86h4.83l-1.84-5.05q-.14-.34-.29-.8-.14-.46-.29-1-.14.54-.29 1-.14.47-.28.82zm3.86-9.45 5.96 15.18h-2.18q-.37 0-.6-.18-.23-.19-.35-.46l-1.13-3.1h-6.29l-1.14 3.1q-.08.24-.32.44t-.6.2h-2.2l5.97-15.18zm10.73 9.45h4.83l-1.85-5.05q-.14-.34-.28-.8-.15-.46-.3-1-.13.54-.28 1-.15.47-.28.82zm3.85-9.45 5.97 15.18h-2.19q-.37 0-.6-.18-.23-.19-.34-.46l-1.14-3.1h-6.29l-1.13 3.1q-.08.24-.33.44-.24.2-.59.2h-2.21l5.97-15.18z"/></svg>