<svg xmlns="http://www.w3.org/2000/svg" width="100" height="100" viewBox="0 0 100 100"><rect width="100%" height="100%" fill="#dc2626"/><path fill="#ffffff" d="M42.115 35.18h4.86v29.64h-2.83q-.65 0-1.09-.22-.44-.21-.85-.72l-15.48-19.77q.12 1.36.12 2.51v18.2h-4.86V35.18h2.89q.35 0 .61.03.25.03.45.12.19.09.38.27.18.17.41.46l15.54 19.84q-.06-.71-.11-1.41-.04-.7-.04-1.29zm26.06 14.78h9.84v11.99q-2.26 1.66-4.81 2.43t-5.46.77q-3.63 0-6.57-1.13t-5.02-3.14q-2.09-2.01-3.21-4.79-1.13-2.79-1.13-6.09 0-3.34 1.09-6.13 1.08-2.79 3.08-4.8t4.85-3.11q2.85-1.11 6.4-1.11 1.8 0 3.37.29 1.57.28 2.91.79 1.34.5 2.45 1.21 1.11.72 2.03 1.58l-1.58 2.5q-.37.6-.96.73-.6.14-1.3-.3-.67-.38-1.35-.77-.67-.39-1.5-.68-.84-.29-1.87-.47-1.04-.19-2.39-.19-2.19 0-3.97.74-1.77.74-3.02 2.11-1.25 1.38-1.93 3.3-.67 1.93-.67 4.31 0 2.54.73 4.54.72 2 2.05 3.38 1.32 1.39 3.18 2.11 1.87.73 4.16.73 1.64 0 2.94-.35 1.29-.35 2.52-.94V54.1h-3.73q-.54 0-.83-.3-.3-.3-.3-.73z"/></svg>