<svg xmlns="http://www.w3.org/2000/svg" width="100" height="100" viewBox="0 0 100 100"><rect width="100%" height="100%" fill="#dc2626"/><path fill="#ffffff" d="M28.4 50.09h4.73q1.74 0 3.03-.43 1.29-.44 2.15-1.25t1.28-1.97.42-2.6q0-1.36-.42-2.46-.42-1.11-1.27-1.89-.85-.77-2.14-1.18t-3.05-.41H28.4zm-6.32-17.08h11.05q3.4 0 5.9.8 2.49.8 4.11 2.23t2.41 3.43q.78 2 .78 4.37 0 2.47-.82 4.53-.82 2.05-2.47 3.53-1.64 1.48-4.12 2.31-2.48.82-5.79.82H28.4v11.96h-6.32zm52.43 25.97q.52 0 .92.4l2.49 2.7q-2.07 2.56-5.09 3.92-3.02 1.37-7.25 1.37-3.78 0-6.8-1.3-3.02-1.29-5.16-3.59-2.14-2.31-3.28-5.5-1.14-3.2-1.14-6.98 0-3.83 1.22-7.02 1.22-3.18 3.45-5.48 2.22-2.31 5.29-3.59 3.08-1.28 6.82-1.28 3.71 0 6.59 1.23 2.88 1.22 4.9 3.19l-2.11 2.94q-.19.28-.49.49-.29.21-.81.21-.35 0-.72-.2-.38-.2-.83-.49-.44-.29-1.03-.65-.59-.35-1.36-.64-.78-.3-1.8-.5t-2.36-.2q-2.28 0-4.17.82-1.9.81-3.26 2.35-1.36 1.53-2.11 3.76-.76 2.22-.76 5.06 0 2.87.81 5.1t2.2 3.76 3.27 2.34 4.04.81q1.29 0 2.34-.14 1.04-.14 1.93-.45.88-.31 1.66-.79.79-.48 1.57-1.18.23-.21.49-.34t.54-.13"/></svg>