<svg xmlns="http://www.w3.org/2000/svg" width="100" height="100" viewBox="0 0 100 100"><rect width="100%" height="100%" fill="#dc2626"/><path fill="#ffffff" d="M37.87 50.095h5.03q1.85 0 3.22-.46 1.38-.46 2.29-1.32.91-.87 1.36-2.1.45-1.24.45-2.77 0-1.45-.45-2.62-.45-1.18-1.35-2-.9-.83-2.27-1.26-1.38-.44-3.25-.44h-5.03zm-6.72-18.17H42.9q3.62 0 6.27.85t4.38 2.37q1.72 1.53 2.56 3.65.84 2.13.84 4.65 0 2.63-.88 4.82-.87 2.18-2.62 3.76-1.75 1.57-4.39 2.45-2.64.87-6.16.87h-5.03v12.73h-6.72zm37.7 0v36.15H62.1v-36.15z"/></svg>