<svg xmlns="http://www.w3.org/2000/svg" width="100" height="100" viewBox="0 0 100 100"><rect width="100%" height="100%" fill="#dc2626"/><path fill="#ffffff" d="M27.305 48.16h4.02q1.48 0 2.58-.37t1.83-1.06 1.09-1.68.36-2.21q0-1.16-.36-2.1t-1.08-1.6-1.82-1.01-2.6-.35h-4.02zm-5.38-14.54h9.4q2.9 0 5.02.68t3.5 1.9 2.05 2.92.67 3.72q0 2.1-.7 3.85t-2.1 3.01-3.51 1.96-4.93.7h-4.02v10.18h-5.38zm30.14 14.54h4.02q1.48 0 2.58-.37t1.83-1.06 1.09-1.68.36-2.21q0-1.16-.36-2.1t-1.08-1.6-1.82-1.01-2.6-.35h-4.02zm-5.38-14.54h9.4q2.9 0 5.02.68t3.5 1.9 2.05 2.92.67 3.72q0 2.1-.7 3.85t-2.1 3.01-3.51 1.96-4.93.7h-4.02v10.18h-5.38zM73.965 50q0 4.12 1 8.1t2.86 7.48q.2.4.23.71t-.05.54-.25.4-.37.29l-2.2 1.34q-1.48-2.28-2.52-4.58t-1.7-4.64-.97-4.74-.31-4.9.31-4.91.97-4.75 1.7-4.63 2.52-4.57l2.2 1.32q.2.12.37.29t.25.4.05.54-.23.73q-1.86 3.48-2.86 7.47t-1 8.11"/></svg>