<svg xmlns="http://www.w3.org/2000/svg" width="100" height="100" viewBox="0 0 100 100"><rect width="100%" height="100%" fill="#dc2626"/><path fill="#ffffff" d="M28.78 50.095h4.93q1.81 0 3.16-.45t2.24-1.3q.9-.84 1.34-2.06.44-1.21.44-2.7 0-1.42-.44-2.58-.44-1.15-1.33-1.96-.88-.8-2.23-1.23-1.34-.43-3.18-.43h-4.93zm-6.59-17.81h11.52q3.55 0 6.15.84 2.59.83 4.29 2.32 1.69 1.5 2.51 3.58t.82 4.56q0 2.57-.86 4.71-.86 2.15-2.57 3.69-1.72 1.54-4.3 2.4-2.59.86-6.04.86h-4.93v12.47h-6.59zm36.93 17.81h4.92q1.81 0 3.16-.45t2.24-1.3q.9-.84 1.34-2.06.44-1.21.44-2.7 0-1.42-.44-2.58-.44-1.15-1.33-1.96-.88-.8-2.23-1.23-1.34-.43-3.18-.43h-4.92zm-6.6-17.81h11.52q3.55 0 6.15.84 2.6.83 4.29 2.32 1.69 1.5 2.51 3.58t.82 4.56q0 2.57-.86 4.71-.86 2.15-2.57 3.69-1.72 1.54-4.3 2.4-2.59.86-6.04.86h-4.92v12.47h-6.6z"/></svg>