<svg xmlns="http://www.w3.org/2000/svg" width="100" height="100" viewBox="0 0 100 100"><rect width="100%" height="100%" fill="#dc2626"/><path fill="#ffffff" d="M25.66 49.385h2.94q1.33 0 2.32-.33t1.63-.92q.64-.58.95-1.39.32-.8.32-1.77 0-1.92-1.27-2.95-1.27-1.04-3.88-1.04h-3.01zm8.72 3.92 6.33 9.35h-4.25q-1.21 0-1.75-.95l-5.32-8.1q-.3-.45-.66-.65-.35-.19-1.05-.19h-2.02v9.89h-4.7v-25.31h7.71q2.58 0 4.42.54 1.85.53 3.03 1.49 1.18.97 1.74 2.31.56 1.33.56 2.94 0 1.28-.38 2.42-.37 1.14-1.08 2.06-.71.93-1.75 1.63t-2.37 1.1q.45.27.84.63.38.35.7.84m13.81-15.96v25.31h-4.73v-25.31zm10.37 0v25.31h-4.72v-25.31zm10.36 21.42h10.12v3.89H64.22v-25.31h4.7z"/></svg>