<svg xmlns="http://www.w3.org/2000/svg" width="100" height="100" viewBox="0 0 100 100"><rect width="100%" height="100%" fill="#dc2626"/><path fill="#ffffff" d="m28.355 44.42-.64 1.21q-.11.2-.24.29t-.32.09q-.2 0-.43-.15-.23-.14-.56-.32-.32-.18-.75-.33t-1.02-.15q-.53 0-.93.13t-.67.36q-.27.22-.41.54-.13.32-.13.7 0 .48.27.81.27.32.72.55.44.23 1.01.41t1.17.38q.6.21 1.17.48t1.02.68q.44.41.72 1.01.27.6.27 1.46 0 .93-.32 1.74t-.93 1.42q-.62.6-1.5.95-.88.34-2.02.34-.66 0-1.3-.13-.63-.12-1.22-.36-.58-.24-1.09-.57-.52-.33-.92-.74l.76-1.23q.09-.13.24-.22t.33-.09q.23 0 .51.19.27.2.65.44.38.23.89.43.51.19 1.22.19 1.1 0 1.69-.52.6-.51.6-1.48 0-.54-.27-.89-.27-.34-.72-.57-.44-.23-1.01-.39-.57-.17-1.16-.36t-1.16-.45q-.57-.27-1.02-.7-.44-.42-.71-1.06-.27-.65-.27-1.59 0-.75.29-1.46.3-.71.87-1.26t1.41-.89q.84-.33 1.92-.33 1.21 0 2.24.38t1.75 1.06m5.02-1.29v5.76h.6q.36 0 .6-.1t.41-.32l3.79-4.8q.24-.3.5-.42t.66-.12h2.2l-4.62 5.71q-.41.53-.85.74.31.12.57.32.25.21.48.54l4.77 6.43h-2.26q-.45 0-.68-.13-.22-.13-.37-.37l-3.89-5.08q-.18-.25-.41-.36-.24-.1-.69-.1h-.81v6.04h-2.55V43.13zm17.24 6.85h4.56v5.56q-1.05.77-2.23 1.13-1.18.35-2.53.35-1.68 0-3.05-.52-1.36-.52-2.32-1.45-.97-.93-1.49-2.23-.52-1.29-.52-2.82 0-1.55.5-2.84t1.43-2.22 2.25-1.45q1.32-.51 2.96-.51.84 0 1.56.13.73.14 1.35.37t1.14.57q.51.33.94.73l-.73 1.16q-.17.27-.45.33t-.6-.13q-.31-.19-.63-.37-.31-.18-.69-.31-.39-.13-.87-.22-.48-.08-1.11-.08-1.01 0-1.83.34-.83.34-1.4.98-.58.63-.9 1.53-.31.89-.31 1.99 0 1.18.34 2.11.33.92.95 1.56.61.64 1.47.98.87.34 1.93.34.76 0 1.36-.16t1.17-.44V51.9h-1.73q-.25 0-.38-.14-.14-.13-.14-.33zm16.62-6.85v2.1h-4.14v11.64h-2.56V45.23h-4.14v-2.1zm4.36 0v5.76h.6q.36 0 .6-.1t.41-.32l3.79-4.8q.24-.3.5-.42t.66-.12h2.2l-4.62 5.71q-.41.53-.85.74.31.12.57.32.25.21.47.54l4.77 6.43h-2.25q-.45 0-.68-.13-.22-.13-.37-.37l-3.89-5.08q-.18-.25-.42-.36-.23-.1-.68-.1h-.81v6.04h-2.55V43.13z"/></svg>