<svg xmlns="http://www.w3.org/2000/svg" width="100" height="100" viewBox="0 0 100 100"><rect width="100%" height="100%" fill="#dc2626"/><path fill="#ffffff" d="M37.255 39.155v3.31h-6.54v18.38h-4.03v-18.38h-6.54v-3.31zm22.11 10.85q0 2.38-.79 4.38-.8 1.99-2.24 3.43t-3.46 2.24q-2.03.79-4.5.79h-8.27v-21.69h8.27q2.47 0 4.5.8 2.02.8 3.46 2.24 1.44 1.43 2.24 3.43.79 1.99.79 4.38m-4.14 0q0-1.79-.47-3.21-.47-1.41-1.36-2.4-.9-.98-2.16-1.5-1.27-.53-2.86-.53h-4.22v15.27h4.22q1.59 0 2.86-.52 1.26-.53 2.16-1.51.89-.98 1.36-2.4t.47-3.2m11.73-.53h2.52q1.14 0 1.99-.28.85-.29 1.39-.79.55-.51.82-1.19.27-.69.27-1.52 0-1.65-1.09-2.53-1.08-.89-3.32-.89h-2.58zm7.47 3.36 5.43 8.01h-3.64q-1.04 0-1.5-.81l-4.56-6.94q-.26-.39-.57-.56-.3-.16-.9-.16h-1.73v8.47h-4.03v-21.69h6.61q2.21 0 3.79.46t2.59 1.28q1.02.82 1.5 1.97t.48 2.53q0 1.1-.33 2.07-.32.98-.93 1.77-.6.8-1.5 1.4-.89.59-2.03.94.39.23.72.53.33.31.6.73"/></svg>