<svg xmlns="http://www.w3.org/2000/svg" width="100" height="100" viewBox="0 0 100 100"><rect width="100%" height="100%" fill="#dc2626"/><path fill="#ffffff" d="M47.235 33.37v5.08h-10.03v28.18h-6.19V38.45h-10.03v-5.08zm20.74 16.58h11.04v13.46q-2.53 1.86-5.39 2.73-2.87.86-6.13.86-4.07 0-7.37-1.27-3.3-1.26-5.64-3.52-2.33-2.25-3.6-5.38-1.26-3.13-1.26-6.83 0-3.75 1.22-6.88 1.22-3.12 3.46-5.38 2.24-2.25 5.44-3.49 3.19-1.25 7.17-1.25 2.03 0 3.79.33 1.76.32 3.26.88 1.51.56 2.75 1.37 1.24.8 2.28 1.77l-1.77 2.81q-.42.66-1.08.81-.67.15-1.45-.33-.76-.44-1.52-.87-.76-.44-1.69-.76-.93-.33-2.09-.53-1.17-.21-2.68-.21-2.47 0-4.45.83-1.99.83-3.4 2.37-1.4 1.54-2.16 3.7t-.76 4.83q0 2.85.82 5.1.82 2.24 2.3 3.79t3.58 2.37q2.09.82 4.66.82 1.84 0 3.29-.4 1.45-.39 2.83-1.05V54.6h-4.18q-.6 0-.94-.33-.33-.34-.33-.82z"/></svg>