<svg xmlns="http://www.w3.org/2000/svg" width="100" height="100" viewBox="0 0 100 100"><rect width="100%" height="100%" fill="#dc2626"/><path fill="#ffffff" d="M31.955 42.04v2.44h-4.8v13.47h-2.96V44.48h-4.79v-2.44zm9.92 7.94h5.28v6.43q-1.21.89-2.58 1.3-1.37.42-2.93.42-1.95 0-3.52-.61-1.58-.6-2.7-1.68t-1.72-2.58q-.61-1.49-.61-3.26 0-1.8.59-3.29.58-1.5 1.65-2.58 1.07-1.07 2.6-1.67 1.53-.59 3.44-.59.96 0 1.81.15.84.16 1.56.43t1.31.65q.6.39 1.09.85l-.85 1.34q-.19.32-.51.39t-.7-.16l-.72-.42q-.37-.21-.81-.36-.45-.15-1-.25-.56-.1-1.28-.1-1.18 0-2.13.39-.95.4-1.62 1.14-.68.73-1.04 1.77-.36 1.03-.36 2.31 0 1.36.39 2.43.39 1.08 1.1 1.82t1.71 1.13 2.23.39q.88 0 1.58-.18.69-.19 1.35-.51V52.2h-2q-.29 0-.45-.16t-.16-.39zm18.58-7.94h2.97v15.91h-2.97V51h-7.47v6.95h-2.97V42.04h2.97v6.85h7.47zm9.86 9.9h5.06l-1.94-5.29q-.14-.35-.3-.83-.15-.49-.3-1.05-.15.56-.3 1.05-.16.49-.3.86zm4.03-9.9 6.25 15.91h-2.29q-.38 0-.62-.19-.25-.19-.37-.48l-1.18-3.25h-6.59l-1.19 3.25q-.09.25-.34.46-.26.21-.63.21h-2.31l6.26-15.91z"/></svg>