<svg xmlns="http://www.w3.org/2000/svg" width="100" height="100" viewBox="0 0 100 100"><rect width="100%" height="100%" fill="#dc2626"/><path fill="#ffffff" d="M31.705 42.04v2.44h-4.79v13.47h-2.96V44.48h-4.8v-2.44zm9.93 7.94h5.28v6.43q-1.21.89-2.58 1.3-1.37.42-2.94.42-1.94 0-3.52-.61-1.58-.6-2.7-1.68-1.11-1.08-1.72-2.58-.6-1.49-.6-3.26 0-1.8.58-3.29.58-1.5 1.66-2.58 1.07-1.07 2.6-1.67 1.53-.59 3.43-.59.97 0 1.81.15.84.16 1.56.43t1.32.65q.59.39 1.08.85l-.84 1.34q-.2.32-.52.39t-.69-.16q-.37-.21-.73-.42t-.81-.36q-.44-.15-1-.25-.55-.1-1.28-.1-1.18 0-2.13.39-.95.4-1.62 1.14-.67.73-1.03 1.77-.37 1.03-.37 2.31 0 1.36.39 2.43.39 1.08 1.1 1.82t1.71 1.13 2.24.39q.88 0 1.57-.18.69-.19 1.35-.51V52.2h-2q-.29 0-.44-.16-.16-.16-.16-.39zm18.57-7.94h2.97v15.91h-2.97V51h-7.46v6.95h-2.97V42.04h2.97v6.85h7.46zM80.845 50q0 1.75-.58 3.21-.59 1.46-1.64 2.52-1.06 1.05-2.54 1.64-1.49.58-3.3.58h-6.06V42.04h6.06q1.81 0 3.3.59 1.48.59 2.54 1.64 1.05 1.05 1.64 2.52.58 1.46.58 3.21m-3.04 0q0-1.31-.34-2.35-.35-1.04-1-1.76-.66-.72-1.59-1.11-.93-.38-2.09-.38h-3.09v11.2h3.09q1.16 0 2.09-.39.93-.38 1.59-1.1.65-.72 1-1.76.34-1.04.34-2.35"/></svg>