<svg xmlns="http://www.w3.org/2000/svg" width="100" height="100" viewBox="0 0 100 100"><rect width="100%" height="100%" fill="#dc2626"/><path fill="#ffffff" d="M32.405 42.41v2.32h-4.58v12.86h-2.82V44.73h-4.58v-2.32zm4.82 12.85h6.07v2.33h-8.9V42.41h2.83zm16.87-11.43-.7 1.34q-.13.22-.27.32t-.35.1q-.22 0-.48-.16-.26-.17-.61-.37-.36-.2-.84-.36t-1.13-.16q-.59 0-1.03.14t-.74.39q-.3.26-.44.61-.15.35-.15.77 0 .53.3.89t.79.61q.5.25 1.13.45t1.29.43q.66.22 1.29.52t1.12.76q.5.46.79 1.12.3.66.3 1.6 0 1.03-.35 1.93t-1.03 1.56q-.67.67-1.65 1.05-.98.39-2.24.39-.72 0-1.43-.14-.7-.15-1.34-.41-.65-.26-1.22-.63-.56-.37-1.01-.82l.83-1.35q.11-.15.28-.25t.35-.1q.27 0 .57.22.31.21.73.48.42.26.98.47.56.22 1.35.22 1.2 0 1.87-.57.66-.58.66-1.65 0-.6-.3-.97-.3-.38-.79-.64-.5-.26-1.13-.44-.63-.17-1.28-.38t-1.28-.51q-.63-.29-1.12-.76-.5-.48-.8-1.19-.3-.7-.3-1.74 0-.83.33-1.62.34-.79.97-1.4t1.55-.97q.92-.37 2.12-.37 1.34 0 2.48.42 1.13.42 1.93 1.17M71.305 50q0 1.67-.55 3.09t-1.56 2.46-2.43 1.63q-1.41.58-3.15.58-1.72 0-3.14-.58-1.41-.59-2.43-1.63-1.01-1.04-1.57-2.46-.55-1.42-.55-3.09t.55-3.09q.56-1.43 1.57-2.47 1.02-1.04 2.43-1.62 1.42-.58 3.14-.58 1.16 0 2.18.27 1.02.26 1.87.75t1.52 1.19q.68.7 1.15 1.56.48.86.72 1.87.25 1.01.25 2.12m-2.89 0q0-1.25-.33-2.24-.34-1-.96-1.69t-1.51-1.06q-.88-.37-2-.37-1.11 0-2 .37-.88.37-1.51 1.06-.62.69-.96 1.69-.33.99-.33 2.24t.33 2.24q.34.99.96 1.68.63.69 1.51 1.06.89.36 2 .36 1.12 0 2-.36.89-.37 1.51-1.06t.96-1.68q.33-.99.33-2.24m11.16-7.59v9.78q0 1.28-.31 2.31-.32 1.03-.94 1.76-.63.72-1.56 1.11t-2.17.39q-.57 0-1.12-.07-.54-.07-1.14-.22.03-.42.07-.84l.08-.84q.03-.23.18-.37t.44-.14q.17 0 .46.07.29.08.73.08.6 0 1.06-.18.47-.17.78-.55.3-.38.46-.98t.16-1.46v-9.85z"/></svg>