<svg xmlns="http://www.w3.org/2000/svg" width="100" height="100" viewBox="0 0 100 100"><rect width="100%" height="100%" fill="#dc2626"/><path fill="#ffffff" d="M47.825 32.285v5.42h-10.69v30.01h-6.59v-30.01h-10.68v-5.42zm11.24 16.86h4.12q1.86 0 3.24-.47 1.39-.46 2.28-1.28.9-.82 1.34-1.95t.44-2.48q0-2.69-1.78-4.14-1.77-1.44-5.42-1.44h-4.22zm12.2 5.49 8.87 13.08h-5.95q-1.69 0-2.45-1.32l-7.45-11.35q-.42-.63-.92-.9t-1.48-.27h-2.82v13.84h-6.59v-35.43h10.81q3.6 0 6.18.75 2.59.75 4.24 2.09 1.65 1.35 2.44 3.23.78 1.87.78 4.13 0 1.78-.52 3.38-.53 1.59-1.52 2.89-1 1.3-2.45 2.28-1.46.98-3.32 1.54.63.37 1.17.87t.98 1.19"/></svg>