<svg xmlns="http://www.w3.org/2000/svg" width="100" height="100" viewBox="0 0 100 100"><rect width="100%" height="100%" fill="#dc2626"/><path fill="#ffffff" d="M42.245 41.325h2.54l-5.39 17.35h-2.92l-3.79-11.86q-.16-.43-.29-1.05-.07.3-.14.56-.07.27-.16.49l-3.83 11.86h-2.92l-5.38-17.35h2.7q.42 0 .7.2.28.19.38.53l2.95 10.38q.1.38.19.83t.18.95q.1-.51.21-.95.12-.45.25-.83l3.41-10.38q.09-.28.38-.5.28-.23.69-.23h.94q.42 0 .69.2.26.21.39.53l3.4 10.38q.25.74.46 1.72.15-.95.34-1.72l2.96-10.38q.07-.3.36-.52.3-.21.7-.21m16.46 0h2.84v17.35h-1.66q-.38 0-.64-.13-.26-.12-.5-.42l-9.06-11.57q.08.79.08 1.46v10.66h-2.85v-17.35h1.69q.21 0 .36.02.15.01.26.07.12.05.22.15.11.11.24.27l9.1 11.62q-.04-.42-.06-.83t-.02-.75zm18.09 0h3.24v17.35h-3.24v-7.58h-8.15v7.58h-3.24v-17.35h3.24v7.46h8.15z"/></svg>