<svg xmlns="http://www.w3.org/2000/svg" width="100" height="100" viewBox="0 0 100 100"><rect width="100%" height="100%" fill="#dc2626"/><path fill="#ffffff" d="M45.495 39.88h2.95l-6.28 20.24h-3.41l-4.42-13.83q-.18-.51-.34-1.23-.08.35-.16.65-.09.31-.19.58l-4.46 13.83h-3.42l-6.27-20.24h3.15q.49 0 .82.23t.44.62l3.44 12.11q.12.45.22.97.11.53.22 1.1.11-.59.24-1.1.14-.52.29-.97l3.98-12.11q.11-.32.44-.59.33-.26.8-.26h1.11q.49 0 .8.23.3.24.46.62l3.96 12.11q.29.87.53 2 .18-1.1.41-2l3.44-12.11q.09-.35.43-.6t.82-.25m19.58 0v3.09h-6.1v17.15h-3.77V42.97h-6.1v-3.09zm15.43 2.99h-8.99v5.99h7.59v3.01h-7.59v8.25h-3.78V39.88h12.77z"/></svg>