<svg xmlns="http://www.w3.org/2000/svg" width="100" height="100" viewBox="0 0 100 100"><rect width="100%" height="100%" fill="#dc2626"/><path fill="#ffffff" d="M42.527 39.77h2.64l-5.61 18.07h-3.04l-3.95-12.35q-.16-.45-.3-1.1-.08.31-.15.59-.08.27-.16.51l-3.99 12.35h-3.05l-5.6-18.07h2.81q.44 0 .73.2.3.21.4.56l3.07 10.81q.1.4.19.87.1.47.2.98.1-.53.22-.99t.25-.86l3.55-10.81q.1-.29.4-.53.29-.23.72-.23h.98q.44 0 .72.21.27.21.41.55l3.54 10.81q.26.77.47 1.79.16-.99.36-1.79l3.08-10.81q.07-.32.38-.54t.73-.22m17.49 0v2.76h-5.45v15.31h-3.36V42.53h-5.45v-2.76zm13.77 2.67h-8.02v5.35h6.77v2.69h-6.77v7.36h-3.38V39.77h11.4zm4.33 7.56q0 2.58.62 5.06.63 2.49 1.79 4.68.13.25.15.44.01.2-.04.34-.05.15-.15.25-.11.11-.23.18l-1.38.84q-.92-1.42-1.57-2.86t-1.07-2.9q-.41-1.47-.6-2.97-.2-1.5-.2-3.06t.2-3.07q.19-1.5.6-2.97.42-1.46 1.07-2.89t1.57-2.86l1.38.83q.12.07.23.18.1.11.15.25t.04.34q-.02.19-.15.46-1.16 2.17-1.79 4.66-.62 2.5-.62 5.07"/></svg>