<svg xmlns="http://www.w3.org/2000/svg" width="100" height="100" viewBox="0 0 100 100"><rect width="100%" height="100%" fill="#dc2626"/><path fill="#ffffff" d="M31.265 53.63h9.43l-3.61-9.86q-.26-.66-.55-1.56t-.58-1.95q-.26 1.05-.55 1.96t-.55 1.59zm7.52-18.45 11.65 29.64h-4.27q-.71 0-1.17-.36-.45-.36-.67-.89l-2.22-6.05h-12.28l-2.21 6.05q-.16.47-.63.86-.48.39-1.17.39h-4.31l11.67-29.64zm34.85 0h4.86v29.64h-2.83q-.65 0-1.09-.22-.44-.21-.85-.72l-15.48-19.77q.12 1.36.12 2.51v18.2h-4.86V35.18h2.89q.35 0 .61.03.25.03.45.12.19.09.38.27.18.17.41.46l15.54 19.84q-.06-.71-.11-1.41-.04-.7-.04-1.29z"/></svg>