<svg xmlns="http://www.w3.org/2000/svg" width="100" height="100" viewBox="0 0 100 100"><rect width="100%" height="100%" fill="#dc2626"/><path fill="#ffffff" d="M48.045 59.365q.54 0 .95.41l2.6 2.82q-2.16 2.67-5.31 4.09-3.14 1.42-7.55 1.42-3.95 0-7.1-1.35-3.14-1.34-5.37-3.74-2.23-2.41-3.42-5.74t-1.19-7.27q0-4 1.27-7.32 1.28-3.32 3.59-5.72 2.32-2.4 5.53-3.73 3.21-1.34 7.1-1.34 3.87 0 6.88 1.27 3 1.28 5.1 3.34l-2.2 3.06q-.2.29-.5.51-.31.22-.85.22-.37 0-.76-.2-.39-.21-.86-.52-.46-.3-1.07-.67-.62-.37-1.43-.68-.8-.3-1.87-.51t-2.46-.21q-2.38 0-4.35.85-1.97.84-3.39 2.45-1.42 1.6-2.21 3.92-.78 2.31-.78 5.28 0 2.99.84 5.31.85 2.33 2.29 3.92 1.45 1.6 3.41 2.44 1.96.85 4.21.85 1.35 0 2.44-.15t2.01-.47 1.74-.82 1.63-1.23q.24-.23.51-.36t.57-.13m19.08 2.72h9.09q.98 0 1.56.55.57.55.57 1.45v3.63h-24.3v-2.01q0-.61.26-1.29.25-.67.82-1.21l10.75-10.78q1.35-1.37 2.42-2.62 1.06-1.25 1.77-2.47.71-1.23 1.09-2.49t.38-2.66q0-1.27-.37-2.24-.36-.97-1.04-1.63-.67-.66-1.61-.99-.95-.33-2.12-.33-1.08 0-2 .3-.92.31-1.63.86t-1.2 1.29q-.49.73-.73 1.61-.42 1.13-1.08 1.5t-1.91.17l-3.19-.56q.37-2.55 1.42-4.47 1.06-1.93 2.64-3.21 1.58-1.29 3.62-1.94 2.05-.65 4.4-.65 2.45 0 4.48.72 2.04.73 3.48 2.05 1.45 1.32 2.26 3.18.8 1.87.8 4.14 0 1.96-.57 3.63-.58 1.67-1.54 3.19-.97 1.52-2.27 2.94t-2.72 2.89l-7.99 8.16q1.15-.35 2.29-.53t2.17-.18"/></svg>