<svg xmlns="http://www.w3.org/2000/svg" width="100" height="100" viewBox="0 0 100 100"><rect width="100%" height="100%" fill="#dc2626"/><path fill="#ffffff" d="M27.545 44.58v1.65h-3.27v9.19h-2.01v-9.19h-3.27v-1.65zm8.55 0h2.02v10.84h-2.02v-4.74h-5.1v4.74h-2.02V44.58h2.02v4.66h5.1zm17.28 0h1.59l-3.37 10.84h-1.82l-2.37-7.41q-.1-.27-.18-.66-.05.19-.09.35-.05.17-.1.31l-2.39 7.41h-1.83l-3.36-10.84h1.68q.27 0 .44.12.18.12.24.33l1.84 6.49q.06.24.12.52t.12.59q.06-.31.13-.59t.15-.52l2.13-6.49q.06-.17.24-.31.17-.14.43-.14h.59q.26 0 .43.12.16.13.25.33l2.12 6.49q.16.46.28 1.07.1-.59.22-1.07l1.85-6.49q.04-.18.22-.32.19-.13.44-.13m15.77 0h1.58l-3.37 10.84h-1.82l-2.37-7.41q-.1-.27-.18-.66-.04.19-.09.35-.04.17-.1.31l-2.39 7.41h-1.83l-3.36-10.84h1.69q.26 0 .44.12.17.12.23.33l1.85 6.49q.06.24.11.52.06.28.12.59.06-.31.13-.59t.16-.52l2.13-6.49q.06-.17.23-.31.18-.14.43-.14h.6q.26 0 .42.12.17.13.25.33l2.12 6.49q.16.46.29 1.07.1-.59.22-1.07l1.84-6.49q.05-.18.23-.32.18-.13.44-.13m8.26 5.4h3.6v4.39q-.83.61-1.76.89-.94.28-2 .28-1.33 0-2.41-.41-1.07-.41-1.83-1.15-.76-.73-1.18-1.75-.41-1.02-.41-2.23 0-1.22.4-2.25.4-1.02 1.13-1.75t1.77-1.14q1.04-.4 2.34-.4.66 0 1.23.1.58.11 1.07.29t.9.44q.4.27.74.58l-.58.92q-.13.22-.35.26-.22.05-.47-.1t-.5-.29-.55-.25q-.3-.1-.68-.17t-.88-.07q-.8 0-1.45.27t-1.1.77q-.46.51-.71 1.21-.25.71-.25 1.58 0 .93.27 1.66t.75 1.24q.48.5 1.17.77.68.27 1.52.27.6 0 1.07-.13t.92-.35V51.5h-1.36q-.2 0-.31-.11-.1-.11-.1-.27z"/></svg>