<svg xmlns="http://www.w3.org/2000/svg" width="100" height="100" viewBox="0 0 100 100"><rect width="100%" height="100%" fill="#dc2626"/><path fill="#ffffff" d="M35.41 40.24v2.98h-5.89v16.54h-3.63V43.22h-5.88v-2.98zm25.69 0h2.85l-6.06 19.52h-3.28l-4.27-13.34q-.17-.48-.32-1.19-.08.34-.17.64-.08.3-.17.55l-4.31 13.34h-3.29l-6.05-19.52h3.04q.47 0 .79.22t.42.6l3.32 11.68q.11.43.21.94l.21 1.06q.11-.57.24-1.07t.28-.93l3.83-11.68q.11-.31.43-.56.31-.26.77-.26h1.07q.47 0 .77.23.29.23.44.59l3.82 11.68q.29.84.52 1.93.17-1.07.39-1.93l3.32-11.68q.08-.34.41-.58t.79-.24m18.89 0v2.98H74.1v16.54h-3.63V43.22h-5.89v-2.98z"/></svg>