<svg xmlns="http://www.w3.org/2000/svg" width="100" height="100" viewBox="0 0 100 100"><rect width="100%" height="100%" fill="#dc2626"/><path fill="#ffffff" d="M33.68 44.58h1.59L31.9 55.42h-1.82l-2.37-7.41q-.1-.27-.18-.66-.05.19-.09.35-.05.17-.1.31l-2.39 7.41h-1.83l-3.36-10.84h1.68q.27 0 .44.12.18.12.24.33l1.84 6.49q.06.24.12.52t.12.59q.06-.31.13-.59t.15-.52l2.13-6.49q.06-.17.24-.31.17-.14.43-.14h.59q.26 0 .43.12.16.13.25.33l2.12 6.49q.16.46.28 1.07.1-.59.22-1.07l1.85-6.49q.04-.18.22-.32.19-.13.44-.13m4.95 0v10.84H36.6V44.58zm15.27 0h1.58l-3.37 10.84h-1.82l-2.37-7.41q-.1-.27-.18-.66-.05.19-.09.35-.05.17-.1.31l-2.39 7.41h-1.83l-3.36-10.84h1.69q.26 0 .43.12.18.12.24.33l1.85 6.49q.06.24.11.52.06.28.12.59.06-.31.13-.59t.15-.52l2.13-6.49q.06-.17.24-.31t.43-.14h.59q.27 0 .43.12.17.13.25.33l2.12 6.49q.16.46.29 1.07.09-.59.21-1.07l1.85-6.49q.04-.18.23-.32.18-.13.44-.13m10.49 0v1.65h-3.27v9.19H59.1v-9.19h-3.27v-1.65zm14.27 0h1.58l-3.36 10.84h-1.83l-2.37-7.41q-.09-.27-.18-.66-.04.19-.09.35-.04.17-.09.31l-2.4 7.41h-1.83l-3.36-10.84h1.69q.26 0 .44.12t.24.33l1.84 6.49q.06.24.12.52.05.28.11.59.06-.31.13-.59.08-.28.16-.52l2.13-6.49q.06-.17.23-.31.18-.14.44-.14h.59q.26 0 .43.12.16.13.24.33l2.13 6.49q.15.46.28 1.07.1-.59.22-1.07l1.84-6.49q.05-.18.23-.32.19-.13.44-.13"/></svg>