<svg xmlns="http://www.w3.org/2000/svg" width="100" height="100" viewBox="0 0 100 100"><rect width="100%" height="100%" fill="#dc2626"/><path fill="#ffffff" d="M26.07 52.565h6.67l-2.55-6.97q-.19-.47-.39-1.1-.2-.64-.4-1.38-.19.74-.4 1.38-.2.65-.39 1.13zm5.33-13.05 8.23 20.97h-3.01q-.51 0-.83-.25-.32-.26-.48-.63l-1.56-4.28h-8.69l-1.57 4.28q-.11.33-.45.6-.33.28-.82.28h-3.05l8.25-20.97zm20.73 10.46h6.96v8.48q-1.59 1.17-3.4 1.72-1.8.54-3.86.54-2.57 0-4.65-.8-2.08-.79-3.55-2.21-1.47-1.43-2.27-3.4t-.8-4.3q0-2.37.77-4.34t2.18-3.39 3.43-2.21q2.02-.78 4.52-.78 1.28 0 2.39.2 1.11.21 2.06.56.95.36 1.73.87.78.5 1.44 1.11l-1.12 1.77q-.26.42-.68.52-.42.09-.91-.22-.48-.27-.96-.55-.48-.27-1.07-.47-.58-.21-1.32-.34-.73-.13-1.69-.13-1.55 0-2.8.52-1.26.53-2.14 1.5-.89.97-1.36 2.33-.48 1.36-.48 3.05 0 1.79.51 3.21.52 1.41 1.45 2.39.94.98 2.26 1.49 1.32.52 2.94.52 1.16 0 2.07-.25.92-.24 1.79-.66v-3.8h-2.64q-.38 0-.59-.21t-.21-.52zm15.14 2.59h6.67l-2.55-6.97q-.19-.47-.39-1.1-.21-.64-.41-1.38-.19.74-.39 1.38-.2.65-.39 1.13zm5.32-13.05 8.24 20.97h-3.02q-.51 0-.83-.25-.31-.26-.47-.63l-1.57-4.28h-8.69l-1.56 4.28q-.12.33-.45.6-.33.28-.83.28h-3.04l8.25-20.97z"/></svg>