<svg xmlns="http://www.w3.org/2000/svg" width="100" height="100" viewBox="0 0 100 100"><rect width="100%" height="100%" fill="#dc2626"/><path fill="#ffffff" d="M24.3 50.065h3.12q1.14 0 2-.29.85-.29 1.41-.82.57-.54.85-1.3.28-.77.28-1.72 0-.9-.28-1.62-.28-.73-.84-1.25-.56-.51-1.41-.78t-2.01-.27H24.3zm-4.17-11.27h7.29q2.24 0 3.89.52 1.64.53 2.71 1.48 1.07.94 1.59 2.26t.52 2.88q0 1.63-.55 2.99-.54 1.35-1.62 2.33-1.09.98-2.72 1.52-1.64.54-3.82.54H24.3v7.89h-4.17zm23.9 13.95h7.13l-2.73-7.46q-.2-.49-.41-1.18-.22-.68-.44-1.47-.2.79-.42 1.48-.21.69-.42 1.2zm5.69-13.95 8.8 22.41H55.3q-.54 0-.88-.27t-.51-.68l-1.68-4.57h-9.28l-1.68 4.57q-.12.36-.48.66-.35.29-.88.29h-3.26l8.82-22.41zm15.3 0v9.39H66q.58 0 .97-.16.39-.17.67-.52l6.18-7.83q.39-.5.82-.69.42-.19 1.07-.19h3.6l-7.55 9.31q-.66.86-1.38 1.21.51.19.92.52.42.33.79.88l7.78 10.49h-3.68q-.74 0-1.1-.21-.37-.21-.62-.61l-6.34-8.28q-.29-.42-.68-.59-.38-.17-1.11-.17h-1.32v9.86h-4.17v-22.41z"/></svg>