<svg xmlns="http://www.w3.org/2000/svg" width="100" height="100" viewBox="0 0 100 100"><rect width="100%" height="100%" fill="#dc2626"/><path fill="#ffffff" d="M35.69 41.685h2.34v16.63H35.3v-10.74q0-.64.07-1.39l-5.03 9.44q-.35.68-1.09.68h-.44q-.73 0-1.09-.68l-5.08-9.48.06.75q.02.37.02.68v10.74h-2.73v-16.63h2.34q.21 0 .36.01.14.01.27.06.12.05.21.15.1.1.19.28l4.98 9.23q.2.37.37.76.16.39.32.8.16-.42.34-.82.17-.39.36-.76l4.92-9.21q.09-.18.19-.28t.22-.15q.13-.05.28-.06.14-.01.35-.01m25.74 0h2.43l-5.17 16.63H55.9l-3.64-11.36q-.15-.42-.27-1.01-.07.28-.14.54-.07.25-.15.47l-3.67 11.36h-2.8l-5.16-16.63h2.59q.4 0 .67.19t.37.51l2.82 9.95q.1.37.18.8.09.43.18.9.09-.48.2-.91.11-.42.24-.79l3.26-9.95q.1-.26.37-.48t.66-.22h.91q.4 0 .65.2.25.19.38.5l3.26 9.95q.24.71.43 1.64.15-.9.34-1.64l2.83-9.95q.06-.28.35-.49.28-.21.67-.21m7.57 0v6.97h.72q.44 0 .72-.12.29-.12.5-.39l4.59-5.8q.29-.37.6-.52.32-.14.8-.14h2.67l-5.6 6.91q-.5.64-1.03.9.38.14.69.38.3.25.58.65l5.77 7.79h-2.72q-.55 0-.83-.16-.27-.15-.45-.45l-4.7-6.14q-.22-.31-.51-.44-.29-.12-.83-.12H69v7.31h-3.1v-16.63z"/></svg>