<svg xmlns="http://www.w3.org/2000/svg" width="100" height="100" viewBox="0 0 100 100"><rect width="100%" height="100%" fill="#dc2626"/><path fill="#ffffff" d="M30.655 42.055h2.61v15.91h-1.52q-.35 0-.59-.12-.23-.11-.45-.39l-8.31-10.6q.07.73.07 1.34v9.77h-2.61v-15.91h1.55q.19 0 .33.02.13.02.24.07.1.05.2.14t.22.25l8.34 10.64-.06-.75q-.02-.38-.02-.7zm12.91 13.88h2.86v2.03h-8.8v-2.03h3.22v-9.28q0-.55.03-1.13l-2.29 1.91q-.19.16-.39.2-.19.03-.36 0t-.3-.11q-.13-.09-.2-.19l-.86-1.17 4.85-4.13h2.24zm16.8-13.88h2.61v15.91h-1.52q-.35 0-.59-.12-.23-.11-.45-.39l-8.31-10.6q.07.73.07 1.34v9.77h-2.61v-15.91h1.55q.19 0 .33.02.13.02.24.07.1.05.2.14t.22.25l8.34 10.64q-.03-.38-.05-.75-.03-.38-.03-.7zm9.5 9.9h5.06l-1.94-5.29q-.14-.35-.3-.83-.15-.49-.3-1.05-.15.56-.3 1.05-.16.49-.3.86zm4.03-9.9 6.25 15.91h-2.29q-.38 0-.62-.19-.25-.19-.37-.48l-1.18-3.25h-6.59l-1.19 3.25q-.09.25-.34.46-.26.21-.63.21h-2.31l6.26-15.91z"/></svg>