<svg xmlns="http://www.w3.org/2000/svg" width="100" height="100" viewBox="0 0 100 100"><rect width="100%" height="100%" fill="#dc2626"/><path fill="#ffffff" d="m48.815 34.455-11.33 19.05v12.04h-5.76v-12.04l-11.33-19.05h5.09q.76 0 1.2.37.44.36.74.92l5.67 10.39q.5.92.88 1.74.37.81.67 1.63.28-.82.65-1.63.36-.82.84-1.74l5.65-10.39q.24-.47.71-.88t1.2-.41zm30.79 15.55q0 3.41-1.14 6.27t-3.2 4.93q-2.07 2.06-4.97 3.2t-6.45 1.14h-11.85v-31.09h11.85q3.55 0 6.45 1.15t4.97 3.2q2.06 2.06 3.2 4.92t1.14 6.28m-5.94 0q0-2.56-.67-4.59-.68-2.04-1.96-3.44-1.28-1.41-3.09-2.17-1.82-.75-4.1-.75h-6.04v21.89h6.04q2.28 0 4.1-.75 1.81-.76 3.09-2.16 1.28-1.41 1.96-3.44.67-2.04.67-4.59"/></svg>