<svg xmlns="http://www.w3.org/2000/svg" width="100" height="100" viewBox="0 0 100 100"><rect width="100%" height="100%" fill="#dc2626"/><path fill="#ffffff" d="M22.78 55.64h3q.82 0 1.38-.2t.9-.53q.33-.33.48-.77t.15-.93q0-.52-.16-.93-.17-.41-.52-.7-.35-.3-.91-.45-.55-.15-1.33-.15h-2.99zm2.52-11.31h-2.52v4.6h2.36q1.52 0 2.29-.55.78-.55.78-1.75 0-1.24-.71-1.77-.7-.53-2.2-.53m-5.47-2.29h5.47q1.57 0 2.68.3t1.82.85 1.04 1.33.33 1.76q0 .56-.17 1.07-.16.51-.51.96-.35.44-.88.81-.53.36-1.27.61 3.28.74 3.28 3.55 0 1.01-.39 1.87-.38.85-1.12 1.47-.74.63-1.81.98-1.08.35-2.47.35h-6zM49.48 50q0 1.75-.58 3.24-.57 1.49-1.63 2.58t-2.54 1.7q-1.49.61-3.3.61-1.8 0-3.29-.61-1.48-.61-2.55-1.7-1.06-1.09-1.64-2.58T33.37 50t.58-3.24 1.64-2.58q1.07-1.09 2.55-1.7 1.49-.61 3.29-.61 1.21 0 2.28.28 1.06.28 1.95.79.9.51 1.6 1.24.71.74 1.21 1.64.49.9.75 1.96.26 1.05.26 2.22m-3.02 0q0-1.31-.36-2.35-.35-1.04-1-1.77-.65-.72-1.58-1.11-.92-.38-2.09-.38t-2.1.38q-.93.39-1.58 1.11-.66.73-1.01 1.77T36.39 50t.35 2.35 1.01 1.76q.65.72 1.58 1.1.93.39 2.1.39t2.09-.39q.93-.38 1.58-1.1t1-1.76q.36-1.04.36-2.35m19.75 0q0 1.75-.58 3.21t-1.64 2.52q-1.06 1.05-2.54 1.64-1.49.58-3.3.58h-6.06V42.04h6.06q1.81 0 3.3.59 1.48.59 2.54 1.64t1.64 2.52q.58 1.46.58 3.21m-3.03 0q0-1.31-.35-2.35t-1-1.76q-.66-.72-1.59-1.11-.92-.38-2.09-.38h-3.09v11.2h3.09q1.17 0 2.09-.39.93-.38 1.59-1.1.65-.72 1-1.76t.35-2.35m8.6.04h2.21q.81 0 1.42-.2.6-.21 1-.59.41-.37.6-.92.2-.54.2-1.21 0-.64-.2-1.16-.19-.52-.59-.88t-1-.56q-.61-.19-1.43-.19h-2.21zm-2.96-8h5.17q1.59 0 2.76.38 1.17.37 1.92 1.04.76.67 1.13 1.61.37.93.37 2.05 0 1.15-.38 2.11-.39.97-1.16 1.66t-1.93 1.08q-1.16.38-2.71.38h-2.21v5.6h-2.96z"/></svg>