<svg xmlns="http://www.w3.org/2000/svg" width="100" height="100" viewBox="0 0 100 100"><rect width="100%" height="100%" fill="#dc2626"/><path fill="#ffffff" d="M29.755 53.44q.19 0 .35.15l.95 1.04q-.79.98-1.95 1.5-1.15.52-2.77.52-1.45 0-2.61-.49-1.16-.5-1.98-1.38-.81-.88-1.25-2.1-.44-1.23-.44-2.68 0-1.46.47-2.68t1.32-2.11q.85-.88 2.03-1.37t2.61-.49q1.42 0 2.52.47 1.11.47 1.88 1.22l-.81 1.13q-.07.11-.18.19-.12.08-.31.08-.14 0-.28-.08-.15-.07-.32-.19-.17-.11-.4-.24-.22-.14-.52-.25-.29-.11-.69-.19-.39-.08-.9-.08-.87 0-1.6.31-.72.31-1.24.9-.53.59-.81 1.44-.29.85-.29 1.94 0 1.1.31 1.96.31.85.84 1.44.53.58 1.25.89t1.55.31q.49 0 .89-.05.4-.06.74-.17.34-.12.64-.3.3-.19.6-.46.09-.08.19-.13t.21-.05m8.2 1.12q.71 0 1.26-.24.55-.23.93-.65.38-.43.58-1.03t.2-1.35V43.5h2.43v7.79q0 1.16-.38 2.15-.37.98-1.07 1.7-.7.71-1.7 1.11-.99.4-2.25.4t-2.25-.4q-1-.4-1.7-1.11-.7-.72-1.07-1.7-.38-.99-.38-2.15V43.5h2.43v7.78q0 .75.2 1.35t.58 1.03q.39.43.94.66.55.24 1.25.24m17.22-11.06v1.98h-3.92v11.03h-2.42V45.48h-3.93V43.5zm10.65 9.94q.2 0 .35.15l.95 1.04q-.79.98-1.95 1.5-1.15.52-2.77.52-1.45 0-2.61-.49-1.15-.5-1.97-1.38t-1.26-2.1q-.43-1.23-.43-2.68 0-1.46.46-2.68.47-1.22 1.32-2.11.85-.88 2.03-1.37t2.61-.49q1.42 0 2.53.47 1.1.47 1.87 1.22l-.81 1.13q-.07.11-.18.19t-.31.08q-.14 0-.28-.08-.15-.07-.32-.19-.17-.11-.39-.24-.23-.14-.52-.25-.3-.11-.69-.19t-.91-.08q-.87 0-1.6.31-.72.31-1.24.9t-.81 1.44-.29 1.94q0 1.1.31 1.96.31.85.84 1.44.53.58 1.25.89t1.55.31q.5 0 .9-.05.4-.06.73-.17.34-.12.64-.3.31-.19.6-.46.09-.08.19-.13t.21-.05m5.7-1.84h4.14l-1.58-4.33q-.12-.29-.24-.69-.13-.39-.25-.85-.12.46-.25.86-.12.4-.24.69zm3.31-8.1 5.11 13.01h-1.87q-.32 0-.52-.16-.19-.16-.29-.39l-.97-2.65h-5.4l-.97 2.65q-.07.21-.28.38-.2.17-.51.17h-1.89l5.12-13.01z"/></svg>