<svg xmlns="http://www.w3.org/2000/svg" width="100" height="100" viewBox="0 0 100 100"><rect width="100%" height="100%" fill="#dc2626"/><path fill="#ffffff" d="M38.3 50q0 2.15-.71 3.94-.72 1.8-2.01 3.09-1.3 1.3-3.12 2.01-1.82.72-4.05.72h-7.44V40.24h7.44q2.23 0 4.05.72t3.12 2.01q1.29 1.29 2.01 3.09.71 1.79.71 3.94m-3.72 0q0-1.61-.43-2.88-.42-1.28-1.23-2.16-.8-.89-1.94-1.36t-2.57-.47h-3.8v13.74h3.8q1.43 0 2.57-.47t1.94-1.36q.81-.88 1.23-2.16.43-1.27.43-2.88m20.18-9.76h3.2v19.52H56.1q-.44 0-.73-.14t-.56-.48L44.62 46.13q.08.89.08 1.64v11.99h-3.2V40.24h1.91q.23 0 .39.02.17.02.3.08t.25.18q.12.11.27.3l10.23 13.07q-.04-.47-.06-.93-.03-.46-.03-.85zm11.65 12.15h6.21l-2.38-6.49q-.17-.44-.36-1.03t-.38-1.28q-.17.69-.36 1.29t-.37 1.04zm4.95-12.15 7.67 19.52h-2.81q-.47 0-.76-.24-.3-.23-.45-.58l-1.46-3.99h-8.08l-1.46 3.99q-.11.31-.42.56-.31.26-.77.26h-2.84l7.69-19.52z"/></svg>