<svg xmlns="http://www.w3.org/2000/svg" width="100" height="100" viewBox="0 0 100 100"><rect width="100%" height="100%" fill="#dc2626"/><path fill="#ffffff" d="M36.58 41.6H25.99v6.62h8.35v3.41h-8.35v6.75h10.59v3.55H21.53V38.07h15.05zm8.94 11.32h7.59l-2.9-7.94q-.22-.52-.45-1.25t-.46-1.57q-.21.84-.44 1.58-.23.73-.45 1.28zm6.06-14.85 9.37 23.86h-3.43q-.58 0-.94-.29t-.55-.72l-1.78-4.86h-9.88l-1.78 4.86q-.14.38-.52.7-.37.31-.94.31h-3.46l9.39-23.86zm26.89 3.53H67.88v6.62h8.35v3.41h-8.35v6.75h10.59v3.55H63.43V38.07h15.04z"/></svg>