<svg xmlns="http://www.w3.org/2000/svg" width="100" height="100" viewBox="0 0 100 100"><rect width="100%" height="100%" fill="#dc2626"/><path fill="#ffffff" d="M28.745 45.17h-6.1v3.81h4.81v1.96h-4.81v3.89h6.1v2.04h-8.66V43.13h8.66zm4.83-2.04v13.74h-2.57V43.13zm19.34 0h2.01l-4.27 13.74h-2.31l-3-9.39q-.12-.34-.23-.83l-.11.44q-.06.21-.13.39l-3.03 9.39h-2.31l-4.26-13.74h2.14q.33 0 .55.16.23.16.3.42l2.34 8.22q.08.3.15.66t.14.75q.08-.4.17-.75.09-.36.19-.66l2.7-8.22q.08-.22.3-.4t.55-.18h.75q.33 0 .54.16.21.17.31.42l2.69 8.22q.2.59.36 1.36.13-.75.28-1.36l2.34-8.22q.05-.23.29-.41.23-.17.55-.17m13.03 0h2.25v13.74h-1.31q-.31 0-.51-.1-.21-.1-.4-.34l-7.17-9.16q.06.63.06 1.16v8.44h-2.25V43.13h1.34q.16 0 .28.02.12.01.21.05.09.05.17.13.09.08.19.21l7.2 9.2q-.03-.33-.05-.66-.01-.32-.01-.6zm13.97 2.04h-6.1v4.06h5.15v2.04h-5.15v5.6h-2.56V43.13h8.66z"/></svg>