<svg xmlns="http://www.w3.org/2000/svg" width="100" height="100" viewBox="0 0 100 100"><rect width="100%" height="100%" fill="#dc2626"/><path fill="#ffffff" d="M31.64 43.64h-8.02v5.35h6.77v2.69h-6.77v7.36h-3.38V40.97h11.4zM51.63 50q0 1.99-.66 3.68-.65 1.7-1.85 2.93-1.2 1.24-2.89 1.94-1.69.69-3.75.69-2.05 0-3.74-.69-1.68-.7-2.89-1.94-1.21-1.23-1.87-2.93-.66-1.69-.66-3.68t.66-3.68 1.87-2.93 2.89-1.93q1.69-.7 3.74-.7 1.38 0 2.59.32t2.22.9q1.02.58 1.82 1.42.81.83 1.37 1.85.56 1.03.86 2.23.29 1.2.29 2.52m-3.44 0q0-1.49-.4-2.67t-1.13-2q-.74-.83-1.8-1.27-1.05-.43-2.38-.43-1.32 0-2.38.43-1.06.44-1.8 1.27-.74.82-1.14 2t-.4 2.67.4 2.67 1.14 2 1.8 1.26q1.06.43 2.38.43 1.33 0 2.38-.43 1.06-.44 1.8-1.26.73-.82 1.13-2t.4-2.67m17.8-6.36h-8.02v5.01h6.32v2.59h-6.32v5.11h8.02v2.69h-11.4V40.97h11.4zm13.44-.98-.84 1.59q-.15.26-.31.38-.17.12-.42.12-.27 0-.57-.19-.31-.2-.73-.43-.43-.24-1-.43-.57-.2-1.34-.2-.7 0-1.23.17-.52.17-.88.47-.35.3-.53.72-.17.42-.17.92 0 .63.35 1.06.36.42.95.72.58.3 1.33.54t1.54.51 1.54.62q.75.36 1.34.9.58.55.94 1.33.36.79.36 1.92 0 1.22-.42 2.29t-1.23 1.86q-.8.8-1.97 1.25-1.16.46-2.66.46-.86 0-1.7-.17t-1.6-.48q-.77-.31-1.45-.75-.67-.44-1.2-.98l.99-1.61q.12-.17.32-.29t.43-.12q.31 0 .67.26.37.25.87.56.5.32 1.17.57.66.26 1.6.26 1.44 0 2.23-.68.78-.68.78-1.96 0-.71-.35-1.16-.36-.45-.95-.76-.58-.3-1.33-.52-.75-.21-1.53-.46-.77-.25-1.52-.6t-1.34-.91-.94-1.41q-.36-.84-.36-2.08 0-.99.39-1.92.4-.94 1.15-1.67.75-.72 1.85-1.16t2.52-.44q1.6 0 2.95.5t2.3 1.4"/></svg>