<svg xmlns="http://www.w3.org/2000/svg" width="100" height="100" viewBox="0 0 100 100"><rect width="100%" height="100%" fill="#dc2626"/><path fill="#ffffff" d="M23.785 42.04v15.91h-2.97V42.04zm11.39 7.94h5.28v6.43q-1.21.89-2.58 1.3-1.37.42-2.93.42-1.95 0-3.53-.61-1.58-.6-2.69-1.68-1.12-1.08-1.73-2.58-.6-1.49-.6-3.26 0-1.8.58-3.29.59-1.5 1.66-2.58 1.07-1.07 2.6-1.67 1.53-.59 3.43-.59.97 0 1.81.15.84.16 1.56.43t1.32.65q.59.39 1.09.85l-.85 1.34q-.2.32-.52.39t-.69-.16q-.36-.21-.73-.42-.36-.21-.81-.36-.44-.15-1-.25-.55-.1-1.28-.1-1.17 0-2.13.39-.95.4-1.62 1.14-.67.73-1.03 1.77-.37 1.03-.37 2.31 0 1.36.39 2.43.4 1.08 1.1 1.82.71.74 1.72 1.13 1 .39 2.23.39.88 0 1.57-.18.69-.19 1.35-.51V52.2h-2q-.28 0-.44-.16t-.16-.39zm17.34-6.44-.73 1.4q-.13.23-.28.33-.15.11-.37.11-.23 0-.5-.17t-.65-.38q-.37-.21-.87-.38t-1.18-.17q-.62 0-1.08.15-.46.14-.78.41-.31.26-.46.63-.16.37-.16.81 0 .56.32.93.31.38.83.64.51.27 1.17.47.66.21 1.36.45.69.24 1.35.55t1.18.79q.51.48.83 1.17.31.7.31 1.69 0 1.08-.37 2.02t-1.08 1.63q-.71.7-1.73 1.1-1.02.41-2.34.41-.76 0-1.5-.15-.73-.15-1.41-.43-.68-.27-1.27-.66-.6-.38-1.06-.85l.87-1.42q.11-.16.29-.26.17-.11.37-.11.28 0 .6.23.31.23.75.5.44.28 1.03.5.59.23 1.42.23 1.26 0 1.95-.6.7-.6.7-1.72 0-.63-.32-1.03-.31-.39-.83-.66-.51-.27-1.17-.46t-1.35-.41q-.68-.22-1.34-.52-.66-.31-1.17-.81-.52-.49-.84-1.24-.31-.74-.31-1.83 0-.87.35-1.69.34-.83 1-1.46.66-.64 1.63-1.03.97-.38 2.22-.38 1.41 0 2.6.44t2.02 1.23m5.82 12.1h3q.82 0 1.38-.2t.9-.53q.33-.33.48-.77t.15-.93q0-.52-.16-.93-.17-.41-.52-.7-.35-.3-.91-.45-.55-.15-1.34-.15h-2.98zm2.52-11.31h-2.52v4.6h2.36q1.52 0 2.29-.55.78-.55.78-1.75 0-1.24-.71-1.77-.7-.53-2.2-.53m-5.48-2.29h5.48q1.56 0 2.68.3 1.11.3 1.82.85t1.04 1.33.33 1.76q0 .56-.17 1.07-.16.51-.51.96-.35.44-.88.81-.53.36-1.27.61 3.28.74 3.28 3.55 0 1.01-.39 1.87-.38.85-1.12 1.47-.74.63-1.82.98-1.07.35-2.46.35h-6.01zm17.45 13.47h6.36v2.44h-9.32V42.04h2.96z"/></svg>