<svg xmlns="http://www.w3.org/2000/svg" width="100" height="100" viewBox="0 0 100 100"><rect width="100%" height="100%" fill="#dc2626"/><path fill="#ffffff" d="M23.55 43.13v13.74h-2.56V43.13zm9.84 6.85h4.56v5.56q-1.05.77-2.23 1.13-1.18.35-2.53.35-1.68 0-3.05-.52-1.36-.52-2.32-1.45-.97-.93-1.49-2.23-.52-1.29-.52-2.82 0-1.55.5-2.84t1.43-2.22 2.25-1.45q1.32-.51 2.96-.51.84 0 1.56.13.73.14 1.35.37t1.14.57q.51.33.94.73l-.73 1.16q-.17.27-.45.33t-.6-.13q-.31-.19-.63-.37-.31-.18-.69-.31-.39-.13-.87-.22-.48-.08-1.11-.08-1.01 0-1.83.34-.83.34-1.4.98-.58.63-.9 1.53-.31.89-.31 1.99 0 1.18.34 2.11.33.92.95 1.56.61.64 1.47.98.87.34 1.93.34.76 0 1.36-.16t1.17-.44V51.9h-1.73q-.25 0-.39-.14-.13-.13-.13-.33zm14.98-5.56-.64 1.21q-.11.2-.24.29t-.32.09q-.2 0-.43-.15-.23-.14-.56-.32-.32-.18-.75-.33t-1.02-.15q-.53 0-.93.13t-.67.36q-.27.22-.41.54-.13.32-.13.7 0 .48.27.81.27.32.72.55.44.23 1.01.41t1.17.38q.6.21 1.17.48t1.02.68q.44.41.71 1.01.28.6.28 1.46 0 .93-.32 1.74t-.93 1.42q-.62.6-1.5.95-.88.34-2.02.34-.66 0-1.3-.13-.63-.12-1.22-.36-.58-.24-1.09-.57-.52-.33-.92-.74l.76-1.23q.09-.13.24-.22t.33-.09q.23 0 .51.19.27.2.65.44.38.23.89.43.51.19 1.22.19 1.1 0 1.69-.52.6-.51.6-1.48 0-.54-.27-.89-.27-.34-.72-.57-.44-.23-1.01-.39-.57-.17-1.16-.36t-1.16-.45q-.57-.27-1.02-.7-.44-.42-.71-1.06-.27-.65-.27-1.59 0-.75.29-1.46.3-.71.87-1.26t1.41-.89q.84-.33 1.92-.33 1.21 0 2.24.38t1.75 1.06m18.74-1.29h2.01l-4.27 13.74h-2.31l-3-9.39q-.12-.34-.23-.83-.05.24-.11.44-.06.21-.12.39l-3.04 9.39h-2.31l-4.26-13.74h2.14q.33 0 .55.16.23.16.3.42l2.34 8.22q.08.3.15.66t.14.75q.08-.4.17-.75.09-.36.2-.66l2.69-8.22q.08-.22.3-.4.23-.18.55-.18h.75q.33 0 .54.16.21.17.31.42l2.69 8.22q.2.59.36 1.36.13-.75.28-1.36l2.34-8.22q.05-.23.29-.41.23-.17.55-.17m11.65 1.29-.64 1.21q-.11.2-.24.29t-.32.09q-.2 0-.43-.15-.23-.14-.56-.32-.32-.18-.75-.33t-1.02-.15q-.53 0-.93.13t-.67.36q-.27.22-.41.54-.13.32-.13.7 0 .48.27.81.27.32.72.55.44.23 1.01.41t1.17.38q.6.21 1.17.48t1.02.68q.44.41.72 1.01.27.6.27 1.46 0 .93-.32 1.74t-.93 1.42q-.62.6-1.5.95-.88.34-2.02.34-.66 0-1.29-.13-.64-.12-1.23-.36-.58-.24-1.09-.57-.52-.33-.91-.74l.75-1.23q.09-.13.24-.22t.33-.09q.23 0 .51.19.27.2.65.44.38.23.89.43.51.19 1.22.19 1.1 0 1.69-.52.6-.51.6-1.48 0-.54-.27-.89-.27-.34-.72-.57-.44-.23-1.01-.39-.57-.17-1.16-.36t-1.16-.45q-.57-.27-1.02-.7-.44-.42-.71-1.06-.27-.65-.27-1.59 0-.75.29-1.46.3-.71.87-1.26t1.41-.89q.84-.33 1.92-.33 1.22 0 2.24.38 1.03.38 1.75 1.06"/></svg>