<svg xmlns="http://www.w3.org/2000/svg" width="100" height="100" viewBox="0 0 100 100"><rect width="100%" height="100%" fill="#dc2626"/><path fill="#ffffff" d="M27.46 52.535h6.9l-2.65-7.21q-.19-.48-.4-1.14t-.42-1.43q-.19.77-.41 1.43-.2.67-.4 1.16zm5.5-13.5 8.52 21.69h-3.12q-.52 0-.86-.26-.32-.27-.49-.65l-1.62-4.43h-8.98l-1.63 4.43q-.12.34-.46.63-.34.28-.86.28h-3.14l8.53-21.69zm19.5 18.44q1.17 0 2.09-.4.93-.39 1.56-1.09t.96-1.71q.34-1.01.34-2.25v-12.99h4.04v12.99q0 1.94-.63 3.58-.62 1.64-1.78 2.83-1.17 1.2-2.83 1.86-1.67.67-3.75.67-2.1 0-3.76-.67-1.67-.66-2.83-1.86-1.16-1.19-1.79-2.83-.62-1.64-.62-3.58v-12.99h4.04v12.98q0 1.24.33 2.25.34 1 .98 1.71t1.56 1.1q.92.4 2.09.4m27.22-15.23h-9.63v6.02h7.59v3.1h-7.59v6.13h9.63v3.23H66v-21.69h13.68z"/></svg>