<svg xmlns="http://www.w3.org/2000/svg" width="100" height="100" viewBox="0 0 100 100"><rect width="100%" height="100%" fill="#dc2626"/><path fill="#ffffff" d="M36.91 41.685h2.33v16.63h-2.72v-10.74q0-.64.07-1.39l-5.03 9.44q-.35.68-1.09.68h-.44q-.73 0-1.09-.68l-5.08-9.48.06.75q.02.37.02.68v10.74h-2.73v-16.63h2.34q.2 0 .35.01t.27.06.22.15.19.28l4.98 9.23q.2.37.36.76.17.39.33.8.16-.42.34-.82.17-.39.36-.76l4.91-9.21q.1-.18.2-.28t.22-.15.27-.06.36-.01m9.14 0v16.63h-3.1v-16.63zm11.91 8.29h5.52v6.73q-1.27.93-2.7 1.36t-3.07.43q-2.03 0-3.68-.63t-2.82-1.76q-1.17-1.12-1.8-2.69-.63-1.56-.63-3.41 0-1.88.61-3.44.61-1.57 1.73-2.69 1.12-1.13 2.72-1.75t3.59-.62q1.01 0 1.89.16t1.63.44 1.38.68q.62.41 1.13.89l-.88 1.4q-.21.34-.54.41-.34.08-.73-.16l-.76-.44q-.38-.22-.84-.38-.47-.16-1.05-.27-.58-.1-1.34-.1-1.23 0-2.22.41-1 .42-1.7 1.19t-1.08 1.85-.38 2.42q0 1.42.41 2.54t1.15 1.9 1.79 1.18q1.04.41 2.33.41.92 0 1.65-.19.72-.2 1.41-.53v-3.01h-2.09q-.3 0-.47-.17-.16-.17-.16-.41zm11.6 5.92h3.13q.86 0 1.45-.2.58-.21.93-.55.35-.35.51-.81.15-.46.15-.98 0-.54-.17-.97t-.54-.73q-.37-.31-.95-.47t-1.39-.16h-3.12zm2.63-11.82h-2.63v4.81h2.46q1.59 0 2.4-.57.81-.58.81-1.83 0-1.3-.74-1.86-.73-.55-2.3-.55m-5.72-2.39h5.72q1.64 0 2.8.31t1.9.89q.74.57 1.09 1.39.34.82.34 1.84 0 .58-.17 1.12-.17.53-.54 1-.36.47-.92.85-.55.37-1.32.64 3.42.77 3.42 3.7 0 1.06-.4 1.96-.4.89-1.17 1.54t-1.9 1.02-2.58.37h-6.27z"/></svg>