<svg xmlns="http://www.w3.org/2000/svg" width="100" height="100" viewBox="0 0 100 100"><rect width="100%" height="100%" fill="#dc2626"/><path fill="#ffffff" d="M25.115 49.455h2.61q1.17 0 2.05-.29.88-.3 1.44-.82.57-.52.85-1.23t.28-1.56q0-1.71-1.13-2.62-1.12-.92-3.43-.92h-2.67zm7.72 3.47 5.61 8.28h-3.76q-1.07 0-1.55-.84l-4.72-7.17q-.26-.41-.58-.58t-.94-.17h-1.78v8.76h-4.17v-22.41h6.84q2.28 0 3.91.47 1.64.47 2.68 1.33 1.05.85 1.55 2.03.49 1.19.49 2.62 0 1.13-.33 2.13-.33 1.01-.96 1.83t-1.55 1.44-2.1.98q.4.23.74.55t.62.75m29.42-2.93q0 2.47-.81 4.57-.82 2.1-2.31 3.63-1.48 1.54-3.58 2.4-2.09.86-4.65.86-2.54 0-4.63-.86t-3.59-2.4q-1.49-1.53-2.32-3.63-.82-2.1-.82-4.57 0-2.46.82-4.56.83-2.1 2.32-3.64 1.5-1.53 3.59-2.39t4.63-.86q1.71 0 3.21.39 1.51.4 2.76 1.12 1.26.72 2.26 1.75t1.69 2.3q.7 1.27 1.07 2.76.36 1.49.36 3.13m-4.26 0q0-1.84-.5-3.31-.49-1.46-1.41-2.48-.91-1.03-2.22-1.57t-2.96-.54q-1.64 0-2.95.54t-2.23 1.57q-.92 1.02-1.42 2.48-.49 1.47-.49 3.31 0 1.85.49 3.31.5 1.47 1.42 2.48.92 1.02 2.23 1.56t2.95.54q1.65 0 2.96-.54t2.22-1.56q.92-1.01 1.41-2.48.5-1.46.5-3.31m12.1 7.77h8.96v3.44h-13.13v-22.41h4.17z"/></svg>