<svg xmlns="http://www.w3.org/2000/svg" width="100" height="100" viewBox="0 0 100 100"><rect width="100%" height="100%" fill="#dc2626"/><path fill="#ffffff" d="m29.645 43.54-.73 1.4q-.14.23-.28.33-.15.11-.37.11-.23 0-.5-.17t-.65-.38q-.37-.21-.87-.38t-1.18-.17q-.62 0-1.08.15-.46.14-.78.41-.31.26-.46.63-.16.37-.16.81 0 .56.32.93.31.38.83.64.51.27 1.17.47.66.21 1.36.45.69.24 1.35.55t1.18.79q.51.48.83 1.17.31.7.31 1.69 0 1.08-.37 2.02t-1.08 1.63q-.71.7-1.73 1.1-1.02.41-2.34.41-.76 0-1.5-.15t-1.41-.43q-.68-.27-1.27-.66-.6-.38-1.06-.85l.87-1.42q.11-.16.29-.26.17-.11.37-.11.28 0 .59.23.32.23.76.5.44.28 1.03.5.59.23 1.42.23 1.26 0 1.95-.6.7-.6.7-1.72 0-.63-.32-1.03-.31-.39-.83-.66-.51-.27-1.17-.46t-1.35-.41q-.68-.22-1.34-.52-.66-.31-1.18-.81-.51-.49-.83-1.24-.31-.74-.31-1.83 0-.87.35-1.69.34-.83 1-1.46.66-.64 1.63-1.03.97-.38 2.22-.38 1.41 0 2.6.44t2.02 1.23m5.82 11.97h6.36v2.44h-9.32V42.04h2.96zm11.44-13.47v15.91h-2.97V42.04zM64.585 50q0 1.75-.58 3.21-.59 1.46-1.64 2.52-1.06 1.05-2.54 1.64-1.49.58-3.3.58h-6.06V42.04h6.06q1.81 0 3.3.59 1.48.59 2.54 1.64 1.05 1.05 1.64 2.52.58 1.46.58 3.21m-3.04 0q0-1.31-.34-2.35-.35-1.04-1-1.76-.66-.72-1.59-1.11-.93-.38-2.09-.38h-3.09v11.2h3.09q1.16 0 2.09-.39.93-.38 1.59-1.1.65-.72 1-1.76.34-1.04.34-2.35m8.99 1.94h5.06l-1.94-5.29q-.14-.35-.29-.83-.16-.49-.31-1.05-.14.56-.3 1.05-.15.49-.29.86zm4.04-9.9 6.25 15.91h-2.29q-.39 0-.63-.19t-.36-.48l-1.19-3.25h-6.59l-1.19 3.25q-.09.25-.34.46t-.63.21h-2.31l6.26-15.91z"/></svg>