<svg xmlns="http://www.w3.org/2000/svg" width="100" height="100" viewBox="0 0 100 100"><rect width="100%" height="100%" fill="#dc2626"/><path fill="#ffffff" d="m36.19 40.605-1.07 2.03q-.19.34-.41.49-.21.15-.53.15-.34 0-.73-.25-.39-.24-.94-.55-.54-.3-1.27-.55t-1.72-.25q-.9 0-1.57.22-.67.21-1.13.6-.45.38-.68.92-.22.53-.22 1.17 0 .82.46 1.36.45.55 1.2.93.76.39 1.72.69t1.96.65q1.01.34 1.97.8.96.45 1.71 1.15.76.7 1.21 1.7.46 1.01.46 2.45 0 1.57-.54 2.94-.53 1.37-1.57 2.38-1.03 1.02-2.52 1.6-1.48.59-3.4.59-1.11 0-2.18-.22t-2.06-.62q-.98-.4-1.84-.96-.87-.56-1.54-1.24l1.26-2.07q.16-.22.42-.37.26-.16.54-.16.4 0 .87.33.46.33 1.1.73t1.5.73q.85.33 2.05.33 1.84 0 2.85-.88 1.01-.87 1.01-2.5 0-.91-.46-1.49-.45-.57-1.2-.97-.76-.39-1.72-.66t-1.95-.59-1.95-.77-1.71-1.17-1.21-1.8-.46-2.66q0-1.27.51-2.47.5-1.2 1.46-2.12.96-.93 2.37-1.49t3.23-.56q2.05 0 3.78.64t2.94 1.79m8.47 17.41h9.24v3.55H40.35v-23.14h4.31zm34.38-8.02q0 2.55-.84 4.71-.84 2.17-2.38 3.76-1.53 1.58-3.69 2.47t-4.8.89q-2.63 0-4.79-.89t-3.7-2.47q-1.54-1.59-2.39-3.76-.85-2.16-.85-4.71 0-2.54.85-4.71t2.39-3.75q1.54-1.59 3.7-2.47 2.16-.89 4.79-.89 1.76 0 3.31.41 1.55.4 2.85 1.15 1.29.74 2.33 1.81 1.03 1.06 1.75 2.37t1.09 2.85q.38 1.54.38 3.23m-4.4 0q0-1.9-.51-3.41-.51-1.52-1.46-2.57-.94-1.06-2.29-1.62-1.36-.56-3.05-.56-1.7 0-3.05.56t-2.3 1.62q-.96 1.05-1.47 2.57-.51 1.51-.51 3.41 0 1.91.51 3.42t1.47 2.56q.95 1.05 2.3 1.61t3.05.56q1.69 0 3.05-.56 1.35-.56 2.29-1.61.95-1.05 1.46-2.56t.51-3.42"/></svg>