<svg xmlns="http://www.w3.org/2000/svg" width="100" height="100" viewBox="0 0 100 100"><rect width="100%" height="100%" fill="#dc2626"/><path fill="#ffffff" d="M30.08 42.77v2.21h-4.36v12.25h-2.69V44.98h-4.36v-2.21zm1.22 0h9.99v1.07q0 .48-.1.77-.1.3-.2.5l-5.48 11.28q-.17.35-.48.6-.31.24-.83.24h-1.79L38 46.18q.19-.34.38-.63.18-.28.41-.54h-6.92q-.23 0-.4-.17t-.17-.4zm14.97 7.27h2.01q.74 0 1.29-.19.55-.18.92-.53.36-.34.54-.84.18-.49.18-1.1 0-.58-.18-1.05t-.54-.8-.91-.51q-.55-.17-1.3-.17h-2.01zm-2.69-7.27h4.7q1.45 0 2.51.34t1.75.95 1.03 1.46q.33.85.33 1.86 0 1.05-.35 1.93-.35.87-1.05 1.5t-1.75.98q-1.06.35-2.47.35h-2.01v5.09h-2.69zm15.42 9h4.6l-1.76-4.81q-.13-.32-.27-.76t-.28-.95q-.13.51-.27.95-.14.45-.27.78zm3.67-9 5.68 14.46h-2.08q-.35 0-.57-.18-.22-.17-.33-.43l-1.08-2.95H58.3l-1.08 2.95q-.08.23-.31.42t-.57.19h-2.1l5.69-14.46zm18.66 0-5.27 8.86v5.6h-2.68v-5.6l-5.27-8.86h2.38q.34 0 .55.17.2.17.34.43l2.64 4.83q.23.43.41.81.17.38.31.76.13-.38.3-.76t.39-.81l2.63-4.83q.11-.22.33-.41t.56-.19z"/></svg>