<svg xmlns="http://www.w3.org/2000/svg" width="100" height="100" viewBox="0 0 100 100"><rect width="100%" height="100%" fill="#dc2626"/><path fill="#ffffff" d="M30.835 42.77v2.21h-4.36v12.25h-2.69V44.98h-4.36v-2.21zM45.575 50q0 1.59-.53 2.92t-1.49 2.29-2.31 1.49-3 .53h-5.51V42.77h5.51q1.65 0 3 .53 1.35.54 2.31 1.49.96.96 1.49 2.29t.53 2.92m-2.76 0q0-1.19-.31-2.14-.32-.94-.91-1.59-.6-.66-1.44-1.01-.85-.35-1.91-.35h-2.81v10.18h2.81q1.06 0 1.91-.35.84-.35 1.44-1.01.59-.65.91-1.59.31-.95.31-2.14m14.95-7.23h2.37v14.46h-1.38q-.32 0-.53-.1-.22-.11-.42-.36l-7.55-9.64q.06.66.06 1.22v8.88h-2.37V42.77h1.41q.17 0 .3.01.12.02.22.07.09.04.18.12.09.09.2.23l7.58 9.68q-.03-.35-.04-.69-.03-.34-.03-.63zm8.3 0v14.46h-2.71V42.77zm5.91 6.88h1.68q.77 0 1.33-.19t.93-.52q.37-.34.55-.8.17-.46.17-1.01 0-1.1-.72-1.69-.73-.59-2.22-.59h-1.72zm4.99 2.24 3.61 5.34h-2.43q-.68 0-1-.54l-3.04-4.63q-.17-.26-.37-.37t-.61-.11h-1.15v5.65h-2.69V42.77h4.41q1.48 0 2.53.3 1.06.31 1.73.86.68.55.99 1.32.32.76.32 1.68 0 .73-.21 1.38-.22.65-.62 1.18t-1 .93-1.36.63q.26.15.49.35.22.21.4.49"/></svg>