<svg xmlns="http://www.w3.org/2000/svg" width="100" height="100" viewBox="0 0 100 100"><rect width="100%" height="100%" fill="#dc2626"/><path fill="#ffffff" d="M37.225 55.915q.34 0 .61.27l1.64 1.78q-1.36 1.69-3.35 2.59-2 .9-4.79.9-2.49 0-4.48-.85-2-.86-3.41-2.38t-2.16-3.62q-.75-2.11-.75-4.61 0-2.52.81-4.62.8-2.1 2.27-3.62 1.46-1.52 3.49-2.37 2.03-.84 4.5-.84 2.45 0 4.34.8 1.9.81 3.24 2.11l-1.4 1.94q-.12.19-.32.33-.19.14-.53.14-.23 0-.48-.14-.25-.13-.54-.32-.3-.2-.69-.43-.38-.23-.89-.42-.52-.2-1.19-.33t-1.56-.13q-1.5 0-2.75.53-1.25.54-2.15 1.55-.9 1.02-1.39 2.48-.5 1.47-.5 3.34 0 1.89.54 3.37.53 1.47 1.45 2.48.91 1 2.15 1.54 1.24.53 2.67.53.85 0 1.54-.09t1.27-.29q.58-.21 1.1-.52.52-.32 1.03-.79.16-.14.33-.22.17-.09.35-.09m20.51 0q.34 0 .6.27l1.65 1.78q-1.37 1.69-3.36 2.59t-4.78.9q-2.5 0-4.49-.85-1.99-.86-3.4-2.38t-2.16-3.62q-.75-2.11-.75-4.61 0-2.52.8-4.62.81-2.1 2.27-3.62 1.47-1.52 3.5-2.37 2.03-.84 4.49-.84 2.45 0 4.35.8 1.9.81 3.23 2.11l-1.39 1.94q-.13.19-.32.33t-.53.14q-.24 0-.48-.14-.25-.13-.55-.32-.29-.2-.68-.43t-.9-.42q-.51-.2-1.18-.33-.68-.13-1.56-.13-1.51 0-2.75.53-1.25.54-2.15 1.55-.9 1.02-1.39 2.48-.5 1.47-.5 3.34 0 1.89.53 3.37.54 1.47 1.45 2.48.92 1 2.16 1.54 1.24.53 2.66.53.86 0 1.55-.09t1.27-.29q.58-.21 1.1-.52.52-.32 1.03-.79.15-.14.32-.22.17-.09.36-.09m9.28 2.04h4.22q1.16 0 1.95-.28t1.27-.75q.47-.46.68-1.08t.21-1.32q0-.73-.23-1.31-.24-.58-.73-.99-.5-.41-1.28-.63t-1.88-.22h-4.21zm3.55-15.94h-3.55v6.48h3.32q2.14 0 3.23-.77 1.1-.78 1.1-2.47 0-1.75-1-2.5-.99-.74-3.1-.74m-7.71-3.22h7.71q2.21 0 3.77.42 1.57.41 2.57 1.19 1 .77 1.46 1.87.47 1.11.47 2.48 0 .8-.24 1.52-.23.72-.72 1.34-.49.63-1.24 1.14t-1.79.87q4.62 1.04 4.62 4.99 0 1.43-.54 2.64t-1.58 2.08q-1.04.88-2.56 1.37-1.52.5-3.47.5h-8.46z"/></svg>