<svg xmlns="http://www.w3.org/2000/svg" width="100" height="100" viewBox="0 0 100 100"><rect width="100%" height="100%" fill="#dc2626"/><path fill="#ffffff" d="M30.805 53.82q.22 0 .39.17l1.06 1.15q-.88 1.09-2.16 1.67-1.29.58-3.09.58-1.61 0-2.89-.55-1.29-.55-2.2-1.53t-1.39-2.34q-.49-1.36-.49-2.97 0-1.63.52-2.98.52-1.36 1.47-2.34.94-.98 2.25-1.53 1.31-.54 2.9-.54 1.58 0 2.81.52 1.22.52 2.08 1.36l-.9 1.25q-.08.12-.2.21-.13.09-.35.09-.15 0-.31-.09-.16-.08-.35-.2-.19-.13-.44-.28t-.58-.28q-.33-.12-.76-.21-.44-.08-1.01-.08-.97 0-1.77.35-.81.34-1.39 1-.58.65-.9 1.6-.32.94-.32 2.15 0 1.22.35 2.17.34.95.93 1.6t1.39 1q.8.34 1.72.34.55 0 1-.06.44-.06.82-.19.37-.13.71-.34.33-.2.66-.5.1-.09.21-.14.11-.06.23-.06m13.4-11.05v2.21h-4.36v12.25h-2.69V44.98h-4.36v-2.21zm8.04 12.61h2.6v1.85h-8v-1.85h2.93v-8.43q0-.5.03-1.03l-2.08 1.74q-.18.14-.35.18-.18.03-.33 0-.16-.03-.28-.11-.12-.07-.18-.16l-.78-1.07 4.41-3.75h2.03zm13.83-11.25-.67 1.27q-.12.21-.25.3-.14.1-.34.1-.21 0-.45-.16-.25-.15-.59-.34t-.79-.35q-.46-.15-1.08-.15-.56 0-.98.14-.42.13-.7.37-.29.24-.43.57-.14.34-.14.74 0 .51.29.85.28.34.75.58t1.07.43 1.23.4q.63.22 1.23.51.6.28 1.07.71.47.44.76 1.07.28.63.28 1.53 0 .98-.33 1.84-.34.85-.98 1.48-.65.64-1.58 1-.93.37-2.13.37-.69 0-1.36-.13-.67-.14-1.28-.39-.62-.25-1.16-.6t-.96-.78l.79-1.29q.1-.14.26-.24.16-.09.34-.09.25 0 .54.2.29.21.69.46t.94.45q.53.21 1.28.21 1.15 0 1.78-.54.63-.55.63-1.57 0-.57-.28-.93-.29-.36-.76-.61-.47-.24-1.07-.41t-1.22-.37-1.22-.48-1.07-.73-.75-1.12q-.29-.68-.29-1.67 0-.79.32-1.54.31-.75.91-1.33t1.48-.93 2.02-.35q1.28 0 2.36.4t1.84 1.12m5.29 5.52h1.68q.76 0 1.33-.19.56-.19.93-.52.36-.34.54-.8t.18-1.01q0-1.1-.72-1.69-.73-.59-2.22-.59h-1.72zm4.98 2.24 3.62 5.34h-2.43q-.69 0-1-.54l-3.04-4.63q-.17-.26-.37-.37-.21-.11-.61-.11h-1.15v5.65h-2.69V42.77h4.41q1.47 0 2.53.3 1.05.31 1.73.86.67.55.99 1.32.32.76.32 1.68 0 .73-.21 1.38-.22.65-.62 1.18-.41.53-1 .93-.6.4-1.36.63.26.15.48.35.22.21.4.49"/></svg>