<svg xmlns="http://www.w3.org/2000/svg" width="100" height="100" viewBox="0 0 100 100"><rect width="100%" height="100%" fill="#dc2626"/><path fill="#ffffff" d="M34.12 39.885h3.78v20.24h-3.78v-8.85h-9.51v8.85h-3.78v-20.24h3.78v8.7h9.51zm27.59 10.12q0 2.22-.73 4.12-.74 1.9-2.08 3.28-1.34 1.39-3.23 2.17-1.89.77-4.2.77-2.3 0-4.19-.77-1.89-.78-3.24-2.17-1.35-1.38-2.09-3.28-.75-1.9-.75-4.12 0-2.23.75-4.13.74-1.89 2.09-3.28 1.35-1.38 3.24-2.16t4.19-.78q1.54 0 2.9.36 1.35.36 2.49 1.01 1.13.65 2.03 1.58.91.93 1.54 2.08t.96 2.49q.32 1.34.32 2.83m-3.84 0q0-1.67-.45-2.99t-1.28-2.25q-.82-.92-2.01-1.41-1.18-.49-2.66-.49-1.49 0-2.67.49t-2.02 1.41q-.83.93-1.28 2.25t-.45 2.99q0 1.66.45 2.99.45 1.32 1.28 2.24.84.91 2.02 1.4t2.67.49q1.48 0 2.66-.49 1.19-.49 2.01-1.4.83-.92 1.28-2.24.45-1.33.45-2.99m21.3-10.12v3.09h-6.1v17.15H69.3v-17.15h-6.1v-3.09z"/></svg>