<svg xmlns="http://www.w3.org/2000/svg" width="100" height="100" viewBox="0 0 100 100"><rect width="100%" height="100%" fill="#dc2626"/><path fill="#ffffff" d="M23.06 42.77v6.06h.63q.38 0 .63-.11.25-.1.43-.33l3.99-5.05q.25-.32.53-.45.27-.12.69-.12h2.32l-4.87 6.01q-.43.55-.89.78.33.12.59.34.27.21.51.56l5.02 6.77h-2.37q-.48 0-.72-.14-.23-.13-.39-.39l-4.09-5.34q-.19-.27-.44-.38t-.72-.11h-.85v6.36h-2.69V42.77zm13.71 0v6.06h.63q.38 0 .63-.11.25-.1.43-.33l3.99-5.05q.25-.32.52-.45.28-.12.7-.12h2.32l-4.87 6.01q-.43.55-.89.78.33.12.59.34.27.21.51.56l5.02 6.77h-2.37q-.48 0-.72-.14-.23-.13-.39-.39l-4.09-5.34q-.19-.27-.44-.38t-.72-.11h-.85v6.36h-2.69V42.77zM61.58 50q0 1.59-.53 2.94-.52 1.36-1.48 2.35t-2.31 1.54q-1.35.56-3 .56-1.64 0-2.99-.56-1.35-.55-2.32-1.54-.96-.99-1.49-2.35-.53-1.35-.53-2.94t.53-2.95q.53-1.35 1.49-2.34.97-.99 2.32-1.54 1.35-.56 2.99-.56 1.1 0 2.07.25.97.26 1.78.73.81.46 1.45 1.12.65.67 1.1 1.49t.69 1.78q.23.96.23 2.02m-2.75 0q0-1.19-.32-2.14-.32-.94-.91-1.6t-1.44-1.01q-.84-.35-1.9-.35t-1.91.35q-.84.35-1.43 1.01-.6.66-.92 1.6-.32.95-.32 2.14t.32 2.14q.32.94.92 1.59.59.66 1.43 1.01.85.35 1.91.35t1.9-.35q.85-.35 1.44-1.01.59-.65.91-1.59.32-.95.32-2.14m18.77-7.23h2.03v14.46h-2.37v-9.34q0-.56.06-1.21l-4.37 8.21q-.31.59-.95.59h-.38q-.64 0-.95-.59l-4.42-8.24q.03.33.05.65t.02.59v9.34h-2.37V42.77h2.03q.18 0 .31.01t.23.05q.11.04.19.13.09.09.17.24l4.33 8.03q.17.32.31.66.15.34.29.7.14-.37.29-.72.15-.34.32-.66l4.27-8.01q.08-.15.17-.24t.19-.13q.11-.04.24-.05t.31-.01"/></svg>