<svg xmlns="http://www.w3.org/2000/svg" width="100" height="100" viewBox="0 0 100 100"><rect width="100%" height="100%" fill="#dc2626"/><path fill="#ffffff" d="M47.98 59.365q.54 0 .95.41l2.6 2.82q-2.15 2.67-5.3 4.09t-7.56 1.42q-3.95 0-7.09-1.35-3.15-1.34-5.38-3.74-2.23-2.41-3.42-5.74t-1.19-7.27q0-4 1.28-7.32 1.27-3.32 3.59-5.72 2.31-2.4 5.52-3.73 3.21-1.34 7.11-1.34 3.87 0 6.87 1.27 3 1.28 5.11 3.34l-2.21 3.06q-.19.29-.5.51t-.85.22q-.36 0-.76-.2-.39-.21-.85-.52-.47-.3-1.08-.67t-1.42-.68q-.81-.3-1.88-.51-1.06-.21-2.46-.21-2.38 0-4.35.85-1.97.84-3.39 2.45-1.42 1.6-2.21 3.92-.78 2.31-.78 5.28 0 2.99.85 5.31.84 2.33 2.29 3.92 1.44 1.6 3.4 2.44 1.96.85 4.22.85 1.34 0 2.43-.15t2.01-.47 1.74-.82 1.63-1.23q.25-.23.52-.36t.56-.13m30.43-21.83H62.68v10.48h13.28v5.27H62.68v14.43h-6.62v-35.43h22.35z"/></svg>