<svg xmlns="http://www.w3.org/2000/svg" width="100" height="100" viewBox="0 0 100 100"><rect width="100%" height="100%" fill="#dc2626"/><path fill="#ffffff" d="M25.465 49.42h2.77q1.25 0 2.18-.31.94-.31 1.54-.87.6-.55.9-1.31.29-.76.29-1.66 0-1.82-1.19-2.79-1.2-.98-3.66-.98h-2.83zm8.21 3.7 5.98 8.81h-4.01q-1.14 0-1.65-.89l-5.02-7.64q-.28-.43-.62-.61t-1-.18h-1.89v9.32h-4.44V38.07h7.27q2.43 0 4.17.5 1.74.51 2.85 1.41 1.12.91 1.65 2.17.52 1.27.52 2.78 0 1.21-.35 2.28-.36 1.07-1.02 1.95-.67.87-1.65 1.53-.99.66-2.24 1.04.43.25.79.59.37.34.66.8m22.38-12.81-1.11 2.1q-.2.35-.42.5-.22.16-.55.16-.35 0-.75-.26-.41-.25-.97-.56-.56-.32-1.31-.57-.75-.26-1.77-.26-.93 0-1.62.22-.69.23-1.16.62-.47.4-.71.95-.23.55-.23 1.21 0 .85.47 1.41t1.25.95q.78.4 1.77.71.99.32 2.02.67 1.04.36 2.03.83t1.77 1.18q.78.72 1.25 1.76t.47 2.53q0 1.61-.56 3.02-.55 1.41-1.61 2.46-1.07 1.05-2.6 1.65-1.54.6-3.52.6-1.14 0-2.24-.22-1.11-.22-2.12-.63-1.02-.42-1.91-.99-.89-.58-1.58-1.29l1.3-2.13q.17-.23.43-.39.27-.15.56-.15.41 0 .89.33.48.34 1.14.75.66.42 1.54.76.89.33 2.12.33 1.9 0 2.94-.9 1.04-.89 1.04-2.58 0-.94-.47-1.53-.47-.6-1.24-1-.78-.4-1.77-.69-.99-.28-2.01-.61-1.03-.33-2.02-.79t-1.76-1.2q-.78-.74-1.25-1.86-.47-1.11-.47-2.75 0-1.3.52-2.54.52-1.23 1.51-2.19t2.44-1.54q1.46-.57 3.34-.57 2.11 0 3.89.66t3.04 1.84m8.73 9.11h2.77q1.25 0 2.18-.31.94-.31 1.54-.87.6-.55.9-1.31.29-.76.29-1.66 0-1.82-1.19-2.79-1.2-.98-3.66-.98h-2.83zm8.21 3.7 5.98 8.81h-4.01q-1.14 0-1.65-.89l-5.02-7.64q-.28-.43-.62-.61t-1-.18h-1.89v9.32h-4.44V38.07h7.27q2.43 0 4.17.5 1.74.51 2.85 1.41 1.12.91 1.65 2.17.52 1.27.52 2.78 0 1.21-.35 2.28-.36 1.07-1.02 1.95-.67.87-1.65 1.53-.99.66-2.24 1.04.43.25.79.59.37.34.66.8"/></svg>