<svg xmlns="http://www.w3.org/2000/svg" width="100" height="100" viewBox="0 0 100 100"><rect width="100%" height="100%" fill="#dc2626"/><path fill="#ffffff" d="M44.145 49.995q0 2.55-.84 4.71-.84 2.17-2.38 3.76-1.53 1.58-3.69 2.47t-4.8.89q-2.63 0-4.79-.89t-3.7-2.47q-1.54-1.59-2.39-3.76-.85-2.16-.85-4.71 0-2.54.85-4.71t2.39-3.75q1.54-1.59 3.7-2.47 2.16-.89 4.79-.89 1.76 0 3.31.41 1.55.4 2.85 1.15 1.29.74 2.33 1.81 1.03 1.06 1.75 2.37t1.09 2.85q.38 1.54.38 3.23m-4.4 0q0-1.9-.51-3.41-.51-1.52-1.46-2.57-.94-1.06-2.29-1.62-1.36-.56-3.05-.56-1.7 0-3.05.56t-2.3 1.62q-.96 1.05-1.47 2.57-.51 1.51-.51 3.41 0 1.91.51 3.42t1.47 2.56q.95 1.05 2.3 1.61t3.05.56q1.69 0 3.05-.56 1.35-.56 2.29-1.61.95-1.05 1.46-2.56t.51-3.42m21.58-9.39-1.07 2.03q-.19.34-.41.49-.21.15-.53.15-.34 0-.73-.25-.39-.24-.94-.55-.54-.3-1.27-.55t-1.72-.25q-.89 0-1.57.22-.67.21-1.12.6-.46.38-.68.92-.23.53-.23 1.17 0 .82.46 1.36.45.55 1.21.93.75.39 1.71.69t1.97.65q1 .34 1.96.8.96.45 1.72 1.15.75.7 1.2 1.7.46 1.01.46 2.45 0 1.57-.54 2.94-.53 1.37-1.56 2.38-1.04 1.02-2.52 1.6-1.49.59-3.41.59-1.11 0-2.18-.22t-2.05-.62q-.99-.4-1.85-.96-.87-.56-1.54-1.24l1.27-2.07q.16-.22.41-.37.26-.16.55-.16.4 0 .86.33t1.1.73 1.5.73 2.06.33q1.84 0 2.84-.88 1.01-.87 1.01-2.5 0-.91-.45-1.49-.46-.57-1.21-.97-.75-.39-1.71-.66t-1.96-.59q-.99-.32-1.95-.77t-1.71-1.17-1.21-1.8q-.45-1.08-.45-2.66 0-1.27.5-2.47t1.46-2.12q.96-.93 2.37-1.49t3.23-.56q2.05 0 3.78.64t2.94 1.79m17.56 0-1.08 2.03q-.19.34-.4.49-.22.15-.54.15-.34 0-.73-.25-.39-.24-.93-.55-.55-.3-1.28-.55-.72-.25-1.72-.25-.89 0-1.56.22-.68.21-1.13.6-.46.38-.68.92-.23.53-.23 1.17 0 .82.46 1.36.46.55 1.21.93.75.39 1.71.69t1.97.65q1.01.34 1.97.8.96.45 1.71 1.15t1.21 1.7q.45 1.01.45 2.45 0 1.57-.53 2.94-.54 1.37-1.57 2.38-1.03 1.02-2.52 1.6-1.49.59-3.41.59-1.1 0-2.18-.22-1.07-.22-2.05-.62-.99-.4-1.85-.96t-1.54-1.24l1.27-2.07q.16-.22.41-.37.26-.16.55-.16.4 0 .86.33.47.33 1.11.73t1.49.73q.86.33 2.06.33 1.84 0 2.85-.88 1-.87 1-2.5 0-.91-.45-1.49-.46-.57-1.21-.97-.75-.39-1.71-.66t-1.95-.59q-1-.32-1.96-.77t-1.71-1.17-1.21-1.8q-.45-1.08-.45-2.66 0-1.27.5-2.47.51-1.2 1.47-2.12.96-.93 2.36-1.49 1.41-.56 3.24-.56 2.04 0 3.77.64t2.95 1.79"/></svg>