<svg xmlns="http://www.w3.org/2000/svg" width="100" height="100" viewBox="0 0 100 100"><rect width="100%" height="100%" fill="#dc2626"/><path fill="#ffffff" d="M25.325 49.495h2.44q1.1 0 1.92-.28.82-.27 1.35-.76.53-.48.79-1.15t.26-1.47q0-1.59-1.05-2.45-1.05-.85-3.21-.85h-2.5zm7.23 3.25 5.24 7.74h-3.52q-1 0-1.45-.78l-4.41-6.72q-.24-.37-.54-.53t-.88-.16h-1.67v8.19h-3.9v-20.97h6.4q2.13 0 3.66.45 1.53.44 2.51 1.23.98.8 1.44 1.91.47 1.11.47 2.44 0 1.06-.32 2.01-.31.94-.9 1.71-.58.77-1.45 1.35-.86.58-1.96.91.38.22.7.51.31.3.58.71m11.42-13.23v8.79h.92q.55 0 .91-.15t.62-.49l5.79-7.32q.36-.46.76-.65.4-.18 1.01-.18h3.36l-7.06 8.72q-.62.79-1.29 1.13.48.17.86.48.39.32.73.82l7.28 9.82h-3.43q-.7 0-1.04-.2-.34-.19-.57-.57l-5.93-7.74q-.28-.39-.64-.55t-1.05-.16h-1.23v9.22h-3.9v-20.97zm34.6 10.49q0 2.3-.77 4.23t-2.16 3.32-3.35 2.16-4.35.77h-7.99v-20.97h7.99q2.39 0 4.35.78 1.96.77 3.35 2.16 1.39 1.38 2.16 3.31t.77 4.24m-4 0q0-1.73-.46-3.1t-1.32-2.32-2.09-1.46q-1.22-.5-2.76-.5h-4.07v14.76h4.07q1.54 0 2.76-.51 1.23-.51 2.09-1.46t1.32-2.32.46-3.09"/></svg>