<svg xmlns="http://www.w3.org/2000/svg" width="100" height="100" viewBox="0 0 100 100"><rect width="100%" height="100%" fill="#dc2626"/><path fill="#ffffff" d="M29.735 57.475q1.17 0 2.09-.4.93-.39 1.55-1.09.64-.7.97-1.71.34-1.01.34-2.25v-12.99h4.03v12.99q0 1.94-.62 3.58t-1.78 2.83q-1.17 1.2-2.83 1.86-1.67.67-3.75.67-2.1 0-3.77-.67-1.66-.66-2.82-1.86-1.16-1.19-1.79-2.83-.62-1.64-.62-3.58v-12.99h4.03v12.98q0 1.24.34 2.25.34 1 .98 1.71.63.71 1.56 1.1.92.4 2.09.4m18.1-4.94h6.9l-2.64-7.21q-.19-.48-.4-1.14t-.42-1.43q-.2.77-.41 1.43-.21.67-.4 1.16zm5.51-13.5 8.52 21.69h-3.12q-.53 0-.86-.26-.33-.27-.49-.65l-1.62-4.43h-8.99l-1.62 4.43q-.12.34-.46.63-.35.28-.86.28h-3.15l8.54-21.69zm25.92 0v3.31h-6.54v18.38h-4.04v-18.38h-6.54v-3.31z"/></svg>