<svg xmlns="http://www.w3.org/2000/svg" width="100" height="100" viewBox="0 0 100 100"><rect width="100%" height="100%" fill="#dc2626"/><path fill="#ffffff" d="M26.655 49.985h4.08v4.97q-.94.69-2 1.01-1.05.32-2.26.32-1.51 0-2.73-.47t-2.08-1.3q-.86-.84-1.33-1.99-.47-1.16-.47-2.53 0-1.38.45-2.54.46-1.15 1.28-1.99.83-.83 2.01-1.29 1.19-.46 2.66-.46.74 0 1.39.12t1.21.33 1.02.5q.46.3.84.66l-.66 1.04q-.15.24-.4.3-.24.05-.53-.13l-.56-.32q-.28-.16-.63-.28-.34-.12-.77-.19-.43-.08-.99-.08-.91 0-1.65.31-.73.3-1.25.87t-.8 1.37-.28 1.78q0 1.06.3 1.89.31.83.85 1.4.55.57 1.33.88.77.3 1.72.3.68 0 1.22-.15.53-.14 1.04-.39v-2.23h-1.55q-.22 0-.34-.12t-.12-.3zm8.87 1.52h3.91l-1.49-4.09q-.12-.27-.23-.65-.12-.37-.24-.8-.11.43-.23.81t-.23.66zm3.12-7.65 4.83 12.29h-1.77q-.3 0-.48-.15-.19-.15-.28-.37l-.92-2.51h-5.09l-.92 2.51q-.07.2-.27.36-.19.16-.48.16h-1.78l4.83-12.29zm14.69 0v1.88h-3.71v10.41h-2.28v-10.41h-3.71v-1.88zm3.9 10.4h4.91v1.89h-7.2v-12.29h2.29zm21.11-10.4h1.79l-3.82 12.29h-2.06l-2.69-8.4q-.11-.3-.2-.75-.05.22-.1.4-.06.19-.12.35l-2.71 8.4h-2.07l-3.81-12.29h1.91q.3 0 .5.14t.27.38l2.09 7.35q.07.27.13.59.07.32.13.67.07-.36.15-.67.08-.32.18-.59l2.41-7.35q.07-.2.27-.36t.49-.16h.67q.3 0 .48.14.19.15.28.38l2.41 7.35q.18.53.32 1.22.11-.68.25-1.22l2.09-7.35q.05-.22.26-.37t.5-.15"/></svg>