<svg xmlns="http://www.w3.org/2000/svg" width="100" height="100" viewBox="0 0 100 100"><rect width="100%" height="100%" fill="#dc2626"/><path fill="#ffffff" d="M24.345 52.125h5.52l-2.12-5.77q-.15-.39-.32-.92-.17-.52-.34-1.14-.15.62-.32 1.15t-.32.93zm4.4-10.8 6.82 17.35h-2.5q-.42 0-.68-.21-.27-.21-.4-.52l-1.3-3.54h-7.18l-1.3 3.54q-.1.27-.37.5-.28.23-.69.23h-2.52l6.83-17.35zm19.56 2.57h-7.7v4.81h6.07v2.48h-6.07v4.91h7.7v2.58h-10.94v-17.35h10.94zm6.5 8.23h5.52l-2.11-5.77q-.15-.39-.32-.92-.17-.52-.34-1.14-.15.62-.32 1.15t-.33.93zm4.41-10.8 6.81 17.35h-2.49q-.42 0-.69-.21-.26-.21-.39-.52l-1.3-3.54h-7.19l-1.29 3.54q-.1.27-.37.5-.28.23-.69.23h-2.52l6.83-17.35zm11.84 8.25h2.02q.91 0 1.59-.22.68-.23 1.11-.63.44-.41.66-.96.21-.55.21-1.21 0-1.32-.87-2.03t-2.65-.71h-2.07zm5.98 2.69 4.34 6.41h-2.91q-.83 0-1.2-.65l-3.65-5.55q-.21-.32-.45-.45-.25-.13-.73-.13h-1.38v6.78h-3.23v-17.35h5.3q1.76 0 3.03.36 1.26.37 2.07 1.03t1.2 1.58q.38.92.38 2.02 0 .88-.26 1.66t-.74 1.41q-.49.64-1.2 1.12-.72.48-1.63.75.31.18.58.43.26.25.48.58"/></svg>