<svg xmlns="http://www.w3.org/2000/svg" width="100" height="100" viewBox="0 0 100 100"><rect width="100%" height="100%" fill="#dc2626"/><path fill="#ffffff" d="M23.91 55.64h2.99q.82 0 1.38-.2t.9-.53.48-.77q.15-.44.15-.93 0-.52-.16-.93-.17-.41-.52-.7-.35-.3-.91-.45-.55-.15-1.33-.15h-2.98zm2.52-11.31h-2.52v4.6h2.35q1.52 0 2.29-.55.78-.55.78-1.75 0-1.24-.7-1.77-.71-.53-2.2-.53m-5.48-2.29h5.48q1.56 0 2.67.3t1.82.85 1.04 1.33.33 1.76q0 .56-.17 1.07-.16.51-.51.96-.34.44-.88.81-.53.36-1.27.61 3.28.74 3.28 3.55 0 1.01-.39 1.87-.38.85-1.12 1.47-.73.63-1.81.98t-2.47.35h-6zm17.44 13.6h3q.82 0 1.38-.2t.9-.53q.33-.33.48-.77t.15-.93q0-.52-.16-.93-.17-.41-.52-.7-.35-.3-.91-.45t-1.34-.15h-2.98zm2.52-11.31h-2.52v4.6h2.36q1.52 0 2.29-.55.78-.55.78-1.75 0-1.24-.71-1.77-.7-.53-2.2-.53m-5.48-2.29h5.48q1.56 0 2.67.3 1.12.3 1.83.85t1.04 1.33.33 1.76q0 .56-.17 1.07-.16.51-.51.96-.35.44-.88.81-.53.36-1.27.61 3.28.74 3.28 3.55 0 1.01-.39 1.87-.38.85-1.12 1.47-.74.63-1.82.98-1.07.35-2.46.35h-6.01zM65.09 50q0 1.75-.58 3.24t-1.63 2.58q-1.06 1.09-2.54 1.7-1.49.61-3.3.61t-3.29-.61q-1.49-.61-2.55-1.7t-1.64-2.58q-.59-1.49-.59-3.24t.59-3.24q.58-1.49 1.64-2.58t2.55-1.7q1.48-.61 3.29-.61 1.21 0 2.27.28 1.07.28 1.96.79t1.6 1.24q.71.74 1.21 1.64.49.9.75 1.96.26 1.05.26 2.22m-3.03 0q0-1.31-.35-2.35t-1-1.77q-.65-.72-1.58-1.11-.93-.38-2.09-.38-1.17 0-2.1.38-.93.39-1.58 1.11-.66.73-1.01 1.77T52 50t.35 2.35 1.01 1.76q.65.72 1.58 1.1.93.39 2.1.39 1.16 0 2.09-.39.93-.38 1.58-1.1t1-1.76.35-2.35m8.6.04h2.21q.81 0 1.42-.2.6-.21 1-.59.4-.37.6-.92.2-.54.2-1.21 0-.64-.2-1.16t-.59-.88q-.4-.36-1-.56-.61-.19-1.43-.19h-2.21zm-2.96-8h5.17q1.59 0 2.76.38 1.16.37 1.92 1.04t1.13 1.61q.37.93.37 2.05 0 1.15-.39 2.11-.38.97-1.15 1.66t-1.93 1.08q-1.16.38-2.71.38h-2.21v5.6H67.7z"/></svg>