<svg xmlns="http://www.w3.org/2000/svg" width="100" height="100" viewBox="0 0 100 100"><rect width="100%" height="100%" fill="#dc2626"/><path fill="#ffffff" d="M27.955 61.8h6.26q1.72 0 2.89-.41 1.18-.42 1.88-1.11t1.01-1.61.31-1.95q0-1.08-.34-1.95-.35-.86-1.08-1.47-.74-.61-1.9-.93t-2.8-.32h-6.23zm5.27-23.64h-5.27v9.61h4.92q3.18 0 4.8-1.15t1.62-3.66q0-2.6-1.47-3.7t-4.6-1.1m-11.46-4.79h11.46q3.26 0 5.59.62 2.32.62 3.8 1.77 1.49 1.15 2.18 2.79.69 1.63.69 3.68 0 1.17-.35 2.24-.34 1.07-1.07 2-.72.93-1.84 1.69-1.11.76-2.66 1.29 6.86 1.54 6.86 7.4 0 2.12-.81 3.91-.8 1.8-2.34 3.1t-3.8 2.03q-2.25.74-5.15.74h-12.56zm53.13 25.42q.51 0 .9.39l2.44 2.64q-2.03 2.51-4.98 3.84-2.96 1.34-7.1 1.34-3.7 0-6.66-1.27-2.95-1.26-5.04-3.52-2.1-2.25-3.21-5.38-1.12-3.13-1.12-6.83 0-3.75 1.2-6.86 1.19-3.12 3.37-5.37 2.17-2.26 5.18-3.51 3.02-1.26 6.67-1.26 3.64 0 6.46 1.2 2.81 1.2 4.79 3.13l-2.07 2.87q-.18.28-.47.49-.29.2-.79.2-.35 0-.72-.19-.36-.2-.8-.49-.44-.28-1.01-.63-.58-.34-1.34-.63t-1.76-.48q-1-.2-2.31-.2-2.23 0-4.08.79-1.85.8-3.19 2.3-1.33 1.51-2.07 3.68-.73 2.18-.73 4.96 0 2.81.79 4.99.79 2.19 2.15 3.68 1.36 1.5 3.2 2.29t3.95.79q1.27 0 2.29-.13 1.03-.14 1.89-.44t1.63-.77 1.53-1.16q.23-.21.48-.34.26-.12.53-.12"/></svg>