<svg xmlns="http://www.w3.org/2000/svg" width="100" height="100" viewBox="0 0 100 100"><rect width="100%" height="100%" fill="#dc2626"/><path fill="#ffffff" d="M25.11 57.955h4.21q1.17 0 1.96-.28t1.26-.75q.47-.46.68-1.08t.21-1.32q0-.73-.23-1.31t-.73-.99-1.28-.63-1.88-.22h-4.2zm3.55-15.94h-3.55v6.48h3.32q2.13 0 3.23-.77 1.09-.78 1.09-2.47 0-1.75-.99-2.5-.99-.74-3.1-.74m-7.72-3.22h7.72q2.2 0 3.76.42 1.57.41 2.57 1.19 1 .77 1.46 1.87.47 1.11.47 2.48 0 .8-.23 1.52-.24.72-.72 1.34-.49.63-1.24 1.14-.76.51-1.79.87 4.61 1.04 4.61 4.99 0 1.43-.54 2.64t-1.58 2.08q-1.04.88-2.56 1.37-1.52.5-3.47.5h-8.46zm40.31 11.2q0 2.47-.82 4.53t-2.31 3.55q-1.48 1.49-3.58 2.31-2.09.82-4.65.82h-8.54v-22.41h8.54q2.56 0 4.65.83 2.1.83 3.58 2.31 1.49 1.48 2.31 3.54t.82 4.52m-4.27 0q0-1.84-.49-3.31-.49-1.46-1.41-2.48-.92-1.01-2.23-1.55-1.31-.55-2.96-.55h-4.35v15.78h4.35q1.65 0 2.96-.54t2.23-1.56q.92-1.01 1.41-2.48.49-1.46.49-3.31m22.08-7.89h-9.95v6.22h7.85v3.21h-7.85v6.34h9.95v3.33H64.93v-22.41h14.13z"/></svg>