<svg xmlns="http://www.w3.org/2000/svg" width="100" height="100" viewBox="0 0 100 100"><rect width="100%" height="100%" fill="#dc2626"/><path fill="#ffffff" d="M28.32 61.285h5.99q1.65 0 2.77-.4 1.12-.39 1.79-1.05t.97-1.54.3-1.87q0-1.04-.33-1.86-.33-.83-1.04-1.41-.7-.58-1.81-.89t-2.68-.31h-5.96zm5.04-22.62h-5.04v9.2h4.71q3.04 0 4.59-1.1t1.55-3.5q0-2.48-1.41-3.54t-4.4-1.06m-10.96-4.57h10.96q3.12 0 5.35.59 2.22.6 3.64 1.7t2.08 2.66.66 3.52q0 1.12-.33 2.14-.33 1.03-1.03 1.92-.69.89-1.76 1.61-1.06.73-2.54 1.24 6.56 1.47 6.56 7.08 0 2.02-.77 3.74t-2.25 2.96q-1.47 1.24-3.63 1.95-2.15.7-4.92.7H22.4zm44.64 15.86H77.6v12.87q-2.42 1.78-5.16 2.61-2.74.82-5.86.82-3.89 0-7.05-1.21t-5.39-3.36q-2.24-2.16-3.44-5.15-1.21-2.99-1.21-6.54 0-3.58 1.16-6.57 1.17-3 3.31-5.15 2.15-2.16 5.21-3.35 3.05-1.18 6.86-1.18 1.93 0 3.62.3 1.68.31 3.12.85t2.63 1.31 2.18 1.69l-1.7 2.69q-.39.64-1.03.78t-1.39-.32q-.72-.42-1.45-.84-.72-.41-1.61-.72-.9-.31-2.01-.51t-2.56-.2q-2.35 0-4.26.8-1.9.79-3.24 2.26-1.34 1.48-2.07 3.54-.73 2.07-.73 4.62 0 2.73.79 4.88.78 2.14 2.2 3.63 1.42 1.48 3.42 2.26t4.46.78q1.76 0 3.15-.37 1.38-.37 2.7-1.01v-5.77h-4q-.57 0-.89-.31-.32-.32-.32-.79z"/></svg>