<svg xmlns="http://www.w3.org/2000/svg" width="100" height="100" viewBox="0 0 100 100"><rect width="100%" height="100%" fill="#dc2626"/><path fill="#ffffff" d="M29.02 60.775h5.71q1.58 0 2.65-.38t1.71-1.01.92-1.47q.29-.84.29-1.78 0-.99-.32-1.78-.31-.78-.98-1.34-.68-.56-1.74-.85t-2.55-.29h-5.69zm4.81-21.59h-4.81v8.78h4.5q2.89 0 4.37-1.05t1.48-3.34q0-2.37-1.34-3.38t-4.2-1.01m-10.46-4.37h10.46q2.98 0 5.1.57t3.48 1.62q1.35 1.05 1.98 2.54t.63 3.36q0 1.07-.31 2.05-.32.97-.98 1.82t-1.68 1.55q-1.02.69-2.42 1.17 6.25 1.41 6.25 6.76 0 1.94-.73 3.57-.74 1.64-2.14 2.83-1.41 1.19-3.47 1.86t-4.7.67H23.37zm47.59 0h5.67v30.37h-5.67v-13.27H56.7v13.27h-5.67v-30.37h5.67v13.07h14.26z"/></svg>