<svg xmlns="http://www.w3.org/2000/svg" width="100" height="100" viewBox="0 0 100 100"><rect width="100%" height="100%" fill="#dc2626"/><path fill="#ffffff" d="M23.71 55.38h2.86q.79 0 1.32-.18.54-.19.86-.51.32-.31.46-.73t.14-.9q0-.49-.16-.88-.15-.4-.49-.67-.34-.28-.87-.43t-1.27-.15h-2.85zm2.41-10.79h-2.41v4.39h2.25q1.45 0 2.19-.52.74-.53.74-1.67 0-1.19-.67-1.7-.68-.5-2.1-.5m-5.23-2.18h5.23q1.49 0 2.55.28t1.74.81q.67.52.99 1.27.31.74.31 1.68 0 .53-.15 1.02-.16.49-.49.92-.33.42-.84.77-.51.34-1.22.59 3.13.7 3.13 3.38 0 .96-.36 1.78-.37.82-1.07 1.41-.71.6-1.74.93-1.03.34-2.35.34h-5.73zm28.16 0h2.13v15.18h-2.49v-9.81q0-.59.06-1.27l-4.58 8.62q-.33.62-1 .62h-.4q-.67 0-1-.62l-4.64-8.65q.03.35.05.68.02.34.02.62v9.81h-2.48V42.41h2.13q.19 0 .32.01.14.01.25.05t.2.14q.09.09.17.25l4.55 8.43q.18.34.33.69.15.36.3.74.15-.39.3-.75.16-.37.34-.7l4.48-8.41q.09-.16.18-.25.1-.1.21-.14t.24-.05q.14-.01.33-.01m16.12 0v2.32h-4.58v12.86h-2.83V44.73h-4.57v-2.32zm12.42 11.6q.23 0 .41.18l1.11 1.21q-.92 1.14-2.27 1.75t-3.24.61q-1.69 0-3.04-.58t-2.31-1.61q-.95-1.03-1.46-2.45-.51-1.43-.51-3.12 0-1.71.55-3.14.54-1.42 1.53-2.45 1-1.03 2.37-1.6 1.38-.57 3.05-.57 1.66 0 2.94.54 1.29.55 2.19 1.43l-.94 1.32q-.09.12-.22.22-.13.09-.36.09-.16 0-.33-.09-.16-.09-.36-.22t-.47-.29q-.26-.16-.61-.29-.34-.13-.8-.22t-1.05-.09q-1.02 0-1.87.37-.84.36-1.45 1.05-.61.68-.95 1.68-.33.99-.33 2.26 0 1.28.36 2.28.36.99.98 1.68.62.68 1.46 1.04t1.81.36q.57 0 1.04-.06t.86-.2q.4-.14.75-.35.35-.22.7-.53.1-.1.22-.15.11-.06.24-.06"/></svg>