<svg xmlns="http://www.w3.org/2000/svg" width="100" height="100" viewBox="0 0 100 100"><rect width="100%" height="100%" fill="#dc2626"/><path fill="#ffffff" d="M24.195 57.435h3.95q1.09 0 1.83-.26.73-.26 1.18-.69.44-.44.63-1.02.2-.58.2-1.23 0-.68-.22-1.22-.21-.55-.68-.93-.46-.39-1.19-.59-.74-.2-1.77-.2h-3.93zm3.32-14.9h-3.32v6.06h3.11q2 0 3.02-.73 1.02-.72 1.02-2.3 0-1.64-.93-2.34-.92-.69-2.9-.69m-7.22-3.02h7.22q2.06 0 3.53.39 1.46.4 2.4 1.12.93.73 1.37 1.76.43 1.02.43 2.32 0 .73-.21 1.41-.22.67-.68 1.26t-1.16 1.07q-.7.47-1.67.81 4.32.97 4.32 4.67 0 1.33-.51 2.46t-1.48 1.95-2.39 1.29q-1.42.46-3.25.46h-7.92zm33.34 0h3.44v20.97h-2.01q-.46 0-.77-.15t-.6-.52l-10.95-13.98q.09.96.09 1.77v12.88h-3.44v-20.97h2.04q.25 0 .43.02.18.03.32.09.14.07.27.19t.29.33l10.99 14.03q-.04-.51-.07-1t-.03-.91zm12.51 13.05h6.67l-2.55-6.97q-.19-.47-.39-1.1-.2-.64-.41-1.38-.19.74-.39 1.38-.2.65-.39 1.13zm5.32-13.05 8.24 20.97h-3.02q-.5 0-.82-.25-.32-.26-.48-.63l-1.57-4.28h-8.68l-1.57 4.28q-.11.33-.45.6-.33.28-.82.28h-3.05l8.25-20.97z"/></svg>