<svg xmlns="http://www.w3.org/2000/svg" width="100" height="100" viewBox="0 0 100 100"><rect width="100%" height="100%" fill="#dc2626"/><path fill="#ffffff" d="M25.76 57.695h4.08q1.12 0 1.89-.27.76-.27 1.22-.72t.66-1.05q.21-.6.21-1.27 0-.71-.23-1.27-.22-.56-.7-.96t-1.24-.61-1.83-.21h-4.06zm3.44-15.42h-3.44v6.27h3.21q2.07 0 3.13-.75t1.06-2.38q0-1.7-.96-2.42t-3-.72m-7.47-3.12h7.47q2.12 0 3.64.4 1.52.41 2.48 1.16.97.75 1.42 1.82.45 1.06.45 2.4 0 .76-.23 1.46-.22.7-.69 1.3-.47.61-1.2 1.11-.73.49-1.73.83 4.47 1.01 4.47 4.83 0 1.38-.53 2.56-.52 1.17-1.53 2.01-1.01.85-2.47 1.33-1.47.48-3.36.48h-8.19zm34.48 0h3.55v21.69h-2.07q-.48 0-.8-.16t-.62-.53l-11.32-14.46q.09.99.09 1.83v13.32h-3.56v-21.69h2.12q.25 0 .44.02.19.03.33.09.14.07.28.2.13.13.3.34l11.37 14.52q-.05-.53-.08-1.04t-.03-.94zm22.06 3.21h-9.63v6.02h7.59v3.1h-7.59v6.13h9.63v3.23H64.59v-21.69h13.68z"/></svg>