<svg xmlns="http://www.w3.org/2000/svg" width="100" height="100" viewBox="0 0 100 100"><rect width="100%" height="100%" fill="#dc2626"/><path fill="#ffffff" d="M26.68 58.975h4.76q1.32 0 2.21-.31.89-.32 1.42-.84.54-.53.77-1.23.24-.7.24-1.48 0-.83-.26-1.48-.26-.66-.82-1.12-.56-.47-1.45-.71-.88-.25-2.12-.25h-4.75zm4.01-17.99h-4.01v7.32h3.75q2.41 0 3.65-.88 1.23-.87 1.23-2.78 0-1.98-1.12-2.82t-3.5-.84m-8.72-3.64h8.72q2.49 0 4.25.48 1.77.47 2.9 1.34 1.13.88 1.65 2.12.53 1.24.53 2.8 0 .89-.26 1.71-.27.81-.82 1.52t-1.4 1.29q-.85.57-2.02.98 5.22 1.17 5.22 5.63 0 1.61-.62 2.98-.61 1.36-1.78 2.35t-2.89 1.55q-1.71.56-3.92.56h-9.56zm47.19 12.66q0 2.78-.92 5.15t-2.6 4.1q-1.68 1.74-4.04 2.71-2.37.97-5.25.97-2.87 0-5.24-.97-2.36-.97-4.05-2.71-1.69-1.73-2.61-4.1-.93-2.37-.93-5.15 0-2.79.93-5.16.92-2.37 2.61-4.1t4.05-2.7q2.37-.98 5.24-.98 1.92 0 3.62.45t3.11 1.26q1.42.81 2.55 1.98 1.13 1.16 1.92 2.6.78 1.43 1.19 3.11.42 1.68.42 3.54m-4.82 0q0-2.09-.56-3.74t-1.59-2.81q-1.03-1.15-2.51-1.77-1.48-.61-3.33-.61-1.86 0-3.34.61-1.48.62-2.52 1.77-1.04 1.16-1.6 2.81t-.56 3.74q0 2.08.56 3.73.56 1.66 1.6 2.8 1.04 1.15 2.52 1.76t3.34.61q1.85 0 3.33-.61t2.51-1.76q1.03-1.14 1.59-2.8.56-1.65.56-3.73m13.69-12.66v25.31H73.3v-25.31z"/></svg>