<svg xmlns="http://www.w3.org/2000/svg" width="100" height="100" viewBox="0 0 100 100"><rect width="100%" height="100%" fill="#dc2626"/><path fill="#ffffff" d="M25.1 57.955h4.21q1.17 0 1.96-.28t1.26-.75q.47-.46.68-1.08t.21-1.32q0-.73-.23-1.31t-.73-.99-1.28-.63-1.88-.22h-4.2zm3.55-15.94H25.1v6.48h3.31q2.14 0 3.24-.77 1.09-.78 1.09-2.47 0-1.75-.99-2.5-.99-.74-3.1-.74m-7.72-3.22h7.72q2.2 0 3.76.42 1.57.41 2.57 1.19 1 .77 1.46 1.87.47 1.11.47 2.48 0 .8-.23 1.52-.24.72-.72 1.34-.49.63-1.24 1.14-.76.51-1.79.87 4.61 1.04 4.61 4.99 0 1.43-.54 2.64t-1.58 2.08q-1.04.88-2.56 1.37-1.52.5-3.47.5h-8.46zm24.58 10.66h2.61q1.17 0 2.05-.29.87-.3 1.44-.82t.85-1.23q.27-.71.27-1.56 0-1.71-1.12-2.62-1.12-.92-3.43-.92h-2.67zm7.72 3.47 5.61 8.28h-3.77q-1.06 0-1.55-.84l-4.71-7.17q-.26-.41-.58-.58t-.94-.17h-1.78v8.76h-4.17v-22.41h6.84q2.28 0 3.91.47 1.64.47 2.68 1.33 1.05.85 1.54 2.03.5 1.19.5 2.62 0 1.13-.33 2.13-.34 1.01-.96 1.83-.63.82-1.55 1.44-.93.62-2.1.98.4.23.74.55t.62.75m25.84-14.13-8.17 13.73v8.68h-4.15v-8.68l-8.17-13.73h3.67q.54 0 .86.26t.54.67l4.09 7.48q.35.67.63 1.26.27.59.48 1.18.21-.59.47-1.18t.6-1.26l4.08-7.48q.17-.34.51-.64.34-.29.87-.29z"/></svg>