<svg xmlns="http://www.w3.org/2000/svg" width="100" height="100" viewBox="0 0 100 100"><rect width="100%" height="100%" fill="#dc2626"/><path fill="#ffffff" d="M23.97 56.41h3.4q.94 0 1.57-.22.64-.23 1.02-.6.38-.38.55-.88t.17-1.06q0-.59-.19-1.05-.18-.47-.58-.8-.4-.34-1.03-.51-.64-.18-1.52-.18h-3.39zm2.86-12.85h-2.86v5.23h2.67q1.73 0 2.61-.63.88-.62.88-1.98 0-1.42-.8-2.02t-2.5-.6m-6.22-2.59h6.22q1.78 0 3.04.33 1.26.34 2.07.96.8.63 1.18 1.52.37.88.37 2 0 .63-.18 1.22-.19.58-.58 1.08-.4.51-1 .92-.61.41-1.45.7 3.73.84 3.73 4.03 0 1.15-.44 2.12-.44.98-1.28 1.68-.83.71-2.06 1.11-1.22.4-2.8.4h-6.82zm29.08 0v2.76h-5.45v15.31h-3.36V43.73h-5.45v-2.76zm14.79 13.81q.28 0 .49.21l1.32 1.44q-1.1 1.36-2.7 2.08-1.61.73-3.86.73-2.01 0-3.62-.69-1.6-.69-2.74-1.91-1.14-1.23-1.74-2.93-.61-1.7-.61-3.71 0-2.04.65-3.73t1.83-2.92q1.18-1.22 2.82-1.9 1.64-.69 3.62-.69t3.51.65 2.61 1.7l-1.13 1.57q-.1.15-.25.26-.16.11-.44.11-.18 0-.38-.1-.2-.11-.44-.27-.24-.15-.55-.34t-.73-.34q-.41-.16-.95-.27-.55-.1-1.26-.1-1.21 0-2.22.43-1 .43-1.73 1.25-.72.82-1.12 2t-.4 2.69q0 1.53.43 2.71.43 1.19 1.17 2 .73.82 1.73 1.25t2.15.43q.69 0 1.25-.08.55-.07 1.02-.23.47-.17.89-.42.42-.26.83-.63.13-.12.26-.18.14-.07.29-.07m14.59-12.12-.84 1.59q-.15.26-.32.38t-.42.12q-.26 0-.56-.19-.31-.2-.74-.43-.42-.24-.99-.43-.57-.2-1.34-.2-.7 0-1.23.17-.52.17-.88.47t-.53.72q-.18.42-.18.92 0 .63.36 1.06.36.42.94.72.59.3 1.34.54t1.54.51 1.54.62q.75.36 1.33.9.59.55.95 1.33.35.79.35 1.92 0 1.22-.41 2.29-.42 1.07-1.23 1.86-.81.8-1.97 1.25-1.16.46-2.66.46-.86 0-1.7-.17t-1.61-.48-1.44-.75q-.68-.44-1.2-.98l.99-1.61q.12-.17.32-.29t.43-.12q.31 0 .67.26.36.25.86.56.5.32 1.17.57.67.26 1.61.26 1.44 0 2.22-.68.79-.68.79-1.96 0-.71-.35-1.16-.36-.45-.95-.76-.59-.3-1.34-.52-.75-.21-1.52-.46-.78-.25-1.53-.6t-1.33-.91q-.59-.56-.95-1.41-.35-.84-.35-2.08 0-.99.39-1.92.39-.94 1.14-1.67.75-.72 1.85-1.16t2.53-.44q1.6 0 2.95.5t2.3 1.4"/></svg>