<svg xmlns="http://www.w3.org/2000/svg" width="100" height="100" viewBox="0 0 100 100"><rect width="100%" height="100%" fill="#dc2626"/><path fill="#ffffff" d="M23.52 55.895h3.13q.86 0 1.45-.2.58-.21.93-.55.36-.35.51-.81.16-.46.16-.98 0-.54-.18-.97-.17-.43-.54-.73-.37-.31-.95-.47t-1.39-.16h-3.12zm2.63-11.82h-2.63v4.81h2.46q1.59 0 2.4-.57.81-.58.81-1.83 0-1.3-.74-1.86-.73-.55-2.3-.55m-5.72-2.39h5.72q1.64 0 2.8.31t1.9.89q.74.57 1.09 1.39.34.82.34 1.84 0 .58-.17 1.12-.17.53-.53 1-.37.47-.92.85-.56.37-1.33.64 3.42.77 3.42 3.7 0 1.06-.4 1.96-.4.89-1.17 1.54t-1.9 1.02-2.57.37h-6.28zm26.76 0v2.54h-5.02v14.09h-3.09v-14.09h-5.01v-2.54zm18.04 8.32q0 1.82-.6 3.38-.61 1.56-1.71 2.7t-2.66 1.78q-1.55.63-3.45.63-1.88 0-3.44-.63-1.55-.64-2.66-1.78t-1.72-2.7-.61-3.38q0-1.83.61-3.39t1.72-2.7 2.66-1.77q1.56-.64 3.44-.64 1.27 0 2.38.29 1.12.29 2.05.83.93.53 1.67 1.3.75.76 1.26 1.71.52.94.79 2.04.27 1.11.27 2.33m-3.16 0q0-1.37-.37-2.46t-1.05-1.85q-.67-.75-1.65-1.16-.97-.4-2.19-.4t-2.19.4q-.97.41-1.65 1.16-.69.76-1.06 1.85-.36 1.09-.36 2.46 0 1.36.36 2.45.37 1.09 1.06 1.84.68.75 1.65 1.16.97.4 2.19.4t2.19-.4q.98-.41 1.65-1.16.68-.75 1.05-1.84t.37-2.45m17.5-8.32v2.54h-5.01v14.09h-3.1v-14.09h-5.01v-2.54z"/></svg>