<svg xmlns="http://www.w3.org/2000/svg" width="100" height="100" viewBox="0 0 100 100"><rect width="100%" height="100%" fill="#dc2626"/><path fill="#ffffff" d="M21.38 53.85h2.04q.56 0 .94-.14.38-.13.61-.36.23-.22.33-.52.1-.31.1-.64 0-.35-.11-.64-.11-.28-.35-.48-.24-.19-.62-.3-.38-.1-.91-.1h-2.03zm1.71-7.72h-1.71v3.14h1.6q1.04 0 1.56-.37.53-.38.53-1.2 0-.84-.48-1.2-.48-.37-1.5-.37m-3.73-1.55h3.73q1.07 0 1.83.2.75.2 1.24.58.48.37.71.9.22.53.22 1.2 0 .39-.11.73-.11.35-.35.66-.24.3-.6.55t-.87.42q2.24.5 2.24 2.41 0 .69-.26 1.28-.27.58-.77 1.01-.5.42-1.24.66-.73.24-1.68.24h-4.09zm22.72 0h1.59L40.3 55.42h-1.82l-2.37-7.41q-.1-.27-.18-.66-.05.19-.09.35-.05.17-.1.31l-2.4 7.41h-1.82l-3.36-10.84h1.68q.27 0 .44.12.18.12.24.33l1.84 6.49q.06.24.12.52t.11.59q.06-.31.14-.59.07-.28.15-.52l2.13-6.49q.06-.17.24-.31.17-.14.43-.14h.59q.26 0 .43.12.16.13.25.33l2.12 6.49q.16.46.28 1.07.1-.59.22-1.07l1.85-6.49q.04-.18.22-.32.19-.13.44-.13m15.77 0h1.58l-3.37 10.84h-1.82l-2.37-7.41q-.1-.27-.18-.66-.05.19-.09.35-.05.17-.1.31l-2.39 7.41h-1.83l-3.36-10.84h1.69q.26 0 .44.12.17.12.23.33l1.85 6.49q.06.24.11.52.06.28.12.59.06-.31.13-.59t.15-.52l2.13-6.49q.06-.17.24-.31t.43-.14h.59q.27 0 .43.12.17.13.25.33l2.12 6.49q.16.46.29 1.07.09-.59.22-1.07l1.84-6.49q.04-.18.23-.32.18-.13.44-.13M70.4 50q0 1.19-.4 2.19t-1.12 1.72-1.73 1.11q-1.02.4-2.25.4h-4.14V44.58h4.14q1.23 0 2.25.4 1.01.4 1.73 1.11.72.72 1.12 1.72t.4 2.19m-2.07 0q0-.89-.24-1.6t-.68-1.2q-.45-.49-1.08-.76-.64-.26-1.43-.26h-2.11v7.64h2.11q.79 0 1.43-.27.63-.26 1.08-.75.44-.49.68-1.2t.24-1.6m5.86-.26h1.26q.57 0 .99-.15.43-.14.7-.39t.41-.6q.13-.34.13-.75 0-.83-.54-1.27-.54-.45-1.66-.45h-1.29zm3.73 1.68 2.72 4h-1.82q-.52 0-.75-.4l-2.28-3.48q-.13-.19-.28-.28-.16-.08-.46-.08h-.86v4.24h-2.02V44.58h3.31q1.1 0 1.89.22.79.23 1.3.65.51.41.75.98.24.58.24 1.27 0 .54-.16 1.03-.17.49-.47.89-.3.39-.75.69t-1.02.48q.2.11.36.26.17.16.3.37"/></svg>