<svg xmlns="http://www.w3.org/2000/svg" width="100" height="100" viewBox="0 0 100 100"><rect width="100%" height="100%" fill="#dc2626"/><path fill="#ffffff" d="M22.71 54.88h2.59q.71 0 1.19-.18.49-.17.78-.45.29-.29.41-.67.13-.38.13-.8 0-.45-.14-.81-.14-.35-.45-.61-.3-.25-.78-.38t-1.15-.13h-2.58zm2.18-9.77h-2.18v3.97h2.03q1.32 0 1.99-.48.66-.47.66-1.51 0-1.07-.6-1.52-.61-.46-1.9-.46m-4.73-1.98h4.73q1.35 0 2.31.26.95.26 1.57.73.61.48.9 1.15.28.68.28 1.52 0 .48-.14.93-.14.44-.44.82-.3.39-.76.7-.46.32-1.1.53 2.83.64 2.83 3.06 0 .88-.33 1.62-.34.74-.97 1.28-.64.53-1.57.84-.93.3-2.13.3h-5.18zm28.78 0h2.01l-4.27 13.74h-2.31l-3-9.39q-.12-.34-.23-.83l-.11.44q-.06.21-.13.39l-3.03 9.39h-2.31L31.3 43.13h2.14q.33 0 .55.16.23.16.3.42l2.34 8.22q.07.3.15.66.07.36.14.75.08-.4.17-.75.09-.36.19-.66l2.7-8.22q.08-.22.3-.4t.55-.18h.75q.33 0 .54.16.21.17.31.42l2.69 8.22q.2.59.36 1.36.13-.75.28-1.36l2.34-8.22q.05-.23.29-.41.23-.17.55-.17m14.6 0-5 8.42v5.32h-2.55v-5.32l-5.01-8.42h2.25q.34 0 .53.16.2.17.33.41l2.51 4.59q.22.41.38.77.17.36.3.72.13-.36.29-.72t.37-.77l2.5-4.59q.1-.21.31-.39t.53-.18zm14.38 0h1.92v13.74h-2.25V48q0-.53.06-1.15l-4.15 7.8q-.3.56-.9.56h-.37q-.6 0-.9-.56l-4.2-7.83q.03.31.05.62.02.3.02.56v8.87h-2.25V43.13h1.93q.17 0 .29.01t.22.05.19.12q.08.09.15.23l4.12 7.63q.16.3.29.63.14.32.28.66.13-.35.27-.68t.3-.63l4.06-7.61q.08-.14.16-.23.09-.08.19-.12t.22-.05.3-.01"/></svg>