<svg xmlns="http://www.w3.org/2000/svg" width="100" height="100" viewBox="0 0 100 100"><rect width="100%" height="100%" fill="#dc2626"/><path fill="#ffffff" d="M22.855 42.045v15.91h-2.97v-15.91zm22.4 0h2.32l-4.94 15.91h-2.67l-3.48-10.87q-.14-.39-.26-.97l-.13.52q-.07.24-.15.45l-3.51 10.87h-2.68l-4.93-15.91h2.48q.38 0 .64.19.26.18.35.49l2.7 9.51q.09.35.17.76.09.42.17.87.09-.46.2-.87.1-.41.22-.76l3.13-9.51q.08-.26.34-.47t.64-.21h.86q.39 0 .63.19t.36.49l3.12 9.51q.23.68.42 1.57.14-.87.31-1.57l2.71-9.51q.07-.28.34-.48t.64-.2m14.72 0h2.97v15.91h-2.97v-6.95h-7.47v6.95h-2.97v-15.91h2.97v6.85h7.47zm9.85 9.9h5.06l-1.93-5.29q-.15-.35-.3-.83-.15-.49-.31-1.05-.14.56-.29 1.05-.16.49-.3.86zm4.04-9.9 6.25 15.91h-2.29q-.38 0-.63-.19-.24-.19-.36-.48l-1.19-3.25h-6.59l-1.18 3.25q-.09.25-.35.46-.25.21-.62.21h-2.31l6.26-15.91z"/></svg>