<svg xmlns="http://www.w3.org/2000/svg" width="100" height="100" viewBox="0 0 100 100"><rect width="100%" height="100%" fill="#dc2626"/><path fill="#ffffff" d="M23.65 55.765h6.65v2.55h-9.74v-16.63h3.09zm28.56-14.08h2.42l-5.16 16.63h-2.8l-3.63-11.36q-.15-.42-.28-1.01-.06.28-.13.54-.07.25-.15.47l-3.67 11.36H36l-5.15-16.63h2.59q.4 0 .67.19t.36.51l2.83 9.95q.09.37.18.8t.18.9q.09-.48.2-.91.11-.42.24-.79l3.26-9.95q.09-.26.36-.48t.66-.22h.91q.41 0 .66.2.25.19.38.5l3.25 9.95q.24.71.44 1.64.15-.9.33-1.64l2.83-9.95q.07-.28.35-.49t.68-.21m14.96 2.46h-7.39v4.92h6.24v2.48h-6.24v6.77h-3.1v-16.63h10.49zm5.62 11.62h6.65v2.55H69.7v-16.63h3.09z"/></svg>