<svg xmlns="http://www.w3.org/2000/svg" width="100" height="100" viewBox="0 0 100 100"><rect width="100%" height="100%" fill="#dc2626"/><path fill="#ffffff" d="M24.985 57.265h8.38v3.22h-12.28v-20.97h3.9zm36-17.75h3.06l-6.51 20.97h-3.52l-4.58-14.33q-.19-.52-.35-1.27l-.17.68q-.09.32-.19.59l-4.63 14.33h-3.54l-6.49-20.97h3.26q.51 0 .85.24t.45.65l3.57 12.54q.12.46.23 1.01.11.54.22 1.14.12-.61.25-1.15.14-.54.3-1l4.12-12.54q.12-.34.46-.61.34-.28.83-.28h1.15q.5 0 .82.25t.48.64l4.1 12.54q.31.9.56 2.07.18-1.14.42-2.07l3.56-12.54q.09-.37.45-.63.35-.26.84-.26m9.54 17.75h8.39v3.22h-12.29v-20.97h3.9z"/></svg>