<svg xmlns="http://www.w3.org/2000/svg" width="100" height="100" viewBox="0 0 100 100"><rect width="100%" height="100%" fill="#dc2626"/><path fill="#ffffff" d="M30.915 42.77v2.21h-4.36v12.25h-2.69V44.98h-4.36v-2.21zm11.83 11.05q.22 0 .39.17l1.06 1.15q-.88 1.09-2.16 1.67-1.29.58-3.09.58-1.61 0-2.89-.55-1.29-.55-2.2-1.53t-1.39-2.34q-.49-1.36-.49-2.97 0-1.63.52-2.98.52-1.36 1.47-2.34.94-.98 2.25-1.53 1.31-.54 2.9-.54 1.58 0 2.81.52 1.22.52 2.08 1.36l-.9 1.25q-.08.12-.2.21-.13.09-.35.09-.15 0-.31-.09-.16-.08-.35-.2-.19-.13-.44-.28t-.58-.28q-.33-.12-.76-.21-.44-.08-1.01-.08-.97 0-1.77.35-.81.34-1.39 1-.58.65-.9 1.6-.32.94-.32 2.15 0 1.22.35 2.17.34.95.93 1.6t1.39 1q.8.34 1.72.34.55 0 1-.06.44-.06.82-.19.37-.13.71-.34.33-.2.66-.5.1-.09.21-.14.11-.06.23-.06M58.885 50q0 1.59-.53 2.92t-1.49 2.29-2.31 1.49-3 .53h-5.51V42.77h5.51q1.65 0 3 .53 1.35.54 2.31 1.49.96.96 1.49 2.29t.53 2.92m-2.76 0q0-1.19-.31-2.14-.32-.94-.91-1.59-.6-.66-1.44-1.01-.85-.35-1.91-.35h-2.81v10.18h2.81q1.06 0 1.91-.35.84-.35 1.44-1.01.59-.65.91-1.59.31-.95.31-2.14m22.26-7.23h2.11l-4.49 14.46h-2.43l-3.16-9.88q-.13-.36-.24-.88-.06.25-.12.47t-.13.41l-3.19 9.88h-2.44l-4.48-14.46h2.25q.35 0 .59.17.23.16.31.44l2.46 8.65q.08.32.16.7.07.37.15.78.08-.42.18-.79.09-.37.2-.69l2.84-8.65q.08-.23.32-.42.23-.19.57-.19h.79q.35 0 .57.17t.33.44l2.83 8.65q.21.62.38 1.43.13-.79.29-1.43l2.46-8.65q.06-.25.31-.43.24-.18.58-.18"/></svg>