<svg xmlns="http://www.w3.org/2000/svg" width="100" height="100" viewBox="0 0 100 100"><rect width="100%" height="100%" fill="#dc2626"/><path fill="#ffffff" d="M33.95 41.685v2.54h-5.02v14.09h-3.09v-14.09h-5.01v-2.54zm13.6 12.71q.26 0 .45.19l1.22 1.33q-1.01 1.25-2.49 1.92-1.48.66-3.55.66-1.85 0-3.33-.63-1.47-.63-2.52-1.76-1.05-1.12-1.6-2.69-.56-1.56-.56-3.41 0-1.88.6-3.44.59-1.56 1.68-2.68 1.09-1.13 2.59-1.76 1.51-.62 3.34-.62 1.82 0 3.22.6 1.41.59 2.4 1.56l-1.03 1.44q-.09.13-.24.24-.14.1-.4.1-.17 0-.35-.1-.19-.09-.4-.24-.22-.14-.51-.31-.29-.18-.67-.32t-.88-.24-1.15-.1q-1.12 0-2.04.4-.93.39-1.6 1.15-.66.75-1.03 1.84-.37 1.08-.37 2.48t.4 2.49q.39 1.09 1.07 1.84t1.6 1.15q.92.39 1.98.39.63 0 1.14-.07t.95-.22q.43-.15.81-.38.39-.24.77-.58.11-.1.24-.17.13-.06.26-.06m15.41-12.71v2.54h-5.01v14.09h-3.09v-14.09h-5.02v-2.54zm13.48 0h2.73v16.63h-1.59q-.37 0-.62-.12-.24-.12-.47-.41l-8.69-11.09q.07.76.07 1.41v10.21h-2.72v-16.63h1.62q.2 0 .34.02t.25.07.21.15q.11.09.23.26l8.72 11.13-.06-.8q-.02-.39-.02-.72z"/></svg>