<svg xmlns="http://www.w3.org/2000/svg" width="100" height="100" viewBox="0 0 100 100"><rect width="100%" height="100%" fill="#dc2626"/><path fill="#ffffff" d="M29.88 43.495v1.98h-3.93v11.03h-2.42v-11.03h-3.92v-1.98zm13.26 6.5q0 1.43-.47 2.63-.48 1.2-1.34 2.06-.87.87-2.08 1.34-1.22.48-2.7.48h-4.96v-13.01h4.96q1.48 0 2.7.48 1.21.48 2.08 1.34.86.86 1.34 2.05.47 1.2.47 2.63m-2.48 0q0-1.07-.28-1.92-.29-.85-.82-1.44-.54-.59-1.3-.9-.76-.32-1.71-.32h-2.53v9.16h2.53q.95 0 1.71-.31.76-.32 1.3-.91.53-.59.82-1.44.28-.85.28-1.92m7.04-.31h1.51q.68 0 1.19-.17t.84-.48q.33-.3.49-.71.16-.42.16-.91 0-.99-.65-1.52t-1.99-.53H47.7zm4.48 2.01 3.26 4.81h-2.19q-.62 0-.9-.49l-2.74-4.16q-.15-.24-.33-.34-.19-.1-.55-.1H47.7v5.09h-2.42v-13.01h3.97q1.32 0 2.27.27t1.56.77q.6.49.89 1.18t.29 1.52q0 .66-.19 1.24-.2.59-.56 1.06-.37.48-.9.84-.54.36-1.22.57.23.13.43.32.2.18.36.43m7.41-.1h4.14l-1.59-4.33q-.11-.29-.24-.69-.13-.39-.25-.85-.12.46-.25.86-.12.4-.24.69zm3.3-8.1L68 56.505h-1.87q-.32 0-.51-.16-.2-.16-.3-.39l-.97-2.65h-5.39l-.98 2.65q-.07.21-.27.38-.21.17-.52.17H55.3l5.12-13.01zm8.88 0v5.45h.57q.34 0 .57-.09.22-.1.38-.31l3.59-4.54q.23-.29.48-.4.24-.11.62-.11h2.09l-4.38 5.4q-.39.5-.8.71.29.1.53.3.24.19.46.51l4.51 6.09h-2.13q-.43 0-.64-.12t-.36-.36l-3.68-4.8q-.17-.25-.39-.35-.23-.09-.65-.09h-.77v5.72h-2.42v-13.01z"/></svg>