<svg xmlns="http://www.w3.org/2000/svg" width="100" height="100" viewBox="0 0 100 100"><rect width="100%" height="100%" fill="#dc2626"/><path fill="#ffffff" d="M32.445 42.41v2.32h-4.57v12.86h-2.83V44.73h-4.58v-2.32zm16.33 0h2.13v15.18h-2.49v-9.81q0-.59.07-1.27l-4.59 8.62q-.33.62-1 .62h-.4q-.67 0-1-.62l-4.64-8.65.06.68q.02.34.02.62v9.81h-2.49V42.41h2.13q.19 0 .33.01.13.01.24.05t.2.14q.09.09.17.25l4.55 8.43q.18.34.33.69.15.36.3.74.15-.39.31-.75.15-.37.33-.7l4.49-8.41q.08-.16.17-.25.1-.1.21-.14t.25-.05q.13-.01.32-.01m15.48 0h2.83v15.18h-2.83v-6.64h-7.13v6.64h-2.84V42.41h2.84v6.53h7.13zm15 1.42-.7 1.34q-.13.22-.27.32t-.35.1q-.22 0-.48-.16-.26-.17-.61-.37-.36-.2-.84-.36t-1.13-.16q-.58 0-1.02.14-.45.14-.75.39-.29.26-.44.61t-.15.77q0 .53.3.89t.79.61q.5.25 1.13.45t1.29.43q.66.22 1.29.52t1.12.76q.5.46.8 1.12t.3 1.6q0 1.03-.36 1.93-.35.9-1.03 1.56-.67.67-1.65 1.05-.98.39-2.24.39-.72 0-1.42-.14-.71-.15-1.35-.41-.65-.26-1.22-.63-.56-.37-1-.82l.83-1.35q.1-.15.27-.25t.36-.1q.26 0 .56.22.31.21.73.48.42.26.98.47.56.22 1.35.22 1.21 0 1.87-.57.66-.58.66-1.65 0-.6-.3-.97-.3-.38-.79-.64-.5-.26-1.13-.44-.63-.17-1.28-.38t-1.28-.51q-.63-.29-1.12-.76-.5-.48-.79-1.19-.3-.7-.3-1.74 0-.83.33-1.62t.96-1.4 1.55-.97q.93-.37 2.12-.37 1.35 0 2.48.42t1.93 1.17"/></svg>