<svg xmlns="http://www.w3.org/2000/svg" width="100" height="100" viewBox="0 0 100 100"><rect width="100%" height="100%" fill="#dc2626"/><path fill="#ffffff" d="M24.37 56.405h3.4q.94 0 1.58-.22.64-.23 1.02-.6.38-.38.55-.88t.17-1.06q0-.59-.19-1.05-.19-.47-.59-.8-.4-.34-1.03-.51-.63-.18-1.52-.18h-3.39zm2.87-12.85h-2.87v5.23h2.68q1.72 0 2.61-.63.88-.62.88-1.98 0-1.42-.8-2.02t-2.5-.6m-6.23-2.59h6.23q1.77 0 3.03.33 1.27.34 2.07.96.81.63 1.18 1.52.38.88.38 2 0 .63-.19 1.22-.19.58-.58 1.08-.39.51-1 .92t-1.44.7q3.72.84 3.72 4.03 0 1.15-.44 2.12-.43.98-1.27 1.68-.84.71-2.06 1.11-1.23.4-2.8.4h-6.83zm37.88 0h2.63l-5.61 18.07h-3.03l-3.96-12.35q-.16-.45-.3-1.1-.07.31-.15.59-.07.27-.16.51l-3.99 12.35h-3.05l-5.6-18.07h2.82q.43 0 .73.2.29.21.39.56l3.08 10.81q.1.4.19.87t.19.98q.1-.53.22-.99t.26-.86l3.55-10.81q.1-.29.39-.53.3-.23.72-.23h.99q.44 0 .71.21.28.21.41.55l3.54 10.81q.27.77.48 1.79.16-.99.36-1.79l3.07-10.81q.08-.32.39-.54.3-.22.73-.22m17.14 0h2.96v18.07h-1.73q-.4 0-.67-.13-.26-.13-.51-.45l-9.44-12.05q.07.83.07 1.53v11.1h-2.96v-18.07h1.76q.22 0 .37.01.16.02.28.08.12.05.23.16t.25.28l9.47 12.1-.06-.86q-.02-.43-.02-.79z"/></svg>