<svg xmlns="http://www.w3.org/2000/svg" width="100" height="100" viewBox="0 0 100 100"><rect width="100%" height="100%" fill="#dc2626"/><path fill="#ffffff" d="M39.965 49.95h11.28V63.7q-2.58 1.9-5.51 2.78-2.92.89-6.26.89-4.16 0-7.53-1.3-3.38-1.29-5.76-3.59-2.39-2.31-3.68-5.5-1.29-3.2-1.29-6.98 0-3.83 1.24-7.03 1.25-3.19 3.54-5.5 2.29-2.3 5.56-3.57t7.33-1.27q2.07 0 3.87.33 1.79.33 3.33.91 1.54.57 2.81 1.39 1.27.83 2.33 1.81l-1.81 2.87q-.42.68-1.11.84-.68.15-1.48-.34-.77-.45-1.55-.9-.77-.44-1.72-.77-.96-.33-2.14-.54-1.19-.22-2.74-.22-2.51 0-4.55.85-2.03.85-3.46 2.42-1.44 1.58-2.21 3.78-.78 2.21-.78 4.94 0 2.91.84 5.2.83 2.3 2.35 3.88 1.51 1.59 3.65 2.42 2.14.84 4.77.84 1.88 0 3.36-.4t2.89-1.08V54.7h-4.28q-.61 0-.95-.34t-.34-.84zm38.82-11.91h-15.08v9.42h11.89v4.87h-11.89v9.61h15.08v5.05h-21.43V33.01h21.43z"/></svg>