<svg xmlns="http://www.w3.org/2000/svg" width="100" height="100" viewBox="0 0 100 100"><rect width="100%" height="100%" fill="#dc2626"/><path fill="#ffffff" d="M25.23 57.18h3.81q1.05 0 1.76-.25t1.14-.67.62-.98.19-1.19q0-.66-.21-1.19-.21-.52-.66-.89t-1.16-.57q-.7-.2-1.7-.2h-3.79zm3.2-14.39h-3.2v5.85h2.99q1.94 0 2.92-.7.99-.7.99-2.23 0-1.58-.9-2.25-.89-.67-2.8-.67m-6.97-2.91h6.97q1.99 0 3.41.37 1.41.38 2.31 1.08.91.7 1.33 1.7.41.99.41 2.24 0 .71-.2 1.36-.21.65-.66 1.22-.44.57-1.12 1.03t-1.61.78q4.17.94 4.17 4.51 0 1.29-.49 2.38t-1.43 1.88-2.31 1.24-3.13.45h-7.65zm32.19 0h3.31v20.24h-1.93q-.44 0-.75-.15-.3-.14-.58-.49l-10.57-13.5q.09.92.09 1.71v12.43H39.9V39.88h1.97q.24 0 .42.02.17.02.3.08.14.06.26.18.13.12.28.32l10.62 13.55q-.05-.49-.07-.97-.03-.47-.03-.88zm21.57 0h3.32v20.24h-1.93q-.45 0-.75-.15-.3-.14-.58-.49l-10.57-13.5q.08.92.08 1.71v12.43h-3.32V39.88h1.98q.24 0 .41.02.18.02.31.08t.26.18q.12.12.28.32l10.61 13.55q-.04-.49-.07-.97-.03-.47-.03-.88z"/></svg>