<svg xmlns="http://www.w3.org/2000/svg" width="100" height="100" viewBox="0 0 100 100"><rect width="100%" height="100%" fill="#dc2626"/><path fill="#ffffff" d="M39.115 38.07v3.65h-7.19v20.21h-4.44V41.72h-7.19v-3.65zm7.58 12h3.31q1.23 0 2.13-.31.91-.3 1.51-.87.61-.57.9-1.39.3-.82.3-1.82 0-.96-.3-1.73-.29-.78-.89-1.32-.59-.55-1.5-.84t-2.15-.29h-3.31zm-4.44-12h7.75q2.4 0 4.15.56 1.74.56 2.88 1.57t1.69 2.41q.56 1.4.56 3.07 0 1.73-.58 3.17-.58 1.45-1.73 2.49-1.16 1.04-2.9 1.61-1.74.58-4.07.58h-3.31v8.4h-4.44zm24.86 12h3.32q1.22 0 2.13-.31.91-.3 1.51-.87t.9-1.39.3-1.82q0-.96-.3-1.73-.3-.78-.89-1.32-.6-.55-1.5-.84-.91-.29-2.15-.29h-3.32zm-4.43-12h7.75q2.39 0 4.14.56t2.89 1.57 1.69 2.41.55 3.07q0 1.73-.57 3.17-.58 1.45-1.74 2.49-1.15 1.04-2.89 1.61-1.74.58-4.07.58h-3.32v8.4h-4.43z"/></svg>