<svg xmlns="http://www.w3.org/2000/svg" width="100" height="100" viewBox="0 0 100 100"><rect width="100%" height="100%" fill="#dc2626"/><path fill="#ffffff" d="M31.4 50.005q0 1.27-.42 2.35-.42 1.09-1.18 1.88-.77.79-1.85 1.23-1.08.45-2.4.45-1.31 0-2.39-.45-1.08-.44-1.86-1.23-.77-.79-1.19-1.88-.43-1.08-.43-2.35 0-1.28.43-2.36.42-1.08 1.19-1.88.78-.79 1.86-1.23 1.08-.45 2.39-.45.88 0 1.65.21.78.2 1.43.57.65.38 1.16.91.52.53.88 1.19.36.65.55 1.42.18.77.18 1.62m-2.2 0q0-.96-.25-1.71-.26-.76-.73-1.29-.47-.52-1.15-.8-.67-.28-1.52-.28t-1.53.28q-.67.28-1.15.8-.47.53-.73 1.29-.26.75-.26 1.71 0 .95.26 1.7.26.76.73 1.28.48.53 1.15.81.68.28 1.53.28t1.52-.28q.68-.28 1.15-.81.47-.52.73-1.28.25-.75.25-1.7m15.02-5.79h1.62v11.57h-1.89v-7.47q0-.45.05-.97l-3.5 6.57q-.25.47-.76.47h-.3q-.52 0-.76-.47l-3.54-6.59.04.52q.02.25.02.47v7.47h-1.9v-11.57h1.62q.15 0 .25.01.11.01.19.04t.15.1q.07.08.13.2l3.47 6.42q.13.26.25.53t.23.56q.11-.3.23-.57.12-.28.26-.54l3.41-6.4q.07-.12.14-.2.07-.07.15-.1.09-.03.19-.04.11-.01.25-.01m15.12 0h1.62v11.57h-1.89v-7.47q0-.45.05-.97l-3.5 6.57q-.25.47-.76.47h-.3q-.52 0-.76-.47l-3.54-6.59.04.52q.02.25.02.47v7.47h-1.9v-11.57h1.62q.15 0 .25.01.11.01.19.04t.15.1q.07.08.13.2l3.47 6.42q.13.26.25.53t.23.56q.11-.3.23-.57.12-.28.26-.54l3.41-6.4q.07-.12.14-.2.07-.07.15-.1.09-.03.19-.04.11-.01.25-.01m8.61 0v7.46q0 .97-.24 1.76-.24.78-.72 1.33-.47.56-1.19.85-.71.3-1.65.3-.43 0-.85-.05-.42-.06-.87-.17.02-.32.05-.64.04-.32.06-.64.02-.17.14-.28t.33-.11q.14 0 .36.06.22.05.55.05.46 0 .81-.13t.59-.42.36-.75.12-1.11v-7.51zm4.89 7.2h3.68l-1.4-3.85q-.11-.25-.22-.6-.11-.36-.22-.76-.11.4-.22.76t-.22.62zm2.94-7.2 4.54 11.57h-1.66q-.28 0-.46-.14-.17-.14-.26-.35l-.86-2.36h-4.8l-.86 2.36q-.06.19-.25.34-.18.15-.45.15h-1.68l4.55-11.57z"/></svg>