<svg xmlns="http://www.w3.org/2000/svg" width="100" height="100" viewBox="0 0 100 100"><rect width="100%" height="100%" fill="#dc2626"/><path fill="#ffffff" d="M24.885 50.07h3.22q1.18 0 2.06-.3t1.47-.85q.58-.55.87-1.34t.29-1.77q0-.93-.29-1.68t-.86-1.28q-.58-.53-1.46-.81t-2.08-.28h-3.22zm-4.3-11.64h7.52q2.32 0 4.02.55 1.69.54 2.8 1.52 1.1.97 1.64 2.33.53 1.36.53 2.98 0 1.68-.56 3.08t-1.68 2.41-2.81 1.57q-1.68.56-3.94.56h-3.22v8.14h-4.3zm35.97 0v3.54h-6.98v19.6h-4.3v-19.6h-6.98v-3.54zm7.9 14.4h7.36l-2.81-7.69q-.21-.51-.44-1.22-.22-.7-.44-1.52-.21.82-.44 1.53-.22.71-.43 1.24zm5.87-14.4 9.09 23.14h-3.33q-.56 0-.91-.28t-.53-.7l-1.72-4.72h-9.59l-1.73 4.72q-.12.37-.49.68-.37.3-.91.3h-3.36l9.1-23.14z"/></svg>