<svg xmlns="http://www.w3.org/2000/svg" width="100" height="100" viewBox="0 0 100 100"><rect width="100%" height="100%" fill="#dc2626"/><path fill="#ffffff" d="M37.86 38.795v3.42h-6.75v18.99h-4.17v-18.99h-6.76v-3.42zm7.13 0v22.41h-4.18v-22.41zm31.56 0h3.27l-6.96 22.41H69.1l-4.9-15.31q-.2-.56-.37-1.37-.1.39-.19.73t-.2.64l-4.95 15.31h-3.78l-6.94-22.41h3.49q.54 0 .9.25.37.26.49.69l3.81 13.41q.13.5.24 1.08.12.58.24 1.21.13-.65.28-1.22.14-.57.31-1.07l4.41-13.41q.12-.35.48-.65.37-.29.9-.29h1.22q.54 0 .88.26t.51.68l4.39 13.41q.33.96.59 2.22.2-1.23.45-2.22l3.81-13.41q.1-.39.48-.66.38-.28.9-.28"/></svg>