<svg xmlns="http://www.w3.org/2000/svg" width="100" height="100" viewBox="0 0 100 100"><rect width="100%" height="100%" fill="#dc2626"/><path fill="#ffffff" d="M32.575 42.045v2.44h-4.8v13.47h-2.96v-13.47h-4.79v-2.44zm17.1 0h2.23v15.91h-2.6v-10.27q0-.62.06-1.33l-4.8 9.03q-.34.65-1.05.65h-.42q-.7 0-1.04-.65l-4.86-9.07q.03.37.05.72t.02.65v10.27h-2.6v-15.91h2.23q.2 0 .34.02.14.01.26.05.11.04.21.14.09.1.18.27l4.76 8.83q.19.35.35.73.16.37.31.77.16-.41.32-.79.17-.38.35-.73l4.7-8.81q.09-.17.19-.27t.21-.14q.12-.04.26-.05.14-.02.34-.02m8.74 13.6h2.99q.82 0 1.38-.2t.9-.53.48-.77q.15-.44.15-.93 0-.52-.16-.93-.17-.41-.52-.7-.35-.3-.91-.45-.55-.15-1.33-.15h-2.98zm2.51-11.31h-2.51v4.6h2.35q1.52 0 2.29-.55.78-.55.78-1.75 0-1.24-.71-1.77-.7-.53-2.2-.53m-5.47-2.29h5.47q1.57 0 2.68.3t1.82.85 1.04 1.33.33 1.76q0 .56-.17 1.07-.16.51-.51.96-.35.44-.88.81-.53.36-1.27.61 3.28.74 3.28 3.55 0 1.01-.39 1.87-.38.85-1.12 1.47-.74.63-1.81.98-1.08.35-2.47.35h-6zm24.52 2.36h-7.07v4.71h5.97v2.36h-5.97v6.48h-2.97v-15.91h10.04z"/></svg>