<svg xmlns="http://www.w3.org/2000/svg" width="100" height="100" viewBox="0 0 100 100"><rect width="100%" height="100%" fill="#dc2626"/><path fill="#ffffff" d="M29.585 43.855v1.88h-3.71v10.41h-2.29v-10.41h-3.7v-1.88zm13.21 0h1.73v12.29h-2.02v-7.94q0-.48.06-1.03l-3.72 6.98q-.26.5-.81.5h-.32q-.54 0-.81-.5l-3.75-7 .04.55q.02.27.02.5v7.94h-2.02v-12.29h1.73q.15 0 .26.01t.2.04.16.11.14.2l3.68 6.83q.15.27.27.56t.24.6q.12-.32.25-.61.13-.3.27-.57l3.63-6.81q.07-.12.14-.2.08-.08.17-.11t.2-.04.26-.01m11.58 1.15-.57 1.08q-.1.18-.22.26-.11.08-.28.08-.18 0-.39-.13t-.49-.29q-.29-.16-.68-.29-.39-.14-.91-.14-.48 0-.84.12-.35.11-.6.32-.24.2-.36.49-.12.28-.12.62 0 .43.25.72.24.29.64.5.4.2.91.36t1.04.35q.54.18 1.05.42t.91.61.64.91q.24.53.24 1.3 0 .83-.28 1.56-.29.73-.84 1.27-.54.54-1.33.85-.8.31-1.82.31-.58 0-1.15-.12-.57-.11-1.09-.33-.53-.21-.99-.51-.45-.29-.81-.66l.67-1.1q.09-.11.22-.2.14-.08.29-.08.21 0 .46.18.25.17.59.38.34.22.79.39.46.18 1.09.18.98 0 1.52-.47.53-.46.53-1.33 0-.48-.24-.79-.24-.3-.64-.51t-.91-.36q-.51-.14-1.04-.31t-1.04-.41-.91-.62-.64-.95q-.24-.58-.24-1.42 0-.67.27-1.31t.78-1.13 1.25-.79q.75-.3 1.72-.3 1.09 0 2.01.34.91.34 1.56.95m10.8-1.15v1.88h-3.71v10.41h-2.29v-10.41h-3.7v-1.88zm13.21 0h1.73v12.29h-2.02v-7.94q0-.48.06-1.03l-3.72 6.98q-.26.5-.81.5h-.32q-.54 0-.81-.5l-3.75-7 .04.55q.02.27.02.5v7.94h-2.02v-12.29h1.73q.15 0 .26.01t.2.04.16.11.14.2l3.68 6.83q.15.27.27.56t.24.6q.12-.32.25-.61.13-.3.27-.57l3.63-6.81q.07-.12.14-.2.08-.08.17-.11t.2-.04.26-.01"/></svg>