<svg xmlns="http://www.w3.org/2000/svg" width="100" height="100" viewBox="0 0 100 100"><rect width="100%" height="100%" fill="#dc2626"/><path fill="#ffffff" d="M34.91 40.6v2.87h-5.67V59.4h-3.49V43.47h-5.67V40.6zm15.24 0h3.08v18.8h-1.79q-.42 0-.7-.14-.28-.13-.54-.46l-9.81-12.53q.07.86.07 1.59V59.4h-3.08V40.6h1.84q.22 0 .38.02t.28.08q.13.06.25.17.11.11.26.29l9.85 12.58q-.04-.45-.07-.89-.02-.44-.02-.82zm10.78 0v18.8h-3.51V40.6zm17.1 14.37q.29 0 .51.22l1.38 1.49q-1.15 1.42-2.82 2.17-1.67.76-4.01.76-2.09 0-3.76-.72-1.67-.71-2.85-1.99-1.19-1.27-1.82-3.04T64.03 50q0-2.12.68-3.88.67-1.76 1.9-3.04 1.23-1.27 2.93-1.98 1.71-.71 3.77-.71t3.65.68 2.71 1.77l-1.17 1.62q-.1.16-.27.28-.16.11-.44.11-.2 0-.41-.11-.2-.11-.45-.27t-.57-.36q-.33-.19-.76-.36-.43-.16-.99-.27-.57-.11-1.31-.11-1.26 0-2.31.45-1.04.45-1.8 1.3-.75.85-1.17 2.08-.41 1.23-.41 2.8 0 1.59.45 2.82.44 1.24 1.21 2.08.77.85 1.81 1.3 1.04.44 2.23.44.72 0 1.3-.07.58-.08 1.06-.25.49-.17.93-.44.43-.26.86-.65.13-.12.27-.19.15-.07.3-.07"/></svg>