<svg xmlns="http://www.w3.org/2000/svg" width="100" height="100" viewBox="0 0 100 100"><rect width="100%" height="100%" fill="#dc2626"/><path fill="#ffffff" d="M31.475 44.94h1.48l-3.14 10.12h-1.7l-2.22-6.92q-.09-.25-.16-.61-.05.17-.09.33-.04.15-.09.28l-2.23 6.92h-1.71l-3.14-10.12h1.58q.24 0 .41.11.16.12.22.31l1.72 6.06q.06.22.11.49.05.26.11.55.05-.3.12-.56t.14-.48l1.99-6.06q.06-.16.22-.29.17-.13.41-.13h.55q.24 0 .4.12.15.12.23.3l1.98 6.06q.15.43.27 1 .09-.55.2-1l1.72-6.06q.04-.17.21-.3.18-.12.41-.12m9.8 0v1.54h-3.06v8.58h-1.88v-8.58h-3.05v-1.54zm13.32 0h1.47l-3.14 10.12h-1.7l-2.21-6.92q-.09-.25-.17-.61-.04.17-.08.33-.05.15-.09.28l-2.24 6.92h-1.71l-3.13-10.12h1.57q.25 0 .41.11.17.12.22.31l1.73 6.06q.05.22.1.49.06.26.11.55.06-.3.13-.56.06-.26.14-.48l1.99-6.06q.05-.16.22-.29.16-.13.4-.13h.55q.25 0 .4.12.16.12.23.3l1.98 6.06q.15.43.27 1 .09-.55.2-1l1.72-6.06q.05-.17.22-.3.17-.12.41-.12m12.28 0h1.42v10.12h-1.66v-6.54q0-.39.04-.84l-3.06 5.74q-.22.41-.66.41h-.27q-.45 0-.67-.41l-3.09-5.77.04.46q.01.22.01.41v6.54h-1.66V44.94h1.64q.09.01.16.04.08.03.14.09t.11.17l3.03 5.62q.12.22.22.46t.2.49q.1-.26.21-.5.1-.24.22-.46l2.99-5.61q.05-.11.12-.17.06-.06.13-.09.08-.03.17-.04zm13.23 0h1.42v10.12h-1.66v-6.54q0-.39.04-.84l-3.06 5.74q-.22.41-.66.41h-.27q-.45 0-.67-.41l-3.09-5.77.04.46q.01.22.01.41v6.54h-1.66V44.94h1.64q.09.01.16.04.08.03.14.09t.11.17l3.03 5.62q.12.22.22.46t.2.49q.1-.26.21-.5.1-.24.22-.46l2.99-5.61q.05-.11.12-.17.06-.06.13-.09.08-.03.17-.04z"/></svg>