<svg xmlns="http://www.w3.org/2000/svg" width="100" height="100" viewBox="0 0 100 100"><rect width="100%" height="100%" fill="#dc2626"/><path fill="#ffffff" d="M33.63 54.78q.27 0 .48.21l1.33 1.44q-1.1 1.36-2.71 2.08-1.6.73-3.85.73-2.02 0-3.62-.69-1.61-.69-2.75-1.91-1.13-1.23-1.74-2.93T20.16 50q0-2.04.65-3.73t1.84-2.92q1.18-1.22 2.81-1.9 1.64-.69 3.63-.69 1.97 0 3.51.65 1.53.65 2.6 1.7l-1.12 1.57q-.1.15-.26.26t-.43.11q-.19 0-.39-.1-.2-.11-.44-.27-.23-.15-.55-.34-.31-.19-.72-.34-.41-.16-.96-.27-.54-.1-1.25-.1-1.22 0-2.22.43-1.01.43-1.73 1.25-.73.82-1.13 2T23.6 50q0 1.53.43 2.71.43 1.19 1.17 2 .74.82 1.74 1.25t2.15.43q.69 0 1.24-.08.56-.07 1.03-.23.47-.17.89-.42.41-.26.83-.63.12-.12.26-.18.14-.07.29-.07m15.52-11.14h-8.02v5.35h6.77v2.69h-6.77v7.36h-3.38V40.97h11.4zm13.21-.98-.83 1.59q-.15.26-.32.38t-.42.12q-.26 0-.57-.19-.31-.2-.73-.43-.43-.24-.99-.43-.57-.2-1.35-.2-.7 0-1.22.17-.53.17-.88.47-.36.3-.54.72-.17.42-.17.92 0 .63.36 1.06.35.42.94.72t1.34.54 1.53.51q.79.27 1.54.62.75.36 1.34.9.59.55.94 1.33.36.79.36 1.92 0 1.22-.42 2.29t-1.22 1.86q-.81.8-1.97 1.25-1.17.46-2.67.46-.86 0-1.7-.17-.83-.17-1.6-.48t-1.45-.75q-.67-.44-1.2-.98l.99-1.61q.13-.17.33-.29t.42-.12q.31 0 .68.26.36.25.86.56.5.32 1.17.57.67.26 1.6.26 1.44 0 2.23-.68t.79-1.96q0-.71-.36-1.16t-.94-.76q-.59-.3-1.34-.52-.75-.21-1.53-.46-.77-.25-1.52-.6t-1.34-.91-.94-1.41q-.36-.84-.36-2.08 0-.99.4-1.92.39-.94 1.14-1.67.75-.72 1.85-1.16t2.52-.44q1.6 0 2.95.5t2.3 1.4m15.67 12.12q.27 0 .48.21l1.33 1.44q-1.1 1.36-2.71 2.08-1.6.73-3.85.73-2.02 0-3.62-.69-1.61-.69-2.75-1.91-1.13-1.23-1.74-2.93T64.56 50q0-2.04.65-3.73t1.84-2.92q1.18-1.22 2.81-1.9 1.64-.69 3.63-.69 1.97 0 3.51.65 1.53.65 2.6 1.7l-1.12 1.57q-.1.15-.26.26t-.43.11q-.19 0-.39-.1-.2-.11-.44-.27-.23-.15-.55-.34-.31-.19-.72-.34-.41-.16-.96-.27-.54-.1-1.25-.1-1.22 0-2.22.43-1.01.43-1.73 1.25-.73.82-1.13 2T68 50q0 1.53.43 2.71.43 1.19 1.17 2 .74.82 1.74 1.25t2.15.43q.69 0 1.24-.08.56-.07 1.03-.23.47-.17.89-.42.41-.26.83-.63.12-.12.26-.18.14-.07.29-.07"/></svg>