<svg xmlns="http://www.w3.org/2000/svg" width="100" height="100" viewBox="0 0 100 100"><rect width="100%" height="100%" fill="#dc2626"/><path fill="#ffffff" d="M33.68 54.78q.27 0 .49.21l1.32 1.44q-1.1 1.36-2.71 2.08-1.6.73-3.85.73-2.01 0-3.62-.69t-2.74-1.91q-1.14-1.23-1.75-2.93-.6-1.7-.6-3.71 0-2.04.65-3.73t1.83-2.92q1.18-1.22 2.82-1.9 1.63-.69 3.62-.69 1.98 0 3.51.65t2.6 1.7l-1.12 1.57q-.1.15-.26.26-.15.11-.43.11-.19 0-.39-.1-.2-.11-.43-.27-.24-.15-.55-.34-.32-.19-.73-.34-.41-.16-.96-.27-.54-.1-1.25-.1-1.21 0-2.22.43t-1.73 1.25q-.73.82-1.13 2t-.4 2.69q0 1.53.43 2.71.44 1.19 1.17 2 .74.82 1.74 1.25t2.15.43q.69 0 1.24-.08.56-.07 1.03-.23.47-.17.89-.42.42-.26.83-.63.12-.12.26-.18.14-.07.29-.07M49.2 43.64h-8.02v5.35h6.77v2.69h-6.77v7.36H37.8V40.97h11.4zm13.22-.98-.84 1.59q-.15.26-.32.38t-.42.12q-.26 0-.57-.19-.3-.2-.73-.43-.42-.24-.99-.43-.57-.2-1.35-.2-.7 0-1.22.17-.53.17-.88.47-.36.3-.53.72-.18.42-.18.92 0 .63.36 1.06.35.42.94.72t1.34.54 1.54.51q.78.27 1.53.62.75.36 1.34.9.59.55.94 1.33.36.79.36 1.92 0 1.22-.42 2.29t-1.22 1.86q-.81.8-1.97 1.25-1.16.46-2.66.46-.87 0-1.7-.17-.84-.17-1.61-.48t-1.44-.75q-.68-.44-1.2-.98l.98-1.61q.13-.17.33-.29t.42-.12q.32 0 .68.26.36.25.86.56.5.32 1.17.57.67.26 1.61.26 1.43 0 2.22-.68t.79-1.96q0-.71-.36-1.16-.35-.45-.94-.76-.59-.3-1.34-.52-.75-.21-1.52-.46-.78-.25-1.53-.6t-1.34-.91q-.58-.56-.94-1.41-.36-.84-.36-2.08 0-.99.4-1.92.39-.94 1.14-1.67.75-.72 1.85-1.16t2.53-.44q1.6 0 2.95.5t2.3 1.4m6.61 6.91h2.1q.95 0 1.65-.24.71-.24 1.17-.66.45-.42.68-.99.22-.58.22-1.27 0-1.37-.9-2.11-.91-.74-2.77-.74h-2.15zm6.22 2.79 4.53 6.68h-3.04q-.86 0-1.25-.68l-3.8-5.78q-.21-.33-.47-.47-.25-.13-.75-.13h-1.44v7.06h-3.36V40.97h5.51q1.84 0 3.15.38 1.32.38 2.17 1.06.84.69 1.24 1.65.4.95.4 2.1 0 .92-.27 1.73t-.77 1.47q-.51.67-1.25 1.17-.75.5-1.7.78.33.19.6.45.28.25.5.6"/></svg>