<svg xmlns="http://www.w3.org/2000/svg" width="100" height="100" viewBox="0 0 100 100"><rect width="100%" height="100%" fill="#dc2626"/><path fill="#ffffff" d="M30.76 53.82q.22 0 .39.17l1.07 1.15q-.89 1.09-2.17 1.67-1.29.58-3.08.58-1.62 0-2.9-.55-1.29-.55-2.2-1.53t-1.39-2.34q-.49-1.36-.49-2.97 0-1.63.52-2.98.52-1.36 1.47-2.34.94-.98 2.25-1.53 1.31-.54 2.9-.54t2.81.52 2.09 1.36l-.91 1.25q-.08.12-.2.21-.13.09-.34.09-.15 0-.32-.09-.15-.08-.35-.2-.19-.13-.44-.28t-.57-.28q-.34-.12-.77-.21-.44-.08-1.01-.08-.97 0-1.77.35-.81.34-1.38 1-.59.65-.91 1.6-.32.94-.32 2.15 0 1.22.35 2.17t.94 1.6q.58.65 1.39 1 .8.34 1.71.34.56 0 1-.06.45-.06.82-.19.38-.13.71-.34.33-.2.67-.5.1-.09.21-.14.11-.06.22-.06m13.41-11.05v2.21h-4.36v12.25h-2.7V44.98h-4.35v-2.21zm8.03 12.61h2.6v1.85h-8v-1.85h2.94v-8.43q0-.5.03-1.03l-2.09 1.74q-.17.14-.35.18-.17.03-.33 0t-.28-.11q-.12-.07-.18-.16l-.78-1.07 4.41-3.75h2.03zm13.84-11.25-.67 1.27q-.13.21-.26.3-.14.1-.33.1-.22 0-.46-.16-.25-.15-.59-.34t-.79-.35q-.46-.15-1.07-.15-.57 0-.99.14-.42.13-.7.37-.29.24-.42.57-.14.34-.14.74 0 .51.28.85.29.34.75.58.47.24 1.07.43.61.19 1.23.4.63.22 1.24.51.59.28 1.07.71.46.44.75 1.07.28.63.28 1.53 0 .98-.33 1.84-.34.85-.98 1.48-.65.64-1.58 1-.93.37-2.12.37-.7 0-1.37-.13-.67-.14-1.28-.39-.62-.25-1.16-.6t-.96-.78l.79-1.29q.1-.14.26-.24.16-.09.34-.09.25 0 .55.2.28.21.68.46t.94.45q.53.21 1.28.21 1.16 0 1.78-.54.63-.55.63-1.57 0-.57-.28-.93t-.76-.61q-.46-.24-1.07-.41-.6-.17-1.21-.37-.63-.2-1.23-.48-.59-.28-1.07-.73-.47-.45-.75-1.12-.29-.68-.29-1.67 0-.79.32-1.54.31-.75.91-1.33.61-.58 1.48-.93.88-.35 2.02-.35 1.29 0 2.37.4t1.84 1.12m12.53 9.69q.22 0 .38.17l1.06 1.15q-.88 1.09-2.16 1.67t-3.09.58q-1.61 0-2.89-.55-1.29-.55-2.2-1.53t-1.39-2.34q-.49-1.36-.49-2.97 0-1.63.52-2.98.52-1.36 1.47-2.34.94-.98 2.26-1.53 1.31-.54 2.9-.54 1.57 0 2.8.52t2.09 1.36l-.9 1.25q-.08.12-.21.21-.12.09-.35.09-.15 0-.3-.09-.17-.08-.35-.2-.19-.13-.44-.28t-.59-.28q-.32-.12-.76-.21-.43-.08-1-.08-.98 0-1.78.35-.8.34-1.39 1-.57.65-.89 1.6-.33.94-.33 2.15 0 1.22.35 2.17t.94 1.6 1.39 1q.79.34 1.72.34.55 0 .99-.06t.82-.19q.37-.13.71-.34.33-.2.66-.5.1-.09.21-.14.11-.06.24-.06"/></svg>