<svg xmlns="http://www.w3.org/2000/svg" width="100" height="100" viewBox="0 0 100 100"><rect width="100%" height="100%" fill="#dc2626"/><path fill="#ffffff" d="M36.485 38.795h4.18v22.41h-4.18v-9.8h-10.53v9.8h-4.18v-22.41h4.18v9.64h10.53zm13.34 11.27h3.12q1.14 0 2-.29.85-.29 1.41-.82.57-.54.85-1.3.28-.77.28-1.72 0-.9-.28-1.62-.28-.73-.84-1.25-.56-.51-1.41-.78t-2.01-.27h-3.12zm-4.17-11.27h7.29q2.24 0 3.89.52 1.64.53 2.71 1.48 1.07.94 1.59 2.26t.52 2.88q0 1.63-.54 2.99-.55 1.35-1.63 2.33-1.09.98-2.72 1.52-1.64.54-3.82.54h-3.12v7.89h-4.17zm32.16 2.11-1.03 1.96q-.19.33-.4.48-.21.14-.52.14-.32 0-.7-.24t-.91-.53q-.53-.3-1.23-.54-.71-.24-1.67-.24-.87 0-1.52.21t-1.09.58q-.44.38-.66.9-.22.51-.22 1.13 0 .8.45 1.32.44.53 1.17.9.72.37 1.65.67.93.29 1.91.63.98.33 1.91.77t1.66 1.12q.72.67 1.17 1.65.44.97.44 2.37 0 1.52-.52 2.84-.52 1.33-1.52 2.31-1 .99-2.44 1.55-1.44.57-3.3.57-1.07 0-2.11-.21t-1.99-.6q-.96-.39-1.79-.93-.84-.54-1.49-1.21l1.22-2q.16-.21.41-.36.24-.15.52-.15.39 0 .84.32t1.07.71q.62.38 1.45.7t1.99.32q1.78 0 2.76-.85.98-.84.98-2.42 0-.89-.45-1.44-.44-.56-1.17-.94-.72-.38-1.65-.65-.93-.26-1.9-.57-.96-.31-1.89-.74-.93-.44-1.66-1.13-.72-.7-1.17-1.75-.44-1.04-.44-2.58 0-1.22.49-2.39.49-1.16 1.42-2.06t2.29-1.44q1.37-.54 3.13-.54 1.99 0 3.66.62 1.68.62 2.85 1.74"/></svg>