<svg xmlns="http://www.w3.org/2000/svg" width="100" height="100" viewBox="0 0 100 100"><rect width="100%" height="100%" fill="#dc2626"/><path fill="#ffffff" d="M39.055 56.3q.36 0 .64.28l1.75 1.9q-1.45 1.8-3.57 2.76-2.12.95-5.09.95-2.66 0-4.78-.9-2.12-.91-3.62-2.53t-2.3-3.86-.8-4.9q0-2.69.85-4.92.86-2.24 2.42-3.86 1.56-1.61 3.72-2.51t4.79-.9q2.6 0 4.63.85 2.02.86 3.44 2.25l-1.49 2.06q-.13.2-.34.35-.2.15-.57.15-.24 0-.51-.14-.26-.14-.58-.35-.31-.21-.72-.45-.41-.25-.96-.46-.54-.2-1.26-.34t-1.66-.14q-1.6 0-2.93.56-1.33.57-2.28 1.65-.96 1.09-1.49 2.64-.53 1.56-.53 3.56 0 2.01.57 3.58t1.55 2.64q.97 1.07 2.29 1.64t2.84.57q.9 0 1.64-.1.73-.1 1.35-.31.62-.22 1.17-.55.56-.34 1.1-.84.17-.15.35-.24t.38-.09m22.11-18.23v3.65h-7.2v20.21h-4.44V41.72h-7.19v-3.65zm13.26 20.81h4.29v3.05h-13.2v-3.05h4.84V44.97q0-.83.05-1.7l-3.44 2.87q-.29.23-.58.29t-.55.01q-.25-.05-.45-.18-.2-.12-.3-.27l-1.28-1.76 7.27-6.19h3.35z"/></svg>