<svg xmlns="http://www.w3.org/2000/svg" width="100" height="100" viewBox="0 0 100 100"><rect width="100%" height="100%" fill="#dc2626"/><path fill="#ffffff" d="M25.325 49.435h2.69q1.22 0 2.12-.3.91-.31 1.49-.84.58-.54.87-1.27.29-.74.29-1.62 0-1.76-1.16-2.7-1.16-.95-3.54-.95h-2.76zm7.97 3.59 5.79 8.54h-3.88q-1.11 0-1.6-.86l-4.87-7.41q-.27-.42-.6-.59-.33-.18-.97-.18h-1.84v9.04h-4.3v-23.14h7.06q2.35 0 4.04.49 1.68.49 2.76 1.37t1.6 2.1q.51 1.23.51 2.7 0 1.17-.35 2.21-.34 1.04-.99 1.89-.65.84-1.6 1.48t-2.17 1.01q.42.24.77.57t.64.78m21.7-12.42-1.07 2.03q-.2.34-.41.49-.22.15-.54.15-.33 0-.73-.25-.39-.24-.93-.55-.55-.3-1.27-.55-.73-.25-1.72-.25-.9 0-1.57.22-.67.21-1.13.6-.46.38-.68.92-.22.53-.22 1.17 0 .82.45 1.36.46.55 1.21.93.75.39 1.71.69t1.97.65q1.01.34 1.97.8.96.45 1.71 1.15t1.21 1.7q.45 1.01.45 2.45 0 1.57-.53 2.94-.54 1.37-1.57 2.38-1.03 1.02-2.52 1.6-1.49.59-3.41.59-1.1 0-2.17-.22-1.08-.22-2.06-.62t-1.85-.96q-.86-.56-1.53-1.24l1.26-2.07q.16-.22.42-.37.25-.16.54-.16.4 0 .86.33.47.33 1.11.73t1.49.73q.86.33 2.06.33 1.84 0 2.85-.88 1.01-.87 1.01-2.5 0-.91-.46-1.49-.46-.57-1.21-.97-.75-.39-1.71-.66t-1.95-.59-1.95-.77-1.72-1.17q-.75-.72-1.2-1.8-.46-1.08-.46-2.66 0-1.27.5-2.47.51-1.2 1.47-2.12.96-.93 2.37-1.49 1.4-.56 3.23-.56 2.05 0 3.77.64 1.73.64 2.95 1.79m9.02 12.22h7.36l-2.81-7.69q-.21-.51-.44-1.22-.22-.7-.44-1.52-.21.82-.44 1.53-.22.71-.43 1.24zm5.87-14.4 9.09 23.14h-3.33q-.56 0-.91-.28t-.53-.7l-1.72-4.72h-9.59l-1.73 4.72q-.12.37-.49.68-.37.3-.91.3h-3.36l9.1-23.14z"/></svg>