<svg xmlns="http://www.w3.org/2000/svg" width="100" height="100" viewBox="0 0 100 100"><rect width="100%" height="100%" fill="#dc2626"/><path fill="#ffffff" d="M25.95 49.375h3.02q1.37 0 2.39-.35 1.01-.34 1.67-.94t.98-1.43q.33-.83.33-1.82 0-1.98-1.31-3.04-1.3-1.06-3.99-1.06h-3.09zm8.96 4.03 6.52 9.61h-4.38q-1.24 0-1.8-.97l-5.47-8.34q-.3-.46-.67-.66t-1.09-.2h-2.07v10.17h-4.84v-26.03h7.93q2.65 0 4.55.55t3.11 1.54q1.22.99 1.79 2.37.58 1.37.58 3.03 0 1.31-.39 2.48-.38 1.17-1.11 2.13-.73.95-1.8 1.67t-2.44 1.14q.47.27.86.63.4.37.72.88m40.18-16.42h3.8l-8.09 26.03h-4.37l-5.69-17.78q-.23-.65-.43-1.59-.11.45-.22.85-.1.39-.23.74l-5.74 17.78h-4.39l-8.07-26.03h4.05q.63 0 1.05.3.43.3.57.8l4.43 15.57q.14.58.28 1.25.13.68.28 1.41.14-.75.31-1.42.17-.66.37-1.24l5.11-15.57q.15-.41.57-.76.42-.34 1.04-.34h1.42q.63 0 1.02.31.4.3.6.79l5.09 15.57q.38 1.12.69 2.57.23-1.42.52-2.57l4.43-15.57q.1-.45.55-.77.44-.33 1.05-.33"/></svg>