<svg xmlns="http://www.w3.org/2000/svg" width="100" height="100" viewBox="0 0 100 100"><rect width="100%" height="100%" fill="#dc2626"/><path fill="#ffffff" d="m34.46 41.485-.97 1.85q-.18.3-.37.44-.2.14-.49.14-.3 0-.66-.23-.35-.22-.85-.5-.49-.27-1.15-.5-.66-.22-1.56-.22-.81 0-1.42.19-.61.2-1.02.55-.41.34-.62.83-.2.49-.2 1.07 0 .73.41 1.23.42.49 1.1.84t1.55.62q.87.28 1.78.59.92.31 1.79.72.87.42 1.55 1.05t1.09 1.54q.42.92.42 2.22 0 1.42-.49 2.66t-1.42 2.16q-.94.92-2.28 1.45-1.35.53-3.09.53-1 0-1.97-.19-.98-.2-1.87-.56t-1.67-.87q-.79-.51-1.39-1.13l1.14-1.87q.15-.21.38-.34.23-.14.49-.14.36 0 .78.3.42.29 1 .65.58.37 1.36.66.78.3 1.86.3 1.67 0 2.58-.79.92-.79.92-2.27 0-.82-.42-1.35-.41-.52-1.09-.87-.68-.36-1.55-.61-.87-.24-1.77-.53t-1.77-.7q-.87-.4-1.55-1.06-.68-.65-1.1-1.63-.41-.98-.41-2.41 0-1.15.46-2.23.45-1.09 1.32-1.93t2.15-1.35 2.93-.51q1.86 0 3.42.58 1.57.58 2.67 1.62m23.76 8.52q0 2.3-.76 4.27-.76 1.96-2.15 3.4-1.39 1.43-3.35 2.24-1.96.8-4.35.8-2.38 0-4.33-.8-1.96-.81-3.36-2.24-1.4-1.44-2.17-3.4-.77-1.97-.77-4.27 0-2.31.77-4.27.77-1.97 2.17-3.4 1.4-1.44 3.36-2.24 1.95-.81 4.33-.81 1.6 0 3 .37 1.41.37 2.58 1.04 1.18.68 2.11 1.64.94.97 1.59 2.16t.99 2.58.34 2.93m-3.98 0q0-1.73-.47-3.1-.46-1.37-1.32-2.33-.85-.95-2.08-1.46-1.22-.51-2.76-.51t-2.76.51q-1.23.51-2.09 1.46-.86.96-1.33 2.33-.46 1.37-.46 3.1 0 1.72.46 3.09.47 1.37 1.33 2.32t2.09 1.46q1.22.51 2.76.51t2.76-.51q1.23-.51 2.08-1.46.86-.95 1.32-2.32.47-1.37.47-3.09m21.66-10.49h3.44v20.97h-2q-.47 0-.78-.15t-.6-.52l-10.95-13.98q.09.96.09 1.77v12.88h-3.44v-20.97h2.05q.24 0 .42.02.18.03.32.09.14.07.27.19t.29.33L76 54.175q-.04-.51-.07-1t-.03-.91z"/></svg>