<svg xmlns="http://www.w3.org/2000/svg" width="100" height="100" viewBox="0 0 100 100"><rect width="100%" height="100%" fill="#dc2626"/><path fill="#ffffff" d="m40.195 38.795-8.17 13.73v8.68h-4.15v-8.68l-8.17-13.73h3.67q.55 0 .86.26.32.26.54.67l4.09 7.48q.36.67.63 1.26t.49 1.18q.2-.59.46-1.18t.61-1.26l4.07-7.48q.17-.34.51-.64.34-.29.87-.29zm17.95 0v3.42h-6.76v18.99h-4.17v-18.99h-6.76v-3.42zm7.66 13.95h7.13l-2.73-7.46q-.2-.49-.42-1.18-.22-.68-.43-1.47-.21.79-.42 1.48-.22.69-.42 1.2zm5.69-13.95 8.8 22.41h-3.22q-.55 0-.89-.27t-.51-.68l-1.67-4.57h-9.29l-1.67 4.57q-.13.36-.48.66-.36.29-.89.29h-3.25l8.82-22.41z"/></svg>