<svg xmlns="http://www.w3.org/2000/svg" width="100" height="100" viewBox="0 0 100 100"><rect width="100%" height="100%" fill="#dc2626"/><path fill="#ffffff" d="M26.26 52.655h6.9l-2.64-7.21q-.19-.48-.4-1.14t-.42-1.43q-.2.77-.41 1.43-.21.67-.4 1.16zm5.51-13.5 8.52 21.69h-3.12q-.53 0-.86-.26-.33-.27-.49-.65l-1.62-4.43h-8.99l-1.62 4.43q-.12.34-.46.63-.35.28-.86.28h-3.15l8.54-21.69zm14.8 18.54h4.08q1.13 0 1.89-.27.77-.27 1.22-.72.46-.45.66-1.05.21-.6.21-1.27 0-.71-.23-1.27-.22-.56-.7-.96t-1.24-.61-1.82-.21h-4.07zm3.44-15.42h-3.44v6.27h3.21q2.07 0 3.13-.75t1.06-2.38q0-1.7-.96-2.42t-3-.72m-7.47-3.12h7.47q2.13 0 3.64.4 1.52.41 2.48 1.16.97.75 1.42 1.82.45 1.06.45 2.4 0 .76-.22 1.46-.23.7-.7 1.3-.47.61-1.2 1.11-.73.49-1.73.83 4.47 1.01 4.47 4.83 0 1.38-.53 2.56-.52 1.17-1.53 2.01-1 .85-2.47 1.33t-3.36.48h-8.19zm24.31 13.5h6.9l-2.64-7.21q-.19-.48-.4-1.14t-.42-1.43q-.2.77-.41 1.43-.21.67-.4 1.16zm5.51-13.5 8.52 21.69h-3.12q-.53 0-.86-.26-.33-.27-.49-.65l-1.62-4.43H65.8l-1.62 4.43q-.12.34-.46.63-.35.28-.86.28h-3.15l8.54-21.69z"/></svg>