<svg xmlns="http://www.w3.org/2000/svg" width="100" height="100" viewBox="0 0 100 100"><rect width="100%" height="100%" fill="#dc2626"/><path fill="#ffffff" d="M43.84 49.945h12v14.63q-2.75 2.02-5.87 2.96-3.11.94-6.66.94-4.42 0-8.01-1.38-3.59-1.37-6.13-3.82-2.53-2.45-3.91-5.85-1.37-3.4-1.37-7.42 0-4.08 1.32-7.48 1.33-3.4 3.76-5.85 2.44-2.45 5.92-3.8 3.47-1.35 7.8-1.35 2.2 0 4.11.35t3.55.96 2.99 1.49q1.35.87 2.47 1.92l-1.92 3.05q-.45.73-1.18.89-.72.16-1.57-.36-.83-.48-1.65-.95-.83-.48-1.84-.83t-2.28-.57q-1.26-.23-2.91-.23-2.67 0-4.84.9-2.16.9-3.68 2.58-1.53 1.67-2.35 4.02-.83 2.35-.83 5.26 0 3.09.89 5.53t2.5 4.13q1.61 1.68 3.89 2.57 2.27.89 5.07.89 2 0 3.58-.43 1.57-.42 3.07-1.15v-6.55h-4.55q-.65 0-1.01-.36t-.36-.89zm32.27-18.02v23.3q0 3.05-.75 5.5t-2.23 4.17q-1.49 1.73-3.72 2.65-2.22.93-5.17.93-1.35 0-2.65-.16t-2.73-.52q.08-1 .18-1.99.1-1.01.17-2.01.08-.55.44-.88.36-.34 1.04-.34.42 0 1.11.17.69.18 1.74.18 1.42 0 2.52-.41 1.1-.42 1.84-1.32t1.11-2.33q.38-1.44.38-3.49v-23.45z"/></svg>