<svg xmlns="http://www.w3.org/2000/svg" width="100" height="100" viewBox="0 0 100 100"><rect width="100%" height="100%" fill="#dc2626"/><path fill="#ffffff" d="M35.305 39.515h3.92v20.97h-3.92v-9.16h-9.84v9.16h-3.92v-20.97h3.92v9.02h9.84zm27.2 10.49q0 2.3-.76 4.23-.77 1.93-2.16 3.32-1.4 1.39-3.35 2.16-1.96.77-4.35.77h-7.99v-20.97h7.99q2.39 0 4.35.78 1.95.77 3.35 2.16 1.39 1.38 2.16 3.31.76 1.93.76 4.24m-4 0q0-1.73-.45-3.1-.46-1.37-1.32-2.32-.87-.95-2.09-1.46-1.23-.5-2.76-.5h-4.08v14.76h4.08q1.53 0 2.76-.51 1.22-.51 2.09-1.46.86-.95 1.32-2.32.45-1.37.45-3.09m19.58-8.52-.97 1.85q-.18.3-.37.44-.2.14-.49.14-.3 0-.66-.23-.35-.22-.85-.5-.49-.27-1.15-.5-.66-.22-1.56-.22-.81 0-1.42.19-.61.2-1.02.55-.42.34-.62.83t-.2 1.07q0 .73.41 1.23.41.49 1.1.84.68.35 1.55.62.87.28 1.78.59t1.78.72q.87.42 1.56 1.05.68.63 1.09 1.54.41.92.41 2.22 0 1.42-.48 2.66-.49 1.24-1.42 2.16-.94.92-2.29 1.45-1.34.53-3.08.53-1.01 0-1.98-.19-.97-.2-1.86-.56t-1.67-.87q-.79-.51-1.4-1.13l1.15-1.87q.14-.21.38-.34.23-.14.49-.14.36 0 .78.3.42.29 1 .65.58.37 1.36.66.77.3 1.86.3 1.67 0 2.58-.79.92-.79.92-2.27 0-.82-.42-1.35-.41-.52-1.09-.87-.68-.36-1.55-.61-.87-.24-1.77-.53t-1.77-.7q-.87-.4-1.55-1.06-.68-.65-1.1-1.63-.41-.98-.41-2.41 0-1.15.46-2.23.45-1.09 1.32-1.93t2.15-1.35q1.27-.51 2.93-.51 1.85 0 3.42.58t2.67 1.62"/></svg>