<svg xmlns="http://www.w3.org/2000/svg" width="100" height="100" viewBox="0 0 100 100"><rect width="100%" height="100%" fill="#dc2626"/><path fill="#ffffff" d="M34.045 42.77h2.03v14.46h-2.37v-9.34q0-.56.06-1.21l-4.37 8.21q-.31.59-.95.59h-.38q-.64 0-.95-.59l-4.42-8.24q.03.33.05.65t.02.59v9.34h-2.37V42.77h2.03q.18 0 .31.01t.24.05q.1.04.19.13.08.09.16.24l4.33 8.03q.17.32.32.66.14.34.28.7.14-.37.29-.72.15-.34.32-.66l4.27-8.01q.08-.15.17-.24t.2-.13q.1-.04.23-.05t.31-.01m12.37 7.21h4.8v5.85q-1.1.81-2.34 1.19-1.25.37-2.67.37-1.77 0-3.2-.55-1.44-.55-2.45-1.53-1.02-.98-1.57-2.34t-.55-2.97q0-1.63.53-2.99t1.51-2.34q.97-.98 2.36-1.52t3.12-.54q.88 0 1.65.14.76.14 1.42.38.65.25 1.19.6t.99.77l-.77 1.22q-.18.29-.47.36-.29.06-.63-.15l-.66-.38q-.33-.19-.73-.33-.41-.14-.91-.23-.51-.09-1.17-.09-1.07 0-1.93.36-.87.36-1.48 1.03t-.94 1.61-.33 2.1q0 1.24.36 2.22.35.97 1 1.64.64.68 1.55 1.04.91.35 2.03.35.8 0 1.43-.17t1.23-.46V52h-1.82q-.26 0-.4-.15-.15-.14-.15-.35zm17.5-7.21v2.21h-4.36v12.25h-2.69V44.98h-4.36v-2.21zM79.605 50q0 1.59-.52 2.94-.53 1.36-1.49 2.35t-2.31 1.54q-1.35.56-3 .56-1.64 0-2.99-.56-1.35-.55-2.31-1.54-.97-.99-1.5-2.35-.53-1.35-.53-2.94t.53-2.95q.53-1.35 1.5-2.34.96-.99 2.31-1.54 1.35-.56 2.99-.56 1.1 0 2.07.25.97.26 1.78.73.81.46 1.46 1.12.64.67 1.09 1.49t.69 1.78q.23.96.23 2.02m-2.75 0q0-1.19-.32-2.14-.32-.94-.91-1.6t-1.43-1.01q-.85-.35-1.91-.35t-1.9.35q-.85.35-1.44 1.01-.6.66-.92 1.6-.32.95-.32 2.14t.32 2.14q.32.94.92 1.59.59.66 1.44 1.01.84.35 1.9.35t1.91-.35q.84-.35 1.43-1.01.59-.65.91-1.59.32-.95.32-2.14"/></svg>