<svg xmlns="http://www.w3.org/2000/svg" width="100" height="100" viewBox="0 0 100 100"><rect width="100%" height="100%" fill="#dc2626"/><path fill="#ffffff" d="M49.77 35.18h4.16v29.64h-4.86V45.67q0-1.15.12-2.48l-8.96 16.83q-.63 1.21-1.94 1.21h-.78q-1.31 0-1.95-1.21L26.5 43.13q.06.68.1 1.33.04.66.04 1.21v19.15h-4.86V35.18h4.17q.36 0 .63.02t.48.1q.22.08.39.27.18.18.34.49l8.88 16.46q.35.66.64 1.35.3.7.59 1.44.28-.76.59-1.47t.66-1.36l8.75-16.42q.16-.31.35-.49.18-.19.4-.27.21-.08.48-.1t.64-.02m27.92 2.78-1.38 2.61q-.24.43-.52.62-.28.2-.69.2-.43 0-.93-.32t-1.2-.71q-.69-.39-1.63-.7-.93-.32-2.2-.32-1.15 0-2.01.28-.86.27-1.45.76-.58.5-.87 1.18-.28.69-.28 1.51 0 1.04.58 1.74T66.66 46q.96.49 2.19.88t2.52.83 2.52 1.03q1.23.58 2.2 1.47.96.9 1.55 2.19.58 1.29.58 3.13 0 2.01-.69 3.77-.68 1.75-2.01 3.05-1.32 1.3-3.22 2.05-1.91.75-4.37.75-1.42 0-2.79-.28t-2.63-.79-2.37-1.23-1.97-1.6l1.62-2.64q.21-.29.53-.48.33-.2.7-.2.51 0 1.11.42.59.42 1.41.93.82.52 1.92.94t2.63.42q2.36 0 3.65-1.12t1.29-3.21q0-1.17-.58-1.9-.58-.74-1.55-1.24-.96-.51-2.19-.86-1.23-.34-2.5-.75t-2.5-.99q-1.23-.57-2.2-1.49-.96-.93-1.54-2.31-.59-1.38-.59-3.41 0-1.62.65-3.16.64-1.54 1.87-2.73t3.04-1.9q1.8-.72 4.14-.72 2.62 0 4.84.82 2.21.82 3.77 2.29"/></svg>