<svg xmlns="http://www.w3.org/2000/svg" width="100" height="100" viewBox="0 0 100 100"><rect width="100%" height="100%" fill="#dc2626"/><path fill="#ffffff" d="M25.395 50.065h3.21q1.19 0 2.07-.3t1.46-.85q.59-.55.87-1.34.29-.79.29-1.77 0-.93-.29-1.68-.28-.75-.86-1.28t-1.46-.81-2.08-.28h-3.21zm-4.31-11.64h7.52q2.32 0 4.02.55 1.7.54 2.8 1.52 1.1.97 1.64 2.33t.54 2.98q0 1.68-.56 3.08t-1.68 2.41-2.81 1.57-3.95.56h-3.21v8.14h-4.31zm24.12 11.64h3.21q1.19 0 2.07-.3t1.46-.85.87-1.34.29-1.77q0-.93-.29-1.68t-.86-1.28q-.58-.53-1.46-.81t-2.08-.28h-3.21zm-4.31-11.64h7.52q2.32 0 4.02.55 1.69.54 2.8 1.52 1.1.97 1.64 2.33.53 1.36.53 2.98 0 1.68-.56 3.08t-1.68 2.41-2.8 1.57q-1.69.56-3.95.56h-3.21v8.14h-4.31zm35.7 17.68q.35 0 .62.28l1.7 1.84q-1.41 1.74-3.47 2.67-2.05.93-4.93.93-2.58 0-4.63-.88-2.06-.88-3.52-2.45-1.45-1.57-2.23-3.75-.77-2.17-.77-4.75 0-2.61.83-4.77.83-2.17 2.34-3.74t3.61-2.44 4.64-.87q2.53 0 4.49.83t3.33 2.18l-1.44 2q-.12.19-.32.33-.2.15-.56.15-.24 0-.49-.14-.26-.14-.56-.34-.31-.2-.71-.44t-.92-.44q-.53-.2-1.23-.33-.69-.14-1.61-.14-1.55 0-2.84.55-1.28.56-2.21 1.6-.93 1.05-1.44 2.56-.51 1.52-.51 3.45 0 1.95.55 3.47t1.49 2.56q.95 1.04 2.23 1.6 1.28.55 2.75.55.88 0 1.59-.1.71-.09 1.31-.3t1.14-.54 1.06-.81q.16-.14.34-.23t.37-.09"/></svg>