<svg xmlns="http://www.w3.org/2000/svg" width="100" height="100" viewBox="0 0 100 100"><rect width="100%" height="100%" fill="#dc2626"/><path fill="#ffffff" d="m35.145 41.195-1.01 1.9q-.18.32-.38.46-.2.15-.5.15-.32 0-.69-.24-.36-.23-.87-.51-.51-.29-1.2-.52-.68-.23-1.61-.23-.84 0-1.47.2t-1.05.56q-.43.36-.64.86t-.21 1.11q0 .76.43 1.27.42.51 1.13.87.7.36 1.6.64.9.29 1.85.61.94.32 1.84.75t1.61 1.08q.7.65 1.13 1.6t.43 2.3q0 1.46-.5 2.75-.51 1.28-1.47 2.23-.97.96-2.37 1.5-1.39.55-3.19.55-1.04 0-2.04-.2-1.01-.2-1.93-.58-.92-.37-1.73-.9-.81-.52-1.44-1.17l1.18-1.93q.15-.21.39-.36.24-.14.51-.14.38 0 .81.31.44.31 1.04.68.6.38 1.4.68.8.31 1.93.31 1.72 0 2.67-.82.94-.81.94-2.34 0-.86-.42-1.4-.43-.54-1.14-.91-.7-.36-1.6-.62-.9-.25-1.83-.56-.93-.29-1.83-.71t-1.61-1.1q-.7-.68-1.13-1.69t-.43-2.5q0-1.18.48-2.31.47-1.12 1.37-1.99t2.22-1.39q1.32-.53 3.03-.53 1.92 0 3.54.6t2.76 1.68m8.46 11.46h6.9l-2.64-7.21q-.2-.48-.41-1.14t-.42-1.43q-.19.77-.4 1.43-.21.67-.41 1.16zm5.5-13.5 8.52 21.69h-3.12q-.52 0-.85-.26-.33-.27-.5-.65l-1.62-4.43h-8.98l-1.62 4.43q-.12.34-.47.63-.34.28-.85.28h-3.15l8.53-21.69zm30.03 10.85q0 2.38-.79 4.38-.8 1.99-2.24 3.43t-3.46 2.24q-2.03.79-4.5.79h-8.27v-21.69h8.27q2.47 0 4.5.8 2.02.8 3.46 2.24 1.44 1.43 2.24 3.43.79 1.99.79 4.38m-4.14 0q0-1.79-.47-3.21-.47-1.41-1.36-2.4-.9-.98-2.17-1.5-1.26-.53-2.85-.53h-4.22v15.27h4.22q1.59 0 2.85-.52 1.27-.53 2.17-1.51.89-.98 1.36-2.4t.47-3.2"/></svg>