<svg xmlns="http://www.w3.org/2000/svg" width="100" height="100" viewBox="0 0 100 100"><rect width="100%" height="100%" fill="#dc2626"/><path fill="#ffffff" d="M23.67 55.38h2.85q.79 0 1.33-.18.53-.19.85-.51.32-.31.47-.73.14-.42.14-.9 0-.49-.16-.88-.16-.4-.49-.67-.34-.28-.87-.43t-1.28-.15h-2.84zm2.4-10.79h-2.4v4.39h2.25q1.44 0 2.19-.52.74-.53.74-1.67 0-1.19-.68-1.7-.67-.5-2.1-.5m-5.23-2.18h5.23q1.49 0 2.55.28 1.07.28 1.74.81.68.52.99 1.27.32.74.32 1.68 0 .53-.16 1.02t-.49.92q-.33.42-.84.77-.51.34-1.21.59 3.13.7 3.13 3.38 0 .96-.37 1.78-.36.82-1.07 1.41-.7.6-1.73.93-1.03.34-2.35.34h-5.74zM37.5 55.38h2.85q.79 0 1.33-.18.53-.19.85-.51.32-.31.46-.73.15-.42.15-.9 0-.49-.16-.88-.16-.4-.49-.67-.34-.28-.87-.43t-1.28-.15H37.5zm2.4-10.79h-2.4v4.39h2.24q1.45 0 2.19-.52.74-.53.74-1.67 0-1.19-.67-1.7-.67-.5-2.1-.5m-5.23-2.18h5.23q1.49 0 2.55.28t1.74.81q.68.52.99 1.27.32.74.32 1.68 0 .53-.16 1.02t-.49.92q-.33.42-.84.77-.51.34-1.21.59 3.13.7 3.13 3.38 0 .96-.37 1.78t-1.07 1.41q-.7.6-1.73.93-1.03.34-2.35.34h-5.74zm16.66 12.97h2.85q.79 0 1.33-.18.53-.19.85-.51.32-.31.46-.73t.14-.9q0-.49-.15-.88-.16-.4-.5-.67-.33-.28-.86-.43t-1.28-.15h-2.84zm2.4-10.79h-2.4v4.39h2.24q1.45 0 2.19-.52.74-.53.74-1.67 0-1.19-.67-1.7-.67-.5-2.1-.5m-5.23-2.18h5.23q1.49 0 2.55.28t1.74.81q.68.52.99 1.27.32.74.32 1.68 0 .53-.16 1.02t-.49.92q-.33.42-.84.77-.51.34-1.21.59 3.13.7 3.13 3.38 0 .96-.37 1.78t-1.07 1.41q-.7.6-1.73.93-1.03.34-2.36.34H48.5zm16.67 0v15.18h-2.84V42.41zm13.99 0v2.32h-4.58v12.86h-2.82V44.73h-4.58v-2.32z"/></svg>