<svg xmlns="http://www.w3.org/2000/svg" width="100" height="100" viewBox="0 0 100 100"><rect width="100%" height="100%" fill="#dc2626"/><path fill="#ffffff" d="M38.14 50q0 2.15-.72 3.94-.71 1.8-2.01 3.09-1.3 1.3-3.12 2.01-1.82.72-4.05.72H20.8V40.24h7.44q2.23 0 4.05.72t3.12 2.01 2.01 3.09q.72 1.79.72 3.94m-3.73 0q0-1.61-.42-2.88-.43-1.28-1.23-2.16-.81-.89-1.95-1.36t-2.57-.47h-3.79v13.74h3.79q1.43 0 2.57-.47t1.95-1.36q.8-.88 1.23-2.16.42-1.27.42-2.88m24.26 0q0 2.15-.71 3.94-.72 1.8-2.02 3.09-1.29 1.3-3.11 2.01-1.83.72-4.05.72h-7.44V40.24h7.44q2.22 0 4.05.72 1.82.72 3.11 2.01 1.3 1.29 2.02 3.09.71 1.79.71 3.94m-3.73 0q0-1.61-.42-2.88-.43-1.28-1.23-2.16-.8-.89-1.94-1.36t-2.57-.47h-3.8v13.74h3.8q1.43 0 2.57-.47t1.94-1.36q.8-.88 1.23-2.16.42-1.27.42-2.88m24.26 0q0 2.15-.71 3.94-.72 1.8-2.01 3.09-1.3 1.3-3.12 2.01-1.82.72-4.05.72h-7.44V40.24h7.44q2.23 0 4.05.72t3.12 2.01q1.29 1.29 2.01 3.09.71 1.79.71 3.94m-3.72 0q0-1.61-.43-2.88-.42-1.28-1.23-2.16-.8-.89-1.94-1.36t-2.57-.47h-3.79v13.74h3.79q1.43 0 2.57-.47t1.94-1.36q.81-.88 1.23-2.16.43-1.27.43-2.88"/></svg>