<svg xmlns="http://www.w3.org/2000/svg" width="100" height="100" viewBox="0 0 100 100"><rect width="100%" height="100%" fill="#dc2626"/><path fill="#ffffff" d="M34.015 50q0 1.75-.59 3.21-.58 1.46-1.64 2.52-1.05 1.05-2.54 1.64-1.48.58-3.3.58h-6.06V42.04h6.06q1.82 0 3.3.59 1.49.59 2.54 1.64 1.06 1.05 1.64 2.52.59 1.46.59 3.21m-3.04 0q0-1.31-.35-2.35-.34-1.04-1-1.76-.65-.72-1.58-1.11-.93-.38-2.1-.38h-3.09v11.2h3.09q1.17 0 2.1-.39.93-.38 1.58-1.1.66-.72 1-1.76.35-1.04.35-2.35m20.81 0q0 1.75-.58 3.24-.57 1.49-1.63 2.58t-2.54 1.7q-1.49.61-3.3.61-1.8 0-3.29-.61-1.48-.61-2.55-1.7-1.06-1.09-1.64-2.58t-.58-3.24.58-3.24 1.64-2.58q1.07-1.09 2.55-1.7 1.49-.61 3.29-.61 1.21 0 2.28.28 1.06.28 1.95.79.9.51 1.6 1.24.71.74 1.21 1.64.49.9.75 1.96.26 1.05.26 2.22m-3.02 0q0-1.31-.36-2.35-.35-1.04-1-1.77-.65-.72-1.58-1.11-.92-.38-2.09-.38t-2.1.38q-.93.39-1.58 1.11-.65.73-1.01 1.77-.35 1.04-.35 2.35t.35 2.35q.36 1.04 1.01 1.76t1.58 1.1q.93.39 2.1.39t2.09-.39q.93-.38 1.58-1.1t1-1.76q.36-1.04.36-2.35m16.74-7.96v2.44h-4.8v13.47h-2.96V44.48h-4.79v-2.44zm13.01 12.16q.24 0 .43.19l1.17 1.26q-.97 1.2-2.39 1.84-1.41.64-3.39.64-1.77 0-3.18-.61-1.42-.6-2.42-1.68t-1.53-2.58q-.54-1.49-.54-3.26 0-1.8.58-3.29.57-1.49 1.61-2.56 1.04-1.08 2.48-1.68t3.19-.6q1.74 0 3.08.57 1.35.57 2.3 1.5l-.99 1.37q-.09.13-.23.23t-.38.1q-.16 0-.34-.09-.17-.1-.38-.23-.21-.14-.49-.31-.27-.16-.64-.3-.36-.14-.84-.23t-1.1-.09q-1.07 0-1.96.38-.88.38-1.52 1.1t-.99 1.76-.35 2.37q0 1.34.38 2.38.38 1.05 1.03 1.76.65.72 1.53 1.1t1.89.38q.6 0 1.09-.07.49-.06.9-.21.42-.14.79-.37.36-.22.73-.55.11-.1.23-.16t.25-.06"/></svg>