<svg xmlns="http://www.w3.org/2000/svg" width="100" height="100" viewBox="0 0 100 100"><rect width="100%" height="100%" fill="#dc2626"/><path fill="#ffffff" d="M39.74 50.005q0 2.38-.8 4.38-.79 1.99-2.23 3.43t-3.47 2.24q-2.02.79-4.5.79h-8.26v-21.69h8.26q2.48 0 4.5.8 2.03.8 3.47 2.24 1.44 1.43 2.23 3.43.8 1.99.8 4.38m-4.14 0q0-1.79-.47-3.21-.48-1.41-1.37-2.4-.89-.98-2.16-1.5-1.27-.53-2.86-.53h-4.21v15.27h4.21q1.59 0 2.86-.52 1.27-.53 2.16-1.51t1.37-2.4q.47-1.42.47-3.2m11.73-.53h2.52q1.14 0 1.98-.28.85-.29 1.4-.79.55-.51.82-1.19.27-.69.27-1.52 0-1.65-1.09-2.53-1.09-.89-3.32-.89h-2.58zm7.47 3.36 5.43 8.01h-3.65q-1.03 0-1.5-.81l-4.56-6.94q-.25-.39-.56-.56-.31-.16-.91-.16h-1.72v8.47h-4.04v-21.69h6.62q2.2 0 3.78.46 1.59.46 2.6 1.28t1.49 1.97.48 2.53q0 1.1-.32 2.07-.32.98-.93 1.77-.61.8-1.5 1.4-.89.59-2.03.94.39.23.72.53.33.31.6.73m11.82-3.36h2.52q1.14 0 1.98-.28.85-.29 1.4-.79.55-.51.82-1.19.27-.69.27-1.52 0-1.65-1.09-2.53-1.09-.89-3.32-.89h-2.58zm7.47 3.36 5.43 8.01h-3.65q-1.03 0-1.5-.81l-4.56-6.94q-.25-.39-.56-.56-.31-.16-.91-.16h-1.72v8.47h-4.04v-21.69h6.62q2.2 0 3.78.46 1.59.46 2.6 1.28t1.49 1.97.48 2.53q0 1.1-.32 2.07-.32.98-.93 1.77-.61.8-1.5 1.4-.89.59-2.03.94.39.23.72.53.33.31.6.73"/></svg>