<svg xmlns="http://www.w3.org/2000/svg" width="100" height="100" viewBox="0 0 100 100"><rect width="100%" height="100%" fill="#dc2626"/><path fill="#ffffff" d="M32.445 43.635h-8.02v5.35h6.77v2.69h-6.77v7.36h-3.38v-18.07h11.4zm6.55 8.57h5.75l-2.2-6.01q-.16-.4-.34-.95-.17-.55-.35-1.19-.16.64-.33 1.2-.18.55-.34.97zm4.59-11.24 7.1 18.07h-2.6q-.44 0-.71-.22-.28-.22-.42-.54l-1.35-3.69h-7.48l-1.35 3.69q-.1.28-.39.52t-.71.24h-2.63l7.11-18.07zm21.6 0v2.76h-5.45v15.31h-3.36v-15.31h-5.45v-2.76zm13.77 2.67h-8.02v5.35h6.77v2.69h-6.77v7.36h-3.38v-18.07h11.4z"/></svg>