<svg xmlns="http://www.w3.org/2000/svg" width="100" height="100" viewBox="0 0 100 100"><rect width="100%" height="100%" fill="#dc2626"/><path fill="#ffffff" d="M21.735 43.13v5.76h.6q.36 0 .6-.1.23-.1.4-.32l3.79-4.8q.24-.3.5-.42t.66-.12h2.21l-4.63 5.71q-.41.53-.84.74.31.12.56.32.25.21.48.54l4.77 6.43h-2.25q-.46 0-.68-.13t-.38-.37l-3.88-5.08q-.18-.25-.42-.36-.24-.1-.68-.1h-.81v6.04h-2.56V43.13zm19.13 2.04h-6.1v4.06h5.15v2.04h-5.15v5.6h-2.56V43.13h8.66zm4.65 4.87h1.91q.7 0 1.22-.18.52-.17.87-.5t.52-.8.17-1.05q0-.55-.17-1-.17-.44-.51-.76-.35-.31-.87-.47-.52-.17-1.23-.17h-1.91zm-2.56-6.91h4.47q1.37 0 2.38.33 1.01.32 1.66.9.66.58.98 1.39.32.8.32 1.76 0 1-.34 1.83-.33.83-.99 1.43-.67.6-1.67.93t-2.34.33h-1.91v4.84h-2.56zM66.915 50q0 1.51-.5 2.78-.51 1.26-1.42 2.17t-2.19 1.42q-1.29.5-2.85.5h-5.24V43.13h5.24q1.56 0 2.85.51 1.28.51 2.19 1.42.91.9 1.42 2.17.5 1.26.5 2.77m-2.62 0q0-1.13-.3-2.03-.3-.89-.87-1.52-.56-.62-1.36-.95-.81-.33-1.81-.33h-2.67v9.67h2.67q1 0 1.81-.34.8-.33 1.36-.95.57-.62.87-1.52t.3-2.03m7.43-6.87v5.76h.6q.36 0 .59-.1.24-.1.41-.32l3.79-4.8q.24-.3.5-.42t.66-.12h2.21l-4.63 5.71q-.41.53-.85.74.32.12.57.32.25.21.48.54l4.77 6.43h-2.25q-.46 0-.68-.13-.23-.13-.38-.37l-3.88-5.08q-.18-.25-.42-.36-.24-.1-.69-.1h-.8v6.04h-2.56V43.13z"/></svg>