<svg xmlns="http://www.w3.org/2000/svg" width="100" height="100" viewBox="0 0 100 100"><rect width="100%" height="100%" fill="#dc2626"/><path fill="#ffffff" d="M27.715 44.215h2.16v11.57h-2.16v-5.06h-5.44v5.06h-2.16v-11.57h2.16v4.98h5.44zm7.16 7.2h3.68l-1.4-3.85q-.11-.25-.22-.6-.11-.36-.22-.76-.11.4-.22.76t-.22.62zm2.94-7.2 4.54 11.57h-1.66q-.28 0-.46-.14-.17-.14-.26-.35l-.86-2.36h-4.8l-.86 2.36q-.06.19-.25.34-.18.15-.45.15h-1.68l4.55-11.57zm19.45 0h1.69l-3.6 11.57h-1.94l-2.53-7.9q-.1-.29-.19-.71-.05.2-.1.38-.04.17-.1.33l-2.55 7.9h-1.95l-3.59-11.57h1.8q.28 0 .47.13.19.14.25.36l1.97 6.92q.06.26.12.56t.13.62q.06-.33.14-.63.07-.29.16-.55l2.27-6.92q.07-.18.26-.34.18-.15.46-.15h.63q.28 0 .45.14.18.13.27.35l2.26 6.92q.17.5.31 1.14.1-.63.23-1.14l1.97-6.92q.04-.2.24-.34.2-.15.47-.15m11.19 0v1.77h-3.49v9.8h-2.15v-9.8h-3.49v-1.77zm3.95 7.2h3.68l-1.41-3.85q-.1-.25-.21-.6-.11-.36-.23-.76-.1.4-.21.76t-.22.62zm2.94-7.2 4.54 11.57h-1.66q-.28 0-.46-.14-.17-.14-.26-.35l-.87-2.36h-4.79l-.86 2.36q-.07.19-.25.34t-.46.15h-1.68l4.56-11.57z"/></svg>