<svg xmlns="http://www.w3.org/2000/svg" width="100" height="100" viewBox="0 0 100 100"><rect width="100%" height="100%" fill="#dc2626"/><path fill="#ffffff" d="M38.96 40.965h2.53v18.07h-2.96v-11.68q0-.7.08-1.51l-5.47 10.26q-.38.74-1.18.74h-.48q-.8 0-1.19-.74l-5.52-10.3q.04.42.06.82.03.4.03.73v11.68h-2.97v-18.07h2.54q.23 0 .39.01t.29.06.24.16.21.3l5.41 10.04q.21.4.39.82.18.43.36.88.17-.46.36-.89.19-.44.4-.84l5.34-10.01q.1-.19.21-.3t.25-.16q.13-.05.29-.06t.39-.01m9.92 15.29h7.23v2.78H45.52v-18.07h3.36zm26.69-15.29h2.54v18.07h-2.97v-11.68q0-.7.08-1.51l-5.46 10.26q-.39.74-1.19.74h-.48q-.8 0-1.18-.74l-5.53-10.3q.04.42.06.82.03.4.03.73v11.68h-2.96v-18.07h2.53q.23 0 .39.01t.3.06q.13.05.23.16.11.11.21.3l5.41 10.04q.21.4.4.82.18.43.35.88.18-.46.36-.89.19-.44.4-.84l5.34-10.01q.1-.19.21-.3.12-.11.25-.16t.29-.06.39-.01"/></svg>