<svg xmlns="http://www.w3.org/2000/svg" width="100" height="100" viewBox="0 0 100 100"><rect width="100%" height="100%" fill="#dc2626"/><path fill="#ffffff" d="M34.32 38.865h3.08v18.8h-1.79q-.42 0-.7-.14-.28-.13-.54-.46l-9.81-12.53q.08.86.08 1.59v11.54h-3.08v-18.8h1.83q.22 0 .38.02t.29.08q.12.06.24.17t.26.29l9.85 12.58q-.04-.45-.06-.89-.03-.44-.03-.82zm9.74 9.4q0 1.55.41 2.78.42 1.22 1.19 2.08.78.85 1.88 1.3 1.09.46 2.47.46t2.48-.46q1.1-.45 1.87-1.3.76-.86 1.18-2.08.41-1.23.41-2.78t-.41-2.77q-.42-1.23-1.18-2.09-.77-.86-1.87-1.31-1.1-.46-2.48-.46t-2.47.46q-1.1.45-1.88 1.31-.77.86-1.19 2.09-.41 1.22-.41 2.77m11.67 7.88 4.77 5.2h-2.88q-.63 0-1.13-.17t-.91-.62l-2.76-3.05q-.66.19-1.36.28-.69.09-1.45.09-2.13 0-3.88-.72-1.76-.73-3.01-2.01-1.26-1.29-1.95-3.05t-.69-3.83.69-3.83 1.95-3.05q1.25-1.28 3.01-2 1.75-.73 3.88-.73 1.43 0 2.69.34 1.26.33 2.32.93 1.05.61 1.89 1.47t1.42 1.93q.59 1.07.89 2.31.31 1.25.31 2.63 0 1.26-.26 2.41t-.75 2.15-1.19 1.84-1.6 1.48m19.63-17.28h3.08v18.8h-1.79q-.42 0-.7-.14-.27-.13-.53-.46l-9.82-12.53q.08.86.08 1.59v11.54H62.6v-18.8h1.83q.22 0 .38.02.17.02.29.08t.24.17.26.29l9.85 12.58-.06-.89q-.03-.44-.03-.82z"/></svg>