<svg xmlns="http://www.w3.org/2000/svg" width="100" height="100" viewBox="0 0 100 100"><rect width="100%" height="100%" fill="#dc2626"/><path fill="#ffffff" d="M30.275 43.13v2.1h-4.14v11.64h-2.56V45.23h-4.14v-2.1zm10.47 2.04h-6.1v3.81h4.81v1.96h-4.81v3.89h6.1v2.04h-8.66V43.13h8.66zm11.86-2.04v2.1h-4.15v11.64h-2.55V45.23h-4.14v-2.1zm14.9 6.87q0 1.51-.5 2.8t-1.41 2.23-2.19 1.46q-1.28.53-2.85.53-1.56 0-2.84-.53-1.28-.52-2.2-1.46t-1.42-2.23q-.51-1.29-.51-2.8t.51-2.8q.5-1.28 1.42-2.22t2.2-1.47 2.84-.53q1.04 0 1.96.24.93.25 1.7.69t1.38 1.07 1.04 1.41.65 1.69.22 1.92m-2.61 0q0-1.13-.3-2.03-.31-.89-.87-1.52t-1.36-.96-1.81-.33-1.81.33-1.37.96q-.56.63-.87 1.52-.3.9-.3 2.03t.3 2.03q.31.9.87 1.52.57.62 1.37.95.8.34 1.81.34t1.81-.34q.8-.33 1.36-.95t.87-1.52q.3-.9.3-2.03m14.3 3.63q.21 0 .37.16l1 1.09q-.83 1.04-2.05 1.59t-2.93.55q-1.53 0-2.75-.52t-2.09-1.45q-.86-.93-1.32-2.23-.46-1.29-.46-2.82 0-1.55.49-2.83.49-1.29 1.39-2.22t2.14-1.45q1.25-.52 2.76-.52 1.5 0 2.66.5 1.17.49 1.98 1.29l-.85 1.18q-.08.12-.2.2-.11.09-.32.09-.15 0-.3-.08t-.33-.2-.42-.26-.55-.26-.73-.2q-.41-.08-.95-.08-.92 0-1.69.32-.76.33-1.31.95-.55.63-.86 1.52-.3.9-.3 2.05 0 1.16.33 2.06.32.91.88 1.52.56.62 1.32.95t1.64.33q.52 0 .94-.06.43-.06.78-.18.36-.13.68-.32t.63-.48q.09-.08.2-.14.1-.05.22-.05"/></svg>