<svg xmlns="http://www.w3.org/2000/svg" width="100" height="100" viewBox="0 0 100 100"><rect width="100%" height="100%" fill="#dc2626"/><path fill="#ffffff" d="M30.215 43.5v1.98h-3.93v11.03h-2.42V45.48h-3.92V43.5zm10.8 0v1.98h-3.93v11.03h-2.42V45.48h-3.92V43.5zm4.13 11.12h2.45q.67 0 1.13-.16t.73-.43q.28-.27.4-.63t.12-.77q0-.42-.13-.76-.14-.34-.43-.58-.29-.23-.74-.36t-1.09-.13h-2.44zm2.06-9.25h-2.06v3.76h1.92q1.25 0 1.88-.45t.63-1.43q0-1.02-.57-1.45-.58-.43-1.8-.43m-4.48-1.87h4.48q1.28 0 2.19.24.9.24 1.49.69.58.45.85 1.09t.27 1.44q0 .46-.14.88-.13.42-.42.78-.28.37-.72.66-.43.3-1.04.51 2.68.6 2.68 2.89 0 .83-.31 1.53-.32.71-.92 1.22-.6.5-1.48.79-.89.29-2.02.29h-4.91zm18.26 6.48h4.32v5.27q-.99.73-2.11 1.07-1.12.33-2.4.33-1.59 0-2.89-.49-1.29-.5-2.2-1.38t-1.41-2.1q-.49-1.23-.49-2.68 0-1.46.47-2.69.48-1.22 1.36-2.1.87-.89 2.13-1.37 1.25-.49 2.8-.49.8 0 1.48.13.69.12 1.28.34t1.08.54q.48.31.89.69l-.69 1.1q-.17.26-.43.32t-.56-.13l-.6-.34q-.3-.17-.66-.3t-.82-.21q-.45-.08-1.05-.08-.96 0-1.74.33-.78.32-1.33.92-.55.61-.84 1.45-.3.85-.3 1.89 0 1.12.32 2 .32.87.9 1.48t1.4.93 1.83.32q.72 0 1.28-.16.57-.15 1.11-.41V51.8h-1.64q-.23 0-.36-.13t-.13-.32zm19.07.02q0 1.43-.47 2.65-.48 1.22-1.34 2.11t-2.08 1.39q-1.21.5-2.7.5-1.48 0-2.69-.5-1.22-.5-2.08-1.39-.87-.89-1.35-2.11t-.48-2.65.48-2.65 1.35-2.11q.86-.89 2.08-1.39 1.21-.5 2.69-.5.99 0 1.86.23.88.23 1.61.65.72.42 1.31 1.02.58.59.98 1.33.41.74.62 1.6.21.87.21 1.82m-2.48 0q0-1.07-.28-1.92-.29-.85-.82-1.44-.53-.6-1.29-.91-.77-.32-1.72-.32t-1.71.32q-.76.31-1.3.91-.54.59-.82 1.44-.29.85-.29 1.92t.29 1.92q.28.85.82 1.44t1.3.91q.76.31 1.71.31t1.72-.31q.76-.32 1.29-.91t.82-1.44q.28-.85.28-1.92"/></svg>