<svg xmlns="http://www.w3.org/2000/svg" width="100" height="100" viewBox="0 0 100 100"><rect width="100%" height="100%" fill="#dc2626"/><path fill="#ffffff" d="M32.15 41.685v2.54h-5.02v14.09h-3.09v-14.09h-5.01v-2.54zm13.8 0v2.54h-5.02v14.09h-3.09v-14.09h-5.01v-2.54zm18.04 8.32q0 1.82-.6 3.38-.61 1.56-1.71 2.7t-2.66 1.78q-1.55.63-3.45.63-1.88 0-3.44-.63-1.55-.64-2.66-1.78t-1.72-2.7-.61-3.38q0-1.83.61-3.39t1.72-2.7 2.66-1.77q1.56-.64 3.44-.64 1.27 0 2.38.29 1.12.29 2.05.83.93.53 1.67 1.3.75.76 1.26 1.71.52.94.79 2.04.27 1.11.27 2.33m-3.16 0q0-1.37-.37-2.46t-1.05-1.85q-.67-.75-1.65-1.16-.97-.4-2.19-.4t-2.19.4q-.97.41-1.65 1.16-.69.76-1.06 1.85-.36 1.09-.36 2.46 0 1.36.36 2.45.37 1.09 1.06 1.84.68.75 1.65 1.16.97.4 2.19.4t2.19-.4q.98-.41 1.65-1.16.68-.75 1.05-1.84t.37-2.45m9.38 2.03h5.29l-2.02-5.53q-.15-.37-.31-.87-.16-.51-.32-1.1-.15.59-.31 1.1-.17.51-.31.89zm4.22-10.35 6.54 16.63h-2.4q-.4 0-.65-.2-.26-.2-.38-.5l-1.24-3.39h-6.89l-1.24 3.39q-.1.26-.36.48-.27.22-.66.22h-2.41l6.54-16.63z"/></svg>