<svg xmlns="http://www.w3.org/2000/svg" width="100" height="100" viewBox="0 0 100 100"><rect width="100%" height="100%" fill="#dc2626"/><path fill="#ffffff" d="M25.7 52.3h5.98l-2.29-6.25q-.16-.42-.35-.99-.18-.57-.36-1.23-.17.66-.35 1.24t-.35 1zm4.77-11.7 7.39 18.8h-2.71q-.45 0-.74-.23-.28-.23-.43-.56l-1.4-3.84h-7.79l-1.4 3.84q-.11.3-.4.54-.3.25-.75.25h-2.73l7.4-18.8zm27.08 0h2.64v18.8h-3.08V47.26q0-.73.08-1.58l-5.68 10.68q-.41.76-1.24.76h-.49q-.83 0-1.24-.76L42.8 45.65q.04.42.06.84.03.42.03.77V59.4h-3.08V40.6h2.64q.23 0 .4.01.17.02.31.07.13.05.24.17t.22.31l5.63 10.44q.22.42.41.86.18.44.37.91.18-.48.37-.93.2-.45.42-.87l5.55-10.41q.1-.19.22-.31t.25-.17q.14-.05.31-.07.17-.01.4-.01m10.78 11.7h5.98l-2.29-6.25q-.17-.42-.35-.99t-.36-1.23q-.17.66-.35 1.24-.19.58-.35 1zm4.77-11.7 7.39 18.8h-2.71q-.45 0-.74-.23t-.43-.56l-1.4-3.84h-7.79l-1.4 3.84q-.11.3-.41.54-.3.25-.74.25h-2.73l7.4-18.8z"/></svg>