<svg xmlns="http://www.w3.org/2000/svg" width="100" height="100" viewBox="0 0 100 100"><rect width="100%" height="100%" fill="#dc2626"/><path fill="#ffffff" d="M36.585 41.35h-10.91v7.27h9.21v3.66h-9.21v10.01h-4.59V37.71h15.5zm8.32 8.72h3.41q1.26 0 2.2-.32.93-.31 1.55-.9t.93-1.43q.3-.84.3-1.88 0-.98-.3-1.78-.31-.8-.92-1.36t-1.55-.86q-.93-.3-2.21-.3h-3.41zm-4.58-12.36h7.99q2.47 0 4.27.58 1.8.57 2.97 1.61 1.18 1.04 1.75 2.48.57 1.45.57 3.16 0 1.79-.6 3.28-.59 1.48-1.78 2.56-1.19 1.07-2.99 1.66-1.79.6-4.19.6h-3.41v8.65h-4.58zm25.62 12.36h3.42q1.26 0 2.19-.32.94-.31 1.56-.9t.92-1.43q.31-.84.31-1.88 0-.98-.31-1.78-.3-.8-.91-1.36-.62-.56-1.55-.86-.94-.3-2.21-.3h-3.42zm-4.57-12.36h7.99q2.46 0 4.27.58 1.8.57 2.97 1.61t1.74 2.48q.57 1.45.57 3.16 0 1.79-.59 3.28-.6 1.48-1.79 2.56-1.19 1.07-2.98 1.66-1.79.6-4.19.6h-3.42v8.65h-4.57z"/></svg>