<svg xmlns="http://www.w3.org/2000/svg" width="100" height="100" viewBox="0 0 100 100"><rect width="100%" height="100%" fill="#dc2626"/><path fill="#ffffff" d="M33.16 58.96q1.4 0 2.51-.46 1.11-.47 1.86-1.32.76-.84 1.16-2.05.41-1.21.41-2.7V36.84h4.84v15.59q0 2.32-.75 4.29-.74 1.97-2.14 3.4-1.39 1.44-3.39 2.24t-4.5.8q-2.52 0-4.52-.8t-3.39-2.24q-1.4-1.43-2.14-3.4-.75-1.97-.75-4.29V36.84h4.84v15.57q0 1.5.41 2.7.4 1.21 1.17 2.06.76.86 1.87 1.33 1.1.46 2.51.46m40.82-22.12h3.66v26.03h-4.27V46.06q0-1.01.11-2.18l-7.87 14.78q-.55 1.06-1.71 1.06h-.68q-1.15 0-1.71-1.06l-7.96-14.83q.06.59.09 1.17.04.57.04 1.06v16.81h-4.27V36.84h3.66q.32 0 .56.02.23.02.42.09t.34.23q.15.17.3.44l7.79 14.45q.31.58.57 1.19t.51 1.26q.25-.67.52-1.29t.58-1.2l7.69-14.41q.14-.27.3-.44.16-.16.35-.23t.43-.09q.23-.02.55-.02"/></svg>