<svg xmlns="http://www.w3.org/2000/svg" width="100" height="100" viewBox="0 0 100 100"><rect width="100%" height="100%" fill="#dc2626"/><path fill="#ffffff" d="M32.735 41.685v2.54h-5.01v14.09h-3.1v-14.09h-5.01v-2.54zm17.88 0h2.34v16.63h-2.73v-10.74q0-.64.07-1.39l-5.02 9.44q-.36.68-1.1.68h-.43q-.74 0-1.1-.68l-5.08-9.48q.04.38.06.75t.02.68v10.74h-2.72v-16.63h2.33q.21 0 .36.01t.27.06.22.15q.09.1.19.28l4.98 9.23q.19.37.36.76l.33.8q.16-.42.33-.82.17-.39.37-.76l4.91-9.21q.09-.18.19-.28.11-.1.23-.15t.27-.06.35-.01m17.66 0v2.54h-5.02v14.09h-3.09v-14.09h-5.02v-2.54zm11.81 1.57-.77 1.46q-.14.24-.3.35-.15.11-.38.11-.24 0-.53-.18-.28-.18-.67-.4t-.91-.4q-.53-.17-1.24-.17-.64 0-1.13.15-.48.16-.81.43-.32.28-.49.66-.16.39-.16.85 0 .58.33.98.33.39.87.66.54.28 1.23.5t1.41.46q.73.25 1.42.58t1.23.83.87 1.22q.33.73.33 1.76 0 1.13-.39 2.11-.38.98-1.13 1.71-.74.73-1.81 1.15t-2.45.42q-.79 0-1.56-.15-.77-.16-1.48-.44-.71-.29-1.33-.69-.62-.41-1.1-.9l.91-1.48q.11-.17.3-.27.18-.11.39-.11.28 0 .62.23.33.24.79.53.46.28 1.08.52.61.23 1.47.23 1.33 0 2.05-.62.73-.63.73-1.8 0-.66-.33-1.07-.33-.42-.87-.7t-1.23-.47q-.69-.2-1.4-.43-.72-.23-1.41-.55t-1.23-.84-.87-1.3q-.32-.77-.32-1.91 0-.91.36-1.77t1.05-1.53 1.7-1.07q1.02-.4 2.33-.4 1.47 0 2.71.46t2.12 1.29"/></svg>