<svg xmlns="http://www.w3.org/2000/svg" width="100" height="100" viewBox="0 0 100 100"><rect width="100%" height="100%" fill="#dc2626"/><path fill="#ffffff" d="M40.11 42.04h2.32l-4.94 15.91h-2.67l-3.48-10.87q-.14-.39-.26-.97l-.13.52q-.07.24-.15.45l-3.51 10.87h-2.68l-4.93-15.91h2.48q.38 0 .64.19.26.18.35.49l2.7 9.51q.09.35.17.76.09.42.17.87.09-.46.2-.87.1-.41.22-.76l3.13-9.51q.08-.26.34-.47t.63-.21h.87q.39 0 .63.19t.36.49l3.12 9.51q.23.68.41 1.57.15-.87.32-1.57l2.71-9.51q.07-.28.34-.48.26-.2.64-.2m13.48 1.5-.73 1.4q-.13.23-.28.33-.15.11-.37.11-.23 0-.5-.17t-.65-.38q-.37-.21-.87-.38t-1.18-.17q-.62 0-1.08.15-.46.14-.78.41-.31.26-.46.63-.16.37-.16.81 0 .56.32.93.31.38.83.64.51.27 1.17.47.66.21 1.36.45.69.24 1.35.55t1.18.79q.51.48.83 1.17.31.7.31 1.69 0 1.08-.37 2.02t-1.08 1.63q-.71.7-1.73 1.1-1.02.41-2.34.41-.76 0-1.5-.15-.73-.15-1.41-.43-.68-.27-1.27-.66-.6-.38-1.06-.85l.87-1.42q.11-.16.29-.26.17-.11.37-.11.28 0 .6.23.31.23.75.5.44.28 1.03.5.59.23 1.42.23 1.26 0 1.95-.6.7-.6.7-1.72 0-.63-.32-1.03-.31-.39-.83-.66-.51-.27-1.17-.46t-1.35-.41q-.68-.22-1.34-.52-.66-.31-1.17-.81-.52-.49-.83-1.24-.32-.74-.32-1.83 0-.87.35-1.69.34-.83 1-1.46.66-.64 1.63-1.03.97-.38 2.22-.38 1.41 0 2.6.44t2.02 1.23M67.38 54.2q.24 0 .43.19l1.16 1.26q-.97 1.2-2.38 1.84t-3.39.64q-1.77 0-3.19-.61-1.41-.6-2.41-1.68t-1.54-2.58q-.53-1.49-.53-3.26 0-1.8.57-3.29t1.61-2.56q1.04-1.08 2.48-1.68 1.45-.6 3.19-.6t3.09.57 2.29 1.5l-.99 1.37q-.08.13-.22.23t-.38.1q-.17 0-.34-.09-.18-.1-.39-.23-.21-.14-.48-.31-.28-.16-.64-.3t-.84-.23-1.11-.09q-1.06 0-1.95.38-.88.38-1.52 1.1t-.99 1.76-.35 2.37q0 1.34.38 2.38.37 1.05 1.02 1.76.65.72 1.53 1.1t1.89.38q.61 0 1.1-.07.49-.06.9-.21.41-.14.78-.37.37-.22.73-.55.11-.1.23-.16.13-.06.26-.06m6.59 1.31h6.35v2.44h-9.31V42.04h2.96z"/></svg>