<svg xmlns="http://www.w3.org/2000/svg" width="100" height="100" viewBox="0 0 100 100"><rect width="100%" height="100%" fill="#dc2626"/><path fill="#ffffff" d="M26.13 52.48h6.44l-2.47-6.74q-.18-.45-.38-1.06-.19-.62-.39-1.33-.18.71-.38 1.33-.19.63-.37 1.09zm5.13-12.6 7.96 20.24H36.3q-.49 0-.79-.24-.31-.25-.47-.61l-1.51-4.13h-8.38l-1.52 4.13q-.11.32-.43.58-.32.27-.8.27h-2.94l7.97-20.24zm29.17 0h2.84v20.24h-3.32V47.04q0-.78.08-1.69l-6.11 11.49q-.44.83-1.33.83h-.54q-.89 0-1.33-.83l-6.18-11.53q.04.46.07.91.02.45.02.82v13.08h-3.31V39.88h2.84q.25 0 .43.01t.33.07.27.18q.12.13.23.34l6.06 11.24q.24.45.44.92.2.48.4.98.2-.51.41-1 .21-.48.44-.93l5.98-11.21q.11-.21.24-.34.13-.12.27-.18.15-.06.33-.07t.44-.01m20.11 2.99h-8.98v5.62h7.08v2.89h-7.08v5.73h8.98v3.01H67.78V39.88h12.76z"/></svg>