<svg xmlns="http://www.w3.org/2000/svg" width="100" height="100" viewBox="0 0 100 100"><rect width="100%" height="100%" fill="#dc2626"/><path fill="#ffffff" d="M26.135 58.21h4.35q1.2 0 2.02-.29t1.3-.77q.49-.48.71-1.12.21-.64.21-1.36 0-.75-.24-1.35t-.75-1.02q-.51-.43-1.32-.65t-1.94-.22h-4.34zm3.67-16.45h-3.67v6.69h3.43q2.2 0 3.33-.8t1.13-2.54q0-1.81-1.02-2.58-1.03-.77-3.2-.77m-7.97-3.33h7.97q2.27 0 3.88.44 1.62.43 2.65 1.23t1.51 1.93q.48 1.14.48 2.56 0 .82-.24 1.56-.24.75-.74 1.4-.5.64-1.28 1.17t-1.85.9q4.77 1.07 4.77 5.15 0 1.47-.56 2.72t-1.63 2.15q-1.07.91-2.64 1.42t-3.59.51h-8.73zm35.66 3.43h-10.27v6.85h8.67v3.44h-8.67v9.42h-4.32V38.43h14.59zm7.83 16.35h4.35q1.2 0 2.01-.29.82-.29 1.31-.77t.7-1.12q.22-.64.22-1.36 0-.75-.24-1.35t-.75-1.02q-.52-.43-1.32-.65-.81-.22-1.95-.22h-4.33zm3.66-16.45h-3.66v6.69h3.42q2.21 0 3.34-.8 1.12-.8 1.12-2.54 0-1.81-1.02-2.58t-3.2-.77m-7.97-3.33h7.97q2.27 0 3.89.44 1.61.43 2.65 1.23 1.03.8 1.51 1.93.48 1.14.48 2.56 0 .82-.24 1.56-.24.75-.75 1.4-.5.64-1.28 1.17-.77.53-1.84.9 4.76 1.07 4.76 5.15 0 1.47-.56 2.72t-1.63 2.15q-1.07.91-2.64 1.42t-3.58.51h-8.74z"/></svg>