<svg xmlns="http://www.w3.org/2000/svg" width="100" height="100" viewBox="0 0 100 100"><rect width="100%" height="100%" fill="#dc2626"/><path fill="#ffffff" d="M35.875 55.545q.32 0 .56.24l1.54 1.67q-1.28 1.58-3.14 2.42t-4.47.84q-2.34 0-4.2-.8-1.86-.79-3.18-2.21-1.32-1.43-2.03-3.4-.7-1.97-.7-4.3 0-2.37.75-4.33.76-1.97 2.13-3.39t3.27-2.21 4.2-.79q2.29 0 4.07.75 1.78.76 3.02 1.98l-1.3 1.81q-.12.17-.3.3t-.5.13q-.22 0-.45-.12t-.51-.3q-.27-.18-.63-.4-.37-.22-.84-.4-.48-.18-1.11-.31-.63-.12-1.46-.12-1.41 0-2.57.5-1.17.5-2.01 1.45t-1.31 2.32q-.46 1.37-.46 3.13 0 1.77.5 3.14.5 1.38 1.35 2.32.86.95 2.02 1.45t2.49.5q.8 0 1.45-.09.64-.09 1.19-.28.54-.19 1.02-.48.49-.3.97-.73.14-.14.3-.21.16-.08.34-.08m8.68 1.89h3.95q1.08 0 1.82-.26t1.19-.69q.44-.44.63-1.02.2-.58.2-1.23 0-.68-.22-1.22-.22-.55-.68-.93-.46-.39-1.2-.59-.73-.2-1.76-.2h-3.93zm3.32-14.9h-3.32v6.06h3.11q2 0 3.02-.73 1.02-.72 1.02-2.3 0-1.64-.93-2.34-.92-.69-2.9-.69m-7.22-3.02h7.22q2.06 0 3.53.39 1.46.4 2.4 1.12.93.73 1.37 1.76.43 1.02.43 2.32 0 .73-.22 1.41-.21.67-.67 1.26t-1.16 1.07q-.7.47-1.67.81 4.32.97 4.32 4.67 0 1.33-.51 2.46t-1.48 1.95-2.39 1.29q-1.42.46-3.25.46h-7.92zm39.09 10.49q0 2.3-.76 4.27-.76 1.96-2.15 3.4-1.39 1.43-3.35 2.24-1.96.8-4.35.8-2.38 0-4.34-.8-1.95-.81-3.35-2.24-1.4-1.44-2.17-3.4-.77-1.97-.77-4.27 0-2.31.77-4.27.77-1.97 2.17-3.4 1.4-1.44 3.35-2.24 1.96-.81 4.34-.81 1.6 0 3 .37 1.41.37 2.58 1.04 1.18.68 2.11 1.64.94.97 1.59 2.16t.99 2.58.34 2.93m-3.98 0q0-1.73-.47-3.1-.46-1.37-1.32-2.33-.85-.95-2.08-1.46-1.22-.51-2.76-.51t-2.76.51q-1.23.51-2.09 1.46-.86.96-1.33 2.33-.46 1.37-.46 3.1 0 1.72.46 3.09.47 1.37 1.33 2.32t2.09 1.46q1.22.51 2.76.51t2.76-.51q1.23-.51 2.08-1.46.86-.95 1.32-2.32.47-1.37.47-3.09"/></svg>