<svg xmlns="http://www.w3.org/2000/svg" width="100" height="100" viewBox="0 0 100 100"><rect width="100%" height="100%" fill="#dc2626"/><path fill="#ffffff" d="M52.445 59.545q.56 0 .98.43l2.65 2.87q-2.2 2.73-5.41 4.18-3.22 1.45-7.72 1.45-4.02 0-7.23-1.38-3.22-1.37-5.49-3.82-2.28-2.45-3.49-5.85t-1.21-7.42q0-4.08 1.3-7.47t3.66-5.84 5.64-3.81q3.27-1.36 7.25-1.36 3.95 0 7.01 1.3t5.21 3.4l-2.25 3.12q-.2.3-.51.53-.31.22-.86.22-.38 0-.78-.21-.39-.21-.87-.52-.48-.32-1.1-.69-.63-.38-1.45-.69-.83-.31-1.91-.52-1.09-.22-2.52-.22-2.42 0-4.43.87-2.02.86-3.47 2.5-1.45 1.63-2.25 4-.8 2.36-.8 5.39 0 3.04.87 5.42.86 2.37 2.33 4 1.48 1.62 3.48 2.49 2 .86 4.3.86 1.37 0 2.49-.15 1.11-.15 2.05-.48.93-.32 1.77-.83.84-.52 1.66-1.27.25-.22.53-.36.27-.14.57-.14m22.03-27.62v23.3q0 3.05-.75 5.5t-2.24 4.17q-1.48 1.73-3.71 2.65-2.22.93-5.17.93-1.35 0-2.65-.16t-2.73-.52q.08-1 .18-1.99.1-1.01.17-2.01.08-.55.44-.88.36-.34 1.04-.34.42 0 1.11.17.69.18 1.74.18 1.42 0 2.52-.41 1.1-.42 1.84-1.32t1.11-2.33q.38-1.44.38-3.49v-23.45z"/></svg>