<svg xmlns="http://www.w3.org/2000/svg" width="100" height="100" viewBox="0 0 100 100"><rect width="100%" height="100%" fill="#dc2626"/><path fill="#ffffff" d="M45.31 50.005q0 2.86-.95 5.25-.96 2.4-2.69 4.12-1.72 1.73-4.15 2.69-2.43.95-5.4.95H22.2v-26.03h9.92q2.97 0 5.4.96 2.43.97 4.15 2.69 1.73 1.72 2.69 4.11.95 2.39.95 5.26m-4.97 0q0-2.15-.56-3.85-.57-1.7-1.64-2.88t-2.59-1.81q-1.53-.63-3.43-.63h-5.06v18.33h5.06q1.9 0 3.43-.63 1.52-.63 2.59-1.81t1.64-2.88q.56-1.7.56-3.84m33.81-13.02h3.65v26.03h-4.26v-16.81q0-1.01.1-2.18l-7.86 14.78q-.56 1.06-1.71 1.06h-.69q-1.15 0-1.71-1.06l-7.95-14.83q.05.59.09 1.17.03.57.03 1.06v16.81h-4.26v-26.03h3.65q.32 0 .56.02.23.02.42.09t.34.23q.16.17.3.44l7.79 14.45q.31.58.57 1.19t.52 1.26q.25-.67.52-1.29t.57-1.2l7.69-14.41q.14-.27.31-.44.16-.16.35-.23t.42-.09.56-.02"/></svg>