<svg xmlns="http://www.w3.org/2000/svg" width="100" height="100" viewBox="0 0 100 100"><rect width="100%" height="100%" fill="#dc2626"/><path fill="#ffffff" d="M43.135 38.545h-14.44v9.02h11.38v4.66h-11.38v9.2h14.44v4.84h-20.52v-32.53h20.52zm34.25 11.45q0 3.58-1.19 6.57-1.2 2.99-3.36 5.16-2.16 2.16-5.19 3.35-3.04 1.19-6.75 1.19h-12.4v-32.53h12.4q3.71 0 6.75 1.2 3.03 1.2 5.19 3.35t3.36 5.14q1.19 3 1.19 6.57m-6.21 0q0-2.68-.71-4.8-.71-2.13-2.05-3.6t-3.24-2.26-4.28-.79h-6.33v22.91h6.33q2.38 0 4.28-.79t3.24-2.26q1.34-1.48 2.05-3.6.71-2.13.71-4.81"/></svg>