<svg xmlns="http://www.w3.org/2000/svg" width="100" height="100" viewBox="0 0 100 100"><rect width="100%" height="100%" fill="#dc2626"/><path fill="#ffffff" d="M44.18 38.43h3.24v23.14h-3.79V46.63q0-.9.1-1.94l-6.99 13.14q-.5.94-1.52.94h-.61q-1.03 0-1.52-.94l-7.07-13.19.08 1.04q.03.51.03.95v14.94h-3.79V38.43h3.24q.29 0 .5.02t.38.08q.16.06.3.21.14.14.26.38l6.93 12.85q.27.51.51 1.06.23.54.45 1.12.23-.6.47-1.15t.51-1.06l6.83-12.82q.13-.24.27-.38.15-.15.31-.21.17-.06.38-.08t.5-.02m30.24 0h3.24v23.14h-3.79V46.63q0-.9.1-1.94l-6.99 13.14q-.5.94-1.52.94h-.61q-1.03 0-1.52-.94l-7.07-13.19.08 1.04q.03.51.03.95v14.94h-3.79V38.43h3.24q.29 0 .5.02t.38.08q.16.06.3.21.14.14.26.38l6.93 12.85q.27.51.51 1.06.23.54.45 1.12.23-.6.47-1.15t.51-1.06l6.83-12.82q.13-.24.27-.38.15-.15.31-.21.17-.06.38-.08t.5-.02"/></svg>