<svg xmlns="http://www.w3.org/2000/svg" width="100" height="100" viewBox="0 0 100 100"><rect width="100%" height="100%" fill="#dc2626"/><path fill="#ffffff" d="M23.4 50.04h1.91q.7 0 1.23-.18.52-.17.86-.5.35-.33.52-.8t.17-1.05q0-.55-.17-1-.17-.44-.51-.76-.34-.31-.86-.47-.53-.17-1.24-.17H23.4zm-2.55-6.91h4.46q1.38 0 2.38.33 1.01.32 1.67.9.65.58.97 1.39.32.8.32 1.76 0 1-.33 1.83-.34.83-1 1.43-.67.6-1.67.93t-2.34.33H23.4v4.84h-2.55zm21.35 0v2.1h-4.14v11.64H35.5V45.23h-4.14v-2.1zm4.69 8.55h4.37l-1.67-4.57q-.12-.3-.25-.72-.14-.42-.27-.9-.12.48-.26.91-.13.42-.25.73zm3.49-8.55 5.4 13.74H53.8q-.33 0-.54-.17-.21-.16-.31-.41l-1.03-2.8h-5.69l-1.03 2.8q-.07.22-.29.4t-.54.18h-2l5.41-13.74zm9.38 6.91h1.91q.7 0 1.22-.18.52-.17.87-.5t.52-.8.17-1.05q0-.55-.17-1-.17-.44-.51-.76-.35-.31-.87-.47-.52-.17-1.23-.17h-1.91zm-2.56-6.91h4.47q1.37 0 2.38.33 1.01.32 1.66.9.66.58.98 1.39.32.8.32 1.76 0 1-.34 1.83-.33.83-.99 1.43-.67.6-1.67.93t-2.34.33h-1.91v4.84H57.2zm14.32 11.75h2.58q.71 0 1.2-.18.48-.17.77-.45.29-.29.42-.67t.13-.8q0-.45-.14-.81-.15-.35-.45-.61-.3-.25-.78-.38t-1.16-.13h-2.57zm2.17-9.77h-2.17v3.97h2.03q1.31 0 1.98-.48.67-.47.67-1.51 0-1.07-.61-1.52-.6-.46-1.9-.46m-4.73-1.98h4.73q1.35 0 2.31.26t1.57.73q.62.48.9 1.15.29.68.29 1.52 0 .48-.15.93-.14.44-.44.82-.3.39-.76.7-.46.32-1.09.53 2.83.64 2.83 3.06 0 .88-.34 1.62-.33.74-.96 1.28-.64.53-1.57.84-.93.3-2.13.3h-5.19z"/></svg>