<svg xmlns="http://www.w3.org/2000/svg" width="100" height="100" viewBox="0 0 100 100"><rect width="100%" height="100%" fill="#dc2626"/><path fill="#ffffff" d="M25.55 50.05h2.72q1 0 1.74-.25t1.23-.71q.5-.47.74-1.14.24-.66.24-1.49 0-.78-.24-1.41-.24-.64-.73-1.08-.48-.45-1.23-.69-.74-.23-1.75-.23h-2.72zm-3.63-9.81h6.35q1.96 0 3.39.46t2.36 1.28 1.38 1.97q.46 1.15.46 2.51 0 1.42-.48 2.6-.47 1.18-1.41 2.03-.95.85-2.37 1.33-1.43.47-3.33.47h-2.72v6.87h-3.63zm30.35 0v2.98h-5.88v16.54h-3.64V43.22h-5.88v-2.98zm12.18 9.73h6.48v7.9q-1.49 1.09-3.17 1.6t-3.6.51q-2.38 0-4.32-.75-1.94-.74-3.31-2.06-1.37-1.33-2.11-3.16-.74-1.84-.74-4.01 0-2.2.71-4.04.72-1.83 2.03-3.16 1.32-1.32 3.2-2.05 1.87-.73 4.21-.73 1.19 0 2.22.19t1.91.52q.89.33 1.62.8.73.48 1.33 1.04l-1.03 1.65q-.25.39-.64.48t-.85-.19q-.45-.26-.89-.52-.45-.25-.99-.44-.55-.19-1.23-.31-.68-.13-1.57-.13-1.45 0-2.62.49-1.16.49-1.99 1.39-.82.91-1.27 2.17-.44 1.27-.44 2.84 0 1.67.48 2.99t1.35 2.23 2.1 1.39q1.22.48 2.74.48 1.08 0 1.93-.23t1.66-.62V52.7h-2.46q-.35 0-.55-.2-.19-.19-.19-.48zm13.63-9.73v19.52h-3.64V40.24z"/></svg>