<svg xmlns="http://www.w3.org/2000/svg" width="100" height="100" viewBox="0 0 100 100"><rect width="100%" height="100%" fill="#dc2626"/><path fill="#ffffff" d="M29.245 49.125h4.2q1.9 0 3.32-.48 1.41-.47 2.32-1.31t1.37-1.99q.45-1.15.45-2.52 0-2.75-1.82-4.23-1.81-1.47-5.54-1.47h-4.3zm12.46 5.6 9.04 13.35h-6.07q-1.72 0-2.5-1.35l-7.6-11.58q-.43-.65-.94-.92-.51-.28-1.51-.28h-2.88v14.13h-6.72v-36.15h11.02q3.68 0 6.32.76 2.63.76 4.32 2.14 1.69 1.37 2.49 3.29.8 1.91.8 4.21 0 1.82-.54 3.45-.53 1.62-1.55 2.95-1.01 1.32-2.5 2.32-1.48 1-3.39 1.58.66.37 1.21.89.54.51 1 1.21m35.77-17.45h-16.05v10.7h13.55v5.37h-13.55v14.73h-6.75v-36.15h22.8z"/></svg>