<svg xmlns="http://www.w3.org/2000/svg" width="100" height="100" viewBox="0 0 100 100"><rect width="100%" height="100%" fill="#dc2626"/><path fill="#ffffff" d="m36.935 40.02-1.14 2.16q-.2.36-.43.52t-.57.16q-.36 0-.77-.26-.42-.27-1-.59t-1.35-.59q-.77-.26-1.83-.26-.95 0-1.66.23-.72.23-1.2.64-.49.4-.72.97-.24.57-.24 1.25 0 .87.48 1.45.49.58 1.29.98.79.41 1.81.73 1.02.33 2.1.69 1.07.37 2.09.85 1.02.49 1.82 1.23.79.74 1.28 1.81.48 1.07.48 2.6 0 1.66-.57 3.12-.57 1.45-1.66 2.53-1.1 1.08-2.68 1.7t-3.62.62q-1.17 0-2.31-.23t-2.19-.65q-1.04-.43-1.96-1.02-.92-.6-1.63-1.33l1.34-2.19q.17-.24.44-.4t.58-.16q.43 0 .92.35.49.34 1.17.77.68.42 1.59.77t2.19.35q1.95 0 3.02-.92 1.07-.93 1.07-2.67 0-.96-.48-1.58-.49-.61-1.29-1.02-.79-.42-1.81-.71t-2.08-.63q-1.05-.34-2.07-.82-1.02-.47-1.82-1.24-.8-.76-1.28-1.91-.49-1.15-.49-2.83 0-1.34.54-2.62.53-1.27 1.55-2.26 1.02-.98 2.52-1.58 1.49-.59 3.43-.59 2.18 0 4.01.68 1.84.68 3.13 1.9m8.99 18.7h4.63q1.27 0 2.14-.31.87-.3 1.39-.81.51-.51.74-1.19t.23-1.45q0-.8-.25-1.43-.26-.64-.8-1.09t-1.4-.69-2.07-.24h-4.61zm3.9-17.48h-3.9v7.11h3.64q2.35 0 3.55-.85t1.2-2.7q0-1.92-1.09-2.74t-3.4-.82m-8.47-3.53h8.47q2.41 0 4.13.46t2.81 1.31q1.1.85 1.61 2.05.51 1.21.51 2.72 0 .87-.26 1.66-.25.79-.79 1.48-.53.69-1.36 1.25-.82.56-1.96.95 5.07 1.14 5.07 5.47 0 1.57-.6 2.9-.59 1.32-1.73 2.28t-2.81 1.51q-1.66.54-3.81.54h-9.28zm37.89 3.64h-10.91v6.81h8.6v3.52h-8.6v6.95h10.91v3.66h-15.5V37.71h15.5z"/></svg>