<svg xmlns="http://www.w3.org/2000/svg" width="100" height="100" viewBox="0 0 100 100"><rect width="100%" height="100%" fill="#dc2626"/><path fill="#ffffff" d="M29.045 56.72q1.05 0 1.88-.35t1.4-.99q.56-.63.87-1.53.3-.91.3-2.03V40.13h3.63v11.69q0 1.74-.56 3.22t-1.6 2.55q-1.05 1.07-2.55 1.68-1.5.6-3.37.6-1.89 0-3.39-.6-1.5-.61-2.55-1.68-1.04-1.07-1.6-2.55t-.56-3.22V40.13h3.63v11.68q0 1.12.3 2.02.31.91.88 1.55t1.4.99 1.89.35m30.61-16.59h2.75v19.52h-3.2V47.04q0-.76.08-1.63l-5.9 11.08q-.42.8-1.29.8h-.51q-.86 0-1.28-.8l-5.97-11.12q.04.44.07.87.03.44.03.8v12.61h-3.2V40.13h2.74q.24 0 .42.01.17.02.31.07.15.05.26.18.11.12.22.32l5.85 10.84q.23.43.42.89.2.46.39.95.19-.5.39-.97t.43-.9l5.77-10.81q.1-.2.23-.32.12-.13.26-.18t.32-.07q.17-.01.41-.01m19.4 2.89h-8.66v5.41h6.83v2.8h-6.83v5.52h8.66v2.9h-12.31V40.13h12.31z"/></svg>