<svg xmlns="http://www.w3.org/2000/svg" width="100" height="100" viewBox="0 0 100 100"><rect width="100%" height="100%" fill="#dc2626"/><path fill="#ffffff" d="M55.145 36.625h3.9l-8.31 26.75h-4.49l-5.85-18.28q-.24-.66-.44-1.63-.11.47-.22.87-.11.41-.24.76l-5.9 18.28h-4.52l-8.29-26.75h4.17q.64 0 1.08.3.43.31.58.83l4.55 16q.15.59.29 1.29.14.69.29 1.45.14-.78.32-1.46.18-.69.38-1.28l5.25-16q.15-.43.59-.78.43-.35 1.06-.35h1.46q.65 0 1.05.31.41.32.62.82l5.23 16q.39 1.15.7 2.65.24-1.47.54-2.65l4.55-16q.11-.46.57-.8.45-.33 1.08-.33m24.07 3.96h-11.88v7.42h9.36v3.83h-9.36v7.56h11.88v3.98h-16.88v-26.75h16.88z"/></svg>