<svg xmlns="http://www.w3.org/2000/svg" width="100" height="100" viewBox="0 0 100 100"><rect width="100%" height="100%" fill="#dc2626"/><path fill="#ffffff" d="M25.17 51.945h5.06l-1.93-5.29q-.15-.35-.3-.83-.16-.49-.31-1.05-.14.56-.3 1.05-.15.49-.29.86zm4.04-9.9 6.25 15.91h-2.29q-.39 0-.63-.19t-.36-.48l-1.19-3.25H24.4l-1.19 3.25q-.08.25-.34.46-.25.21-.62.21h-2.31l6.25-15.91zm22.02 7.96q0 1.75-.58 3.21-.59 1.46-1.64 2.52-1.06 1.05-2.54 1.64-1.49.58-3.3.58h-6.06v-15.91h6.06q1.81 0 3.3.59 1.48.59 2.54 1.64 1.05 1.05 1.64 2.52.58 1.46.58 3.21m-3.04 0q0-1.31-.34-2.35-.35-1.04-1-1.76-.66-.72-1.59-1.11-.93-.38-2.09-.38h-3.09v11.2h3.09q1.16 0 2.09-.39.93-.38 1.59-1.1.65-.72 1-1.76.34-1.04.34-2.35m8.62-7.96v15.91h-2.97v-15.91zm17.67 7.96q0 1.75-.58 3.21t-1.64 2.52q-1.05 1.05-2.54 1.64-1.48.58-3.3.58h-6.06v-15.91h6.06q1.82 0 3.3.59 1.49.59 2.54 1.64 1.06 1.05 1.64 2.52.58 1.46.58 3.21m-3.03 0q0-1.31-.35-2.35-.34-1.04-1-1.76-.65-.72-1.58-1.11-.93-.38-2.1-.38h-3.09v11.2h3.09q1.17 0 2.1-.39.93-.38 1.58-1.1.66-.72 1-1.76.35-1.04.35-2.35m8.61-7.96v15.91h-2.97v-15.91z"/></svg>