<svg xmlns="http://www.w3.org/2000/svg" width="100" height="100" viewBox="0 0 100 100"><rect width="100%" height="100%" fill="#dc2626"/><path fill="#ffffff" d="M26.775 52.39h6.21l-2.37-6.49q-.18-.44-.37-1.03t-.38-1.28q-.17.69-.36 1.29t-.36 1.04zm4.96-12.15 7.67 19.52h-2.81q-.48 0-.77-.24-.3-.23-.45-.58l-1.46-3.99h-8.08l-1.46 3.99q-.11.31-.42.56-.31.26-.77.26h-2.83l7.68-19.52zm19.3 9.73h6.48v7.9q-1.48 1.09-3.16 1.6t-3.6.51q-2.39 0-4.33-.75-1.94-.74-3.31-2.06-1.37-1.33-2.11-3.16-.74-1.84-.74-4.01 0-2.2.71-4.04.72-1.83 2.04-3.16 1.31-1.32 3.19-2.05t4.21-.73q1.19 0 2.22.19t1.92.52q.88.33 1.61.8.73.48 1.34 1.04l-1.04 1.65q-.24.39-.64.48-.39.09-.85-.19-.44-.26-.89-.52-.44-.25-.99-.44t-1.23-.31q-.68-.13-1.57-.13-1.44 0-2.61.49t-1.99 1.39q-.83.91-1.27 2.17-.45 1.27-.45 2.84 0 1.67.48 2.99t1.35 2.23 2.1 1.39 2.74.48q1.08 0 1.93-.23t1.66-.62V52.7h-2.46q-.35 0-.54-.2-.2-.19-.2-.48zm28.61.03q0 2.15-.71 3.98-.71 1.82-2 3.16-1.3 1.34-3.12 2.09-1.83.75-4.05.75t-4.04-.75-3.12-2.09q-1.31-1.34-2.02-3.16-.72-1.83-.72-3.98t.72-3.98q.71-1.83 2.02-3.16 1.3-1.34 3.12-2.09t4.04-.75q1.48 0 2.79.35 1.31.34 2.4.97 1.1.63 1.97 1.52.87.9 1.48 2.01.6 1.11.92 2.4.32 1.3.32 2.73m-3.71 0q0-1.61-.44-2.88-.43-1.28-1.22-2.17-.8-.89-1.94-1.36-1.14-.48-2.57-.48t-2.57.48q-1.15.47-1.95 1.36t-1.23 2.17q-.44 1.27-.44 2.88t.44 2.88q.43 1.28 1.23 2.16.8.89 1.95 1.36 1.14.47 2.57.47t2.57-.47 1.94-1.36q.79-.88 1.22-2.16.44-1.27.44-2.88"/></svg>