<svg xmlns="http://www.w3.org/2000/svg" width="100" height="100" viewBox="0 0 100 100"><rect width="100%" height="100%" fill="#dc2626"/><path fill="#ffffff" d="M25.695 52.215h5.75l-2.2-6.01q-.17-.4-.34-.95-.18-.55-.35-1.19-.16.64-.34 1.2-.17.55-.34.97zm4.58-11.24 7.1 18.07h-2.6q-.43 0-.71-.22-.27-.22-.41-.54l-1.35-3.69h-7.49l-1.35 3.69q-.1.28-.39.52-.28.24-.71.24h-2.62l7.11-18.07zm21.6 0v2.76h-5.45v15.31h-3.36v-15.31h-5.45v-2.76zm13.78 2.67h-8.03v5.35h6.78v2.69h-6.78v7.36h-3.37v-18.07h11.4zm4.14 8.59h5.5v-5.92q0-.83.11-1.85zm8.18 0h2.28v1.78q0 .25-.16.44-.17.18-.47.18h-1.65v4.41h-2.68v-4.41h-7.63q-.31 0-.55-.2-.24-.19-.3-.48l-.32-1.56 8.56-11.44h2.92z"/></svg>