<svg xmlns="http://www.w3.org/2000/svg" width="100" height="100" viewBox="0 0 100 100"><rect width="100%" height="100%" fill="#dc2626"/><path fill="#ffffff" d="M25.01 56.93h3.68q1.01 0 1.7-.25.69-.24 1.1-.65.41-.4.59-.94t.18-1.15q0-.63-.2-1.14t-.63-.86q-.43-.36-1.12-.55-.68-.19-1.64-.19h-3.66zm3.1-13.88h-3.1v5.64h2.89q1.87 0 2.82-.67.95-.68.95-2.15 0-1.53-.86-2.18-.87-.64-2.7-.64m-6.73-2.81h6.73q1.91 0 3.28.36 1.36.37 2.23 1.04.87.68 1.28 1.64.4.95.4 2.16 0 .69-.2 1.31-.2.63-.63 1.18-.42.54-1.08.99-.65.45-1.56.76 4.03.9 4.03 4.34 0 1.24-.48 2.3-.47 1.05-1.37 1.81-.91.77-2.23 1.2t-3.03.43h-7.37zm30.09 2.89h-8.66v5.78h7.31v2.9h-7.31v7.95h-3.65V40.24h12.31zM71.78 50q0 2.15-.72 3.94-.71 1.8-2.01 3.09-1.29 1.3-3.12 2.01-1.82.72-4.05.72h-7.44V40.24h7.44q2.23 0 4.05.72 1.83.72 3.12 2.01 1.3 1.29 2.01 3.09.72 1.79.72 3.94m-3.73 0q0-1.61-.42-2.88-.43-1.28-1.23-2.16-.8-.89-1.94-1.36-1.15-.47-2.58-.47h-3.79v13.74h3.79q1.43 0 2.58-.47 1.14-.47 1.94-1.36.8-.88 1.23-2.16.42-1.27.42-2.88m10.57-9.76v19.52h-3.64V40.24z"/></svg>