<svg xmlns="http://www.w3.org/2000/svg" width="100" height="100" viewBox="0 0 100 100"><rect width="100%" height="100%" fill="#dc2626"/><path fill="#ffffff" d="M26.02 57.695h4.08q1.12 0 1.89-.27.76-.27 1.22-.72t.66-1.05.2-1.27q0-.71-.22-1.27-.23-.56-.71-.96t-1.24-.61q-.75-.21-1.82-.21h-4.06zm3.43-15.42h-3.43v6.27h3.21q2.07 0 3.12-.75 1.06-.75 1.06-2.38 0-1.7-.96-2.42t-3-.72m-7.47-3.12h7.47q2.13 0 3.65.4 1.51.41 2.48 1.16t1.42 1.82q.45 1.06.45 2.4 0 .76-.23 1.46-.22.7-.7 1.3-.47.61-1.2 1.11-.72.49-1.73.83 4.47 1.01 4.47 4.83 0 1.38-.52 2.56-.53 1.17-1.53 2.01-1.01.85-2.48 1.33t-3.36.48h-8.19zm34.91 0v3.31h-6.54v18.38h-4.04v-18.38h-6.54v-3.31zm17.08 0h4.05v21.69h-4.05v-9.48H63.79v9.48h-4.05v-21.69h4.05v9.33h10.18z"/></svg>