<svg xmlns="http://www.w3.org/2000/svg" width="100" height="100" viewBox="0 0 100 100"><rect width="100%" height="100%" fill="#dc2626"/><path fill="#ffffff" d="M33.325 54.585q.26 0 .47.2l1.27 1.38q-1.06 1.31-2.6 2.01-1.54.69-3.7.69-1.93 0-3.48-.66-1.54-.66-2.63-1.83-1.09-1.18-1.67-2.81-.59-1.63-.59-3.57 0-1.95.63-3.58.62-1.62 1.76-2.8 1.13-1.18 2.7-1.83t3.48-.65q1.9 0 3.37.62t2.5 1.63l-1.08 1.5q-.1.15-.25.25-.15.11-.41.11-.18 0-.37-.1t-.42-.25-.53-.33-.7-.33q-.39-.15-.91-.25-.53-.11-1.21-.11-1.16 0-2.13.42-.97.41-1.66 1.2-.7.78-1.08 1.92-.39 1.13-.39 2.58 0 1.47.42 2.61.41 1.14 1.12 1.92t1.67 1.19q.96.42 2.06.42.66 0 1.2-.08.53-.07.98-.22.45-.16.85-.41.4-.24.8-.6.12-.11.25-.18.13-.06.28-.06m15.87 0q.27 0 .47.2l1.27 1.38q-1.05 1.31-2.59 2.01-1.55.69-3.71.69-1.93 0-3.47-.66t-2.63-1.83q-1.1-1.18-1.68-2.81t-.58-3.57q0-1.95.62-3.58.63-1.62 1.76-2.8 1.14-1.18 2.71-1.83t3.48-.65q1.89 0 3.36.62t2.51 1.63l-1.08 1.5q-.1.15-.25.25-.15.11-.41.11-.18 0-.38-.1-.19-.1-.42-.25-.22-.15-.52-.33t-.7-.33-.92-.25q-.52-.11-1.2-.11-1.17 0-2.13.42-.97.41-1.67 1.2-.69.78-1.08 1.92-.38 1.13-.38 2.58 0 1.47.41 2.61.42 1.14 1.13 1.92.7.78 1.66 1.19.96.42 2.07.42.66 0 1.19-.08.54-.07.99-.22.45-.16.85-.41.4-.24.8-.6.12-.11.25-.18.13-.06.27-.06m14.91-10.69h-7.71v5.13h6.51v2.58h-6.51v7.07h-3.24v-17.35h10.95zm5.87 12.26h3.26q.9 0 1.51-.22.61-.21.98-.57t.53-.84.16-1.02q0-.57-.18-1.02t-.56-.76q-.39-.32-.99-.49-.61-.17-1.46-.17h-3.25zm2.74-12.34h-2.74v5.02h2.56q1.66 0 2.51-.6.84-.6.84-1.91 0-1.35-.77-1.93-.76-.58-2.4-.58m-5.97-2.49h5.97q1.71 0 2.92.32 1.21.33 1.99.93.77.6 1.13 1.45t.36 1.92q0 .61-.18 1.17t-.56 1.04q-.38.49-.96.88-.58.4-1.38.68 3.57.8 3.57 3.86 0 1.1-.42 2.04t-1.22 1.61q-.81.68-1.98 1.07-1.18.38-2.69.38h-6.55z"/></svg>