<svg xmlns="http://www.w3.org/2000/svg" width="100" height="100" viewBox="0 0 100 100"><rect width="100%" height="100%" fill="#dc2626"/><path fill="#ffffff" d="M32.975 54.585q.27 0 .47.2l1.27 1.38q-1.05 1.31-2.59 2.01-1.55.69-3.71.69-1.93 0-3.47-.66t-2.63-1.83q-1.1-1.18-1.68-2.81t-.58-3.57q0-1.95.62-3.58.63-1.62 1.76-2.8 1.14-1.18 2.71-1.83t3.48-.65q1.89 0 3.36.62t2.51 1.63l-1.08 1.5q-.1.15-.25.25-.15.11-.41.11-.18 0-.38-.1-.19-.1-.42-.25-.22-.15-.52-.33t-.7-.33-.92-.25q-.52-.11-1.2-.11-1.17 0-2.13.42-.97.41-1.67 1.2-.69.78-1.08 1.92-.38 1.13-.38 2.58 0 1.47.41 2.61.42 1.14 1.13 1.92.7.78 1.66 1.19.96.42 2.07.42.66 0 1.19-.08.54-.07.99-.22.45-.16.85-.41.4-.24.8-.6.12-.11.25-.18.13-.06.27-.06m15.88 0q.26 0 .47.2l1.27 1.38q-1.06 1.31-2.6 2.01-1.54.69-3.7.69-1.93 0-3.47-.66-1.55-.66-2.64-1.83-1.09-1.18-1.67-2.81t-.58-3.57q0-1.95.62-3.58.62-1.62 1.76-2.8 1.13-1.18 2.7-1.83 1.58-.65 3.48-.65t3.37.62 2.5 1.63l-1.08 1.5q-.09.15-.24.25-.15.11-.42.11-.18 0-.37-.1t-.42-.25-.53-.33-.69-.33q-.4-.15-.92-.25-.52-.11-1.21-.11-1.16 0-2.13.42-.96.41-1.66 1.2-.7.78-1.08 1.92-.38 1.13-.38 2.58 0 1.47.41 2.61t1.12 1.92 1.67 1.19q.96.42 2.06.42.66 0 1.2-.08.53-.07.98-.22.45-.16.85-.41.41-.24.8-.6.12-.11.25-.18.14-.06.28-.06m14.9-10.69h-7.7v5.13h6.5v2.58h-6.5v7.07h-3.24v-17.35h10.94zm5.87 5.68h2.02q.91 0 1.59-.22.68-.23 1.11-.63.44-.41.66-.96.21-.55.21-1.21 0-1.32-.87-2.03t-2.65-.71h-2.07zm5.98 2.69 4.34 6.41h-2.91q-.83 0-1.2-.65l-3.65-5.55q-.21-.32-.45-.45-.25-.13-.73-.13h-1.38v6.78h-3.23v-17.35h5.3q1.76 0 3.03.36 1.26.37 2.07 1.03t1.2 1.58q.38.92.38 2.02 0 .88-.26 1.66t-.74 1.41q-.49.64-1.2 1.12-.72.48-1.63.75.31.18.58.43.26.25.48.58"/></svg>