<svg xmlns="http://www.w3.org/2000/svg" width="100" height="100" viewBox="0 0 100 100"><rect width="100%" height="100%" fill="#dc2626"/><path fill="#ffffff" d="M35.8 39.515h3.91v20.97H35.8v-9.16h-9.85v9.16h-3.91v-20.97h3.91v9.02h9.85zm20.72 1.97-.97 1.85q-.18.3-.37.44-.2.14-.49.14-.3 0-.66-.23-.35-.22-.85-.5-.49-.27-1.15-.5-.66-.22-1.56-.22-.81 0-1.42.19-.61.2-1.02.55-.42.34-.62.83t-.2 1.07q0 .73.41 1.23.42.49 1.1.84t1.55.62q.87.28 1.78.59.92.31 1.79.72.87.42 1.55 1.05t1.09 1.54q.41.92.41 2.22 0 1.42-.48 2.66-.49 1.24-1.42 2.16-.94.92-2.29 1.45-1.34.53-3.08.53-1 0-1.98-.19-.97-.2-1.86-.56t-1.67-.87q-.79-.51-1.4-1.13l1.15-1.87q.14-.21.38-.34.23-.14.49-.14.36 0 .78.3.42.29 1 .65.58.37 1.36.66.77.3 1.86.3 1.67 0 2.58-.79.92-.79.92-2.27 0-.82-.42-1.35-.41-.52-1.09-.87-.68-.36-1.55-.61-.87-.24-1.77-.53t-1.77-.7q-.87-.4-1.55-1.06-.68-.65-1.1-1.63-.41-.98-.41-2.41 0-1.15.46-2.23.45-1.09 1.32-1.93t2.15-1.35q1.27-.51 2.93-.51 1.85 0 3.42.58t2.67 1.62m18.01-1.97h3.43v20.97h-2q-.46 0-.77-.15-.32-.15-.61-.52l-10.94-13.98q.08.96.08 1.77v12.88h-3.43v-20.97h2.04q.25 0 .43.02.18.03.32.09.14.07.27.19t.29.33l10.99 14.03q-.05-.51-.07-1-.03-.49-.03-.91z"/></svg>