<svg xmlns="http://www.w3.org/2000/svg" width="100" height="100" viewBox="0 0 100 100"><rect width="100%" height="100%" fill="#dc2626"/><path fill="#ffffff" d="M24.26 39.885v20.24h-3.78v-20.24zm16.24 1.9-.94 1.78q-.17.29-.36.42-.18.14-.46.14-.3 0-.64-.22t-.82-.48q-.48-.27-1.11-.48-.64-.22-1.51-.22-.78 0-1.37.19t-.99.52q-.4.34-.59.81-.2.47-.2 1.03 0 .71.4 1.19.4.47 1.06.81.66.33 1.5.6t1.72.57 1.72.7 1.5 1.01q.66.6 1.06 1.49.39.88.39 2.14 0 1.37-.46 2.57-.47 1.19-1.38 2.08-.9.89-2.2 1.4t-2.98.51q-.97 0-1.91-.18-.94-.19-1.8-.54t-1.61-.84q-.76-.49-1.35-1.1l1.11-1.8q.14-.2.36-.33.23-.13.48-.13.35 0 .75.28.41.29.97.64t1.31.64q.75.28 1.8.28 1.61 0 2.49-.76t.88-2.19q0-.8-.4-1.3-.4-.51-1.05-.85-.66-.34-1.5-.58t-1.71-.52-1.71-.67-1.5-1.02q-.65-.63-1.05-1.58-.4-.94-.4-2.33 0-1.1.44-2.15t1.28-1.87q.84-.81 2.07-1.3t2.83-.49q1.79 0 3.3.56 1.52.56 2.58 1.57m7.9 10.7h6.44l-2.47-6.74q-.18-.45-.38-1.06-.19-.62-.39-1.33-.18.71-.38 1.33-.19.63-.37 1.09zm5.13-12.6 7.96 20.24h-2.92q-.49 0-.79-.24-.31-.25-.47-.61l-1.51-4.13h-8.38l-1.52 4.13q-.11.32-.43.58-.32.27-.8.27h-2.94l7.97-20.24zm23.96 15.47q.31 0 .54.23l1.49 1.61q-1.23 1.53-3.03 2.34t-4.32.81q-2.26 0-4.05-.77-1.8-.77-3.08-2.14-1.27-1.37-1.95-3.27-.68-1.91-.68-4.16 0-2.28.73-4.18t2.05-3.27 3.16-2.14q1.83-.76 4.06-.76 2.21 0 3.92.73 1.72.73 2.92 1.9l-1.26 1.75q-.11.17-.28.3-.18.12-.49.12-.21 0-.43-.12-.23-.11-.49-.29-.27-.17-.62-.38t-.81-.39q-.46-.17-1.07-.29t-1.41-.12q-1.36 0-2.48.48-1.13.48-1.94 1.4t-1.26 2.24-.45 3.02q0 1.71.48 3.04.49 1.33 1.31 2.24.83.91 1.95 1.39t2.41.48q.77 0 1.39-.08.62-.09 1.15-.27.52-.18.99-.47.47-.28.93-.7.14-.13.3-.21.15-.07.32-.07"/></svg>