<svg xmlns="http://www.w3.org/2000/svg" width="100" height="100" viewBox="0 0 100 100"><rect width="100%" height="100%" fill="#dc2626"/><path fill="#ffffff" d="M37.07 41.685h2.33v16.63h-2.72v-10.74q0-.64.07-1.39l-5.03 9.44q-.36.68-1.09.68h-.44q-.73 0-1.09-.68l-5.08-9.48q.03.38.05.75.03.37.03.68v10.74h-2.73v-16.63h2.34q.2 0 .35.01t.27.06.22.15.19.28l4.98 9.23q.2.37.36.76.17.39.33.8.16-.42.33-.82.18-.39.37-.76l4.91-9.21q.09-.18.2-.28.1-.1.22-.15t.27-.06.36-.01m20.8 8.32q0 1.82-.61 3.35t-1.71 2.64q-1.11 1.1-2.66 1.71t-3.45.61h-6.33v-16.63h6.33q1.9 0 3.45.62 1.55.61 2.66 1.71 1.1 1.1 1.71 2.63t.61 3.36m-3.17 0q0-1.37-.36-2.46-.37-1.09-1.05-1.84-.69-.75-1.66-1.16-.97-.4-2.19-.4h-3.23v11.71h3.23q1.22 0 2.19-.4.97-.41 1.66-1.16.68-.75 1.05-1.84.36-1.09.36-2.45m21.59-8.32h2.34v16.63H75.9v-10.74q0-.64.07-1.39l-5.02 9.44q-.36.68-1.1.68h-.43q-.74 0-1.09-.68l-5.09-9.48q.04.38.06.75t.02.68v10.74H60.6v-16.63h2.33q.21 0 .36.01t.27.06.22.15q.09.1.19.28l4.98 9.23q.19.37.36.76t.33.8q.16-.42.33-.82.17-.39.37-.76l4.91-9.21q.09-.18.19-.28.11-.1.23-.15t.27-.06.35-.01"/></svg>