<svg xmlns="http://www.w3.org/2000/svg" width="100" height="100" viewBox="0 0 100 100"><rect width="100%" height="100%" fill="#dc2626"/><path fill="#ffffff" d="M35.6 42.045h2.23v15.91h-2.6v-10.27q0-.62.06-1.33l-4.8 9.03q-.34.65-1.05.65h-.42q-.7 0-1.04-.65l-4.86-9.07q.03.37.05.72t.02.65v10.27h-2.6v-15.91h2.23q.2 0 .34.02.14.01.26.05.11.04.21.14.09.1.18.27l4.76 8.83q.19.35.35.73.16.37.31.77.16-.41.32-.79.17-.38.35-.73l4.7-8.81q.09-.17.19-.27t.21-.14q.12-.04.26-.05.14-.02.34-.02m20.79 0h2.23v15.91h-2.6v-10.27q0-.62.06-1.33l-4.8 9.03q-.34.65-1.05.65h-.42q-.7 0-1.04-.65l-4.86-9.07q.03.37.05.72t.02.65v10.27h-2.6v-15.91h2.23q.2 0 .34.02.14.01.26.05.11.04.21.14.09.1.18.27l4.76 8.83q.19.35.35.73.16.37.31.77.16-.41.32-.79.17-.38.35-.73l4.7-8.81q.09-.17.19-.27t.21-.14q.12-.04.26-.05.14-.02.34-.02m20.79 0h2.23v15.91h-2.6v-10.27q0-.62.06-1.33l-4.8 9.03q-.34.65-1.05.65h-.42q-.7 0-1.04-.65l-4.86-9.07q.03.37.05.72t.02.65v10.27h-2.6v-15.91h2.23q.2 0 .34.02.14.01.26.05.11.04.21.14.09.1.18.27l4.76 8.83q.19.35.35.73.16.37.31.77.16-.41.32-.79.17-.38.35-.73l4.7-8.81q.09-.17.19-.27t.21-.14q.12-.04.26-.05.14-.02.34-.02"/></svg>