<svg xmlns="http://www.w3.org/2000/svg" width="100" height="100" viewBox="0 0 100 100"><rect width="100%" height="100%" fill="#dc2626"/><path fill="#ffffff" d="M30.395 43.495v1.98h-3.93v11.03h-2.42v-11.03h-3.92v-1.98zm13.99 0h1.83v13.01h-2.13v-8.41q0-.5.05-1.09l-3.93 7.39q-.28.53-.86.53h-.34q-.58 0-.86-.53l-3.97-7.41.04.58q.02.29.02.53v8.41h-2.13v-13.01h2.1q.12.01.21.05.1.04.17.12.08.08.15.21l3.9 7.23q.15.29.28.59.13.31.26.63.13-.33.26-.64.14-.31.29-.6l3.84-7.21q.07-.13.16-.21.08-.08.17-.12.1-.04.21-.05zm13.27 0h2.43v13.01h-2.43v-5.69h-6.11v5.69h-2.43v-13.01h2.43v5.59h6.11zm7.76 0v13.01h-2.43v-13.01zm14.46 6.5q0 1.43-.48 2.63t-1.34 2.06q-.86.87-2.08 1.34-1.21.48-2.7.48h-4.96v-13.01h4.96q1.49 0 2.7.48 1.22.48 2.08 1.34t1.34 2.05q.48 1.2.48 2.63m-2.49 0q0-1.07-.28-1.92t-.82-1.44q-.53-.59-1.29-.9-.76-.32-1.72-.32h-2.53v9.16h2.53q.96 0 1.72-.31.76-.32 1.29-.91.54-.59.82-1.44t.28-1.92"/></svg>