<svg xmlns="http://www.w3.org/2000/svg" width="100" height="100" viewBox="0 0 100 100"><rect width="100%" height="100%" fill="#dc2626"/><path fill="#ffffff" d="M40.265 37.345v3.87h-7.63v21.44h-4.7v-21.44h-7.63v-3.87zm21 0v3.87h-7.63v21.44h-4.7v-21.44h-7.63v-3.87zm17.98 2.38-1.18 2.23q-.21.36-.44.53-.24.17-.59.17-.37 0-.79-.27-.43-.28-1.03-.61-.59-.33-1.39-.6t-1.88-.27q-.98 0-1.72.23-.73.24-1.23.66t-.74 1.01q-.25.58-.25 1.28 0 .89.5 1.49.5.59 1.32 1.01t1.87.76q1.05.33 2.16.71 1.1.37 2.15.87t1.87 1.26 1.32 1.86q.5 1.11.5 2.68 0 1.72-.58 3.21-.59 1.5-1.72 2.61t-2.76 1.75q-1.62.64-3.72.64-1.21 0-2.38-.24-1.18-.23-2.25-.67-1.08-.44-2.02-1.05-.95-.61-1.68-1.37l1.38-2.25q.17-.25.45-.41.28-.17.6-.17.44 0 .94.36.51.36 1.21.79.7.44 1.64.8.93.36 2.25.36 2.01 0 3.11-.95 1.1-.96 1.1-2.74 0-1-.49-1.63-.5-.63-1.33-1.06-.82-.43-1.87-.73-1.05-.29-2.13-.64-1.09-.35-2.14-.84t-1.87-1.28-1.32-1.97-.5-2.91q0-1.39.55-2.7t1.6-2.33q1.05-1.01 2.59-1.62 1.54-.62 3.54-.62 2.24 0 4.13.7t3.22 1.96"/></svg>