<svg xmlns="http://www.w3.org/2000/svg" width="100" height="100" viewBox="0 0 100 100"><rect width="100%" height="100%" fill="#dc2626"/><path fill="#ffffff" d="M28.965 57.085q1.1 0 1.96-.36.86-.37 1.45-1.02.58-.66.9-1.6.31-.94.31-2.1v-12.12h3.77v12.12q0 1.81-.58 3.34t-1.67 2.64q-1.08 1.12-2.64 1.74-1.55.62-3.5.62-1.96 0-3.51-.62t-2.64-1.74q-1.08-1.11-1.66-2.64-.59-1.53-.59-3.34v-12.12h3.77v12.11q0 1.16.32 2.1.31.93.91 1.6.59.66 1.45 1.03.86.36 1.95.36m26.55-1.73q.31 0 .54.23l1.49 1.61q-1.23 1.53-3.03 2.34t-4.32.81q-2.26 0-4.05-.77-1.8-.77-3.08-2.14-1.27-1.37-1.95-3.27-.68-1.91-.68-4.16 0-2.28.73-4.18t2.05-3.27 3.16-2.14q1.83-.76 4.06-.76 2.21 0 3.92.73 1.72.73 2.92 1.9l-1.26 1.75q-.11.17-.28.3-.18.12-.49.12-.21 0-.43-.12-.23-.11-.49-.29-.27-.17-.62-.38t-.81-.39q-.46-.17-1.07-.29t-1.41-.12q-1.36 0-2.48.48-1.13.48-1.94 1.4t-1.26 2.24-.45 3.02q0 1.71.48 3.04.49 1.33 1.31 2.24.83.91 1.95 1.39t2.41.48q.77 0 1.39-.08.62-.09 1.15-.27.52-.18.99-.47.47-.28.93-.7.14-.13.3-.21.15-.07.32-.07m23.92-5.35q0 2.22-.73 4.12-.74 1.9-2.08 3.28-1.34 1.39-3.23 2.17-1.89.77-4.2.77-2.3 0-4.19-.77-1.89-.78-3.24-2.17-1.35-1.38-2.09-3.28-.75-1.9-.75-4.12 0-2.23.75-4.13.74-1.89 2.09-3.28 1.35-1.38 3.24-2.16t4.19-.78q1.54 0 2.89.36 1.36.36 2.5 1.01 1.13.65 2.03 1.58.91.93 1.54 2.08t.96 2.49q.32 1.34.32 2.83m-3.85 0q0-1.67-.44-2.99-.45-1.32-1.28-2.25-.82-.92-2.01-1.41-1.18-.49-2.66-.49-1.49 0-2.67.49t-2.02 1.41q-.83.93-1.28 2.25t-.45 2.99q0 1.66.45 2.99.45 1.32 1.28 2.24.84.91 2.02 1.4t2.67.49q1.48 0 2.66-.49 1.19-.49 2.01-1.4.83-.92 1.28-2.24.44-1.33.44-2.99"/></svg>