<svg xmlns="http://www.w3.org/2000/svg" width="100" height="100" viewBox="0 0 100 100"><rect width="100%" height="100%" fill="#dc2626"/><path fill="#ffffff" d="M29.67 53.895h10.12l-3.87-10.58q-.29-.71-.59-1.68-.31-.96-.62-2.09-.29 1.13-.59 2.11-.31.97-.6 1.7zm8.08-19.8 12.49 31.81h-4.57q-.77 0-1.26-.38-.48-.39-.72-.96l-2.38-6.49H28.13l-2.37 6.49q-.18.5-.69.92-.5.42-1.25.42H19.2l12.52-31.81zm38.28 0h4.77l-12.85 31.81h-5.34l-12.85-31.81h4.75q.77 0 1.25.37.49.38.73.97l7.5 19.4q.38.95.72 2.08.34 1.14.65 2.37.26-1.23.57-2.37.31-1.13.68-2.08l7.46-19.4q.17-.51.69-.92.52-.42 1.27-.42"/></svg>