<svg xmlns="http://www.w3.org/2000/svg" width="100" height="100" viewBox="0 0 100 100"><rect width="100%" height="100%" fill="#dc2626"/><path fill="#ffffff" d="M20.395 32.65h23.98v2.56q0 1.16-.24 1.86-.24.71-.48 1.19l-13.15 27.07q-.41.84-1.15 1.43-.75.59-2 .59h-4.29l13.41-26.52q.46-.82.9-1.5.45-.68 1-1.31h-16.61q-.55 0-.96-.41-.41-.4-.41-.96zm36.77 21.6h11.04l-4.22-11.55q-.31-.77-.65-1.82-.34-1.06-.67-2.28-.31 1.22-.65 2.29t-.65 1.86zm8.81-21.6 13.63 34.7h-4.99q-.84 0-1.37-.42t-.79-1.04l-2.59-7.08h-14.38l-2.59 7.08q-.19.55-.74 1-.56.46-1.37.46h-5.04l13.65-34.7z"/></svg>