<svg xmlns="http://www.w3.org/2000/svg" width="100" height="100" viewBox="0 0 100 100"><rect width="100%" height="100%" fill="#dc2626"/><path fill="#ffffff" d="M23.96 51.86h4.83l-1.85-5.05q-.13-.34-.28-.8t-.29-1q-.14.54-.29 1-.14.47-.28.82zm3.85-9.45 5.97 15.18h-2.19q-.36 0-.59-.18-.23-.19-.35-.46l-1.13-3.1h-6.29l-1.14 3.1q-.08.24-.32.44t-.6.2h-2.21l5.98-15.18zm21.88 0h2.13v15.18h-2.49v-9.81q0-.59.06-1.27l-4.59 8.62q-.32.62-.99.62h-.4q-.67 0-1-.62l-4.64-8.65q.03.35.05.68.02.34.02.62v9.81h-2.49V42.41h2.14q.18 0 .32.01t.25.05.2.14q.09.09.17.25l4.55 8.43q.18.34.33.69.15.36.3.74.14-.39.3-.75.16-.37.34-.7l4.48-8.41q.08-.16.18-.25.09-.1.2-.14t.25-.05.33-.01m8.7 9.45h4.83l-1.85-5.05q-.13-.34-.28-.8t-.29-1q-.14.54-.29 1-.15.47-.28.82zm3.85-9.45 5.97 15.18h-2.19q-.36 0-.59-.18-.24-.19-.35-.46l-1.13-3.1h-6.29l-1.14 3.1q-.08.24-.32.44-.25.2-.6.2h-2.21l5.98-15.18zm10.37 12.97h2.85q.79 0 1.33-.18.53-.19.85-.51.32-.31.46-.73.15-.42.15-.9 0-.49-.16-.88-.16-.4-.49-.67-.34-.28-.87-.43t-1.28-.15h-2.84zm2.4-10.79h-2.4v4.39h2.24q1.45 0 2.19-.52.74-.53.74-1.67 0-1.19-.67-1.7-.67-.5-2.1-.5m-5.23-2.18h5.23q1.49 0 2.55.28t1.74.81q.68.52.99 1.27.32.74.32 1.68 0 .53-.16 1.02t-.49.92q-.33.42-.84.77-.51.34-1.21.59 3.13.7 3.13 3.38 0 .96-.37 1.78t-1.07 1.41q-.7.6-1.73.93-1.03.34-2.35.34h-5.74z"/></svg>