<svg xmlns="http://www.w3.org/2000/svg" width="100" height="100" viewBox="0 0 100 100"><rect width="100%" height="100%" fill="#dc2626"/><path fill="#ffffff" d="M23.34 54.105h2.17q.6 0 1.01-.14.41-.15.65-.39.25-.24.35-.56.11-.32.11-.68 0-.37-.12-.67t-.37-.52q-.26-.21-.66-.32-.41-.11-.98-.11h-2.16zm1.83-8.22h-1.83v3.34h1.71q1.1 0 1.67-.4.56-.4.56-1.27 0-.91-.51-1.29t-1.6-.38m-3.99-1.67h3.99q1.13 0 1.94.22.81.21 1.33.61.51.4.75.97t.24 1.28q0 .41-.12.78t-.37.7q-.25.32-.64.59-.39.26-.92.44 2.38.54 2.38 2.58 0 .74-.28 1.36t-.82 1.08q-.53.45-1.32.7-.78.26-1.79.26h-4.37zm12.97 7.2h3.68l-1.41-3.85q-.1-.25-.21-.6-.11-.36-.23-.76-.1.4-.21.76t-.22.62zm2.94-7.2 4.54 11.57h-1.66q-.28 0-.46-.14-.17-.14-.26-.35l-.87-2.36h-4.79l-.86 2.36q-.07.19-.25.34t-.46.15h-1.68l4.56-11.57zm8.17 7.2h3.68l-1.4-3.85q-.11-.25-.22-.6-.11-.36-.22-.76-.11.4-.22.76t-.22.62zm2.94-7.2 4.54 11.57h-1.66q-.28 0-.46-.14-.17-.14-.26-.35l-.86-2.36h-4.8l-.86 2.36q-.06.19-.25.34-.18.15-.45.15h-1.68l4.55-11.57zm13.34 0h2.16v11.57h-2.16v-5.06H56.1v5.06h-2.16v-11.57h2.16v4.98h5.44zm15.65 0h1.63v11.57h-1.9v-7.47q0-.45.05-.97l-3.5 6.57q-.25.47-.76.47h-.3q-.51 0-.76-.47l-3.54-6.59q.03.26.04.52.02.25.02.47v7.47h-1.9v-11.57h1.63q.14 0 .24.01.11.01.19.04.09.03.15.1.07.08.14.2l3.46 6.42q.14.26.25.53.12.27.23.56.11-.3.23-.57.12-.28.26-.54l3.41-6.4q.07-.12.14-.2.07-.07.16-.1.08-.03.18-.04.11-.01.25-.01"/></svg>