<svg xmlns="http://www.w3.org/2000/svg" width="100" height="100" viewBox="0 0 100 100"><rect width="100%" height="100%" fill="#dc2626"/><path fill="#ffffff" d="M37.335 55.915q.35 0 .61.27l1.64 1.78q-1.36 1.69-3.35 2.59-2 .9-4.79.9-2.49 0-4.48-.85-1.99-.86-3.41-2.38-1.41-1.52-2.16-3.62-.75-2.11-.75-4.61 0-2.52.81-4.62.8-2.1 2.27-3.62 1.46-1.52 3.49-2.37 2.03-.84 4.5-.84 2.45 0 4.35.8 1.89.81 3.23 2.11l-1.4 1.94q-.12.19-.32.33-.19.14-.53.14-.23 0-.48-.14-.25-.13-.54-.32-.3-.2-.69-.43-.38-.23-.89-.42-.52-.2-1.19-.33t-1.56-.13q-1.5 0-2.75.53-1.25.54-2.15 1.55-.89 1.02-1.39 2.48-.5 1.47-.5 3.34 0 1.89.54 3.37.53 1.47 1.45 2.48.91 1 2.15 1.54 1.24.53 2.67.53.85 0 1.54-.09t1.27-.29q.58-.21 1.1-.52.52-.32 1.03-.79.16-.14.33-.22.17-.09.35-.09m18.09-15.01-1.04 1.96q-.18.33-.39.48-.21.14-.52.14-.33 0-.71-.24t-.9-.53q-.53-.3-1.23-.54-.71-.24-1.67-.24-.87 0-1.52.21t-1.09.58q-.44.38-.66.9-.22.51-.22 1.13 0 .8.44 1.32.45.53 1.17.9.73.37 1.66.67.93.29 1.91.63.98.33 1.91.77t1.65 1.12q.73.67 1.17 1.65.45.97.45 2.37 0 1.52-.52 2.84-.52 1.33-1.52 2.31-1 .99-2.44 1.55-1.45.57-3.31.57-1.06 0-2.1-.21t-1.99-.6q-.96-.39-1.8-.93-.83-.54-1.48-1.21l1.22-2q.16-.21.4-.36.25-.15.53-.15.39 0 .84.32t1.07.71q.62.38 1.45.7t1.99.32q1.78 0 2.76-.85.97-.84.97-2.42 0-.89-.44-1.44-.44-.56-1.17-.94t-1.66-.65q-.93-.26-1.89-.57t-1.89-.74q-.93-.44-1.66-1.13-.73-.7-1.17-1.75-.44-1.04-.44-2.58 0-1.22.49-2.39.49-1.16 1.42-2.06t2.29-1.44q1.37-.54 3.13-.54 1.99 0 3.66.62t2.85 1.74m23.93 9.09q0 2.47-.82 4.53t-2.31 3.55q-1.48 1.49-3.58 2.31-2.09.82-4.65.82h-8.54v-22.41h8.54q2.56 0 4.65.83 2.1.83 3.58 2.31 1.49 1.48 2.31 3.54t.82 4.52m-4.27 0q0-1.84-.49-3.31-.49-1.46-1.41-2.48-.92-1.01-2.23-1.55-1.31-.55-2.96-.55h-4.35v15.78h4.35q1.65 0 2.96-.54t2.23-1.56q.92-1.01 1.41-2.48.49-1.46.49-3.31"/></svg>