<svg xmlns="http://www.w3.org/2000/svg" width="100" height="100" viewBox="0 0 100 100"><rect width="100%" height="100%" fill="#dc2626"/><path fill="#ffffff" d="M36.91 41.095H25.67v7.02h8.86v3.62h-8.86v7.16h11.24v3.76H20.95v-25.31h15.96zm21.54 15.59q.39 0 .68.3l1.86 2.01q-1.54 1.91-3.79 2.92-2.25 1.02-5.4 1.02-2.82 0-5.07-.96-2.25-.97-3.84-2.68-1.59-1.72-2.44-4.1t-.85-5.19q0-2.86.91-5.23t2.57-4.08q1.65-1.72 3.94-2.67 2.3-.96 5.08-.96 2.76 0 4.91.91 2.14.91 3.65 2.38l-1.58 2.19q-.14.21-.36.37t-.6.16q-.26 0-.55-.15-.27-.15-.61-.37-.33-.22-.77-.48t-1.01-.48q-.58-.22-1.34-.37t-1.76-.15q-1.7 0-3.11.61-1.4.6-2.42 1.75-1.01 1.14-1.57 2.8-.57 1.65-.57 3.77 0 2.13.61 3.79.6 1.67 1.63 2.8 1.04 1.14 2.44 1.75 1.4.6 3.01.6.96 0 1.74-.11.78-.1 1.43-.33.66-.23 1.25-.58.58-.36 1.16-.89.18-.16.37-.25.19-.1.4-.1m10.48 2.08h10.12v3.89H64.23v-25.31h4.7z"/></svg>