<svg xmlns="http://www.w3.org/2000/svg" width="100" height="100" viewBox="0 0 100 100"><rect width="100%" height="100%" fill="#dc2626"/><path fill="#ffffff" d="M38.435 40.585h-11.88v7.42h9.36v3.83h-9.36v7.56h11.88v3.98h-16.87v-26.75h16.87zm36.09-3.96h3.91l-8.31 26.75h-4.5l-5.84-18.28q-.24-.66-.45-1.63-.11.47-.22.87-.11.41-.24.76l-5.9 18.28h-4.51l-8.29-26.75h4.16q.65 0 1.08.3.44.31.59.83l4.55 16q.14.59.28 1.29.14.69.29 1.45.15-.78.32-1.46.18-.69.38-1.28l5.26-16q.15-.43.58-.78t1.06-.35h1.47q.64 0 1.05.31.41.32.61.82l5.24 16q.38 1.15.7 2.65.24-1.47.54-2.65l4.55-16q.11-.46.56-.8.45-.33 1.08-.33"/></svg>