<svg xmlns="http://www.w3.org/2000/svg" width="100" height="100" viewBox="0 0 100 100"><rect width="100%" height="100%" fill="#dc2626"/><path fill="#ffffff" d="M43.195 38.29h-14.77v9.85h12.47v4.94h-12.47v13.55h-6.21V33.37h20.98zM77.785 50q0 3.66-1.22 6.72t-3.42 5.26q-2.21 2.21-5.32 3.43-3.1 1.22-6.9 1.22h-12.67V33.37h12.67q3.8 0 6.9 1.23 3.11 1.23 5.32 3.43 2.2 2.2 3.42 5.26 1.22 3.05 1.22 6.71m-6.35 0q0-2.74-.72-4.91-.73-2.17-2.09-3.68-1.37-1.51-3.32-2.31-1.94-.81-4.38-.81h-6.46v23.42h6.46q2.44 0 4.38-.81 1.95-.8 3.32-2.31 1.36-1.5 2.09-3.68.72-2.17.72-4.91"/></svg>