<svg xmlns="http://www.w3.org/2000/svg" width="100" height="100" viewBox="0 0 100 100"><rect width="100%" height="100%" fill="#dc2626"/><path fill="#ffffff" d="M40.335 49.955h11.52v14.04q-2.64 1.94-5.62 2.84-2.99.9-6.4.9-4.25 0-7.69-1.32-3.45-1.32-5.88-3.67-2.44-2.35-3.76-5.61-1.32-3.27-1.32-7.13 0-3.91 1.27-7.18 1.28-3.26 3.62-5.61 2.34-2.36 5.67-3.65 3.34-1.3 7.49-1.3 2.11 0 3.95.34 1.83.33 3.41.92 1.57.59 2.86 1.43 1.3.84 2.38 1.85l-1.85 2.93q-.43.69-1.13.85-.69.15-1.51-.35-.79-.46-1.58-.91-.79-.46-1.77-.79-.97-.34-2.18-.56-1.21-.21-2.8-.21-2.56 0-4.64.86-2.08.87-3.54 2.47-1.46 1.61-2.26 3.87-.79 2.25-.79 5.04 0 2.97.85 5.31.86 2.34 2.4 3.96 1.55 1.62 3.74 2.48 2.18.85 4.87.85 1.92 0 3.43-.41t2.95-1.1v-6.29h-4.37q-.62 0-.97-.35t-.35-.85zm37.85-14.04-1.61 3.05q-.28.5-.61.73-.32.23-.8.23-.51 0-1.09-.37-.59-.38-1.41-.83-.81-.46-1.91-.83-1.09-.37-2.58-.37-1.34 0-2.35.32-1.01.33-1.69.9-.68.58-1.02 1.38-.34.81-.34 1.77 0 1.22.69 2.04.68.81 1.81 1.39 1.13.57 2.57 1.03t2.95.97q1.51.52 2.95 1.2 1.44.69 2.57 1.73t1.81 2.56q.69 1.51.69 3.67 0 2.35-.81 4.4-.8 2.05-2.35 3.58-1.55 1.52-3.78 2.4-2.23.87-5.11.87-1.66 0-3.27-.32-1.6-.32-3.08-.92t-2.77-1.44q-1.3-.84-2.31-1.88l1.9-3.09q.24-.34.62-.57.39-.22.82-.22.6 0 1.3.49.69.49 1.65 1.09t2.25 1.09q1.28.49 3.08.49 2.76 0 4.27-1.3 1.51-1.31 1.51-3.76 0-1.37-.68-2.23-.68-.87-1.81-1.45-1.13-.59-2.57-1t-2.93-.89-2.93-1.15-2.56-1.75q-1.13-1.08-1.82-2.7-.68-1.62-.68-4 0-1.89.76-3.69.75-1.8 2.19-3.2 1.44-1.39 3.55-2.23 2.12-.84 4.85-.84 3.07 0 5.67.96 2.59.96 4.41 2.69"/></svg>