<svg xmlns="http://www.w3.org/2000/svg" width="100" height="100" viewBox="0 0 100 100"><rect width="100%" height="100%" fill="#dc2626"/><path fill="#ffffff" d="M34.81 40.24h3.64v19.52h-3.64v-8.53h-9.17v8.53h-3.65V40.24h3.65v8.4h9.17zM46.9 52.39h6.21l-2.37-6.49q-.18-.44-.37-1.03t-.38-1.28q-.17.69-.36 1.29t-.37 1.04zm4.96-12.15 7.66 19.52h-2.8q-.48 0-.77-.24-.3-.23-.45-.58l-1.46-3.99h-8.08l-1.46 3.99q-.11.31-.42.56-.31.26-.77.26h-2.83l7.68-19.52zm22.5 0h3.65v19.52h-3.65v-8.53h-9.17v8.53h-3.64V40.24h3.64v8.4h9.17z"/></svg>