<svg xmlns="http://www.w3.org/2000/svg" width="100" height="100" viewBox="0 0 100 100"><rect width="100%" height="100%" fill="#dc2626"/><path fill="#ffffff" d="M35.41 39.155h4.05v21.69h-4.05v-9.48H25.23v9.48h-4.05v-21.69h4.05v9.33h10.18zm12.92 0v9.09h.94q.57 0 .95-.16.37-.15.64-.5l5.99-7.58q.37-.47.78-.66.42-.19 1.05-.19h3.48l-7.31 9.02q-.64.82-1.33 1.17.49.18.89.5t.76.85l7.53 10.15h-3.56q-.72 0-1.07-.2t-.59-.59l-6.14-8.01q-.28-.41-.66-.58-.37-.16-1.08-.16h-1.27v9.54h-4.04v-21.69zm15.51 0h14.98v1.6q0 .73-.15 1.17t-.3.74l-8.22 16.92q-.26.53-.72.89-.47.37-1.24.37H65.5l8.39-16.57q.28-.52.56-.94.28-.43.62-.82H64.69q-.35 0-.6-.26-.25-.25-.25-.59z"/></svg>