<svg xmlns="http://www.w3.org/2000/svg" width="100" height="100" viewBox="0 0 100 100"><rect width="100%" height="100%" fill="#dc2626"/><path fill="#ffffff" d="M35.94 31.925v36.15h-6.75v-36.15zm14.8 30.9h6.8q1.87 0 3.15-.45 1.27-.45 2.04-1.2.76-.75 1.1-1.75.33-1 .33-2.13 0-1.17-.37-2.11-.38-.94-1.18-1.6-.79-.66-2.06-1.01-1.26-.35-3.04-.35h-6.77zm5.72-25.7h-5.72v10.45h5.35q3.45 0 5.21-1.25 1.77-1.25 1.77-3.98 0-2.82-1.61-4.02-1.6-1.2-5-1.2m-12.45-5.2h12.45q3.55 0 6.08.67 2.52.68 4.14 1.93 1.61 1.25 2.36 3.02.75 1.78.75 4 0 1.28-.37 2.44-.38 1.16-1.17 2.18-.79 1.01-2 1.83-1.21.83-2.89 1.4 7.45 1.68 7.45 8.05 0 2.3-.87 4.25-.88 1.96-2.55 3.37-1.68 1.41-4.13 2.21-2.44.8-5.6.8H44.01z"/></svg>