<svg xmlns="http://www.w3.org/2000/svg" width="100" height="100" viewBox="0 0 100 100"><rect width="100%" height="100%" fill="#dc2626"/><path fill="#ffffff" d="M27.79 41.685v10.72q0 1.4-.34 2.53-.35 1.13-1.03 1.92-.69.79-1.71 1.22-1.02.42-2.38.42-.62 0-1.22-.07-.6-.08-1.25-.24.03-.46.08-.92l.08-.92q.03-.25.2-.4.17-.16.48-.16.19 0 .51.08t.8.08q.65 0 1.16-.19t.85-.6q.33-.42.51-1.08.17-.66.17-1.6v-10.79zm19.4 8.32q0 1.82-.6 3.38t-1.71 2.7q-1.1 1.14-2.65 1.78-1.56.63-3.45.63t-3.44-.63q-1.56-.64-2.67-1.78-1.1-1.14-1.71-2.7t-.61-3.38q0-1.83.61-3.39t1.71-2.7q1.11-1.14 2.67-1.77 1.55-.64 3.44-.64 1.26 0 2.38.29 1.11.29 2.04.83.93.53 1.68 1.3.74.76 1.26 1.71.51.94.78 2.04.27 1.11.27 2.33m-3.16 0q0-1.37-.37-2.46-.36-1.09-1.04-1.85-.68-.75-1.65-1.16-.98-.4-2.19-.4-1.22 0-2.2.4-.97.41-1.65 1.16-.69.76-1.05 1.85-.37 1.09-.37 2.46 0 1.36.37 2.45.36 1.09 1.05 1.84.68.75 1.65 1.16.98.4 2.2.4 1.21 0 2.19-.4.97-.41 1.65-1.16t1.04-1.84q.37-1.09.37-2.45m9.39 2.03h5.29l-2.03-5.53q-.15-.37-.31-.87-.16-.51-.32-1.1-.15.59-.31 1.1t-.31.89zm4.22-10.35 6.53 16.63h-2.39q-.41 0-.66-.2t-.38-.5l-1.24-3.39h-6.89l-1.24 3.39q-.09.26-.36.48-.26.22-.65.22h-2.42l6.54-16.63zm11.75 10.35h5.29l-2.03-5.53q-.14-.37-.31-.87-.16-.51-.32-1.1-.15.59-.31 1.1t-.31.89zm4.22-10.35 6.53 16.63h-2.39q-.4 0-.66-.2-.25-.2-.38-.5l-1.24-3.39h-6.89l-1.24 3.39q-.09.26-.35.48-.27.22-.66.22h-2.42l6.55-16.63z"/></svg>