<svg xmlns="http://www.w3.org/2000/svg" width="100" height="100" viewBox="0 0 100 100"><rect width="100%" height="100%" fill="#dc2626"/><path fill="#ffffff" d="M29.055 32.65v14.54h1.52q.91 0 1.51-.25t1.03-.81l9.58-12.12q.6-.76 1.26-1.06t1.66-.3h5.57l-11.69 14.42q-1.03 1.32-2.13 1.87.79.29 1.43.81.63.51 1.21 1.35l12.05 16.25h-5.69q-1.15 0-1.72-.32-.56-.33-.95-.95l-9.81-12.82q-.46-.65-1.06-.91t-1.73-.26h-2.04v15.26h-6.45v-34.7zm48.34 5.13h-15.41v10.27h13.01v5.16h-13.01v14.14h-6.48v-34.7h21.89z"/></svg>