<svg xmlns="http://www.w3.org/2000/svg" width="100" height="100" viewBox="0 0 100 100"><rect width="100%" height="100%" fill="#dc2626"/><path fill="#ffffff" d="m43.305 35.625-1.64 3.11q-.3.51-.63.74-.33.24-.82.24-.51 0-1.11-.38t-1.44-.85q-.83-.46-1.95-.84-1.11-.38-2.63-.38-1.37 0-2.4.33t-1.73.92q-.7.58-1.04 1.4-.34.83-.34 1.81 0 1.24.7 2.08.69.83 1.85 1.42 1.15.59 2.62 1.05 1.47.47 3.01.99 1.54.53 3.01 1.23t2.63 1.76q1.15 1.07 1.85 2.61.69 1.55.69 3.75 0 2.4-.82 4.5-.82 2.09-2.4 3.65-1.58 1.55-3.86 2.45-2.27.89-5.21.89-1.7 0-3.34-.33t-3.14-.94q-1.51-.61-2.83-1.47-1.33-.86-2.36-1.91l1.94-3.16q.24-.35.64-.58.39-.23.83-.23.61 0 1.32.5t1.69 1.11q.98.62 2.29 1.12t3.15.5q2.82 0 4.36-1.33 1.55-1.34 1.55-3.84 0-1.39-.7-2.28-.7-.88-1.85-1.48t-2.62-1.02q-1.47-.41-2.99-.9t-2.99-1.18q-1.47-.68-2.62-1.79-1.15-1.1-1.85-2.75-.7-1.66-.7-4.08 0-1.94.77-3.77.77-1.84 2.24-3.26t3.63-2.28q2.15-.86 4.95-.86 3.13 0 5.78.98t4.51 2.75m13.82 18.71h11.27l-4.32-11.78q-.32-.79-.66-1.86-.34-1.08-.68-2.33-.32 1.25-.67 2.34-.34 1.09-.66 1.9zm8.99-22.05 13.91 35.43h-5.09q-.86 0-1.4-.43t-.81-1.06l-2.64-7.23h-14.68l-2.65 7.23q-.19.56-.76 1.02-.56.47-1.39.47h-5.15l13.94-35.43z"/></svg>