<svg xmlns="http://www.w3.org/2000/svg" width="100" height="100" viewBox="0 0 100 100"><rect width="100%" height="100%" fill="#dc2626"/><path fill="#ffffff" d="M39.69 37.71v3.75h-7.41v20.83h-4.57V41.46h-7.42v-3.75zm7.8 21.01h4.63q1.27 0 2.14-.31.87-.3 1.39-.81.51-.51.74-1.19t.23-1.45q0-.8-.25-1.43-.26-.64-.8-1.09t-1.4-.69-2.07-.24h-4.61zm3.9-17.48h-3.9v7.11h3.64q2.35 0 3.55-.85t1.2-2.7q0-1.92-1.09-2.74t-3.4-.82m-8.47-3.53h8.47q2.41 0 4.13.46t2.81 1.31q1.1.85 1.61 2.05.51 1.21.51 2.72 0 .87-.26 1.66-.25.79-.79 1.48-.53.69-1.36 1.25-.82.56-1.96.95 5.07 1.14 5.07 5.47 0 1.57-.6 2.9-.59 1.32-1.73 2.28t-2.81 1.51q-1.66.54-3.81.54h-9.28zm26.96 20.81h9.83v3.77h-14.4V37.71h4.57z"/></svg>