<svg xmlns="http://www.w3.org/2000/svg" width="100" height="100" viewBox="0 0 100 100"><rect width="100%" height="100%" fill="#dc2626"/><path fill="#ffffff" d="M23.88 56.26h7.22v2.78H20.52V40.97h3.36zm12.99-6.69h2.1q.95 0 1.65-.24.71-.24 1.16-.66.46-.42.69-.99.22-.58.22-1.27 0-1.37-.91-2.11-.9-.74-2.76-.74h-2.15zm6.22 2.79 4.53 6.68h-3.04q-.86 0-1.25-.68l-3.8-5.78q-.21-.33-.47-.47-.26-.13-.76-.13h-1.43v7.06H33.5V40.97h5.52q1.83 0 3.15.38t2.16 1.06q.85.69 1.25 1.65.4.95.4 2.1 0 .92-.27 1.73t-.78 1.47q-.5.67-1.25 1.17-.74.5-1.69.78.33.19.6.45.28.25.5.6M62.2 40.97v2.76h-5.45v15.31h-3.36V43.73h-5.45v-2.76zm11.28 9.01h6v7.31q-1.38 1.01-2.93 1.48-1.56.47-3.33.47-2.22 0-4.01-.69t-3.06-1.91q-1.27-1.23-1.96-2.93T63.5 50q0-2.04.67-3.74.66-1.7 1.88-2.92 1.22-1.23 2.95-1.9 1.74-.68 3.9-.68 1.1 0 2.06.18.96.17 1.78.48.81.31 1.49.74.67.44 1.24.97l-.97 1.52q-.22.36-.58.45-.37.08-.79-.19-.41-.23-.83-.47-.41-.24-.92-.41-.5-.18-1.13-.29t-1.46-.11q-1.34 0-2.42.45t-1.84 1.28q-.76.84-1.18 2.02-.41 1.17-.41 2.62 0 1.55.44 2.77.45 1.22 1.25 2.06.81.85 1.95 1.29t2.54.44q1 0 1.78-.21.79-.21 1.54-.57V52.5h-2.27q-.33 0-.51-.18t-.18-.44z"/></svg>