<svg xmlns="http://www.w3.org/2000/svg" width="100" height="100" viewBox="0 0 100 100"><rect width="100%" height="100%" fill="#dc2626"/><path fill="#ffffff" d="M25.39 57.01h8.09v3.11H21.63V39.88h3.76zm34.76-17.13h2.96l-6.29 20.24h-3.4L49 46.29q-.19-.51-.34-1.23-.08.35-.17.65-.08.31-.18.58l-4.47 13.83h-3.41l-6.27-20.24h3.15q.49 0 .82.23.32.23.44.62l3.44 12.11q.11.45.22.97.1.53.21 1.1.12-.59.25-1.1.13-.52.29-.97l3.97-12.11q.11-.32.44-.59.33-.26.81-.26h1.1q.49 0 .8.23.31.24.46.62l3.97 12.11q.29.87.53 2 .18-1.1.4-2l3.45-12.11q.08-.35.43-.6.34-.25.81-.25m18.22 2.99h-8.99v5.62h7.08v2.89h-7.08v5.73h8.99v3.01H65.6V39.88h12.77z"/></svg>