<svg xmlns="http://www.w3.org/2000/svg" width="100" height="100" viewBox="0 0 100 100"><rect width="100%" height="100%" fill="#dc2626"/><path fill="#ffffff" d="M34.495 42.41h2.13v15.18h-2.49v-9.81q0-.59.06-1.27l-4.58 8.62q-.33.62-1 .62h-.4q-.67 0-1-.62l-4.64-8.65q.03.35.05.68.02.34.02.62v9.81h-2.48V42.41h2.13q.19 0 .32.01.14.01.25.05t.2.14q.09.09.17.25l4.55 8.43q.18.34.33.69.15.36.3.74.15-.39.3-.75.16-.37.34-.7l4.48-8.41q.09-.16.18-.25.1-.1.21-.14t.24-.05q.14-.01.33-.01m15.82 0h2.49v15.18h-1.45q-.33 0-.56-.11t-.44-.37l-7.92-10.13q.06.7.06 1.29v9.32h-2.49V42.41h1.48q.18 0 .31.01.13.02.23.07.1.04.2.13.09.09.21.24l7.96 10.16q-.04-.37-.06-.72-.02-.36-.02-.66zm9.06 9.45h4.83l-1.84-5.05q-.14-.34-.29-.8-.14-.46-.29-1-.14.54-.29 1-.14.47-.28.82zm3.86-9.45 5.96 15.18h-2.18q-.37 0-.6-.18-.23-.19-.35-.46l-1.13-3.1h-6.29l-1.14 3.1q-.08.24-.32.44t-.6.2h-2.2l5.97-15.18zm16.32 1.42-.7 1.34q-.12.22-.27.32-.14.1-.35.1-.22 0-.48-.16-.25-.17-.61-.37t-.84-.36q-.47-.16-1.12-.16-.59 0-1.03.14t-.74.39q-.3.26-.45.61t-.15.77q0 .53.3.89t.8.61q.49.25 1.12.45t1.29.43q.66.22 1.29.52t1.13.76q.49.46.79 1.12t.3 1.6q0 1.03-.35 1.93-.36.9-1.03 1.56-.68.67-1.66 1.05-.97.39-2.23.39-.73 0-1.43-.14-.7-.15-1.35-.41t-1.21-.63q-.57-.37-1.01-.82l.83-1.35q.1-.15.27-.25t.36-.1q.26 0 .57.22.3.21.72.48.42.26.98.47.56.22 1.35.22 1.21 0 1.87-.57.66-.58.66-1.65 0-.6-.3-.97-.3-.38-.79-.64t-1.12-.44q-.63-.17-1.29-.38-.65-.21-1.28-.51-.63-.29-1.12-.76-.49-.48-.79-1.19-.3-.7-.3-1.74 0-.83.33-1.62t.96-1.4 1.55-.97q.93-.37 2.12-.37 1.35 0 2.48.42 1.14.42 1.93 1.17"/></svg>