<svg xmlns="http://www.w3.org/2000/svg" width="100" height="100" viewBox="0 0 100 100"><rect width="100%" height="100%" fill="#dc2626"/><path fill="#ffffff" d="M40.51 39.515h2.94v20.97h-3.44v-13.54q0-.82.09-1.76l-6.33 11.91q-.45.85-1.38.85h-.55q-.93 0-1.38-.85l-6.41-11.95q.04.48.07.94.03.47.03.86v13.54h-3.43v-20.97h2.94q.26 0 .45.02.19.01.34.07t.27.19q.13.13.24.35l6.28 11.64q.25.46.46.96.21.49.41 1.01.21-.53.42-1.03.22-.51.47-.97l6.19-11.61q.11-.22.24-.35.14-.13.29-.19t.34-.07q.19-.02.45-.02m11.51 9.98h2.44q1.1 0 1.92-.28.82-.27 1.35-.76.53-.48.79-1.15t.26-1.47q0-1.59-1.05-2.45-1.05-.85-3.22-.85h-2.49zm7.22 3.25 5.25 7.74h-3.52q-1 0-1.45-.78l-4.41-6.72q-.25-.37-.54-.53-.3-.16-.88-.16h-1.67v8.19h-3.9v-20.97h6.39q2.14 0 3.67.45 1.53.44 2.5 1.23.98.8 1.45 1.91.46 1.11.46 2.44 0 1.06-.31 2.01-.31.94-.9 1.71t-1.45 1.35-1.96.91q.37.22.69.51.32.3.58.71m19.66-11.26-.97 1.85q-.17.3-.37.44-.19.14-.48.14-.31 0-.66-.23-.36-.22-.85-.5-.49-.27-1.15-.5-.66-.22-1.56-.22-.81 0-1.42.19-.61.2-1.03.55-.41.34-.61.83-.21.49-.21 1.07 0 .73.42 1.23.41.49 1.09.84t1.55.62q.87.28 1.79.59.91.31 1.78.72.87.42 1.55 1.05t1.1 1.54q.41.92.41 2.22 0 1.42-.48 2.66-.49 1.24-1.43 2.16-.93.92-2.28 1.45t-3.09.53q-1 0-1.97-.19-.97-.2-1.86-.56-.9-.36-1.68-.87t-1.39-1.13l1.15-1.87q.14-.21.37-.34.23-.14.5-.14.36 0 .78.3.42.29 1 .65.58.37 1.35.66.78.3 1.87.3 1.67 0 2.58-.79t.91-2.27q0-.82-.41-1.35-.41-.52-1.1-.87-.68-.36-1.55-.61-.87-.24-1.77-.53t-1.77-.7q-.87-.4-1.55-1.06-.68-.65-1.09-1.63t-.41-2.41q0-1.15.45-2.23.46-1.09 1.33-1.93t2.14-1.35q1.28-.51 2.93-.51 1.86 0 3.43.58 1.56.58 2.66 1.62"/></svg>