<svg xmlns="http://www.w3.org/2000/svg" width="100" height="100" viewBox="0 0 100 100"><rect width="100%" height="100%" fill="#dc2626"/><path fill="#ffffff" d="M39.135 50q0 2.07-.69 3.83-.68 1.76-1.93 3.05-1.25 1.28-3 2.01-1.76.72-3.9.72-2.13 0-3.89-.72-1.75-.73-3.01-2.01-1.25-1.29-1.94-3.05t-.69-3.83.69-3.83 1.94-3.05q1.26-1.28 3.01-2 1.76-.73 3.89-.73 1.43 0 2.69.34 1.26.33 2.31.93 1.06.61 1.9 1.47.83.86 1.42 1.93.58 1.07.89 2.31.31 1.25.31 2.63m-3.58 0q0-1.55-.42-2.77-.41-1.23-1.18-2.09t-1.86-1.31q-1.1-.46-2.48-.46t-2.48.46q-1.1.45-1.87 1.31t-1.19 2.09q-.41 1.22-.41 2.77t.41 2.78q.42 1.22 1.19 2.08.77.85 1.87 1.3 1.1.46 2.48.46t2.48-.46q1.09-.45 1.86-1.3.77-.86 1.18-2.08.42-1.23.42-2.78m24.58 0q0 2.07-.68 3.83t-1.93 3.05q-1.25 1.28-3 2.01-1.76.72-3.9.72-2.13 0-3.89-.72-1.75-.73-3.01-2.01-1.25-1.29-1.94-3.05t-.69-3.83.69-3.83 1.94-3.05q1.26-1.28 3.01-2 1.76-.73 3.89-.73 1.43 0 2.69.34 1.26.33 2.31.93 1.06.61 1.89 1.47.84.86 1.43 1.93.58 1.07.89 2.31.3 1.25.3 2.63m-3.57 0q0-1.55-.42-2.77-.41-1.23-1.18-2.09t-1.87-1.31q-1.09-.46-2.47-.46t-2.48.46q-1.1.45-1.87 1.31t-1.19 2.09q-.42 1.22-.42 2.77t.42 2.78q.42 1.22 1.19 2.08.77.85 1.87 1.3 1.1.46 2.48.46t2.47-.46q1.1-.45 1.87-1.3.77-.86 1.18-2.08.42-1.23.42-2.78m23.35 0q0 2.07-.69 3.8t-1.94 2.97q-1.25 1.25-3 1.94-1.76.69-3.9.69h-7.17V40.6h7.17q2.14 0 3.9.7 1.75.69 3 1.93 1.25 1.25 1.94 2.97.69 1.73.69 3.8m-3.59 0q0-1.55-.41-2.77-.41-1.23-1.18-2.08-.78-.86-1.88-1.31-1.09-.46-2.47-.46h-3.66v13.24h3.66q1.38 0 2.47-.46 1.1-.45 1.88-1.3.77-.86 1.18-2.08.41-1.23.41-2.78"/></svg>