<svg xmlns="http://www.w3.org/2000/svg" width="100" height="100" viewBox="0 0 100 100"><rect width="100%" height="100%" fill="#dc2626"/><path fill="#ffffff" d="M26.295 50.08h3.92q1.45 0 2.52-.36t1.78-1.03q.71-.68 1.07-1.64.35-.97.35-2.16 0-1.13-.35-2.04-.36-.92-1.06-1.57-.7-.64-1.77-.98t-2.54-.34h-3.92zm-5.24-14.18h9.16q2.83 0 4.9.67 2.06.66 3.41 1.85t2 2.85q.65 1.65.65 3.62 0 2.05-.68 3.76-.68 1.7-2.05 2.93-1.36 1.23-3.42 1.91t-4.81.68h-3.92v9.93h-5.24zm29.4 0v28.2h-5.26V35.9zm25.67 21.55q.42 0 .76.33l2.06 2.24q-1.71 2.13-4.22 3.26-2.5 1.13-6.01 1.13-3.14 0-5.65-1.07t-4.28-2.98q-1.77-1.92-2.72-4.57t-.95-5.79q0-3.18 1.02-5.82 1.01-2.64 2.86-4.55 1.84-1.91 4.39-2.98 2.56-1.06 5.66-1.06 3.08 0 5.47 1.01 2.39 1.02 4.06 2.66l-1.75 2.43q-.16.24-.4.41-.25.18-.67.18-.3 0-.61-.17-.31-.16-.68-.41-.37-.24-.86-.53t-1.13-.54q-.64-.24-1.49-.41-.85-.16-1.96-.16-1.89 0-3.46.67t-2.7 1.95q-1.14 1.28-1.76 3.12t-.62 4.2q0 2.38.67 4.23.67 1.86 1.82 3.12 1.15 1.27 2.71 1.94 1.56.68 3.36.68 1.07 0 1.94-.12t1.6-.37q.73-.26 1.38-.65.65-.4 1.3-.99.19-.17.41-.28.21-.11.45-.11"/></svg>