<svg xmlns="http://www.w3.org/2000/svg" width="100" height="100" viewBox="0 0 100 100"><rect width="100%" height="100%" fill="#dc2626"/><path fill="#ffffff" d="M27.395 50.08h4.12q1.52 0 2.65-.38t1.88-1.09q.74-.7 1.11-1.72.37-1.01.37-2.26 0-1.19-.37-2.16-.37-.96-1.1-1.63-.74-.68-1.87-1.04t-2.67-.36h-4.12zm-5.51-14.9h9.63q2.98 0 5.15.69 2.17.7 3.59 1.95 1.41 1.25 2.1 2.99.69 1.75.69 3.82 0 2.15-.72 3.94-.72 1.8-2.15 3.09-1.44 1.29-3.6 2.01t-5.06.72h-4.12v10.43h-5.51zm30.91 0v29.64h-5.53V35.18zm25.32 4.38h-13.16v8.78h11.11v4.41h-11.11v12.07h-5.53V35.18h18.69z"/></svg>