<svg xmlns="http://www.w3.org/2000/svg" width="100" height="100" viewBox="0 0 100 100"><rect width="100%" height="100%" fill="#dc2626"/><path fill="#ffffff" d="M23.58 49.615h1.85q.84 0 1.46-.21t1.02-.57q.4-.37.6-.88.2-.5.2-1.11 0-1.21-.8-1.86-.79-.65-2.43-.65h-1.9zm5.48 2.47 3.98 5.87h-2.67q-.76 0-1.1-.59l-3.34-5.1q-.19-.28-.42-.4-.22-.12-.66-.12h-1.27v6.21h-2.95v-15.91h4.85q1.61 0 2.77.34t1.91.94q.74.61 1.09 1.45t.35 1.85q0 .8-.23 1.52-.24.71-.69 1.3-.44.58-1.1 1.02-.65.44-1.49.69.29.17.53.39.24.23.44.54m8.67 3.56h2.99q.83 0 1.39-.2t.89-.53q.34-.33.49-.77t.15-.93q0-.52-.17-.93-.16-.41-.51-.7-.36-.3-.91-.45-.56-.15-1.34-.15h-2.98zm2.52-11.31h-2.52v4.6h2.35q1.52 0 2.3-.55.77-.55.77-1.75 0-1.24-.7-1.77t-2.2-.53m-5.48-2.29h5.48q1.56 0 2.67.3t1.82.85 1.04 1.33.33 1.76q0 .56-.16 1.07-.17.51-.51.96-.35.44-.88.81-.54.36-1.27.61 3.27.74 3.27 3.55 0 1.01-.38 1.87-.39.85-1.12 1.47-.74.63-1.82.98t-2.46.35h-6.01zm29.5 0h2.24v15.91H63.9v-10.27q0-.62.07-1.33l-4.81 9.03q-.34.65-1.05.65h-.41q-.71 0-1.05-.65l-4.86-9.07q.03.37.05.72.03.35.03.65v10.27h-2.61v-15.91h2.23q.2 0 .34.02.15.01.26.05.12.04.21.14t.18.27l4.76 8.83q.19.35.35.73.16.37.31.77.16-.41.32-.79.17-.38.36-.73l4.69-8.81q.09-.17.19-.27t.21-.14q.12-.04.26-.05.15-.02.34-.02m8.74 13.47h6.36v2.44h-9.32v-15.91h2.96z"/></svg>