<svg xmlns="http://www.w3.org/2000/svg" width="100" height="100" viewBox="0 0 100 100"><rect width="100%" height="100%" fill="#dc2626"/><path fill="#ffffff" d="M23.185 49.69h1.51q.69 0 1.2-.17.5-.17.83-.48.33-.3.49-.71.16-.42.16-.91 0-.99-.65-1.52t-1.99-.53h-1.55zm4.48 2.01 3.26 4.81h-2.19q-.62 0-.9-.49l-2.73-4.16q-.16-.24-.34-.34t-.54-.1h-1.04v5.09h-2.42V43.5h3.97q1.32 0 2.27.27t1.56.77q.61.49.89 1.18.29.69.29 1.52 0 .66-.19 1.24-.2.59-.56 1.06-.36.48-.9.84t-1.22.57q.23.13.43.32.2.18.36.43m17.08-1.7q0 1.43-.47 2.65t-1.33 2.11q-.87.89-2.08 1.39-1.22.5-2.7.5t-2.69-.5q-1.22-.5-2.09-1.39t-1.34-2.11q-.48-1.22-.48-2.65t.48-2.65q.47-1.22 1.34-2.11t2.09-1.39q1.21-.5 2.69-.5.99 0 1.86.23t1.6.65 1.31 1.02q.58.59.99 1.33.4.74.61 1.6.21.87.21 1.82m-2.47 0q0-1.07-.29-1.92t-.82-1.44q-.53-.6-1.29-.91-.76-.32-1.71-.32-.96 0-1.72.32-.76.31-1.29.91-.54.59-.83 1.44t-.29 1.92.29 1.92.83 1.44q.53.59 1.29.91.76.31 1.72.31.95 0 1.71-.31.76-.32 1.29-.91t.82-1.44.29-1.92m13.7-6.5v1.98h-3.93v11.03h-2.42V45.48h-3.92V43.5zm10.64 9.94q.2 0 .36.15l.95 1.04q-.79.98-1.95 1.5t-2.78.52q-1.44 0-2.6-.49-1.16-.5-1.98-1.38t-1.25-2.1q-.44-1.23-.44-2.68 0-1.46.47-2.68t1.32-2.11q.85-.88 2.03-1.37t2.61-.49q1.42 0 2.52.47t1.88 1.22l-.81 1.13q-.07.11-.19.19-.11.08-.31.08-.13 0-.27-.08-.15-.07-.32-.19-.17-.11-.4-.24-.22-.14-.52-.25t-.69-.19-.9-.08q-.87 0-1.6.31-.72.31-1.25.9-.52.59-.8 1.44-.29.85-.29 1.94 0 1.1.31 1.96.31.85.84 1.44.53.58 1.25.89t1.55.31q.49 0 .89-.05.4-.06.74-.17.34-.12.64-.3.3-.19.6-.46.09-.08.19-.13t.2-.05m5.4 1.18h2.44q.68 0 1.14-.16t.73-.43q.28-.27.4-.63t.12-.77q0-.42-.14-.76-.13-.34-.42-.58-.29-.23-.74-.36-.46-.13-1.09-.13h-2.44zm2.06-9.25h-2.06v3.76h1.92q1.24 0 1.88-.45.63-.45.63-1.43 0-1.02-.57-1.45-.58-.43-1.8-.43m-4.48-1.87h4.48q1.28 0 2.18.24.91.24 1.49.69t.85 1.09.27 1.44q0 .46-.13.88-.14.42-.42.78-.28.37-.72.66-.44.3-1.04.51 2.68.6 2.68 2.89 0 .83-.31 1.53-.32.71-.92 1.22-.6.5-1.48.79-.89.29-2.02.29h-4.91z"/></svg>