<svg xmlns="http://www.w3.org/2000/svg" width="100" height="100" viewBox="0 0 100 100"><rect width="100%" height="100%" fill="#dc2626"/><path fill="#ffffff" d="M28.635 49.16h4.03q1.83 0 3.18-.46 1.36-.45 2.24-1.26.87-.8 1.3-1.91.44-1.1.44-2.42 0-2.64-1.74-4.06-1.74-1.41-5.32-1.41h-4.13zm11.95 5.37 8.69 12.82h-5.83q-1.66 0-2.4-1.3l-7.3-11.11q-.4-.62-.9-.89-.49-.26-1.45-.26h-2.76v13.56h-6.45v-34.7h10.58q3.53 0 6.06.73t4.15 2.05 2.39 3.16q.77 1.83.77 4.04 0 1.75-.52 3.31-.51 1.56-1.49 2.83-.97 1.28-2.4 2.24-1.42.96-3.25 1.51.63.36 1.15.85.53.49.96 1.16m18.92-4.44h4.82q1.78 0 3.1-.44t2.19-1.27q.88-.83 1.31-2.02t.43-2.65q0-1.39-.43-2.52t-1.3-1.92q-.86-.79-2.18-1.21t-3.12-.42h-4.82zm-6.46-17.44h11.28q3.48 0 6.02.81 2.55.82 4.2 2.28 1.66 1.47 2.46 3.51.81 2.04.81 4.46 0 2.52-.84 4.62t-2.52 3.61-4.21 2.35q-2.54.84-5.92.84h-4.82v12.22h-6.46z"/></svg>