<svg xmlns="http://www.w3.org/2000/svg" width="100" height="100" viewBox="0 0 100 100"><rect width="100%" height="100%" fill="#dc2626"/><path fill="#ffffff" d="M23.525 49.615h1.85q.83 0 1.46-.21.62-.21 1.02-.57.4-.37.6-.88.2-.5.2-1.11 0-1.21-.8-1.86t-2.44-.65h-1.89zm5.48 2.47 3.98 5.87h-2.67q-.76 0-1.1-.59l-3.35-5.1q-.18-.28-.41-.4t-.67-.12h-1.26v6.21h-2.96v-15.91h4.85q1.62 0 2.78.34t1.9.94q.75.61 1.1 1.45t.35 1.85q0 .8-.24 1.52-.23.71-.68 1.3-.45.58-1.1 1.02t-1.49.69q.29.17.53.39.24.23.44.54m8.67-2.47h1.84q.84 0 1.46-.21t1.02-.57q.41-.37.6-.88.2-.5.2-1.11 0-1.21-.8-1.86-.79-.65-2.43-.65h-1.89zm5.47 2.47 3.99 5.87h-2.68q-.76 0-1.1-.59l-3.34-5.1q-.19-.28-.41-.4-.23-.12-.67-.12h-1.26v6.21h-2.96v-15.91h4.85q1.61 0 2.78.34 1.16.34 1.9.94.74.61 1.09 1.45t.35 1.85q0 .8-.23 1.52-.24.71-.68 1.3-.45.58-1.1 1.02-.66.44-1.49.69.28.17.52.39.25.23.44.54m8.68-10.04v15.91h-2.97v-15.91zm6.51 13.47h6.36v2.44h-9.31v-15.91h2.95zm21.1-13.47-5.79 9.75v6.16h-2.95v-6.16l-5.8-9.75h2.61q.38 0 .61.19.22.19.38.47l2.9 5.32q.25.47.45.89.19.42.34.83.15-.41.33-.83.19-.42.43-.89l2.9-5.32q.12-.24.36-.45t.61-.21z"/></svg>