<svg xmlns="http://www.w3.org/2000/svg" width="100" height="100" viewBox="0 0 100 100"><rect width="100%" height="100%" fill="#dc2626"/><path fill="#ffffff" d="M46.26 33.735v4.97h-9.81v27.56h-6.06v-27.56h-9.81v-4.97zm33.16 16.26q0 3.58-1.19 6.57t-3.35 5.16q-2.16 2.16-5.2 3.35t-6.75 1.19h-12.4v-32.53h12.4q3.71 0 6.75 1.2t5.2 3.35 3.35 5.14q1.19 3 1.19 6.57m-6.21 0q0-2.68-.71-4.8-.71-2.13-2.04-3.6-1.34-1.47-3.24-2.26-1.91-.79-4.29-.79h-6.32v22.91h6.32q2.38 0 4.29-.79 1.9-.79 3.24-2.26 1.33-1.48 2.04-3.6.71-2.13.71-4.81"/></svg>