<svg xmlns="http://www.w3.org/2000/svg" width="100" height="100" viewBox="0 0 100 100"><rect width="100%" height="100%" fill="#dc2626"/><path fill="#ffffff" d="M39.69 37.71v3.75h-7.41v20.83h-4.57V41.46h-7.42v-3.75zm18.74 3.64H47.51v7.27h9.22v3.66h-9.22v10.01h-4.59V37.71h15.51zm8.31 8.72h3.42q1.25 0 2.19-.32.93-.31 1.55-.9t.93-1.43.31-1.88q0-.98-.31-1.78t-.92-1.36-1.54-.86q-.94-.3-2.21-.3h-3.42zm-4.57-12.36h7.99q2.46 0 4.26.58 1.8.57 2.98 1.61 1.17 1.04 1.74 2.48.57 1.45.57 3.16 0 1.79-.6 3.28-.59 1.48-1.78 2.56-1.19 1.07-2.98 1.66-1.8.6-4.19.6h-3.42v8.65h-4.57z"/></svg>