<svg xmlns="http://www.w3.org/2000/svg" width="100" height="100" viewBox="0 0 100 100"><rect width="100%" height="100%" fill="#dc2626"/><path fill="#ffffff" d="M37.08 39.515v3.21h-6.32v17.76h-3.9v-17.76h-6.32v-3.21zm16.52 0h3.91v20.97H53.6v-9.16h-9.85v9.16h-3.91v-20.97h3.91v9.02h9.85zm18.9 10.46h6.96v8.48q-1.59 1.17-3.4 1.72-1.8.54-3.86.54-2.57 0-4.65-.8-2.08-.79-3.55-2.21-1.47-1.43-2.27-3.4t-.8-4.3q0-2.37.77-4.34t2.18-3.39q1.42-1.42 3.43-2.21 2.02-.78 4.53-.78 1.27 0 2.38.2 1.11.21 2.06.56.95.36 1.73.87.79.5 1.44 1.11l-1.12 1.77q-.26.42-.68.52-.42.09-.91-.22-.48-.27-.96-.55-.48-.27-1.06-.47-.59-.21-1.32-.34-.74-.13-1.69-.13-1.56 0-2.81.52-1.25.53-2.14 1.5-.88.97-1.36 2.33t-.48 3.05q0 1.79.52 3.21.51 1.41 1.45 2.39.93.98 2.25 1.49 1.32.52 2.94.52 1.16 0 2.08-.25.91-.24 1.78-.66v-3.8H73.3q-.38 0-.59-.21t-.21-.52z"/></svg>