<svg xmlns="http://www.w3.org/2000/svg" width="100" height="100" viewBox="0 0 100 100"><rect width="100%" height="100%" fill="#dc2626"/><path fill="#ffffff" d="M34.615 40.13v2.98h-5.88v16.54h-3.63V43.11h-5.89v-2.98zm10.01 0v12.58q0 1.65-.41 2.97-.4 1.32-1.21 2.26-.8.93-2 1.43t-2.8.5q-.72 0-1.43-.09-.7-.09-1.47-.28.04-.54.1-1.08.05-.54.09-1.08.04-.3.24-.48.19-.18.56-.18.23 0 .6.09.37.1.94.1.77 0 1.36-.22.59-.23.99-.71.4-.49.6-1.26.21-.78.21-1.89V40.13zm16.47 2.89h-8.67v5.78h7.32v2.9h-7.32v7.95h-3.65V40.13h12.32zm7.07 9.26h6.21l-2.38-6.49q-.17-.44-.36-1.03t-.38-1.28q-.17.69-.36 1.29t-.37 1.04zm4.96-12.15 7.66 19.52h-2.8q-.48 0-.77-.24-.3-.23-.45-.58l-1.46-3.99h-8.08l-1.46 3.99q-.11.31-.42.56-.31.26-.77.26h-2.84l7.69-19.52z"/></svg>