<svg xmlns="http://www.w3.org/2000/svg" width="100" height="100" viewBox="0 0 100 100"><rect width="100%" height="100%" fill="#dc2626"/><path fill="#ffffff" d="M29.115 43.855v1.88h-3.7v10.41h-2.29v-10.41h-3.71v-1.88zm3.9 0v5.15h.54q.32 0 .53-.09.22-.09.37-.28l3.39-4.3q.21-.27.45-.37.23-.11.59-.11h1.97l-4.14 5.11q-.36.46-.76.66.29.1.51.29.23.18.43.48l4.27 5.75h-2.02q-.41 0-.61-.11-.2-.12-.33-.34l-3.48-4.54q-.16-.23-.37-.32-.21-.1-.61-.1h-.73v5.41h-2.28v-12.29zm23.93 0h1.79l-3.81 12.29h-2.07l-2.68-8.4q-.11-.3-.21-.75-.05.22-.1.4-.05.19-.11.35l-2.71 8.4h-2.08l-3.8-12.29h1.91q.3 0 .5.14t.26.38l2.1 7.35.13.59q.06.32.13.67.07-.36.15-.67.08-.32.17-.59l2.42-7.35q.06-.2.26-.36t.49-.16h.67q.3 0 .49.14.19.15.28.38l2.4 7.35q.18.53.33 1.22.11-.68.24-1.22l2.09-7.35q.06-.22.26-.37.21-.15.5-.15m11.89 0v1.88h-3.7v10.41h-2.29v-10.41h-3.71v-1.88zm7.67 6.13h4.08v4.97q-.94.69-1.99 1.01-1.06.32-2.27.32-1.5 0-2.72-.47t-2.09-1.3q-.86-.84-1.33-1.99-.46-1.16-.46-2.53 0-1.38.45-2.54.45-1.15 1.28-1.99.83-.83 2.01-1.29t2.65-.46q.75 0 1.4.12t1.2.33q.56.21 1.02.5.46.3.84.66l-.65 1.04q-.16.24-.4.3-.25.05-.54-.13l-.56-.32q-.28-.16-.62-.28-.35-.12-.78-.19-.43-.08-.99-.08-.91 0-1.64.31-.74.3-1.26.87-.51.57-.8 1.37-.28.8-.28 1.78 0 1.06.31 1.89.3.83.85 1.4.54.57 1.32.88.77.3 1.72.3.68 0 1.22-.15.53-.14 1.04-.39v-2.23h-1.54q-.22 0-.35-.12-.12-.12-.12-.3z"/></svg>