<svg xmlns="http://www.w3.org/2000/svg" width="100" height="100" viewBox="0 0 100 100"><rect width="100%" height="100%" fill="#dc2626"/><path fill="#ffffff" d="M29.185 43.5v1.98h-3.93v11.03h-2.42V45.48h-3.92V43.5zm4.13 11.01h5.2v2h-7.62V43.5h2.42zM52.655 50q0 1.43-.48 2.65-.47 1.22-1.33 2.11-.87.89-2.08 1.39-1.22.5-2.7.5t-2.69-.5q-1.22-.5-2.09-1.39-.86-.89-1.34-2.11t-.48-2.65.48-2.65 1.34-2.11q.87-.89 2.09-1.39 1.21-.5 2.69-.5.99 0 1.86.23.88.23 1.6.65.73.42 1.31 1.02.58.59.99 1.33.4.74.62 1.6.21.87.21 1.82m-2.48 0q0-1.07-.29-1.92-.28-.85-.81-1.44-.54-.6-1.3-.91-.76-.32-1.71-.32t-1.72.32q-.76.31-1.29.91-.54.59-.82 1.44-.29.85-.29 1.92t.29 1.92q.28.85.82 1.44.53.59 1.29.91.77.31 1.72.31t1.71-.31q.76-.32 1.3-.91.53-.59.81-1.44.29-.85.29-1.92m16.9-6.5h1.82v13.01h-2.13V48.1q0-.5.05-1.09l-3.93 7.39q-.28.53-.85.53h-.35q-.57 0-.85-.53l-3.98-7.41q.03.29.05.58.01.29.01.53v8.41h-2.13V43.5h2.11q.11.01.21.05.09.04.17.12t.15.21l3.89 7.23q.16.29.29.59.13.31.25.63.13-.33.27-.64.13-.31.28-.6l3.85-7.21q.07-.13.15-.21t.17-.12q.1-.04.22-.05zm7.14 6.54h1.81q.67 0 1.16-.17.5-.16.83-.47.32-.32.49-.76.16-.45.16-1 0-.52-.16-.94-.17-.42-.49-.72t-.82-.45q-.49-.16-1.17-.16h-1.81zm-2.42-6.54h4.23q1.31 0 2.26.3.95.31 1.57.86.63.55.93 1.31.3.77.3 1.67 0 .95-.32 1.74-.31.78-.94 1.35t-1.58.88q-.95.32-2.22.32h-1.81v4.58h-2.42z"/></svg>