<svg xmlns="http://www.w3.org/2000/svg" width="100" height="100" viewBox="0 0 100 100"><rect width="100%" height="100%" fill="#dc2626"/><path fill="#ffffff" d="M37.91 38.425v3.54h-6.98v19.6h-4.3v-19.6h-6.98v-3.54zm25.1 11.57q0 2.55-.84 4.71-.84 2.17-2.38 3.76-1.53 1.58-3.69 2.47t-4.8.89q-2.63 0-4.79-.89t-3.7-2.47q-1.54-1.59-2.39-3.76-.85-2.16-.85-4.71 0-2.54.85-4.71t2.39-3.75q1.54-1.59 3.7-2.47 2.16-.89 4.79-.89 1.76 0 3.31.41 1.55.4 2.85 1.15 1.29.74 2.33 1.81 1.03 1.06 1.75 2.37t1.09 2.85q.38 1.54.38 3.23m-4.4 0q0-1.9-.51-3.41-.51-1.52-1.46-2.57-.94-1.06-2.29-1.62-1.36-.56-3.05-.56-1.7 0-3.05.56t-2.3 1.62q-.96 1.05-1.47 2.57-.51 1.51-.51 3.41 0 1.91.51 3.42t1.47 2.56q.95 1.05 2.3 1.61t3.05.56q1.69 0 3.05-.56 1.35-.56 2.29-1.61.95-1.05 1.46-2.56t.51-3.42m12.5 8.02h9.24v3.55H66.8v-23.14h4.31z"/></svg>