<svg xmlns="http://www.w3.org/2000/svg" width="100" height="100" viewBox="0 0 100 100"><rect width="100%" height="100%" fill="#dc2626"/><path fill="#ffffff" d="M38.155 38.795v3.42h-6.75v18.99h-4.17v-18.99h-6.76v-3.42zm24.32 11.2q0 2.47-.81 4.57t-2.3 3.63q-1.49 1.54-3.58 2.4t-4.65.86q-2.54 0-4.64-.86-2.09-.86-3.58-2.4-1.5-1.53-2.32-3.63t-.82-4.57q0-2.46.82-4.56t2.32-3.64q1.49-1.53 3.58-2.39 2.1-.86 4.64-.86 1.7 0 3.21.39 1.5.4 2.76 1.12 1.25.72 2.25 1.75t1.7 2.3 1.06 2.76.36 3.13m-4.26 0q0-1.84-.49-3.31-.5-1.46-1.41-2.48-.92-1.03-2.23-1.57t-2.95-.54-2.95.54-2.24 1.57q-.92 1.02-1.41 2.48-.5 1.47-.5 3.31 0 1.85.5 3.31.49 1.47 1.41 2.48.93 1.02 2.24 1.56t2.95.54 2.95-.54 2.23-1.56q.91-1.01 1.41-2.48.49-1.46.49-3.31m20.91-9.09-1.04 1.96q-.18.33-.39.48-.21.14-.52.14-.33 0-.71-.24t-.9-.53q-.53-.3-1.24-.54-.7-.24-1.66-.24-.87 0-1.52.21t-1.09.58q-.45.38-.66.9-.22.51-.22 1.13 0 .8.44 1.32.44.53 1.17.9t1.66.67q.93.29 1.91.63.97.33 1.9.77t1.66 1.12q.73.67 1.17 1.65.44.97.44 2.37 0 1.52-.51 2.84-.52 1.33-1.52 2.31-1 .99-2.45 1.55-1.44.57-3.3.57-1.07 0-2.1-.21-1.04-.21-2-.6-.95-.39-1.79-.93-.83-.54-1.48-1.21l1.22-2q.15-.21.4-.36t.53-.15q.39 0 .84.32t1.07.71q.62.38 1.45.7.82.32 1.99.32 1.78 0 2.76-.85.97-.84.97-2.42 0-.89-.44-1.44-.44-.56-1.17-.94t-1.66-.65q-.93-.26-1.89-.57t-1.89-.74q-.93-.44-1.66-1.13-.73-.7-1.17-1.75-.44-1.04-.44-2.58 0-1.22.49-2.39.49-1.16 1.42-2.06t2.29-1.44 3.13-.54q1.99 0 3.66.62t2.85 1.74"/></svg>