<svg xmlns="http://www.w3.org/2000/svg" width="100" height="100" viewBox="0 0 100 100"><rect width="100%" height="100%" fill="#dc2626"/><path fill="#ffffff" d="M38.675 38.07v3.65h-7.19v20.21h-4.44V41.72h-7.2v-3.65zm16.95 2.24-1.11 2.1q-.2.35-.42.5-.22.16-.55.16-.35 0-.75-.26-.41-.25-.97-.56-.56-.32-1.31-.57-.75-.26-1.77-.26-.93 0-1.62.22-.69.23-1.16.62-.48.4-.71.95t-.23 1.21q0 .85.47 1.41t1.25.95q.77.4 1.76.71.99.32 2.03.67 1.04.36 2.03.83t1.77 1.18q.77.72 1.24 1.76t.47 2.53q0 1.61-.55 3.02t-1.61 2.46q-1.07 1.05-2.6 1.65-1.54.6-3.52.6-1.14 0-2.24-.22-1.11-.22-2.12-.63-1.02-.42-1.91-.99-.89-.58-1.58-1.29l1.3-2.13q.17-.23.43-.39.26-.15.56-.15.41 0 .89.33.48.34 1.14.75.66.42 1.54.76.89.33 2.12.33 1.9 0 2.94-.9 1.04-.89 1.04-2.58 0-.94-.47-1.53-.47-.6-1.25-1-.77-.4-1.76-.69-.99-.28-2.01-.61-1.03-.33-2.02-.79t-1.76-1.2q-.78-.74-1.25-1.86-.47-1.11-.47-2.75 0-1.3.52-2.54.52-1.23 1.51-2.19t2.44-1.54q1.45-.57 3.34-.57 2.11 0 3.89.66t3.04 1.84m8.72-2.24v10h1.04q.63 0 1.04-.17.42-.18.71-.56l6.59-8.33q.41-.53.86-.73.46-.21 1.15-.21h3.83l-8.04 9.92q-.71.9-1.47 1.28.55.2.99.56.43.35.83.93l8.28 11.17h-3.91q-.79 0-1.18-.22-.39-.23-.65-.65l-6.75-8.82q-.31-.44-.73-.62-.41-.18-1.18-.18h-1.41v10.49h-4.43V38.07z"/></svg>