<svg xmlns="http://www.w3.org/2000/svg" width="100" height="100" viewBox="0 0 100 100"><rect width="100%" height="100%" fill="#dc2626"/><path fill="#ffffff" d="M39.99 37.71v3.75h-7.41v20.83H28V41.46h-7.41v-3.75zm17.46 2.31-1.14 2.16q-.2.36-.43.52t-.57.16q-.36 0-.78-.26-.41-.27-.99-.59t-1.35-.59q-.78-.26-1.83-.26-.95 0-1.67.23-.71.23-1.2.64-.48.4-.72.97t-.24 1.25q0 .87.49 1.45.48.58 1.28.98.8.41 1.82.73 1.02.33 2.09.69 1.07.37 2.09.85 1.02.49 1.82 1.23t1.29 1.81q.48 1.07.48 2.6 0 1.66-.57 3.12-.57 1.45-1.67 2.53-1.09 1.08-2.67 1.7t-3.62.62q-1.18 0-2.32-.23-1.13-.23-2.18-.65-1.05-.43-1.96-1.02-.92-.6-1.64-1.33l1.35-2.19q.17-.24.44-.4t.58-.16q.42 0 .92.35.49.34 1.17.77.68.42 1.59.77t2.18.35q1.96 0 3.03-.92 1.07-.93 1.07-2.67 0-.96-.49-1.58-.48-.61-1.28-1.02-.8-.42-1.82-.71t-2.07-.63q-1.06-.34-2.08-.82-1.02-.47-1.81-1.24-.8-.76-1.29-1.91-.48-1.15-.48-2.83 0-1.34.53-2.62.54-1.27 1.56-2.26 1.02-.98 2.51-1.58 1.5-.59 3.44-.59 2.17 0 4.01.68t3.13 1.9m8.99 10.05h3.42q1.26 0 2.19-.32.94-.31 1.56-.9t.92-1.43q.31-.84.31-1.88 0-.98-.31-1.78-.3-.8-.91-1.36-.62-.56-1.55-.86-.94-.3-2.21-.3h-3.42zm-4.57-12.36h7.99q2.46 0 4.27.58 1.8.57 2.97 1.61t1.74 2.48q.57 1.45.57 3.16 0 1.79-.59 3.28-.6 1.48-1.79 2.56-1.19 1.07-2.98 1.66-1.79.6-4.19.6h-3.42v8.65h-4.57z"/></svg>