<svg xmlns="http://www.w3.org/2000/svg" width="100" height="100" viewBox="0 0 100 100"><rect width="100%" height="100%" fill="#dc2626"/><path fill="#ffffff" d="M33.63 41.325v2.65H28.4v14.7h-3.23v-14.7h-5.23v-2.65zm14.4 0v2.65H42.8v14.7h-3.23v-14.7h-5.23v-2.65zm18.83 8.67q0 1.91-.63 3.54-.63 1.62-1.78 2.81t-2.77 1.86q-1.62.66-3.6.66-1.97 0-3.59-.66-1.62-.67-2.78-1.86t-1.79-2.81q-.64-1.63-.64-3.54 0-1.9.64-3.53.63-1.63 1.79-2.81 1.16-1.19 2.78-1.86 1.62-.66 3.59-.66 1.32 0 2.48.3 1.17.31 2.14.87.97.55 1.74 1.35.78.8 1.32 1.78.54.99.82 2.14t.28 2.42m-3.3 0q0-1.42-.38-2.56-.39-1.13-1.09-1.92-.71-.8-1.73-1.22-1.01-.42-2.28-.42t-2.29.42q-1.01.42-1.73 1.22-.71.79-1.09 1.92-.39 1.14-.39 2.56 0 1.43.39 2.57.38 1.13 1.09 1.92.72.78 1.73 1.2 1.02.42 2.29.42t2.28-.42q1.02-.42 1.73-1.2.7-.79 1.09-1.92.38-1.14.38-2.57m16.19-7.04-.8 1.52q-.15.26-.31.37t-.4.11q-.25 0-.55-.18-.29-.19-.7-.42-.41-.22-.95-.41-.55-.19-1.29-.19-.68 0-1.18.17-.5.16-.85.45-.34.28-.51.69-.16.4-.16.88 0 .61.34 1.02t.9.69q.57.29 1.29.52t1.47.49q.76.25 1.48.6.72.34 1.28.86.57.52.91 1.28.34.75.34 1.83 0 1.18-.4 2.21-.4 1.02-1.18 1.78-.77.77-1.89 1.2-1.11.44-2.55.44-.83 0-1.63-.16-.81-.16-1.55-.46-.73-.3-1.38-.72t-1.15-.94l.94-1.55q.12-.16.32-.28.19-.11.4-.11.3 0 .65.24.35.25.83.55t1.12.55q.64.24 1.54.24 1.38 0 2.14-.65.76-.66.76-1.88 0-.68-.35-1.12-.34-.43-.9-.72-.57-.3-1.29-.5t-1.46-.44-1.46-.58-1.29-.88q-.56-.54-.9-1.35-.35-.81-.35-1.99 0-.95.38-1.85t1.1-1.6q.72-.69 1.78-1.11 1.05-.42 2.42-.42 1.54 0 2.83.48 1.3.48 2.21 1.34"/></svg>