<svg xmlns="http://www.w3.org/2000/svg" width="100" height="100" viewBox="0 0 100 100"><rect width="100%" height="100%" fill="#dc2626"/><path fill="#ffffff" d="M37.9 42.77h2.11l-4.5 14.46h-2.43l-3.16-9.88q-.13-.36-.24-.88-.05.25-.12.47-.06.22-.13.41l-3.19 9.88h-2.43l-4.48-14.46h2.24q.35 0 .59.17.23.16.31.44l2.47 8.65q.07.32.15.7.08.37.15.78.08-.42.18-.79.09-.37.2-.69l2.84-8.65q.08-.23.32-.42.23-.19.57-.19h.79q.35 0 .57.17t.33.44l2.84 8.65q.2.62.37 1.43.13-.79.29-1.43l2.47-8.65q.05-.25.3-.43t.59-.18M55.57 50q0 1.59-.52 2.94-.53 1.36-1.49 2.35t-2.31 1.54q-1.35.56-3 .56-1.64 0-2.99-.56-1.35-.55-2.31-1.54-.97-.99-1.5-2.35-.53-1.35-.53-2.94t.53-2.95q.53-1.35 1.5-2.34.96-.99 2.31-1.54 1.35-.56 2.99-.56 1.1 0 2.07.25.97.26 1.78.73.81.46 1.46 1.12.65.67 1.09 1.49.45.82.69 1.78.23.96.23 2.02m-2.75 0q0-1.19-.32-2.14-.32-.94-.91-1.6t-1.43-1.01q-.85-.35-1.91-.35t-1.9.35q-.85.35-1.44 1.01-.6.66-.92 1.6-.32.95-.32 2.14t.32 2.14q.32.94.92 1.59.59.66 1.44 1.01.84.35 1.9.35t1.91-.35q.84-.35 1.43-1.01.59-.65.91-1.59.32-.95.32-2.14m15.22-7.23v2.21h-4.35v12.25h-2.7V44.98h-4.36v-2.21zm4.59 12.36h2.72q.75 0 1.26-.18.52-.18.82-.48.31-.3.44-.7t.13-.85q0-.47-.15-.85-.14-.37-.47-.63-.32-.27-.82-.41-.51-.14-1.21-.14h-2.72zm2.29-10.28h-2.29v4.18h2.15q1.37 0 2.08-.5.7-.5.7-1.59 0-1.13-.64-1.61t-2-.48m-4.98-2.08h4.98q1.43 0 2.43.27 1.01.27 1.66.77.64.5.95 1.21.29.71.29 1.6 0 .51-.15.98-.14.46-.46.86-.32.41-.8.74-.49.33-1.16.56 2.99.67 2.99 3.22 0 .92-.36 1.7-.35.78-1.02 1.34-.66.57-1.65.89-.97.32-2.24.32h-5.46z"/></svg>