<svg xmlns="http://www.w3.org/2000/svg" width="100" height="100" viewBox="0 0 100 100"><rect width="100%" height="100%" fill="#dc2626"/><path fill="#ffffff" d="M35.49 43.855h1.79l-3.81 12.29H31.4l-2.68-8.4q-.12-.3-.21-.75-.05.22-.1.4-.05.19-.11.35l-2.71 8.4h-2.08l-3.8-12.29h1.91q.3 0 .5.14t.26.38l2.09 7.35q.07.27.14.59.06.32.13.67.07-.36.15-.67.08-.32.17-.59l2.41-7.35q.07-.2.27-.36t.49-.16h.67q.3 0 .49.14.18.15.28.38l2.4 7.35q.18.53.33 1.22.11-.68.24-1.22l2.09-7.35q.05-.22.26-.37t.5-.15m11.89 0v1.88h-3.7v10.41h-2.29v-10.41h-3.71v-1.88zm10.06 9.39q.18 0 .33.15l.9.97q-.75.93-1.84 1.42-1.09.5-2.62.5-1.37 0-2.46-.47-1.1-.47-1.87-1.3-.77-.84-1.19-1.99-.41-1.16-.41-2.53 0-1.38.44-2.53.45-1.15 1.25-1.99.8-.83 1.92-1.29 1.11-.47 2.46-.47 1.34 0 2.39.44 1.04.45 1.77 1.16l-.77 1.06q-.06.11-.17.18-.11.08-.29.08-.13 0-.27-.07-.13-.08-.3-.18-.16-.11-.37-.24-.21-.12-.49-.23t-.65-.18-.86-.07q-.82 0-1.51.29-.68.3-1.17.85-.5.56-.77 1.36-.27.81-.27 1.83 0 1.04.29 1.85.3.81.8 1.36t1.18.84q.68.3 1.46.3.47 0 .85-.05t.69-.16q.32-.12.61-.29.28-.17.56-.43.09-.08.18-.12.1-.05.2-.05m5.09-3.54h1.43q.64 0 1.12-.16.48-.17.79-.45.31-.29.47-.68.15-.39.15-.86 0-.93-.62-1.43-.61-.5-1.88-.5h-1.46zm4.23 1.9 3.08 4.54h-2.07q-.58 0-.85-.46l-2.58-3.93q-.15-.23-.32-.32t-.51-.09h-.98v4.8h-2.29v-12.29h3.75q1.25 0 2.15.26.89.26 1.47.72.57.47.84 1.12.28.65.28 1.43 0 .63-.19 1.18-.18.55-.52 1-.35.45-.85.79-.51.34-1.16.54.22.12.41.3.19.17.34.41m6.7 2.75h2.31q.64 0 1.07-.15.44-.15.7-.41.25-.25.37-.59.11-.34.11-.72 0-.4-.12-.72-.13-.32-.4-.55-.27-.22-.7-.34t-1.04-.12h-2.3zm1.95-8.73h-1.95v3.55h1.82q1.17 0 1.77-.43.6-.42.6-1.35 0-.96-.54-1.37-.55-.4-1.7-.4m-4.24-1.77h4.24q1.2 0 2.06.23t1.41.65q.55.43.8 1.03.26.6.26 1.36 0 .43-.13.83t-.4.74q-.26.34-.68.62-.41.28-.98.48 2.54.57 2.54 2.74 0 .78-.3 1.44-.3.67-.87 1.15t-1.4.75-1.91.27h-4.64z"/></svg>