<svg xmlns="http://www.w3.org/2000/svg" width="100" height="100" viewBox="0 0 100 100"><rect width="100%" height="100%" fill="#dc2626"/><path fill="#ffffff" d="m21.295 47.475-1.11-.2q.13-.88.49-1.55.37-.66.92-1.11t1.25-.67q.71-.23 1.53-.23.85 0 1.53.25.69.24 1.17.67.49.43.75 1 .26.58.26 1.25 0 .59-.14 1.04-.13.44-.37.77-.25.34-.62.56-.36.23-.82.39 1.11.35 1.65 1.06t.54 1.79q0 .92-.34 1.63-.34.7-.91 1.18-.58.48-1.34.73t-1.61.25q-.93 0-1.62-.22-.69-.21-1.2-.63-.51-.41-.86-1.02-.36-.6-.62-1.39l.93-.38q.37-.16.68-.08.32.07.47.34.15.3.33.59.19.29.44.51.26.23.6.37t.82.14q.54 0 .94-.18.39-.17.66-.45t.4-.63q.13-.34.13-.69 0-.44-.09-.8t-.39-.62q-.3-.25-.86-.4-.55-.14-1.49-.14v-1.5q.78-.01 1.29-.14.51-.14.81-.38t.42-.58.12-.75q0-.87-.49-1.32-.48-.45-1.29-.45-.37 0-.69.11-.31.1-.56.29-.25.2-.42.45-.17.26-.26.56-.14.39-.38.52-.23.13-.65.06m20.11 2.52q0 1.36-.45 2.49t-1.26 1.94q-.82.82-1.97 1.27-1.14.45-2.55.45h-4.68v-12.29h4.68q1.41 0 2.55.45 1.15.46 1.97 1.27.81.81 1.26 1.94t.45 2.48m-2.34 0q0-1.01-.27-1.81t-.77-1.36q-.51-.56-1.23-.85-.71-.3-1.62-.3h-2.38v8.65h2.38q.91 0 1.62-.3.72-.29 1.23-.85.5-.56.77-1.36t.27-1.82m12.94-6.14v1.88h-3.7v10.41h-2.29v-10.41h-3.7v-1.88zm10.2 0v1.88h-3.7v10.41h-2.29v-10.41h-3.7v-1.88zm16.18 0h1.79l-3.81 12.29h-2.07l-2.68-8.4q-.12-.3-.21-.75-.05.22-.1.4-.05.19-.11.35l-2.71 8.4h-2.08l-3.8-12.29h1.91q.3 0 .49.14.2.14.27.38l2.09 7.35q.07.27.14.59.06.32.13.67.07-.36.15-.67.08-.32.17-.59l2.41-7.35q.07-.2.27-.36t.49-.16h.67q.3 0 .49.14.18.15.28.38l2.4 7.35q.18.53.33 1.22.11-.68.24-1.22l2.09-7.35q.05-.22.26-.37t.5-.15"/></svg>