<svg xmlns="http://www.w3.org/2000/svg" width="100" height="100" viewBox="0 0 100 100"><rect width="100%" height="100%" fill="#dc2626"/><path fill="#ffffff" d="M33.78 42.365h-9.63v6.42h8.13v3.23h-8.13v8.83H20.1v-21.69h13.68zm23.98 7.64q0 2.38-.78 4.41-.79 2.04-2.23 3.52t-3.47 2.32q-2.02.83-4.5.83-2.46 0-4.48-.83-2.03-.84-3.47-2.32-1.45-1.48-2.25-3.52-.79-2.03-.79-4.41 0-2.39.79-4.42.8-2.03 2.25-3.52 1.44-1.49 3.47-2.32 2.02-.83 4.48-.83 1.65 0 3.11.38 1.45.39 2.67 1.08 1.21.7 2.18 1.7t1.64 2.23q.68 1.23 1.03 2.66.35 1.45.35 3.04m-4.12 0q0-1.79-.48-3.21-.48-1.41-1.37-2.4-.88-1-2.15-1.52-1.27-.53-2.86-.53t-2.86.53q-1.26.52-2.15 1.52-.9.99-1.38 2.4-.48 1.42-.48 3.21 0 1.78.48 3.2t1.38 2.4q.89.98 2.15 1.51 1.27.52 2.86.52t2.86-.52q1.27-.53 2.15-1.51.89-.98 1.37-2.4t.48-3.2m12.24 2.65h6.9l-2.64-7.21q-.2-.48-.41-1.14t-.42-1.43q-.19.77-.4 1.43-.21.67-.41 1.16zm5.5-13.5 8.52 21.69h-3.12q-.52 0-.85-.26-.33-.27-.5-.65l-1.62-4.43h-8.98l-1.62 4.43q-.12.34-.47.63-.34.28-.85.28h-3.15l8.53-21.69z"/></svg>