<svg xmlns="http://www.w3.org/2000/svg" width="100" height="100" viewBox="0 0 100 100"><rect width="100%" height="100%" fill="#dc2626"/><path fill="#ffffff" d="M33.04 41.325h3.24v17.35h-3.24v-7.58h-8.15v7.58h-3.24v-17.35h3.24v7.46h8.15zm23.65 8.67q0 1.91-.63 3.54-.63 1.62-1.78 2.81t-2.77 1.86q-1.62.66-3.6.66-1.97 0-3.59-.66-1.62-.67-2.78-1.86t-1.79-2.81q-.64-1.63-.64-3.54 0-1.9.64-3.53.63-1.63 1.79-2.81 1.16-1.19 2.78-1.86 1.62-.66 3.59-.66 1.32 0 2.48.3 1.16.31 2.14.87.97.55 1.74 1.35.78.8 1.32 1.78.54.99.82 2.14t.28 2.42m-3.3 0q0-1.42-.38-2.56-.39-1.13-1.1-1.92-.7-.8-1.72-1.22-1.01-.42-2.28-.42-1.28 0-2.29.42t-1.73 1.22q-.71.79-1.1 1.92-.38 1.14-.38 2.56 0 1.43.38 2.57.39 1.13 1.1 1.92.72.78 1.73 1.2t2.29.42q1.27 0 2.28-.42 1.02-.42 1.72-1.2.71-.79 1.1-1.92.38-1.14.38-2.57m22.52-8.67h2.44v17.35h-2.84v-11.21q0-.67.07-1.45l-5.25 9.85q-.37.71-1.14.71h-.45q-.77 0-1.14-.71l-5.31-9.89q.04.4.06.78.03.39.03.71v11.21h-2.85v-17.35h2.44q.22 0 .37.01.16.01.28.06.13.05.23.16.1.1.2.28l5.2 9.64q.2.38.37.79.18.41.35.84.16-.44.34-.86.18-.41.39-.79l5.12-9.62q.1-.18.21-.28.1-.11.23-.16t.28-.06q.16-.01.37-.01"/></svg>