<svg xmlns="http://www.w3.org/2000/svg" width="100" height="100" viewBox="0 0 100 100"><rect width="100%" height="100%" fill="#dc2626"/><path fill="#ffffff" d="M23.285 43.13v13.74h-2.56V43.13zm11.02 1.29-.63 1.21q-.12.2-.24.29-.13.09-.32.09-.2 0-.43-.15-.24-.14-.56-.32t-.76-.33q-.43-.15-1.02-.15-.53 0-.93.13t-.67.36q-.27.22-.4.54t-.13.7q0 .48.27.81.27.32.71.55.45.23 1.02.41t1.17.38q.6.21 1.17.48t1.01.68q.45.41.72 1.01t.27 1.46q0 .93-.32 1.74-.31.81-.93 1.42-.61.6-1.49.95-.89.34-2.03.34-.65 0-1.29-.13-.64-.12-1.22-.36t-1.1-.57q-.51-.33-.91-.74l.75-1.23q.1-.13.25-.22t.32-.09q.24 0 .51.19.28.2.66.44.38.23.89.43.51.19 1.22.19 1.09 0 1.69-.52.6-.51.6-1.48 0-.54-.27-.89-.27-.34-.72-.57t-1.02-.39q-.57-.17-1.16-.36-.58-.19-1.15-.45-.57-.27-1.02-.7-.45-.42-.72-1.06-.27-.65-.27-1.59 0-.75.3-1.46t.87-1.26 1.41-.89q.83-.33 1.91-.33 1.22 0 2.25.38 1.02.38 1.74 1.06m9.24 5.56h4.56v5.56q-1.05.77-2.23 1.13-1.18.35-2.53.35-1.68 0-3.05-.52-1.36-.52-2.32-1.45-.97-.93-1.49-2.23-.52-1.29-.52-2.82 0-1.55.5-2.84t1.43-2.22 2.25-1.45q1.32-.51 2.96-.51.84 0 1.56.13.73.14 1.35.37.63.23 1.14.57.51.33.94.73l-.73 1.16q-.17.27-.45.33-.27.06-.6-.13-.31-.19-.62-.37-.32-.18-.7-.31-.39-.13-.87-.22-.48-.08-1.1-.08-1.02 0-1.84.34t-1.4.98q-.58.63-.9 1.53-.31.89-.31 1.99 0 1.18.34 2.11.33.92.95 1.56.61.64 1.47.98.87.34 1.93.34.76 0 1.36-.16t1.17-.44V51.9h-1.73q-.25 0-.38-.14-.14-.13-.14-.33zm14.98-5.56-.64 1.21q-.11.2-.24.29t-.32.09q-.2 0-.43-.15-.23-.14-.55-.32-.33-.18-.76-.33t-1.02-.15q-.53 0-.93.13t-.67.36q-.27.22-.41.54-.13.32-.13.7 0 .48.27.81.27.32.72.55t1.02.41 1.16.38q.6.21 1.17.48t1.02.68.72 1.01.27 1.46q0 .93-.32 1.74t-.93 1.42q-.61.6-1.5.95-.88.34-2.02.34-.66 0-1.29-.13-.64-.12-1.22-.36-.59-.24-1.1-.57t-.91-.74l.75-1.23q.09-.13.24-.22.16-.09.33-.09.23 0 .51.19.28.2.66.44.38.23.88.43.51.19 1.22.19 1.1 0 1.7-.52.59-.51.59-1.48 0-.54-.27-.89-.27-.34-.71-.57-.45-.23-1.02-.39-.57-.17-1.16-.36t-1.16-.45q-.57-.27-1.02-.7-.44-.42-.71-1.06-.27-.65-.27-1.59 0-.75.3-1.46t.87-1.26 1.4-.89q.84-.33 1.92-.33 1.22 0 2.24.38 1.03.38 1.75 1.06m18.74-1.29h2.01l-4.27 13.74h-2.31l-3-9.39q-.12-.34-.23-.83-.05.24-.11.44-.06.21-.12.39l-3.03 9.39h-2.32l-4.26-13.74h2.14q.33 0 .56.16.22.16.29.42l2.34 8.22q.08.3.15.66t.15.75q.07-.4.16-.75.09-.36.2-.66l2.7-8.22q.07-.22.29-.4.23-.18.55-.18h.75q.33 0 .54.16.21.17.32.42l2.68 8.22q.2.59.37 1.36.12-.75.27-1.36l2.34-8.22q.06-.23.29-.41.23-.17.55-.17"/></svg>