<svg xmlns="http://www.w3.org/2000/svg" width="100" height="100" viewBox="0 0 100 100"><rect width="100%" height="100%" fill="#dc2626"/><path fill="#ffffff" d="m32.68 42.41-5.53 9.3v5.88h-2.81v-5.88l-5.54-9.3h2.49q.37 0 .59.18.21.17.36.45l2.77 5.07q.24.45.42.85.19.4.34.8.13-.4.31-.8t.41-.85l2.76-5.07q.12-.23.35-.43t.59-.2zm11.99 11.6q.23 0 .4.18l1.12 1.21q-.93 1.14-2.28 1.75-1.34.61-3.23.61-1.7 0-3.04-.58-1.35-.58-2.31-1.61-.95-1.03-1.46-2.45-.51-1.43-.51-3.12 0-1.71.54-3.14.55-1.42 1.54-2.45t2.37-1.6q1.37-.57 3.04-.57 1.66 0 2.95.54 1.29.55 2.19 1.43l-.95 1.32q-.08.12-.21.22-.13.09-.36.09-.16 0-.33-.09t-.37-.22-.46-.29-.61-.29q-.34-.13-.8-.22t-1.06-.09q-1.02 0-1.86.37-.85.36-1.45 1.05-.61.68-.95 1.68-.34.99-.34 2.26 0 1.28.37 2.28.36.99.98 1.68.62.68 1.46 1.04t1.8.36q.58 0 1.05-.06t.86-.2.75-.35q.35-.22.69-.53.11-.1.22-.15.12-.06.25-.06m6.29 1.37h2.85q.79 0 1.32-.18.54-.19.86-.51.32-.31.46-.73t.14-.9q0-.49-.15-.88-.16-.4-.5-.67-.33-.28-.86-.43t-1.28-.15h-2.84zm2.4-10.79h-2.4v4.39h2.24q1.45 0 2.19-.52.74-.53.74-1.67 0-1.19-.67-1.7-.67-.5-2.1-.5m-5.23-2.18h5.23q1.49 0 2.55.28t1.74.81q.68.52.99 1.27.32.74.32 1.68 0 .53-.16 1.02t-.49.92q-.33.42-.84.77-.51.34-1.21.59 3.13.7 3.13 3.38 0 .96-.37 1.78t-1.07 1.41q-.71.6-1.73.93-1.03.34-2.36.34h-5.73zm16.66 0v15.18h-2.83V42.41zm6.59 9.45h4.83l-1.85-5.05q-.14-.34-.28-.8-.15-.46-.3-1-.13.54-.28 1-.15.47-.29.82zm3.85-9.45 5.97 15.18h-2.19q-.37 0-.6-.18-.23-.19-.34-.46l-1.14-3.1h-6.29l-1.13 3.1q-.09.24-.33.44t-.6.2h-2.2l5.97-15.18z"/></svg>