<svg xmlns="http://www.w3.org/2000/svg" width="100" height="100" viewBox="0 0 100 100"><rect width="100%" height="100%" fill="#dc2626"/><path fill="#ffffff" d="M30.335 43.13v2.1h-4.14v11.64h-2.55V45.23h-4.15v-2.1zm4.37 0v13.74h-2.56V43.13zm16.04 0h1.93v13.74h-2.25V48q0-.53.05-1.15l-4.15 7.8q-.29.56-.9.56h-.36q-.61 0-.9-.56l-4.2-7.83.04.62q.02.3.02.56v8.87h-2.25V43.13h1.93q.17 0 .29.01.13.01.23.05t.18.12q.08.09.15.23l4.12 7.63q.16.3.3.63.14.32.27.66.13-.35.27-.68.15-.33.31-.63l4.05-7.61q.08-.14.17-.23.08-.08.18-.12t.22-.05q.13-.01.3-.01m7.87 8.55h4.37l-1.67-4.57q-.12-.3-.25-.72-.14-.42-.27-.9-.12.48-.26.91-.13.42-.25.73zm3.49-8.55 5.4 13.74h-1.98q-.33 0-.54-.17-.21-.16-.31-.41l-1.03-2.8h-5.69l-1.03 2.8q-.07.22-.29.4t-.54.18h-2l5.41-13.74zm15.84 0h2.56v13.74h-2.56v-6h-6.45v6h-2.57V43.13h2.57v5.91h6.45z"/></svg>