<svg xmlns="http://www.w3.org/2000/svg" width="100" height="100" viewBox="0 0 100 100"><rect width="100%" height="100%" fill="#dc2626"/><path fill="#ffffff" d="M28.14 41.23v11.18q0 1.47-.36 2.64-.36 1.18-1.08 2.01-.71.82-1.78 1.27-1.07.44-2.48.44-.65 0-1.28-.08-.62-.07-1.3-.24.03-.48.08-.96t.08-.96q.04-.27.21-.43.18-.16.5-.16.21 0 .54.08.33.09.83.09.68 0 1.21-.2t.88-.63q.36-.43.54-1.12t.18-1.68V41.23zm24.25 0h2.53l-5.39 17.35h-2.91l-3.8-11.86q-.15-.43-.28-1.05l-.15.56q-.07.27-.15.49l-3.83 11.86h-2.93L30.1 41.23h2.7q.42 0 .71.2.28.19.37.53l2.96 10.38q.09.38.18.83l.19.95q.09-.51.21-.95.11-.45.24-.83l3.41-10.38q.1-.28.38-.5.28-.23.69-.23h.95q.42 0 .68.2.27.21.4.53l3.39 10.38q.26.74.46 1.72.16-.95.35-1.72l2.95-10.38q.07-.3.37-.52.29-.21.7-.21m25.22 0h2.53l-5.38 17.35h-2.92l-3.79-11.86q-.16-.43-.29-1.05-.07.3-.14.56-.08.27-.16.49l-3.83 11.86H60.7l-5.37-17.35h2.7q.42 0 .7.2.28.19.38.53l2.95 10.38q.1.38.19.83t.18.95q.1-.51.21-.95.12-.45.25-.83l3.41-10.38q.09-.28.37-.5.29-.23.69-.23h.95q.42 0 .69.2.26.21.39.53l3.4 10.38q.25.74.45 1.72.16-.95.35-1.72l2.95-10.38q.08-.3.37-.52.29-.21.7-.21"/></svg>