<svg xmlns="http://www.w3.org/2000/svg" width="100" height="100" viewBox="0 0 100 100"><rect width="100%" height="100%" fill="#dc2626"/><path fill="#ffffff" d="M30.295 44.58h1.52v10.84h-1.78v-7q0-.42.05-.91l-3.28 6.16q-.23.44-.71.44h-.29q-.48 0-.71-.44l-3.32-6.18q.03.24.04.48.02.24.02.45v7h-1.78V44.58h1.75q.1.01.18.04t.14.1q.07.07.13.18l3.24 6.02q.13.24.24.5.11.25.21.52.11-.28.22-.54.11-.25.24-.49l3.2-6.01q.06-.11.13-.18t.15-.1.17-.04zm16.78 0h1.58l-3.36 10.84h-1.83l-2.37-7.41q-.09-.27-.18-.66-.04.19-.09.35-.04.17-.09.31l-2.4 7.41h-1.83l-3.36-10.84h1.69q.26 0 .44.12t.24.33l1.84 6.49q.06.24.12.52.05.28.11.59.06-.31.13-.59.08-.28.16-.52l2.13-6.49q.06-.17.23-.31.18-.14.43-.14h.6q.26 0 .43.12.16.13.24.33l2.12 6.49q.16.46.29 1.07.1-.59.22-1.07l1.84-6.49q.05-.18.23-.32.18-.13.44-.13m10.03 0h2.03v10.84h-2.03v-4.74h-5.09v4.74h-2.02V44.58h2.02v4.66h5.09zm11.81 0h1.78v10.84h-1.04q-.24 0-.4-.08t-.31-.26l-5.66-7.23q.04.49.04.91v6.66h-1.78V44.58h1.06q.13 0 .22.01.1.01.17.04.07.04.14.1.06.06.15.17l5.68 7.26-.04-.52q-.01-.26-.01-.47zm11.03 1.6h-4.81v3.01h3.79v1.55h-3.79v3.07h4.81v1.61h-6.84V44.58h6.84z"/></svg>