<svg xmlns="http://www.w3.org/2000/svg" width="100" height="100" viewBox="0 0 100 100"><rect width="100%" height="100%" fill="#dc2626"/><path fill="#ffffff" d="M35.32 39.63h3.44V60.6h-2.01q-.46 0-.77-.15t-.6-.52L24.43 45.95q.09.96.09 1.77V60.6h-3.44V39.63h2.04q.25 0 .43.02.18.03.32.09.14.07.27.19t.29.33l10.99 14.03q-.04-.51-.07-1t-.03-.91zm21.87 0h3.91V60.6h-3.91v-9.16h-9.85v9.16h-3.92V39.63h3.92v9.02h9.85zm15.09 17.64h5.38q.58 0 .92.32.34.33.34.86v2.15H64.54v-1.19q0-.36.15-.76t.48-.72l6.37-6.38q.8-.81 1.43-1.55t1.05-1.46q.42-.73.64-1.48.23-.74.23-1.57 0-.75-.22-1.33-.22-.57-.61-.96-.4-.39-.96-.59-.56-.19-1.26-.19-.63 0-1.18.18-.54.18-.96.51-.42.32-.71.76-.29.43-.44.95-.24.67-.64.89-.39.22-1.13.1l-1.88-.33q.22-1.51.84-2.65t1.56-1.9q.93-.76 2.14-1.14 1.22-.39 2.61-.39 1.45 0 2.65.43t2.06 1.21 1.33 1.88q.48 1.11.48 2.45 0 1.16-.34 2.15t-.91 1.89-1.34 1.74-1.61 1.71l-4.73 4.83q.68-.21 1.36-.32.67-.1 1.28-.1"/></svg>