<svg xmlns="http://www.w3.org/2000/svg" width="100" height="100" viewBox="0 0 100 100"><rect width="100%" height="100%" fill="#dc2626"/><path fill="#ffffff" d="M23.47 50.04h2.11q.78 0 1.35-.19.58-.2.96-.56.39-.36.58-.88t.19-1.16q0-.61-.19-1.11-.19-.49-.57-.84-.38-.34-.96-.53-.57-.18-1.36-.18h-2.11zm-2.83-7.63h4.94q1.52 0 2.63.35 1.12.36 1.84 1 .73.64 1.08 1.53.35.9.35 1.96 0 1.1-.37 2.02-.36.92-1.1 1.58-.73.66-1.84 1.03t-2.59.37h-2.11v5.34h-2.83zm23.61 0v2.32h-4.58v12.86h-2.82V44.73h-4.58v-2.32zm11.57 2.24h-6.74v4.21h5.31v2.18h-5.31v4.29h6.74v2.26h-9.58V42.41h9.58zm11.29-.82-.71 1.34q-.12.22-.26.32-.15.1-.36.1-.22 0-.47-.16-.26-.17-.62-.37t-.83-.36q-.48-.16-1.13-.16-.59 0-1.03.14t-.74.39q-.3.26-.45.61-.14.35-.14.77 0 .53.29.89.3.36.8.61.49.25 1.12.45t1.29.43q.66.22 1.29.52t1.13.76q.49.46.79 1.12t.3 1.6q0 1.03-.35 1.93T66 56.32q-.68.67-1.65 1.05-.98.39-2.24.39-.73 0-1.43-.14-.7-.15-1.35-.41-.64-.26-1.21-.63t-1.01-.82l.83-1.35q.11-.15.27-.25.17-.1.36-.1.26 0 .57.22.3.21.72.48.42.26.98.47.57.22 1.35.22 1.21 0 1.87-.57.66-.58.66-1.65 0-.6-.3-.97-.3-.38-.79-.64t-1.12-.44q-.63-.17-1.28-.38t-1.28-.51q-.63-.29-1.13-.76-.49-.48-.79-1.19-.3-.7-.3-1.74 0-.83.33-1.62t.96-1.4 1.56-.97q.92-.37 2.12-.37 1.34 0 2.47.42 1.14.42 1.94 1.17m7.44 11.34h3.9q.42 0 .66.24.25.24.25.63v1.55H68.94v-.86q0-.26.11-.55t.36-.52l4.61-4.62q.57-.59 1.03-1.13.46-.53.76-1.06.31-.52.47-1.06t.16-1.14q0-.55-.16-.96-.15-.42-.44-.7t-.7-.43q-.4-.14-.9-.14-.47 0-.86.13-.39.14-.7.37-.3.24-.51.55-.21.32-.32.7-.18.48-.46.64-.28.15-.82.07l-1.36-.24q.15-1.09.61-1.92.45-.82 1.12-1.37.68-.55 1.56-.83t1.88-.28q1.05 0 1.92.31.88.31 1.5.88.62.56.96 1.36.35.8.35 1.77 0 .84-.25 1.56-.25.71-.66 1.36t-.97 1.26-1.17 1.24l-3.42 3.5q.49-.15.98-.23t.93-.08"/></svg>