<svg xmlns="http://www.w3.org/2000/svg" width="100" height="100" viewBox="0 0 100 100"><rect width="100%" height="100%" fill="#dc2626"/><path fill="#ffffff" d="M22.385 49.63h1.76q.8 0 1.39-.2t.98-.55q.38-.35.57-.83.19-.49.19-1.07 0-1.15-.76-1.77t-2.33-.62h-1.8zm5.22 2.35 3.81 5.61h-2.56q-.72 0-1.05-.57l-3.19-4.86q-.18-.27-.39-.39-.22-.11-.64-.11h-1.2v5.93h-2.83V42.41h4.63q1.55 0 2.65.32 1.11.32 1.82.89.71.58 1.04 1.39.34.8.34 1.76 0 .77-.23 1.45-.22.69-.65 1.24-.42.56-1.05.98-.62.42-1.42.66.27.16.5.37.24.22.42.51m16.06-9.57v2.32h-4.58v12.86h-2.82V44.73h-4.58v-2.32zm5.19 9.45h4.83l-1.85-5.05q-.14-.34-.29-.8-.14-.46-.29-1-.14.54-.28 1-.15.47-.29.82zm3.85-9.45 5.96 15.18h-2.18q-.37 0-.6-.18-.23-.19-.35-.46l-1.13-3.1h-6.29l-1.13 3.1q-.09.24-.33.44t-.6.2h-2.2l5.97-15.18zm25.53 0h2.21l-4.71 15.18h-2.56l-3.31-10.37q-.14-.38-.26-.93-.06.26-.12.5-.06.23-.14.43l-3.35 10.37h-2.56l-4.7-15.18h2.36q.37 0 .61.17.25.17.33.47l2.59 9.08q.08.34.16.73t.16.82q.09-.44.19-.83.1-.38.21-.72l2.98-9.08q.09-.24.33-.44.25-.2.61-.2h.83q.37 0 .6.18.23.17.34.46l2.97 9.08q.22.65.4 1.5.14-.83.31-1.5l2.58-9.08q.06-.27.32-.45.26-.19.62-.19"/></svg>