<svg xmlns="http://www.w3.org/2000/svg" width="100" height="100" viewBox="0 0 100 100"><rect width="100%" height="100%" fill="#dc2626"/><path fill="#ffffff" d="M23.025 49.775h1.43q.65 0 1.13-.16.48-.17.79-.45.31-.29.46-.68t.15-.86q0-.93-.61-1.43-.62-.5-1.89-.5h-1.46zm4.24 1.9 3.07 4.54h-2.06q-.59 0-.85-.46l-2.59-3.93q-.14-.23-.32-.32-.17-.09-.51-.09h-.98v4.8h-2.28v-12.29h3.74q1.25 0 2.15.26t1.47.72q.58.47.85 1.12t.27 1.43q0 .63-.18 1.18-.19.55-.53 1t-.85.79-1.15.54q.22.12.41.3.18.17.34.41m12.99-7.75v1.88h-3.7v10.41h-2.29v-10.41h-3.71v-1.88zm4.2 7.65h3.91l-1.49-4.09q-.12-.27-.23-.65-.12-.37-.24-.8-.11.43-.23.81t-.23.66zm3.12-7.65 4.83 12.29h-1.77q-.3 0-.48-.15-.19-.15-.28-.37l-.92-2.51h-5.09l-.92 2.51q-.07.2-.27.36-.19.16-.48.16h-1.78l4.83-12.29zm20.66 0h1.8l-3.82 12.29h-2.06l-2.69-8.4q-.11-.3-.2-.75l-.11.4q-.05.19-.11.35l-2.71 8.4h-2.07l-3.81-12.29h1.91q.3 0 .5.14t.27.38l2.09 7.35q.07.27.13.59t.13.67q.07-.36.15-.67.08-.32.17-.59l2.42-7.35q.07-.2.27-.36t.49-.16h.67q.29 0 .48.14.19.15.28.38l2.41 7.35q.18.53.32 1.22.11-.68.25-1.22l2.09-7.35q.05-.22.26-.37t.49-.15m7.13 10.33h3.15q.34 0 .54.2.2.19.2.5v1.26h-8.43v-.7q0-.21.09-.44.09-.24.28-.42l3.73-3.74q.47-.48.84-.91.37-.44.62-.86.24-.43.38-.86.13-.44.13-.93 0-.44-.13-.77-.13-.34-.36-.57-.24-.23-.56-.34-.33-.12-.74-.12-.37 0-.69.11-.32.1-.57.29-.24.2-.41.45-.17.26-.26.56-.14.39-.37.52t-.66.06l-1.11-.2q.13-.88.49-1.55.37-.66.92-1.11t1.26-.67q.71-.23 1.52-.23.85 0 1.56.25.7.25 1.2.71.51.46.79 1.11.28.64.28 1.43 0 .68-.2 1.26t-.54 1.11q-.33.52-.79 1.02-.45.49-.94 1l-2.77 2.83q.4-.12.8-.18.39-.07.75-.07"/></svg>