<svg xmlns="http://www.w3.org/2000/svg" width="100" height="100" viewBox="0 0 100 100"><rect width="100%" height="100%" fill="#dc2626"/><path fill="#ffffff" d="M29.555 43.5v1.98h-3.93v11.03h-2.42V45.48h-3.92V43.5zm10.64 9.94q.2 0 .35.15l.96 1.04q-.79.98-1.95 1.5t-2.78.52q-1.45 0-2.6-.49-1.16-.5-1.98-1.38t-1.25-2.1q-.44-1.23-.44-2.68 0-1.46.47-2.68t1.32-2.11q.85-.88 2.03-1.37t2.61-.49q1.42 0 2.52.47t1.88 1.22l-.81 1.13q-.07.11-.19.19-.11.08-.31.08-.13 0-.28-.08-.14-.07-.31-.19-.17-.11-.4-.24-.22-.14-.52-.25t-.69-.19-.9-.08q-.88 0-1.6.31t-1.25.9q-.52.59-.81 1.44-.28.85-.28 1.94 0 1.1.31 1.96.31.85.84 1.44.53.58 1.25.89t1.55.31q.49 0 .89-.05.4-.06.74-.17.34-.12.64-.3.3-.19.6-.46.09-.08.19-.13t.2-.05m5.39 1.18h2.45q.68 0 1.14-.16t.73-.43.4-.63q.12-.36.12-.77 0-.42-.14-.76-.13-.34-.42-.58-.29-.23-.74-.36-.46-.13-1.1-.13h-2.44zm2.07-9.25h-2.07v3.76h1.93q1.24 0 1.88-.45.63-.45.63-1.43 0-1.02-.57-1.45-.58-.43-1.8-.43m-4.49-1.87h4.49q1.27 0 2.18.24t1.49.69.85 1.09.27 1.44q0 .46-.13.88-.14.42-.42.78-.28.37-.72.66-.44.3-1.04.51 2.68.6 2.68 2.89 0 .83-.31 1.53-.32.71-.92 1.22-.6.5-1.49.79-.88.29-2.01.29h-4.92zm24.27 6.5q0 1.43-.47 2.65-.48 1.22-1.34 2.11-.87.89-2.08 1.39-1.22.5-2.7.5t-2.69-.5q-1.22-.5-2.08-1.39-.87-.89-1.35-2.11t-.48-2.65.48-2.65 1.35-2.11q.86-.89 2.08-1.39 1.21-.5 2.69-.5.99 0 1.86.23.88.23 1.6.65.73.42 1.31 1.02.58.59.99 1.33.4.74.62 1.6.21.87.21 1.82m-2.48 0q0-1.07-.29-1.92-.28-.85-.81-1.44-.54-.6-1.3-.91-.76-.32-1.71-.32t-1.71.32q-.77.31-1.3.91-.54.59-.82 1.44-.29.85-.29 1.92t.29 1.92q.28.85.82 1.44.53.59 1.3.91.76.31 1.71.31t1.71-.31q.76-.32 1.3-.91.53-.59.81-1.44.29-.85.29-1.92m7.35 1.6h4.14l-1.59-4.33q-.11-.29-.24-.69-.13-.39-.25-.85-.12.46-.25.86-.12.4-.24.69zm3.3-8.1 5.11 13.01h-1.87q-.32 0-.51-.16-.2-.16-.3-.39l-.97-2.65h-5.39l-.98 2.65q-.07.21-.27.38-.21.17-.52.17h-1.89l5.12-13.01z"/></svg>