<svg xmlns="http://www.w3.org/2000/svg" width="100" height="100" viewBox="0 0 100 100"><rect width="100%" height="100%" fill="#dc2626"/><path fill="#ffffff" d="M31.955 42.77v2.21h-4.36v12.25h-2.69V44.98h-4.36v-2.21zm4.6 0v14.46h-2.7V42.77zm13.33 0v2.21h-4.36v12.25h-2.69V44.98h-4.36v-2.21zm12 0v2.21h-4.36v12.25h-2.69V44.98h-4.36v-2.21zm15.54 0h2.03v14.46h-2.36v-9.34q0-.56.06-1.21l-4.37 8.21q-.31.59-.95.59h-.38q-.64 0-.96-.59l-4.41-8.24q.03.33.05.65t.02.59v9.34h-2.37V42.77h2.03q.18 0 .3.01.14.01.24.05t.19.13.16.24l4.34 8.03q.16.32.31.66.14.34.28.7l.29-.72q.16-.34.32-.66l4.28-8.01q.08-.15.17-.24t.19-.13q.11-.04.24-.05.12-.01.3-.01"/></svg>