<svg xmlns="http://www.w3.org/2000/svg" width="100" height="100" viewBox="0 0 100 100"><rect width="100%" height="100%" fill="#dc2626"/><path fill="#ffffff" d="M28.915 43.855v1.88h-3.71v10.41h-2.28v-10.41h-3.71v-1.88zm10.2 0v1.88h-3.71v10.41h-2.28v-10.41h-3.71v-1.88zm3.9 0v5.15h.54q.32 0 .53-.09.22-.09.37-.28l3.39-4.3q.21-.27.45-.37.23-.11.59-.11h1.97l-4.14 5.11q-.37.46-.76.66.28.1.51.29.22.18.43.48l4.26 5.75h-2.01q-.41 0-.61-.11-.2-.12-.33-.34l-3.48-4.54q-.16-.23-.37-.32-.22-.1-.62-.1h-.72v5.41h-2.28v-12.29zm23.93 0h1.79l-3.81 12.29h-2.07l-2.69-8.4q-.11-.3-.2-.75-.05.22-.1.4-.05.19-.11.35l-2.71 8.4h-2.08l-3.81-12.29h1.92q.29 0 .49.14t.27.38l2.09 7.35q.07.27.13.59.07.32.14.67.06-.36.15-.67.08-.32.17-.59l2.41-7.35q.07-.2.27-.36t.49-.16h.67q.3 0 .49.14.18.15.28.38l2.4 7.35q.18.53.33 1.22.11-.68.24-1.22l2.09-7.35q.05-.22.26-.37t.5-.15m5.89 7.65h3.91l-1.5-4.09q-.11-.27-.23-.65-.11-.37-.23-.8-.11.43-.23.81t-.23.66zm3.12-7.65 4.83 12.29h-1.77q-.3 0-.49-.15-.18-.15-.28-.37l-.91-2.51h-5.1l-.91 2.51q-.07.2-.27.36-.19.16-.48.16h-1.79l4.84-12.29z"/></svg>