<svg xmlns="http://www.w3.org/2000/svg" width="100" height="100" viewBox="0 0 100 100"><rect width="100%" height="100%" fill="#dc2626"/><path fill="#ffffff" d="M47.64 33.37h4.99L39.2 66.63h-5.59L20.18 33.37h4.96q.81 0 1.32.39.5.39.75 1.01l7.85 20.29q.39.99.75 2.17.35 1.19.67 2.48.28-1.29.6-2.48.32-1.18.71-2.17l7.8-20.29q.19-.52.73-.96t1.32-.44m14.63 16.72h4.62q1.7 0 2.97-.42 1.26-.43 2.1-1.22.84-.8 1.25-1.93.42-1.14.42-2.55 0-1.33-.42-2.41-.41-1.08-1.24-1.84t-2.09-1.16q-1.27-.4-2.99-.4h-4.62zm-6.19-16.72h10.81q3.33 0 5.77.78 2.44.79 4.03 2.19 1.58 1.4 2.35 3.36.78 1.95.78 4.27 0 2.42-.81 4.43-.8 2.02-2.41 3.46-1.61 1.45-4.04 2.26-2.43.8-5.67.8h-4.62v11.71h-6.19z"/></svg>