<svg xmlns="http://www.w3.org/2000/svg" width="100" height="100" viewBox="0 0 100 100"><rect width="100%" height="100%" fill="#dc2626"/><path fill="#ffffff" d="M26.84 56.16h4.64q.5 0 .8.29.29.28.29.74v1.85h-12.4v-1.03q0-.31.13-.65t.42-.62l5.49-5.5q.69-.7 1.23-1.34t.9-1.26q.37-.63.56-1.27t.19-1.36q0-.65-.18-1.14-.19-.49-.53-.83-.35-.34-.83-.51t-1.08-.17q-.55 0-1.02.16t-.83.44-.61.65q-.25.38-.38.83-.21.57-.55.76t-.97.09L20.48 46q.19-1.3.73-2.28.53-.98 1.34-1.64.81-.65 1.85-.98 1.05-.34 2.25-.34 1.25 0 2.28.37 1.04.37 1.78 1.05.74.67 1.15 1.62t.41 2.11q0 1-.29 1.85-.3.85-.79 1.63-.49.77-1.16 1.5-.66.72-1.38 1.47l-4.08 4.17q.59-.18 1.17-.27.58-.1 1.1-.1M51.78 50q0 1.99-.66 3.65t-1.86 2.86-2.89 1.87q-1.69.66-3.75.66h-6.89V40.97h6.89q2.06 0 3.75.66 1.69.67 2.89 1.87 1.2 1.19 1.86 2.85t.66 3.65m-3.45 0q0-1.49-.39-2.67t-1.14-2q-.74-.82-1.8-1.25-1.05-.44-2.38-.44h-3.51v12.72h3.51q1.33 0 2.38-.43 1.06-.44 1.8-1.26.75-.82 1.14-2t.39-2.67m7.38-3.71L54.08 46q.19-1.3.73-2.28t1.34-1.64q.81-.65 1.85-.98 1.04-.34 2.24-.34 1.26 0 2.26.36 1.01.36 1.72.99t1.09 1.48.38 1.84q0 .86-.19 1.52-.19.65-.56 1.14-.36.49-.9.82-.53.34-1.21.57 1.63.51 2.43 1.56t.8 2.64q0 1.35-.5 2.38-.5 1.04-1.35 1.75-.85.7-1.97 1.07-1.12.36-2.37.36-1.36 0-2.38-.31-1.01-.32-1.76-.93t-1.27-1.5q-.53-.89-.9-2.05l1.36-.56q.54-.23 1.01-.12.46.11.68.51.22.43.49.86.27.42.64.76.38.33.89.53.5.21 1.2.21.79 0 1.38-.26.58-.25.98-.67.39-.41.59-.91.19-.51.19-1.02 0-.65-.14-1.18-.14-.54-.57-.91-.44-.38-1.26-.59t-2.19-.21v-2.2q1.13-.01 1.88-.21t1.2-.56q.44-.36.62-.86.17-.5.17-1.1 0-1.27-.71-1.93-.71-.67-1.9-.67-.55 0-1.01.16t-.83.44-.62.65q-.25.38-.38.83-.21.57-.55.76-.35.19-.97.09m16.9 9.97h7.22v2.78H69.24V40.97h3.37z"/></svg>