<svg xmlns="http://www.w3.org/2000/svg" width="100" height="100" viewBox="0 0 100 100"><rect width="100%" height="100%" fill="#dc2626"/><path fill="#ffffff" d="M29.86 53.275h8.51l-3.25-8.9q-.24-.59-.5-1.41-.26-.81-.52-1.75-.24.94-.5 1.76-.26.83-.5 1.44zm6.79-16.65 10.51 26.75h-3.85q-.65 0-1.05-.32-.41-.33-.61-.81l-2-5.46H28.57l-2 5.46q-.15.43-.57.78-.43.35-1.06.35h-3.88l10.52-26.75zm38.54 0h3.75v26.75h-4.38v-17.28q0-1.03.11-2.24l-8.09 15.19q-.57 1.09-1.75 1.09h-.71q-1.18 0-1.75-1.09l-8.18-15.24q.05.61.09 1.2t.04 1.09v17.28h-4.39v-26.75h3.76q.33 0 .57.02t.44.09q.19.07.35.24t.3.44l8.02 14.86q.31.59.58 1.22t.53 1.3q.25-.69.53-1.33.28-.63.59-1.23l7.9-14.82q.15-.27.32-.44.16-.17.36-.24.19-.07.43-.09t.58-.02"/></svg>