<svg xmlns="http://www.w3.org/2000/svg" width="100" height="100" viewBox="0 0 100 100"><rect width="100%" height="100%" fill="#dc2626"/><path fill="#ffffff" d="M29.68 53.185h8.28l-3.16-8.66q-.24-.57-.49-1.36-.25-.8-.5-1.71-.24.91-.49 1.71-.25.81-.49 1.4zm6.61-16.2 10.22 26.03h-3.74q-.63 0-1.03-.32-.39-.31-.59-.78l-1.94-5.31H28.42l-1.94 5.31q-.14.42-.56.76-.41.34-1.02.34h-3.78l10.24-26.03zm27.99 2.45-1.2 2.29q-.22.37-.46.54-.25.18-.61.18-.38 0-.82-.28t-1.05-.62q-.61-.35-1.43-.63-.82-.27-1.93-.27-1.01 0-1.77.24t-1.27.67q-.51.44-.76 1.04-.26.6-.26 1.32 0 .92.52 1.53.51.61 1.36 1.05.84.43 1.92.77t2.22.73q1.13.39 2.21.9t1.93 1.29q.84.79 1.36 1.92.51 1.14.51 2.76 0 1.76-.6 3.3-.61 1.54-1.77 2.68t-2.83 1.8q-1.68.66-3.84.66-1.24 0-2.45-.24-1.2-.25-2.31-.7t-2.08-1.08-1.73-1.4l1.43-2.32q.18-.26.46-.43.29-.17.62-.17.45 0 .97.37t1.24.82 1.68.82q.97.37 2.32.37 2.07 0 3.2-.98 1.14-.98 1.14-2.82 0-1.03-.52-1.67-.51-.65-1.36-1.09-.84-.44-1.92-.75t-2.2-.67-2.2-.86-1.92-1.31q-.85-.81-1.36-2.03-.51-1.21-.51-3 0-1.42.56-2.77.57-1.35 1.65-2.39 1.08-1.05 2.66-1.68 1.59-.63 3.64-.63 2.31 0 4.25.72t3.31 2.02m14.6-2.45v16.78q0 2.19-.54 3.96-.54 1.76-1.61 3-1.07 1.25-2.67 1.91-1.61.67-3.73.67-.97 0-1.91-.12-.93-.12-1.96-.37.05-.72.13-1.44.07-.72.12-1.44.06-.39.32-.64.26-.24.74-.24.31 0 .8.13.5.12 1.26.12 1.02 0 1.81-.3.8-.29 1.33-.94t.8-1.68q.27-1.04.27-2.51v-16.89z"/></svg>