<svg xmlns="http://www.w3.org/2000/svg" width="100" height="100" viewBox="0 0 100 100"><rect width="100%" height="100%" fill="#dc2626"/><path fill="#ffffff" d="M27.43 61.545h6.12q1.69 0 2.84-.41t1.83-1.08q.69-.67.99-1.58.31-.9.31-1.91 0-1.05-.34-1.9-.34-.84-1.06-1.44-.72-.59-1.85-.91-1.14-.31-2.74-.31h-6.1zm5.16-23.14h-5.16v9.41h4.82q3.1 0 4.69-1.12 1.59-1.13 1.59-3.58 0-2.55-1.44-3.62-1.44-1.09-4.5-1.09m-11.21-4.67h11.21q3.19 0 5.46.6 2.28.61 3.73 1.73 1.45 1.13 2.12 2.73.68 1.59.68 3.6 0 1.15-.34 2.19-.34 1.05-1.04 1.96-.71.91-1.8 1.65-1.1.75-2.6 1.26 6.7 1.51 6.7 7.25 0 2.07-.79 3.82-.78 1.76-2.29 3.03t-3.71 1.99q-2.21.72-5.04.72H21.38zm35.69 0v13.63h1.41q.86 0 1.42-.24.56-.23.97-.75l8.98-11.36q.56-.72 1.18-1t1.56-.28h5.22l-10.96 13.52q-.96 1.24-2 1.75.74.27 1.34.76.6.48 1.14 1.27l11.29 15.23h-5.33q-1.08 0-1.61-.3-.53-.31-.89-.89l-9.2-12.02q-.43-.6-.99-.85t-1.62-.25h-1.91v14.31h-6.06v-32.53z"/></svg>