<svg xmlns="http://www.w3.org/2000/svg" width="100" height="100" viewBox="0 0 100 100"><rect width="100%" height="100%" fill="#dc2626"/><path fill="#ffffff" d="M25.015 56.93h3.67q1.02 0 1.7-.25.69-.24 1.1-.65.42-.4.6-.94t.18-1.15q0-.63-.2-1.14t-.64-.86q-.43-.36-1.11-.55t-1.64-.19h-3.66zm3.09-13.88h-3.09v5.64h2.89q1.86 0 2.81-.67.96-.68.96-2.15 0-1.53-.87-2.18-.86-.64-2.7-.64m-6.72-2.81h6.72q1.92 0 3.28.36 1.37.37 2.24 1.04.87.68 1.27 1.64.41.95.41 2.16 0 .69-.2 1.31-.21.63-.63 1.18-.43.54-1.08.99-.66.45-1.56.76 4.02.9 4.02 4.34 0 1.24-.47 2.3-.47 1.05-1.38 1.81-.9.77-2.23 1.2-1.32.43-3.02.43h-7.37zm36.21 0h2.74v19.52h-3.2V47.15q0-.76.08-1.63l-5.9 11.08q-.42.8-1.28.8h-.52q-.86 0-1.28-.8l-5.97-11.12q.04.44.07.87.03.44.03.8v12.61h-3.2V40.24h2.74q.24 0 .42.01.17.02.32.07.14.05.25.18.12.12.22.32l5.85 10.84q.23.43.43.89.19.46.38.95.19-.5.39-.97t.43-.9l5.77-10.81q.11-.2.23-.32.12-.13.26-.18t.32-.07q.17-.01.42-.01m10.72 9.81h2.71q1 0 1.74-.25t1.24-.71q.49-.47.73-1.14.24-.66.24-1.49 0-.78-.24-1.41-.24-.64-.73-1.08-.48-.45-1.23-.69-.74-.23-1.75-.23h-2.71zm-3.64-9.81h6.35q1.96 0 3.39.46t2.36 1.28 1.38 1.97q.46 1.15.46 2.51 0 1.42-.48 2.6-.47 1.18-1.41 2.03-.95.85-2.37 1.33-1.43.47-3.33.47h-2.71v6.87h-3.64z"/></svg>