<svg xmlns="http://www.w3.org/2000/svg" width="100" height="100" viewBox="0 0 100 100"><rect width="100%" height="100%" fill="#dc2626"/><path fill="#ffffff" d="M26.03 58.975h4.76q1.32 0 2.21-.31.89-.32 1.42-.84.54-.53.77-1.23.24-.7.24-1.48 0-.83-.26-1.48-.26-.66-.82-1.12-.56-.47-1.45-.71-.88-.25-2.12-.25h-4.75zm4.01-17.99h-4.01v7.32h3.75q2.41 0 3.65-.88 1.23-.87 1.23-2.78 0-1.98-1.12-2.82t-3.5-.84m-8.71-3.64h8.71q2.49 0 4.25.48 1.77.47 2.9 1.34 1.13.88 1.65 2.12.53 1.24.53 2.8 0 .89-.26 1.71-.27.81-.82 1.52t-1.4 1.29q-.85.57-2.02.98 5.22 1.17 5.22 5.63 0 1.61-.62 2.98-.61 1.36-1.78 2.35t-2.89 1.55q-1.71.56-3.92.56h-9.55zm37.69 2.38-1.17 2.23q-.21.36-.45.53-.23.17-.58.17-.37 0-.8-.27-.43-.28-1.02-.61-.6-.33-1.39-.6-.8-.27-1.89-.27-.98 0-1.71.23-.74.24-1.24.66-.49.42-.74 1.01-.24.58-.24 1.28 0 .89.49 1.49.5.59 1.33 1.01.82.42 1.87.76 1.05.33 2.15.71 1.1.37 2.15.87t1.88 1.26q.82.76 1.32 1.86.5 1.11.5 2.68 0 1.72-.59 3.21-.59 1.5-1.71 2.61-1.13 1.11-2.76 1.75t-3.73.64q-1.21 0-2.38-.24-1.17-.23-2.25-.67-1.07-.44-2.02-1.05-.94-.61-1.68-1.37l1.38-2.25q.18-.25.46-.41.28-.17.59-.17.44 0 .95.36t1.21.79q.7.44 1.63.8.94.36 2.25.36 2.01 0 3.12-.95 1.1-.96 1.1-2.74 0-1-.5-1.63t-1.32-1.06-1.87-.73q-1.05-.29-2.14-.64-1.08-.35-2.13-.84t-1.88-1.28q-.82-.79-1.32-1.97t-.5-2.91q0-1.39.55-2.7.56-1.31 1.61-2.33 1.05-1.01 2.59-1.62 1.54-.62 3.53-.62 2.24 0 4.13.7t3.22 1.96m19.2 0-1.17 2.23q-.21.36-.45.53t-.59.17q-.36 0-.79-.27-.43-.28-1.03-.61-.59-.33-1.39-.6-.79-.27-1.88-.27-.98 0-1.71.23-.74.24-1.24.66t-.74 1.01q-.25.58-.25 1.28 0 .89.5 1.49.5.59 1.32 1.01.83.42 1.88.76 1.05.33 2.15.71 1.1.37 2.15.87t1.87 1.26q.83.76 1.33 1.86.49 1.11.49 2.68 0 1.72-.58 3.21-.59 1.5-1.72 2.61t-2.75 1.75q-1.63.64-3.73.64-1.21 0-2.38-.24-1.17-.23-2.25-.67t-2.02-1.05q-.95-.61-1.68-1.37l1.38-2.25q.18-.25.46-.41.28-.17.59-.17.44 0 .95.36.5.36 1.2.79.7.44 1.64.8t2.25.36q2.01 0 3.11-.95 1.11-.96 1.11-2.74 0-1-.5-1.63t-1.32-1.06q-.83-.43-1.88-.73-1.05-.29-2.13-.64-1.09-.35-2.14-.84t-1.87-1.28-1.32-1.97-.5-2.91q0-1.39.55-2.7t1.6-2.33q1.05-1.01 2.59-1.62 1.54-.62 3.54-.62 2.24 0 4.13.7t3.22 1.96"/></svg>