<svg xmlns="http://www.w3.org/2000/svg" width="100" height="100" viewBox="0 0 100 100"><rect width="100%" height="100%" fill="#dc2626"/><path fill="#ffffff" d="M25.465 58.72h4.62q1.28 0 2.15-.31.86-.3 1.38-.81t.75-1.19.23-1.45q0-.8-.26-1.43-.25-.64-.79-1.09-.55-.45-1.41-.69-.85-.24-2.06-.24h-4.61zm3.89-17.48h-3.89v7.11h3.64q2.34 0 3.54-.85t1.2-2.7q0-1.92-1.09-2.74-1.08-.82-3.4-.82m-8.46-3.53h8.46q2.42 0 4.14.46 1.71.46 2.81 1.31 1.09.85 1.61 2.05.51 1.21.51 2.72 0 .87-.26 1.66-.25.79-.79 1.48t-1.36 1.25-1.96.95q5.06 1.14 5.06 5.47 0 1.57-.59 2.9-.6 1.32-1.74 2.28t-2.8 1.51q-1.67.54-3.81.54h-9.28zm36.62 2.31-1.14 2.16q-.21.36-.44.52t-.57.16q-.35 0-.77-.26-.42-.27-.99-.59-.58-.32-1.36-.59-.77-.26-1.82-.26-.95 0-1.67.23-.71.23-1.2.64-.48.4-.72.97t-.24 1.25q0 .87.49 1.45.48.58 1.28.98.8.41 1.82.73 1.02.33 2.09.69 1.07.37 2.09.85 1.02.49 1.82 1.23t1.28 1.81q.49 1.07.49 2.6 0 1.66-.57 3.12-.57 1.45-1.67 2.53-1.09 1.08-2.67 1.7-1.59.62-3.63.62-1.17 0-2.31-.23t-2.18-.65q-1.05-.43-1.97-1.02-.91-.6-1.63-1.33l1.35-2.19q.17-.24.44-.4t.58-.16q.42 0 .91.35.5.34 1.18.77.68.42 1.59.77t2.18.35q1.96 0 3.03-.92 1.07-.93 1.07-2.67 0-.96-.49-1.58-.48-.61-1.28-1.02-.8-.42-1.82-.71t-2.07-.63q-1.06-.34-2.08-.82-1.02-.47-1.82-1.24-.8-.76-1.28-1.91t-.48-2.83q0-1.34.53-2.62.54-1.27 1.56-2.26 1.02-.98 2.51-1.58 1.5-.59 3.44-.59 2.17 0 4.01.68 1.83.68 3.13 1.9m21.59-2.31v3.75h-7.42v20.83h-4.57V41.46h-7.41v-3.75z"/></svg>