<svg xmlns="http://www.w3.org/2000/svg" width="100" height="100" viewBox="0 0 100 100"><rect width="100%" height="100%" fill="#dc2626"/><path fill="#ffffff" d="M26.31 57.955h4.21q1.17 0 1.96-.28t1.26-.75q.47-.46.68-1.08t.21-1.32q0-.73-.23-1.31t-.73-.99-1.28-.63-1.88-.22h-4.2zm3.55-15.94h-3.55v6.48h3.31q2.14 0 3.24-.77 1.09-.78 1.09-2.47 0-1.75-.99-2.5-.99-.74-3.1-.74m-7.72-3.22h7.72q2.2 0 3.76.42 1.57.41 2.57 1.19 1 .77 1.46 1.87.47 1.11.47 2.48 0 .8-.23 1.52-.24.72-.72 1.34-.49.63-1.24 1.14-.76.51-1.79.87 4.61 1.04 4.61 4.99 0 1.43-.54 2.64t-1.58 2.08q-1.04.88-2.56 1.37-1.52.5-3.47.5h-8.46zm33.39 2.11-1.04 1.96q-.19.33-.4.48-.21.14-.52.14-.32 0-.7-.24t-.91-.53q-.53-.3-1.23-.54-.71-.24-1.67-.24-.87 0-1.52.21t-1.09.58q-.44.38-.66.9-.22.51-.22 1.13 0 .8.45 1.32.44.53 1.17.9.72.37 1.65.67.93.29 1.91.63.98.33 1.91.77t1.66 1.12q.72.67 1.17 1.65.44.97.44 2.37 0 1.52-.52 2.84-.52 1.33-1.52 2.31-1 .99-2.44 1.55-1.44.57-3.3.57-1.07 0-2.11-.21t-1.99-.6q-.96-.39-1.79-.93-.84-.54-1.49-1.21l1.22-2q.16-.21.41-.36.24-.15.52-.15.39 0 .84.32t1.07.71q.62.38 1.45.7t1.99.32q1.78 0 2.76-.85.98-.84.98-2.42 0-.89-.45-1.44-.44-.56-1.17-.94-.72-.38-1.65-.65-.93-.26-1.89-.57-.97-.31-1.9-.74-.93-.44-1.65-1.13-.73-.7-1.17-1.75-.45-1.04-.45-2.58 0-1.22.49-2.39.49-1.16 1.42-2.06t2.29-1.44q1.37-.54 3.14-.54 1.98 0 3.65.62 1.68.62 2.86 1.74m13.05 16.94q1.21 0 2.16-.41.95-.4 1.6-1.13t1-1.77q.35-1.03.35-2.32v-13.42h4.17v13.42q0 2-.64 3.7-.65 1.69-1.85 2.93-1.2 1.23-2.92 1.92t-3.87.69q-2.17 0-3.89-.69t-2.93-1.92q-1.2-1.24-1.84-2.93-.64-1.7-.64-3.7v-13.42h4.17v13.4q0 1.29.34 2.33.35 1.04 1.01 1.77.66.74 1.61 1.14.96.41 2.17.41"/></svg>