<svg xmlns="http://www.w3.org/2000/svg" width="100" height="100" viewBox="0 0 100 100"><rect width="100%" height="100%" fill="#dc2626"/><path fill="#ffffff" d="M49.115 50.005q0 3.41-1.14 6.27t-3.2 4.93q-2.06 2.06-4.97 3.2-2.9 1.14-6.45 1.14h-11.84v-31.09h11.84q3.55 0 6.45 1.15 2.91 1.15 4.97 3.2 2.06 2.06 3.2 4.92t1.14 6.28m-5.93 0q0-2.56-.68-4.59-.68-2.04-1.96-3.44-1.27-1.41-3.09-2.17-1.82-.75-4.1-.75h-6.04v21.89h6.04q2.28 0 4.1-.75 1.82-.76 3.09-2.16 1.28-1.41 1.96-3.44.68-2.04.68-4.59m16.81-.76h3.61q1.64 0 2.85-.41 1.22-.4 2-1.12.79-.72 1.17-1.71.39-.99.39-2.18 0-2.36-1.56-3.63t-4.76-1.27h-3.7zm10.71 4.82 7.78 11.48h-5.22q-1.49 0-2.15-1.16l-6.54-9.96q-.36-.55-.81-.79-.44-.24-1.3-.24h-2.47v12.15h-5.78v-31.09h9.48q3.16 0 5.43.66 2.27.65 3.72 1.83 1.45 1.19 2.14 2.83.68 1.65.68 3.62 0 1.57-.46 2.97t-1.33 2.54-2.15 2-2.91 1.35q.56.33 1.03.77t.86 1.04"/></svg>