<svg xmlns="http://www.w3.org/2000/svg" width="100" height="100" viewBox="0 0 100 100"><rect width="100%" height="100%" fill="#dc2626"/><path fill="#ffffff" d="M38.22 49.955h10.56v12.87q-2.42 1.78-5.16 2.61-2.74.82-5.86.82-3.9 0-7.05-1.21-3.16-1.21-5.39-3.36-2.24-2.16-3.45-5.15t-1.21-6.54q0-3.58 1.17-6.57 1.16-3 3.31-5.15 2.14-2.16 5.2-3.35 3.06-1.18 6.87-1.18 1.93 0 3.62.3 1.68.31 3.12.85t2.63 1.31 2.18 1.69l-1.7 2.69q-.39.64-1.03.78t-1.39-.32q-.72-.42-1.45-.84-.73-.41-1.62-.72t-2-.51-2.56-.2q-2.36 0-4.26.8-1.9.79-3.24 2.26-1.35 1.48-2.07 3.54-.73 2.07-.73 4.62 0 2.73.78 4.88.78 2.14 2.2 3.63 1.42 1.48 3.42 2.26 2.01.78 4.47.78 1.76 0 3.15-.37 1.38-.37 2.7-1.01v-5.77h-4q-.57 0-.89-.31-.32-.32-.32-.79zm22.2-.73h3.69q1.67 0 2.92-.41 1.24-.42 2.04-1.16.81-.74 1.2-1.75.4-1.01.4-2.22 0-2.42-1.6-3.72-1.59-1.3-4.87-1.3h-3.78zm10.95 4.93 7.97 11.75h-5.35q-1.52 0-2.2-1.19l-6.69-10.18q-.37-.58-.82-.82t-1.33-.24h-2.53v12.43H54.5v-31.81h9.7q3.23 0 5.56.67 2.32.67 3.8 1.88 1.49 1.21 2.19 2.89.7 1.69.7 3.71 0 1.61-.47 3.04t-1.36 2.59q-.89 1.17-2.2 2.05t-2.98 1.38q.57.33 1.05.79.49.45.88 1.06"/></svg>