<svg xmlns="http://www.w3.org/2000/svg" width="100" height="100" viewBox="0 0 100 100"><rect width="100%" height="100%" fill="#dc2626"/><path fill="#ffffff" d="M25.675 36.985v26.03h-4.86v-26.03zm28.92 13.02q0 2.86-.95 5.25-.95 2.4-2.68 4.12-1.73 1.73-4.16 2.69-2.43.95-5.4.95h-9.92v-26.03h9.92q2.97 0 5.4.96 2.43.97 4.16 2.69t2.68 4.11.95 5.26m-4.96 0q0-2.15-.57-3.85t-1.64-2.88-2.59-1.81-3.43-.63h-5.06v18.33h5.06q1.91 0 3.43-.63t2.59-1.81 1.64-2.88.57-3.84m14.07-.63h3.03q1.36 0 2.38-.35 1.02-.34 1.68-.94.65-.6.98-1.43.32-.83.32-1.82 0-1.98-1.3-3.04-1.31-1.06-3.99-1.06h-3.1zm8.97 4.03 6.51 9.61h-4.37q-1.24 0-1.8-.97l-5.47-8.34q-.31-.46-.68-.66t-1.09-.2h-2.07v10.17h-4.84v-26.03h7.94q2.64 0 4.54.55t3.12 1.54q1.21.99 1.79 2.37.57 1.37.57 3.03 0 1.31-.38 2.48-.39 1.17-1.12 2.13-.73.95-1.8 1.67t-2.44 1.14q.47.27.87.63.39.37.72.88"/></svg>