<svg xmlns="http://www.w3.org/2000/svg" width="100" height="100" viewBox="0 0 100 100"><rect width="100%" height="100%" fill="#dc2626"/><path fill="#ffffff" d="M25.64 38.07v23.86h-4.46V38.07zm27.85 0h3.35v23.86h-3.91V46.52q0-.93.1-2l-7.21 13.55q-.52.97-1.57.97h-.63q-1.05 0-1.57-.97l-7.29-13.6q.05.55.08 1.08.04.52.04.97v15.41h-3.91V38.07h3.35q.29 0 .51.02.21.01.38.08.18.07.32.21.14.15.27.4l7.15 13.25q.28.53.51 1.09.24.56.48 1.15.23-.61.47-1.18.25-.57.53-1.09l7.05-13.22q.13-.25.28-.4.15-.14.32-.21t.39-.08q.21-.02.51-.02m25.33 0v3.65h-7.2v20.21h-4.44V41.72h-7.19v-3.65z"/></svg>