<svg xmlns="http://www.w3.org/2000/svg" width="100" height="100" viewBox="0 0 100 100"><rect width="100%" height="100%" fill="#dc2626"/><path fill="#ffffff" d="M38.725 31.725v23.3q0 3.05-.75 5.5t-2.24 4.17q-1.48 1.73-3.71 2.65-2.23.93-5.17.93-1.36 0-2.66-.16-1.29-.16-2.72-.52.07-1 .18-1.99.09-1.01.17-2.01.08-.55.44-.88.36-.34 1.03-.34.43 0 1.12.17.69.18 1.74.18 1.42 0 2.52-.41 1.1-.42 1.84-1.32t1.11-2.33q.38-1.44.38-3.49v-23.45zm39.8 18.08q0 3.97-1.32 7.29-1.33 3.33-3.73 5.73t-5.77 3.72q-3.38 1.33-7.5 1.33h-13.78v-36.15h13.78q4.12 0 7.5 1.34 3.37 1.33 5.77 3.72t3.73 5.71q1.32 3.33 1.32 7.31m-6.9 0q0-2.98-.79-5.34-.78-2.37-2.27-4-1.49-1.64-3.6-2.52-2.11-.87-4.76-.87h-7.03v25.45h7.03q2.65 0 4.76-.88 2.11-.87 3.6-2.51t2.27-4q.79-2.36.79-5.33"/></svg>