<svg xmlns="http://www.w3.org/2000/svg" width="100" height="100" viewBox="0 0 100 100"><rect width="100%" height="100%" fill="#dc2626"/><path fill="#ffffff" d="M31.285 37.94v15.38q0 2.01-.49 3.63-.5 1.62-1.48 2.75-.98 1.14-2.45 1.75t-3.41.61q-.9 0-1.75-.1-.86-.11-1.8-.34.05-.66.11-1.32.07-.66.12-1.32.05-.36.29-.59.24-.22.68-.22.28 0 .74.12.45.11 1.14.11.94 0 1.67-.27t1.21-.87q.49-.59.74-1.54.24-.95.24-2.3V37.94zm26.27 11.93q0 2.62-.87 4.82-.88 2.19-2.46 3.78-1.59 1.58-3.81 2.46-2.23.87-4.95.87h-9.09V37.94h9.09q2.72 0 4.95.88 2.22.89 3.81 2.46 1.58 1.58 2.46 3.77.87 2.2.87 4.82m-4.55 0q0-1.96-.52-3.52t-1.5-2.64q-.99-1.08-2.38-1.66t-3.14-.58h-4.64v16.8h4.64q1.75 0 3.14-.58t2.38-1.66q.98-1.08 1.5-2.64t.52-3.52m12.9-.58h2.77q1.26 0 2.19-.31t1.53-.87q.61-.55.9-1.31.3-.76.3-1.66 0-1.82-1.2-2.79-1.19-.98-3.65-.98h-2.84zm8.22 3.7 5.97 8.81h-4.01q-1.14 0-1.65-.89l-5.01-7.64q-.29-.43-.62-.61-.34-.18-1-.18h-1.9v9.32h-4.44V37.94h7.28q2.42 0 4.16.5 1.75.51 2.86 1.41 1.11.91 1.64 2.17.53 1.27.53 2.78 0 1.21-.36 2.28-.35 1.07-1.02 1.95-.67.87-1.65 1.53t-2.23 1.04q.42.25.79.59.36.34.66.8"/></svg>