<svg xmlns="http://www.w3.org/2000/svg" width="100" height="100" viewBox="0 0 100 100"><rect width="100%" height="100%" fill="#dc2626"/><path fill="#ffffff" d="m42.27 36.795-1.5 2.85q-.27.48-.58.69-.3.21-.75.21-.47 0-1.03-.35-.55-.34-1.31-.77-.77-.43-1.79-.78t-2.42-.35q-1.26 0-2.2.31-.95.3-1.59.84t-.96 1.29q-.31.76-.31 1.66 0 1.15.64 1.91t1.7 1.31q1.06.54 2.41.96 1.35.43 2.76.91 1.42.49 2.77 1.13t2.41 1.62 1.7 2.4q.64 1.41.64 3.44 0 2.2-.75 4.13-.76 1.92-2.21 3.35t-3.54 2.25q-2.1.82-4.8.82-1.55 0-3.06-.3-1.5-.31-2.89-.87-1.38-.56-2.6-1.35-1.21-.79-2.16-1.76l1.78-2.9q.23-.31.59-.53.36-.21.76-.21.56 0 1.22.46.65.46 1.55 1.02.9.57 2.1 1.03 1.21.46 2.89.46 2.59 0 4.01-1.23 1.42-1.22 1.42-3.52 0-1.28-.64-2.09-.65-.81-1.7-1.36-1.06-.55-2.41-.93-1.35-.39-2.75-.84-1.39-.45-2.74-1.08t-2.41-1.64-1.7-2.53-.64-3.75q0-1.77.71-3.46t2.06-3q1.35-1.3 3.33-2.09 1.98-.78 4.54-.78 2.88 0 5.31.9t4.14 2.52m36.88 13.2q0 3.58-1.18 6.63t-3.34 5.27q-2.16 2.23-5.2 3.48t-6.75 1.25q-3.69 0-6.73-1.25-3.03-1.25-5.21-3.48-2.17-2.22-3.36-5.27t-1.19-6.63q0-3.57 1.19-6.62t3.36-5.28q2.18-2.23 5.21-3.48 3.04-1.24 6.73-1.24 2.48 0 4.66.57t4 1.62q1.83 1.05 3.28 2.54 1.45 1.5 2.46 3.34 1.01 1.85 1.54 4.01t.53 4.54m-6.19 0q0-2.68-.72-4.8-.72-2.13-2.04-3.61-1.33-1.49-3.23-2.27-1.9-.79-4.29-.79-2.38 0-4.29.79-1.9.78-3.24 2.27-1.33 1.48-2.05 3.61-.72 2.12-.72 4.8t.72 4.81q.72 2.12 2.05 3.6 1.34 1.47 3.24 2.26 1.91.79 4.29.79 2.39 0 4.29-.79t3.23-2.26q1.32-1.48 2.04-3.6.72-2.13.72-4.81"/></svg>