<svg xmlns="http://www.w3.org/2000/svg" width="100" height="100" viewBox="0 0 100 100"><rect width="100%" height="100%" fill="#dc2626"/><path fill="#ffffff" d="M34.38 43.13h1.93v13.74h-2.26V48q0-.53.06-1.15l-4.15 7.8q-.29.56-.9.56h-.36q-.61 0-.91-.56l-4.2-7.83q.03.31.05.62.02.3.02.56v8.87h-2.25V43.13h1.93q.17 0 .29.01.13.01.23.05t.18.12q.08.09.15.23l4.12 7.63q.16.3.3.63l.27.66q.13-.35.27-.68t.31-.63l4.05-7.61q.08-.14.16-.23.09-.08.19-.12t.22-.05q.13-.01.3-.01m7.87 8.55h4.37l-1.67-4.57q-.12-.3-.26-.72-.13-.42-.26-.9-.13.48-.26.91-.13.42-.25.73zm3.49-8.55 5.4 13.74h-1.98q-.33 0-.54-.17-.21-.16-.32-.41l-1.02-2.8h-5.69l-1.03 2.8q-.07.22-.29.4t-.54.18h-2l5.41-13.74zM64.76 50q0 1.51-.51 2.78-.5 1.26-1.41 2.17t-2.2 1.42q-1.28.5-2.85.5h-5.23V43.13h5.23q1.57 0 2.85.51 1.29.51 2.2 1.42.91.9 1.41 2.17.51 1.26.51 2.77m-2.62 0q0-1.13-.3-2.03-.3-.89-.87-1.52-.56-.62-1.37-.95-.8-.33-1.81-.33h-2.66v9.67h2.66q1.01 0 1.81-.34.81-.33 1.37-.95.57-.62.87-1.52t.3-2.03m13.89-6.87h2.56v13.74h-2.56v-6h-6.46v6h-2.56V43.13h2.56v5.91h6.46z"/></svg>