<svg xmlns="http://www.w3.org/2000/svg" width="100" height="100" viewBox="0 0 100 100"><rect width="100%" height="100%" fill="#dc2626"/><path fill="#ffffff" d="M37.3 41.325h2.43v17.35h-2.84v-11.21q0-.67.07-1.45l-5.24 9.85q-.37.71-1.14.71h-.46q-.77 0-1.14-.71l-5.3-9.89.06.78q.02.39.02.71v11.21h-2.84v-17.35h2.43q.22 0 .38.01.15.01.28.06.12.05.23.16.1.1.19.28l5.2 9.64q.2.38.38.79.17.41.34.84.17-.44.35-.86.18-.41.38-.79l5.13-9.62q.09-.18.2-.28.11-.11.23-.16.13-.05.29-.06.15-.01.37-.01m9.95 10.8h5.52l-2.12-5.77q-.15-.39-.32-.92-.17-.52-.34-1.14-.15.62-.32 1.15t-.32.93zm4.4-10.8 6.82 17.35h-2.5q-.42 0-.68-.21-.27-.21-.4-.52l-1.3-3.54h-7.18l-1.3 3.54q-.1.27-.37.5-.28.23-.69.23h-2.52l6.83-17.35zm25 0h2.43v17.35h-2.84v-11.21q0-.67.07-1.45l-5.24 9.85q-.38.71-1.14.71h-.46q-.77 0-1.14-.71l-5.3-9.89.06.78q.02.39.02.71v11.21h-2.84v-17.35h2.43q.22 0 .37.01.16.01.29.06.12.05.22.16.11.1.2.28l5.2 9.64q.2.38.38.79.17.41.34.84.17-.44.35-.86.18-.41.38-.79l5.12-9.62q.1-.18.21-.28.11-.11.23-.16.13-.05.28-.06.16-.01.38-.01"/></svg>