<svg xmlns="http://www.w3.org/2000/svg" width="100" height="100" viewBox="0 0 100 100"><rect width="100%" height="100%" fill="#dc2626"/><path fill="#ffffff" d="m36.33 40.31-1.11 2.1q-.2.35-.42.5-.22.16-.55.16-.35 0-.75-.26-.41-.25-.97-.56-.56-.32-1.31-.57-.75-.26-1.77-.26-.93 0-1.62.22-.69.23-1.16.62-.47.4-.7.95-.24.55-.24 1.21 0 .85.48 1.41.47.56 1.24.95.78.4 1.77.71.99.32 2.03.67 1.04.36 2.03.83t1.76 1.18q.78.72 1.25 1.76t.47 2.53q0 1.61-.56 3.02-.55 1.41-1.61 2.46-1.07 1.05-2.6 1.65-1.54.6-3.52.6-1.13 0-2.24-.22t-2.12-.63q-1.02-.42-1.91-.99-.89-.58-1.58-1.29l1.3-2.13q.17-.23.43-.39.27-.15.56-.15.42 0 .89.33.48.34 1.14.75.66.42 1.55.76.88.33 2.12.33 1.89 0 2.93-.9 1.04-.89 1.04-2.58 0-.94-.47-1.53-.47-.6-1.24-1-.78-.4-1.77-.69-.99-.28-2.01-.61-1.03-.33-2.01-.79-1-.46-1.77-1.2-.78-.74-1.25-1.86-.47-1.11-.47-2.75 0-1.3.52-2.54.52-1.23 1.51-2.19t2.44-1.54q1.46-.57 3.34-.57 2.11 0 3.89.66t3.04 1.84m8.73 18.15h4.48q1.24 0 2.08-.29.84-.3 1.35-.79.5-.5.72-1.16.23-.66.23-1.4 0-.78-.25-1.4-.25-.61-.78-1.05-.52-.44-1.36-.67-.83-.23-2-.23h-4.47zm3.77-16.96h-3.77v6.9h3.53q2.27 0 3.44-.83 1.16-.82 1.16-2.62 0-1.86-1.06-2.66-1.05-.79-3.3-.79m-8.21-3.43h8.21q2.35 0 4.01.45 1.67.44 2.74 1.27 1.06.82 1.55 1.99.5 1.17.5 2.64 0 .85-.25 1.61-.25.77-.77 1.44-.51.67-1.32 1.21-.8.54-1.9.92 4.92 1.11 4.92 5.32 0 1.52-.58 2.8-.58 1.29-1.68 2.22-1.11.93-2.73 1.46-1.61.53-3.69.53h-9.01zm26.17 12h3.31q1.22 0 2.13-.31.91-.3 1.51-.87t.9-1.39.3-1.82q0-.96-.3-1.73-.3-.78-.89-1.32-.59-.55-1.5-.84t-2.15-.29h-3.31zm-4.44-12h7.75q2.4 0 4.14.56 1.75.56 2.89 1.57t1.69 2.41q.56 1.4.56 3.07 0 1.73-.58 3.17-.58 1.45-1.73 2.49-1.16 1.04-2.9 1.61-1.74.58-4.07.58h-3.31v8.4h-4.44z"/></svg>