<svg xmlns="http://www.w3.org/2000/svg" width="100" height="100" viewBox="0 0 100 100"><rect width="100%" height="100%" fill="#dc2626"/><path fill="#ffffff" d="M25.925 58.205h4.35q1.2 0 2.02-.29.81-.29 1.3-.77t.71-1.12q.21-.64.21-1.36 0-.75-.24-1.35t-.75-1.02q-.51-.43-1.32-.65t-1.94-.22h-4.34zm3.66-16.45h-3.66v6.69h3.42q2.21 0 3.34-.8t1.13-2.54q0-1.81-1.03-2.58-1.02-.77-3.2-.77m-7.96-3.33h7.96q2.28 0 3.89.44 1.62.43 2.65 1.23t1.51 1.93q.48 1.14.48 2.56 0 .82-.24 1.56-.24.75-.74 1.4-.51.64-1.28 1.17-.78.53-1.85.9 4.77 1.07 4.77 5.15 0 1.47-.56 2.72t-1.63 2.15q-1.08.91-2.64 1.42-1.57.51-3.59.51h-8.73zm36.96 17.68q.35 0 .62.28l1.7 1.84q-1.41 1.74-3.47 2.67-2.05.93-4.93.93-2.58 0-4.64-.88-2.05-.88-3.51-2.45-1.45-1.57-2.23-3.75-.78-2.17-.78-4.75 0-2.61.84-4.77.83-2.17 2.34-3.74t3.61-2.44q2.09-.87 4.64-.87 2.53 0 4.49.83t3.33 2.18l-1.44 2q-.13.19-.33.33-.2.15-.55.15-.24 0-.49-.14-.26-.14-.56-.34-.31-.2-.71-.44t-.93-.44q-.52-.2-1.22-.33-.7-.14-1.61-.14-1.55 0-2.84.55-1.29.56-2.21 1.6-.93 1.05-1.44 2.56-.52 1.52-.52 3.45 0 1.95.56 3.47.55 1.52 1.49 2.56.95 1.04 2.23 1.6 1.28.55 2.75.55.88 0 1.59-.1.71-.09 1.31-.3t1.14-.54q.53-.33 1.06-.81.16-.14.34-.23.17-.09.37-.09m12.46 1.78h5.94q.64 0 1.01.36.38.36.38.95v2.37h-15.87v-1.31q0-.4.16-.84.17-.44.54-.79l7.02-7.04q.88-.9 1.58-1.72.7-.81 1.16-1.61t.71-1.63q.25-.82.25-1.73 0-.83-.24-1.47-.24-.63-.68-1.06t-1.06-.65q-.61-.21-1.38-.21-.7 0-1.3.2t-1.07.56q-.46.36-.78.84t-.48 1.05q-.27.74-.71.98-.43.24-1.24.11l-2.08-.37q.24-1.66.92-2.92.69-1.25 1.72-2.09 1.04-.84 2.37-1.27 1.34-.42 2.87-.42 1.6 0 2.93.47t2.27 1.34q.95.86 1.48 2.08.52 1.21.52 2.7 0 1.28-.37 2.37-.38 1.09-1.01 2.08t-1.48 1.92-1.78 1.89l-5.21 5.32q.75-.22 1.49-.34.75-.12 1.42-.12"/></svg>