<svg xmlns="http://www.w3.org/2000/svg" width="100" height="100" viewBox="0 0 100 100"><rect width="100%" height="100%" fill="#dc2626"/><path fill="#ffffff" d="M27.495 59.595h5.17q1.42 0 2.39-.34t1.55-.91.83-1.33q.26-.76.26-1.62 0-.89-.28-1.6-.29-.72-.9-1.22t-1.56-.77q-.96-.27-2.31-.27h-5.15zm4.35-19.53h-4.35v7.94h4.06q2.63 0 3.97-.95 1.33-.95 1.33-3.02 0-2.15-1.21-3.06-1.22-.91-3.8-.91m-9.46-3.95h9.46q2.7 0 4.62.51 1.91.51 3.14 1.46t1.8 2.3.57 3.04q0 .97-.29 1.85-.28.89-.88 1.66t-1.52 1.39q-.92.63-2.2 1.07 5.66 1.27 5.66 6.12 0 1.74-.66 3.23-.67 1.48-1.94 2.55t-3.13 1.68q-1.87.61-4.26.61h-10.37zm30.13 23.25h10.98v4.22h-16.09v-27.47h5.11zm25.1-23.25v17.7q0 2.32-.57 4.18-.57 1.87-1.7 3.18t-2.82 2.01-3.94.7q-1.02 0-2.01-.12t-2.07-.39q.06-.76.13-1.52.08-.76.14-1.52.05-.42.33-.67.27-.26.79-.26.32 0 .84.13.52.14 1.32.14 1.09 0 1.92-.32.84-.31 1.4-.99.56-.69.84-1.78.29-1.09.29-2.65v-17.82z"/></svg>