<svg xmlns="http://www.w3.org/2000/svg" width="100" height="100" viewBox="0 0 100 100"><rect width="100%" height="100%" fill="#dc2626"/><path fill="#ffffff" d="M25.765 49.98h4.32v5.27q-.99.73-2.11 1.07-1.12.33-2.39.33-1.6 0-2.89-.49-1.29-.5-2.2-1.38-.92-.88-1.41-2.1-.5-1.23-.5-2.68 0-1.46.48-2.69.48-1.22 1.35-2.1.88-.89 2.13-1.37 1.25-.49 2.81-.49.79 0 1.48.13.69.12 1.28.34t1.07.54q.49.31.9.69l-.7 1.1q-.16.26-.42.32t-.57-.13q-.29-.17-.59-.34t-.66-.3q-.37-.13-.82-.21-.46-.08-1.05-.08-.96 0-1.74.33-.78.32-1.33.92-.55.61-.85 1.45-.29.85-.29 1.89 0 1.12.32 2 .32.87.9 1.48t1.4.93 1.82.32q.72 0 1.29-.16.57-.15 1.11-.41V51.8h-1.64q-.23 0-.37-.13-.13-.13-.13-.32zm22.08-6.48h1.9l-4.04 13.01h-2.19l-2.84-8.89q-.12-.33-.22-.79-.05.22-.11.42-.05.2-.11.37l-2.87 8.89h-2.2l-4.03-13.01h2.02q.32 0 .53.14.21.15.28.4l2.22 7.79q.07.29.14.63.06.33.14.7.07-.38.15-.71.09-.33.19-.62l2.55-7.79q.08-.2.29-.37t.52-.17h.71q.31 0 .51.15t.3.39l2.54 7.79q.19.56.35 1.29.11-.71.26-1.29l2.21-7.79q.05-.22.27-.38.23-.16.53-.16m18.92 0h1.9l-4.04 13.01h-2.19l-2.84-8.89q-.12-.33-.22-.79-.05.22-.11.42-.05.2-.11.37l-2.88 8.89h-2.19l-4.03-13.01h2.02q.32 0 .53.14.21.15.28.4l2.22 7.79q.07.29.13.63.07.33.14.7.08-.38.16-.71.09-.33.19-.62l2.55-7.79q.07-.2.29-.37.21-.17.51-.17h.71q.32 0 .52.15t.29.39l2.55 7.79q.19.56.34 1.29.12-.71.26-1.29l2.22-7.79q.05-.22.27-.38t.53-.16m6.24 8.1h4.14l-1.59-4.33q-.11-.29-.24-.69-.13-.39-.25-.85-.12.46-.25.86-.12.4-.24.69zm3.3-8.1 5.11 13.01h-1.87q-.32 0-.51-.16-.2-.16-.3-.39l-.97-2.65h-5.39l-.98 2.65q-.07.21-.27.38-.21.17-.52.17h-1.89l5.12-13.01z"/></svg>