<svg xmlns="http://www.w3.org/2000/svg" width="100" height="100" viewBox="0 0 100 100"><rect width="100%" height="100%" fill="#dc2626"/><path fill="#ffffff" d="M36.34 43.13h2l-4.26 13.74h-2.31l-3-9.39q-.13-.34-.23-.83l-.11.44q-.06.21-.13.39l-3.03 9.39h-2.32L18.7 43.13h2.13q.34 0 .56.16t.3.42l2.34 8.22q.07.3.14.66.08.36.15.75.08-.4.17-.75.09-.36.19-.66l2.7-8.22q.08-.22.3-.4t.55-.18h.75q.33 0 .54.16.21.17.31.42l2.69 8.22q.2.59.36 1.36.12-.75.28-1.36l2.33-8.22q.06-.23.29-.41.24-.17.56-.17m13.13 10.5q.21 0 .37.16l1.01 1.09q-.84 1.04-2.06 1.59t-2.93.55q-1.53 0-2.75-.52t-2.09-1.45q-.86-.93-1.32-2.23-.46-1.29-.46-2.82 0-1.55.49-2.83.49-1.29 1.39-2.22t2.14-1.45q1.25-.52 2.76-.52 1.5 0 2.66.5 1.17.49 1.98 1.29l-.85 1.18q-.08.12-.19.2-.12.09-.33.09-.15 0-.3-.08t-.33-.2-.42-.26-.55-.26-.73-.2q-.41-.08-.95-.08-.92 0-1.69.32-.76.33-1.31.95-.55.63-.86 1.52-.3.9-.3 2.05 0 1.16.33 2.06.32.91.88 1.52.57.62 1.33.95t1.63.33q.52 0 .94-.06.43-.06.78-.18.36-.13.68-.32t.63-.48q.09-.08.2-.14.1-.05.22-.05m11.08-9.21-.63 1.21q-.12.2-.24.29-.13.09-.32.09-.2 0-.43-.15-.24-.14-.56-.32t-.76-.33q-.43-.15-1.02-.15-.53 0-.93.13t-.67.36q-.27.22-.4.54t-.13.7q0 .48.27.81.27.32.71.55.45.23 1.02.41t1.17.38q.6.21 1.17.48t1.01.68q.45.41.72 1.01t.27 1.46q0 .93-.32 1.74t-.93 1.42q-.61.6-1.49.95-.89.34-2.03.34-.65 0-1.29-.13-.64-.12-1.22-.36t-1.1-.57q-.51-.33-.91-.74l.75-1.23q.1-.13.25-.22t.32-.09q.24 0 .51.19.28.2.66.44.38.23.89.43.51.19 1.22.19 1.09 0 1.69-.52.6-.51.6-1.48 0-.54-.27-.89-.27-.34-.72-.57t-1.02-.39q-.57-.17-1.16-.36-.58-.19-1.15-.45-.57-.27-1.02-.7-.45-.42-.72-1.06-.27-.65-.27-1.59 0-.75.3-1.46t.87-1.26 1.41-.89q.83-.33 1.91-.33 1.22 0 2.25.38 1.02.38 1.74 1.06m18.75-1.29h2l-4.26 13.74h-2.31l-3-9.39q-.13-.34-.23-.83-.06.24-.12.44-.05.21-.12.39l-3.03 9.39h-2.32l-4.25-13.74h2.13q.34 0 .56.16t.3.42l2.34 8.22q.07.3.14.66t.15.75q.08-.4.17-.75.09-.36.19-.66l2.7-8.22q.08-.22.3-.4t.54-.18h.76q.33 0 .54.16.21.17.31.42l2.69 8.22q.2.59.36 1.36.12-.75.28-1.36l2.33-8.22q.06-.23.29-.41.24-.17.56-.17"/></svg>