<svg xmlns="http://www.w3.org/2000/svg" width="100" height="100" viewBox="0 0 100 100"><rect width="100%" height="100%" fill="#dc2626"/><path fill="#ffffff" d="M38.095 50q0 2.22-.74 4.09-.74 1.86-2.09 3.2-1.34 1.35-3.23 2.09t-4.2.74h-7.72V39.88h7.72q2.31 0 4.2.74 1.89.75 3.23 2.09 1.35 1.34 2.09 3.2t.74 4.09m-3.86 0q0-1.67-.45-2.99-.44-1.32-1.27-2.24t-2.02-1.41q-1.18-.49-2.66-.49h-3.94v14.25h3.94q1.48 0 2.66-.49 1.19-.49 2.02-1.4.83-.92 1.27-2.24.45-1.33.45-2.99m25.15 0q0 2.22-.74 4.09-.74 1.86-2.08 3.2-1.35 1.35-3.24 2.09t-4.2.74h-7.71V39.88h7.71q2.31 0 4.2.74 1.89.75 3.24 2.09 1.34 1.34 2.08 3.2t.74 4.09m-3.86 0q0-1.67-.44-2.99t-1.28-2.24q-.83-.92-2.01-1.41t-2.67-.49h-3.93v14.25h3.93q1.49 0 2.67-.49t2.01-1.4q.84-.92 1.28-2.24.44-1.33.44-2.99m10.95-10.12v8.48h.88q.53 0 .88-.15.35-.14.6-.47l5.59-7.07q.35-.44.73-.62.39-.17.98-.17h3.25l-6.82 8.41q-.6.77-1.25 1.09.46.17.83.47.38.3.71.79l7.03 9.48h-3.32q-.67 0-1-.19t-.55-.55l-5.73-7.48q-.26-.38-.61-.53t-1.01-.15h-1.19v8.9h-3.77V39.88z"/></svg>