<svg xmlns="http://www.w3.org/2000/svg" width="100" height="100" viewBox="0 0 100 100"><rect width="100%" height="100%" fill="#dc2626"/><path fill="#ffffff" d="M25.785 56.76h7.8v3h-11.43V40.24h3.63zm24.03-16.52v2.98h-5.89v16.54h-3.63V43.22h-5.88v-2.98zM70.995 50q0 2.15-.71 3.98-.71 1.82-2 3.16-1.3 1.34-3.12 2.09t-4.05.75q-2.21 0-4.04-.75-1.82-.75-3.12-2.09t-2.02-3.16q-.72-1.83-.72-3.98t.72-3.98 2.02-3.16q1.3-1.34 3.12-2.09 1.83-.75 4.04-.75 1.49 0 2.79.35 1.31.34 2.41.97 1.09.63 1.96 1.52.87.9 1.48 2.01t.93 2.4q.31 1.3.31 2.73m-3.71 0q0-1.61-.43-2.88-.43-1.28-1.23-2.17t-1.94-1.36q-1.14-.48-2.57-.48t-2.57.48q-1.14.47-1.95 1.36-.8.89-1.23 2.17-.43 1.27-.43 2.88t.43 2.88q.43 1.28 1.23 2.16.81.89 1.95 1.36t2.57.47 2.57-.47 1.94-1.36q.8-.88 1.23-2.16.43-1.27.43-2.88m10.56-9.76v19.52h-3.65V40.24z"/></svg>