<svg xmlns="http://www.w3.org/2000/svg" width="100" height="100" viewBox="0 0 100 100"><rect width="100%" height="100%" fill="#dc2626"/><path fill="#ffffff" d="M27.705 50.09h4.62q1.7 0 2.97-.42 1.26-.43 2.1-1.22.84-.8 1.26-1.93.41-1.14.41-2.55 0-1.33-.41-2.41-.42-1.08-1.24-1.84-.83-.76-2.1-1.16-1.26-.4-2.99-.4h-4.62zm-6.19-16.72h10.81q3.34 0 5.78.78 2.43.79 4.02 2.19t2.36 3.36q.77 1.95.77 4.27 0 2.42-.81 4.43-.8 2.02-2.41 3.46-1.61 1.45-4.04 2.26-2.42.8-5.67.8h-4.62v11.71h-6.19zm35.47 20.7h10.58l-4.05-11.06q-.3-.74-.62-1.75t-.64-2.18q-.3 1.17-.63 2.19-.32 1.03-.62 1.79zm8.44-20.7 13.06 33.26h-4.78q-.81 0-1.31-.4-.51-.4-.76-1l-2.48-6.79h-13.78l-2.49 6.79q-.18.53-.71.96-.53.44-1.31.44h-4.83l13.09-33.26z"/></svg>