<svg xmlns="http://www.w3.org/2000/svg" width="100" height="100" viewBox="0 0 100 100"><rect width="100%" height="100%" fill="#dc2626"/><path fill="#ffffff" d="M38.115 38.795v3.42h-6.76v18.99h-4.16v-18.99h-6.76v-3.42zm13.98 11.17h7.44v9.07q-1.7 1.26-3.63 1.84t-4.13.58q-2.74 0-4.97-.85-2.22-.86-3.8-2.38-1.57-1.52-2.42-3.62-.85-2.11-.85-4.61 0-2.52.82-4.63t2.33-3.63 3.67-2.35q2.15-.84 4.83-.84 1.36 0 2.55.22 1.19.21 2.2.59 1.02.38 1.85.92.84.55 1.54 1.2l-1.2 1.89q-.27.45-.72.55t-.98-.23l-1.02-.58q-.51-.3-1.14-.52-.63-.21-1.41-.35-.79-.14-1.81-.14-1.66 0-3 .56-1.34.55-2.28 1.59-.95 1.04-1.46 2.5t-.51 3.25q0 1.93.55 3.44t1.55 2.55q1 1.05 2.41 1.6t3.14.55q1.24 0 2.22-.26.98-.27 1.91-.72v-4.06h-2.82q-.41 0-.63-.22-.23-.23-.23-.55zm15.64.1h3.12q1.15 0 2-.29t1.42-.82q.56-.54.84-1.3.28-.77.28-1.72 0-.9-.28-1.62-.28-.73-.84-1.25-.55-.51-1.41-.78-.85-.27-2.01-.27h-3.12zm-4.17-11.27h7.29q2.25 0 3.89.52 1.64.53 2.71 1.48 1.07.94 1.59 2.26t.52 2.88q0 1.63-.54 2.99-.54 1.35-1.63 2.33-1.08.98-2.72 1.52t-3.82.54h-3.12v7.89h-4.17z"/></svg>