<svg xmlns="http://www.w3.org/2000/svg" width="100" height="100" viewBox="0 0 100 100"><rect width="100%" height="100%" fill="#dc2626"/><path fill="#ffffff" d="M35.615 40.24v2.98h-5.89v16.54h-3.63V43.22h-5.88v-2.98zm20.99 0h2.74v19.52h-3.2V47.15q0-.76.08-1.63l-5.9 11.08q-.41.8-1.28.8h-.51q-.86 0-1.28-.8l-5.97-11.12q.04.44.07.87.02.44.02.8v12.61h-3.2V40.24h2.75q.24 0 .41.01.18.02.32.07t.26.18q.11.12.22.32l5.85 10.84q.23.43.42.89.2.46.39.95.18-.5.39-.97.2-.47.43-.9l5.76-10.81q.11-.2.23-.32.12-.13.27-.18.14-.05.31-.07.18-.01.42-.01m16.7 9.73h6.48v7.9q-1.48 1.09-3.16 1.6t-3.6.51q-2.39 0-4.33-.75-1.94-.74-3.31-2.06-1.37-1.33-2.11-3.16-.74-1.84-.74-4.01 0-2.2.71-4.04.72-1.83 2.04-3.16 1.31-1.32 3.19-2.05t4.21-.73q1.19 0 2.22.19t1.92.52q.88.33 1.61.8.73.48 1.34 1.04l-1.04 1.65q-.24.39-.64.48-.39.09-.85-.19-.44-.26-.89-.52-.44-.25-.99-.44t-1.23-.31q-.68-.13-1.57-.13-1.45 0-2.61.49-1.17.49-1.99 1.39-.83.91-1.27 2.17-.45 1.27-.45 2.84 0 1.67.48 2.99t1.35 2.23 2.1 1.39 2.74.48q1.08 0 1.93-.23t1.66-.62V52.7h-2.46q-.35 0-.54-.2-.2-.19-.2-.48z"/></svg>