<svg xmlns="http://www.w3.org/2000/svg" width="100" height="100" viewBox="0 0 100 100"><rect width="100%" height="100%" fill="#dc2626"/><path fill="#ffffff" d="M36.885 43.13h2l-4.26 13.74h-2.31l-3-9.39q-.13-.34-.23-.83-.06.24-.12.44-.05.21-.12.39l-3.03 9.39h-2.32l-4.25-13.74h2.13q.34 0 .56.16t.3.42l2.34 8.22q.07.3.14.66t.15.75q.08-.4.17-.75.09-.36.19-.66l2.7-8.22q.07-.22.3-.4.22-.18.54-.18h.75q.34 0 .55.16.21.17.31.42l2.69 8.22q.2.59.36 1.36.12-.75.27-1.36l2.34-8.22q.06-.23.29-.41.23-.17.56-.17M53.675 50q0 1.51-.5 2.8-.49 1.29-1.41 2.23-.91.94-2.19 1.46-1.28.53-2.85.53-1.56 0-2.84-.53-1.28-.52-2.2-1.46t-1.42-2.23-.5-2.8.5-2.8q.5-1.28 1.42-2.22t2.2-1.47 2.84-.53q1.04 0 1.97.24.92.25 1.69.69t1.38 1.07 1.04 1.41.65 1.69.22 1.92m-2.61 0q0-1.13-.3-2.03-.31-.89-.87-1.52t-1.36-.96-1.81-.33-1.81.33-1.37.96q-.56.63-.87 1.52-.3.9-.3 2.03t.3 2.03q.31.9.87 1.52.57.62 1.37.95.8.34 1.81.34t1.81-.34q.8-.33 1.36-.95t.87-1.52q.3-.9.3-2.03m13.88-6.87h2.57v13.74h-2.57v-6h-6.45v6h-2.57V43.13h2.57v5.91h6.45zm8.18 11.75h2.58q.72 0 1.2-.18.49-.17.77-.45.29-.29.42-.67t.13-.8q0-.45-.14-.81-.14-.35-.45-.61-.3-.25-.78-.38t-1.16-.13h-2.57zm2.18-9.77h-2.18v3.97h2.03q1.31 0 1.98-.48.67-.47.67-1.51 0-1.07-.6-1.52-.61-.46-1.9-.46m-4.74-1.98h4.74q1.34 0 2.3.26t1.58.73q.61.48.89 1.15.29.68.29 1.52 0 .48-.14.93-.15.44-.45.82-.29.39-.76.7-.46.32-1.09.53 2.83.64 2.83 3.06 0 .88-.33 1.62-.34.74-.97 1.28-.64.53-1.57.84-.93.3-2.13.3h-5.19z"/></svg>