<svg xmlns="http://www.w3.org/2000/svg" width="100" height="100" viewBox="0 0 100 100"><rect width="100%" height="100%" fill="#dc2626"/><path fill="#ffffff" d="M34.01 43.855h1.79l-3.82 12.29h-2.06l-2.69-8.4q-.11-.3-.2-.75-.05.22-.1.4l-.11.35-2.72 8.4h-2.07l-3.81-12.29h1.91q.3 0 .5.14t.27.38l2.09 7.35q.07.27.13.59.07.32.13.67.07-.36.15-.67.08-.32.18-.59l2.41-7.35q.07-.2.27-.36t.49-.16h.67q.3 0 .48.14.19.15.28.38l2.41 7.35q.18.53.32 1.22.11-.68.25-1.22l2.09-7.35q.05-.22.26-.37t.5-.15m17.86 0h1.8l-3.82 12.29h-2.07l-2.68-8.4q-.11-.3-.21-.75-.05.22-.1.4-.05.19-.11.35l-2.71 8.4H39.9l-3.81-12.29H38q.3 0 .5.14t.27.38l2.09 7.35q.07.27.13.59t.13.67q.07-.36.15-.67.08-.32.17-.59l2.42-7.35q.07-.2.27-.36t.48-.16h.68q.29 0 .48.14.19.15.28.38l2.41 7.35q.17.53.32 1.22.11-.68.25-1.22l2.09-7.35q.05-.22.26-.37.2-.15.49-.15m14.91 0h1.73v12.29h-2.02v-7.94q0-.48.05-1.03l-3.71 6.98q-.26.5-.81.5h-.32q-.54 0-.81-.5l-3.76-7q.03.28.05.55.01.27.01.5v7.94h-2.01v-12.29h1.73q.15 0 .26.01t.2.04.16.11.14.2l3.68 6.83q.15.27.27.56t.24.6q.12-.32.25-.61.12-.3.27-.57l3.63-6.81q.07-.12.14-.2.08-.08.17-.11t.2-.04.26-.01m7.05 7.65h3.91l-1.5-4.09q-.11-.27-.23-.65-.12-.37-.23-.8-.12.43-.23.81-.12.38-.23.66zm3.12-7.65 4.83 12.29h-1.77q-.3 0-.49-.15-.18-.15-.28-.37l-.91-2.51h-5.1l-.91 2.51q-.07.2-.27.36-.19.16-.48.16h-1.79l4.84-12.29z"/></svg>