<svg xmlns="http://www.w3.org/2000/svg" width="100" height="100" viewBox="0 0 100 100"><rect width="100%" height="100%" fill="#dc2626"/><path fill="#ffffff" d="M34.105 38.865v1.29q0 .6-.34 1.09l-9.64 13.62h9.76v2.8h-14.3v-1.38q0-.26.09-.5t.24-.45l9.67-13.69h-9.39v-2.78zm5.27 9.4q0 1.55.41 2.78.42 1.22 1.19 2.08.78.85 1.87 1.3 1.1.46 2.48.46t2.48-.46q1.1-.45 1.86-1.3.77-.86 1.19-2.08.41-1.23.41-2.78t-.41-2.77q-.42-1.23-1.19-2.09-.76-.86-1.86-1.31-1.1-.46-2.48-.46t-2.48.46q-1.09.45-1.87 1.31-.77.86-1.19 2.09-.41 1.22-.41 2.77m11.67 7.88 4.77 5.2h-2.88q-.63 0-1.13-.17t-.92-.62l-2.75-3.05q-.66.19-1.36.28t-1.45.09q-2.13 0-3.89-.72-1.75-.73-3.01-2.01-1.25-1.29-1.94-3.05t-.69-3.83.69-3.83 1.94-3.05q1.26-1.28 3.01-2 1.76-.73 3.89-.73 1.43 0 2.69.34 1.26.33 2.32.93 1.05.61 1.89 1.47t1.42 1.93q.59 1.07.89 2.31.31 1.25.31 2.63 0 1.26-.26 2.41t-.75 2.15-1.19 1.84-1.6 1.48m10.37-17.28v18.8h-3.51v-18.8zm17.11 14.37q.29 0 .51.22l1.38 1.49q-1.15 1.42-2.82 2.17-1.67.76-4.01.76-2.09 0-3.76-.72-1.67-.71-2.85-1.99-1.19-1.27-1.82-3.04t-.63-3.86q0-2.12.68-3.88.67-1.76 1.9-3.04 1.23-1.27 2.93-1.98 1.71-.71 3.77-.71t3.65.68 2.71 1.77l-1.17 1.62q-.1.16-.27.28-.16.11-.44.11-.2 0-.41-.11t-.45-.27q-.25-.16-.57-.36-.33-.19-.76-.36-.43-.16-.99-.27-.57-.11-1.31-.11-1.26 0-2.31.45-1.04.45-1.8 1.3-.75.85-1.17 2.08-.41 1.23-.41 2.8 0 1.59.45 2.82.44 1.24 1.21 2.08.77.85 1.81 1.3 1.04.44 2.23.44.72 0 1.3-.07.58-.08 1.06-.25.49-.17.93-.44.43-.26.86-.65.13-.12.27-.19.15-.07.3-.07"/></svg>